%
M48
M72
T01C0.0400
%
T01
X18085Y5458
X18085Y4458
X18079Y8236
X18079Y7236
X18081Y10992
X18081Y9992
X18085Y13742
X18085Y12742
X2750Y1419
X3750Y1419
X6750Y1419
X5750Y1419
X4750Y1419
X7750Y1419
X16750Y1419
X17750Y1419
X12750Y1419
X13750Y1419
X14750Y1419
X15750Y1419
X4750Y18419
X5750Y18419
X10750Y18419
X2750Y18419
X11750Y18419
X12750Y18419
X13750Y18419
X14750Y18419
X16750Y18419
X17750Y18419
X15750Y18419
X6750Y18419
X7750Y18419
X3750Y18419
X10750Y1419
X11750Y1419
X2187Y3537
X2187Y4537
X10561Y16439
X9561Y16439
X12762Y3196
X13762Y3196
X6890Y6706
X7890Y6706
X2690Y6706
X3690Y6706
X6890Y14006
X7890Y14006
X2690Y14006
X3690Y14006
X16148Y16242
X17148Y16242
X18148Y16242
X4959Y16439
X3959Y16439
X2959Y16439
X14407Y16439
X13407Y16439
X12407Y16439
M30
