G75*
%MOIN*%
%OFA0B0*%
%FSLAX24Y24*%
%IPPOS*%
%LPD*%
%AMOC8*
5,1,8,0,0,1.08239X$1,22.5*
%
%ADD10C,0.0000*%
%ADD11C,0.0080*%
%ADD12C,0.0060*%
%ADD13C,0.0050*%
%ADD14C,0.0020*%
%ADD15C,0.0040*%
%ADD16R,0.0200X0.0200*%
D10*
X000415Y000100D02*
X000415Y019785D01*
X020100Y019785D01*
X020100Y000100D01*
X000415Y000100D01*
D11*
X003118Y003432D02*
X003618Y003432D01*
X003618Y004532D01*
X003118Y004532D01*
X003118Y003432D01*
X010788Y005101D02*
X010788Y006001D01*
X012748Y006001D01*
X012748Y005101D01*
X010788Y005101D01*
X010829Y006689D02*
X010829Y007589D01*
X012789Y007589D01*
X012789Y006689D01*
X010829Y006689D01*
X011028Y010619D02*
X011028Y011519D01*
X012988Y011519D01*
X012988Y010619D01*
X011028Y010619D01*
X010967Y012355D02*
X010967Y013255D01*
X012927Y013255D01*
X012927Y012355D01*
X010967Y012355D01*
X008285Y015989D02*
X008285Y016889D01*
X006325Y016889D01*
X006325Y015989D01*
X008285Y015989D01*
D12*
X008114Y015809D02*
X007940Y015809D01*
X007940Y015679D01*
X008027Y015722D01*
X008071Y015722D01*
X008114Y015679D01*
X008114Y015592D01*
X008071Y015549D01*
X007984Y015549D01*
X007940Y015592D01*
X007819Y015549D02*
X007733Y015635D01*
X007776Y015635D02*
X007646Y015635D01*
X007646Y015549D02*
X007646Y015809D01*
X007776Y015809D01*
X007819Y015765D01*
X007819Y015679D01*
X007776Y015635D01*
X009061Y015689D02*
X009061Y015939D01*
X009061Y016939D01*
X011061Y016939D01*
X011061Y015939D01*
X011061Y015689D01*
X009061Y015689D01*
X009061Y015939D02*
X011061Y015939D01*
X011907Y015939D02*
X011907Y016939D01*
X014907Y016939D01*
X014907Y015939D01*
X014907Y015689D01*
X011907Y015689D01*
X011907Y015939D01*
X014907Y015939D01*
X015648Y015742D02*
X015648Y016742D01*
X015648Y016992D01*
X018648Y016992D01*
X018648Y016742D01*
X018648Y015742D01*
X015648Y015742D01*
X015648Y016742D02*
X018648Y016742D01*
X018000Y017919D02*
X017500Y017919D01*
X017250Y018169D01*
X017250Y018669D01*
X017500Y018919D01*
X018000Y018919D01*
X018250Y018669D01*
X018250Y018169D01*
X018000Y017919D01*
X017250Y018169D02*
X017000Y017919D01*
X016500Y017919D01*
X016250Y018169D01*
X016250Y018669D01*
X016000Y018919D01*
X015500Y018919D01*
X015250Y018669D01*
X015250Y018169D01*
X015500Y017919D01*
X016000Y017919D01*
X016250Y018169D01*
X016250Y018669D02*
X016500Y018919D01*
X017000Y018919D01*
X017250Y018669D01*
X015250Y018669D02*
X015000Y018919D01*
X014500Y018919D01*
X014250Y018669D01*
X014250Y018169D01*
X014500Y017919D01*
X015000Y017919D01*
X015250Y018169D01*
X014250Y018169D02*
X014000Y017919D01*
X013500Y017919D01*
X013250Y018169D01*
X013250Y018669D01*
X013500Y018919D01*
X014000Y018919D01*
X014250Y018669D01*
X013250Y018669D02*
X013000Y018919D01*
X012500Y018919D01*
X012250Y018669D01*
X012250Y018169D01*
X012500Y017919D01*
X013000Y017919D01*
X013250Y018169D01*
X012250Y018169D02*
X012000Y017919D01*
X011500Y017919D01*
X011250Y018169D01*
X011250Y018669D01*
X011500Y018919D01*
X012000Y018919D01*
X012250Y018669D01*
X011250Y018669D02*
X011000Y018919D01*
X010500Y018919D01*
X010250Y018669D01*
X010250Y018169D01*
X010500Y017919D01*
X011000Y017919D01*
X011250Y018169D01*
X008250Y018169D02*
X008250Y018669D01*
X008000Y018919D01*
X007500Y018919D01*
X007250Y018669D01*
X007250Y018169D01*
X007500Y017919D01*
X008000Y017919D01*
X008250Y018169D01*
X007250Y018169D02*
X007000Y017919D01*
X006500Y017919D01*
X006250Y018169D01*
X006250Y018669D01*
X006500Y018919D01*
X007000Y018919D01*
X007250Y018669D01*
X006250Y018669D02*
X006000Y018919D01*
X005500Y018919D01*
X005250Y018669D01*
X005250Y018169D01*
X005500Y017919D01*
X006000Y017919D01*
X006250Y018169D01*
X005250Y018169D02*
X005000Y017919D01*
X004500Y017919D01*
X004250Y018169D01*
X004250Y018669D01*
X004000Y018919D01*
X003500Y018919D01*
X003250Y018669D01*
X003250Y018169D01*
X003500Y017919D01*
X004000Y017919D01*
X004250Y018169D01*
X004250Y018669D02*
X004500Y018919D01*
X005000Y018919D01*
X005250Y018669D01*
X005459Y016939D02*
X002459Y016939D01*
X002459Y015939D01*
X002459Y015689D01*
X005459Y015689D01*
X005459Y015939D01*
X002459Y015939D01*
X002500Y017919D02*
X002250Y018169D01*
X002250Y018669D01*
X002500Y018919D01*
X003000Y018919D01*
X003250Y018669D01*
X003250Y018169D02*
X003000Y017919D01*
X002500Y017919D01*
X005459Y016939D02*
X005459Y015939D01*
X011077Y013695D02*
X011077Y013435D01*
X011077Y013521D02*
X011207Y013521D01*
X011250Y013565D01*
X011250Y013652D01*
X011207Y013695D01*
X011077Y013695D01*
X011164Y013521D02*
X011250Y013435D01*
X011372Y013565D02*
X011545Y013565D01*
X011502Y013435D02*
X011502Y013695D01*
X011372Y013565D01*
X011476Y011959D02*
X011563Y011959D01*
X011606Y011915D01*
X011606Y011872D01*
X011563Y011829D01*
X011606Y011785D01*
X011606Y011742D01*
X011563Y011699D01*
X011476Y011699D01*
X011433Y011742D01*
X011519Y011829D02*
X011563Y011829D01*
X011433Y011915D02*
X011476Y011959D01*
X011311Y011915D02*
X011311Y011829D01*
X011268Y011785D01*
X011138Y011785D01*
X011138Y011699D02*
X011138Y011959D01*
X011268Y011959D01*
X011311Y011915D01*
X011225Y011785D02*
X011311Y011699D01*
X011277Y008030D02*
X011234Y007986D01*
X011277Y008030D02*
X011364Y008030D01*
X011407Y007986D01*
X011407Y007943D01*
X011234Y007769D01*
X011407Y007769D01*
X011113Y007769D02*
X011026Y007856D01*
X011069Y007856D02*
X010939Y007856D01*
X010939Y007769D02*
X010939Y008030D01*
X011069Y008030D01*
X011113Y007986D01*
X011113Y007899D01*
X011069Y007856D01*
X011028Y006441D02*
X010898Y006441D01*
X010898Y006181D01*
X010898Y006268D02*
X011028Y006268D01*
X011071Y006311D01*
X011071Y006398D01*
X011028Y006441D01*
X010984Y006268D02*
X011071Y006181D01*
X011192Y006181D02*
X011366Y006181D01*
X011279Y006181D02*
X011279Y006441D01*
X011192Y006354D01*
X012262Y003946D02*
X014262Y003946D01*
X014262Y003696D01*
X014262Y002696D01*
X012262Y002696D01*
X012262Y003696D01*
X012262Y003946D01*
X012262Y003696D02*
X014262Y003696D01*
X014500Y001919D02*
X014250Y001669D01*
X014250Y001169D01*
X014500Y000919D01*
X015000Y000919D01*
X015250Y001169D01*
X015500Y000919D01*
X016000Y000919D01*
X016250Y001169D01*
X016250Y001669D01*
X016000Y001919D01*
X015500Y001919D01*
X015250Y001669D01*
X015250Y001169D01*
X015250Y001669D02*
X015000Y001919D01*
X014500Y001919D01*
X014250Y001669D02*
X014000Y001919D01*
X013500Y001919D01*
X013250Y001669D01*
X013250Y001169D01*
X013500Y000919D01*
X014000Y000919D01*
X014250Y001169D01*
X013250Y001169D02*
X013000Y000919D01*
X012500Y000919D01*
X012250Y001169D01*
X012250Y001669D01*
X012000Y001919D01*
X011500Y001919D01*
X011250Y001669D01*
X011250Y001169D01*
X011500Y000919D01*
X012000Y000919D01*
X012250Y001169D01*
X012250Y001669D02*
X012500Y001919D01*
X013000Y001919D01*
X013250Y001669D01*
X011250Y001669D02*
X011000Y001919D01*
X010500Y001919D01*
X010250Y001669D01*
X010250Y001169D01*
X010500Y000919D01*
X011000Y000919D01*
X011250Y001169D01*
X008250Y001169D02*
X008250Y001669D01*
X008000Y001919D01*
X007500Y001919D01*
X007250Y001669D01*
X007250Y001169D01*
X007500Y000919D01*
X008000Y000919D01*
X008250Y001169D01*
X007250Y001169D02*
X007000Y000919D01*
X006500Y000919D01*
X006250Y001169D01*
X006000Y000919D01*
X005500Y000919D01*
X005250Y001169D01*
X005000Y000919D01*
X004500Y000919D01*
X004250Y001169D01*
X004250Y001669D01*
X004500Y001919D01*
X005000Y001919D01*
X005250Y001669D01*
X005250Y001169D01*
X005250Y001669D02*
X005500Y001919D01*
X006000Y001919D01*
X006250Y001669D01*
X006250Y001169D01*
X006250Y001669D02*
X006500Y001919D01*
X007000Y001919D01*
X007250Y001669D01*
X004250Y001669D02*
X004000Y001919D01*
X003500Y001919D01*
X003250Y001669D01*
X003250Y001169D01*
X003500Y000919D01*
X004000Y000919D01*
X004250Y001169D01*
X003250Y001169D02*
X003000Y000919D01*
X002500Y000919D01*
X002250Y001169D01*
X002250Y001669D01*
X002500Y001919D01*
X003000Y001919D01*
X003250Y001669D01*
X002687Y003037D02*
X002687Y005037D01*
X001687Y005037D01*
X001437Y005037D01*
X001437Y003037D01*
X001687Y003037D01*
X001687Y005037D01*
X002678Y003793D02*
X002938Y003793D01*
X002938Y003707D02*
X002938Y003880D01*
X002765Y003707D02*
X002678Y003793D01*
X002721Y003585D02*
X002678Y003542D01*
X002678Y003455D01*
X002721Y003412D01*
X002895Y003412D01*
X002938Y003455D01*
X002938Y003542D01*
X002895Y003585D01*
X002687Y003037D02*
X001687Y003037D01*
X001250Y000169D02*
X000750Y000169D01*
X016250Y001169D02*
X016500Y000919D01*
X017000Y000919D01*
X017250Y001169D01*
X017500Y000919D01*
X018000Y000919D01*
X018250Y001169D01*
X018250Y001669D01*
X018000Y001919D01*
X017500Y001919D01*
X017250Y001669D01*
X017250Y001169D01*
X017250Y001669D02*
X017000Y001919D01*
X016500Y001919D01*
X016250Y001669D01*
X017585Y003958D02*
X018585Y003958D01*
X018835Y003958D01*
X018835Y005958D01*
X018585Y005958D01*
X018585Y003958D01*
X017585Y003958D02*
X017585Y005958D01*
X018585Y005958D01*
X018579Y006736D02*
X018829Y006736D01*
X018829Y008736D01*
X018579Y008736D01*
X018579Y006736D01*
X017579Y006736D01*
X017579Y008736D01*
X018579Y008736D01*
X018581Y009492D02*
X017581Y009492D01*
X017581Y011492D01*
X018581Y011492D01*
X018831Y011492D01*
X018831Y009492D01*
X018581Y009492D01*
X018581Y011492D01*
X018585Y012242D02*
X017585Y012242D01*
X017585Y014242D01*
X018585Y014242D01*
X018835Y014242D01*
X018835Y012242D01*
X018585Y012242D01*
X018585Y014242D01*
D13*
X017287Y013628D02*
X017212Y013704D01*
X017062Y013704D01*
X016987Y013628D01*
X017287Y013628D02*
X017287Y013553D01*
X016987Y013253D01*
X017287Y013253D01*
X016827Y013178D02*
X016527Y013178D01*
X016366Y013328D02*
X016291Y013253D01*
X016141Y013253D01*
X016066Y013328D01*
X015906Y013253D02*
X015606Y013253D01*
X015756Y013253D02*
X015756Y013704D01*
X015606Y013553D01*
X015446Y013553D02*
X015371Y013478D01*
X015446Y013403D01*
X015446Y013328D01*
X015371Y013253D01*
X015220Y013253D01*
X015145Y013328D01*
X015296Y013478D02*
X015371Y013478D01*
X015446Y013553D02*
X015446Y013628D01*
X015371Y013704D01*
X015220Y013704D01*
X015145Y013628D01*
X014985Y013628D02*
X014685Y013328D01*
X014685Y013253D01*
X014507Y013083D02*
X015927Y013083D01*
X015927Y011223D01*
X014507Y011223D01*
X014507Y013083D01*
X014225Y013253D02*
X014225Y013704D01*
X014525Y013704D01*
X014685Y013704D02*
X014985Y013704D01*
X014985Y013628D01*
X014375Y013478D02*
X014225Y013478D01*
X014064Y013478D02*
X014064Y013628D01*
X013989Y013704D01*
X013764Y013704D01*
X013764Y013253D01*
X013764Y013403D02*
X013989Y013403D01*
X014064Y013478D01*
X013914Y013403D02*
X014064Y013253D01*
X013607Y013253D02*
X013457Y013253D01*
X013532Y013253D02*
X013532Y013704D01*
X013457Y013704D02*
X013607Y013704D01*
X016066Y013628D02*
X016141Y013704D01*
X016291Y013704D01*
X016366Y013628D01*
X016366Y013553D01*
X016291Y013478D01*
X016366Y013403D01*
X016366Y013328D01*
X016291Y013478D02*
X016216Y013478D01*
X016127Y008249D02*
X016278Y008249D01*
X016353Y008174D01*
X016353Y008099D01*
X016278Y008024D01*
X016353Y007949D01*
X016353Y007873D01*
X016278Y007798D01*
X016127Y007798D01*
X016052Y007873D01*
X015892Y007798D02*
X015592Y007798D01*
X015742Y007798D02*
X015742Y008249D01*
X015592Y008099D01*
X015432Y008099D02*
X015357Y008024D01*
X015432Y007949D01*
X015432Y007873D01*
X015357Y007798D01*
X015207Y007798D01*
X015132Y007873D01*
X015282Y008024D02*
X015357Y008024D01*
X015432Y008099D02*
X015432Y008174D01*
X015357Y008249D01*
X015207Y008249D01*
X015132Y008174D01*
X014971Y008174D02*
X014671Y007873D01*
X014671Y007798D01*
X014361Y008024D02*
X014211Y008024D01*
X014051Y008024D02*
X014051Y008174D01*
X013976Y008249D01*
X013750Y008249D01*
X013750Y007798D01*
X013750Y007949D02*
X013976Y007949D01*
X014051Y008024D01*
X013901Y007949D02*
X014051Y007798D01*
X014211Y007798D02*
X014211Y008249D01*
X014511Y008249D01*
X014671Y008249D02*
X014971Y008249D01*
X014971Y008174D01*
X014296Y007628D02*
X015716Y007628D01*
X015716Y005768D01*
X014296Y005768D01*
X014296Y007628D01*
X013594Y007798D02*
X013444Y007798D01*
X013519Y007798D02*
X013519Y008249D01*
X013444Y008249D02*
X013594Y008249D01*
X016052Y008174D02*
X016127Y008249D01*
X016203Y008024D02*
X016278Y008024D01*
X016513Y007723D02*
X016813Y007723D01*
X016973Y007798D02*
X017273Y007798D01*
X017123Y007798D02*
X017123Y008249D01*
X016973Y008099D01*
X020000Y000169D02*
X000500Y000169D01*
X000500Y019669D01*
X020000Y019669D01*
X020000Y000169D01*
D14*
X018128Y001966D02*
X018091Y001929D01*
X018018Y001929D01*
X017981Y001966D01*
X017907Y001966D02*
X017907Y002112D01*
X017870Y002149D01*
X017760Y002149D01*
X017760Y001929D01*
X017870Y001929D01*
X017907Y001966D01*
X017981Y002112D02*
X018018Y002149D01*
X018091Y002149D01*
X018128Y002112D01*
X018128Y002076D01*
X018091Y002039D01*
X018128Y002002D01*
X018128Y001966D01*
X018091Y002039D02*
X018054Y002039D01*
X017686Y001929D02*
X017686Y002149D01*
X017539Y002149D02*
X017539Y001929D01*
X017465Y001966D02*
X017465Y002039D01*
X017391Y002039D01*
X017318Y002112D02*
X017318Y001966D01*
X017355Y001929D01*
X017428Y001929D01*
X017465Y001966D01*
X017465Y002112D02*
X017428Y002149D01*
X017355Y002149D01*
X017318Y002112D01*
X017128Y002112D02*
X017128Y002076D01*
X017091Y002039D01*
X017128Y002002D01*
X017128Y001966D01*
X017091Y001929D01*
X017018Y001929D01*
X016981Y001966D01*
X016907Y001966D02*
X016907Y002112D01*
X016870Y002149D01*
X016760Y002149D01*
X016760Y001929D01*
X016870Y001929D01*
X016907Y001966D01*
X016981Y002112D02*
X017018Y002149D01*
X017091Y002149D01*
X017128Y002112D01*
X017091Y002039D02*
X017054Y002039D01*
X016686Y001966D02*
X016686Y002112D01*
X016649Y002149D01*
X016539Y002149D01*
X016539Y001929D01*
X016649Y001929D01*
X016686Y001966D01*
X016465Y002002D02*
X016465Y002149D01*
X016465Y002002D02*
X016391Y001929D01*
X016318Y002002D01*
X016318Y002149D01*
X016128Y002039D02*
X015981Y002039D01*
X016091Y002149D01*
X016091Y001929D01*
X015907Y001929D02*
X015760Y001929D01*
X015833Y001929D02*
X015833Y002149D01*
X015760Y002076D01*
X015686Y002076D02*
X015686Y001929D01*
X015686Y002039D02*
X015539Y002039D01*
X015539Y002076D02*
X015612Y002149D01*
X015686Y002076D01*
X015539Y002076D02*
X015539Y001929D01*
X015465Y002039D02*
X015428Y002002D01*
X015318Y002002D01*
X015318Y001929D02*
X015318Y002149D01*
X015428Y002149D01*
X015465Y002112D01*
X015465Y002039D01*
X015128Y002076D02*
X015091Y002039D01*
X015128Y002002D01*
X015128Y001966D01*
X015091Y001929D01*
X015018Y001929D01*
X014981Y001966D01*
X014907Y001929D02*
X014760Y001929D01*
X014833Y001929D02*
X014833Y002149D01*
X014760Y002076D01*
X014686Y002076D02*
X014686Y001929D01*
X014686Y002039D02*
X014539Y002039D01*
X014539Y002076D02*
X014612Y002149D01*
X014686Y002076D01*
X014539Y002076D02*
X014539Y001929D01*
X014465Y002039D02*
X014428Y002002D01*
X014318Y002002D01*
X014318Y001929D02*
X014318Y002149D01*
X014428Y002149D01*
X014465Y002112D01*
X014465Y002039D01*
X014128Y002112D02*
X013981Y001966D01*
X014018Y001929D01*
X014091Y001929D01*
X014128Y001966D01*
X014128Y002112D01*
X014091Y002149D01*
X014018Y002149D01*
X013981Y002112D01*
X013981Y001966D01*
X013907Y001929D02*
X013760Y001929D01*
X013833Y001929D02*
X013833Y002149D01*
X013760Y002076D01*
X013686Y002076D02*
X013686Y001929D01*
X013686Y002039D02*
X013539Y002039D01*
X013539Y002076D02*
X013612Y002149D01*
X013686Y002076D01*
X013539Y002076D02*
X013539Y001929D01*
X013465Y002039D02*
X013428Y002002D01*
X013318Y002002D01*
X013318Y001929D02*
X013318Y002149D01*
X013428Y002149D01*
X013465Y002112D01*
X013465Y002039D01*
X013017Y002039D02*
X012907Y002039D01*
X012870Y002076D01*
X012870Y002112D01*
X012907Y002149D01*
X012981Y002149D01*
X013017Y002112D01*
X013017Y001966D01*
X012981Y001929D01*
X012907Y001929D01*
X012870Y001966D01*
X012796Y001929D02*
X012796Y002076D01*
X012723Y002149D01*
X012650Y002076D01*
X012650Y001929D01*
X012650Y002039D02*
X012796Y002039D01*
X012575Y002039D02*
X012539Y002002D01*
X012429Y002002D01*
X012429Y001929D02*
X012429Y002149D01*
X012539Y002149D01*
X012575Y002112D01*
X012575Y002039D01*
X011238Y001966D02*
X011202Y001929D01*
X011128Y001929D01*
X011091Y001966D01*
X011238Y002112D01*
X011238Y001966D01*
X011238Y002112D02*
X011202Y002149D01*
X011128Y002149D01*
X011091Y002112D01*
X011091Y001966D01*
X010944Y001929D02*
X010944Y002149D01*
X011017Y002149D02*
X010870Y002149D01*
X010796Y002112D02*
X010760Y002149D01*
X010686Y002149D01*
X010650Y002112D01*
X010650Y001966D01*
X010686Y001929D01*
X010760Y001929D01*
X010796Y001966D01*
X010796Y002112D01*
X010575Y002112D02*
X010575Y001966D01*
X010539Y001929D01*
X010465Y001929D01*
X010429Y001966D01*
X010429Y002112D01*
X010465Y002149D01*
X010539Y002149D01*
X010575Y002112D01*
X010354Y002112D02*
X010354Y002076D01*
X010318Y002039D01*
X010208Y002039D01*
X010318Y002039D02*
X010354Y002002D01*
X010354Y001966D01*
X010318Y001929D01*
X010208Y001929D01*
X010208Y002149D01*
X010318Y002149D01*
X010354Y002112D01*
X008017Y001929D02*
X007870Y001929D01*
X007944Y001929D02*
X007944Y002149D01*
X007870Y002076D01*
X007796Y002076D02*
X007760Y002039D01*
X007650Y002039D01*
X007575Y002039D02*
X007539Y002002D01*
X007429Y002002D01*
X007429Y001929D02*
X007429Y002149D01*
X007539Y002149D01*
X007575Y002112D01*
X007575Y002039D01*
X007650Y002149D02*
X007760Y002149D01*
X007796Y002112D01*
X007796Y002076D01*
X007760Y002039D02*
X007796Y002002D01*
X007796Y001966D01*
X007760Y001929D01*
X007650Y001929D01*
X007650Y002149D01*
X007017Y002149D02*
X007017Y002112D01*
X006870Y001966D01*
X006870Y001929D01*
X006796Y001929D02*
X006796Y002076D01*
X006723Y002149D01*
X006650Y002076D01*
X006650Y001929D01*
X006650Y002039D02*
X006796Y002039D01*
X006870Y002149D02*
X007017Y002149D01*
X006575Y002112D02*
X006575Y002039D01*
X006539Y002002D01*
X006429Y002002D01*
X006429Y001929D02*
X006429Y002149D01*
X006539Y002149D01*
X006575Y002112D01*
X006017Y002149D02*
X005944Y002112D01*
X005870Y002039D01*
X005981Y002039D01*
X006017Y002002D01*
X006017Y001966D01*
X005981Y001929D01*
X005907Y001929D01*
X005870Y001966D01*
X005870Y002039D01*
X005796Y002039D02*
X005650Y002039D01*
X005650Y002076D02*
X005723Y002149D01*
X005796Y002076D01*
X005796Y001929D01*
X005650Y001929D02*
X005650Y002076D01*
X005575Y002112D02*
X005575Y002039D01*
X005539Y002002D01*
X005429Y002002D01*
X005429Y001929D02*
X005429Y002149D01*
X005539Y002149D01*
X005575Y002112D01*
X005017Y002149D02*
X004870Y002149D01*
X004870Y002039D01*
X004944Y002076D01*
X004981Y002076D01*
X005017Y002039D01*
X005017Y001966D01*
X004981Y001929D01*
X004907Y001929D01*
X004870Y001966D01*
X004796Y001929D02*
X004796Y002076D01*
X004723Y002149D01*
X004650Y002076D01*
X004650Y001929D01*
X004650Y002039D02*
X004796Y002039D01*
X004575Y002039D02*
X004539Y002002D01*
X004429Y002002D01*
X004429Y001929D02*
X004429Y002149D01*
X004539Y002149D01*
X004575Y002112D01*
X004575Y002039D01*
X004128Y002039D02*
X003981Y002039D01*
X004091Y002149D01*
X004091Y001929D01*
X003907Y001966D02*
X003907Y002112D01*
X003870Y002149D01*
X003760Y002149D01*
X003760Y001929D01*
X003870Y001929D01*
X003907Y001966D01*
X003686Y001929D02*
X003686Y002149D01*
X003539Y002149D02*
X003539Y001929D01*
X003465Y001966D02*
X003465Y002039D01*
X003391Y002039D01*
X003318Y002112D02*
X003318Y001966D01*
X003355Y001929D01*
X003428Y001929D01*
X003465Y001966D01*
X003465Y002112D02*
X003428Y002149D01*
X003355Y002149D01*
X003318Y002112D01*
X003128Y002039D02*
X002981Y002039D01*
X003091Y002149D01*
X003091Y001929D01*
X002907Y001966D02*
X002907Y002112D01*
X002870Y002149D01*
X002760Y002149D01*
X002760Y001929D01*
X002870Y001929D01*
X002907Y001966D01*
X002686Y001966D02*
X002686Y002112D01*
X002649Y002149D01*
X002539Y002149D01*
X002539Y001929D01*
X002649Y001929D01*
X002686Y001966D01*
X002465Y002002D02*
X002465Y002149D01*
X002465Y002002D02*
X002391Y001929D01*
X002318Y002002D01*
X002318Y002149D01*
X003539Y002149D02*
X003686Y001929D01*
X014376Y007408D02*
X014378Y007431D01*
X014384Y007453D01*
X014393Y007475D01*
X014406Y007494D01*
X014421Y007511D01*
X014439Y007525D01*
X014460Y007536D01*
X014482Y007544D01*
X014504Y007548D01*
X014528Y007548D01*
X014550Y007544D01*
X014572Y007536D01*
X014593Y007525D01*
X014611Y007511D01*
X014626Y007494D01*
X014639Y007475D01*
X014648Y007453D01*
X014654Y007431D01*
X014656Y007408D01*
X014654Y007385D01*
X014648Y007363D01*
X014639Y007341D01*
X014626Y007322D01*
X014611Y007305D01*
X014593Y007291D01*
X014572Y007280D01*
X014550Y007272D01*
X014528Y007268D01*
X014504Y007268D01*
X014482Y007272D01*
X014460Y007280D01*
X014439Y007291D01*
X014421Y007305D01*
X014406Y007322D01*
X014393Y007341D01*
X014384Y007363D01*
X014378Y007385D01*
X014376Y007408D01*
X015018Y002149D02*
X015091Y002149D01*
X015128Y002112D01*
X015128Y002076D01*
X015091Y002039D02*
X015054Y002039D01*
X014981Y002112D02*
X015018Y002149D01*
X017539Y002149D02*
X017686Y001929D01*
X014587Y012863D02*
X014589Y012886D01*
X014595Y012908D01*
X014604Y012930D01*
X014617Y012949D01*
X014632Y012966D01*
X014650Y012980D01*
X014671Y012991D01*
X014693Y012999D01*
X014715Y013003D01*
X014739Y013003D01*
X014761Y012999D01*
X014783Y012991D01*
X014804Y012980D01*
X014822Y012966D01*
X014837Y012949D01*
X014850Y012930D01*
X014859Y012908D01*
X014865Y012886D01*
X014867Y012863D01*
X014865Y012840D01*
X014859Y012818D01*
X014850Y012796D01*
X014837Y012777D01*
X014822Y012760D01*
X014804Y012746D01*
X014783Y012735D01*
X014761Y012727D01*
X014739Y012723D01*
X014715Y012723D01*
X014693Y012727D01*
X014671Y012735D01*
X014650Y012746D01*
X014632Y012760D01*
X014617Y012777D01*
X014604Y012796D01*
X014595Y012818D01*
X014589Y012840D01*
X014587Y012863D01*
X014650Y018929D02*
X014650Y019076D01*
X014723Y019149D01*
X014796Y019076D01*
X014796Y018929D01*
X014870Y018966D02*
X014907Y018929D01*
X014981Y018929D01*
X015017Y018966D01*
X015017Y019112D01*
X014870Y018966D01*
X014870Y019112D01*
X014907Y019149D01*
X014981Y019149D01*
X015017Y019112D01*
X014796Y019039D02*
X014650Y019039D01*
X014575Y019039D02*
X014539Y019002D01*
X014429Y019002D01*
X014429Y018929D02*
X014429Y019149D01*
X014539Y019149D01*
X014575Y019112D01*
X014575Y019039D01*
X014017Y018929D02*
X013870Y018929D01*
X013796Y018929D02*
X013796Y019076D01*
X013723Y019149D01*
X013650Y019076D01*
X013650Y018929D01*
X013650Y019039D02*
X013796Y019039D01*
X013870Y019076D02*
X013944Y019149D01*
X013944Y018929D01*
X013575Y019039D02*
X013539Y019002D01*
X013429Y019002D01*
X013429Y018929D02*
X013429Y019149D01*
X013539Y019149D01*
X013575Y019112D01*
X013575Y019039D01*
X013017Y019076D02*
X013017Y019112D01*
X012981Y019149D01*
X012907Y019149D01*
X012870Y019112D01*
X012796Y019076D02*
X012796Y018929D01*
X012870Y018929D02*
X013017Y019076D01*
X013017Y018929D02*
X012870Y018929D01*
X012796Y019039D02*
X012650Y019039D01*
X012650Y019076D02*
X012723Y019149D01*
X012796Y019076D01*
X012650Y019076D02*
X012650Y018929D01*
X012539Y019002D02*
X012575Y019039D01*
X012575Y019112D01*
X012539Y019149D01*
X012429Y019149D01*
X012429Y018929D01*
X012429Y019002D02*
X012539Y019002D01*
X012017Y019002D02*
X012017Y018966D01*
X011981Y018929D01*
X011907Y018929D01*
X011870Y018966D01*
X011796Y018929D02*
X011796Y019076D01*
X011723Y019149D01*
X011650Y019076D01*
X011650Y018929D01*
X011650Y019039D02*
X011796Y019039D01*
X011870Y019112D02*
X011907Y019149D01*
X011981Y019149D01*
X012017Y019112D01*
X012017Y019076D01*
X011981Y019039D01*
X012017Y019002D01*
X011981Y019039D02*
X011944Y019039D01*
X011575Y019039D02*
X011539Y019002D01*
X011429Y019002D01*
X011429Y018929D02*
X011429Y019149D01*
X011539Y019149D01*
X011575Y019112D01*
X011575Y019039D01*
X011017Y019039D02*
X010870Y019039D01*
X010981Y019149D01*
X010981Y018929D01*
X010796Y018929D02*
X010796Y019076D01*
X010723Y019149D01*
X010650Y019076D01*
X010650Y018929D01*
X010650Y019039D02*
X010796Y019039D01*
X010575Y019039D02*
X010539Y019002D01*
X010429Y019002D01*
X010429Y018929D02*
X010429Y019149D01*
X010539Y019149D01*
X010575Y019112D01*
X010575Y019039D01*
X008017Y018966D02*
X007981Y018929D01*
X007907Y018929D01*
X007870Y018966D01*
X008017Y019112D01*
X008017Y018966D01*
X008017Y019112D02*
X007981Y019149D01*
X007907Y019149D01*
X007870Y019112D01*
X007870Y018966D01*
X007723Y019039D02*
X007650Y019039D01*
X007575Y019039D02*
X007539Y019002D01*
X007429Y019002D01*
X007429Y018929D02*
X007429Y019149D01*
X007539Y019149D01*
X007575Y019112D01*
X007575Y019039D01*
X007650Y019149D02*
X007796Y019149D01*
X007650Y019149D02*
X007650Y018929D01*
X007017Y018929D02*
X006870Y018929D01*
X006944Y018929D02*
X006944Y019149D01*
X006870Y019076D01*
X006796Y019149D02*
X006650Y019149D01*
X006650Y018929D01*
X006650Y019039D02*
X006723Y019039D01*
X006575Y019039D02*
X006539Y019002D01*
X006429Y019002D01*
X006429Y018929D02*
X006429Y019149D01*
X006539Y019149D01*
X006575Y019112D01*
X006575Y019039D01*
X006128Y018929D02*
X005981Y018929D01*
X006054Y018929D02*
X006054Y019149D01*
X005981Y019076D01*
X005907Y019112D02*
X005870Y019149D01*
X005760Y019149D01*
X005760Y018929D01*
X005870Y018929D01*
X005907Y018966D01*
X005907Y019112D01*
X005686Y019112D02*
X005649Y019149D01*
X005539Y019149D01*
X005539Y018929D01*
X005649Y018929D01*
X005686Y018966D01*
X005686Y019112D01*
X005465Y019149D02*
X005465Y019002D01*
X005391Y018929D01*
X005318Y019002D01*
X005318Y019149D01*
X005054Y019149D02*
X005054Y018929D01*
X004981Y018929D02*
X005128Y018929D01*
X004981Y019076D02*
X005054Y019149D01*
X004907Y019112D02*
X004870Y019149D01*
X004760Y019149D01*
X004760Y018929D01*
X004870Y018929D01*
X004907Y018966D01*
X004907Y019112D01*
X004686Y019149D02*
X004686Y018929D01*
X004539Y019149D01*
X004539Y018929D01*
X004465Y018966D02*
X004465Y019039D01*
X004391Y019039D01*
X004318Y019112D02*
X004318Y018966D01*
X004355Y018929D01*
X004428Y018929D01*
X004465Y018966D01*
X004465Y019112D02*
X004428Y019149D01*
X004355Y019149D01*
X004318Y019112D01*
X003128Y019149D02*
X003128Y019002D01*
X003054Y018929D01*
X002981Y019002D01*
X002981Y019149D01*
X002907Y019112D02*
X002870Y019149D01*
X002797Y019149D01*
X002760Y019112D01*
X002907Y019112D02*
X002907Y019076D01*
X002760Y018929D01*
X002907Y018929D01*
X002686Y018929D02*
X002539Y018929D01*
X002612Y018929D02*
X002612Y019149D01*
X002539Y019076D01*
X002465Y019039D02*
X002318Y019039D01*
X002391Y019112D02*
X002391Y018966D01*
X015318Y018929D02*
X015318Y019149D01*
X015465Y018929D01*
X015465Y019149D01*
X015539Y019149D02*
X015649Y019149D01*
X015686Y019112D01*
X015686Y019039D01*
X015649Y019002D01*
X015539Y019002D01*
X015539Y018929D02*
X015539Y019149D01*
X015612Y019002D02*
X015686Y018929D01*
X015760Y018966D02*
X015797Y018929D01*
X015870Y018929D01*
X015907Y018966D01*
X015907Y019002D01*
X015870Y019039D01*
X015797Y019039D01*
X015760Y019076D01*
X015760Y019112D01*
X015797Y019149D01*
X015870Y019149D01*
X015907Y019112D01*
X015981Y019149D02*
X016128Y019149D01*
X016054Y019149D02*
X016054Y018929D01*
X016318Y018966D02*
X016355Y018929D01*
X016428Y018929D01*
X016465Y018966D01*
X016465Y019039D01*
X016391Y019039D01*
X016318Y019112D02*
X016318Y018966D01*
X016318Y019112D02*
X016355Y019149D01*
X016428Y019149D01*
X016465Y019112D01*
X016539Y019149D02*
X016686Y018929D01*
X016686Y019149D01*
X016760Y019149D02*
X016870Y019149D01*
X016907Y019112D01*
X016907Y018966D01*
X016870Y018929D01*
X016760Y018929D01*
X016760Y019149D01*
X016539Y019149D02*
X016539Y018929D01*
X016981Y018929D02*
X017128Y019076D01*
X017128Y019112D01*
X017091Y019149D01*
X017018Y019149D01*
X016981Y019112D01*
X016981Y018929D02*
X017128Y018929D01*
X017318Y019002D02*
X017391Y018929D01*
X017465Y019002D01*
X017465Y019149D01*
X017539Y019149D02*
X017649Y019149D01*
X017686Y019112D01*
X017686Y018966D01*
X017649Y018929D01*
X017539Y018929D01*
X017539Y019149D01*
X017318Y019149D02*
X017318Y019002D01*
X017760Y018929D02*
X017870Y018929D01*
X017907Y018966D01*
X017907Y019112D01*
X017870Y019149D01*
X017760Y019149D01*
X017760Y018929D01*
X017981Y018929D02*
X018128Y019076D01*
X018128Y019112D01*
X018091Y019149D01*
X018018Y019149D01*
X017981Y019112D01*
X017981Y018929D02*
X018128Y018929D01*
D15*
X015717Y012983D02*
X015777Y012923D01*
X015777Y012863D01*
X015717Y012803D01*
X015597Y012803D01*
X015537Y012863D01*
X015537Y012923D01*
X015597Y012983D01*
X015717Y012983D01*
X015717Y012803D02*
X015777Y012743D01*
X015777Y012683D01*
X015717Y012623D01*
X015597Y012623D01*
X015537Y012683D01*
X015537Y012743D01*
X015597Y012803D01*
X015506Y007529D02*
X015566Y007469D01*
X015566Y007409D01*
X015506Y007349D01*
X015386Y007349D01*
X015326Y007409D01*
X015326Y007469D01*
X015386Y007529D01*
X015506Y007529D01*
X015506Y007349D02*
X015566Y007289D01*
X015566Y007228D01*
X015506Y007168D01*
X015386Y007168D01*
X015326Y007228D01*
X015326Y007289D01*
X015386Y007349D01*
D16*
X018079Y007236D03*
X018079Y008236D03*
X018081Y009992D03*
X018081Y010992D03*
X018085Y012742D03*
X018085Y013742D03*
X018148Y016242D03*
X017148Y016242D03*
X016148Y016242D03*
X014407Y016439D03*
X013407Y016439D03*
X012407Y016439D03*
X010561Y016439D03*
X009561Y016439D03*
X004959Y016439D03*
X003959Y016439D03*
X002959Y016439D03*
X002187Y004537D03*
X002187Y003537D03*
X012762Y003196D03*
X013762Y003196D03*
X018085Y004458D03*
X018085Y005458D03*
M02*
