G75*
%MOIN*%
%OFA0B0*%
%FSLAX24Y24*%
%IPPOS*%
%LPD*%
%AMOC8*
5,1,8,0,0,1.08239X$1,22.5*
%
%ADD10C,0.0000*%
%ADD11C,0.0039*%
%ADD12C,0.0060*%
%ADD13C,0.0020*%
%ADD14C,0.0030*%
%ADD15C,0.0080*%
%ADD16C,0.0300*%
%ADD17R,0.0200X0.0300*%
%ADD18R,0.0400X0.0300*%
%ADD19C,0.0040*%
%ADD20R,0.0380X0.0660*%
%ADD21R,0.1732X0.0276*%
%ADD22C,0.0100*%
%ADD23R,0.0295X0.0197*%
%ADD24R,0.0300X0.0340*%
%ADD25C,0.0050*%
D10*
X000500Y000500D02*
X000500Y019996D01*
X000500Y020000D02*
X020000Y020000D01*
X020000Y019996D02*
X020000Y000500D01*
X000500Y000500D01*
D11*
X018196Y012763D02*
X018198Y012789D01*
X018204Y012815D01*
X018213Y012839D01*
X018226Y012862D01*
X018242Y012883D01*
X018261Y012901D01*
X018282Y012917D01*
X018306Y012929D01*
X018330Y012937D01*
X018356Y012942D01*
X018383Y012943D01*
X018409Y012940D01*
X018434Y012933D01*
X018458Y012923D01*
X018481Y012909D01*
X018501Y012893D01*
X018518Y012873D01*
X018533Y012851D01*
X018544Y012827D01*
X018552Y012802D01*
X018556Y012776D01*
X018556Y012750D01*
X018552Y012724D01*
X018544Y012699D01*
X018533Y012675D01*
X018518Y012653D01*
X018501Y012633D01*
X018481Y012617D01*
X018458Y012603D01*
X018434Y012593D01*
X018409Y012586D01*
X018383Y012583D01*
X018356Y012584D01*
X018330Y012589D01*
X018306Y012597D01*
X018282Y012609D01*
X018261Y012625D01*
X018242Y012643D01*
X018226Y012664D01*
X018213Y012687D01*
X018204Y012711D01*
X018198Y012737D01*
X018196Y012763D01*
D12*
X018726Y013182D02*
X018726Y011385D01*
X016234Y011385D01*
X016234Y013182D01*
X018726Y013182D01*
X017250Y008500D02*
X016250Y008500D01*
X016250Y007500D01*
X016250Y006500D01*
X016250Y005500D01*
X016250Y004500D01*
X016250Y003500D01*
X017250Y003500D01*
X017250Y004500D01*
X017250Y005500D01*
X017250Y006500D01*
X017250Y007500D01*
X017250Y008500D01*
X017250Y007500D02*
X016250Y007500D01*
X016250Y006500D02*
X017250Y006500D01*
X017250Y005500D02*
X016250Y005500D01*
X016250Y004500D02*
X017250Y004500D01*
X017500Y002250D02*
X018000Y002250D01*
X018250Y002000D01*
X018500Y002250D01*
X019000Y002250D01*
X019250Y002000D01*
X019250Y001500D01*
X019000Y001250D01*
X018500Y001250D01*
X018250Y001500D01*
X018250Y002000D01*
X018250Y001500D02*
X018000Y001250D01*
X017500Y001250D01*
X017250Y001500D01*
X017250Y002000D01*
X017500Y002250D01*
X015250Y002000D02*
X015250Y001500D01*
X015000Y001250D01*
X014500Y001250D01*
X014250Y001500D01*
X014250Y002000D01*
X014500Y002250D01*
X015000Y002250D01*
X015250Y002000D01*
X014250Y002000D02*
X014000Y002250D01*
X013500Y002250D01*
X013250Y002000D01*
X013250Y001500D01*
X013500Y001250D01*
X014000Y001250D01*
X014250Y001500D01*
X012250Y001500D02*
X012250Y002000D01*
X012000Y002250D01*
X011500Y002250D01*
X011250Y002000D01*
X011250Y001500D01*
X011500Y001250D01*
X012000Y001250D01*
X012250Y001500D01*
X011250Y001500D02*
X011000Y001250D01*
X010500Y001250D01*
X010250Y001500D01*
X010250Y002000D01*
X010500Y002250D01*
X011000Y002250D01*
X011250Y002000D01*
X009250Y002000D02*
X009250Y001500D01*
X009000Y001250D01*
X008500Y001250D01*
X008250Y001500D01*
X008250Y002000D01*
X008500Y002250D01*
X009000Y002250D01*
X009250Y002000D01*
X007250Y002000D02*
X007250Y001500D01*
X007000Y001250D01*
X006500Y001250D01*
X006250Y001500D01*
X006000Y001250D01*
X005500Y001250D01*
X005250Y001500D01*
X005000Y001250D01*
X004500Y001250D01*
X004250Y001500D01*
X004250Y002000D01*
X004500Y002250D01*
X005000Y002250D01*
X005250Y002000D01*
X005250Y001500D01*
X005250Y002000D02*
X005500Y002250D01*
X006000Y002250D01*
X006250Y002000D01*
X006250Y001500D01*
X006250Y002000D02*
X006500Y002250D01*
X007000Y002250D01*
X007250Y002000D01*
X003250Y002000D02*
X003250Y001500D01*
X003000Y001250D01*
X002500Y001250D01*
X002250Y001500D01*
X002250Y002000D01*
X002500Y002250D01*
X003000Y002250D01*
X003250Y002000D01*
X002250Y002000D02*
X002000Y002250D01*
X001500Y002250D01*
X001250Y002000D01*
X001250Y001500D01*
X001500Y001250D01*
X002000Y001250D01*
X002250Y001500D01*
X001250Y000500D02*
X000750Y000500D01*
X003250Y014000D02*
X004250Y014000D01*
X004250Y015000D01*
X004250Y016000D01*
X003250Y016000D01*
X003250Y015000D01*
X003250Y014000D01*
X003250Y015000D02*
X004250Y015000D01*
X004000Y018250D02*
X003500Y018250D01*
X003250Y018500D01*
X003250Y019000D01*
X003500Y019250D01*
X004000Y019250D01*
X004250Y019000D01*
X004500Y019250D01*
X005000Y019250D01*
X005250Y019000D01*
X005250Y018500D01*
X005000Y018250D01*
X004500Y018250D01*
X004250Y018500D01*
X004250Y019000D01*
X004250Y018500D02*
X004000Y018250D01*
X002250Y018500D02*
X002000Y018250D01*
X001500Y018250D01*
X001250Y018500D01*
X001250Y019000D01*
X001500Y019250D01*
X002000Y019250D01*
X002250Y019000D01*
X002250Y018500D01*
X006250Y018500D02*
X006250Y019000D01*
X006500Y019250D01*
X007000Y019250D01*
X007250Y019000D01*
X007500Y019250D01*
X008000Y019250D01*
X008250Y019000D01*
X008500Y019250D01*
X009000Y019250D01*
X009250Y019000D01*
X009500Y019250D01*
X010000Y019250D01*
X010250Y019000D01*
X010500Y019250D01*
X011000Y019250D01*
X011250Y019000D01*
X011250Y018500D01*
X011000Y018250D01*
X010500Y018250D01*
X010250Y018500D01*
X010250Y019000D01*
X010250Y018500D02*
X010000Y018250D01*
X009500Y018250D01*
X009250Y018500D01*
X009250Y019000D01*
X009250Y018500D02*
X009000Y018250D01*
X008500Y018250D01*
X008250Y018500D01*
X008250Y019000D01*
X008250Y018500D02*
X008000Y018250D01*
X007500Y018250D01*
X007250Y018500D01*
X007250Y019000D01*
X007250Y018500D02*
X007000Y018250D01*
X006500Y018250D01*
X006250Y018500D01*
X012250Y018500D02*
X012500Y018250D01*
X013000Y018250D01*
X013250Y018500D01*
X013250Y019000D01*
X013000Y019250D01*
X012500Y019250D01*
X012250Y019000D01*
X012250Y018500D01*
X014250Y018500D02*
X014500Y018250D01*
X015000Y018250D01*
X015250Y018500D01*
X015500Y018250D01*
X016000Y018250D01*
X016250Y018500D01*
X016250Y019000D01*
X016000Y019250D01*
X015500Y019250D01*
X015250Y019000D01*
X015250Y018500D01*
X015250Y019000D02*
X015000Y019250D01*
X014500Y019250D01*
X014250Y019000D01*
X014250Y018500D01*
X017250Y018500D02*
X017500Y018250D01*
X018000Y018250D01*
X018250Y018500D01*
X018500Y018250D01*
X019000Y018250D01*
X019250Y018500D01*
X019250Y019000D01*
X019000Y019250D01*
X018500Y019250D01*
X018250Y019000D01*
X018250Y018500D01*
X018250Y019000D02*
X018000Y019250D01*
X017500Y019250D01*
X017250Y019000D01*
X017250Y018500D01*
D13*
X016324Y013092D02*
X016324Y011475D01*
X018636Y011475D01*
X018636Y013092D01*
X016324Y013092D01*
D14*
X018491Y013118D02*
X018800Y013118D01*
X018861Y013180D01*
X018861Y013304D01*
X018800Y013365D01*
X018491Y013365D01*
X018553Y013487D02*
X018491Y013548D01*
X018491Y013672D01*
X018553Y013734D01*
X018676Y013672D02*
X018676Y013548D01*
X018614Y013487D01*
X018553Y013487D01*
X018429Y013610D02*
X018923Y013610D01*
X018861Y013548D02*
X018861Y013672D01*
X018800Y013734D01*
X018738Y013734D01*
X018676Y013672D01*
X018676Y013855D02*
X018676Y014102D01*
X018491Y014040D02*
X018676Y013855D01*
X018861Y014040D02*
X018491Y014040D01*
X018861Y013548D02*
X018800Y013487D01*
X017622Y015947D02*
X017428Y015947D01*
X017380Y015996D01*
X017380Y016092D01*
X017428Y016141D01*
X017380Y016242D02*
X017525Y016242D01*
X017477Y016339D01*
X017477Y016387D01*
X017525Y016435D01*
X017622Y016435D01*
X017670Y016387D01*
X017670Y016290D01*
X017622Y016242D01*
X017622Y016141D02*
X017670Y016092D01*
X017670Y015996D01*
X017622Y015947D01*
X017380Y016242D02*
X017380Y016435D01*
X016800Y016507D02*
X016752Y016459D01*
X016558Y016459D01*
X016510Y016507D01*
X016510Y016604D01*
X016558Y016653D01*
X016655Y016754D02*
X016655Y016947D01*
X016800Y016899D02*
X016510Y016899D01*
X016655Y016754D01*
X016752Y016653D02*
X016800Y016604D01*
X016800Y016507D01*
X014043Y012242D02*
X014091Y012193D01*
X014091Y012097D01*
X014043Y012048D01*
X014043Y011947D02*
X014091Y011899D01*
X014091Y011802D01*
X014043Y011754D01*
X013849Y011754D01*
X013801Y011802D01*
X013801Y011899D01*
X013849Y011947D01*
X013849Y012048D02*
X013801Y012097D01*
X013801Y012193D01*
X013849Y012242D01*
X013898Y012242D01*
X013946Y012193D01*
X013995Y012242D01*
X014043Y012242D01*
X013946Y012193D02*
X013946Y012145D01*
X016650Y010788D02*
X016650Y010595D01*
X016698Y010546D01*
X016795Y010546D01*
X016843Y010595D01*
X016944Y010595D02*
X016944Y010546D01*
X016944Y010595D02*
X017138Y010788D01*
X017138Y010837D01*
X016944Y010837D01*
X016843Y010788D02*
X016795Y010837D01*
X016698Y010837D01*
X016650Y010788D01*
X016663Y009905D02*
X016615Y009857D01*
X016615Y009663D01*
X016663Y009615D01*
X016760Y009615D01*
X016808Y009663D01*
X016910Y009663D02*
X016958Y009615D01*
X017055Y009615D01*
X017103Y009663D01*
X017103Y009712D01*
X017055Y009760D01*
X016958Y009760D01*
X016910Y009808D01*
X016910Y009857D01*
X016958Y009905D01*
X017055Y009905D01*
X017103Y009857D01*
X017103Y009808D01*
X017055Y009760D01*
X016958Y009760D02*
X016910Y009712D01*
X016910Y009663D01*
X016808Y009857D02*
X016760Y009905D01*
X016663Y009905D01*
X016863Y008805D02*
X016815Y008757D01*
X016815Y008563D01*
X016863Y008515D01*
X016960Y008515D01*
X017008Y008563D01*
X017110Y008563D02*
X017110Y008660D01*
X017255Y008660D01*
X017303Y008612D01*
X017303Y008563D01*
X017255Y008515D01*
X017158Y008515D01*
X017110Y008563D01*
X017110Y008660D02*
X017206Y008757D01*
X017303Y008805D01*
X017008Y008757D02*
X016960Y008805D01*
X016863Y008805D01*
X016337Y005103D02*
X016143Y005103D01*
X016095Y005055D01*
X016095Y004958D01*
X016143Y004910D01*
X016192Y004910D01*
X016240Y004958D01*
X016240Y005103D01*
X016337Y005103D02*
X016385Y005055D01*
X016385Y004958D01*
X016337Y004910D01*
X016337Y004808D02*
X016385Y004760D01*
X016385Y004663D01*
X016337Y004615D01*
X016143Y004615D01*
X016095Y004663D01*
X016095Y004760D01*
X016143Y004808D01*
X010509Y008143D02*
X010315Y008143D01*
X010412Y008143D02*
X010412Y008433D01*
X010315Y008336D01*
X010214Y008143D02*
X010021Y008143D01*
X010021Y008433D01*
X005751Y010718D02*
X005751Y010911D01*
X005703Y010960D01*
X005606Y010960D01*
X005558Y010911D01*
X005456Y010960D02*
X005263Y010960D01*
X005360Y010960D02*
X005360Y010670D01*
X005456Y010766D01*
X005558Y010718D02*
X005606Y010670D01*
X005703Y010670D01*
X005751Y010718D01*
X002946Y007072D02*
X002946Y006878D01*
X002752Y007072D01*
X002704Y007072D01*
X002655Y007023D01*
X002655Y006927D01*
X002704Y006878D01*
X002704Y006777D02*
X002655Y006729D01*
X002655Y006632D01*
X002704Y006584D01*
X002897Y006584D01*
X002946Y006632D01*
X002946Y006729D01*
X002897Y006777D01*
D15*
X003111Y006569D02*
X004811Y006569D01*
X004811Y009069D01*
X003111Y009069D01*
X003111Y010619D01*
X004811Y010619D01*
X004811Y009069D01*
X003111Y009069D02*
X003111Y006569D01*
X007052Y007164D02*
X007052Y004584D01*
X009412Y004584D01*
X009412Y007164D02*
X007052Y007164D01*
X008856Y008278D02*
X008856Y008778D01*
X009956Y008778D01*
X009956Y008278D01*
X008856Y008278D01*
X007542Y011197D02*
X011553Y011197D01*
X012256Y011739D02*
X013956Y011739D01*
X013956Y009239D01*
X012256Y009239D01*
X012256Y011739D01*
X012256Y009239D02*
X012256Y007689D01*
X013956Y007689D01*
X013956Y009239D01*
X016520Y009450D02*
X016520Y008550D01*
X018480Y008550D01*
X018480Y009450D01*
X016520Y009450D01*
X016605Y009681D02*
X016605Y010381D01*
X018065Y010381D01*
X018065Y009681D01*
X016605Y009681D01*
X016770Y008350D02*
X016770Y007650D01*
X018230Y007650D01*
X018230Y008350D01*
X016770Y008350D01*
X016550Y006480D02*
X017450Y006480D01*
X017450Y004520D01*
X016550Y004520D01*
X016550Y006480D01*
X016835Y014502D02*
X016835Y015962D01*
X017535Y015962D01*
X017535Y014502D01*
X016835Y014502D01*
X016665Y015014D02*
X015965Y015014D01*
X015965Y016474D01*
X016665Y016474D01*
X016665Y015014D01*
X005846Y012025D02*
X005846Y011125D01*
X003886Y011125D01*
X003886Y012025D01*
X005846Y012025D01*
D16*
X003000Y014500D02*
X000750Y014500D01*
X000750Y015500D02*
X003000Y015500D01*
X017500Y008000D02*
X019750Y008000D01*
X019750Y007000D02*
X017500Y007000D01*
X017500Y006000D02*
X019750Y006000D01*
X019750Y005000D02*
X017500Y005000D01*
X017500Y004000D02*
X019750Y004000D01*
D17*
X017350Y004000D03*
X017350Y005000D03*
X017350Y006000D03*
X017350Y007000D03*
X017350Y008000D03*
X003150Y014500D03*
X003150Y015500D03*
D18*
X004450Y015500D03*
X004450Y014500D03*
X016050Y008000D03*
X016050Y007000D03*
X016050Y006000D03*
X016050Y005000D03*
X016050Y004000D03*
D19*
X015403Y008270D02*
X015250Y008270D01*
X015173Y008346D01*
X015020Y008270D02*
X015020Y008730D01*
X014866Y008577D01*
X014713Y008730D01*
X014713Y008270D01*
X014559Y008270D02*
X014329Y008270D01*
X014252Y008346D01*
X014252Y008653D01*
X014329Y008730D01*
X014559Y008730D01*
X014559Y008270D01*
X015173Y008577D02*
X015173Y008653D01*
X015250Y008730D01*
X015403Y008730D01*
X015480Y008653D01*
X015403Y008500D02*
X015250Y008500D01*
X015173Y008577D01*
X015403Y008500D02*
X015480Y008423D01*
X015480Y008346D01*
X015403Y008270D01*
X007327Y010227D02*
X007327Y010381D01*
X007251Y010458D01*
X006867Y010458D01*
X006944Y010611D02*
X006867Y010688D01*
X006867Y010841D01*
X006944Y010918D01*
X006944Y011072D02*
X006867Y011148D01*
X006867Y011302D01*
X006944Y011378D01*
X007020Y011378D01*
X007327Y011072D01*
X007327Y011378D01*
X007251Y010918D02*
X007174Y010918D01*
X007097Y010841D01*
X007097Y010688D01*
X007020Y010611D01*
X006944Y010611D01*
X006790Y010765D02*
X007404Y010765D01*
X007327Y010841D02*
X007251Y010918D01*
X007327Y010841D02*
X007327Y010688D01*
X007251Y010611D01*
X007327Y010227D02*
X007251Y010151D01*
X006867Y010151D01*
X006268Y007431D02*
X006268Y006817D01*
X006344Y006894D02*
X006191Y006894D01*
X006114Y006970D01*
X006191Y007124D02*
X006344Y007124D01*
X006421Y007047D01*
X006421Y006970D01*
X006344Y006894D01*
X006575Y006894D02*
X006575Y007277D01*
X006651Y007354D01*
X006805Y007354D01*
X006882Y007277D01*
X006882Y006894D01*
X006421Y007277D02*
X006344Y007354D01*
X006191Y007354D01*
X006114Y007277D01*
X006114Y007201D01*
X006191Y007124D01*
X005961Y007124D02*
X005961Y007277D01*
X005884Y007354D01*
X005731Y007354D01*
X005654Y007277D01*
X005654Y007201D01*
X005731Y007124D01*
X005961Y007124D01*
X005807Y006970D01*
X005654Y006894D01*
X004980Y013270D02*
X004750Y013270D01*
X004673Y013346D01*
X004673Y013500D01*
X004750Y013577D01*
X004980Y013577D01*
X004980Y013730D02*
X004980Y013270D01*
X004520Y013270D02*
X004520Y013730D01*
X004366Y013577D01*
X004213Y013730D01*
X004213Y013270D01*
X004059Y013270D02*
X003829Y013270D01*
X003752Y013346D01*
X003752Y013500D01*
X003829Y013577D01*
X004059Y013577D01*
X004059Y013730D02*
X004059Y013270D01*
X003906Y013577D02*
X003752Y013730D01*
X002665Y015307D02*
X002358Y015307D01*
X002512Y015307D02*
X002512Y015768D01*
X002358Y015614D01*
X002205Y015691D02*
X002128Y015768D01*
X001974Y015768D01*
X001898Y015691D01*
X001898Y015614D01*
X001974Y015538D01*
X002128Y015538D01*
X002205Y015461D01*
X002205Y015384D01*
X002128Y015307D01*
X001974Y015307D01*
X001898Y015384D01*
X001744Y015384D02*
X001744Y015768D01*
X001437Y015768D02*
X001437Y015384D01*
X001514Y015307D01*
X001668Y015307D01*
X001744Y015384D01*
X002051Y015231D02*
X002051Y015845D01*
D20*
X008207Y010901D03*
X008877Y010901D03*
X009547Y010901D03*
X010217Y010901D03*
X010887Y010901D03*
D21*
X013106Y007820D03*
X003961Y010487D03*
D22*
X003386Y013781D02*
X001614Y013781D01*
X001614Y014008D01*
X001614Y014992D02*
X001614Y015219D01*
X003386Y015219D01*
X003386Y014992D01*
X003386Y014008D02*
X003385Y013895D01*
X003386Y013782D01*
D23*
X002057Y013909D03*
X002057Y015091D03*
D24*
X006862Y005874D03*
D25*
X000500Y000500D02*
X000500Y020000D01*
X020000Y020000D01*
X020000Y000500D01*
X000500Y000500D01*
M02*
