%
M48
M72
T01C0.0157
T02C0.0400
%
T01
X13878Y8744
T02
X15500Y8000
X15500Y7000
X15500Y6000
X15500Y5000
X15500Y4000
X5000Y14500
X5000Y15500
X1750Y1750
X2750Y1750
X6750Y1750
X5750Y1750
X4750Y1750
X8750Y1750
X17750Y1750
X18750Y1750
X10750Y1750
X11750Y1750
X13750Y1750
X14750Y1750
X3750Y18750
X4750Y18750
X6750Y18750
X1750Y18750
X7750Y18750
X8750Y18750
X9750Y18750
X10750Y18750
X17750Y18750
X18750Y18750
X12750Y18750
X14750Y18750
X15750Y18750
M30
