G75*
%MOIN*%
%OFA0B0*%
%FSLAX24Y24*%
%IPPOS*%
%LPD*%
%AMOC8*
5,1,8,0,0,1.08239X$1,22.5*
%
%ADD10C,0.0000*%
%ADD11C,0.0030*%
%ADD12C,0.0040*%
%ADD13C,0.0050*%
%ADD14C,0.0060*%
%ADD15C,0.0300*%
%ADD16R,0.0300X0.0200*%
%ADD17R,0.0300X0.0400*%
%ADD18C,0.0100*%
%ADD19R,0.0128X0.0167*%
%ADD20R,0.0138X0.0138*%
%ADD21R,0.0167X0.0128*%
D10*
X000500Y000500D02*
X000500Y020185D01*
X020185Y020185D01*
X020185Y000500D01*
X000500Y000500D01*
X000500Y020185D01*
X020185Y020185D01*
X020185Y000500D01*
X000500Y000500D01*
D11*
X001324Y005192D02*
X001324Y005386D01*
X001228Y005289D02*
X001421Y005289D01*
X001421Y005487D02*
X001469Y005535D01*
X001469Y005632D01*
X001421Y005681D01*
X001373Y005681D01*
X001324Y005632D01*
X001276Y005681D01*
X001228Y005681D01*
X001179Y005632D01*
X001179Y005535D01*
X001228Y005487D01*
X001324Y005584D02*
X001324Y005632D01*
X001228Y005782D02*
X001179Y005782D01*
X001179Y005830D01*
X001228Y005830D01*
X001228Y005782D01*
X001228Y005929D02*
X001179Y005977D01*
X001179Y006074D01*
X001228Y006123D01*
X001276Y006123D01*
X001324Y006074D01*
X001324Y006026D01*
X001324Y006074D02*
X001373Y006123D01*
X001421Y006123D01*
X001469Y006074D01*
X001469Y005977D01*
X001421Y005929D01*
X002164Y005832D02*
X002260Y005929D01*
X002164Y006026D01*
X002454Y006026D01*
X002405Y006127D02*
X002212Y006127D01*
X002164Y006175D01*
X002164Y006272D01*
X002212Y006321D01*
X002164Y006422D02*
X002164Y006615D01*
X002164Y006716D02*
X002454Y006716D01*
X002309Y006765D02*
X002164Y006910D01*
X002260Y006716D02*
X002454Y006910D01*
X002454Y006422D02*
X002164Y006422D01*
X002405Y006321D02*
X002454Y006272D01*
X002454Y006175D01*
X002405Y006127D01*
X002454Y005832D02*
X002164Y005832D01*
X002212Y005731D02*
X002164Y005683D01*
X002164Y005586D01*
X002212Y005538D01*
X002309Y005586D02*
X002309Y005683D01*
X002260Y005731D01*
X002212Y005731D01*
X002309Y005586D02*
X002357Y005538D01*
X002405Y005538D01*
X002454Y005586D01*
X002454Y005683D01*
X002405Y005731D01*
X003148Y005682D02*
X003148Y005585D01*
X003196Y005537D01*
X003390Y005537D01*
X003438Y005585D01*
X003438Y005682D01*
X003390Y005730D01*
X003293Y005730D02*
X003293Y005633D01*
X003293Y005730D02*
X003196Y005730D01*
X003148Y005682D01*
X003148Y005831D02*
X003438Y005831D01*
X003148Y006025D01*
X003438Y006025D01*
X003438Y006126D02*
X003148Y006126D01*
X003148Y006271D01*
X003196Y006319D01*
X003390Y006319D01*
X003438Y006271D01*
X003438Y006126D01*
X004132Y006127D02*
X004132Y006272D01*
X004180Y006321D01*
X004374Y006321D01*
X004422Y006272D01*
X004422Y006127D01*
X004132Y006127D01*
X004132Y006026D02*
X004422Y006026D01*
X004422Y005832D02*
X004132Y005832D01*
X004229Y005929D01*
X004132Y006026D01*
X004180Y005731D02*
X004132Y005683D01*
X004132Y005586D01*
X004180Y005538D01*
X004277Y005586D02*
X004277Y005683D01*
X004229Y005731D01*
X004180Y005731D01*
X004277Y005586D02*
X004326Y005538D01*
X004374Y005538D01*
X004422Y005586D01*
X004422Y005683D01*
X004374Y005731D01*
X004326Y006422D02*
X004132Y006422D01*
X004277Y006422D02*
X004277Y006615D01*
X004326Y006615D02*
X004132Y006615D01*
X004326Y006615D02*
X004422Y006519D01*
X004326Y006422D01*
X004422Y006716D02*
X004422Y006910D01*
X004422Y006813D02*
X004132Y006813D01*
X005116Y006419D02*
X005407Y006419D01*
X005407Y006323D02*
X005407Y006516D01*
X005358Y006222D02*
X005407Y006173D01*
X005407Y006076D01*
X005358Y006028D01*
X005310Y006028D01*
X005261Y006076D01*
X005261Y006173D01*
X005213Y006222D01*
X005165Y006222D01*
X005116Y006173D01*
X005116Y006076D01*
X005165Y006028D01*
X005116Y005927D02*
X005213Y005830D01*
X005213Y005879D02*
X005213Y005733D01*
X005116Y005733D02*
X005407Y005733D01*
X005407Y005879D01*
X005358Y005927D01*
X005261Y005927D01*
X005213Y005879D01*
X005116Y005632D02*
X005407Y005632D01*
X005407Y005439D02*
X005116Y005439D01*
X005116Y005632D02*
X005407Y005439D01*
X006736Y003679D02*
X006881Y003679D01*
X006930Y003631D01*
X006930Y003582D01*
X006881Y003534D01*
X006736Y003534D01*
X006736Y003679D02*
X006736Y003389D01*
X006881Y003389D01*
X006930Y003437D01*
X006930Y003486D01*
X006881Y003534D01*
X007031Y003582D02*
X007079Y003534D01*
X007176Y003534D01*
X007224Y003582D01*
X007224Y003631D01*
X007176Y003679D01*
X007079Y003679D01*
X007031Y003631D01*
X007031Y003582D01*
X007079Y003534D02*
X007031Y003486D01*
X007031Y003437D01*
X007079Y003389D01*
X007176Y003389D01*
X007224Y003437D01*
X007224Y003486D01*
X007176Y003534D01*
X007740Y003534D02*
X007885Y003534D01*
X007934Y003582D01*
X007934Y003631D01*
X007885Y003679D01*
X007740Y003679D01*
X007740Y003389D01*
X007885Y003389D01*
X007934Y003437D01*
X007934Y003486D01*
X007885Y003534D01*
X008035Y003486D02*
X008035Y003437D01*
X008083Y003389D01*
X008180Y003389D01*
X008228Y003437D01*
X008228Y003631D01*
X008180Y003679D01*
X008083Y003679D01*
X008035Y003631D01*
X008083Y003534D02*
X008228Y003534D01*
X008083Y003534D02*
X008035Y003486D01*
X008597Y003534D02*
X008742Y003534D01*
X008790Y003582D01*
X008790Y003631D01*
X008742Y003679D01*
X008597Y003679D01*
X008597Y003389D01*
X008742Y003389D01*
X008790Y003437D01*
X008790Y003486D01*
X008742Y003534D01*
X008891Y003486D02*
X008988Y003389D01*
X008988Y003679D01*
X008891Y003679D02*
X009085Y003679D01*
X009186Y003631D02*
X009379Y003437D01*
X009379Y003631D01*
X009331Y003679D01*
X009234Y003679D01*
X009186Y003631D01*
X009186Y003437D01*
X009234Y003389D01*
X009331Y003389D01*
X009379Y003437D01*
X009601Y003389D02*
X009746Y003389D01*
X009794Y003437D01*
X009794Y003486D01*
X009746Y003534D01*
X009601Y003534D01*
X009746Y003534D02*
X009794Y003582D01*
X009794Y003631D01*
X009746Y003679D01*
X009601Y003679D01*
X009601Y003389D01*
X009895Y003486D02*
X009992Y003389D01*
X009992Y003679D01*
X009895Y003679D02*
X010089Y003679D01*
X010190Y003679D02*
X010383Y003679D01*
X010287Y003679D02*
X010287Y003389D01*
X010190Y003486D01*
X010605Y003534D02*
X010750Y003534D01*
X010798Y003582D01*
X010798Y003631D01*
X010750Y003679D01*
X010605Y003679D01*
X010605Y003389D01*
X010750Y003389D01*
X010798Y003437D01*
X010798Y003486D01*
X010750Y003534D01*
X010899Y003486D02*
X010996Y003389D01*
X010996Y003679D01*
X010899Y003679D02*
X011093Y003679D01*
X011194Y003679D02*
X011387Y003486D01*
X011387Y003437D01*
X011339Y003389D01*
X011242Y003389D01*
X011194Y003437D01*
X011194Y003679D02*
X011387Y003679D01*
X011608Y003679D02*
X011754Y003679D01*
X011802Y003631D01*
X011802Y003582D01*
X011754Y003534D01*
X011608Y003534D01*
X011608Y003679D02*
X011608Y003389D01*
X011754Y003389D01*
X011802Y003437D01*
X011802Y003486D01*
X011754Y003534D01*
X011903Y003486D02*
X012000Y003389D01*
X012000Y003679D01*
X011903Y003679D02*
X012097Y003679D01*
X012198Y003631D02*
X012246Y003679D01*
X012343Y003679D01*
X012391Y003631D01*
X012391Y003582D01*
X012343Y003534D01*
X012295Y003534D01*
X012343Y003534D02*
X012391Y003486D01*
X012391Y003437D01*
X012343Y003389D01*
X012246Y003389D01*
X012198Y003437D01*
X012612Y003389D02*
X012612Y003679D01*
X012758Y003679D01*
X012806Y003631D01*
X012806Y003582D01*
X012758Y003534D01*
X012612Y003534D01*
X012612Y003389D02*
X012758Y003389D01*
X012806Y003437D01*
X012806Y003486D01*
X012758Y003534D01*
X012907Y003486D02*
X013004Y003389D01*
X013004Y003679D01*
X012907Y003679D02*
X013101Y003679D01*
X013202Y003534D02*
X013395Y003534D01*
X013347Y003679D02*
X013347Y003389D01*
X013202Y003534D01*
X013616Y003534D02*
X013761Y003534D01*
X013810Y003582D01*
X013810Y003631D01*
X013761Y003679D01*
X013616Y003679D01*
X013616Y003389D01*
X013761Y003389D01*
X013810Y003437D01*
X013810Y003486D01*
X013761Y003534D01*
X013911Y003486D02*
X014008Y003389D01*
X014008Y003679D01*
X014104Y003679D02*
X013911Y003679D01*
X014206Y003631D02*
X014254Y003679D01*
X014351Y003679D01*
X014399Y003631D01*
X014399Y003534D01*
X014351Y003486D01*
X014302Y003486D01*
X014206Y003534D01*
X014206Y003389D01*
X014399Y003389D01*
X014768Y003389D02*
X014768Y003679D01*
X014913Y003679D01*
X014961Y003631D01*
X014961Y003582D01*
X014913Y003534D01*
X014768Y003534D01*
X014913Y003534D02*
X014961Y003486D01*
X014961Y003437D01*
X014913Y003389D01*
X014768Y003389D01*
X015062Y003437D02*
X015111Y003389D01*
X015207Y003389D01*
X015256Y003437D01*
X015256Y003486D01*
X015062Y003679D01*
X015256Y003679D01*
X015624Y003679D02*
X015769Y003679D01*
X015818Y003631D01*
X015818Y003582D01*
X015769Y003534D01*
X015624Y003534D01*
X015624Y003679D02*
X015624Y003389D01*
X015769Y003389D01*
X015818Y003437D01*
X015818Y003486D01*
X015769Y003534D01*
X015919Y003389D02*
X016112Y003389D01*
X016016Y003389D02*
X016016Y003679D01*
X016214Y003631D02*
X016407Y003437D01*
X016407Y003631D01*
X016359Y003679D01*
X016262Y003679D01*
X016214Y003631D01*
X016214Y003437D01*
X016262Y003389D01*
X016359Y003389D01*
X016407Y003437D01*
X016359Y001120D02*
X016214Y001120D01*
X016214Y000830D01*
X016359Y000830D01*
X016407Y000878D01*
X016407Y001072D01*
X016359Y001120D01*
X016112Y001120D02*
X016112Y000830D01*
X015919Y000830D02*
X015919Y001120D01*
X015818Y001072D02*
X015818Y000975D01*
X015721Y000975D01*
X015818Y001072D02*
X015769Y001120D01*
X015673Y001120D01*
X015624Y001072D01*
X015624Y000878D01*
X015673Y000830D01*
X015769Y000830D01*
X015818Y000878D01*
X015919Y000830D02*
X016112Y001120D01*
X015403Y001072D02*
X015355Y001120D01*
X015258Y001120D01*
X015210Y001072D01*
X015108Y001023D02*
X015108Y000830D01*
X015210Y000878D02*
X015258Y000830D01*
X015355Y000830D01*
X015403Y000878D01*
X015403Y000926D01*
X015355Y000975D01*
X015403Y001023D01*
X015403Y001072D01*
X015355Y000975D02*
X015306Y000975D01*
X015108Y001023D02*
X015012Y001120D01*
X014915Y001023D01*
X014915Y000830D01*
X014814Y000878D02*
X014814Y000926D01*
X014765Y000975D01*
X014814Y001023D01*
X014814Y001072D01*
X014765Y001120D01*
X014669Y001120D01*
X014620Y001072D01*
X014717Y000975D02*
X014765Y000975D01*
X014814Y000878D02*
X014765Y000830D01*
X014669Y000830D01*
X014620Y000878D01*
X014252Y000878D02*
X014058Y001072D01*
X014058Y001120D01*
X013957Y001120D02*
X013957Y000926D01*
X013860Y000830D01*
X013764Y000926D01*
X013764Y001120D01*
X013764Y000975D02*
X013957Y000975D01*
X014058Y000830D02*
X014252Y000830D01*
X014252Y000878D01*
X013248Y000830D02*
X013151Y000878D01*
X013054Y000975D01*
X013199Y000975D01*
X013248Y001023D01*
X013248Y001072D01*
X013199Y001120D01*
X013103Y001120D01*
X013054Y001072D01*
X013054Y000975D01*
X012953Y000975D02*
X012760Y000975D01*
X012760Y000926D02*
X012856Y000830D01*
X012953Y000926D01*
X012953Y001120D01*
X012760Y001120D02*
X012760Y000926D01*
X012244Y000975D02*
X012244Y001072D01*
X012196Y001120D01*
X012099Y001120D01*
X012050Y001072D01*
X012050Y000975D02*
X012147Y000926D01*
X012196Y000926D01*
X012244Y000975D01*
X012244Y000830D02*
X012050Y000830D01*
X012050Y000975D01*
X011949Y000975D02*
X011756Y000975D01*
X011756Y000926D02*
X011853Y000830D01*
X011949Y000926D01*
X011949Y001120D01*
X011756Y001120D02*
X011756Y000926D01*
X011240Y000975D02*
X011046Y000975D01*
X011192Y000830D01*
X011192Y001120D01*
X010945Y001120D02*
X010945Y000926D01*
X010849Y000830D01*
X010752Y000926D01*
X010752Y001120D01*
X010752Y000975D02*
X010945Y000975D01*
X010236Y001023D02*
X010188Y000975D01*
X010139Y000975D01*
X010188Y000975D02*
X010236Y000926D01*
X010236Y000878D01*
X010188Y000830D01*
X010091Y000830D01*
X010043Y000878D01*
X009941Y000926D02*
X009941Y001120D01*
X010043Y001072D02*
X010091Y001120D01*
X010188Y001120D01*
X010236Y001072D01*
X010236Y001023D01*
X009941Y000975D02*
X009748Y000975D01*
X009748Y000926D02*
X009845Y000830D01*
X009941Y000926D01*
X009748Y000926D02*
X009748Y001120D01*
X009232Y001120D02*
X009039Y001120D01*
X009232Y000926D01*
X009232Y000878D01*
X009184Y000830D01*
X009087Y000830D01*
X009039Y000878D01*
X008937Y000926D02*
X008937Y001120D01*
X008937Y000975D02*
X008744Y000975D01*
X008744Y000926D02*
X008841Y000830D01*
X008937Y000926D01*
X008744Y000926D02*
X008744Y001120D01*
X008228Y001120D02*
X008035Y001120D01*
X008131Y001120D02*
X008131Y000830D01*
X008035Y000926D01*
X007934Y000926D02*
X007934Y001120D01*
X007934Y000975D02*
X007740Y000975D01*
X007740Y000926D02*
X007837Y000830D01*
X007934Y000926D01*
X007740Y000926D02*
X007740Y001120D01*
X007224Y001072D02*
X007224Y000878D01*
X007031Y001072D01*
X007079Y001120D01*
X007176Y001120D01*
X007224Y001072D01*
X007031Y001072D02*
X007031Y000878D01*
X007079Y000830D01*
X007176Y000830D01*
X007224Y000878D01*
X006930Y000926D02*
X006930Y001120D01*
X006930Y000975D02*
X006736Y000975D01*
X006736Y000926D02*
X006833Y000830D01*
X006930Y000926D01*
X006736Y000926D02*
X006736Y001120D01*
X005504Y017838D02*
X005600Y017935D01*
X005600Y018128D01*
X005407Y018128D02*
X005407Y017935D01*
X005504Y017838D01*
X005306Y017838D02*
X005112Y017838D01*
X005306Y018031D01*
X005306Y018080D01*
X005257Y018128D01*
X005161Y018128D01*
X005112Y018080D01*
X004914Y018128D02*
X004914Y017838D01*
X004818Y017838D02*
X005011Y017838D01*
X004818Y018031D02*
X004914Y018128D01*
X004716Y017983D02*
X004523Y017983D01*
X004620Y018080D02*
X004620Y017886D01*
X003069Y017886D02*
X003069Y018080D01*
X003021Y018128D01*
X002876Y018128D01*
X002876Y017838D01*
X003021Y017838D01*
X003069Y017886D01*
X002775Y017838D02*
X002775Y018128D01*
X002581Y018128D02*
X002775Y017838D01*
X002581Y017838D02*
X002581Y018128D01*
X002480Y018080D02*
X002432Y018128D01*
X002335Y018128D01*
X002287Y018080D01*
X002287Y017886D01*
X002335Y017838D01*
X002432Y017838D01*
X002480Y017886D01*
X002480Y017983D01*
X002383Y017983D01*
X006680Y019706D02*
X006680Y019900D01*
X006873Y019900D02*
X006873Y019706D01*
X006776Y019609D01*
X006680Y019706D01*
X006974Y019609D02*
X007168Y019609D01*
X006974Y019803D01*
X006974Y019851D01*
X007023Y019900D01*
X007119Y019900D01*
X007168Y019851D01*
X007366Y019900D02*
X007366Y019609D01*
X007462Y019609D02*
X007269Y019609D01*
X007462Y019803D02*
X007366Y019900D01*
X007684Y019851D02*
X007732Y019900D01*
X007877Y019900D01*
X007877Y019609D01*
X007732Y019609D01*
X007684Y019658D01*
X007684Y019851D01*
X007978Y019900D02*
X007978Y019609D01*
X008172Y019900D01*
X008172Y019609D01*
X008273Y019658D02*
X008273Y019755D01*
X008370Y019755D01*
X008466Y019851D02*
X008466Y019658D01*
X008418Y019609D01*
X008321Y019609D01*
X008273Y019658D01*
X008273Y019851D02*
X008321Y019900D01*
X008418Y019900D01*
X008466Y019851D01*
X008687Y019851D02*
X008687Y019803D01*
X008736Y019755D01*
X008687Y019706D01*
X008687Y019658D01*
X008736Y019609D01*
X008833Y019609D01*
X008881Y019658D01*
X008982Y019706D02*
X008982Y019900D01*
X008881Y019851D02*
X008833Y019900D01*
X008736Y019900D01*
X008687Y019851D01*
X008736Y019755D02*
X008784Y019755D01*
X008982Y019706D02*
X009079Y019609D01*
X009176Y019706D01*
X009176Y019900D01*
X009277Y019851D02*
X009325Y019900D01*
X009422Y019900D01*
X009470Y019851D01*
X009374Y019755D02*
X009325Y019755D01*
X009277Y019706D01*
X009277Y019658D01*
X009325Y019609D01*
X009422Y019609D01*
X009470Y019658D01*
X009325Y019755D02*
X009277Y019803D01*
X009277Y019851D01*
X009691Y019851D02*
X009740Y019900D01*
X009837Y019900D01*
X009885Y019851D01*
X009691Y019851D02*
X009691Y019803D01*
X009885Y019609D01*
X009691Y019609D01*
X009986Y019609D02*
X010180Y019609D01*
X010083Y019609D02*
X010083Y019900D01*
X010180Y019803D01*
X010281Y019803D02*
X010281Y019609D01*
X010281Y019755D02*
X010474Y019755D01*
X010474Y019803D02*
X010377Y019900D01*
X010281Y019803D01*
X010474Y019803D02*
X010474Y019609D01*
X010676Y019609D02*
X010869Y019609D01*
X010772Y019609D02*
X010772Y019900D01*
X010869Y019803D01*
X010970Y019609D02*
X011164Y019609D01*
X011067Y019609D02*
X011067Y019900D01*
X011164Y019803D01*
X011265Y019803D02*
X011265Y019609D01*
X011265Y019755D02*
X011458Y019755D01*
X011458Y019803D02*
X011362Y019900D01*
X011265Y019803D01*
X011458Y019803D02*
X011458Y019609D01*
X011680Y019658D02*
X011680Y019851D01*
X011873Y019658D01*
X011825Y019609D01*
X011728Y019609D01*
X011680Y019658D01*
X011873Y019658D02*
X011873Y019851D01*
X011825Y019900D01*
X011728Y019900D01*
X011680Y019851D01*
X011974Y019609D02*
X012168Y019609D01*
X012071Y019609D02*
X012071Y019900D01*
X012168Y019803D01*
X012269Y019803D02*
X012269Y019609D01*
X012269Y019755D02*
X012462Y019755D01*
X012462Y019803D02*
X012366Y019900D01*
X012269Y019803D01*
X012462Y019803D02*
X012462Y019609D01*
X012831Y019658D02*
X012831Y019851D01*
X012879Y019900D01*
X012976Y019900D01*
X013024Y019851D01*
X013024Y019803D01*
X012976Y019755D01*
X012831Y019755D01*
X012831Y019658D02*
X012879Y019609D01*
X012976Y019609D01*
X013024Y019658D01*
X013126Y019609D02*
X013126Y019803D01*
X013222Y019900D01*
X013319Y019803D01*
X013319Y019609D01*
X013319Y019755D02*
X013126Y019755D01*
X013835Y019803D02*
X013883Y019755D01*
X013980Y019755D01*
X014028Y019803D01*
X014028Y019851D01*
X013980Y019900D01*
X013883Y019900D01*
X013835Y019851D01*
X013835Y019803D01*
X013883Y019755D02*
X013835Y019706D01*
X013835Y019658D01*
X013883Y019609D01*
X013980Y019609D01*
X014028Y019658D01*
X014028Y019706D01*
X013980Y019755D01*
X014129Y019755D02*
X014323Y019755D01*
X014323Y019803D02*
X014226Y019900D01*
X014129Y019803D01*
X014129Y019609D01*
X014323Y019609D02*
X014323Y019803D01*
D12*
X017165Y013567D02*
X017165Y013336D01*
X017242Y013260D01*
X017472Y013260D01*
X017472Y013106D02*
X017012Y013106D01*
X017012Y012876D01*
X017088Y012799D01*
X017242Y012799D01*
X017319Y012876D01*
X017319Y013106D01*
X017319Y012953D02*
X017472Y012799D01*
X017472Y012646D02*
X017012Y012646D01*
X017012Y012339D01*
X017088Y012185D02*
X017012Y012109D01*
X017012Y011955D01*
X017088Y011879D01*
X017165Y011879D01*
X017472Y012185D01*
X017472Y011879D01*
X017242Y011725D02*
X017242Y011418D01*
X017472Y011495D02*
X017012Y011495D01*
X017242Y011725D01*
X017012Y011265D02*
X017472Y011265D01*
X017472Y010958D01*
X017395Y010804D02*
X017088Y010497D01*
X017395Y010497D01*
X017472Y010574D01*
X017472Y010728D01*
X017395Y010804D01*
X017088Y010804D01*
X017012Y010728D01*
X017012Y010574D01*
X017088Y010497D01*
X017165Y010344D02*
X017012Y010190D01*
X017472Y010190D01*
X017472Y010037D02*
X017472Y010344D01*
X017242Y009883D02*
X017242Y009577D01*
X017395Y009730D02*
X017088Y009730D01*
X017242Y012492D02*
X017242Y012646D01*
X017165Y013567D02*
X017472Y013567D01*
X017431Y003161D02*
X017124Y003161D01*
X017048Y003085D01*
X017048Y002854D01*
X017508Y002854D01*
X017508Y003085D01*
X017431Y003161D01*
X017354Y002701D02*
X017048Y002701D01*
X017278Y002701D02*
X017278Y002394D01*
X017354Y002394D02*
X017508Y002547D01*
X017354Y002701D01*
X017354Y002394D02*
X017048Y002394D01*
X017124Y002241D02*
X017431Y002241D01*
X017508Y002164D01*
X017508Y002010D01*
X017431Y001934D01*
X017124Y001934D01*
X017048Y002010D01*
X017048Y002164D01*
X017124Y002241D01*
X017048Y001780D02*
X017048Y001473D01*
X017508Y001473D01*
X018551Y001703D02*
X018551Y002010D01*
X018551Y002164D02*
X018551Y002471D01*
X018551Y002624D02*
X018551Y002854D01*
X018628Y002931D01*
X018935Y002931D01*
X019012Y002854D01*
X019012Y002624D01*
X018551Y002624D01*
X018782Y002317D02*
X018782Y002164D01*
X019012Y002164D02*
X018551Y002164D01*
X018551Y001703D02*
X019012Y001703D01*
X019012Y002164D02*
X019012Y002471D01*
X003143Y015319D02*
X003143Y015780D01*
X002913Y015780D01*
X002836Y015703D01*
X002836Y015549D01*
X002913Y015473D01*
X003143Y015473D01*
X002683Y015319D02*
X002529Y015473D01*
X002376Y015319D01*
X002376Y015780D01*
X002222Y015780D02*
X001992Y015780D01*
X001915Y015703D01*
X001915Y015549D01*
X001992Y015473D01*
X002222Y015473D01*
X002069Y015473D02*
X001915Y015319D01*
X002222Y015319D02*
X002222Y015780D01*
X002683Y015780D02*
X002683Y015319D01*
D13*
X006965Y013499D02*
X006965Y013199D01*
X007116Y013049D01*
X007266Y013199D01*
X007266Y013499D01*
X007426Y013424D02*
X007426Y013349D01*
X007501Y013274D01*
X007426Y013199D01*
X007426Y013124D01*
X007501Y013049D01*
X007651Y013049D01*
X007726Y013124D01*
X007881Y013124D02*
X007881Y013049D01*
X007956Y013049D01*
X007956Y013124D01*
X007881Y013124D01*
X008113Y013049D02*
X008188Y013124D01*
X008188Y013424D01*
X008263Y013349D02*
X008113Y013349D01*
X007726Y013424D02*
X007651Y013499D01*
X007501Y013499D01*
X007426Y013424D01*
X007501Y013274D02*
X007576Y013274D01*
X008420Y013049D02*
X008570Y013049D01*
X008495Y013049D02*
X008495Y013349D01*
X008570Y013349D01*
X008495Y013499D02*
X008495Y013574D01*
X008571Y013886D02*
X008571Y007902D01*
X019791Y007902D01*
X019791Y013295D01*
X019791Y013886D01*
X019201Y013886D01*
X008571Y013886D01*
X009031Y013499D02*
X009031Y013049D01*
X008730Y013049D01*
X008722Y006999D02*
X008797Y006924D01*
X008722Y006999D02*
X008572Y006999D01*
X008497Y006924D01*
X008497Y006849D01*
X008797Y006549D01*
X008497Y006549D01*
X008336Y006624D02*
X008036Y006924D01*
X008036Y006624D01*
X008111Y006549D01*
X008261Y006549D01*
X008336Y006624D01*
X008336Y006924D01*
X008261Y006999D01*
X008111Y006999D01*
X008036Y006924D01*
X007876Y006924D02*
X007801Y006999D01*
X007651Y006999D01*
X007576Y006924D01*
X007576Y006849D01*
X007651Y006774D01*
X007576Y006699D01*
X007576Y006624D01*
X007651Y006549D01*
X007801Y006549D01*
X007876Y006624D01*
X007726Y006774D02*
X007651Y006774D01*
X007416Y006924D02*
X007341Y006999D01*
X007191Y006999D01*
X007115Y006924D01*
X007115Y006849D01*
X007416Y006549D01*
X007115Y006549D01*
X008957Y006549D02*
X009107Y006699D01*
X009032Y006699D02*
X009257Y006699D01*
X009257Y006549D02*
X009257Y006999D01*
X009032Y006999D01*
X008957Y006924D01*
X008957Y006774D01*
X009032Y006699D01*
X009417Y006624D02*
X009492Y006549D01*
X009643Y006549D01*
X009718Y006624D01*
X009718Y006924D01*
X009643Y006999D01*
X009492Y006999D01*
X009417Y006924D01*
X003906Y003910D02*
X003906Y003835D01*
X003831Y003760D01*
X003681Y003760D01*
X003605Y003685D01*
X003605Y003610D01*
X003681Y003535D01*
X003831Y003535D01*
X003906Y003610D01*
X003906Y003910D02*
X003831Y003985D01*
X003681Y003985D01*
X003605Y003910D01*
X003445Y003985D02*
X003445Y003535D01*
X003295Y003685D01*
X003145Y003535D01*
X003145Y003985D01*
X002985Y003985D02*
X002760Y003985D01*
X002685Y003910D01*
X002685Y003610D01*
X002760Y003535D01*
X002985Y003535D01*
X002985Y003985D01*
D14*
X002756Y004203D02*
X003756Y004203D01*
X004756Y004203D01*
X005756Y004203D01*
X005756Y003203D01*
X004756Y003203D01*
X003756Y003203D01*
X002756Y003203D01*
X001756Y003203D01*
X000756Y003203D01*
X000756Y004203D01*
X001756Y004203D01*
X002756Y004203D01*
X002756Y003203D01*
X003756Y003203D02*
X003756Y004203D01*
X004756Y004203D02*
X004756Y003203D01*
X001756Y003203D02*
X001756Y004203D01*
X005380Y007174D02*
X005380Y012524D01*
X007480Y012524D01*
X007480Y010274D01*
X008480Y010274D01*
X008480Y012524D01*
X010580Y012524D01*
X010580Y007174D01*
X009380Y007174D02*
X006580Y007174D01*
X005343Y008533D02*
X005252Y008617D01*
X005163Y008705D01*
X005077Y008795D01*
X004995Y008888D01*
X004915Y008983D01*
X004838Y009081D01*
X004764Y009181D01*
X004693Y009283D01*
X004626Y009388D01*
X004562Y009495D01*
X004501Y009603D01*
X004444Y009714D01*
X004390Y009826D01*
X004340Y009940D01*
X004294Y010055D01*
X004251Y010172D01*
X004212Y010290D01*
X004176Y010409D01*
X004145Y010530D01*
X004117Y010651D01*
X004093Y010773D01*
X004073Y010896D01*
X004056Y011019D01*
X004044Y011143D01*
X004035Y011267D01*
X004031Y011391D01*
X004030Y011516D01*
X004033Y011640D01*
X004041Y011764D01*
X004052Y011888D01*
X004067Y012012D01*
X004086Y012135D01*
X004108Y012257D01*
X004135Y012379D01*
X004165Y012499D01*
X004200Y012619D01*
X004237Y012737D01*
X004279Y012855D01*
X004324Y012970D01*
X004373Y013085D01*
X004426Y013198D01*
X004482Y013309D01*
X004541Y013418D01*
X004604Y013525D01*
X004671Y013631D01*
X004740Y013734D01*
X004813Y013835D01*
X004889Y013933D01*
X004968Y014029D01*
X005050Y014123D01*
X005135Y014214D01*
X005222Y014302D01*
X005313Y014388D01*
X005406Y014470D01*
X005502Y014550D01*
X005600Y014626D01*
X005700Y014700D01*
X005803Y014770D01*
X005908Y014837D01*
X006015Y014900D01*
X006124Y014961D01*
X006234Y015017D01*
X006347Y015071D01*
X006461Y015120D01*
X006576Y015166D01*
X006693Y015209D01*
X006812Y015247D01*
X006931Y015282D01*
X007051Y015313D01*
X007173Y015341D01*
X007295Y015364D01*
X007418Y015384D01*
X007541Y015400D01*
X007665Y015411D01*
X007789Y015419D01*
X007914Y015423D01*
X008038Y015424D01*
X008162Y015420D01*
X008287Y015412D01*
X008410Y015400D01*
X008534Y015385D01*
X008657Y015366D01*
X008779Y015342D01*
X008900Y015315D01*
X009021Y015284D01*
X009140Y015250D01*
X009259Y015211D01*
X009376Y015169D01*
X009492Y015123D01*
X009606Y015074D01*
X009718Y015021D01*
X009829Y014964D01*
X009938Y014904D01*
X010045Y014841D01*
X010150Y014774D01*
X010253Y014704D01*
X010354Y014631D01*
X010452Y014555D01*
X010548Y014476D01*
X010641Y014393D01*
X010732Y014308D01*
X010820Y014220D01*
X010905Y014129D01*
X010987Y014036D01*
X011066Y013940D01*
X011142Y013841D01*
X011215Y013740D01*
X011285Y013637D01*
X011351Y013532D01*
X011414Y013425D01*
X011474Y013316D01*
X011530Y013205D01*
X011583Y013092D01*
X011632Y012978D01*
X011678Y012862D01*
X011720Y012745D01*
X011758Y012627D01*
X011792Y012507D01*
X011823Y012387D01*
X011850Y012265D01*
X011873Y012143D01*
X011892Y012020D01*
X011907Y011896D01*
X011919Y011773D01*
X011926Y011648D01*
X011930Y011524D01*
X011929Y011402D01*
X011925Y011281D01*
X011917Y011159D01*
X011906Y011038D01*
X011891Y010917D01*
X011872Y010797D01*
X011849Y010677D01*
X011822Y010559D01*
X011792Y010441D01*
X011759Y010324D01*
X011722Y010208D01*
X011681Y010093D01*
X011636Y009980D01*
X011589Y009868D01*
X011537Y009757D01*
X011483Y009648D01*
X011425Y009541D01*
X011364Y009436D01*
X011299Y009333D01*
X011232Y009232D01*
X011161Y009132D01*
X011087Y009036D01*
X011011Y008941D01*
X010931Y008849D01*
X010849Y008759D01*
X010764Y008672D01*
X010676Y008587D01*
X010586Y008506D01*
X017697Y010041D02*
X017947Y009791D01*
X019447Y009791D01*
X019697Y010041D01*
X019697Y010541D01*
X019447Y010791D01*
X017947Y010791D01*
X017697Y010541D01*
X017697Y010041D01*
X017947Y010791D02*
X017697Y011041D01*
X017697Y011541D01*
X017947Y011791D01*
X019447Y011791D01*
X019697Y011541D01*
X019697Y011041D01*
X019447Y010791D01*
X019447Y011791D02*
X019697Y012041D01*
X019697Y012541D01*
X019447Y012791D01*
X017947Y012791D01*
X017697Y012541D01*
X017697Y012041D01*
X017947Y011791D01*
X017947Y012791D02*
X017697Y013041D01*
X017697Y013541D01*
X017947Y013791D01*
X019447Y013791D01*
X019697Y013541D01*
X019697Y013041D01*
X019447Y012791D01*
D15*
X005256Y002953D02*
X005256Y000703D01*
X004256Y000703D02*
X004256Y002953D01*
X003256Y002953D02*
X003256Y000703D01*
X002256Y000703D02*
X002256Y002953D01*
X001256Y002953D02*
X001256Y000703D01*
D16*
X001256Y003103D03*
X002256Y003103D03*
X003256Y003103D03*
X004256Y003103D03*
X005256Y003103D03*
D17*
X005256Y004403D03*
X004256Y004403D03*
X003256Y004403D03*
X002256Y004403D03*
X001256Y004403D03*
D18*
X007730Y008274D02*
X008230Y008274D01*
X007980Y008024D02*
X007980Y008524D01*
X007730Y015024D02*
X008230Y015024D01*
D19*
X017725Y002153D03*
X018267Y002153D03*
X019210Y002153D03*
X019751Y002153D03*
D20*
X019480Y002305D03*
X017996Y002305D03*
X002400Y014870D03*
D21*
X002247Y015141D03*
X002247Y014599D03*
M02*
