G04 This is an RS-274x file exported by *
G04 gerbv version 2.6.1 *
G04 More information is available about gerbv at *
G04 http://gerbv.geda-project.org/ *
G04 --End of header info--*
%MOIN*%
%FSLAX34Y34*%
%IPPOS*%
G04 --Define apertures--*
%AMMACRO10*
21,1,0.060000,0.060000,0.000000,0.000000,0.000000*
%
%ADD10MACRO10*%
%AMMACRO11*
21,1,0.196850,0.157480,0.000000,0.000000,0.000000*
%
%ADD11MACRO11*%
%AMMACRO12*
21,1,0.059055,0.059055,0.000000,0.000000,0.000000*
%
%ADD12MACRO12*%
%ADD13C,0.0000*%
%ADD14C,0.0060*%
%ADD15C,0.0000*%
%ADD16C,0.0157*%
%ADD17C,0.0197*%
%ADD18C,0.0150*%
%ADD19C,0.0276*%
%ADD20C,0.0860*%
G04 --Start main section--*
G36*
G01X0014720Y0009561D02*
G01X0014691Y0009630D01*
G01X0014691Y0009795D01*
G01X0014754Y0009947D01*
G01X0014871Y0010063D01*
G01X0014932Y0010088D01*
G01X0012037Y0014441D01*
G01X0012034Y0014446D01*
G01X0012028Y0014456D01*
G01X0012025Y0014461D01*
G01X0010907Y0016457D01*
G01X0010904Y0016462D01*
G01X0009852Y0018432D01*
G01X0009759Y0018470D01*
G01X0009720Y0018509D01*
G01X0009544Y0018685D01*
G01X0009539Y0018690D01*
G01X0009534Y0018685D01*
G01X0009359Y0018509D01*
G01X0009320Y0018470D01*
G01X0009219Y0018428D01*
G01X0009164Y0018428D01*
G01X0008915Y0018428D01*
G01X0008861Y0018428D01*
G01X0008759Y0018470D01*
G01X0008720Y0018509D01*
G01X0008544Y0018685D01*
G01X0008506Y0018723D01*
G01X0008501Y0018718D01*
G01X0008325Y0018542D01*
G01X0008293Y0018510D01*
G01X0008209Y0018475D01*
G01X0008164Y0018475D01*
G01X0007915Y0018475D01*
G01X0007870Y0018475D01*
G01X0007786Y0018510D01*
G01X0007753Y0018542D01*
G01X0007615Y0018681D01*
G01X0007615Y0018649D01*
G01X0007573Y0018548D01*
G01X0007496Y0018470D01*
G01X0007394Y0018428D01*
G01X0007339Y0018428D01*
G01X0006739Y0018428D01*
G01X0006717Y0018428D01*
G01X0006717Y0017474D01*
G01X0006669Y0017295D01*
G01X0006576Y0017134D01*
G01X0006445Y0017002D01*
G01X0006284Y0016909D01*
G01X0006105Y0016861D01*
G01X0005919Y0016861D01*
G01X0005739Y0016909D01*
G01X0005579Y0017002D01*
G01X0005447Y0017134D01*
G01X0005354Y0017295D01*
G01X0005306Y0017474D01*
G01X0005306Y0018447D01*
G01X0005354Y0018627D01*
G01X0005447Y0018788D01*
G01X0005579Y0018919D01*
G01X0005739Y0019012D01*
G01X0005919Y0019060D01*
G01X0006105Y0019060D01*
G01X0006284Y0019012D01*
G01X0006445Y0018919D01*
G01X0006464Y0018900D01*
G01X0006464Y0019249D01*
G01X0006464Y0019304D01*
G01X0006464Y0019359D01*
G01X0006506Y0019460D01*
G01X0006583Y0019538D01*
G01X0006685Y0019580D01*
G01X0006739Y0019580D01*
G01X0006794Y0019580D01*
G01X0007339Y0019580D01*
G01X0007394Y0019580D01*
G01X0007495Y0019538D01*
G01X0007573Y0019460D01*
G01X0007615Y0019359D01*
G01X0007615Y0019327D01*
G01X0007753Y0019466D01*
G01X0007785Y0019498D01*
G01X0007869Y0019533D01*
G01X0007915Y0019533D01*
G01X0008164Y0019533D01*
G01X0008209Y0019533D01*
G01X0008293Y0019498D01*
G01X0008325Y0019466D01*
G01X0008501Y0019290D01*
G01X0008506Y0019285D01*
G01X0008545Y0019323D01*
G01X0008583Y0019362D01*
G01X0008720Y0019499D01*
G01X0008759Y0019537D01*
G01X0008860Y0019579D01*
G01X0008915Y0019580D01*
G01X0009164Y0019580D01*
G01X0009218Y0019580D01*
G01X0009320Y0019538D01*
G01X0009359Y0019499D01*
G01X0009534Y0019323D01*
G01X0009539Y0019318D01*
G01X0009545Y0019323D01*
G01X0009583Y0019362D01*
G01X0009720Y0019499D01*
G01X0009759Y0019537D01*
G01X0009860Y0019579D01*
G01X0009915Y0019580D01*
G01X0010164Y0019580D01*
G01X0010218Y0019580D01*
G01X0010320Y0019538D01*
G01X0010359Y0019499D01*
G01X0010534Y0019323D01*
G01X0010539Y0019318D01*
G01X0010545Y0019323D01*
G01X0010583Y0019362D01*
G01X0010720Y0019499D01*
G01X0010759Y0019537D01*
G01X0010860Y0019579D01*
G01X0010915Y0019580D01*
G01X0011164Y0019580D01*
G01X0011218Y0019580D01*
G01X0011320Y0019538D01*
G01X0011359Y0019499D01*
G01X0011534Y0019323D01*
G01X0011539Y0019318D01*
G01X0011545Y0019323D01*
G01X0011583Y0019362D01*
G01X0011720Y0019499D01*
G01X0011759Y0019537D01*
G01X0011860Y0019579D01*
G01X0011915Y0019580D01*
G01X0012164Y0019580D01*
G01X0012218Y0019580D01*
G01X0012320Y0019538D01*
G01X0012359Y0019499D01*
G01X0012534Y0019323D01*
G01X0012539Y0019318D01*
G01X0012545Y0019323D01*
G01X0012583Y0019362D01*
G01X0012720Y0019499D01*
G01X0012759Y0019537D01*
G01X0012860Y0019579D01*
G01X0012915Y0019580D01*
G01X0013164Y0019580D01*
G01X0013218Y0019580D01*
G01X0013320Y0019538D01*
G01X0013359Y0019499D01*
G01X0013534Y0019323D01*
G01X0013539Y0019318D01*
G01X0013545Y0019323D01*
G01X0013583Y0019362D01*
G01X0013720Y0019499D01*
G01X0013759Y0019537D01*
G01X0013860Y0019579D01*
G01X0013915Y0019580D01*
G01X0014164Y0019580D01*
G01X0014218Y0019580D01*
G01X0014320Y0019538D01*
G01X0014359Y0019499D01*
G01X0014466Y0019391D01*
G01X0016573Y0019979D01*
G01X0016613Y0019995D01*
G01X0016652Y0019995D01*
G01X0016673Y0019995D01*
G01X0016947Y0019995D01*
G01X0017008Y0019995D01*
G01X0017547Y0019995D01*
G01X0017568Y0019995D01*
G01X0019332Y0019875D01*
G01X0019382Y0019875D01*
G01X0019392Y0019871D01*
G01X0019398Y0019871D01*
G01X0019445Y0019849D01*
G01X0019495Y0019829D01*
G01X0019498Y0019825D01*
G01X0019538Y0019786D01*
G01X0019661Y0019662D01*
G01X0019704Y0019619D01*
G01X0019837Y0019487D01*
G01X0019875Y0019449D01*
G01X0019920Y0019352D01*
G01X0019925Y0019298D01*
G01X0020006Y0018405D01*
G01X0020006Y0020006D01*
G01X0000679Y0020006D01*
G01X0000679Y0000679D01*
G01X0020006Y0000679D01*
G01X0020006Y0001060D01*
G01X0019988Y0001042D01*
G01X0019880Y0000996D01*
G01X0019822Y0000994D01*
G01X0014294Y0000836D01*
G01X0014285Y0000835D01*
G01X0014072Y0000835D01*
G01X0014011Y0000835D01*
G01X0013762Y0000835D01*
G01X0013757Y0000836D01*
G01X0013702Y0000835D01*
G01X0013699Y0000836D01*
G01X0006631Y0000956D01*
G01X0006572Y0000957D01*
G01X0006462Y0001003D01*
G01X0006420Y0001045D01*
G01X0006297Y0001168D01*
G01X0006285Y0001181D01*
G01X0006263Y0001209D01*
G01X0006253Y0001224D01*
G01X0004304Y0004377D01*
G01X0004132Y0004377D01*
G01X0004077Y0004377D01*
G01X0003976Y0004419D01*
G01X0003937Y0004458D01*
G01X0003800Y0004595D01*
G01X0003761Y0004634D01*
G01X0003723Y0004672D01*
G01X0003718Y0004667D01*
G01X0003542Y0004491D01*
G01X0003510Y0004459D01*
G01X0003426Y0004424D01*
G01X0003380Y0004424D01*
G01X0003132Y0004424D01*
G01X0003086Y0004424D01*
G01X0003002Y0004459D01*
G01X0002970Y0004491D01*
G01X0002826Y0004635D01*
G01X0002794Y0004667D01*
G01X0002789Y0004672D01*
G01X0002751Y0004634D01*
G01X0002575Y0004458D01*
G01X0002536Y0004419D01*
G01X0002435Y0004377D01*
G01X0002380Y0004377D01*
G01X0002132Y0004377D01*
G01X0002077Y0004377D01*
G01X0001976Y0004419D01*
G01X0001937Y0004458D01*
G01X0001821Y0004573D01*
G01X0001790Y0004497D01*
G01X0001712Y0004419D01*
G01X0001611Y0004377D01*
G01X0001556Y0004377D01*
G01X0001011Y0004377D01*
G01X0000956Y0004377D01*
G01X0000901Y0004377D01*
G01X0000800Y0004419D01*
G01X0000722Y0004497D01*
G01X0000680Y0004598D01*
G01X0000680Y0004653D01*
G01X0000680Y0004708D01*
G01X0000680Y0005253D01*
G01X0000680Y0005307D01*
G01X0000722Y0005409D01*
G01X0000800Y0005486D01*
G01X0000901Y0005528D01*
G01X0000956Y0005528D01*
G01X0001556Y0005528D01*
G01X0001610Y0005528D01*
G01X0001712Y0005487D01*
G01X0001789Y0005409D01*
G01X0001821Y0005332D01*
G01X0001937Y0005448D01*
G01X0001975Y0005486D01*
G01X0002077Y0005528D01*
G01X0002132Y0005528D01*
G01X0002380Y0005528D01*
G01X0002435Y0005528D01*
G01X0002536Y0005487D01*
G01X0002575Y0005448D01*
G01X0002751Y0005272D01*
G01X0002789Y0005234D01*
G01X0002794Y0005239D01*
G01X0002970Y0005414D01*
G01X0003002Y0005447D01*
G01X0003086Y0005481D01*
G01X0003132Y0005481D01*
G01X0003380Y0005481D01*
G01X0003425Y0005482D01*
G01X0003510Y0005447D01*
G01X0003542Y0005414D01*
G01X0003718Y0005239D01*
G01X0003723Y0005234D01*
G01X0003761Y0005272D01*
G01X0003937Y0005448D01*
G01X0003975Y0005486D01*
G01X0004077Y0005528D01*
G01X0004132Y0005528D01*
G01X0004380Y0005528D01*
G01X0004435Y0005528D01*
G01X0004536Y0005487D01*
G01X0004575Y0005448D01*
G01X0004751Y0005272D01*
G01X0004756Y0005267D01*
G01X0004761Y0005272D01*
G01X0004937Y0005448D01*
G01X0004975Y0005486D01*
G01X0005067Y0005524D01*
G01X0007540Y0010306D01*
G01X0007551Y0010327D01*
G01X0007579Y0010365D01*
G01X0007595Y0010381D01*
G01X0007729Y0010515D01*
G01X0007772Y0010558D01*
G01X0007884Y0010604D01*
G01X0007945Y0010604D01*
G01X0008134Y0010604D01*
G01X0008150Y0010604D01*
G01X0008183Y0010601D01*
G01X0008198Y0010598D01*
G01X0011342Y0009920D01*
G01X0011236Y0010026D01*
G01X0011173Y0010178D01*
G01X0011173Y0010342D01*
G01X0011236Y0010494D01*
G01X0011352Y0010610D01*
G01X0011504Y0010673D01*
G01X0011669Y0010673D01*
G01X0011821Y0010610D01*
G01X0011937Y0010494D01*
G01X0011978Y0010396D01*
G01X0011986Y0010382D01*
G01X0011988Y0010372D01*
G01X0012000Y0010342D01*
G01X0012000Y0010291D01*
G01X0012010Y0010227D01*
G01X0013763Y0008104D01*
G01X0013786Y0008096D01*
G01X0013797Y0008096D01*
G01X0013863Y0008068D01*
G01X0013910Y0008052D01*
G01X0013916Y0008046D01*
G01X0013949Y0008033D01*
G01X0014019Y0007963D01*
G01X0014403Y0008469D01*
G01X0014410Y0008479D01*
G01X0014482Y0008566D01*
G01X0014492Y0008630D01*
G01X0014492Y0008681D01*
G01X0014504Y0008710D01*
G01X0014506Y0008721D01*
G01X0014515Y0008735D01*
G01X0014555Y0008833D01*
G01X0014671Y0008949D01*
G01X0014819Y0009010D01*
G01X0014808Y0009410D01*
G01X0014781Y0009452D01*
G01X0014754Y0009478D01*
G01X0014737Y0009521D01*
G01X0014724Y0009542D01*
G01X0014720Y0009561D01*
G01X0014720Y0009561D01*
G37*
%LPC*%
G36*
G01X0003842Y0014889D02*
G01X0003810Y0014892D01*
G01X0003728Y0014852D01*
G01X0003728Y0014575D01*
G01X0003728Y0014520D01*
G01X0003687Y0014419D01*
G01X0003609Y0014341D01*
G01X0003508Y0014299D01*
G01X0003453Y0014299D01*
G01X0002862Y0014299D01*
G01X0002808Y0014299D01*
G01X0002706Y0014341D01*
G01X0002629Y0014419D01*
G01X0002587Y0014520D01*
G01X0002587Y0014575D01*
G01X0002587Y0015111D01*
G01X0002587Y0015165D01*
G01X0002587Y0015220D01*
G01X0002629Y0015321D01*
G01X0002706Y0015399D01*
G01X0002807Y0015441D01*
G01X0002862Y0015441D01*
G01X0002917Y0015441D01*
G01X0003453Y0015441D01*
G01X0003507Y0015441D01*
G01X0003526Y0015433D01*
G01X0003543Y0015441D01*
G01X0003574Y0015489D01*
G01X0003591Y0015529D01*
G01X0003618Y0015557D01*
G01X0003628Y0015572D01*
G01X0003644Y0015583D01*
G01X0003707Y0015646D01*
G01X0003837Y0015700D01*
G01X0003779Y0015799D01*
G01X0003731Y0015978D01*
G01X0003731Y0016164D01*
G01X0003779Y0016343D01*
G01X0003872Y0016504D01*
G01X0004004Y0016635D01*
G01X0004165Y0016728D01*
G01X0004344Y0016776D01*
G01X0005317Y0016776D01*
G01X0005497Y0016728D01*
G01X0005658Y0016635D01*
G01X0005789Y0016504D01*
G01X0005882Y0016343D01*
G01X0005930Y0016164D01*
G01X0005930Y0015978D01*
G01X0005882Y0015799D01*
G01X0005789Y0015638D01*
G01X0005658Y0015506D01*
G01X0005497Y0015413D01*
G01X0005317Y0015365D01*
G01X0004354Y0015365D01*
G01X0004354Y0015213D01*
G01X0004291Y0015061D01*
G01X0004175Y0014945D01*
G01X0004023Y0014882D01*
G01X0003978Y0014882D01*
G01X0003966Y0014878D01*
G01X0003923Y0014882D01*
G01X0003859Y0014882D01*
G01X0003842Y0014889D01*
G37*
G36*
G01X0001484Y0015394D02*
G01X0001530Y0015394D01*
G01X0002075Y0015394D01*
G01X0002120Y0015394D01*
G01X0002204Y0015359D01*
G01X0002269Y0015295D01*
G01X0002304Y0015211D01*
G01X0002304Y0015165D01*
G01X0002304Y0014575D01*
G01X0002304Y0014529D01*
G01X0002269Y0014445D01*
G01X0002205Y0014381D01*
G01X0002121Y0014346D01*
G01X0002075Y0014346D01*
G01X0001484Y0014346D01*
G01X0001439Y0014346D01*
G01X0001355Y0014381D01*
G01X0001290Y0014445D01*
G01X0001256Y0014529D01*
G01X0001256Y0014575D01*
G01X0001256Y0015120D01*
G01X0001256Y0015165D01*
G01X0001256Y0015211D01*
G01X0001290Y0015295D01*
G01X0001355Y0015359D01*
G01X0001439Y0015394D01*
G01X0001484Y0015394D01*
G37*
G36*
G01X0006767Y0017686D02*
G01X0006767Y0017731D01*
G01X0006802Y0017815D01*
G01X0006866Y0017880D01*
G01X0006950Y0017915D01*
G01X0006996Y0017915D01*
G01X0008965Y0017915D01*
G01X0009010Y0017915D01*
G01X0009094Y0017880D01*
G01X0009158Y0017816D01*
G01X0009193Y0017732D01*
G01X0009193Y0017686D01*
G01X0009193Y0016111D01*
G01X0009193Y0016066D01*
G01X0009159Y0015982D01*
G01X0009094Y0015917D01*
G01X0009010Y0015883D01*
G01X0008965Y0015882D01*
G01X0007042Y0015882D01*
G01X0006996Y0015882D01*
G01X0006951Y0015882D01*
G01X0006866Y0015917D01*
G01X0006802Y0015982D01*
G01X0006767Y0016066D01*
G01X0006767Y0016111D01*
G01X0006767Y0016157D01*
G01X0006767Y0017686D01*
G37*
G36*
G01X0004308Y0017436D02*
G01X0004208Y0017194D01*
G01X0004023Y0017008D01*
G01X0003781Y0016908D01*
G01X0003519Y0016908D01*
G01X0003276Y0017008D01*
G01X0003091Y0017194D01*
G01X0002991Y0017436D01*
G01X0002991Y0018485D01*
G01X0003091Y0018727D01*
G01X0003276Y0018913D01*
G01X0003519Y0019013D01*
G01X0003781Y0019013D01*
G01X0004023Y0018913D01*
G01X0004208Y0018727D01*
G01X0004308Y0018485D01*
G01X0004308Y0017436D01*
G37*
%LPD*%
G36*
G01X0013097Y0007373D02*
G01X0013090Y0007449D01*
G01X0011854Y0009143D01*
G01X0011800Y0009196D01*
G01X0008714Y0009861D01*
G01X0009406Y0009219D01*
G01X0009457Y0009209D01*
G01X0009496Y0009209D01*
G01X0009537Y0009192D01*
G01X0009559Y0009187D01*
G01X0009575Y0009176D01*
G01X0009648Y0009146D01*
G01X0009764Y0009029D01*
G01X0009827Y0008878D01*
G01X0009827Y0008713D01*
G01X0009764Y0008561D01*
G01X0009724Y0008521D01*
G01X0009716Y0008507D01*
G01X0009688Y0008485D01*
G01X0009648Y0008445D01*
G01X0009624Y0008435D01*
G01X0009593Y0008411D01*
G01X0009026Y0006943D01*
G01X0009026Y0006709D01*
G01X0009120Y0006670D01*
G01X0009198Y0006592D01*
G01X0009240Y0006491D01*
G01X0009240Y0006436D01*
G01X0009240Y0004861D01*
G01X0009240Y0004807D01*
G01X0009198Y0004705D01*
G01X0009121Y0004628D01*
G01X0009020Y0004586D01*
G01X0008965Y0004586D01*
G01X0007051Y0004586D01*
G01X0006996Y0004586D01*
G01X0006941Y0004586D01*
G01X0006840Y0004628D01*
G01X0006762Y0004705D01*
G01X0006720Y0004806D01*
G01X0006720Y0004861D01*
G01X0006720Y0004916D01*
G01X0006720Y0006436D01*
G01X0006720Y0006491D01*
G01X0006762Y0006592D01*
G01X0006840Y0006670D01*
G01X0006941Y0006712D01*
G01X0006996Y0006712D01*
G01X0008415Y0006712D01*
G01X0008415Y0007000D01*
G01X0008415Y0007028D01*
G01X0008426Y0007084D01*
G01X0008436Y0007110D01*
G01X0009022Y0008631D01*
G01X0009014Y0008680D01*
G01X0009000Y0008713D01*
G01X0009000Y0008736D01*
G01X0008990Y0008771D01*
G01X0008047Y0009647D01*
G01X0007996Y0009657D01*
G01X0007957Y0009657D01*
G01X0007916Y0009674D01*
G01X0007903Y0009677D01*
G01X0005668Y0005355D01*
G01X0005751Y0005272D01*
G01X0005789Y0005233D01*
G01X0005831Y0005132D01*
G01X0005831Y0005077D01*
G01X0005831Y0004829D01*
G01X0005832Y0004774D01*
G01X0005790Y0004673D01*
G01X0005751Y0004634D01*
G01X0005575Y0004458D01*
G01X0005536Y0004419D01*
G01X0005435Y0004377D01*
G01X0005380Y0004377D01*
G01X0005132Y0004377D01*
G01X0005077Y0004377D01*
G01X0005005Y0004407D01*
G01X0006328Y0002266D01*
G01X0006328Y0002872D01*
G01X0006328Y0002933D01*
G01X0006328Y0002994D01*
G01X0006374Y0003106D01*
G01X0006417Y0003149D01*
G01X0006470Y0003202D01*
G01X0006513Y0003245D01*
G01X0006646Y0003378D01*
G01X0006675Y0003407D01*
G01X0006744Y0003447D01*
G01X0006783Y0003457D01*
G01X0007684Y0003697D01*
G01X0007684Y0003698D01*
G01X0008439Y0003897D01*
G01X0013207Y0007110D01*
G01X0013160Y0007157D01*
G01X0013097Y0007309D01*
G01X0013097Y0007373D01*
G01X0013097Y0007373D01*
G37*
G36*
G01X0016384Y0009897D02*
G01X0016435Y0010201D01*
G01X0016436Y0010209D01*
G01X0016440Y0010226D01*
G01X0016442Y0010234D01*
G01X0017392Y0013586D01*
G01X0017399Y0013608D01*
G01X0017418Y0013650D01*
G01X0017430Y0013669D01*
G01X0017903Y0014399D01*
G01X0017853Y0014419D01*
G01X0017820Y0014452D01*
G01X0017682Y0014590D01*
G01X0017682Y0014559D01*
G01X0017640Y0014457D01*
G01X0017563Y0014380D01*
G01X0017461Y0014338D01*
G01X0017406Y0014338D01*
G01X0016806Y0014338D01*
G01X0016752Y0014338D01*
G01X0016650Y0014380D01*
G01X0016573Y0014457D01*
G01X0016531Y0014558D01*
G01X0016531Y0014613D01*
G01X0016531Y0015159D01*
G01X0016531Y0015213D01*
G01X0016531Y0015268D01*
G01X0016573Y0015369D01*
G01X0016650Y0015447D01*
G01X0016751Y0015489D01*
G01X0016806Y0015489D01*
G01X0016861Y0015489D01*
G01X0017406Y0015489D01*
G01X0017461Y0015489D01*
G01X0017562Y0015447D01*
G01X0017640Y0015370D01*
G01X0017682Y0015268D01*
G01X0017682Y0015237D01*
G01X0017820Y0015375D01*
G01X0017852Y0015407D01*
G01X0017870Y0015415D01*
G01X0017491Y0015933D01*
G01X0017396Y0015837D01*
G01X0017364Y0015805D01*
G01X0017280Y0015771D01*
G01X0017234Y0015770D01*
G01X0016986Y0015770D01*
G01X0016941Y0015770D01*
G01X0016857Y0015805D01*
G01X0016824Y0015837D01*
G01X0016686Y0015976D01*
G01X0016686Y0015945D01*
G01X0016644Y0015843D01*
G01X0016567Y0015766D01*
G01X0016465Y0015724D01*
G01X0016410Y0015724D01*
G01X0015810Y0015724D01*
G01X0015756Y0015724D01*
G01X0015654Y0015765D01*
G01X0015577Y0015843D01*
G01X0015535Y0015944D01*
G01X0015535Y0015999D01*
G01X0015535Y0016544D01*
G01X0015535Y0016599D01*
G01X0015535Y0016654D01*
G01X0015577Y0016755D01*
G01X0015654Y0016833D01*
G01X0015755Y0016875D01*
G01X0015810Y0016875D01*
G01X0015865Y0016875D01*
G01X0016410Y0016875D01*
G01X0016465Y0016875D01*
G01X0016566Y0016833D01*
G01X0016644Y0016756D01*
G01X0016686Y0016654D01*
G01X0016686Y0016623D01*
G01X0016824Y0016760D01*
G01X0016488Y0017136D01*
G01X0016451Y0017178D01*
G01X0016410Y0017284D01*
G01X0016411Y0017340D01*
G01X0016411Y0017354D01*
G01X0016411Y0017415D01*
G01X0016411Y0018015D01*
G01X0016411Y0018015D01*
G01X0016411Y0018075D01*
G01X0016411Y0018076D01*
G01X0016414Y0019300D01*
G01X0014602Y0018794D01*
G01X0014573Y0018724D01*
G01X0014534Y0018685D01*
G01X0014359Y0018509D01*
G01X0014320Y0018470D01*
G01X0014219Y0018428D01*
G01X0014164Y0018428D01*
G01X0013915Y0018428D01*
G01X0013861Y0018428D01*
G01X0013759Y0018470D01*
G01X0013720Y0018509D01*
G01X0013544Y0018685D01*
G01X0013539Y0018690D01*
G01X0013534Y0018685D01*
G01X0013359Y0018509D01*
G01X0013320Y0018470D01*
G01X0013261Y0018446D01*
G01X0013058Y0017714D01*
G01X0013058Y0017630D01*
G01X0014331Y0014698D01*
G01X0014332Y0014697D01*
G01X0016265Y0010298D01*
G01X0016267Y0010292D01*
G01X0016336Y0010125D01*
G01X0016343Y0010110D01*
G01X0016352Y0010078D01*
G01X0016355Y0010062D01*
G01X0016384Y0009897D01*
G01X0016384Y0009897D01*
G37*
G36*
G01X0018122Y0004874D02*
G01X0018116Y0004830D01*
G01X0018664Y0003513D01*
G01X0018675Y0003485D01*
G01X0018687Y0003426D01*
G01X0018687Y0003396D01*
G01X0018687Y0002866D01*
G01X0018687Y0002805D01*
G01X0018687Y0002730D01*
G01X0018687Y0002670D01*
G01X0018641Y0002557D01*
G01X0018598Y0002514D01*
G01X0018555Y0002471D01*
G01X0018545Y0002461D01*
G01X0018513Y0002430D01*
G01X0018435Y0002388D01*
G01X0018391Y0002378D01*
G01X0016532Y0001990D01*
G01X0016552Y0001942D01*
G01X0016552Y0001896D01*
G01X0016552Y0001647D01*
G01X0016552Y0001602D01*
G01X0016518Y0001518D01*
G01X0016510Y0001511D01*
G01X0017472Y0001538D01*
G01X0017472Y0001980D01*
G01X0017472Y0002026D01*
G01X0017507Y0002110D01*
G01X0017571Y0002174D01*
G01X0017655Y0002209D01*
G01X0017701Y0002209D01*
G01X0018291Y0002209D01*
G01X0018337Y0002209D01*
G01X0018421Y0002174D01*
G01X0018485Y0002110D01*
G01X0018520Y0002026D01*
G01X0018520Y0001980D01*
G01X0018520Y0001568D01*
G01X0018956Y0001581D01*
G01X0018956Y0001980D01*
G01X0018956Y0002026D01*
G01X0018991Y0002110D01*
G01X0019055Y0002174D01*
G01X0019139Y0002209D01*
G01X0019185Y0002209D01*
G01X0019560Y0002209D01*
G01X0019560Y0002492D01*
G01X0019240Y0002492D01*
G01X0019185Y0002492D01*
G01X0019130Y0002492D01*
G01X0019029Y0002534D01*
G01X0018951Y0002612D01*
G01X0018909Y0002713D01*
G01X0018909Y0002768D01*
G01X0018909Y0002823D01*
G01X0018909Y0003358D01*
G01X0018909Y0003413D01*
G01X0018951Y0003514D01*
G01X0018970Y0003533D01*
G01X0018970Y0003871D01*
G01X0018947Y0003909D01*
G01X0018925Y0003931D01*
G01X0018905Y0003979D01*
G01X0018890Y0004005D01*
G01X0018887Y0004023D01*
G01X0018862Y0004083D01*
G01X0018862Y0004248D01*
G01X0018925Y0004400D01*
G01X0019041Y0004516D01*
G01X0019060Y0004523D01*
G01X0017976Y0007082D01*
G01X0017781Y0006272D01*
G01X0017804Y0006199D01*
G01X0017829Y0006140D01*
G01X0017829Y0005975D01*
G01X0017766Y0005823D01*
G01X0017650Y0005707D01*
G01X0017498Y0005644D01*
G01X0017333Y0005644D01*
G01X0017181Y0005707D01*
G01X0017065Y0005823D01*
G01X0017002Y0005975D01*
G01X0017002Y0006025D01*
G01X0016897Y0005920D01*
G01X0016745Y0005857D01*
G01X0016581Y0005857D01*
G01X0016526Y0005880D01*
G01X0016218Y0005292D01*
G01X0016323Y0005187D01*
G01X0016347Y0005128D01*
G01X0016358Y0005113D01*
G01X0016366Y0005083D01*
G01X0016386Y0005035D01*
G01X0016386Y0005004D01*
G01X0016397Y0004962D01*
G01X0017729Y0003634D01*
G01X0017951Y0003634D01*
G01X0017551Y0004595D01*
G01X0017515Y0004622D01*
G01X0017486Y0004634D01*
G01X0017450Y0004670D01*
G01X0017426Y0004688D01*
G01X0017416Y0004704D01*
G01X0017370Y0004750D01*
G01X0017307Y0004902D01*
G01X0017307Y0005066D01*
G01X0017370Y0005218D01*
G01X0017486Y0005335D01*
G01X0017638Y0005398D01*
G01X0017803Y0005398D01*
G01X0017955Y0005335D01*
G01X0018071Y0005218D01*
G01X0018134Y0005066D01*
G01X0018134Y0005002D01*
G01X0018138Y0004985D01*
G01X0018134Y0004954D01*
G01X0018134Y0004902D01*
G01X0018122Y0004874D01*
G01X0018122Y0004874D01*
G37*
G36*
G01X0017756Y0009068D02*
G01X0017756Y0008996D01*
G01X0017693Y0008845D01*
G01X0017577Y0008728D01*
G01X0017434Y0008669D01*
G01X0017509Y0008060D01*
G01X0017511Y0008051D01*
G01X0017512Y0008032D01*
G01X0017512Y0008023D01*
G01X0017512Y0007767D01*
G01X0017530Y0007843D01*
G01X0017537Y0007873D01*
G01X0017564Y0007930D01*
G01X0017582Y0007954D01*
G01X0018925Y0009754D01*
G01X0018917Y0009758D01*
G01X0018878Y0009796D01*
G01X0018702Y0009972D01*
G01X0018697Y0009977D01*
G01X0018692Y0009972D01*
G01X0018516Y0009796D01*
G01X0018477Y0009758D01*
G01X0018376Y0009716D01*
G01X0018321Y0009716D01*
G01X0018140Y0009716D01*
G01X0017760Y0009152D01*
G01X0017756Y0009068D01*
G01X0017756Y0009068D01*
G37*
G36*
G01X0017939Y0018253D02*
G01X0017982Y0018253D01*
G01X0018231Y0018253D01*
G01X0018285Y0018253D01*
G01X0018386Y0018211D01*
G01X0018425Y0018172D01*
G01X0018601Y0017996D01*
G01X0018639Y0017958D01*
G01X0018645Y0017963D01*
G01X0018677Y0017995D01*
G01X0018820Y0018139D01*
G01X0018852Y0018171D01*
G01X0018936Y0018206D01*
G01X0018982Y0018206D01*
G01X0019231Y0018206D01*
G01X0019276Y0018206D01*
G01X0019286Y0018202D01*
G01X0019256Y0018530D01*
G01X0019234Y0018530D01*
G01X0018986Y0018530D01*
G01X0018941Y0018530D01*
G01X0018857Y0018565D01*
G01X0018824Y0018597D01*
G01X0018649Y0018773D01*
G01X0018643Y0018778D01*
G01X0018605Y0018740D01*
G01X0018429Y0018564D01*
G01X0018391Y0018526D01*
G01X0018290Y0018484D01*
G01X0018234Y0018483D01*
G01X0017986Y0018483D01*
G01X0017931Y0018483D01*
G01X0017912Y0018491D01*
G01X0017939Y0018253D01*
G01X0017939Y0018253D01*
G37*
G36*
G01X0017806Y0015038D02*
G01X0017982Y0015213D01*
G01X0018231Y0015213D01*
G01X0018406Y0015038D01*
G01X0018406Y0014789D01*
G01X0018231Y0014613D01*
G01X0017982Y0014613D01*
G01X0017806Y0014789D01*
G01X0017806Y0015038D01*
G37*
G36*
G01X0018806Y0015038D02*
G01X0018982Y0015213D01*
G01X0019231Y0015213D01*
G01X0019406Y0015038D01*
G01X0019406Y0014789D01*
G01X0019231Y0014613D01*
G01X0018982Y0014613D01*
G01X0018806Y0014789D01*
G01X0018806Y0015038D01*
G37*
G36*
G01X0016810Y0016423D02*
G01X0016986Y0016599D01*
G01X0017234Y0016599D01*
G01X0017410Y0016423D01*
G01X0017410Y0016175D01*
G01X0017234Y0015999D01*
G01X0016986Y0015999D01*
G01X0016810Y0016175D01*
G01X0016810Y0016423D01*
G37*
G36*
G01X0017810Y0016423D02*
G01X0017986Y0016599D01*
G01X0018234Y0016599D01*
G01X0018410Y0016423D01*
G01X0018410Y0016175D01*
G01X0018234Y0015999D01*
G01X0017986Y0015999D01*
G01X0017810Y0016175D01*
G01X0017810Y0016423D01*
G37*
G36*
G01X0018810Y0016423D02*
G01X0018986Y0016599D01*
G01X0019234Y0016599D01*
G01X0019410Y0016423D01*
G01X0019410Y0016175D01*
G01X0019234Y0015999D01*
G01X0018986Y0015999D01*
G01X0018810Y0016175D01*
G01X0018810Y0016423D01*
G37*
G36*
G01X0018073Y0013591D02*
G01X0017897Y0013416D01*
G01X0017897Y0013167D01*
G01X0018073Y0012991D01*
G01X0018321Y0012991D01*
G01X0018497Y0013167D01*
G01X0018497Y0013416D01*
G01X0018321Y0013591D01*
G01X0018073Y0013591D01*
G37*
G36*
G01X0019073Y0012591D02*
G01X0018897Y0012416D01*
G01X0018897Y0012167D01*
G01X0019073Y0011991D01*
G01X0019321Y0011991D01*
G01X0019497Y0012167D01*
G01X0019497Y0012416D01*
G01X0019321Y0012591D01*
G01X0019073Y0012591D01*
G37*
G36*
G01X0018073Y0012591D02*
G01X0017897Y0012416D01*
G01X0017897Y0012167D01*
G01X0018073Y0011991D01*
G01X0018321Y0011991D01*
G01X0018497Y0012167D01*
G01X0018497Y0012416D01*
G01X0018321Y0012591D01*
G01X0018073Y0012591D01*
G37*
G36*
G01X0019073Y0011591D02*
G01X0018897Y0011416D01*
G01X0018897Y0011167D01*
G01X0019073Y0010991D01*
G01X0019321Y0010991D01*
G01X0019497Y0011167D01*
G01X0019497Y0011416D01*
G01X0019321Y0011591D01*
G01X0019073Y0011591D01*
G37*
G36*
G01X0018073Y0011591D02*
G01X0017897Y0011416D01*
G01X0017897Y0011167D01*
G01X0018073Y0010991D01*
G01X0018321Y0010991D01*
G01X0018497Y0011167D01*
G01X0018497Y0011416D01*
G01X0018321Y0011591D01*
G01X0018073Y0011591D01*
G37*
G36*
G01X0019073Y0010591D02*
G01X0018897Y0010416D01*
G01X0018897Y0010167D01*
G01X0019073Y0009991D01*
G01X0019321Y0009991D01*
G01X0019497Y0010167D01*
G01X0019497Y0010416D01*
G01X0019321Y0010591D01*
G01X0019073Y0010591D01*
G37*
G36*
G01X0018073Y0010591D02*
G01X0017897Y0010416D01*
G01X0017897Y0010167D01*
G01X0018073Y0009991D01*
G01X0018321Y0009991D01*
G01X0018497Y0010167D01*
G01X0018497Y0010416D01*
G01X0018321Y0010591D01*
G01X0018073Y0010591D01*
G37*
G36*
G01X0001956Y0004829D02*
G01X0002132Y0004653D01*
G01X0002380Y0004653D01*
G01X0002556Y0004829D01*
G01X0002556Y0005077D01*
G01X0002380Y0005253D01*
G01X0002132Y0005253D01*
G01X0001956Y0005077D01*
G01X0001956Y0004829D01*
G37*
G36*
G01X0002956Y0004829D02*
G01X0003132Y0004653D01*
G01X0003380Y0004653D01*
G01X0003556Y0004829D01*
G01X0003556Y0005077D01*
G01X0003380Y0005253D01*
G01X0003132Y0005253D01*
G01X0002956Y0005077D01*
G01X0002956Y0004829D01*
G37*
G36*
G01X0003956Y0004829D02*
G01X0004132Y0004653D01*
G01X0004380Y0004653D01*
G01X0004556Y0004829D01*
G01X0004556Y0005077D01*
G01X0004380Y0005253D01*
G01X0004132Y0005253D01*
G01X0003956Y0005077D01*
G01X0003956Y0004829D01*
G37*
G36*
G01X0004956Y0004829D02*
G01X0005132Y0004653D01*
G01X0005380Y0004653D01*
G01X0005556Y0004829D01*
G01X0005556Y0005077D01*
G01X0005380Y0005253D01*
G01X0005132Y0005253D01*
G01X0004956Y0005077D01*
G01X0004956Y0004829D01*
G37*
G36*
G01X0017806Y0017801D02*
G01X0017982Y0017977D01*
G01X0018231Y0017977D01*
G01X0018406Y0017801D01*
G01X0018406Y0017553D01*
G01X0018231Y0017377D01*
G01X0017982Y0017377D01*
G01X0017806Y0017553D01*
G01X0017806Y0017801D01*
G37*
G36*
G01X0018806Y0017801D02*
G01X0018982Y0017977D01*
G01X0019231Y0017977D01*
G01X0019406Y0017801D01*
G01X0019406Y0017553D01*
G01X0019231Y0017377D01*
G01X0018982Y0017377D01*
G01X0018806Y0017553D01*
G01X0018806Y0017801D01*
G37*
G36*
G01X0017810Y0019183D02*
G01X0017986Y0019359D01*
G01X0018234Y0019359D01*
G01X0018410Y0019183D01*
G01X0018410Y0018935D01*
G01X0018234Y0018759D01*
G01X0017986Y0018759D01*
G01X0017810Y0018935D01*
G01X0017810Y0019183D01*
G37*
G36*
G01X0018810Y0019183D02*
G01X0018986Y0019359D01*
G01X0019234Y0019359D01*
G01X0019410Y0019183D01*
G01X0019410Y0018935D01*
G01X0019234Y0018759D01*
G01X0018986Y0018759D01*
G01X0018810Y0018935D01*
G01X0018810Y0019183D01*
G37*
G36*
G01X0006724Y0002896D02*
G01X0006899Y0003072D01*
G01X0007148Y0003072D01*
G01X0007324Y0002896D01*
G01X0007324Y0002647D01*
G01X0007148Y0002472D01*
G01X0006899Y0002472D01*
G01X0006724Y0002647D01*
G01X0006724Y0002896D01*
G37*
G36*
G01X0007724Y0001896D02*
G01X0007899Y0002072D01*
G01X0008148Y0002072D01*
G01X0008324Y0001896D01*
G01X0008324Y0001647D01*
G01X0008148Y0001472D01*
G01X0007899Y0001472D01*
G01X0007724Y0001647D01*
G01X0007724Y0001896D01*
G37*
G36*
G01X0007724Y0002896D02*
G01X0007899Y0003072D01*
G01X0008148Y0003072D01*
G01X0008324Y0002896D01*
G01X0008324Y0002647D01*
G01X0008148Y0002472D01*
G01X0007899Y0002472D01*
G01X0007724Y0002647D01*
G01X0007724Y0002896D01*
G37*
G36*
G01X0008724Y0001896D02*
G01X0008899Y0002072D01*
G01X0009148Y0002072D01*
G01X0009324Y0001896D01*
G01X0009324Y0001647D01*
G01X0009148Y0001472D01*
G01X0008899Y0001472D01*
G01X0008724Y0001647D01*
G01X0008724Y0001896D01*
G37*
G36*
G01X0008724Y0002896D02*
G01X0008899Y0003072D01*
G01X0009148Y0003072D01*
G01X0009324Y0002896D01*
G01X0009324Y0002647D01*
G01X0009148Y0002472D01*
G01X0008899Y0002472D01*
G01X0008724Y0002647D01*
G01X0008724Y0002896D01*
G37*
G36*
G01X0009724Y0001896D02*
G01X0009899Y0002072D01*
G01X0010148Y0002072D01*
G01X0010324Y0001896D01*
G01X0010324Y0001647D01*
G01X0010148Y0001472D01*
G01X0009899Y0001472D01*
G01X0009724Y0001647D01*
G01X0009724Y0001896D01*
G37*
G36*
G01X0009724Y0002896D02*
G01X0009899Y0003072D01*
G01X0010148Y0003072D01*
G01X0010324Y0002896D01*
G01X0010324Y0002647D01*
G01X0010148Y0002472D01*
G01X0009899Y0002472D01*
G01X0009724Y0002647D01*
G01X0009724Y0002896D01*
G37*
G36*
G01X0010724Y0001896D02*
G01X0010899Y0002072D01*
G01X0011148Y0002072D01*
G01X0011324Y0001896D01*
G01X0011324Y0001647D01*
G01X0011148Y0001472D01*
G01X0010899Y0001472D01*
G01X0010724Y0001647D01*
G01X0010724Y0001896D01*
G37*
G36*
G01X0010724Y0002896D02*
G01X0010899Y0003072D01*
G01X0011148Y0003072D01*
G01X0011324Y0002896D01*
G01X0011324Y0002647D01*
G01X0011148Y0002472D01*
G01X0010899Y0002472D01*
G01X0010724Y0002647D01*
G01X0010724Y0002896D01*
G37*
G36*
G01X0011724Y0001896D02*
G01X0011899Y0002072D01*
G01X0012148Y0002072D01*
G01X0012324Y0001896D01*
G01X0012324Y0001647D01*
G01X0012148Y0001472D01*
G01X0011899Y0001472D01*
G01X0011724Y0001647D01*
G01X0011724Y0001896D01*
G37*
G36*
G01X0011724Y0002896D02*
G01X0011899Y0003072D01*
G01X0012148Y0003072D01*
G01X0012324Y0002896D01*
G01X0012324Y0002647D01*
G01X0012148Y0002472D01*
G01X0011899Y0002472D01*
G01X0011724Y0002647D01*
G01X0011724Y0002896D01*
G37*
G36*
G01X0012724Y0001896D02*
G01X0012899Y0002072D01*
G01X0013148Y0002072D01*
G01X0013324Y0001896D01*
G01X0013324Y0001647D01*
G01X0013148Y0001472D01*
G01X0012899Y0001472D01*
G01X0012724Y0001647D01*
G01X0012724Y0001896D01*
G37*
G36*
G01X0012724Y0002896D02*
G01X0012899Y0003072D01*
G01X0013148Y0003072D01*
G01X0013324Y0002896D01*
G01X0013324Y0002647D01*
G01X0013148Y0002472D01*
G01X0012899Y0002472D01*
G01X0012724Y0002647D01*
G01X0012724Y0002896D01*
G37*
G36*
G01X0013724Y0001896D02*
G01X0013899Y0002072D01*
G01X0014148Y0002072D01*
G01X0014324Y0001896D01*
G01X0014324Y0001647D01*
G01X0014148Y0001472D01*
G01X0013899Y0001472D01*
G01X0013724Y0001647D01*
G01X0013724Y0001896D01*
G37*
G36*
G01X0013724Y0002896D02*
G01X0013899Y0003072D01*
G01X0014148Y0003072D01*
G01X0014324Y0002896D01*
G01X0014324Y0002647D01*
G01X0014148Y0002472D01*
G01X0013899Y0002472D01*
G01X0013724Y0002647D01*
G01X0013724Y0002896D01*
G37*
G36*
G01X0014724Y0001896D02*
G01X0014899Y0002072D01*
G01X0015148Y0002072D01*
G01X0015324Y0001896D01*
G01X0015324Y0001647D01*
G01X0015148Y0001472D01*
G01X0014899Y0001472D01*
G01X0014724Y0001647D01*
G01X0014724Y0001896D01*
G37*
G36*
G01X0014724Y0002896D02*
G01X0014899Y0003072D01*
G01X0015148Y0003072D01*
G01X0015324Y0002896D01*
G01X0015324Y0002647D01*
G01X0015148Y0002472D01*
G01X0014899Y0002472D01*
G01X0014724Y0002647D01*
G01X0014724Y0002896D01*
G37*
G36*
G01X0015724Y0001896D02*
G01X0015899Y0002072D01*
G01X0016148Y0002072D01*
G01X0016324Y0001896D01*
G01X0016324Y0001647D01*
G01X0016148Y0001472D01*
G01X0015899Y0001472D01*
G01X0015724Y0001647D01*
G01X0015724Y0001896D01*
G37*
G36*
G01X0015724Y0002896D02*
G01X0015899Y0003072D01*
G01X0016148Y0003072D01*
G01X0016324Y0002896D01*
G01X0016324Y0002647D01*
G01X0016148Y0002472D01*
G01X0015899Y0002472D01*
G01X0015724Y0002647D01*
G01X0015724Y0002896D01*
G37*
G36*
G01X0007739Y0019128D02*
G01X0007915Y0019304D01*
G01X0008164Y0019304D01*
G01X0008339Y0019128D01*
G01X0008339Y0018880D01*
G01X0008164Y0018704D01*
G01X0007915Y0018704D01*
G01X0007739Y0018880D01*
G01X0007739Y0019128D01*
G37*
G36*
G01X0008739Y0019128D02*
G01X0008915Y0019304D01*
G01X0009164Y0019304D01*
G01X0009339Y0019128D01*
G01X0009339Y0018880D01*
G01X0009164Y0018704D01*
G01X0008915Y0018704D01*
G01X0008739Y0018880D01*
G01X0008739Y0019128D01*
G37*
G36*
G01X0009739Y0019128D02*
G01X0009915Y0019304D01*
G01X0010164Y0019304D01*
G01X0010339Y0019128D01*
G01X0010339Y0018880D01*
G01X0010164Y0018704D01*
G01X0009915Y0018704D01*
G01X0009739Y0018880D01*
G01X0009739Y0019128D01*
G37*
G36*
G01X0010739Y0019128D02*
G01X0010915Y0019304D01*
G01X0011164Y0019304D01*
G01X0011339Y0019128D01*
G01X0011339Y0018880D01*
G01X0011164Y0018704D01*
G01X0010915Y0018704D01*
G01X0010739Y0018880D01*
G01X0010739Y0019128D01*
G37*
G36*
G01X0011739Y0019128D02*
G01X0011915Y0019304D01*
G01X0012164Y0019304D01*
G01X0012339Y0019128D01*
G01X0012339Y0018880D01*
G01X0012164Y0018704D01*
G01X0011915Y0018704D01*
G01X0011739Y0018880D01*
G01X0011739Y0019128D01*
G37*
G36*
G01X0012739Y0019128D02*
G01X0012915Y0019304D01*
G01X0013164Y0019304D01*
G01X0013339Y0019128D01*
G01X0013339Y0018880D01*
G01X0013164Y0018704D01*
G01X0012915Y0018704D01*
G01X0012739Y0018880D01*
G01X0012739Y0019128D01*
G37*
G36*
G01X0013739Y0019128D02*
G01X0013915Y0019304D01*
G01X0014164Y0019304D01*
G01X0014339Y0019128D01*
G01X0014339Y0018880D01*
G01X0014164Y0018704D01*
G01X0013915Y0018704D01*
G01X0013739Y0018880D01*
G01X0013739Y0019128D01*
G37*
G54D10*
G01X0007039Y0019004D03*
G01X0007024Y0001772D03*
G01X0017110Y0019059D03*
G01X0017106Y0017677D03*
G01X0001256Y0004953D03*
G01X0019197Y0013291D03*
G01X0016110Y0016299D03*
G01X0017106Y0014913D03*
G54D11*
G01X0007980Y0016899D03*
G01X0007980Y0005649D03*
G54D12*
G01X0003157Y0014870D03*
G01X0001780Y0014870D03*
G01X0019480Y0003063D03*
G01X0019480Y0001685D03*
G01X0017996Y0003063D03*
G01X0017996Y0001685D03*
G54D13*
G01X0000500Y0020185D02*
G01X0000500Y0000500D01*
G01X0020185Y0020185D02*
G01X0000500Y0020185D01*
G01X0020185Y0000500D02*
G01X0020185Y0020185D01*
G01X0000500Y0000500D02*
G01X0020185Y0000500D01*
G54D14*
G01X0003423Y0015075D02*
G01X0003157Y0014870D01*
G01X0003453Y0015075D02*
G01X0003423Y0015075D01*
G01X0003453Y0015075D02*
G75*
G03X0003491Y0015084I0000000J0000090D01*
G01X0003941Y0015295D02*
G01X0003491Y0015084D01*
G01X0019276Y0003358D02*
G01X0019276Y0004165D01*
G01X0019276Y0003328D02*
G01X0019276Y0003358D01*
G01X0019480Y0003063D02*
G01X0019276Y0003328D01*
G01X0013784Y0007176D02*
G01X0014906Y0008598D01*
G01X0013706Y0007103D02*
G75*
G03X0013784Y0007176I-000195J0000289D01*
G01X0008600Y0003654D02*
G01X0013706Y0007103D01*
G01X0008534Y0003623D02*
G75*
G03X0008600Y0003654I-000061J0000220D01*
G01X0006875Y0003159D02*
G01X0008534Y0003623D01*
G01X0006875Y0003159D02*
G75*
G03X0006836Y0003135I0000024J-000087D01*
G01X0006660Y0002960D02*
G01X0006836Y0003135D01*
G01X0006660Y0002960D02*
G75*
G03X0006633Y0002896I0000064J-000064D01*
G01X0006633Y0001472D02*
G01X0006633Y0002896D01*
G01X0006633Y0001472D02*
G75*
G03X0006724Y0001381I0000090J0000000D01*
G01X0007324Y0001381D02*
G01X0006724Y0001381D01*
G01X0007324Y0001381D02*
G75*
G03X0007408Y0001439I0000000J0000090D01*
G01X0007815Y0002504D02*
G01X0007408Y0001439D01*
G01X0007835Y0002535D02*
G75*
G03X0007815Y0002504I0000064J-000063D01*
G01X0007836Y0002535D02*
G01X0007835Y0002535D01*
G01X0007857Y0002557D02*
G01X0007836Y0002535D01*
G01X0008024Y0002772D02*
G01X0007857Y0002557D01*
G01X0013856Y0007076D02*
G01X0014874Y0008190D01*
G01X0013773Y0007004D02*
G75*
G03X0013856Y0007076I-000262J0000388D01*
G01X0008667Y0003554D02*
G01X0013773Y0007004D01*
G01X0008579Y0003511D02*
G75*
G03X0008667Y0003554I-000107J0000331D01*
G01X0007835Y0003272D02*
G01X0008579Y0003511D01*
G01X0007835Y0003272D02*
G75*
G03X0007799Y0003257I0000064J-000200D01*
G01X0007281Y0002975D02*
G01X0007799Y0003257D01*
G01X0007281Y0002975D02*
G75*
G03X0007260Y0002960I0000043J-000079D01*
G01X0007260Y0002960D02*
G01X0007260Y0002960D01*
G01X0007239Y0002938D02*
G01X0007260Y0002960D01*
G01X0007024Y0002772D02*
G01X0007239Y0002938D01*
G01X0017036Y0008013D02*
G01X0016831Y0008476D01*
G01X0017022Y0007507D02*
G75*
G03X0017036Y0008013I-000524J0000268D01*
G01X0015769Y0005056D02*
G01X0017022Y0007507D01*
G01X0015769Y0005056D02*
G75*
G03X0015746Y0004923I0000203J-000104D01*
G01X0015989Y0003083D02*
G01X0015746Y0004923D01*
G01X0015990Y0003072D02*
G75*
G03X0015989Y0003083I-000090J0000000D01*
G01X0015990Y0003042D02*
G01X0015990Y0003072D01*
G01X0016024Y0002772D02*
G01X0015990Y0003042D01*
G01X0015804Y0009829D02*
G01X0016120Y0007929D01*
G01X0015804Y0009829D02*
G75*
G03X0015735Y0010037I-000699J-000116D01*
G01X0011244Y0018745D02*
G01X0015735Y0010037D01*
G01X0011244Y0018745D02*
G75*
G03X0011228Y0018767I-000080J-000041D01*
G01X0011227Y0018768D02*
G01X0011228Y0018767D01*
G01X0011206Y0018789D02*
G01X0011227Y0018768D01*
G01X0011039Y0019004D02*
G01X0011206Y0018789D01*
G01X0016292Y0008238D02*
G01X0016497Y0007775D01*
G01X0016256Y0008349D02*
G75*
G03X0016292Y0008238I0000575J0000127D01*
G01X0015914Y0009892D02*
G01X0016256Y0008349D01*
G01X0015914Y0009892D02*
G75*
G03X0015864Y0010046I-000809J-000179D01*
G01X0012081Y0018668D02*
G01X0015864Y0010046D01*
G01X0012073Y0018704D02*
G75*
G03X0012081Y0018668I0000090J0000000D01*
G01X0012073Y0018734D02*
G01X0012073Y0018704D01*
G01X0012039Y0019004D02*
G01X0012073Y0018734D01*
G01X0016598Y0007570D02*
G01X0016141Y0007345D01*
G01X0016598Y0007570D02*
G75*
G03X0016676Y0007916I-000101J0000204D01*
G01X0016463Y0008186D02*
G01X0016676Y0007916D01*
G01X0016373Y0008375D02*
G75*
G03X0016463Y0008186I0000457J0000101D01*
G01X0016032Y0009918D02*
G01X0016373Y0008375D01*
G01X0016032Y0009918D02*
G75*
G03X0015977Y0010086I-000927J-000205D01*
G01X0012771Y0017572D02*
G01X0015977Y0010086D01*
G01X0012759Y0017717D02*
G75*
G03X0012771Y0017572I0000221J-000056D01*
G01X0013003Y0018682D02*
G01X0012759Y0017717D01*
G01X0013003Y0018682D02*
G75*
G03X0013005Y0018704I-000087J0000022D01*
G01X0013005Y0018734D02*
G01X0013005Y0018704D01*
G01X0013039Y0019004D02*
G01X0013005Y0018734D01*
G01X0019771Y0009982D02*
G01X0018357Y0007895D01*
G01X0019771Y0009982D02*
G75*
G03X0019827Y0010156I-000274J0000185D01*
G01X0019977Y0014771D02*
G01X0019827Y0010156D01*
G01X0019977Y0014771D02*
G75*
G03X0019977Y0014789I-000571J0000019D01*
G01X0019977Y0015038D02*
G01X0019977Y0014789D01*
G01X0019977Y0015038D02*
G75*
G03X0019975Y0015087I-000571J0000000D01*
G01X0019620Y0019201D02*
G01X0019975Y0015087D01*
G01X0019620Y0019201D02*
G75*
G03X0019559Y0019332I-000210J-000018D01*
G01X0019383Y0019508D02*
G01X0019559Y0019332D01*
G01X0019383Y0019508D02*
G75*
G03X0019248Y0019569I-000149J-000149D01*
G01X0017432Y0019689D02*
G01X0019248Y0019569D01*
G01X0017432Y0019689D02*
G75*
G03X0017410Y0019690I-000022J-000330D01*
G01X0016810Y0019690D02*
G01X0017410Y0019690D01*
G01X0016810Y0019690D02*
G75*
G03X0016724Y0019678I0000000J-000331D01*
G01X0014363Y0019041D02*
G01X0016724Y0019678D01*
G01X0014339Y0019038D02*
G75*
G03X0014363Y0019041I0000000J0000090D01*
G01X0014309Y0019038D02*
G01X0014339Y0019038D01*
G01X0014039Y0019004D02*
G01X0014309Y0019038D01*
G01X0016094Y0006997D02*
G01X0015614Y0006256D01*
G01X0016145Y0007052D02*
G75*
G03X0016094Y0006997I0000141J-000179D01*
G01X0016713Y0007501D02*
G01X0016145Y0007052D01*
G01X0016713Y0007501D02*
G75*
G03X0016771Y0007990I-000216J0000273D01*
G01X0016557Y0008261D02*
G01X0016771Y0007990D01*
G01X0016487Y0008535D02*
G75*
G03X0016557Y0008261I0000343J-000058D01*
G01X0016743Y0010035D02*
G01X0016487Y0008535D01*
G01X0016753Y0010082D02*
G75*
G03X0016743Y0010035I0000451J-000125D01*
G01X0017694Y0013472D02*
G01X0016753Y0010082D01*
G01X0017719Y0013528D02*
G75*
G03X0017694Y0013472I0000178J-000112D01*
G01X0018483Y0014741D02*
G01X0017719Y0013528D01*
G01X0018483Y0014741D02*
G75*
G03X0018496Y0014789I-000076J0000048D01*
G01X0018496Y0015038D02*
G01X0018496Y0014789D01*
G01X0018496Y0015038D02*
G75*
G03X0018480Y0015090I-000090J0000000D01*
G01X0017737Y0016122D02*
G01X0018480Y0015090D01*
G01X0017737Y0016122D02*
G01X0017737Y0016122D01*
G01X0017484Y0016476D02*
G01X0017737Y0016122D01*
G01X0017484Y0016476D02*
G75*
G03X0017478Y0016483I-000073J-000053D01*
G01X0016739Y0017317D02*
G01X0017478Y0016483D01*
G01X0016716Y0017377D02*
G75*
G03X0016739Y0017317I0000090J0000000D01*
G01X0016716Y0017977D02*
G01X0016716Y0017377D01*
G01X0016716Y0017977D02*
G01X0016716Y0017977D01*
G01X0016720Y0019359D02*
G01X0016716Y0017977D01*
G01X0016810Y0019449D02*
G75*
G03X0016720Y0019359I0000000J-000090D01*
G01X0017410Y0019449D02*
G01X0016810Y0019449D01*
G01X0017498Y0019378D02*
G75*
G03X0017410Y0019449I-000088J-000019D01*
G01X0017605Y0018890D02*
G01X0017498Y0019378D01*
G01X0017605Y0018890D02*
G75*
G03X0017606Y0018883I0000206J0000045D01*
G01X0017775Y0018211D02*
G01X0017606Y0018883D01*
G01X0017775Y0018211D02*
G75*
G03X0017930Y0018084I0000164J0000041D01*
G01X0018236Y0018067D02*
G01X0017930Y0018084D01*
G01X0018294Y0018041D02*
G75*
G03X0018236Y0018067I-000064J-000064D01*
G01X0018470Y0017865D02*
G01X0018294Y0018041D01*
G01X0018488Y0017841D02*
G75*
G03X0018470Y0017865I-000081J-000039D01*
G01X0019067Y0016638D02*
G01X0018488Y0017841D01*
G01X0019076Y0016599D02*
G75*
G03X0019067Y0016638I-000090J0000000D01*
G01X0019076Y0016569D02*
G01X0019076Y0016599D01*
G01X0019110Y0016299D02*
G01X0019076Y0016569D01*
G01X0015177Y0005440D02*
G01X0015614Y0006256D01*
G01X0015177Y0005440D02*
G75*
G03X0015149Y0005369I0000307J-000164D01*
G01X0015033Y0004956D02*
G01X0015149Y0005369D01*
G01X0014965Y0004812D02*
G75*
G03X0015033Y0004956I-000383J0000270D01*
G01X0013650Y0002948D02*
G01X0014965Y0004812D01*
G01X0013650Y0002948D02*
G75*
G03X0013633Y0002896I0000074J-000052D01*
G01X0013633Y0002647D02*
G01X0013633Y0002896D01*
G01X0013633Y0002647D02*
G75*
G03X0013638Y0002620I0000090J0000000D01*
G01X0013836Y0002008D02*
G01X0013638Y0002620D01*
G01X0013857Y0001987D02*
G01X0013836Y0002008D01*
G01X0014024Y0001772D02*
G01X0013857Y0001987D01*
G01X0016475Y0006746D02*
G01X0015484Y0005276D01*
G01X0016475Y0006746D02*
G75*
G03X0016487Y0006766I-000189J0000127D01*
G01X0016910Y0007553D02*
G01X0016487Y0006766D01*
G01X0016910Y0007553D02*
G75*
G03X0016865Y0008065I-000413J0000222D01*
G01X0016652Y0008335D02*
G01X0016865Y0008065D01*
G01X0016606Y0008515D02*
G75*
G03X0016652Y0008335I0000225J-000038D01*
G01X0016861Y0010015D02*
G01X0016606Y0008515D01*
G01X0016869Y0010050D02*
G75*
G03X0016861Y0010015I0000336J-000093D01*
G01X0017810Y0013440D02*
G01X0016869Y0010050D01*
G01X0017821Y0013464D02*
G75*
G03X0017810Y0013440I0000076J-000048D01*
G01X0018584Y0014677D02*
G01X0017821Y0013464D01*
G01X0018584Y0014677D02*
G75*
G03X0018617Y0014789I-000178J0000112D01*
G01X0018617Y0015038D02*
G01X0018617Y0014789D01*
G01X0018617Y0015038D02*
G75*
G03X0018607Y0015100I-000210J0000000D01*
G01X0018321Y0016026D02*
G01X0018607Y0015100D01*
G01X0018321Y0016026D02*
G75*
G03X0018299Y0016063I-000086J-000027D01*
G01X0018298Y0016063D02*
G01X0018299Y0016063D01*
G01X0018277Y0016084D02*
G01X0018298Y0016063D01*
G01X0018110Y0016299D02*
G01X0018277Y0016084D01*
G01X0015314Y0004955D02*
G01X0015484Y0005276D01*
G01X0015314Y0004955D02*
G75*
G03X0015299Y0004920I0000201J-000107D01*
G01X0014638Y0002924D02*
G01X0015299Y0004920D01*
G01X0014638Y0002924D02*
G75*
G03X0014635Y0002911I0000086J-000028D01*
G01X0014412Y0001632D02*
G01X0014635Y0002911D01*
G01X0014387Y0001584D02*
G75*
G03X0014412Y0001632I-000064J0000064D01*
G01X0014212Y0001408D02*
G01X0014387Y0001584D01*
G01X0014148Y0001381D02*
G75*
G03X0014212Y0001408I0000000J0000090D01*
G01X0013899Y0001381D02*
G01X0014148Y0001381D01*
G01X0013873Y0001385D02*
G75*
G03X0013899Y0001381I0000026J0000086D01*
G01X0013297Y0001561D02*
G01X0013873Y0001385D01*
G01X0013260Y0001583D02*
G75*
G03X0013297Y0001561I0000063J0000064D01*
G01X0013260Y0001584D02*
G01X0013260Y0001583D01*
G01X0013239Y0001605D02*
G01X0013260Y0001584D01*
G01X0013024Y0001772D02*
G01X0013239Y0001605D01*
G01X0013628Y0004392D02*
G01X0014421Y0005451D01*
G01X0013529Y0004302D02*
G75*
G03X0013628Y0004392I-000180J0000298D01*
G01X0011791Y0003252D02*
G01X0013529Y0004302D01*
G01X0011791Y0003252D02*
G75*
G03X0011751Y0003220I0000109J-000180D01*
G01X0011575Y0003045D02*
G01X0011751Y0003220D01*
G01X0011575Y0003045D02*
G75*
G03X0011524Y0002963I0000149J-000149D01*
G01X0011409Y0002619D02*
G01X0011524Y0002963D01*
G01X0011387Y0002584D02*
G75*
G03X0011409Y0002619I-000064J0000064D01*
G01X0011212Y0002408D02*
G01X0011387Y0002584D01*
G01X0011186Y0002390D02*
G75*
G03X0011212Y0002408I-000038J0000082D01*
G01X0010260Y0001960D02*
G01X0011186Y0002390D01*
G01X0010239Y0001938D02*
G01X0010260Y0001960D01*
G01X0010024Y0001772D02*
G01X0010239Y0001938D01*
G01X0009056Y0003261D02*
G01X0013232Y0005280D01*
G01X0009056Y0003261D02*
G75*
G03X0009046Y0003256I0000092J-000189D01*
G01X0008856Y0003151D02*
G01X0009046Y0003256D01*
G01X0008856Y0003151D02*
G75*
G03X0008836Y0003135I0000044J-000079D01*
G01X0008660Y0002960D02*
G01X0008836Y0003135D01*
G01X0008660Y0002960D02*
G75*
G03X0008633Y0002896I0000064J-000064D01*
G01X0008633Y0002647D02*
G01X0008633Y0002896D01*
G01X0008633Y0002647D02*
G75*
G03X0008638Y0002620I0000090J0000000D01*
G01X0008836Y0002008D02*
G01X0008638Y0002620D01*
G01X0008857Y0001987D02*
G01X0008836Y0002008D01*
G01X0009024Y0001772D02*
G01X0008857Y0001987D01*
G01X0011587Y0010260D02*
G01X0013715Y0007682D01*
G01X0017834Y0007732D02*
G01X0017415Y0006057D01*
G01X0017878Y0007820D02*
G75*
G03X0017834Y0007732I0000178J-000143D01*
G01X0019661Y0010035D02*
G01X0017878Y0007820D01*
G01X0019661Y0010035D02*
G75*
G03X0019707Y0010160I-000164J0000132D01*
G01X0019857Y0014775D02*
G01X0019707Y0010160D01*
G01X0019857Y0014775D02*
G75*
G03X0019857Y0014789I-000451J0000015D01*
G01X0019857Y0015038D02*
G01X0019857Y0014789D01*
G01X0019857Y0015038D02*
G75*
G03X0019855Y0015076I-000451J0000000D01*
G01X0019500Y0019191D02*
G01X0019855Y0015076D01*
G01X0019500Y0019191D02*
G75*
G03X0019474Y0019247I-000090J-000008D01*
G01X0019298Y0019423D02*
G01X0019474Y0019247D01*
G01X0019298Y0019423D02*
G75*
G03X0019234Y0019449I-000064J-000064D01*
G01X0018986Y0019449D02*
G01X0019234Y0019449D01*
G01X0018986Y0019449D02*
G75*
G03X0018960Y0019445I0000000J-000090D01*
G01X0018384Y0019270D02*
G01X0018960Y0019445D01*
G01X0018384Y0019270D02*
G75*
G03X0018347Y0019247I0000026J-000086D01*
G01X0018346Y0019247D02*
G01X0018347Y0019247D01*
G01X0018325Y0019226D02*
G01X0018346Y0019247D01*
G01X0018110Y0019059D02*
G01X0018325Y0019226D01*
G01X0017156Y0007513D02*
G01X0016663Y0006270D01*
G01X0017156Y0007513D02*
G75*
G03X0017202Y0007851I-000659J0000262D01*
G01X0016978Y0009932D02*
G01X0017202Y0007851D01*
G01X0016989Y0010030D02*
G75*
G03X0016978Y0009932I0000216J-000074D01*
G01X0017811Y0012445D02*
G01X0016989Y0010030D01*
G01X0017833Y0012479D02*
G75*
G03X0017811Y0012445I0000064J-000064D01*
G01X0018009Y0012655D02*
G01X0017833Y0012479D01*
G01X0018020Y0012665D02*
G75*
G03X0018009Y0012655I0000053J-000073D01*
G01X0018374Y0012918D02*
G01X0018020Y0012665D01*
G01X0018374Y0012918D02*
G75*
G03X0018385Y0012928I-000053J0000073D01*
G01X0018561Y0013103D02*
G01X0018385Y0012928D01*
G01X0018561Y0013103D02*
G75*
G03X0018578Y0013129I-000064J0000064D01*
G01X0018815Y0013630D02*
G01X0018578Y0013129D01*
G01X0018824Y0013645D02*
G75*
G03X0018815Y0013630I0000073J-000054D01*
G01X0019576Y0014664D02*
G01X0018824Y0013645D01*
G01X0019576Y0014664D02*
G75*
G03X0019617Y0014789I-000169J0000125D01*
G01X0019617Y0015038D02*
G01X0019617Y0014789D01*
G01X0019617Y0015038D02*
G75*
G03X0019565Y0015176I-000210J0000000D01*
G01X0018742Y0016116D02*
G01X0019565Y0015176D01*
G01X0018724Y0016147D02*
G75*
G03X0018742Y0016116I0000086J0000028D01*
G01X0018316Y0017405D02*
G01X0018724Y0016147D01*
G01X0018316Y0017405D02*
G75*
G03X0018295Y0017441I-000086J-000028D01*
G01X0018294Y0017441D02*
G01X0018295Y0017441D01*
G01X0018273Y0017462D02*
G01X0018294Y0017441D01*
G01X0018106Y0017677D02*
G01X0018273Y0017462D01*
G01X0010260Y0002960D02*
G01X0013349Y0004600D01*
G01X0010239Y0002938D02*
G01X0010260Y0002960D01*
G01X0010024Y0002772D02*
G01X0010239Y0002938D01*
G01X0009111Y0003154D02*
G01X0013165Y0004949D01*
G01X0009111Y0003154D02*
G75*
G03X0009058Y0003072I0000036J-000082D01*
G01X0009058Y0003042D02*
G01X0009058Y0003072D01*
G01X0009024Y0002772D02*
G01X0009058Y0003042D01*
G01X0015061Y0003094D02*
G01X0015516Y0004848D01*
G01X0015061Y0003094D02*
G75*
G03X0015058Y0003072I0000087J-000023D01*
G01X0015058Y0003042D02*
G01X0015058Y0003072D01*
G01X0015024Y0002772D02*
G01X0015058Y0003042D01*
G01X0015452Y0009734D02*
G01X0015539Y0008319D01*
G01X0015452Y0009734D02*
G75*
G03X0015396Y0009904I-000348J-000021D01*
G01X0012329Y0014580D02*
G01X0015396Y0009904D01*
G01X0012321Y0014593D02*
G75*
G03X0012329Y0014580I0000199J0000111D01*
G01X0011203Y0016589D02*
G01X0012321Y0014593D01*
G01X0011201Y0016592D02*
G01X0011203Y0016589D01*
G01X0010084Y0018661D02*
G01X0011201Y0016592D01*
G01X0010073Y0018704D02*
G75*
G03X0010084Y0018661I0000090J0000000D01*
G01X0010073Y0018734D02*
G01X0010073Y0018704D01*
G01X0010039Y0019004D02*
G01X0010073Y0018734D01*
G01X0013725Y0005624D02*
G01X0014732Y0006508D01*
G01X0013610Y0005570D02*
G75*
G03X0013725Y0005624I-000036J0000225D01*
G01X0013197Y0005505D02*
G01X0013610Y0005570D01*
G01X0013197Y0005505D02*
G75*
G03X0013128Y0005482I0000036J-000225D01*
G01X0008997Y0003366D02*
G01X0013128Y0005482D01*
G01X0008997Y0003366D02*
G75*
G03X0008988Y0003361I0000151J-000294D01*
G01X0008798Y0003256D02*
G01X0008988Y0003361D01*
G01X0008798Y0003256D02*
G75*
G03X0008751Y0003220I0000102J-000184D01*
G01X0008575Y0003045D02*
G01X0008751Y0003220D01*
G01X0008575Y0003045D02*
G75*
G03X0008524Y0002961I0000149J-000149D01*
G01X0008211Y0002008D02*
G01X0008524Y0002961D01*
G01X0008190Y0001987D02*
G01X0008211Y0002008D01*
G01X0008024Y0001772D02*
G01X0008190Y0001987D01*
G01X0008735Y0006986D02*
G01X0009413Y0008795D01*
G01X0008735Y0006986D02*
G75*
G03X0008721Y0006906I0000214J-000080D01*
G01X0008721Y0006436D02*
G01X0008721Y0006906D01*
G01X0008721Y0006406D02*
G01X0008721Y0006436D01*
G01X0007980Y0005649D02*
G01X0008721Y0006406D01*
G01X0008039Y0010071D02*
G01X0009413Y0008795D01*
G01X0008723Y0003447D02*
G01X0014788Y0007279D01*
G01X0008616Y0003397D02*
G75*
G03X0008723Y0003447I-000143J0000446D01*
G01X0007872Y0003158D02*
G01X0008616Y0003397D01*
G01X0007872Y0003158D02*
G75*
G03X0007836Y0003135I0000028J-000086D01*
G01X0007660Y0002960D02*
G01X0007836Y0003135D01*
G01X0007660Y0002960D02*
G75*
G03X0007636Y0002919I0000064J-000064D01*
G01X0007411Y0002049D02*
G01X0007636Y0002919D01*
G01X0007324Y0001981D02*
G75*
G03X0007411Y0002049I0000000J0000090D01*
G01X0007294Y0001981D02*
G01X0007324Y0001981D01*
G01X0007024Y0001772D02*
G01X0007294Y0001981D01*
G01X0015088Y0008112D02*
G01X0014788Y0007279D01*
G01X0015088Y0008112D02*
G75*
G03X0015101Y0008172I-000214J0000077D01*
G01X0015133Y0008581D02*
G01X0015101Y0008172D01*
G01X0015133Y0008581D02*
G75*
G03X0015133Y0008604I-000227J0000018D01*
G01X0015105Y0009713D02*
G01X0015133Y0008604D01*
G01X0017731Y0003268D02*
G01X0017996Y0003063D01*
G01X0017701Y0003268D02*
G01X0017731Y0003268D01*
G01X0017637Y0003294D02*
G75*
G03X0017701Y0003268I0000064J0000064D01*
G01X0015972Y0004953D02*
G01X0017637Y0003294D01*
G01X0014234Y0005582D02*
G01X0014460Y0005904D01*
G01X0014234Y0005582D02*
G75*
G03X0014228Y0005573I0000187J-000131D01*
G01X0013542Y0004479D02*
G01X0014228Y0005573D01*
G01X0013467Y0004405D02*
G75*
G03X0013542Y0004479I-000118J0000195D01*
G01X0011728Y0003355D02*
G01X0013467Y0004405D01*
G01X0011728Y0003355D02*
G75*
G03X0011685Y0003323I0000171J-000283D01*
G01X0011265Y0002964D02*
G01X0011685Y0003323D01*
G01X0011265Y0002964D02*
G75*
G03X0011260Y0002960I0000059J-000069D01*
G01X0011260Y0002960D02*
G01X0011260Y0002960D01*
G01X0011239Y0002938D02*
G01X0011260Y0002960D01*
G01X0011024Y0002772D02*
G01X0011239Y0002938D01*
G01X0018375Y0003393D02*
G01X0017720Y0004984D01*
G01X0018382Y0003358D02*
G75*
G03X0018375Y0003393I-000090J0000000D01*
G01X0018382Y0002768D02*
G01X0018382Y0003358D01*
G01X0018310Y0002680D02*
G75*
G03X0018382Y0002768I-000019J0000088D01*
G01X0015881Y0002160D02*
G01X0018310Y0002680D01*
G01X0015881Y0002160D02*
G75*
G03X0015836Y0002135I0000019J-000088D01*
G01X0015660Y0001960D02*
G01X0015836Y0002135D01*
G01X0015660Y0001960D02*
G75*
G03X0015650Y0001948I0000064J-000064D01*
G01X0015397Y0001595D02*
G01X0015650Y0001948D01*
G01X0015387Y0001584D02*
G75*
G03X0015397Y0001595I-000064J0000064D01*
G01X0015212Y0001408D02*
G01X0015387Y0001584D01*
G01X0015159Y0001382D02*
G75*
G03X0015212Y0001408I-000011J0000090D01*
G01X0014173Y0001263D02*
G01X0015159Y0001382D01*
G01X0014148Y0001261D02*
G75*
G03X0014173Y0001263I0000000J0000210D01*
G01X0013899Y0001261D02*
G01X0014148Y0001261D01*
G01X0013887Y0001262D02*
G75*
G03X0013899Y0001261I0000013J0000210D01*
G01X0011894Y0001382D02*
G01X0013887Y0001262D01*
G01X0011836Y0001408D02*
G75*
G03X0011894Y0001382I0000064J0000064D01*
G01X0011660Y0001584D02*
G01X0011836Y0001408D01*
G01X0011633Y0001647D02*
G75*
G03X0011660Y0001584I0000090J0000000D01*
G01X0011633Y0001896D02*
G01X0011633Y0001647D01*
G01X0011637Y0001922D02*
G75*
G03X0011633Y0001896I0000086J-000026D01*
G01X0011813Y0002498D02*
G01X0011637Y0001922D01*
G01X0011835Y0002535D02*
G75*
G03X0011813Y0002498I0000064J-000063D01*
G01X0011836Y0002535D02*
G01X0011835Y0002535D01*
G01X0011857Y0002557D02*
G01X0011836Y0002535D01*
G01X0012024Y0002772D02*
G01X0011857Y0002557D01*
G01X0015100Y0006401D02*
G01X0015354Y0006709D01*
G01X0015100Y0006401D02*
G75*
G03X0015052Y0006300I0000176J-000145D01*
G01X0014806Y0005038D02*
G01X0015052Y0006300D01*
G01X0014760Y0004939D02*
G75*
G03X0014806Y0005038I-000178J0000143D01*
G01X0013218Y0003015D02*
G01X0014760Y0004939D01*
G01X0013212Y0003008D02*
G75*
G03X0013218Y0003015I-000064J0000063D01*
G01X0013212Y0003008D02*
G01X0013212Y0003008D01*
G01X0013190Y0002987D02*
G01X0013212Y0003008D01*
G01X0013024Y0002772D02*
G01X0013190Y0002987D01*
G01X0015806Y0006132D02*
G01X0016286Y0006874D01*
G01X0015801Y0006125D02*
G75*
G03X0015806Y0006132I-000187J0000131D01*
G01X0015298Y0005406D02*
G01X0015801Y0006125D01*
G01X0015298Y0005406D02*
G75*
G03X0015265Y0005337I0000187J-000131D01*
G01X0015149Y0004923D02*
G01X0015265Y0005337D01*
G01X0015110Y0004822D02*
G75*
G03X0015149Y0004923I-000528J0000260D01*
G01X0014229Y0003032D02*
G01X0015110Y0004822D01*
G01X0014212Y0003008D02*
G75*
G03X0014229Y0003032I-000064J0000063D01*
G01X0014212Y0003008D02*
G01X0014212Y0003008D01*
G01X0014190Y0002987D02*
G01X0014212Y0003008D01*
G01X0014024Y0002772D02*
G01X0014190Y0002987D01*
G01X0017530Y0010068D02*
G01X0017205Y0009957D01*
G01X0017530Y0010068D02*
G75*
G03X0017655Y0010171I-000074J0000216D01*
G01X0017818Y0010460D02*
G01X0017655Y0010171D01*
G01X0017833Y0010479D02*
G75*
G03X0017818Y0010460I0000064J-000064D01*
G01X0018009Y0010655D02*
G01X0017833Y0010479D01*
G01X0018035Y0010673D02*
G75*
G03X0018009Y0010655I0000038J-000082D01*
G01X0018960Y0011103D02*
G01X0018035Y0010673D01*
G01X0018982Y0011125D02*
G01X0018960Y0011103D01*
G01X0019197Y0011291D02*
G01X0018982Y0011125D01*
G01X0019859Y0003393D02*
G01X0018055Y0007677D01*
G01X0019866Y0003358D02*
G75*
G03X0019859Y0003393I-000090J0000000D01*
G01X0019866Y0001390D02*
G01X0019866Y0003358D01*
G01X0019778Y0001300D02*
G75*
G03X0019866Y0001390I-000003J0000090D01*
G01X0014157Y0001141D02*
G01X0019778Y0001300D01*
G01X0014148Y0001141D02*
G75*
G03X0014157Y0001141I0000000J0000331D01*
G01X0013899Y0001141D02*
G01X0014148Y0001141D01*
G01X0013894Y0001141D02*
G75*
G03X0013899Y0001141I0000006J0000331D01*
G01X0006720Y0001261D02*
G01X0013894Y0001141D01*
G01X0006545Y0001360D02*
G75*
G03X0006720Y0001261I0000178J0000112D01*
G01X0004457Y0004701D02*
G01X0006545Y0001360D01*
G01X0004457Y0004701D02*
G75*
G03X0004444Y0004716I-000076J-000048D01*
G01X0004444Y0004717D02*
G01X0004444Y0004716D01*
G01X0004423Y0004738D02*
G01X0004444Y0004717D01*
G01X0004256Y0004953D02*
G01X0004423Y0004738D01*
G01X0012042Y0009383D02*
G01X0013511Y0007392D01*
G01X0012042Y0009383D02*
G75*
G03X0011906Y0009471I-000184J-000135D01*
G01X0008087Y0010294D02*
G01X0011906Y0009471D01*
G01X0008087Y0010294D02*
G75*
G03X0007837Y0010176I-000048J-000223D01*
G01X0005300Y0005294D02*
G01X0007837Y0010176D01*
G01X0005300Y0005294D02*
G75*
G03X0005290Y0005253I0000080J-000042D01*
G01X0005290Y0005223D02*
G01X0005290Y0005253D01*
G01X0005256Y0004953D02*
G01X0005290Y0005223D01*
G01X0017998Y0010042D02*
G01X0017343Y0009079D01*
G01X0018009Y0010055D02*
G75*
G03X0017998Y0010042I0000064J-000063D01*
G01X0018009Y0010055D02*
G01X0018009Y0010055D01*
G01X0018030Y0010076D02*
G01X0018009Y0010055D01*
G01X0018197Y0010291D02*
G01X0018030Y0010076D01*
G01X0017811Y0011442D02*
G01X0017457Y0010283D01*
G01X0017811Y0011443D02*
G01X0017811Y0011442D01*
G01X0018009Y0012055D02*
G01X0017811Y0011443D01*
G01X0018030Y0012076D02*
G01X0018009Y0012055D01*
G01X0018197Y0012291D02*
G01X0018030Y0012076D01*
G01X0015530Y0006563D02*
G01X0015276Y0006256D01*
G01X0015530Y0006563D02*
G75*
G03X0015578Y0006666I-000176J0000145D01*
G01X0015881Y0008254D02*
G01X0015578Y0006666D01*
G01X0015881Y0008254D02*
G75*
G03X0015884Y0008366I-000342J0000065D01*
G01X0015688Y0009793D02*
G01X0015884Y0008366D01*
G01X0015688Y0009793D02*
G75*
G03X0015609Y0010016I-000583J-000080D01*
G01X0012715Y0014822D02*
G01X0015609Y0010016D01*
G01X0012715Y0014822D02*
G75*
G03X0012706Y0014835I-000195J-000118D01*
G01X0011402Y0016701D02*
G01X0012706Y0014835D01*
G01X0012239Y0001938D02*
G01X0012024Y0001772D01*
G01X0012260Y0001960D02*
G01X0012239Y0001938D01*
G01X0013186Y0002390D02*
G01X0012260Y0001960D01*
G01X0013186Y0002390D02*
G75*
G03X0013212Y0002408I-000038J0000082D01*
G01X0013387Y0002584D02*
G01X0013212Y0002408D01*
G01X0013387Y0002584D02*
G75*
G03X0013409Y0002619I-000064J0000064D01*
G01X0013524Y0002963D02*
G01X0013409Y0002619D01*
G01X0013552Y0003017D02*
G75*
G03X0013524Y0002963I0000172J-000121D01*
G01X0014867Y0004881D02*
G01X0013552Y0003017D01*
G01X0014867Y0004881D02*
G75*
G03X0014918Y0004988I-000285J0000201D01*
G01X0015033Y0005402D02*
G01X0014918Y0004988D01*
G01X0015034Y0005403D02*
G01X0015033Y0005402D01*
G01X0015276Y0006256D02*
G01X0015034Y0005403D01*
G01X0013662Y0004252D02*
G01X0014582Y0005082D01*
G01X0013591Y0004199D02*
G75*
G03X0013662Y0004252I-000242J0000401D01*
G01X0011853Y0003149D02*
G01X0013591Y0004199D01*
G01X0011853Y0003149D02*
G75*
G03X0011836Y0003135I0000047J-000077D01*
G01X0011660Y0002960D02*
G01X0011836Y0003135D01*
G01X0011660Y0002960D02*
G75*
G03X0011638Y0002924I0000064J-000064D01*
G01X0011523Y0002581D02*
G01X0011638Y0002924D01*
G01X0011508Y0002546D02*
G75*
G03X0011523Y0002581I-000184J0000102D01*
G01X0011211Y0002008D02*
G01X0011508Y0002546D01*
G01X0011190Y0001987D02*
G01X0011211Y0002008D01*
G01X0011024Y0001772D02*
G01X0011190Y0001987D01*
G01X0014941Y0006351D02*
G01X0014582Y0005082D01*
G01X0014956Y0006394D02*
G75*
G03X0014941Y0006351I0000320J-000138D01*
G01X0015749Y0008228D02*
G01X0014956Y0006394D01*
G01X0015749Y0008228D02*
G75*
G03X0015765Y0008350I-000209J0000090D01*
G01X0015569Y0009776D02*
G01X0015765Y0008350D01*
G01X0015569Y0009776D02*
G75*
G03X0015501Y0009962I-000464J-000064D01*
G01X0012520Y0014705D02*
G01X0015501Y0009962D01*
G01X0018388Y0013482D02*
G01X0018197Y0013291D01*
G01X0018409Y0013503D02*
G01X0018388Y0013482D01*
G01X0019474Y0014730D02*
G01X0018409Y0013503D01*
G01X0019474Y0014730D02*
G75*
G03X0019496Y0014789I-000068J0000059D01*
G01X0019496Y0015038D02*
G01X0019496Y0014789D01*
G01X0019496Y0015038D02*
G75*
G03X0019474Y0015097I-000090J0000000D01*
G01X0018652Y0016036D02*
G01X0019474Y0015097D01*
G01X0018611Y0016108D02*
G75*
G03X0018652Y0016036I0000200J0000067D01*
G01X0018496Y0016452D02*
G01X0018611Y0016108D01*
G01X0018496Y0016452D02*
G75*
G03X0018474Y0016487I-000086J-000029D01*
G01X0018298Y0016663D02*
G01X0018474Y0016487D01*
G01X0018298Y0016663D02*
G75*
G03X0018285Y0016674I-000064J-000064D01*
G01X0017356Y0017302D02*
G01X0018285Y0016674D01*
G01X0017316Y0017377D02*
G75*
G03X0017356Y0017302I0000090J0000000D01*
G01X0017316Y0017407D02*
G01X0017316Y0017377D01*
G01X0017106Y0017677D02*
G01X0017316Y0017407D01*
G01X0017108Y0017947D02*
G01X0017106Y0017677D01*
G01X0017108Y0017977D02*
G01X0017108Y0017947D01*
G01X0017108Y0018759D02*
G01X0017108Y0017977D01*
G01X0017108Y0018789D02*
G01X0017108Y0018759D01*
G01X0017110Y0019059D02*
G01X0017108Y0018789D01*
G01X0018915Y0017868D02*
G01X0019106Y0017677D01*
G01X0018894Y0017889D02*
G01X0018915Y0017868D01*
G01X0018732Y0018051D02*
G01X0018894Y0017889D01*
G01X0019110Y0018789D02*
G01X0019110Y0019059D01*
G01X0019110Y0018759D02*
G01X0019110Y0018789D01*
G01X0019110Y0018694D02*
G01X0019110Y0018759D01*
G01X0018005Y0001694D02*
G01X0017996Y0001685D01*
G01X0013936Y0007628D02*
G01X0014019Y0007963D01*
G01X0013901Y0007551D02*
G75*
G03X0013936Y0007628I-000187J0000131D01*
G01X0013697Y0007261D02*
G01X0013901Y0007551D01*
G01X0013548Y0007167D02*
G75*
G03X0013697Y0007261I-000037J0000225D01*
G01X0013207Y0007110D02*
G01X0013548Y0007167D01*
G01X0003650Y0018354D02*
G01X0003650Y0017961D01*
G01X0003641Y0018363D02*
G01X0003650Y0018354D01*
G01X0003650Y0017567D02*
G01X0003650Y0017961D01*
G01X0003641Y0017558D02*
G01X0003650Y0017567D01*
G01X0003256Y0004683D02*
G01X0003256Y0004953D01*
G01X0003256Y0004653D02*
G01X0003256Y0004683D01*
G01X0003256Y0004588D02*
G01X0003256Y0004653D01*
G01X0003256Y0005223D02*
G01X0003256Y0004953D01*
G01X0003256Y0005253D02*
G01X0003256Y0005223D01*
G01X0003256Y0005318D02*
G01X0003256Y0005253D01*
G01X0001788Y0014861D02*
G01X0001780Y0014870D01*
G01X0017380Y0016299D02*
G01X0017110Y0016299D01*
G01X0017410Y0016299D02*
G01X0017380Y0016299D01*
G01X0017472Y0016240D02*
G01X0017410Y0016299D01*
G01X0017483Y0016229D02*
G75*
G03X0017472Y0016240I-000073J-000054D01*
G01X0017627Y0016033D02*
G01X0017483Y0016229D01*
G01X0017628Y0016032D02*
G01X0017627Y0016033D01*
G01X0017674Y0015969D02*
G01X0017628Y0016032D01*
G01X0017674Y0015969D02*
G01X0017674Y0015969D01*
G01X0017761Y0015849D02*
G01X0017674Y0015969D01*
G01X0017761Y0015849D02*
G01X0017761Y0015849D01*
G01X0018006Y0015514D02*
G01X0017761Y0015849D01*
G01X0018032Y0015463D02*
G75*
G03X0018006Y0015514I-000162J-000048D01*
G01X0018106Y0015213D02*
G01X0018032Y0015463D01*
G01X0018106Y0015183D02*
G01X0018106Y0015213D01*
G01X0018106Y0014913D02*
G01X0018106Y0015183D01*
G01X0017110Y0015999D02*
G01X0017110Y0015987D01*
G01X0017110Y0016029D02*
G01X0017110Y0015999D01*
G01X0017110Y0016299D02*
G01X0017110Y0016029D01*
G01X0017728Y0018898D02*
G01X0017912Y0018491D01*
G01X0017722Y0018916D02*
G75*
G03X0017728Y0018898I0000088J0000019D01*
G01X0017616Y0019404D02*
G01X0017722Y0018916D01*
G01X0017616Y0019404D02*
G75*
G03X0017410Y0019569I-000206J-000045D01*
G01X0016810Y0019569D02*
G01X0017410Y0019569D01*
G01X0016810Y0019569D02*
G75*
G03X0016600Y0019360I0000000J-000210D01*
G01X0016596Y0017978D02*
G01X0016600Y0019360D01*
G01X0016596Y0017977D02*
G01X0016596Y0017978D01*
G01X0016596Y0017377D02*
G01X0016596Y0017977D01*
G01X0016596Y0017377D02*
G75*
G03X0016644Y0017243I0000210J0000000D01*
G01X0016954Y0016868D02*
G01X0016644Y0017243D01*
G01X0016970Y0016844D02*
G75*
G03X0016954Y0016868I-000147J-000084D01*
G01X0017110Y0016599D02*
G01X0016970Y0016844D01*
G01X0017110Y0016569D02*
G01X0017110Y0016599D01*
G01X0017110Y0016299D02*
G01X0017110Y0016569D01*
G01X0018878Y0009691D02*
G01X0018878Y0009691D01*
G01X0018878Y0009691D02*
G75*
G03X0018964Y0009685I0000047J0000063D01*
G01X0019366Y0009913D02*
G01X0018964Y0009685D01*
G01X0019366Y0009913D02*
G75*
G03X0019385Y0009928I-000044J0000078D01*
G01X0019561Y0010103D02*
G01X0019385Y0009928D01*
G01X0019561Y0010103D02*
G75*
G03X0019587Y0010167I-000064J0000064D01*
G01X0019587Y0012416D02*
G01X0019587Y0010167D01*
G01X0019587Y0012416D02*
G01X0019587Y0012416D01*
G01X0019587Y0012991D02*
G01X0019587Y0012416D01*
G01X0019587Y0012991D02*
G75*
G03X0019497Y0013081I-000090J0000000D01*
G01X0019467Y0013081D02*
G01X0019497Y0013081D01*
G01X0019197Y0013291D02*
G01X0019467Y0013081D01*
G01X0019140Y0017407D02*
G01X0019106Y0017677D01*
G01X0019140Y0017377D02*
G01X0019140Y0017407D01*
G01X0019140Y0017377D02*
G75*
G03X0019147Y0017344I0000090J0000000D01*
G01X0019494Y0016456D02*
G01X0019147Y0017344D01*
G01X0019499Y0016439D02*
G75*
G03X0019494Y0016456I-000089J-000015D01*
G01X0019732Y0015094D02*
G01X0019499Y0016439D01*
G01X0019737Y0015038D02*
G75*
G03X0019732Y0015094I-000331J0000000D01*
G01X0019737Y0014789D02*
G01X0019737Y0015038D01*
G01X0019724Y0014697D02*
G75*
G03X0019737Y0014789I-000317J0000092D01*
G01X0019410Y0013616D02*
G01X0019724Y0014697D01*
G01X0019410Y0013616D02*
G75*
G03X0019407Y0013591I0000087J-000025D01*
G01X0019407Y0013561D02*
G01X0019407Y0013591D01*
G01X0019197Y0013291D02*
G01X0019407Y0013561D01*
G01X0003256Y0004953D02*
G01X0003526Y0004987D01*
G01X0007980Y0017686D02*
G01X0007980Y0017915D01*
G01X0007980Y0017656D02*
G01X0007980Y0017686D01*
G01X0007980Y0016899D02*
G01X0007980Y0017656D01*
G01X0017701Y0001890D02*
G01X0017772Y0001909D01*
G01X0017731Y0001890D02*
G01X0017701Y0001890D01*
G01X0017996Y0001685D02*
G01X0017731Y0001890D01*
G01X0019480Y0001685D02*
G01X0019471Y0001694D01*
G01X0019185Y0001890D02*
G01X0019257Y0001909D01*
G01X0019215Y0001890D02*
G01X0019185Y0001890D01*
G01X0019480Y0001685D02*
G01X0019215Y0001890D01*
G01X0001985Y0015165D02*
G01X0002023Y0015113D01*
G01X0001985Y0015135D02*
G01X0001985Y0015165D01*
G01X0001780Y0014870D02*
G01X0001985Y0015135D01*
G01X0016324Y0001772D02*
G01X0016389Y0001772D01*
G01X0016294Y0001772D02*
G01X0016324Y0001772D01*
G01X0016024Y0001772D02*
G01X0016294Y0001772D01*
G01X0008039Y0018704D02*
G01X0008039Y0018639D01*
G01X0008039Y0018734D02*
G01X0008039Y0018704D01*
G01X0008039Y0019004D02*
G01X0008039Y0018734D01*
G01X0015225Y0009906D02*
G01X0014932Y0010088D01*
G01X0015332Y0009696D02*
G75*
G03X0015225Y0009906I-000227J0000016D01*
G01X0015253Y0008574D02*
G01X0015332Y0009696D01*
G01X0015253Y0008572D02*
G01X0015253Y0008574D01*
G01X0015221Y0008163D02*
G01X0015253Y0008572D01*
G01X0015213Y0008112D02*
G75*
G03X0015221Y0008163I-000339J0000078D01*
G01X0015010Y0007228D02*
G01X0015213Y0008112D01*
G01X0014946Y0007115D02*
G75*
G03X0015010Y0007228I-000158J0000164D01*
G01X0013575Y0005795D02*
G01X0014946Y0007115D01*
G01X0003751Y0015206D02*
G01X0003851Y0015355D01*
G01X0003751Y0015206D02*
G01X0003930Y0015188D01*
G01X0019276Y0003956D02*
G01X0019183Y0004110D01*
G01X0019276Y0003956D02*
G01X0019368Y0004110D01*
G01X0014776Y0008434D02*
G01X0014799Y0008612D01*
G01X0014776Y0008434D02*
G01X0014944Y0008498D01*
G01X0014733Y0008035D02*
G01X0014768Y0008211D01*
G01X0014733Y0008035D02*
G01X0014905Y0008086D01*
G01X0016916Y0008284D02*
G01X0016769Y0008388D01*
G01X0016916Y0008284D02*
G01X0016938Y0008463D01*
G01X0016085Y0008136D02*
G01X0016202Y0007999D01*
G01X0016085Y0008136D02*
G01X0016019Y0007968D01*
G01X0016413Y0007967D02*
G01X0016560Y0007863D01*
G01X0016413Y0007967D02*
G01X0016390Y0007788D01*
G01X0016329Y0007437D02*
G01X0016231Y0007286D01*
G01X0016329Y0007437D02*
G01X0016149Y0007452D01*
G01X0018475Y0008069D02*
G01X0018465Y0007889D01*
G01X0018475Y0008069D02*
G01X0018312Y0007993D01*
G01X0015728Y0006432D02*
G01X0015722Y0006252D01*
G01X0015728Y0006432D02*
G01X0015567Y0006353D01*
G01X0015515Y0006071D02*
G01X0015506Y0006251D01*
G01X0015515Y0006071D02*
G01X0015670Y0006163D01*
G01X0015601Y0005450D02*
G01X0015592Y0005270D01*
G01X0015601Y0005450D02*
G01X0015439Y0005373D01*
G01X0015386Y0005090D02*
G01X0015377Y0005270D01*
G01X0015386Y0005090D02*
G01X0015540Y0005183D01*
G01X0014295Y0005283D02*
G01X0014314Y0005462D01*
G01X0014295Y0005283D02*
G01X0014462Y0005352D01*
G01X0013043Y0005188D02*
G01X0013142Y0005339D01*
G01X0013043Y0005188D02*
G01X0013223Y0005172D01*
G01X0013581Y0007844D02*
G01X0013751Y0007784D01*
G01X0013581Y0007844D02*
G01X0013608Y0007666D01*
G01X0011720Y0010098D02*
G01X0011551Y0010158D01*
G01X0011720Y0010098D02*
G01X0011693Y0010276D01*
G01X0017466Y0006261D02*
G01X0017519Y0006089D01*
G01X0017466Y0006261D02*
G01X0017339Y0006134D01*
G01X0016740Y0006465D02*
G01X0016769Y0006288D01*
G01X0016740Y0006465D02*
G01X0016597Y0006356D01*
G01X0013164Y0004502D02*
G01X0013256Y0004656D01*
G01X0013164Y0004502D02*
G01X0013343Y0004493D01*
G01X0012974Y0004864D02*
G01X0013077Y0005011D01*
G01X0012974Y0004864D02*
G01X0013152Y0004842D01*
G01X0015463Y0004645D02*
G01X0015412Y0004818D01*
G01X0015463Y0004645D02*
G01X0015591Y0004771D01*
G01X0015526Y0008528D02*
G01X0015628Y0008380D01*
G01X0015526Y0008528D02*
G01X0015444Y0008369D01*
G01X0014575Y0006369D02*
G01X0014630Y0006541D01*
G01X0014575Y0006369D02*
G01X0014752Y0006402D01*
G01X0009340Y0008599D02*
G01X0009307Y0008776D01*
G01X0009340Y0008599D02*
G01X0009481Y0008711D01*
G01X0009260Y0008938D02*
G01X0009436Y0008901D01*
G01X0009260Y0008938D02*
G01X0009310Y0008765D01*
G01X0008193Y0009928D02*
G01X0008017Y0009965D01*
G01X0008193Y0009928D02*
G01X0008143Y0010101D01*
G01X0014610Y0007167D02*
G01X0014692Y0007328D01*
G01X0014610Y0007167D02*
G01X0014790Y0007172D01*
G01X0014859Y0007477D02*
G01X0014894Y0007300D01*
G01X0014859Y0007477D02*
G01X0014720Y0007363D01*
G01X0015110Y0009503D02*
G01X0015014Y0009655D01*
G01X0015110Y0009503D02*
G01X0015199Y0009660D01*
G01X0016121Y0004805D02*
G01X0015946Y0004848D01*
G01X0016121Y0004805D02*
G01X0016077Y0004979D01*
G01X0014339Y0005732D02*
G01X0014352Y0005912D01*
G01X0014339Y0005732D02*
G01X0014504Y0005805D01*
G01X0017800Y0004790D02*
G01X0017656Y0004898D01*
G01X0017800Y0004790D02*
G01X0017827Y0004968D01*
G01X0015221Y0006547D02*
G01X0015248Y0006725D01*
G01X0015221Y0006547D02*
G01X0015390Y0006607D01*
G01X0016172Y0006697D02*
G01X0016178Y0006877D01*
G01X0016172Y0006697D02*
G01X0016333Y0006777D01*
G01X0017403Y0010024D02*
G01X0017287Y0009887D01*
G01X0017403Y0010024D02*
G01X0017227Y0010062D01*
G01X0018137Y0007484D02*
G01X0017991Y0007590D01*
G01X0018137Y0007484D02*
G01X0018162Y0007662D01*
G01X0013386Y0007560D02*
G01X0013552Y0007491D01*
G01X0013386Y0007560D02*
G01X0013403Y0007381D01*
G01X0017461Y0009252D02*
G01X0017450Y0009072D01*
G01X0017461Y0009252D02*
G01X0017297Y0009177D01*
G01X0017518Y0010484D02*
G01X0017561Y0010309D01*
G01X0017518Y0010484D02*
G01X0017384Y0010363D01*
G01X0015409Y0006418D02*
G01X0015382Y0006240D01*
G01X0015409Y0006418D02*
G01X0015240Y0006358D01*
G01X0011522Y0016529D02*
G01X0011358Y0016602D01*
G01X0011522Y0016529D02*
G01X0011509Y0016708D01*
G01X0015218Y0006054D02*
G01X0015171Y0006228D01*
G01X0015218Y0006054D02*
G01X0015349Y0006177D01*
G01X0014426Y0004941D02*
G01X0014479Y0005114D01*
G01X0014426Y0004941D02*
G01X0014603Y0004976D01*
G01X0014639Y0005284D02*
G01X0014686Y0005110D01*
G01X0014639Y0005284D02*
G01X0014508Y0005160D01*
G01X0012631Y0014527D02*
G01X0012471Y0014609D01*
G01X0012631Y0014527D02*
G01X0012627Y0014707D01*
G01X0013726Y0005941D02*
G01X0013679Y0005767D01*
G01X0013726Y0005941D02*
G01X0013551Y0005900D01*
G54D15*
G01X0013739Y0019128D02*
G01X0013915Y0019304D01*
G01X0013915Y0019304D02*
G01X0014164Y0019304D01*
G01X0014164Y0019304D02*
G01X0014339Y0019128D01*
G01X0014339Y0019128D02*
G01X0014339Y0018880D01*
G01X0014339Y0018880D02*
G01X0014164Y0018704D01*
G01X0014164Y0018704D02*
G01X0013915Y0018704D01*
G01X0013915Y0018704D02*
G01X0013739Y0018880D01*
G01X0013739Y0018880D02*
G01X0013739Y0019128D01*
G01X0012739Y0019128D02*
G01X0012915Y0019304D01*
G01X0012915Y0019304D02*
G01X0013164Y0019304D01*
G01X0013164Y0019304D02*
G01X0013339Y0019128D01*
G01X0013339Y0019128D02*
G01X0013339Y0018880D01*
G01X0013339Y0018880D02*
G01X0013164Y0018704D01*
G01X0013164Y0018704D02*
G01X0012915Y0018704D01*
G01X0012915Y0018704D02*
G01X0012739Y0018880D01*
G01X0012739Y0018880D02*
G01X0012739Y0019128D01*
G01X0011739Y0019128D02*
G01X0011915Y0019304D01*
G01X0011915Y0019304D02*
G01X0012164Y0019304D01*
G01X0012164Y0019304D02*
G01X0012339Y0019128D01*
G01X0012339Y0019128D02*
G01X0012339Y0018880D01*
G01X0012339Y0018880D02*
G01X0012164Y0018704D01*
G01X0012164Y0018704D02*
G01X0011915Y0018704D01*
G01X0011915Y0018704D02*
G01X0011739Y0018880D01*
G01X0011739Y0018880D02*
G01X0011739Y0019128D01*
G01X0010739Y0019128D02*
G01X0010915Y0019304D01*
G01X0010915Y0019304D02*
G01X0011164Y0019304D01*
G01X0011164Y0019304D02*
G01X0011339Y0019128D01*
G01X0011339Y0019128D02*
G01X0011339Y0018880D01*
G01X0011339Y0018880D02*
G01X0011164Y0018704D01*
G01X0011164Y0018704D02*
G01X0010915Y0018704D01*
G01X0010915Y0018704D02*
G01X0010739Y0018880D01*
G01X0010739Y0018880D02*
G01X0010739Y0019128D01*
G01X0009739Y0019128D02*
G01X0009915Y0019304D01*
G01X0009915Y0019304D02*
G01X0010164Y0019304D01*
G01X0010164Y0019304D02*
G01X0010339Y0019128D01*
G01X0010339Y0019128D02*
G01X0010339Y0018880D01*
G01X0010339Y0018880D02*
G01X0010164Y0018704D01*
G01X0010164Y0018704D02*
G01X0009915Y0018704D01*
G01X0009915Y0018704D02*
G01X0009739Y0018880D01*
G01X0009739Y0018880D02*
G01X0009739Y0019128D01*
G01X0008739Y0019128D02*
G01X0008915Y0019304D01*
G01X0008915Y0019304D02*
G01X0009164Y0019304D01*
G01X0009164Y0019304D02*
G01X0009339Y0019128D01*
G01X0009339Y0019128D02*
G01X0009339Y0018880D01*
G01X0009339Y0018880D02*
G01X0009164Y0018704D01*
G01X0009164Y0018704D02*
G01X0008915Y0018704D01*
G01X0008915Y0018704D02*
G01X0008739Y0018880D01*
G01X0008739Y0018880D02*
G01X0008739Y0019128D01*
G01X0007739Y0019128D02*
G01X0007915Y0019304D01*
G01X0007915Y0019304D02*
G01X0008164Y0019304D01*
G01X0008164Y0019304D02*
G01X0008339Y0019128D01*
G01X0008339Y0019128D02*
G01X0008339Y0018880D01*
G01X0008339Y0018880D02*
G01X0008164Y0018704D01*
G01X0008164Y0018704D02*
G01X0007915Y0018704D01*
G01X0007915Y0018704D02*
G01X0007739Y0018880D01*
G01X0007739Y0018880D02*
G01X0007739Y0019128D01*
G01X0015724Y0002896D02*
G01X0015899Y0003072D01*
G01X0015899Y0003072D02*
G01X0016148Y0003072D01*
G01X0016148Y0003072D02*
G01X0016324Y0002896D01*
G01X0016324Y0002896D02*
G01X0016324Y0002647D01*
G01X0016324Y0002647D02*
G01X0016148Y0002472D01*
G01X0016148Y0002472D02*
G01X0015899Y0002472D01*
G01X0015899Y0002472D02*
G01X0015724Y0002647D01*
G01X0015724Y0002647D02*
G01X0015724Y0002896D01*
G01X0015724Y0001896D02*
G01X0015899Y0002072D01*
G01X0015899Y0002072D02*
G01X0016148Y0002072D01*
G01X0016148Y0002072D02*
G01X0016324Y0001896D01*
G01X0016324Y0001896D02*
G01X0016324Y0001647D01*
G01X0016324Y0001647D02*
G01X0016148Y0001472D01*
G01X0016148Y0001472D02*
G01X0015899Y0001472D01*
G01X0015899Y0001472D02*
G01X0015724Y0001647D01*
G01X0015724Y0001647D02*
G01X0015724Y0001896D01*
G01X0014724Y0002896D02*
G01X0014899Y0003072D01*
G01X0014899Y0003072D02*
G01X0015148Y0003072D01*
G01X0015148Y0003072D02*
G01X0015324Y0002896D01*
G01X0015324Y0002896D02*
G01X0015324Y0002647D01*
G01X0015324Y0002647D02*
G01X0015148Y0002472D01*
G01X0015148Y0002472D02*
G01X0014899Y0002472D01*
G01X0014899Y0002472D02*
G01X0014724Y0002647D01*
G01X0014724Y0002647D02*
G01X0014724Y0002896D01*
G01X0014724Y0001896D02*
G01X0014899Y0002072D01*
G01X0014899Y0002072D02*
G01X0015148Y0002072D01*
G01X0015148Y0002072D02*
G01X0015324Y0001896D01*
G01X0015324Y0001896D02*
G01X0015324Y0001647D01*
G01X0015324Y0001647D02*
G01X0015148Y0001472D01*
G01X0015148Y0001472D02*
G01X0014899Y0001472D01*
G01X0014899Y0001472D02*
G01X0014724Y0001647D01*
G01X0014724Y0001647D02*
G01X0014724Y0001896D01*
G01X0013724Y0002896D02*
G01X0013899Y0003072D01*
G01X0013899Y0003072D02*
G01X0014148Y0003072D01*
G01X0014148Y0003072D02*
G01X0014324Y0002896D01*
G01X0014324Y0002896D02*
G01X0014324Y0002647D01*
G01X0014324Y0002647D02*
G01X0014148Y0002472D01*
G01X0014148Y0002472D02*
G01X0013899Y0002472D01*
G01X0013899Y0002472D02*
G01X0013724Y0002647D01*
G01X0013724Y0002647D02*
G01X0013724Y0002896D01*
G01X0013724Y0001896D02*
G01X0013899Y0002072D01*
G01X0013899Y0002072D02*
G01X0014148Y0002072D01*
G01X0014148Y0002072D02*
G01X0014324Y0001896D01*
G01X0014324Y0001896D02*
G01X0014324Y0001647D01*
G01X0014324Y0001647D02*
G01X0014148Y0001472D01*
G01X0014148Y0001472D02*
G01X0013899Y0001472D01*
G01X0013899Y0001472D02*
G01X0013724Y0001647D01*
G01X0013724Y0001647D02*
G01X0013724Y0001896D01*
G01X0012724Y0002896D02*
G01X0012899Y0003072D01*
G01X0012899Y0003072D02*
G01X0013148Y0003072D01*
G01X0013148Y0003072D02*
G01X0013324Y0002896D01*
G01X0013324Y0002896D02*
G01X0013324Y0002647D01*
G01X0013324Y0002647D02*
G01X0013148Y0002472D01*
G01X0013148Y0002472D02*
G01X0012899Y0002472D01*
G01X0012899Y0002472D02*
G01X0012724Y0002647D01*
G01X0012724Y0002647D02*
G01X0012724Y0002896D01*
G01X0012724Y0001896D02*
G01X0012899Y0002072D01*
G01X0012899Y0002072D02*
G01X0013148Y0002072D01*
G01X0013148Y0002072D02*
G01X0013324Y0001896D01*
G01X0013324Y0001896D02*
G01X0013324Y0001647D01*
G01X0013324Y0001647D02*
G01X0013148Y0001472D01*
G01X0013148Y0001472D02*
G01X0012899Y0001472D01*
G01X0012899Y0001472D02*
G01X0012724Y0001647D01*
G01X0012724Y0001647D02*
G01X0012724Y0001896D01*
G01X0011724Y0002896D02*
G01X0011899Y0003072D01*
G01X0011899Y0003072D02*
G01X0012148Y0003072D01*
G01X0012148Y0003072D02*
G01X0012324Y0002896D01*
G01X0012324Y0002896D02*
G01X0012324Y0002647D01*
G01X0012324Y0002647D02*
G01X0012148Y0002472D01*
G01X0012148Y0002472D02*
G01X0011899Y0002472D01*
G01X0011899Y0002472D02*
G01X0011724Y0002647D01*
G01X0011724Y0002647D02*
G01X0011724Y0002896D01*
G01X0011724Y0001896D02*
G01X0011899Y0002072D01*
G01X0011899Y0002072D02*
G01X0012148Y0002072D01*
G01X0012148Y0002072D02*
G01X0012324Y0001896D01*
G01X0012324Y0001896D02*
G01X0012324Y0001647D01*
G01X0012324Y0001647D02*
G01X0012148Y0001472D01*
G01X0012148Y0001472D02*
G01X0011899Y0001472D01*
G01X0011899Y0001472D02*
G01X0011724Y0001647D01*
G01X0011724Y0001647D02*
G01X0011724Y0001896D01*
G01X0010724Y0002896D02*
G01X0010899Y0003072D01*
G01X0010899Y0003072D02*
G01X0011148Y0003072D01*
G01X0011148Y0003072D02*
G01X0011324Y0002896D01*
G01X0011324Y0002896D02*
G01X0011324Y0002647D01*
G01X0011324Y0002647D02*
G01X0011148Y0002472D01*
G01X0011148Y0002472D02*
G01X0010899Y0002472D01*
G01X0010899Y0002472D02*
G01X0010724Y0002647D01*
G01X0010724Y0002647D02*
G01X0010724Y0002896D01*
G01X0010724Y0001896D02*
G01X0010899Y0002072D01*
G01X0010899Y0002072D02*
G01X0011148Y0002072D01*
G01X0011148Y0002072D02*
G01X0011324Y0001896D01*
G01X0011324Y0001896D02*
G01X0011324Y0001647D01*
G01X0011324Y0001647D02*
G01X0011148Y0001472D01*
G01X0011148Y0001472D02*
G01X0010899Y0001472D01*
G01X0010899Y0001472D02*
G01X0010724Y0001647D01*
G01X0010724Y0001647D02*
G01X0010724Y0001896D01*
G01X0009724Y0002896D02*
G01X0009899Y0003072D01*
G01X0009899Y0003072D02*
G01X0010148Y0003072D01*
G01X0010148Y0003072D02*
G01X0010324Y0002896D01*
G01X0010324Y0002896D02*
G01X0010324Y0002647D01*
G01X0010324Y0002647D02*
G01X0010148Y0002472D01*
G01X0010148Y0002472D02*
G01X0009899Y0002472D01*
G01X0009899Y0002472D02*
G01X0009724Y0002647D01*
G01X0009724Y0002647D02*
G01X0009724Y0002896D01*
G01X0009724Y0001896D02*
G01X0009899Y0002072D01*
G01X0009899Y0002072D02*
G01X0010148Y0002072D01*
G01X0010148Y0002072D02*
G01X0010324Y0001896D01*
G01X0010324Y0001896D02*
G01X0010324Y0001647D01*
G01X0010324Y0001647D02*
G01X0010148Y0001472D01*
G01X0010148Y0001472D02*
G01X0009899Y0001472D01*
G01X0009899Y0001472D02*
G01X0009724Y0001647D01*
G01X0009724Y0001647D02*
G01X0009724Y0001896D01*
G01X0008724Y0002896D02*
G01X0008899Y0003072D01*
G01X0008899Y0003072D02*
G01X0009148Y0003072D01*
G01X0009148Y0003072D02*
G01X0009324Y0002896D01*
G01X0009324Y0002896D02*
G01X0009324Y0002647D01*
G01X0009324Y0002647D02*
G01X0009148Y0002472D01*
G01X0009148Y0002472D02*
G01X0008899Y0002472D01*
G01X0008899Y0002472D02*
G01X0008724Y0002647D01*
G01X0008724Y0002647D02*
G01X0008724Y0002896D01*
G01X0008724Y0001896D02*
G01X0008899Y0002072D01*
G01X0008899Y0002072D02*
G01X0009148Y0002072D01*
G01X0009148Y0002072D02*
G01X0009324Y0001896D01*
G01X0009324Y0001896D02*
G01X0009324Y0001647D01*
G01X0009324Y0001647D02*
G01X0009148Y0001472D01*
G01X0009148Y0001472D02*
G01X0008899Y0001472D01*
G01X0008899Y0001472D02*
G01X0008724Y0001647D01*
G01X0008724Y0001647D02*
G01X0008724Y0001896D01*
G01X0007724Y0002896D02*
G01X0007899Y0003072D01*
G01X0007899Y0003072D02*
G01X0008148Y0003072D01*
G01X0008148Y0003072D02*
G01X0008324Y0002896D01*
G01X0008324Y0002896D02*
G01X0008324Y0002647D01*
G01X0008324Y0002647D02*
G01X0008148Y0002472D01*
G01X0008148Y0002472D02*
G01X0007899Y0002472D01*
G01X0007899Y0002472D02*
G01X0007724Y0002647D01*
G01X0007724Y0002647D02*
G01X0007724Y0002896D01*
G01X0007724Y0001896D02*
G01X0007899Y0002072D01*
G01X0007899Y0002072D02*
G01X0008148Y0002072D01*
G01X0008148Y0002072D02*
G01X0008324Y0001896D01*
G01X0008324Y0001896D02*
G01X0008324Y0001647D01*
G01X0008324Y0001647D02*
G01X0008148Y0001472D01*
G01X0008148Y0001472D02*
G01X0007899Y0001472D01*
G01X0007899Y0001472D02*
G01X0007724Y0001647D01*
G01X0007724Y0001647D02*
G01X0007724Y0001896D01*
G01X0006724Y0002896D02*
G01X0006899Y0003072D01*
G01X0006899Y0003072D02*
G01X0007148Y0003072D01*
G01X0007148Y0003072D02*
G01X0007324Y0002896D01*
G01X0007324Y0002896D02*
G01X0007324Y0002647D01*
G01X0007324Y0002647D02*
G01X0007148Y0002472D01*
G01X0007148Y0002472D02*
G01X0006899Y0002472D01*
G01X0006899Y0002472D02*
G01X0006724Y0002647D01*
G01X0006724Y0002647D02*
G01X0006724Y0002896D01*
G01X0018810Y0019183D02*
G01X0018986Y0019359D01*
G01X0018986Y0019359D02*
G01X0019234Y0019359D01*
G01X0019234Y0019359D02*
G01X0019410Y0019183D01*
G01X0019410Y0019183D02*
G01X0019410Y0018935D01*
G01X0019410Y0018935D02*
G01X0019234Y0018759D01*
G01X0019234Y0018759D02*
G01X0018986Y0018759D01*
G01X0018986Y0018759D02*
G01X0018810Y0018935D01*
G01X0018810Y0018935D02*
G01X0018810Y0019183D01*
G01X0017810Y0019183D02*
G01X0017986Y0019359D01*
G01X0017986Y0019359D02*
G01X0018234Y0019359D01*
G01X0018234Y0019359D02*
G01X0018410Y0019183D01*
G01X0018410Y0019183D02*
G01X0018410Y0018935D01*
G01X0018410Y0018935D02*
G01X0018234Y0018759D01*
G01X0018234Y0018759D02*
G01X0017986Y0018759D01*
G01X0017986Y0018759D02*
G01X0017810Y0018935D01*
G01X0017810Y0018935D02*
G01X0017810Y0019183D01*
G01X0018806Y0017801D02*
G01X0018982Y0017977D01*
G01X0018982Y0017977D02*
G01X0019231Y0017977D01*
G01X0019231Y0017977D02*
G01X0019406Y0017801D01*
G01X0019406Y0017801D02*
G01X0019406Y0017553D01*
G01X0019406Y0017553D02*
G01X0019231Y0017377D01*
G01X0019231Y0017377D02*
G01X0018982Y0017377D01*
G01X0018982Y0017377D02*
G01X0018806Y0017553D01*
G01X0018806Y0017553D02*
G01X0018806Y0017801D01*
G01X0017806Y0017801D02*
G01X0017982Y0017977D01*
G01X0017982Y0017977D02*
G01X0018231Y0017977D01*
G01X0018231Y0017977D02*
G01X0018406Y0017801D01*
G01X0018406Y0017801D02*
G01X0018406Y0017553D01*
G01X0018406Y0017553D02*
G01X0018231Y0017377D01*
G01X0018231Y0017377D02*
G01X0017982Y0017377D01*
G01X0017982Y0017377D02*
G01X0017806Y0017553D01*
G01X0017806Y0017553D02*
G01X0017806Y0017801D01*
G01X0004956Y0004829D02*
G01X0005132Y0004653D01*
G01X0005132Y0004653D02*
G01X0005380Y0004653D01*
G01X0005380Y0004653D02*
G01X0005556Y0004829D01*
G01X0005556Y0004829D02*
G01X0005556Y0005077D01*
G01X0005556Y0005077D02*
G01X0005380Y0005253D01*
G01X0005380Y0005253D02*
G01X0005132Y0005253D01*
G01X0005132Y0005253D02*
G01X0004956Y0005077D01*
G01X0004956Y0005077D02*
G01X0004956Y0004829D01*
G01X0003956Y0004829D02*
G01X0004132Y0004653D01*
G01X0004132Y0004653D02*
G01X0004380Y0004653D01*
G01X0004380Y0004653D02*
G01X0004556Y0004829D01*
G01X0004556Y0004829D02*
G01X0004556Y0005077D01*
G01X0004556Y0005077D02*
G01X0004380Y0005253D01*
G01X0004380Y0005253D02*
G01X0004132Y0005253D01*
G01X0004132Y0005253D02*
G01X0003956Y0005077D01*
G01X0003956Y0005077D02*
G01X0003956Y0004829D01*
G01X0002956Y0004829D02*
G01X0003132Y0004653D01*
G01X0003132Y0004653D02*
G01X0003380Y0004653D01*
G01X0003380Y0004653D02*
G01X0003556Y0004829D01*
G01X0003556Y0004829D02*
G01X0003556Y0005077D01*
G01X0003556Y0005077D02*
G01X0003380Y0005253D01*
G01X0003380Y0005253D02*
G01X0003132Y0005253D01*
G01X0003132Y0005253D02*
G01X0002956Y0005077D01*
G01X0002956Y0005077D02*
G01X0002956Y0004829D01*
G01X0001956Y0004829D02*
G01X0002132Y0004653D01*
G01X0002132Y0004653D02*
G01X0002380Y0004653D01*
G01X0002380Y0004653D02*
G01X0002556Y0004829D01*
G01X0002556Y0004829D02*
G01X0002556Y0005077D01*
G01X0002556Y0005077D02*
G01X0002380Y0005253D01*
G01X0002380Y0005253D02*
G01X0002132Y0005253D01*
G01X0002132Y0005253D02*
G01X0001956Y0005077D01*
G01X0001956Y0005077D02*
G01X0001956Y0004829D01*
G01X0018073Y0010591D02*
G01X0017897Y0010416D01*
G01X0017897Y0010416D02*
G01X0017897Y0010167D01*
G01X0017897Y0010167D02*
G01X0018073Y0009991D01*
G01X0018073Y0009991D02*
G01X0018321Y0009991D01*
G01X0018321Y0009991D02*
G01X0018497Y0010167D01*
G01X0018497Y0010167D02*
G01X0018497Y0010416D01*
G01X0018497Y0010416D02*
G01X0018321Y0010591D01*
G01X0018321Y0010591D02*
G01X0018073Y0010591D01*
G01X0019073Y0010591D02*
G01X0018897Y0010416D01*
G01X0018897Y0010416D02*
G01X0018897Y0010167D01*
G01X0018897Y0010167D02*
G01X0019073Y0009991D01*
G01X0019073Y0009991D02*
G01X0019321Y0009991D01*
G01X0019321Y0009991D02*
G01X0019497Y0010167D01*
G01X0019497Y0010167D02*
G01X0019497Y0010416D01*
G01X0019497Y0010416D02*
G01X0019321Y0010591D01*
G01X0019321Y0010591D02*
G01X0019073Y0010591D01*
G01X0018073Y0011591D02*
G01X0017897Y0011416D01*
G01X0017897Y0011416D02*
G01X0017897Y0011167D01*
G01X0017897Y0011167D02*
G01X0018073Y0010991D01*
G01X0018073Y0010991D02*
G01X0018321Y0010991D01*
G01X0018321Y0010991D02*
G01X0018497Y0011167D01*
G01X0018497Y0011167D02*
G01X0018497Y0011416D01*
G01X0018497Y0011416D02*
G01X0018321Y0011591D01*
G01X0018321Y0011591D02*
G01X0018073Y0011591D01*
G01X0019073Y0011591D02*
G01X0018897Y0011416D01*
G01X0018897Y0011416D02*
G01X0018897Y0011167D01*
G01X0018897Y0011167D02*
G01X0019073Y0010991D01*
G01X0019073Y0010991D02*
G01X0019321Y0010991D01*
G01X0019321Y0010991D02*
G01X0019497Y0011167D01*
G01X0019497Y0011167D02*
G01X0019497Y0011416D01*
G01X0019497Y0011416D02*
G01X0019321Y0011591D01*
G01X0019321Y0011591D02*
G01X0019073Y0011591D01*
G01X0018073Y0012591D02*
G01X0017897Y0012416D01*
G01X0017897Y0012416D02*
G01X0017897Y0012167D01*
G01X0017897Y0012167D02*
G01X0018073Y0011991D01*
G01X0018073Y0011991D02*
G01X0018321Y0011991D01*
G01X0018321Y0011991D02*
G01X0018497Y0012167D01*
G01X0018497Y0012167D02*
G01X0018497Y0012416D01*
G01X0018497Y0012416D02*
G01X0018321Y0012591D01*
G01X0018321Y0012591D02*
G01X0018073Y0012591D01*
G01X0019073Y0012591D02*
G01X0018897Y0012416D01*
G01X0018897Y0012416D02*
G01X0018897Y0012167D01*
G01X0018897Y0012167D02*
G01X0019073Y0011991D01*
G01X0019073Y0011991D02*
G01X0019321Y0011991D01*
G01X0019321Y0011991D02*
G01X0019497Y0012167D01*
G01X0019497Y0012167D02*
G01X0019497Y0012416D01*
G01X0019497Y0012416D02*
G01X0019321Y0012591D01*
G01X0019321Y0012591D02*
G01X0019073Y0012591D01*
G01X0018073Y0013591D02*
G01X0017897Y0013416D01*
G01X0017897Y0013416D02*
G01X0017897Y0013167D01*
G01X0017897Y0013167D02*
G01X0018073Y0012991D01*
G01X0018073Y0012991D02*
G01X0018321Y0012991D01*
G01X0018321Y0012991D02*
G01X0018497Y0013167D01*
G01X0018497Y0013167D02*
G01X0018497Y0013416D01*
G01X0018497Y0013416D02*
G01X0018321Y0013591D01*
G01X0018321Y0013591D02*
G01X0018073Y0013591D01*
G01X0018810Y0016423D02*
G01X0018986Y0016599D01*
G01X0018986Y0016599D02*
G01X0019234Y0016599D01*
G01X0019234Y0016599D02*
G01X0019410Y0016423D01*
G01X0019410Y0016423D02*
G01X0019410Y0016175D01*
G01X0019410Y0016175D02*
G01X0019234Y0015999D01*
G01X0019234Y0015999D02*
G01X0018986Y0015999D01*
G01X0018986Y0015999D02*
G01X0018810Y0016175D01*
G01X0018810Y0016175D02*
G01X0018810Y0016423D01*
G01X0017810Y0016423D02*
G01X0017986Y0016599D01*
G01X0017986Y0016599D02*
G01X0018234Y0016599D01*
G01X0018234Y0016599D02*
G01X0018410Y0016423D01*
G01X0018410Y0016423D02*
G01X0018410Y0016175D01*
G01X0018410Y0016175D02*
G01X0018234Y0015999D01*
G01X0018234Y0015999D02*
G01X0017986Y0015999D01*
G01X0017986Y0015999D02*
G01X0017810Y0016175D01*
G01X0017810Y0016175D02*
G01X0017810Y0016423D01*
G01X0016810Y0016423D02*
G01X0016986Y0016599D01*
G01X0016986Y0016599D02*
G01X0017234Y0016599D01*
G01X0017234Y0016599D02*
G01X0017410Y0016423D01*
G01X0017410Y0016423D02*
G01X0017410Y0016175D01*
G01X0017410Y0016175D02*
G01X0017234Y0015999D01*
G01X0017234Y0015999D02*
G01X0016986Y0015999D01*
G01X0016986Y0015999D02*
G01X0016810Y0016175D01*
G01X0016810Y0016175D02*
G01X0016810Y0016423D01*
G01X0018806Y0015038D02*
G01X0018982Y0015213D01*
G01X0018982Y0015213D02*
G01X0019231Y0015213D01*
G01X0019231Y0015213D02*
G01X0019406Y0015038D01*
G01X0019406Y0015038D02*
G01X0019406Y0014789D01*
G01X0019406Y0014789D02*
G01X0019231Y0014613D01*
G01X0019231Y0014613D02*
G01X0018982Y0014613D01*
G01X0018982Y0014613D02*
G01X0018806Y0014789D01*
G01X0018806Y0014789D02*
G01X0018806Y0015038D01*
G01X0017806Y0015038D02*
G01X0017982Y0015213D01*
G01X0017982Y0015213D02*
G01X0018231Y0015213D01*
G01X0018231Y0015213D02*
G01X0018406Y0015038D01*
G01X0018406Y0015038D02*
G01X0018406Y0014789D01*
G01X0018406Y0014789D02*
G01X0018231Y0014613D01*
G01X0018231Y0014613D02*
G01X0017982Y0014613D01*
G01X0017982Y0014613D02*
G01X0017806Y0014789D01*
G01X0017806Y0014789D02*
G01X0017806Y0015038D01*
G54D16*
G01X0014720Y0009561D02*
G01X0014691Y0009630D01*
G01X0014691Y0009630D02*
G01X0014691Y0009795D01*
G01X0014691Y0009795D02*
G01X0014754Y0009947D01*
G01X0014754Y0009947D02*
G01X0014871Y0010063D01*
G01X0014871Y0010063D02*
G01X0014932Y0010088D01*
G01X0014932Y0010088D02*
G01X0012037Y0014441D01*
G01X0012037Y0014441D02*
G01X0012034Y0014446D01*
G01X0012034Y0014446D02*
G01X0012028Y0014456D01*
G01X0012028Y0014456D02*
G01X0012025Y0014461D01*
G01X0012025Y0014461D02*
G01X0010907Y0016457D01*
G01X0010907Y0016457D02*
G01X0010904Y0016462D01*
G01X0010904Y0016462D02*
G01X0009852Y0018432D01*
G01X0009852Y0018432D02*
G01X0009759Y0018470D01*
G01X0009759Y0018470D02*
G01X0009720Y0018509D01*
G01X0009720Y0018509D02*
G01X0009544Y0018685D01*
G01X0009544Y0018685D02*
G01X0009539Y0018690D01*
G01X0009539Y0018690D02*
G01X0009534Y0018685D01*
G01X0009534Y0018685D02*
G01X0009359Y0018509D01*
G01X0009359Y0018509D02*
G01X0009320Y0018470D01*
G01X0009320Y0018470D02*
G01X0009219Y0018428D01*
G01X0009219Y0018428D02*
G01X0009164Y0018428D01*
G01X0009164Y0018428D02*
G01X0008915Y0018428D01*
G01X0008915Y0018428D02*
G01X0008861Y0018428D01*
G01X0008861Y0018428D02*
G01X0008759Y0018470D01*
G01X0008759Y0018470D02*
G01X0008720Y0018509D01*
G01X0008720Y0018509D02*
G01X0008544Y0018685D01*
G01X0008544Y0018685D02*
G01X0008506Y0018723D01*
G01X0008506Y0018723D02*
G01X0008501Y0018718D01*
G01X0008501Y0018718D02*
G01X0008325Y0018542D01*
G01X0008325Y0018542D02*
G01X0008293Y0018510D01*
G01X0008293Y0018510D02*
G01X0008209Y0018475D01*
G01X0008209Y0018475D02*
G01X0008164Y0018475D01*
G01X0008164Y0018475D02*
G01X0007915Y0018475D01*
G01X0007915Y0018475D02*
G01X0007870Y0018475D01*
G01X0007870Y0018475D02*
G01X0007786Y0018510D01*
G01X0007786Y0018510D02*
G01X0007753Y0018542D01*
G01X0007753Y0018542D02*
G01X0007615Y0018681D01*
G01X0007615Y0018681D02*
G01X0007615Y0018649D01*
G01X0007615Y0018649D02*
G01X0007573Y0018548D01*
G01X0007573Y0018548D02*
G01X0007496Y0018470D01*
G01X0007496Y0018470D02*
G01X0007394Y0018428D01*
G01X0007394Y0018428D02*
G01X0007339Y0018428D01*
G01X0007339Y0018428D02*
G01X0006739Y0018428D01*
G01X0006739Y0018428D02*
G01X0006717Y0018428D01*
G01X0006717Y0018428D02*
G01X0006717Y0017474D01*
G01X0006717Y0017474D02*
G01X0006669Y0017295D01*
G01X0006669Y0017295D02*
G01X0006576Y0017134D01*
G01X0006576Y0017134D02*
G01X0006445Y0017002D01*
G01X0006445Y0017002D02*
G01X0006284Y0016909D01*
G01X0006284Y0016909D02*
G01X0006105Y0016861D01*
G01X0006105Y0016861D02*
G01X0005919Y0016861D01*
G01X0005919Y0016861D02*
G01X0005739Y0016909D01*
G01X0005739Y0016909D02*
G01X0005579Y0017002D01*
G01X0005579Y0017002D02*
G01X0005447Y0017134D01*
G01X0005447Y0017134D02*
G01X0005354Y0017295D01*
G01X0005354Y0017295D02*
G01X0005306Y0017474D01*
G01X0005306Y0017474D02*
G01X0005306Y0018447D01*
G01X0005306Y0018447D02*
G01X0005354Y0018627D01*
G01X0005354Y0018627D02*
G01X0005447Y0018788D01*
G01X0005447Y0018788D02*
G01X0005579Y0018919D01*
G01X0005579Y0018919D02*
G01X0005739Y0019012D01*
G01X0005739Y0019012D02*
G01X0005919Y0019060D01*
G01X0005919Y0019060D02*
G01X0006105Y0019060D01*
G01X0006105Y0019060D02*
G01X0006284Y0019012D01*
G01X0006284Y0019012D02*
G01X0006445Y0018919D01*
G01X0006445Y0018919D02*
G01X0006464Y0018900D01*
G01X0006464Y0018900D02*
G01X0006464Y0019249D01*
G01X0006464Y0019249D02*
G01X0006464Y0019304D01*
G01X0006464Y0019304D02*
G01X0006464Y0019359D01*
G01X0006464Y0019359D02*
G01X0006506Y0019460D01*
G01X0006506Y0019460D02*
G01X0006583Y0019538D01*
G01X0006583Y0019538D02*
G01X0006685Y0019580D01*
G01X0006685Y0019580D02*
G01X0006739Y0019580D01*
G01X0006739Y0019580D02*
G01X0006794Y0019580D01*
G01X0006794Y0019580D02*
G01X0007339Y0019580D01*
G01X0007339Y0019580D02*
G01X0007394Y0019580D01*
G01X0007394Y0019580D02*
G01X0007495Y0019538D01*
G01X0007495Y0019538D02*
G01X0007573Y0019460D01*
G01X0007573Y0019460D02*
G01X0007615Y0019359D01*
G01X0007615Y0019359D02*
G01X0007615Y0019327D01*
G01X0007615Y0019327D02*
G01X0007753Y0019466D01*
G01X0007753Y0019466D02*
G01X0007785Y0019498D01*
G01X0007785Y0019498D02*
G01X0007869Y0019533D01*
G01X0007869Y0019533D02*
G01X0007915Y0019533D01*
G01X0007915Y0019533D02*
G01X0008164Y0019533D01*
G01X0008164Y0019533D02*
G01X0008209Y0019533D01*
G01X0008209Y0019533D02*
G01X0008293Y0019498D01*
G01X0008293Y0019498D02*
G01X0008325Y0019466D01*
G01X0008325Y0019466D02*
G01X0008501Y0019290D01*
G01X0008501Y0019290D02*
G01X0008506Y0019285D01*
G01X0008506Y0019285D02*
G01X0008545Y0019323D01*
G01X0008545Y0019323D02*
G01X0008583Y0019362D01*
G01X0008583Y0019362D02*
G01X0008720Y0019499D01*
G01X0008720Y0019499D02*
G01X0008759Y0019537D01*
G01X0008759Y0019537D02*
G01X0008860Y0019579D01*
G01X0008860Y0019579D02*
G01X0008915Y0019580D01*
G01X0008915Y0019580D02*
G01X0009164Y0019580D01*
G01X0009164Y0019580D02*
G01X0009218Y0019580D01*
G01X0009218Y0019580D02*
G01X0009320Y0019538D01*
G01X0009320Y0019538D02*
G01X0009359Y0019499D01*
G01X0009359Y0019499D02*
G01X0009534Y0019323D01*
G01X0009534Y0019323D02*
G01X0009539Y0019318D01*
G01X0009539Y0019318D02*
G01X0009545Y0019323D01*
G01X0009545Y0019323D02*
G01X0009583Y0019362D01*
G01X0009583Y0019362D02*
G01X0009720Y0019499D01*
G01X0009720Y0019499D02*
G01X0009759Y0019537D01*
G01X0009759Y0019537D02*
G01X0009860Y0019579D01*
G01X0009860Y0019579D02*
G01X0009915Y0019580D01*
G01X0009915Y0019580D02*
G01X0010164Y0019580D01*
G01X0010164Y0019580D02*
G01X0010218Y0019580D01*
G01X0010218Y0019580D02*
G01X0010320Y0019538D01*
G01X0010320Y0019538D02*
G01X0010359Y0019499D01*
G01X0010359Y0019499D02*
G01X0010534Y0019323D01*
G01X0010534Y0019323D02*
G01X0010539Y0019318D01*
G01X0010539Y0019318D02*
G01X0010545Y0019323D01*
G01X0010545Y0019323D02*
G01X0010583Y0019362D01*
G01X0010583Y0019362D02*
G01X0010720Y0019499D01*
G01X0010720Y0019499D02*
G01X0010759Y0019537D01*
G01X0010759Y0019537D02*
G01X0010860Y0019579D01*
G01X0010860Y0019579D02*
G01X0010915Y0019580D01*
G01X0010915Y0019580D02*
G01X0011164Y0019580D01*
G01X0011164Y0019580D02*
G01X0011218Y0019580D01*
G01X0011218Y0019580D02*
G01X0011320Y0019538D01*
G01X0011320Y0019538D02*
G01X0011359Y0019499D01*
G01X0011359Y0019499D02*
G01X0011534Y0019323D01*
G01X0011534Y0019323D02*
G01X0011539Y0019318D01*
G01X0011539Y0019318D02*
G01X0011545Y0019323D01*
G01X0011545Y0019323D02*
G01X0011583Y0019362D01*
G01X0011583Y0019362D02*
G01X0011720Y0019499D01*
G01X0011720Y0019499D02*
G01X0011759Y0019537D01*
G01X0011759Y0019537D02*
G01X0011860Y0019579D01*
G01X0011860Y0019579D02*
G01X0011915Y0019580D01*
G01X0011915Y0019580D02*
G01X0012164Y0019580D01*
G01X0012164Y0019580D02*
G01X0012218Y0019580D01*
G01X0012218Y0019580D02*
G01X0012320Y0019538D01*
G01X0012320Y0019538D02*
G01X0012359Y0019499D01*
G01X0012359Y0019499D02*
G01X0012534Y0019323D01*
G01X0012534Y0019323D02*
G01X0012539Y0019318D01*
G01X0012539Y0019318D02*
G01X0012545Y0019323D01*
G01X0012545Y0019323D02*
G01X0012583Y0019362D01*
G01X0012583Y0019362D02*
G01X0012720Y0019499D01*
G01X0012720Y0019499D02*
G01X0012759Y0019537D01*
G01X0012759Y0019537D02*
G01X0012860Y0019579D01*
G01X0012860Y0019579D02*
G01X0012915Y0019580D01*
G01X0012915Y0019580D02*
G01X0013164Y0019580D01*
G01X0013164Y0019580D02*
G01X0013218Y0019580D01*
G01X0013218Y0019580D02*
G01X0013320Y0019538D01*
G01X0013320Y0019538D02*
G01X0013359Y0019499D01*
G01X0013359Y0019499D02*
G01X0013534Y0019323D01*
G01X0013534Y0019323D02*
G01X0013539Y0019318D01*
G01X0013539Y0019318D02*
G01X0013545Y0019323D01*
G01X0013545Y0019323D02*
G01X0013583Y0019362D01*
G01X0013583Y0019362D02*
G01X0013720Y0019499D01*
G01X0013720Y0019499D02*
G01X0013759Y0019537D01*
G01X0013759Y0019537D02*
G01X0013860Y0019579D01*
G01X0013860Y0019579D02*
G01X0013915Y0019580D01*
G01X0013915Y0019580D02*
G01X0014164Y0019580D01*
G01X0014164Y0019580D02*
G01X0014218Y0019580D01*
G01X0014218Y0019580D02*
G01X0014320Y0019538D01*
G01X0014320Y0019538D02*
G01X0014359Y0019499D01*
G01X0014359Y0019499D02*
G01X0014466Y0019391D01*
G01X0014466Y0019391D02*
G01X0016573Y0019979D01*
G01X0016573Y0019979D02*
G01X0016613Y0019995D01*
G01X0016613Y0019995D02*
G01X0016652Y0019995D01*
G01X0016652Y0019995D02*
G01X0016673Y0019995D01*
G01X0016673Y0019995D02*
G01X0016947Y0019995D01*
G01X0016947Y0019995D02*
G01X0017008Y0019995D01*
G01X0017008Y0019995D02*
G01X0017547Y0019995D01*
G01X0017547Y0019995D02*
G01X0017568Y0019995D01*
G01X0017568Y0019995D02*
G01X0019332Y0019875D01*
G01X0019332Y0019875D02*
G01X0019382Y0019875D01*
G01X0019382Y0019875D02*
G01X0019392Y0019871D01*
G01X0019392Y0019871D02*
G01X0019398Y0019871D01*
G01X0019398Y0019871D02*
G01X0019445Y0019849D01*
G01X0019445Y0019849D02*
G01X0019495Y0019829D01*
G01X0019495Y0019829D02*
G01X0019498Y0019825D01*
G01X0019498Y0019825D02*
G01X0019538Y0019786D01*
G01X0019538Y0019786D02*
G01X0019661Y0019662D01*
G01X0019661Y0019662D02*
G01X0019704Y0019619D01*
G01X0019704Y0019619D02*
G01X0019837Y0019487D01*
G01X0019837Y0019487D02*
G01X0019875Y0019449D01*
G01X0019875Y0019449D02*
G01X0019920Y0019352D01*
G01X0019920Y0019352D02*
G01X0019925Y0019298D01*
G01X0019925Y0019298D02*
G01X0020006Y0018405D01*
G01X0020006Y0018405D02*
G01X0020006Y0020006D01*
G01X0020006Y0020006D02*
G01X0000679Y0020006D01*
G01X0000679Y0020006D02*
G01X0000679Y0000679D01*
G01X0000679Y0000679D02*
G01X0020006Y0000679D01*
G01X0020006Y0000679D02*
G01X0020006Y0001060D01*
G01X0020006Y0001060D02*
G01X0019988Y0001042D01*
G01X0019988Y0001042D02*
G01X0019880Y0000996D01*
G01X0019880Y0000996D02*
G01X0019822Y0000994D01*
G01X0019822Y0000994D02*
G01X0014294Y0000836D01*
G01X0014294Y0000836D02*
G01X0014285Y0000835D01*
G01X0014285Y0000835D02*
G01X0014072Y0000835D01*
G01X0014072Y0000835D02*
G01X0014011Y0000835D01*
G01X0014011Y0000835D02*
G01X0013762Y0000835D01*
G01X0013762Y0000835D02*
G01X0013757Y0000836D01*
G01X0013757Y0000836D02*
G01X0013702Y0000835D01*
G01X0013702Y0000835D02*
G01X0013699Y0000836D01*
G01X0013699Y0000836D02*
G01X0006631Y0000956D01*
G01X0006631Y0000956D02*
G01X0006572Y0000957D01*
G01X0006572Y0000957D02*
G01X0006462Y0001003D01*
G01X0006462Y0001003D02*
G01X0006420Y0001045D01*
G01X0006420Y0001045D02*
G01X0006297Y0001168D01*
G01X0006297Y0001168D02*
G01X0006285Y0001181D01*
G01X0006285Y0001181D02*
G01X0006263Y0001209D01*
G01X0006263Y0001209D02*
G01X0006253Y0001224D01*
G01X0006253Y0001224D02*
G01X0004304Y0004377D01*
G01X0004304Y0004377D02*
G01X0004132Y0004377D01*
G01X0004132Y0004377D02*
G01X0004077Y0004377D01*
G01X0004077Y0004377D02*
G01X0003976Y0004419D01*
G01X0003976Y0004419D02*
G01X0003937Y0004458D01*
G01X0003937Y0004458D02*
G01X0003800Y0004595D01*
G01X0003800Y0004595D02*
G01X0003761Y0004634D01*
G01X0003761Y0004634D02*
G01X0003723Y0004672D01*
G01X0003723Y0004672D02*
G01X0003718Y0004667D01*
G01X0003718Y0004667D02*
G01X0003542Y0004491D01*
G01X0003542Y0004491D02*
G01X0003510Y0004459D01*
G01X0003510Y0004459D02*
G01X0003426Y0004424D01*
G01X0003426Y0004424D02*
G01X0003380Y0004424D01*
G01X0003380Y0004424D02*
G01X0003132Y0004424D01*
G01X0003132Y0004424D02*
G01X0003086Y0004424D01*
G01X0003086Y0004424D02*
G01X0003002Y0004459D01*
G01X0003002Y0004459D02*
G01X0002970Y0004491D01*
G01X0002970Y0004491D02*
G01X0002826Y0004635D01*
G01X0002826Y0004635D02*
G01X0002794Y0004667D01*
G01X0002794Y0004667D02*
G01X0002789Y0004672D01*
G01X0002789Y0004672D02*
G01X0002751Y0004634D01*
G01X0002751Y0004634D02*
G01X0002575Y0004458D01*
G01X0002575Y0004458D02*
G01X0002536Y0004419D01*
G01X0002536Y0004419D02*
G01X0002435Y0004377D01*
G01X0002435Y0004377D02*
G01X0002380Y0004377D01*
G01X0002380Y0004377D02*
G01X0002132Y0004377D01*
G01X0002132Y0004377D02*
G01X0002077Y0004377D01*
G01X0002077Y0004377D02*
G01X0001976Y0004419D01*
G01X0001976Y0004419D02*
G01X0001937Y0004458D01*
G01X0001937Y0004458D02*
G01X0001821Y0004573D01*
G01X0001821Y0004573D02*
G01X0001790Y0004497D01*
G01X0001790Y0004497D02*
G01X0001712Y0004419D01*
G01X0001712Y0004419D02*
G01X0001611Y0004377D01*
G01X0001611Y0004377D02*
G01X0001556Y0004377D01*
G01X0001556Y0004377D02*
G01X0001011Y0004377D01*
G01X0001011Y0004377D02*
G01X0000956Y0004377D01*
G01X0000956Y0004377D02*
G01X0000901Y0004377D01*
G01X0000901Y0004377D02*
G01X0000800Y0004419D01*
G01X0000800Y0004419D02*
G01X0000722Y0004497D01*
G01X0000722Y0004497D02*
G01X0000680Y0004598D01*
G01X0000680Y0004598D02*
G01X0000680Y0004653D01*
G01X0000680Y0004653D02*
G01X0000680Y0004708D01*
G01X0000680Y0004708D02*
G01X0000680Y0005253D01*
G01X0000680Y0005253D02*
G01X0000680Y0005307D01*
G01X0000680Y0005307D02*
G01X0000722Y0005409D01*
G01X0000722Y0005409D02*
G01X0000800Y0005486D01*
G01X0000800Y0005486D02*
G01X0000901Y0005528D01*
G01X0000901Y0005528D02*
G01X0000956Y0005528D01*
G01X0000956Y0005528D02*
G01X0001556Y0005528D01*
G01X0001556Y0005528D02*
G01X0001610Y0005528D01*
G01X0001610Y0005528D02*
G01X0001712Y0005487D01*
G01X0001712Y0005487D02*
G01X0001789Y0005409D01*
G01X0001789Y0005409D02*
G01X0001821Y0005332D01*
G01X0001821Y0005332D02*
G01X0001937Y0005448D01*
G01X0001937Y0005448D02*
G01X0001975Y0005486D01*
G01X0001975Y0005486D02*
G01X0002077Y0005528D01*
G01X0002077Y0005528D02*
G01X0002132Y0005528D01*
G01X0002132Y0005528D02*
G01X0002380Y0005528D01*
G01X0002380Y0005528D02*
G01X0002435Y0005528D01*
G01X0002435Y0005528D02*
G01X0002536Y0005487D01*
G01X0002536Y0005487D02*
G01X0002575Y0005448D01*
G01X0002575Y0005448D02*
G01X0002751Y0005272D01*
G01X0002751Y0005272D02*
G01X0002789Y0005234D01*
G01X0002789Y0005234D02*
G01X0002794Y0005239D01*
G01X0002794Y0005239D02*
G01X0002970Y0005414D01*
G01X0002970Y0005414D02*
G01X0003002Y0005447D01*
G01X0003002Y0005447D02*
G01X0003086Y0005481D01*
G01X0003086Y0005481D02*
G01X0003132Y0005481D01*
G01X0003132Y0005481D02*
G01X0003380Y0005481D01*
G01X0003380Y0005481D02*
G01X0003425Y0005482D01*
G01X0003425Y0005482D02*
G01X0003510Y0005447D01*
G01X0003510Y0005447D02*
G01X0003542Y0005414D01*
G01X0003542Y0005414D02*
G01X0003718Y0005239D01*
G01X0003718Y0005239D02*
G01X0003723Y0005234D01*
G01X0003723Y0005234D02*
G01X0003761Y0005272D01*
G01X0003761Y0005272D02*
G01X0003937Y0005448D01*
G01X0003937Y0005448D02*
G01X0003975Y0005486D01*
G01X0003975Y0005486D02*
G01X0004077Y0005528D01*
G01X0004077Y0005528D02*
G01X0004132Y0005528D01*
G01X0004132Y0005528D02*
G01X0004380Y0005528D01*
G01X0004380Y0005528D02*
G01X0004435Y0005528D01*
G01X0004435Y0005528D02*
G01X0004536Y0005487D01*
G01X0004536Y0005487D02*
G01X0004575Y0005448D01*
G01X0004575Y0005448D02*
G01X0004751Y0005272D01*
G01X0004751Y0005272D02*
G01X0004756Y0005267D01*
G01X0004756Y0005267D02*
G01X0004761Y0005272D01*
G01X0004761Y0005272D02*
G01X0004937Y0005448D01*
G01X0004937Y0005448D02*
G01X0004975Y0005486D01*
G01X0004975Y0005486D02*
G01X0005067Y0005524D01*
G01X0005067Y0005524D02*
G01X0007540Y0010306D01*
G01X0007540Y0010306D02*
G01X0007551Y0010327D01*
G01X0007551Y0010327D02*
G01X0007579Y0010365D01*
G01X0007579Y0010365D02*
G01X0007595Y0010381D01*
G01X0007595Y0010381D02*
G01X0007729Y0010515D01*
G01X0007729Y0010515D02*
G01X0007772Y0010558D01*
G01X0007772Y0010558D02*
G01X0007884Y0010604D01*
G01X0007884Y0010604D02*
G01X0007945Y0010604D01*
G01X0007945Y0010604D02*
G01X0008134Y0010604D01*
G01X0008134Y0010604D02*
G01X0008150Y0010604D01*
G01X0008150Y0010604D02*
G01X0008183Y0010601D01*
G01X0008183Y0010601D02*
G01X0008198Y0010598D01*
G01X0008198Y0010598D02*
G01X0011342Y0009920D01*
G01X0011342Y0009920D02*
G01X0011236Y0010026D01*
G01X0011236Y0010026D02*
G01X0011173Y0010178D01*
G01X0011173Y0010178D02*
G01X0011173Y0010342D01*
G01X0011173Y0010342D02*
G01X0011236Y0010494D01*
G01X0011236Y0010494D02*
G01X0011352Y0010610D01*
G01X0011352Y0010610D02*
G01X0011504Y0010673D01*
G01X0011504Y0010673D02*
G01X0011669Y0010673D01*
G01X0011669Y0010673D02*
G01X0011821Y0010610D01*
G01X0011821Y0010610D02*
G01X0011937Y0010494D01*
G01X0011937Y0010494D02*
G01X0011978Y0010396D01*
G01X0011978Y0010396D02*
G01X0011986Y0010382D01*
G01X0011986Y0010382D02*
G01X0011988Y0010372D01*
G01X0011988Y0010372D02*
G01X0012000Y0010342D01*
G01X0012000Y0010342D02*
G01X0012000Y0010291D01*
G01X0012000Y0010291D02*
G01X0012010Y0010227D01*
G01X0012010Y0010227D02*
G01X0013763Y0008104D01*
G01X0013763Y0008104D02*
G01X0013786Y0008096D01*
G01X0013786Y0008096D02*
G01X0013797Y0008096D01*
G01X0013797Y0008096D02*
G01X0013863Y0008068D01*
G01X0013863Y0008068D02*
G01X0013910Y0008052D01*
G01X0013910Y0008052D02*
G01X0013916Y0008046D01*
G01X0013916Y0008046D02*
G01X0013949Y0008033D01*
G01X0013949Y0008033D02*
G01X0014019Y0007963D01*
G01X0014019Y0007963D02*
G01X0014403Y0008469D01*
G01X0014403Y0008469D02*
G01X0014410Y0008479D01*
G01X0014410Y0008479D02*
G01X0014482Y0008566D01*
G01X0014482Y0008566D02*
G01X0014492Y0008630D01*
G01X0014492Y0008630D02*
G01X0014492Y0008681D01*
G01X0014492Y0008681D02*
G01X0014504Y0008710D01*
G01X0014504Y0008710D02*
G01X0014506Y0008721D01*
G01X0014506Y0008721D02*
G01X0014515Y0008735D01*
G01X0014515Y0008735D02*
G01X0014555Y0008833D01*
G01X0014555Y0008833D02*
G01X0014671Y0008949D01*
G01X0014671Y0008949D02*
G01X0014819Y0009010D01*
G01X0014819Y0009010D02*
G01X0014808Y0009410D01*
G01X0014808Y0009410D02*
G01X0014781Y0009452D01*
G01X0014781Y0009452D02*
G01X0014754Y0009478D01*
G01X0014754Y0009478D02*
G01X0014737Y0009521D01*
G01X0014737Y0009521D02*
G01X0014724Y0009542D01*
G01X0014724Y0009542D02*
G01X0014720Y0009561D01*
G01X0014720Y0009561D02*
G01X0014720Y0009561D01*
G01X0003842Y0014889D02*
G01X0003810Y0014892D01*
G01X0003810Y0014892D02*
G01X0003728Y0014852D01*
G01X0003728Y0014852D02*
G01X0003728Y0014575D01*
G01X0003728Y0014575D02*
G01X0003728Y0014520D01*
G01X0003728Y0014520D02*
G01X0003687Y0014419D01*
G01X0003687Y0014419D02*
G01X0003609Y0014341D01*
G01X0003609Y0014341D02*
G01X0003508Y0014299D01*
G01X0003508Y0014299D02*
G01X0003453Y0014299D01*
G01X0003453Y0014299D02*
G01X0002862Y0014299D01*
G01X0002862Y0014299D02*
G01X0002808Y0014299D01*
G01X0002808Y0014299D02*
G01X0002706Y0014341D01*
G01X0002706Y0014341D02*
G01X0002629Y0014419D01*
G01X0002629Y0014419D02*
G01X0002587Y0014520D01*
G01X0002587Y0014520D02*
G01X0002587Y0014575D01*
G01X0002587Y0014575D02*
G01X0002587Y0015111D01*
G01X0002587Y0015111D02*
G01X0002587Y0015165D01*
G01X0002587Y0015165D02*
G01X0002587Y0015220D01*
G01X0002587Y0015220D02*
G01X0002629Y0015321D01*
G01X0002629Y0015321D02*
G01X0002706Y0015399D01*
G01X0002706Y0015399D02*
G01X0002807Y0015441D01*
G01X0002807Y0015441D02*
G01X0002862Y0015441D01*
G01X0002862Y0015441D02*
G01X0002917Y0015441D01*
G01X0002917Y0015441D02*
G01X0003453Y0015441D01*
G01X0003453Y0015441D02*
G01X0003507Y0015441D01*
G01X0003507Y0015441D02*
G01X0003526Y0015433D01*
G01X0003526Y0015433D02*
G01X0003543Y0015441D01*
G01X0003543Y0015441D02*
G01X0003574Y0015489D01*
G01X0003574Y0015489D02*
G01X0003591Y0015529D01*
G01X0003591Y0015529D02*
G01X0003618Y0015557D01*
G01X0003618Y0015557D02*
G01X0003628Y0015572D01*
G01X0003628Y0015572D02*
G01X0003644Y0015583D01*
G01X0003644Y0015583D02*
G01X0003707Y0015646D01*
G01X0003707Y0015646D02*
G01X0003837Y0015700D01*
G01X0003837Y0015700D02*
G01X0003779Y0015799D01*
G01X0003779Y0015799D02*
G01X0003731Y0015978D01*
G01X0003731Y0015978D02*
G01X0003731Y0016164D01*
G01X0003731Y0016164D02*
G01X0003779Y0016343D01*
G01X0003779Y0016343D02*
G01X0003872Y0016504D01*
G01X0003872Y0016504D02*
G01X0004004Y0016635D01*
G01X0004004Y0016635D02*
G01X0004165Y0016728D01*
G01X0004165Y0016728D02*
G01X0004344Y0016776D01*
G01X0004344Y0016776D02*
G01X0005317Y0016776D01*
G01X0005317Y0016776D02*
G01X0005497Y0016728D01*
G01X0005497Y0016728D02*
G01X0005658Y0016635D01*
G01X0005658Y0016635D02*
G01X0005789Y0016504D01*
G01X0005789Y0016504D02*
G01X0005882Y0016343D01*
G01X0005882Y0016343D02*
G01X0005930Y0016164D01*
G01X0005930Y0016164D02*
G01X0005930Y0015978D01*
G01X0005930Y0015978D02*
G01X0005882Y0015799D01*
G01X0005882Y0015799D02*
G01X0005789Y0015638D01*
G01X0005789Y0015638D02*
G01X0005658Y0015506D01*
G01X0005658Y0015506D02*
G01X0005497Y0015413D01*
G01X0005497Y0015413D02*
G01X0005317Y0015365D01*
G01X0005317Y0015365D02*
G01X0004354Y0015365D01*
G01X0004354Y0015365D02*
G01X0004354Y0015213D01*
G01X0004354Y0015213D02*
G01X0004291Y0015061D01*
G01X0004291Y0015061D02*
G01X0004175Y0014945D01*
G01X0004175Y0014945D02*
G01X0004023Y0014882D01*
G01X0004023Y0014882D02*
G01X0003978Y0014882D01*
G01X0003978Y0014882D02*
G01X0003966Y0014878D01*
G01X0003966Y0014878D02*
G01X0003923Y0014882D01*
G01X0003923Y0014882D02*
G01X0003859Y0014882D01*
G01X0003859Y0014882D02*
G01X0003842Y0014889D01*
G01X0001484Y0015394D02*
G01X0001530Y0015394D01*
G01X0001530Y0015394D02*
G01X0002075Y0015394D01*
G01X0002075Y0015394D02*
G01X0002120Y0015394D01*
G01X0002120Y0015394D02*
G01X0002204Y0015359D01*
G01X0002204Y0015359D02*
G01X0002269Y0015295D01*
G01X0002269Y0015295D02*
G01X0002304Y0015211D01*
G01X0002304Y0015211D02*
G01X0002304Y0015165D01*
G01X0002304Y0015165D02*
G01X0002304Y0014575D01*
G01X0002304Y0014575D02*
G01X0002304Y0014529D01*
G01X0002304Y0014529D02*
G01X0002269Y0014445D01*
G01X0002269Y0014445D02*
G01X0002205Y0014381D01*
G01X0002205Y0014381D02*
G01X0002121Y0014346D01*
G01X0002121Y0014346D02*
G01X0002075Y0014346D01*
G01X0002075Y0014346D02*
G01X0001484Y0014346D01*
G01X0001484Y0014346D02*
G01X0001439Y0014346D01*
G01X0001439Y0014346D02*
G01X0001355Y0014381D01*
G01X0001355Y0014381D02*
G01X0001290Y0014445D01*
G01X0001290Y0014445D02*
G01X0001256Y0014529D01*
G01X0001256Y0014529D02*
G01X0001256Y0014575D01*
G01X0001256Y0014575D02*
G01X0001256Y0015120D01*
G01X0001256Y0015120D02*
G01X0001256Y0015165D01*
G01X0001256Y0015165D02*
G01X0001256Y0015211D01*
G01X0001256Y0015211D02*
G01X0001290Y0015295D01*
G01X0001290Y0015295D02*
G01X0001355Y0015359D01*
G01X0001355Y0015359D02*
G01X0001439Y0015394D01*
G01X0001439Y0015394D02*
G01X0001484Y0015394D01*
G01X0006767Y0017686D02*
G01X0006767Y0017731D01*
G01X0006767Y0017731D02*
G01X0006802Y0017815D01*
G01X0006802Y0017815D02*
G01X0006866Y0017880D01*
G01X0006866Y0017880D02*
G01X0006950Y0017915D01*
G01X0006950Y0017915D02*
G01X0006996Y0017915D01*
G01X0006996Y0017915D02*
G01X0008965Y0017915D01*
G01X0008965Y0017915D02*
G01X0009010Y0017915D01*
G01X0009010Y0017915D02*
G01X0009094Y0017880D01*
G01X0009094Y0017880D02*
G01X0009158Y0017816D01*
G01X0009158Y0017816D02*
G01X0009193Y0017732D01*
G01X0009193Y0017732D02*
G01X0009193Y0017686D01*
G01X0009193Y0017686D02*
G01X0009193Y0016111D01*
G01X0009193Y0016111D02*
G01X0009193Y0016066D01*
G01X0009193Y0016066D02*
G01X0009159Y0015982D01*
G01X0009159Y0015982D02*
G01X0009094Y0015917D01*
G01X0009094Y0015917D02*
G01X0009010Y0015883D01*
G01X0009010Y0015883D02*
G01X0008965Y0015882D01*
G01X0008965Y0015882D02*
G01X0007042Y0015882D01*
G01X0007042Y0015882D02*
G01X0006996Y0015882D01*
G01X0006996Y0015882D02*
G01X0006951Y0015882D01*
G01X0006951Y0015882D02*
G01X0006866Y0015917D01*
G01X0006866Y0015917D02*
G01X0006802Y0015982D01*
G01X0006802Y0015982D02*
G01X0006767Y0016066D01*
G01X0006767Y0016066D02*
G01X0006767Y0016111D01*
G01X0006767Y0016111D02*
G01X0006767Y0016157D01*
G01X0006767Y0016157D02*
G01X0006767Y0017686D01*
G01X0004308Y0017436D02*
G01X0004208Y0017194D01*
G01X0004208Y0017194D02*
G01X0004023Y0017008D01*
G01X0004023Y0017008D02*
G01X0003781Y0016908D01*
G01X0003781Y0016908D02*
G01X0003519Y0016908D01*
G01X0003519Y0016908D02*
G01X0003276Y0017008D01*
G01X0003276Y0017008D02*
G01X0003091Y0017194D01*
G01X0003091Y0017194D02*
G01X0002991Y0017436D01*
G01X0002991Y0017436D02*
G01X0002991Y0018485D01*
G01X0002991Y0018485D02*
G01X0003091Y0018727D01*
G01X0003091Y0018727D02*
G01X0003276Y0018913D01*
G01X0003276Y0018913D02*
G01X0003519Y0019013D01*
G01X0003519Y0019013D02*
G01X0003781Y0019013D01*
G01X0003781Y0019013D02*
G01X0004023Y0018913D01*
G01X0004023Y0018913D02*
G01X0004208Y0018727D01*
G01X0004208Y0018727D02*
G01X0004308Y0018485D01*
G01X0004308Y0018485D02*
G01X0004308Y0017436D01*
G01X0013097Y0007373D02*
G01X0013090Y0007449D01*
G01X0013090Y0007449D02*
G01X0011854Y0009143D01*
G01X0011854Y0009143D02*
G01X0011800Y0009196D01*
G01X0011800Y0009196D02*
G01X0008714Y0009861D01*
G01X0008714Y0009861D02*
G01X0009406Y0009219D01*
G01X0009406Y0009219D02*
G01X0009457Y0009209D01*
G01X0009457Y0009209D02*
G01X0009496Y0009209D01*
G01X0009496Y0009209D02*
G01X0009537Y0009192D01*
G01X0009537Y0009192D02*
G01X0009559Y0009187D01*
G01X0009559Y0009187D02*
G01X0009575Y0009176D01*
G01X0009575Y0009176D02*
G01X0009648Y0009146D01*
G01X0009648Y0009146D02*
G01X0009764Y0009029D01*
G01X0009764Y0009029D02*
G01X0009827Y0008878D01*
G01X0009827Y0008878D02*
G01X0009827Y0008713D01*
G01X0009827Y0008713D02*
G01X0009764Y0008561D01*
G01X0009764Y0008561D02*
G01X0009724Y0008521D01*
G01X0009724Y0008521D02*
G01X0009716Y0008507D01*
G01X0009716Y0008507D02*
G01X0009688Y0008485D01*
G01X0009688Y0008485D02*
G01X0009648Y0008445D01*
G01X0009648Y0008445D02*
G01X0009624Y0008435D01*
G01X0009624Y0008435D02*
G01X0009593Y0008411D01*
G01X0009593Y0008411D02*
G01X0009026Y0006943D01*
G01X0009026Y0006943D02*
G01X0009026Y0006709D01*
G01X0009026Y0006709D02*
G01X0009120Y0006670D01*
G01X0009120Y0006670D02*
G01X0009198Y0006592D01*
G01X0009198Y0006592D02*
G01X0009240Y0006491D01*
G01X0009240Y0006491D02*
G01X0009240Y0006436D01*
G01X0009240Y0006436D02*
G01X0009240Y0004861D01*
G01X0009240Y0004861D02*
G01X0009240Y0004807D01*
G01X0009240Y0004807D02*
G01X0009198Y0004705D01*
G01X0009198Y0004705D02*
G01X0009121Y0004628D01*
G01X0009121Y0004628D02*
G01X0009020Y0004586D01*
G01X0009020Y0004586D02*
G01X0008965Y0004586D01*
G01X0008965Y0004586D02*
G01X0007051Y0004586D01*
G01X0007051Y0004586D02*
G01X0006996Y0004586D01*
G01X0006996Y0004586D02*
G01X0006941Y0004586D01*
G01X0006941Y0004586D02*
G01X0006840Y0004628D01*
G01X0006840Y0004628D02*
G01X0006762Y0004705D01*
G01X0006762Y0004705D02*
G01X0006720Y0004806D01*
G01X0006720Y0004806D02*
G01X0006720Y0004861D01*
G01X0006720Y0004861D02*
G01X0006720Y0004916D01*
G01X0006720Y0004916D02*
G01X0006720Y0006436D01*
G01X0006720Y0006436D02*
G01X0006720Y0006491D01*
G01X0006720Y0006491D02*
G01X0006762Y0006592D01*
G01X0006762Y0006592D02*
G01X0006840Y0006670D01*
G01X0006840Y0006670D02*
G01X0006941Y0006712D01*
G01X0006941Y0006712D02*
G01X0006996Y0006712D01*
G01X0006996Y0006712D02*
G01X0008415Y0006712D01*
G01X0008415Y0006712D02*
G01X0008415Y0007000D01*
G01X0008415Y0007000D02*
G01X0008415Y0007028D01*
G01X0008415Y0007028D02*
G01X0008426Y0007084D01*
G01X0008426Y0007084D02*
G01X0008436Y0007110D01*
G01X0008436Y0007110D02*
G01X0009022Y0008631D01*
G01X0009022Y0008631D02*
G01X0009014Y0008680D01*
G01X0009014Y0008680D02*
G01X0009000Y0008713D01*
G01X0009000Y0008713D02*
G01X0009000Y0008736D01*
G01X0009000Y0008736D02*
G01X0008990Y0008771D01*
G01X0008990Y0008771D02*
G01X0008047Y0009647D01*
G01X0008047Y0009647D02*
G01X0007996Y0009657D01*
G01X0007996Y0009657D02*
G01X0007957Y0009657D01*
G01X0007957Y0009657D02*
G01X0007916Y0009674D01*
G01X0007916Y0009674D02*
G01X0007903Y0009677D01*
G01X0007903Y0009677D02*
G01X0005668Y0005355D01*
G01X0005668Y0005355D02*
G01X0005751Y0005272D01*
G01X0005751Y0005272D02*
G01X0005789Y0005233D01*
G01X0005789Y0005233D02*
G01X0005831Y0005132D01*
G01X0005831Y0005132D02*
G01X0005831Y0005077D01*
G01X0005831Y0005077D02*
G01X0005831Y0004829D01*
G01X0005831Y0004829D02*
G01X0005832Y0004774D01*
G01X0005832Y0004774D02*
G01X0005790Y0004673D01*
G01X0005790Y0004673D02*
G01X0005751Y0004634D01*
G01X0005751Y0004634D02*
G01X0005575Y0004458D01*
G01X0005575Y0004458D02*
G01X0005536Y0004419D01*
G01X0005536Y0004419D02*
G01X0005435Y0004377D01*
G01X0005435Y0004377D02*
G01X0005380Y0004377D01*
G01X0005380Y0004377D02*
G01X0005132Y0004377D01*
G01X0005132Y0004377D02*
G01X0005077Y0004377D01*
G01X0005077Y0004377D02*
G01X0005005Y0004407D01*
G01X0005005Y0004407D02*
G01X0006328Y0002266D01*
G01X0006328Y0002266D02*
G01X0006328Y0002872D01*
G01X0006328Y0002872D02*
G01X0006328Y0002933D01*
G01X0006328Y0002933D02*
G01X0006328Y0002994D01*
G01X0006328Y0002994D02*
G01X0006374Y0003106D01*
G01X0006374Y0003106D02*
G01X0006417Y0003149D01*
G01X0006417Y0003149D02*
G01X0006470Y0003202D01*
G01X0006470Y0003202D02*
G01X0006513Y0003245D01*
G01X0006513Y0003245D02*
G01X0006646Y0003378D01*
G01X0006646Y0003378D02*
G01X0006675Y0003407D01*
G01X0006675Y0003407D02*
G01X0006744Y0003447D01*
G01X0006744Y0003447D02*
G01X0006783Y0003457D01*
G01X0006783Y0003457D02*
G01X0007684Y0003697D01*
G01X0007684Y0003697D02*
G01X0007684Y0003698D01*
G01X0007684Y0003698D02*
G01X0008439Y0003897D01*
G01X0008439Y0003897D02*
G01X0013207Y0007110D01*
G01X0013207Y0007110D02*
G01X0013160Y0007157D01*
G01X0013160Y0007157D02*
G01X0013097Y0007309D01*
G01X0013097Y0007309D02*
G01X0013097Y0007373D01*
G01X0013097Y0007373D02*
G01X0013097Y0007373D01*
G01X0016384Y0009897D02*
G01X0016435Y0010201D01*
G01X0016435Y0010201D02*
G01X0016436Y0010209D01*
G01X0016436Y0010209D02*
G01X0016440Y0010226D01*
G01X0016440Y0010226D02*
G01X0016442Y0010234D01*
G01X0016442Y0010234D02*
G01X0017392Y0013586D01*
G01X0017392Y0013586D02*
G01X0017399Y0013608D01*
G01X0017399Y0013608D02*
G01X0017418Y0013650D01*
G01X0017418Y0013650D02*
G01X0017430Y0013669D01*
G01X0017430Y0013669D02*
G01X0017903Y0014399D01*
G01X0017903Y0014399D02*
G01X0017853Y0014419D01*
G01X0017853Y0014419D02*
G01X0017820Y0014452D01*
G01X0017820Y0014452D02*
G01X0017682Y0014590D01*
G01X0017682Y0014590D02*
G01X0017682Y0014559D01*
G01X0017682Y0014559D02*
G01X0017640Y0014457D01*
G01X0017640Y0014457D02*
G01X0017563Y0014380D01*
G01X0017563Y0014380D02*
G01X0017461Y0014338D01*
G01X0017461Y0014338D02*
G01X0017406Y0014338D01*
G01X0017406Y0014338D02*
G01X0016806Y0014338D01*
G01X0016806Y0014338D02*
G01X0016752Y0014338D01*
G01X0016752Y0014338D02*
G01X0016650Y0014380D01*
G01X0016650Y0014380D02*
G01X0016573Y0014457D01*
G01X0016573Y0014457D02*
G01X0016531Y0014558D01*
G01X0016531Y0014558D02*
G01X0016531Y0014613D01*
G01X0016531Y0014613D02*
G01X0016531Y0015159D01*
G01X0016531Y0015159D02*
G01X0016531Y0015213D01*
G01X0016531Y0015213D02*
G01X0016531Y0015268D01*
G01X0016531Y0015268D02*
G01X0016573Y0015369D01*
G01X0016573Y0015369D02*
G01X0016650Y0015447D01*
G01X0016650Y0015447D02*
G01X0016751Y0015489D01*
G01X0016751Y0015489D02*
G01X0016806Y0015489D01*
G01X0016806Y0015489D02*
G01X0016861Y0015489D01*
G01X0016861Y0015489D02*
G01X0017406Y0015489D01*
G01X0017406Y0015489D02*
G01X0017461Y0015489D01*
G01X0017461Y0015489D02*
G01X0017562Y0015447D01*
G01X0017562Y0015447D02*
G01X0017640Y0015370D01*
G01X0017640Y0015370D02*
G01X0017682Y0015268D01*
G01X0017682Y0015268D02*
G01X0017682Y0015237D01*
G01X0017682Y0015237D02*
G01X0017820Y0015375D01*
G01X0017820Y0015375D02*
G01X0017852Y0015407D01*
G01X0017852Y0015407D02*
G01X0017870Y0015415D01*
G01X0017870Y0015415D02*
G01X0017491Y0015933D01*
G01X0017491Y0015933D02*
G01X0017396Y0015837D01*
G01X0017396Y0015837D02*
G01X0017364Y0015805D01*
G01X0017364Y0015805D02*
G01X0017280Y0015771D01*
G01X0017280Y0015771D02*
G01X0017234Y0015770D01*
G01X0017234Y0015770D02*
G01X0016986Y0015770D01*
G01X0016986Y0015770D02*
G01X0016941Y0015770D01*
G01X0016941Y0015770D02*
G01X0016857Y0015805D01*
G01X0016857Y0015805D02*
G01X0016824Y0015837D01*
G01X0016824Y0015837D02*
G01X0016686Y0015976D01*
G01X0016686Y0015976D02*
G01X0016686Y0015945D01*
G01X0016686Y0015945D02*
G01X0016644Y0015843D01*
G01X0016644Y0015843D02*
G01X0016567Y0015766D01*
G01X0016567Y0015766D02*
G01X0016465Y0015724D01*
G01X0016465Y0015724D02*
G01X0016410Y0015724D01*
G01X0016410Y0015724D02*
G01X0015810Y0015724D01*
G01X0015810Y0015724D02*
G01X0015756Y0015724D01*
G01X0015756Y0015724D02*
G01X0015654Y0015765D01*
G01X0015654Y0015765D02*
G01X0015577Y0015843D01*
G01X0015577Y0015843D02*
G01X0015535Y0015944D01*
G01X0015535Y0015944D02*
G01X0015535Y0015999D01*
G01X0015535Y0015999D02*
G01X0015535Y0016544D01*
G01X0015535Y0016544D02*
G01X0015535Y0016599D01*
G01X0015535Y0016599D02*
G01X0015535Y0016654D01*
G01X0015535Y0016654D02*
G01X0015577Y0016755D01*
G01X0015577Y0016755D02*
G01X0015654Y0016833D01*
G01X0015654Y0016833D02*
G01X0015755Y0016875D01*
G01X0015755Y0016875D02*
G01X0015810Y0016875D01*
G01X0015810Y0016875D02*
G01X0015865Y0016875D01*
G01X0015865Y0016875D02*
G01X0016410Y0016875D01*
G01X0016410Y0016875D02*
G01X0016465Y0016875D01*
G01X0016465Y0016875D02*
G01X0016566Y0016833D01*
G01X0016566Y0016833D02*
G01X0016644Y0016756D01*
G01X0016644Y0016756D02*
G01X0016686Y0016654D01*
G01X0016686Y0016654D02*
G01X0016686Y0016623D01*
G01X0016686Y0016623D02*
G01X0016824Y0016760D01*
G01X0016824Y0016760D02*
G01X0016488Y0017136D01*
G01X0016488Y0017136D02*
G01X0016451Y0017178D01*
G01X0016451Y0017178D02*
G01X0016410Y0017284D01*
G01X0016410Y0017284D02*
G01X0016411Y0017340D01*
G01X0016411Y0017340D02*
G01X0016411Y0017354D01*
G01X0016411Y0017354D02*
G01X0016411Y0017415D01*
G01X0016411Y0017415D02*
G01X0016411Y0018015D01*
G01X0016411Y0018015D02*
G01X0016411Y0018015D01*
G01X0016411Y0018015D02*
G01X0016411Y0018075D01*
G01X0016411Y0018075D02*
G01X0016411Y0018076D01*
G01X0016411Y0018076D02*
G01X0016414Y0019300D01*
G01X0016414Y0019300D02*
G01X0014602Y0018794D01*
G01X0014602Y0018794D02*
G01X0014573Y0018724D01*
G01X0014573Y0018724D02*
G01X0014534Y0018685D01*
G01X0014534Y0018685D02*
G01X0014359Y0018509D01*
G01X0014359Y0018509D02*
G01X0014320Y0018470D01*
G01X0014320Y0018470D02*
G01X0014219Y0018428D01*
G01X0014219Y0018428D02*
G01X0014164Y0018428D01*
G01X0014164Y0018428D02*
G01X0013915Y0018428D01*
G01X0013915Y0018428D02*
G01X0013861Y0018428D01*
G01X0013861Y0018428D02*
G01X0013759Y0018470D01*
G01X0013759Y0018470D02*
G01X0013720Y0018509D01*
G01X0013720Y0018509D02*
G01X0013544Y0018685D01*
G01X0013544Y0018685D02*
G01X0013539Y0018690D01*
G01X0013539Y0018690D02*
G01X0013534Y0018685D01*
G01X0013534Y0018685D02*
G01X0013359Y0018509D01*
G01X0013359Y0018509D02*
G01X0013320Y0018470D01*
G01X0013320Y0018470D02*
G01X0013261Y0018446D01*
G01X0013261Y0018446D02*
G01X0013058Y0017714D01*
G01X0013058Y0017714D02*
G01X0013058Y0017630D01*
G01X0013058Y0017630D02*
G01X0014331Y0014698D01*
G01X0014331Y0014698D02*
G01X0014332Y0014697D01*
G01X0014332Y0014697D02*
G01X0016265Y0010298D01*
G01X0016265Y0010298D02*
G01X0016267Y0010292D01*
G01X0016267Y0010292D02*
G01X0016336Y0010125D01*
G01X0016336Y0010125D02*
G01X0016343Y0010110D01*
G01X0016343Y0010110D02*
G01X0016352Y0010078D01*
G01X0016352Y0010078D02*
G01X0016355Y0010062D01*
G01X0016355Y0010062D02*
G01X0016384Y0009897D01*
G01X0016384Y0009897D02*
G01X0016384Y0009897D01*
G01X0018122Y0004874D02*
G01X0018116Y0004830D01*
G01X0018116Y0004830D02*
G01X0018664Y0003513D01*
G01X0018664Y0003513D02*
G01X0018675Y0003485D01*
G01X0018675Y0003485D02*
G01X0018687Y0003426D01*
G01X0018687Y0003426D02*
G01X0018687Y0003396D01*
G01X0018687Y0003396D02*
G01X0018687Y0002866D01*
G01X0018687Y0002866D02*
G01X0018687Y0002805D01*
G01X0018687Y0002805D02*
G01X0018687Y0002730D01*
G01X0018687Y0002730D02*
G01X0018687Y0002670D01*
G01X0018687Y0002670D02*
G01X0018641Y0002557D01*
G01X0018641Y0002557D02*
G01X0018598Y0002514D01*
G01X0018598Y0002514D02*
G01X0018555Y0002471D01*
G01X0018555Y0002471D02*
G01X0018545Y0002461D01*
G01X0018545Y0002461D02*
G01X0018513Y0002430D01*
G01X0018513Y0002430D02*
G01X0018435Y0002388D01*
G01X0018435Y0002388D02*
G01X0018391Y0002378D01*
G01X0018391Y0002378D02*
G01X0016532Y0001990D01*
G01X0016532Y0001990D02*
G01X0016552Y0001942D01*
G01X0016552Y0001942D02*
G01X0016552Y0001896D01*
G01X0016552Y0001896D02*
G01X0016552Y0001647D01*
G01X0016552Y0001647D02*
G01X0016552Y0001602D01*
G01X0016552Y0001602D02*
G01X0016518Y0001518D01*
G01X0016518Y0001518D02*
G01X0016510Y0001511D01*
G01X0016510Y0001511D02*
G01X0017472Y0001538D01*
G01X0017472Y0001538D02*
G01X0017472Y0001980D01*
G01X0017472Y0001980D02*
G01X0017472Y0002026D01*
G01X0017472Y0002026D02*
G01X0017507Y0002110D01*
G01X0017507Y0002110D02*
G01X0017571Y0002174D01*
G01X0017571Y0002174D02*
G01X0017655Y0002209D01*
G01X0017655Y0002209D02*
G01X0017701Y0002209D01*
G01X0017701Y0002209D02*
G01X0018291Y0002209D01*
G01X0018291Y0002209D02*
G01X0018337Y0002209D01*
G01X0018337Y0002209D02*
G01X0018421Y0002174D01*
G01X0018421Y0002174D02*
G01X0018485Y0002110D01*
G01X0018485Y0002110D02*
G01X0018520Y0002026D01*
G01X0018520Y0002026D02*
G01X0018520Y0001980D01*
G01X0018520Y0001980D02*
G01X0018520Y0001568D01*
G01X0018520Y0001568D02*
G01X0018956Y0001581D01*
G01X0018956Y0001581D02*
G01X0018956Y0001980D01*
G01X0018956Y0001980D02*
G01X0018956Y0002026D01*
G01X0018956Y0002026D02*
G01X0018991Y0002110D01*
G01X0018991Y0002110D02*
G01X0019055Y0002174D01*
G01X0019055Y0002174D02*
G01X0019139Y0002209D01*
G01X0019139Y0002209D02*
G01X0019185Y0002209D01*
G01X0019185Y0002209D02*
G01X0019560Y0002209D01*
G01X0019560Y0002209D02*
G01X0019560Y0002492D01*
G01X0019560Y0002492D02*
G01X0019240Y0002492D01*
G01X0019240Y0002492D02*
G01X0019185Y0002492D01*
G01X0019185Y0002492D02*
G01X0019130Y0002492D01*
G01X0019130Y0002492D02*
G01X0019029Y0002534D01*
G01X0019029Y0002534D02*
G01X0018951Y0002612D01*
G01X0018951Y0002612D02*
G01X0018909Y0002713D01*
G01X0018909Y0002713D02*
G01X0018909Y0002768D01*
G01X0018909Y0002768D02*
G01X0018909Y0002823D01*
G01X0018909Y0002823D02*
G01X0018909Y0003358D01*
G01X0018909Y0003358D02*
G01X0018909Y0003413D01*
G01X0018909Y0003413D02*
G01X0018951Y0003514D01*
G01X0018951Y0003514D02*
G01X0018970Y0003533D01*
G01X0018970Y0003533D02*
G01X0018970Y0003871D01*
G01X0018970Y0003871D02*
G01X0018947Y0003909D01*
G01X0018947Y0003909D02*
G01X0018925Y0003931D01*
G01X0018925Y0003931D02*
G01X0018905Y0003979D01*
G01X0018905Y0003979D02*
G01X0018890Y0004005D01*
G01X0018890Y0004005D02*
G01X0018887Y0004023D01*
G01X0018887Y0004023D02*
G01X0018862Y0004083D01*
G01X0018862Y0004083D02*
G01X0018862Y0004248D01*
G01X0018862Y0004248D02*
G01X0018925Y0004400D01*
G01X0018925Y0004400D02*
G01X0019041Y0004516D01*
G01X0019041Y0004516D02*
G01X0019060Y0004523D01*
G01X0019060Y0004523D02*
G01X0017976Y0007082D01*
G01X0017976Y0007082D02*
G01X0017781Y0006272D01*
G01X0017781Y0006272D02*
G01X0017804Y0006199D01*
G01X0017804Y0006199D02*
G01X0017829Y0006140D01*
G01X0017829Y0006140D02*
G01X0017829Y0005975D01*
G01X0017829Y0005975D02*
G01X0017766Y0005823D01*
G01X0017766Y0005823D02*
G01X0017650Y0005707D01*
G01X0017650Y0005707D02*
G01X0017498Y0005644D01*
G01X0017498Y0005644D02*
G01X0017333Y0005644D01*
G01X0017333Y0005644D02*
G01X0017181Y0005707D01*
G01X0017181Y0005707D02*
G01X0017065Y0005823D01*
G01X0017065Y0005823D02*
G01X0017002Y0005975D01*
G01X0017002Y0005975D02*
G01X0017002Y0006025D01*
G01X0017002Y0006025D02*
G01X0016897Y0005920D01*
G01X0016897Y0005920D02*
G01X0016745Y0005857D01*
G01X0016745Y0005857D02*
G01X0016581Y0005857D01*
G01X0016581Y0005857D02*
G01X0016526Y0005880D01*
G01X0016526Y0005880D02*
G01X0016218Y0005292D01*
G01X0016218Y0005292D02*
G01X0016323Y0005187D01*
G01X0016323Y0005187D02*
G01X0016347Y0005128D01*
G01X0016347Y0005128D02*
G01X0016358Y0005113D01*
G01X0016358Y0005113D02*
G01X0016366Y0005083D01*
G01X0016366Y0005083D02*
G01X0016386Y0005035D01*
G01X0016386Y0005035D02*
G01X0016386Y0005004D01*
G01X0016386Y0005004D02*
G01X0016397Y0004962D01*
G01X0016397Y0004962D02*
G01X0017729Y0003634D01*
G01X0017729Y0003634D02*
G01X0017951Y0003634D01*
G01X0017951Y0003634D02*
G01X0017551Y0004595D01*
G01X0017551Y0004595D02*
G01X0017515Y0004622D01*
G01X0017515Y0004622D02*
G01X0017486Y0004634D01*
G01X0017486Y0004634D02*
G01X0017450Y0004670D01*
G01X0017450Y0004670D02*
G01X0017426Y0004688D01*
G01X0017426Y0004688D02*
G01X0017416Y0004704D01*
G01X0017416Y0004704D02*
G01X0017370Y0004750D01*
G01X0017370Y0004750D02*
G01X0017307Y0004902D01*
G01X0017307Y0004902D02*
G01X0017307Y0005066D01*
G01X0017307Y0005066D02*
G01X0017370Y0005218D01*
G01X0017370Y0005218D02*
G01X0017486Y0005335D01*
G01X0017486Y0005335D02*
G01X0017638Y0005398D01*
G01X0017638Y0005398D02*
G01X0017803Y0005398D01*
G01X0017803Y0005398D02*
G01X0017955Y0005335D01*
G01X0017955Y0005335D02*
G01X0018071Y0005218D01*
G01X0018071Y0005218D02*
G01X0018134Y0005066D01*
G01X0018134Y0005066D02*
G01X0018134Y0005002D01*
G01X0018134Y0005002D02*
G01X0018138Y0004985D01*
G01X0018138Y0004985D02*
G01X0018134Y0004954D01*
G01X0018134Y0004954D02*
G01X0018134Y0004902D01*
G01X0018134Y0004902D02*
G01X0018122Y0004874D01*
G01X0018122Y0004874D02*
G01X0018122Y0004874D01*
G01X0017756Y0009068D02*
G01X0017756Y0008996D01*
G01X0017756Y0008996D02*
G01X0017693Y0008845D01*
G01X0017693Y0008845D02*
G01X0017577Y0008728D01*
G01X0017577Y0008728D02*
G01X0017434Y0008669D01*
G01X0017434Y0008669D02*
G01X0017509Y0008060D01*
G01X0017509Y0008060D02*
G01X0017511Y0008051D01*
G01X0017511Y0008051D02*
G01X0017512Y0008032D01*
G01X0017512Y0008032D02*
G01X0017512Y0008023D01*
G01X0017512Y0008023D02*
G01X0017512Y0007767D01*
G01X0017512Y0007767D02*
G01X0017530Y0007843D01*
G01X0017530Y0007843D02*
G01X0017537Y0007873D01*
G01X0017537Y0007873D02*
G01X0017564Y0007930D01*
G01X0017564Y0007930D02*
G01X0017582Y0007954D01*
G01X0017582Y0007954D02*
G01X0018925Y0009754D01*
G01X0018925Y0009754D02*
G01X0018917Y0009758D01*
G01X0018917Y0009758D02*
G01X0018878Y0009796D01*
G01X0018878Y0009796D02*
G01X0018702Y0009972D01*
G01X0018702Y0009972D02*
G01X0018697Y0009977D01*
G01X0018697Y0009977D02*
G01X0018692Y0009972D01*
G01X0018692Y0009972D02*
G01X0018516Y0009796D01*
G01X0018516Y0009796D02*
G01X0018477Y0009758D01*
G01X0018477Y0009758D02*
G01X0018376Y0009716D01*
G01X0018376Y0009716D02*
G01X0018321Y0009716D01*
G01X0018321Y0009716D02*
G01X0018140Y0009716D01*
G01X0018140Y0009716D02*
G01X0017760Y0009152D01*
G01X0017760Y0009152D02*
G01X0017756Y0009068D01*
G01X0017756Y0009068D02*
G01X0017756Y0009068D01*
G01X0017939Y0018253D02*
G01X0017982Y0018253D01*
G01X0017982Y0018253D02*
G01X0018231Y0018253D01*
G01X0018231Y0018253D02*
G01X0018285Y0018253D01*
G01X0018285Y0018253D02*
G01X0018386Y0018211D01*
G01X0018386Y0018211D02*
G01X0018425Y0018172D01*
G01X0018425Y0018172D02*
G01X0018601Y0017996D01*
G01X0018601Y0017996D02*
G01X0018639Y0017958D01*
G01X0018639Y0017958D02*
G01X0018645Y0017963D01*
G01X0018645Y0017963D02*
G01X0018677Y0017995D01*
G01X0018677Y0017995D02*
G01X0018820Y0018139D01*
G01X0018820Y0018139D02*
G01X0018852Y0018171D01*
G01X0018852Y0018171D02*
G01X0018936Y0018206D01*
G01X0018936Y0018206D02*
G01X0018982Y0018206D01*
G01X0018982Y0018206D02*
G01X0019231Y0018206D01*
G01X0019231Y0018206D02*
G01X0019276Y0018206D01*
G01X0019276Y0018206D02*
G01X0019286Y0018202D01*
G01X0019286Y0018202D02*
G01X0019256Y0018530D01*
G01X0019256Y0018530D02*
G01X0019234Y0018530D01*
G01X0019234Y0018530D02*
G01X0018986Y0018530D01*
G01X0018986Y0018530D02*
G01X0018941Y0018530D01*
G01X0018941Y0018530D02*
G01X0018857Y0018565D01*
G01X0018857Y0018565D02*
G01X0018824Y0018597D01*
G01X0018824Y0018597D02*
G01X0018649Y0018773D01*
G01X0018649Y0018773D02*
G01X0018643Y0018778D01*
G01X0018643Y0018778D02*
G01X0018605Y0018740D01*
G01X0018605Y0018740D02*
G01X0018429Y0018564D01*
G01X0018429Y0018564D02*
G01X0018391Y0018526D01*
G01X0018391Y0018526D02*
G01X0018290Y0018484D01*
G01X0018290Y0018484D02*
G01X0018234Y0018483D01*
G01X0018234Y0018483D02*
G01X0017986Y0018483D01*
G01X0017986Y0018483D02*
G01X0017931Y0018483D01*
G01X0017931Y0018483D02*
G01X0017912Y0018491D01*
G01X0017912Y0018491D02*
G01X0017939Y0018253D01*
G01X0017939Y0018253D02*
G01X0017939Y0018253D01*
G54D17*
G01X0017512Y0007767D02*
G01X0017002Y0006025D01*
G01X0017964Y0014771D02*
G01X0018106Y0014913D01*
G01X0017894Y0014701D02*
G01X0017964Y0014771D01*
G01X0017894Y0014701D02*
G01X0017894Y0014701D01*
G01X0017894Y0014701D02*
G75*
G03X0017891Y0014698I0000088J-000088D01*
G01X0017739Y0014536D02*
G01X0017891Y0014698D01*
G01X0017738Y0014534D02*
G01X0017739Y0014536D01*
G01X0016968Y0016442D02*
G01X0017110Y0016299D01*
G01X0016898Y0016511D02*
G01X0016968Y0016442D01*
G01X0016898Y0016511D02*
G01X0016898Y0016511D01*
G01X0016898Y0016511D02*
G01X0016898Y0016511D01*
G01X0016736Y0016673D02*
G01X0016898Y0016511D01*
G01X0017774Y0015318D02*
G01X0018106Y0014913D01*
G01X0013539Y0019318D02*
G01X0013539Y0018690D01*
G54D18*
G01X0008039Y0018704D02*
G01X0008039Y0018475D01*
G01X0008039Y0019304D02*
G01X0008039Y0019533D01*
G01X0001780Y0014870D02*
G01X0002237Y0015327D01*
G01X0001780Y0014870D02*
G01X0002237Y0014413D01*
G01X0001780Y0014870D02*
G01X0001323Y0014413D01*
G01X0001780Y0014870D02*
G01X0001323Y0015327D01*
G01X0007783Y0016899D02*
G01X0006834Y0015949D01*
G01X0007783Y0016899D02*
G01X0006834Y0017848D01*
G01X0008177Y0016899D02*
G01X0009126Y0017848D01*
G01X0008177Y0016899D02*
G01X0009126Y0015949D01*
G01X0003256Y0005253D02*
G01X0003256Y0005481D01*
G01X0003256Y0004653D02*
G01X0003256Y0004424D01*
G01X0003650Y0017567D02*
G01X0004115Y0017101D01*
G01X0003650Y0017567D02*
G01X0003184Y0017101D01*
G01X0003650Y0018354D02*
G01X0003184Y0018820D01*
G01X0003650Y0018354D02*
G01X0004115Y0018820D01*
G01X0017110Y0015999D02*
G01X0017110Y0015770D01*
G01X0016324Y0001772D02*
G01X0016552Y0001772D01*
G01X0019480Y0001685D02*
G01X0019023Y0002142D01*
G01X0017996Y0001685D02*
G01X0018453Y0002142D01*
G01X0017996Y0001685D02*
G01X0017539Y0002142D01*
G01X0019110Y0018759D02*
G01X0019110Y0018530D01*
G01X0019106Y0017977D02*
G01X0019106Y0018206D01*
G54D19*
G01X0013575Y0005795D03*
G01X0014441Y0009720D03*
G01X0017201Y0005354D03*
G01X0018094Y0008780D03*
G01X0011854Y0006693D03*
G01X0011858Y0009248D03*
G01X0003979Y0009869D03*
G01X0003604Y0009869D03*
G01X0003979Y0010245D03*
G01X0003604Y0010245D03*
G01X0003979Y0010620D03*
G01X0003604Y0010620D03*
G01X0003979Y0010996D03*
G01X0003604Y0010996D03*
G01X0003979Y0011371D03*
G01X0003604Y0011371D03*
G01X0010547Y0014988D03*
G01X0015276Y0006256D03*
G01X0010496Y0006260D03*
G01X0014788Y0007279D03*
G01X0015614Y0006256D03*
G01X0015484Y0005276D03*
G01X0014582Y0005082D03*
G01X0003941Y0015295D03*
G01X0019276Y0004165D03*
G01X0014906Y0008598D03*
G01X0014874Y0008190D03*
G01X0016831Y0008476D03*
G01X0016120Y0007929D03*
G01X0016497Y0007775D03*
G01X0016141Y0007345D03*
G01X0018357Y0007895D03*
G01X0014421Y0005451D03*
G01X0013232Y0005280D03*
G01X0013715Y0007682D03*
G01X0011587Y0010260D03*
G01X0017415Y0006057D03*
G01X0016663Y0006270D03*
G01X0013349Y0004600D03*
G01X0013165Y0004949D03*
G01X0015516Y0004848D03*
G01X0015539Y0008319D03*
G01X0014732Y0006508D03*
G01X0008039Y0010071D03*
G01X0009413Y0008795D03*
G01X0015972Y0004953D03*
G01X0015105Y0009713D03*
G01X0014460Y0005904D03*
G01X0017720Y0004984D03*
G01X0015354Y0006709D03*
G01X0016286Y0006874D03*
G01X0017205Y0009957D03*
G01X0018055Y0007677D03*
G01X0013511Y0007392D03*
G01X0017343Y0009079D03*
G01X0017457Y0010283D03*
G01X0011402Y0016701D03*
G01X0012520Y0014705D03*
G01X0008472Y0003843D03*
G01X0016394Y0013850D03*
G01X0014280Y0014669D03*
G01X0002587Y0001988D03*
G01X0007299Y0012193D03*
G01X0011984Y0012445D03*
G01X0012980Y0017661D03*
G01X0016055Y0013248D03*
G01X0014472Y0010791D03*
G01X0008949Y0006906D03*
G54D20*
G01X0006012Y0018354D02*
G01X0006012Y0017567D01*
G01X0003650Y0018354D02*
G01X0003650Y0017567D01*
G01X0005224Y0016071D02*
G01X0004437Y0016071D01*
M02*
