G75*
%MOIN*%
%OFA0B0*%
%FSLAX24Y24*%
%IPPOS*%
%LPD*%
%AMOC8*
5,1,8,0,0,1.08239X$1,22.5*
%
%ADD10C,0.0000*%
%ADD11C,0.0010*%
D10*
X000500Y000500D02*
X000500Y020185D01*
X020185Y020185D01*
X020185Y000500D01*
X000500Y000500D01*
D11*
X002197Y001988D02*
X002199Y002027D01*
X002205Y002065D01*
X002214Y002103D01*
X002228Y002139D01*
X002244Y002175D01*
X002265Y002208D01*
X002288Y002239D01*
X002315Y002267D01*
X002344Y002293D01*
X002375Y002316D01*
X002409Y002335D01*
X002445Y002351D01*
X002481Y002363D01*
X002519Y002372D01*
X002558Y002377D01*
X002597Y002378D01*
X002635Y002375D01*
X002674Y002368D01*
X002711Y002358D01*
X002747Y002343D01*
X002782Y002326D01*
X002815Y002305D01*
X002845Y002280D01*
X002873Y002253D01*
X002898Y002223D01*
X002920Y002191D01*
X002938Y002157D01*
X002953Y002121D01*
X002965Y002084D01*
X002973Y002046D01*
X002977Y002007D01*
X002977Y001969D01*
X002973Y001930D01*
X002965Y001892D01*
X002953Y001855D01*
X002938Y001819D01*
X002920Y001785D01*
X002898Y001753D01*
X002873Y001723D01*
X002845Y001696D01*
X002815Y001671D01*
X002782Y001650D01*
X002747Y001633D01*
X002711Y001618D01*
X002674Y001608D01*
X002635Y001601D01*
X002597Y001598D01*
X002558Y001599D01*
X002519Y001604D01*
X002481Y001613D01*
X002445Y001625D01*
X002409Y001641D01*
X002375Y001660D01*
X002344Y001683D01*
X002315Y001709D01*
X002288Y001737D01*
X002265Y001768D01*
X002244Y001801D01*
X002228Y001837D01*
X002214Y001873D01*
X002205Y001911D01*
X002199Y001949D01*
X002197Y001988D01*
X002187Y001588D02*
X002987Y002388D01*
X002866Y004953D02*
X002868Y004992D01*
X002874Y005030D01*
X002883Y005068D01*
X002897Y005104D01*
X002913Y005140D01*
X002934Y005173D01*
X002957Y005204D01*
X002984Y005232D01*
X003013Y005258D01*
X003044Y005281D01*
X003078Y005300D01*
X003114Y005316D01*
X003150Y005328D01*
X003188Y005337D01*
X003227Y005342D01*
X003266Y005343D01*
X003304Y005340D01*
X003343Y005333D01*
X003380Y005323D01*
X003416Y005308D01*
X003451Y005291D01*
X003484Y005270D01*
X003514Y005245D01*
X003542Y005218D01*
X003567Y005188D01*
X003589Y005156D01*
X003607Y005122D01*
X003622Y005086D01*
X003634Y005049D01*
X003642Y005011D01*
X003646Y004972D01*
X003646Y004934D01*
X003642Y004895D01*
X003634Y004857D01*
X003622Y004820D01*
X003607Y004784D01*
X003589Y004750D01*
X003567Y004718D01*
X003542Y004688D01*
X003514Y004661D01*
X003484Y004636D01*
X003451Y004615D01*
X003416Y004598D01*
X003380Y004583D01*
X003343Y004573D01*
X003304Y004566D01*
X003266Y004563D01*
X003227Y004564D01*
X003188Y004569D01*
X003150Y004578D01*
X003114Y004590D01*
X003078Y004606D01*
X003044Y004625D01*
X003013Y004648D01*
X002984Y004674D01*
X002957Y004702D01*
X002934Y004733D01*
X002913Y004766D01*
X002897Y004802D01*
X002883Y004838D01*
X002874Y004876D01*
X002868Y004914D01*
X002866Y004953D01*
X002856Y004553D02*
X003656Y005353D01*
X003866Y004953D02*
X003868Y004992D01*
X003874Y005030D01*
X003883Y005068D01*
X003897Y005104D01*
X003913Y005140D01*
X003934Y005173D01*
X003957Y005204D01*
X003984Y005232D01*
X004013Y005258D01*
X004044Y005281D01*
X004078Y005300D01*
X004114Y005316D01*
X004150Y005328D01*
X004188Y005337D01*
X004227Y005342D01*
X004266Y005343D01*
X004304Y005340D01*
X004343Y005333D01*
X004380Y005323D01*
X004416Y005308D01*
X004451Y005291D01*
X004484Y005270D01*
X004514Y005245D01*
X004542Y005218D01*
X004567Y005188D01*
X004589Y005156D01*
X004607Y005122D01*
X004622Y005086D01*
X004634Y005049D01*
X004642Y005011D01*
X004646Y004972D01*
X004646Y004934D01*
X004642Y004895D01*
X004634Y004857D01*
X004622Y004820D01*
X004607Y004784D01*
X004589Y004750D01*
X004567Y004718D01*
X004542Y004688D01*
X004514Y004661D01*
X004484Y004636D01*
X004451Y004615D01*
X004416Y004598D01*
X004380Y004583D01*
X004343Y004573D01*
X004304Y004566D01*
X004266Y004563D01*
X004227Y004564D01*
X004188Y004569D01*
X004150Y004578D01*
X004114Y004590D01*
X004078Y004606D01*
X004044Y004625D01*
X004013Y004648D01*
X003984Y004674D01*
X003957Y004702D01*
X003934Y004733D01*
X003913Y004766D01*
X003897Y004802D01*
X003883Y004838D01*
X003874Y004876D01*
X003868Y004914D01*
X003866Y004953D01*
X003856Y004553D02*
X004656Y005353D01*
X004866Y004953D02*
X004868Y004992D01*
X004874Y005030D01*
X004883Y005068D01*
X004897Y005104D01*
X004913Y005140D01*
X004934Y005173D01*
X004957Y005204D01*
X004984Y005232D01*
X005013Y005258D01*
X005044Y005281D01*
X005078Y005300D01*
X005114Y005316D01*
X005150Y005328D01*
X005188Y005337D01*
X005227Y005342D01*
X005266Y005343D01*
X005304Y005340D01*
X005343Y005333D01*
X005380Y005323D01*
X005416Y005308D01*
X005451Y005291D01*
X005484Y005270D01*
X005514Y005245D01*
X005542Y005218D01*
X005567Y005188D01*
X005589Y005156D01*
X005607Y005122D01*
X005622Y005086D01*
X005634Y005049D01*
X005642Y005011D01*
X005646Y004972D01*
X005646Y004934D01*
X005642Y004895D01*
X005634Y004857D01*
X005622Y004820D01*
X005607Y004784D01*
X005589Y004750D01*
X005567Y004718D01*
X005542Y004688D01*
X005514Y004661D01*
X005484Y004636D01*
X005451Y004615D01*
X005416Y004598D01*
X005380Y004583D01*
X005343Y004573D01*
X005304Y004566D01*
X005266Y004563D01*
X005227Y004564D01*
X005188Y004569D01*
X005150Y004578D01*
X005114Y004590D01*
X005078Y004606D01*
X005044Y004625D01*
X005013Y004648D01*
X004984Y004674D01*
X004957Y004702D01*
X004934Y004733D01*
X004913Y004766D01*
X004897Y004802D01*
X004883Y004838D01*
X004874Y004876D01*
X004868Y004914D01*
X004866Y004953D01*
X004856Y004553D02*
X005656Y005353D01*
X006634Y002772D02*
X006636Y002811D01*
X006642Y002849D01*
X006651Y002887D01*
X006665Y002923D01*
X006681Y002959D01*
X006702Y002992D01*
X006725Y003023D01*
X006752Y003051D01*
X006781Y003077D01*
X006812Y003100D01*
X006846Y003119D01*
X006882Y003135D01*
X006918Y003147D01*
X006956Y003156D01*
X006995Y003161D01*
X007034Y003162D01*
X007072Y003159D01*
X007111Y003152D01*
X007148Y003142D01*
X007184Y003127D01*
X007219Y003110D01*
X007252Y003089D01*
X007282Y003064D01*
X007310Y003037D01*
X007335Y003007D01*
X007357Y002975D01*
X007375Y002941D01*
X007390Y002905D01*
X007402Y002868D01*
X007410Y002830D01*
X007414Y002791D01*
X007414Y002753D01*
X007410Y002714D01*
X007402Y002676D01*
X007390Y002639D01*
X007375Y002603D01*
X007357Y002569D01*
X007335Y002537D01*
X007310Y002507D01*
X007282Y002480D01*
X007252Y002455D01*
X007219Y002434D01*
X007184Y002417D01*
X007148Y002402D01*
X007111Y002392D01*
X007072Y002385D01*
X007034Y002382D01*
X006995Y002383D01*
X006956Y002388D01*
X006918Y002397D01*
X006882Y002409D01*
X006846Y002425D01*
X006812Y002444D01*
X006781Y002467D01*
X006752Y002493D01*
X006725Y002521D01*
X006702Y002552D01*
X006681Y002585D01*
X006665Y002621D01*
X006651Y002657D01*
X006642Y002695D01*
X006636Y002733D01*
X006634Y002772D01*
X006624Y002372D02*
X007424Y003172D01*
X007634Y002772D02*
X007636Y002811D01*
X007642Y002849D01*
X007651Y002887D01*
X007665Y002923D01*
X007681Y002959D01*
X007702Y002992D01*
X007725Y003023D01*
X007752Y003051D01*
X007781Y003077D01*
X007812Y003100D01*
X007846Y003119D01*
X007882Y003135D01*
X007918Y003147D01*
X007956Y003156D01*
X007995Y003161D01*
X008034Y003162D01*
X008072Y003159D01*
X008111Y003152D01*
X008148Y003142D01*
X008184Y003127D01*
X008219Y003110D01*
X008252Y003089D01*
X008282Y003064D01*
X008310Y003037D01*
X008335Y003007D01*
X008357Y002975D01*
X008375Y002941D01*
X008390Y002905D01*
X008402Y002868D01*
X008410Y002830D01*
X008414Y002791D01*
X008414Y002753D01*
X008410Y002714D01*
X008402Y002676D01*
X008390Y002639D01*
X008375Y002603D01*
X008357Y002569D01*
X008335Y002537D01*
X008310Y002507D01*
X008282Y002480D01*
X008252Y002455D01*
X008219Y002434D01*
X008184Y002417D01*
X008148Y002402D01*
X008111Y002392D01*
X008072Y002385D01*
X008034Y002382D01*
X007995Y002383D01*
X007956Y002388D01*
X007918Y002397D01*
X007882Y002409D01*
X007846Y002425D01*
X007812Y002444D01*
X007781Y002467D01*
X007752Y002493D01*
X007725Y002521D01*
X007702Y002552D01*
X007681Y002585D01*
X007665Y002621D01*
X007651Y002657D01*
X007642Y002695D01*
X007636Y002733D01*
X007634Y002772D01*
X007624Y002372D02*
X008424Y003172D01*
X008082Y003843D02*
X008084Y003882D01*
X008090Y003920D01*
X008099Y003958D01*
X008113Y003994D01*
X008129Y004030D01*
X008150Y004063D01*
X008173Y004094D01*
X008200Y004122D01*
X008229Y004148D01*
X008260Y004171D01*
X008294Y004190D01*
X008330Y004206D01*
X008366Y004218D01*
X008404Y004227D01*
X008443Y004232D01*
X008482Y004233D01*
X008520Y004230D01*
X008559Y004223D01*
X008596Y004213D01*
X008632Y004198D01*
X008667Y004181D01*
X008700Y004160D01*
X008730Y004135D01*
X008758Y004108D01*
X008783Y004078D01*
X008805Y004046D01*
X008823Y004012D01*
X008838Y003976D01*
X008850Y003939D01*
X008858Y003901D01*
X008862Y003862D01*
X008862Y003824D01*
X008858Y003785D01*
X008850Y003747D01*
X008838Y003710D01*
X008823Y003674D01*
X008805Y003640D01*
X008783Y003608D01*
X008758Y003578D01*
X008730Y003551D01*
X008700Y003526D01*
X008667Y003505D01*
X008632Y003488D01*
X008596Y003473D01*
X008559Y003463D01*
X008520Y003456D01*
X008482Y003453D01*
X008443Y003454D01*
X008404Y003459D01*
X008366Y003468D01*
X008330Y003480D01*
X008294Y003496D01*
X008260Y003515D01*
X008229Y003538D01*
X008200Y003564D01*
X008173Y003592D01*
X008150Y003623D01*
X008129Y003656D01*
X008113Y003692D01*
X008099Y003728D01*
X008090Y003766D01*
X008084Y003804D01*
X008082Y003843D01*
X008072Y003443D02*
X008872Y004243D01*
X008634Y002772D02*
X008636Y002811D01*
X008642Y002849D01*
X008651Y002887D01*
X008665Y002923D01*
X008681Y002959D01*
X008702Y002992D01*
X008725Y003023D01*
X008752Y003051D01*
X008781Y003077D01*
X008812Y003100D01*
X008846Y003119D01*
X008882Y003135D01*
X008918Y003147D01*
X008956Y003156D01*
X008995Y003161D01*
X009034Y003162D01*
X009072Y003159D01*
X009111Y003152D01*
X009148Y003142D01*
X009184Y003127D01*
X009219Y003110D01*
X009252Y003089D01*
X009282Y003064D01*
X009310Y003037D01*
X009335Y003007D01*
X009357Y002975D01*
X009375Y002941D01*
X009390Y002905D01*
X009402Y002868D01*
X009410Y002830D01*
X009414Y002791D01*
X009414Y002753D01*
X009410Y002714D01*
X009402Y002676D01*
X009390Y002639D01*
X009375Y002603D01*
X009357Y002569D01*
X009335Y002537D01*
X009310Y002507D01*
X009282Y002480D01*
X009252Y002455D01*
X009219Y002434D01*
X009184Y002417D01*
X009148Y002402D01*
X009111Y002392D01*
X009072Y002385D01*
X009034Y002382D01*
X008995Y002383D01*
X008956Y002388D01*
X008918Y002397D01*
X008882Y002409D01*
X008846Y002425D01*
X008812Y002444D01*
X008781Y002467D01*
X008752Y002493D01*
X008725Y002521D01*
X008702Y002552D01*
X008681Y002585D01*
X008665Y002621D01*
X008651Y002657D01*
X008642Y002695D01*
X008636Y002733D01*
X008634Y002772D01*
X008624Y002372D02*
X009424Y003172D01*
X009634Y002772D02*
X009636Y002811D01*
X009642Y002849D01*
X009651Y002887D01*
X009665Y002923D01*
X009681Y002959D01*
X009702Y002992D01*
X009725Y003023D01*
X009752Y003051D01*
X009781Y003077D01*
X009812Y003100D01*
X009846Y003119D01*
X009882Y003135D01*
X009918Y003147D01*
X009956Y003156D01*
X009995Y003161D01*
X010034Y003162D01*
X010072Y003159D01*
X010111Y003152D01*
X010148Y003142D01*
X010184Y003127D01*
X010219Y003110D01*
X010252Y003089D01*
X010282Y003064D01*
X010310Y003037D01*
X010335Y003007D01*
X010357Y002975D01*
X010375Y002941D01*
X010390Y002905D01*
X010402Y002868D01*
X010410Y002830D01*
X010414Y002791D01*
X010414Y002753D01*
X010410Y002714D01*
X010402Y002676D01*
X010390Y002639D01*
X010375Y002603D01*
X010357Y002569D01*
X010335Y002537D01*
X010310Y002507D01*
X010282Y002480D01*
X010252Y002455D01*
X010219Y002434D01*
X010184Y002417D01*
X010148Y002402D01*
X010111Y002392D01*
X010072Y002385D01*
X010034Y002382D01*
X009995Y002383D01*
X009956Y002388D01*
X009918Y002397D01*
X009882Y002409D01*
X009846Y002425D01*
X009812Y002444D01*
X009781Y002467D01*
X009752Y002493D01*
X009725Y002521D01*
X009702Y002552D01*
X009681Y002585D01*
X009665Y002621D01*
X009651Y002657D01*
X009642Y002695D01*
X009636Y002733D01*
X009634Y002772D01*
X009624Y002372D02*
X010424Y003172D01*
X010634Y002772D02*
X010636Y002811D01*
X010642Y002849D01*
X010651Y002887D01*
X010665Y002923D01*
X010681Y002959D01*
X010702Y002992D01*
X010725Y003023D01*
X010752Y003051D01*
X010781Y003077D01*
X010812Y003100D01*
X010846Y003119D01*
X010882Y003135D01*
X010918Y003147D01*
X010956Y003156D01*
X010995Y003161D01*
X011034Y003162D01*
X011072Y003159D01*
X011111Y003152D01*
X011148Y003142D01*
X011184Y003127D01*
X011219Y003110D01*
X011252Y003089D01*
X011282Y003064D01*
X011310Y003037D01*
X011335Y003007D01*
X011357Y002975D01*
X011375Y002941D01*
X011390Y002905D01*
X011402Y002868D01*
X011410Y002830D01*
X011414Y002791D01*
X011414Y002753D01*
X011410Y002714D01*
X011402Y002676D01*
X011390Y002639D01*
X011375Y002603D01*
X011357Y002569D01*
X011335Y002537D01*
X011310Y002507D01*
X011282Y002480D01*
X011252Y002455D01*
X011219Y002434D01*
X011184Y002417D01*
X011148Y002402D01*
X011111Y002392D01*
X011072Y002385D01*
X011034Y002382D01*
X010995Y002383D01*
X010956Y002388D01*
X010918Y002397D01*
X010882Y002409D01*
X010846Y002425D01*
X010812Y002444D01*
X010781Y002467D01*
X010752Y002493D01*
X010725Y002521D01*
X010702Y002552D01*
X010681Y002585D01*
X010665Y002621D01*
X010651Y002657D01*
X010642Y002695D01*
X010636Y002733D01*
X010634Y002772D01*
X010624Y002372D02*
X011424Y003172D01*
X011634Y002772D02*
X011636Y002811D01*
X011642Y002849D01*
X011651Y002887D01*
X011665Y002923D01*
X011681Y002959D01*
X011702Y002992D01*
X011725Y003023D01*
X011752Y003051D01*
X011781Y003077D01*
X011812Y003100D01*
X011846Y003119D01*
X011882Y003135D01*
X011918Y003147D01*
X011956Y003156D01*
X011995Y003161D01*
X012034Y003162D01*
X012072Y003159D01*
X012111Y003152D01*
X012148Y003142D01*
X012184Y003127D01*
X012219Y003110D01*
X012252Y003089D01*
X012282Y003064D01*
X012310Y003037D01*
X012335Y003007D01*
X012357Y002975D01*
X012375Y002941D01*
X012390Y002905D01*
X012402Y002868D01*
X012410Y002830D01*
X012414Y002791D01*
X012414Y002753D01*
X012410Y002714D01*
X012402Y002676D01*
X012390Y002639D01*
X012375Y002603D01*
X012357Y002569D01*
X012335Y002537D01*
X012310Y002507D01*
X012282Y002480D01*
X012252Y002455D01*
X012219Y002434D01*
X012184Y002417D01*
X012148Y002402D01*
X012111Y002392D01*
X012072Y002385D01*
X012034Y002382D01*
X011995Y002383D01*
X011956Y002388D01*
X011918Y002397D01*
X011882Y002409D01*
X011846Y002425D01*
X011812Y002444D01*
X011781Y002467D01*
X011752Y002493D01*
X011725Y002521D01*
X011702Y002552D01*
X011681Y002585D01*
X011665Y002621D01*
X011651Y002657D01*
X011642Y002695D01*
X011636Y002733D01*
X011634Y002772D01*
X011624Y002372D02*
X012424Y003172D01*
X012634Y002772D02*
X012636Y002811D01*
X012642Y002849D01*
X012651Y002887D01*
X012665Y002923D01*
X012681Y002959D01*
X012702Y002992D01*
X012725Y003023D01*
X012752Y003051D01*
X012781Y003077D01*
X012812Y003100D01*
X012846Y003119D01*
X012882Y003135D01*
X012918Y003147D01*
X012956Y003156D01*
X012995Y003161D01*
X013034Y003162D01*
X013072Y003159D01*
X013111Y003152D01*
X013148Y003142D01*
X013184Y003127D01*
X013219Y003110D01*
X013252Y003089D01*
X013282Y003064D01*
X013310Y003037D01*
X013335Y003007D01*
X013357Y002975D01*
X013375Y002941D01*
X013390Y002905D01*
X013402Y002868D01*
X013410Y002830D01*
X013414Y002791D01*
X013414Y002753D01*
X013410Y002714D01*
X013402Y002676D01*
X013390Y002639D01*
X013375Y002603D01*
X013357Y002569D01*
X013335Y002537D01*
X013310Y002507D01*
X013282Y002480D01*
X013252Y002455D01*
X013219Y002434D01*
X013184Y002417D01*
X013148Y002402D01*
X013111Y002392D01*
X013072Y002385D01*
X013034Y002382D01*
X012995Y002383D01*
X012956Y002388D01*
X012918Y002397D01*
X012882Y002409D01*
X012846Y002425D01*
X012812Y002444D01*
X012781Y002467D01*
X012752Y002493D01*
X012725Y002521D01*
X012702Y002552D01*
X012681Y002585D01*
X012665Y002621D01*
X012651Y002657D01*
X012642Y002695D01*
X012636Y002733D01*
X012634Y002772D01*
X012624Y002372D02*
X013424Y003172D01*
X013634Y002772D02*
X013636Y002811D01*
X013642Y002849D01*
X013651Y002887D01*
X013665Y002923D01*
X013681Y002959D01*
X013702Y002992D01*
X013725Y003023D01*
X013752Y003051D01*
X013781Y003077D01*
X013812Y003100D01*
X013846Y003119D01*
X013882Y003135D01*
X013918Y003147D01*
X013956Y003156D01*
X013995Y003161D01*
X014034Y003162D01*
X014072Y003159D01*
X014111Y003152D01*
X014148Y003142D01*
X014184Y003127D01*
X014219Y003110D01*
X014252Y003089D01*
X014282Y003064D01*
X014310Y003037D01*
X014335Y003007D01*
X014357Y002975D01*
X014375Y002941D01*
X014390Y002905D01*
X014402Y002868D01*
X014410Y002830D01*
X014414Y002791D01*
X014414Y002753D01*
X014410Y002714D01*
X014402Y002676D01*
X014390Y002639D01*
X014375Y002603D01*
X014357Y002569D01*
X014335Y002537D01*
X014310Y002507D01*
X014282Y002480D01*
X014252Y002455D01*
X014219Y002434D01*
X014184Y002417D01*
X014148Y002402D01*
X014111Y002392D01*
X014072Y002385D01*
X014034Y002382D01*
X013995Y002383D01*
X013956Y002388D01*
X013918Y002397D01*
X013882Y002409D01*
X013846Y002425D01*
X013812Y002444D01*
X013781Y002467D01*
X013752Y002493D01*
X013725Y002521D01*
X013702Y002552D01*
X013681Y002585D01*
X013665Y002621D01*
X013651Y002657D01*
X013642Y002695D01*
X013636Y002733D01*
X013634Y002772D01*
X013624Y002372D02*
X014424Y003172D01*
X014634Y002772D02*
X014636Y002811D01*
X014642Y002849D01*
X014651Y002887D01*
X014665Y002923D01*
X014681Y002959D01*
X014702Y002992D01*
X014725Y003023D01*
X014752Y003051D01*
X014781Y003077D01*
X014812Y003100D01*
X014846Y003119D01*
X014882Y003135D01*
X014918Y003147D01*
X014956Y003156D01*
X014995Y003161D01*
X015034Y003162D01*
X015072Y003159D01*
X015111Y003152D01*
X015148Y003142D01*
X015184Y003127D01*
X015219Y003110D01*
X015252Y003089D01*
X015282Y003064D01*
X015310Y003037D01*
X015335Y003007D01*
X015357Y002975D01*
X015375Y002941D01*
X015390Y002905D01*
X015402Y002868D01*
X015410Y002830D01*
X015414Y002791D01*
X015414Y002753D01*
X015410Y002714D01*
X015402Y002676D01*
X015390Y002639D01*
X015375Y002603D01*
X015357Y002569D01*
X015335Y002537D01*
X015310Y002507D01*
X015282Y002480D01*
X015252Y002455D01*
X015219Y002434D01*
X015184Y002417D01*
X015148Y002402D01*
X015111Y002392D01*
X015072Y002385D01*
X015034Y002382D01*
X014995Y002383D01*
X014956Y002388D01*
X014918Y002397D01*
X014882Y002409D01*
X014846Y002425D01*
X014812Y002444D01*
X014781Y002467D01*
X014752Y002493D01*
X014725Y002521D01*
X014702Y002552D01*
X014681Y002585D01*
X014665Y002621D01*
X014651Y002657D01*
X014642Y002695D01*
X014636Y002733D01*
X014634Y002772D01*
X014624Y002372D02*
X015424Y003172D01*
X015634Y002772D02*
X015636Y002811D01*
X015642Y002849D01*
X015651Y002887D01*
X015665Y002923D01*
X015681Y002959D01*
X015702Y002992D01*
X015725Y003023D01*
X015752Y003051D01*
X015781Y003077D01*
X015812Y003100D01*
X015846Y003119D01*
X015882Y003135D01*
X015918Y003147D01*
X015956Y003156D01*
X015995Y003161D01*
X016034Y003162D01*
X016072Y003159D01*
X016111Y003152D01*
X016148Y003142D01*
X016184Y003127D01*
X016219Y003110D01*
X016252Y003089D01*
X016282Y003064D01*
X016310Y003037D01*
X016335Y003007D01*
X016357Y002975D01*
X016375Y002941D01*
X016390Y002905D01*
X016402Y002868D01*
X016410Y002830D01*
X016414Y002791D01*
X016414Y002753D01*
X016410Y002714D01*
X016402Y002676D01*
X016390Y002639D01*
X016375Y002603D01*
X016357Y002569D01*
X016335Y002537D01*
X016310Y002507D01*
X016282Y002480D01*
X016252Y002455D01*
X016219Y002434D01*
X016184Y002417D01*
X016148Y002402D01*
X016111Y002392D01*
X016072Y002385D01*
X016034Y002382D01*
X015995Y002383D01*
X015956Y002388D01*
X015918Y002397D01*
X015882Y002409D01*
X015846Y002425D01*
X015812Y002444D01*
X015781Y002467D01*
X015752Y002493D01*
X015725Y002521D01*
X015702Y002552D01*
X015681Y002585D01*
X015665Y002621D01*
X015651Y002657D01*
X015642Y002695D01*
X015636Y002733D01*
X015634Y002772D01*
X015624Y002372D02*
X016424Y003172D01*
X015634Y001772D02*
X015636Y001811D01*
X015642Y001849D01*
X015651Y001887D01*
X015665Y001923D01*
X015681Y001959D01*
X015702Y001992D01*
X015725Y002023D01*
X015752Y002051D01*
X015781Y002077D01*
X015812Y002100D01*
X015846Y002119D01*
X015882Y002135D01*
X015918Y002147D01*
X015956Y002156D01*
X015995Y002161D01*
X016034Y002162D01*
X016072Y002159D01*
X016111Y002152D01*
X016148Y002142D01*
X016184Y002127D01*
X016219Y002110D01*
X016252Y002089D01*
X016282Y002064D01*
X016310Y002037D01*
X016335Y002007D01*
X016357Y001975D01*
X016375Y001941D01*
X016390Y001905D01*
X016402Y001868D01*
X016410Y001830D01*
X016414Y001791D01*
X016414Y001753D01*
X016410Y001714D01*
X016402Y001676D01*
X016390Y001639D01*
X016375Y001603D01*
X016357Y001569D01*
X016335Y001537D01*
X016310Y001507D01*
X016282Y001480D01*
X016252Y001455D01*
X016219Y001434D01*
X016184Y001417D01*
X016148Y001402D01*
X016111Y001392D01*
X016072Y001385D01*
X016034Y001382D01*
X015995Y001383D01*
X015956Y001388D01*
X015918Y001397D01*
X015882Y001409D01*
X015846Y001425D01*
X015812Y001444D01*
X015781Y001467D01*
X015752Y001493D01*
X015725Y001521D01*
X015702Y001552D01*
X015681Y001585D01*
X015665Y001621D01*
X015651Y001657D01*
X015642Y001695D01*
X015636Y001733D01*
X015634Y001772D01*
X015624Y001372D02*
X016424Y002172D01*
X014634Y001772D02*
X014636Y001811D01*
X014642Y001849D01*
X014651Y001887D01*
X014665Y001923D01*
X014681Y001959D01*
X014702Y001992D01*
X014725Y002023D01*
X014752Y002051D01*
X014781Y002077D01*
X014812Y002100D01*
X014846Y002119D01*
X014882Y002135D01*
X014918Y002147D01*
X014956Y002156D01*
X014995Y002161D01*
X015034Y002162D01*
X015072Y002159D01*
X015111Y002152D01*
X015148Y002142D01*
X015184Y002127D01*
X015219Y002110D01*
X015252Y002089D01*
X015282Y002064D01*
X015310Y002037D01*
X015335Y002007D01*
X015357Y001975D01*
X015375Y001941D01*
X015390Y001905D01*
X015402Y001868D01*
X015410Y001830D01*
X015414Y001791D01*
X015414Y001753D01*
X015410Y001714D01*
X015402Y001676D01*
X015390Y001639D01*
X015375Y001603D01*
X015357Y001569D01*
X015335Y001537D01*
X015310Y001507D01*
X015282Y001480D01*
X015252Y001455D01*
X015219Y001434D01*
X015184Y001417D01*
X015148Y001402D01*
X015111Y001392D01*
X015072Y001385D01*
X015034Y001382D01*
X014995Y001383D01*
X014956Y001388D01*
X014918Y001397D01*
X014882Y001409D01*
X014846Y001425D01*
X014812Y001444D01*
X014781Y001467D01*
X014752Y001493D01*
X014725Y001521D01*
X014702Y001552D01*
X014681Y001585D01*
X014665Y001621D01*
X014651Y001657D01*
X014642Y001695D01*
X014636Y001733D01*
X014634Y001772D01*
X014624Y001372D02*
X015424Y002172D01*
X013634Y001772D02*
X013636Y001811D01*
X013642Y001849D01*
X013651Y001887D01*
X013665Y001923D01*
X013681Y001959D01*
X013702Y001992D01*
X013725Y002023D01*
X013752Y002051D01*
X013781Y002077D01*
X013812Y002100D01*
X013846Y002119D01*
X013882Y002135D01*
X013918Y002147D01*
X013956Y002156D01*
X013995Y002161D01*
X014034Y002162D01*
X014072Y002159D01*
X014111Y002152D01*
X014148Y002142D01*
X014184Y002127D01*
X014219Y002110D01*
X014252Y002089D01*
X014282Y002064D01*
X014310Y002037D01*
X014335Y002007D01*
X014357Y001975D01*
X014375Y001941D01*
X014390Y001905D01*
X014402Y001868D01*
X014410Y001830D01*
X014414Y001791D01*
X014414Y001753D01*
X014410Y001714D01*
X014402Y001676D01*
X014390Y001639D01*
X014375Y001603D01*
X014357Y001569D01*
X014335Y001537D01*
X014310Y001507D01*
X014282Y001480D01*
X014252Y001455D01*
X014219Y001434D01*
X014184Y001417D01*
X014148Y001402D01*
X014111Y001392D01*
X014072Y001385D01*
X014034Y001382D01*
X013995Y001383D01*
X013956Y001388D01*
X013918Y001397D01*
X013882Y001409D01*
X013846Y001425D01*
X013812Y001444D01*
X013781Y001467D01*
X013752Y001493D01*
X013725Y001521D01*
X013702Y001552D01*
X013681Y001585D01*
X013665Y001621D01*
X013651Y001657D01*
X013642Y001695D01*
X013636Y001733D01*
X013634Y001772D01*
X013624Y001372D02*
X014424Y002172D01*
X012634Y001772D02*
X012636Y001811D01*
X012642Y001849D01*
X012651Y001887D01*
X012665Y001923D01*
X012681Y001959D01*
X012702Y001992D01*
X012725Y002023D01*
X012752Y002051D01*
X012781Y002077D01*
X012812Y002100D01*
X012846Y002119D01*
X012882Y002135D01*
X012918Y002147D01*
X012956Y002156D01*
X012995Y002161D01*
X013034Y002162D01*
X013072Y002159D01*
X013111Y002152D01*
X013148Y002142D01*
X013184Y002127D01*
X013219Y002110D01*
X013252Y002089D01*
X013282Y002064D01*
X013310Y002037D01*
X013335Y002007D01*
X013357Y001975D01*
X013375Y001941D01*
X013390Y001905D01*
X013402Y001868D01*
X013410Y001830D01*
X013414Y001791D01*
X013414Y001753D01*
X013410Y001714D01*
X013402Y001676D01*
X013390Y001639D01*
X013375Y001603D01*
X013357Y001569D01*
X013335Y001537D01*
X013310Y001507D01*
X013282Y001480D01*
X013252Y001455D01*
X013219Y001434D01*
X013184Y001417D01*
X013148Y001402D01*
X013111Y001392D01*
X013072Y001385D01*
X013034Y001382D01*
X012995Y001383D01*
X012956Y001388D01*
X012918Y001397D01*
X012882Y001409D01*
X012846Y001425D01*
X012812Y001444D01*
X012781Y001467D01*
X012752Y001493D01*
X012725Y001521D01*
X012702Y001552D01*
X012681Y001585D01*
X012665Y001621D01*
X012651Y001657D01*
X012642Y001695D01*
X012636Y001733D01*
X012634Y001772D01*
X012624Y001372D02*
X013424Y002172D01*
X011634Y001772D02*
X011636Y001811D01*
X011642Y001849D01*
X011651Y001887D01*
X011665Y001923D01*
X011681Y001959D01*
X011702Y001992D01*
X011725Y002023D01*
X011752Y002051D01*
X011781Y002077D01*
X011812Y002100D01*
X011846Y002119D01*
X011882Y002135D01*
X011918Y002147D01*
X011956Y002156D01*
X011995Y002161D01*
X012034Y002162D01*
X012072Y002159D01*
X012111Y002152D01*
X012148Y002142D01*
X012184Y002127D01*
X012219Y002110D01*
X012252Y002089D01*
X012282Y002064D01*
X012310Y002037D01*
X012335Y002007D01*
X012357Y001975D01*
X012375Y001941D01*
X012390Y001905D01*
X012402Y001868D01*
X012410Y001830D01*
X012414Y001791D01*
X012414Y001753D01*
X012410Y001714D01*
X012402Y001676D01*
X012390Y001639D01*
X012375Y001603D01*
X012357Y001569D01*
X012335Y001537D01*
X012310Y001507D01*
X012282Y001480D01*
X012252Y001455D01*
X012219Y001434D01*
X012184Y001417D01*
X012148Y001402D01*
X012111Y001392D01*
X012072Y001385D01*
X012034Y001382D01*
X011995Y001383D01*
X011956Y001388D01*
X011918Y001397D01*
X011882Y001409D01*
X011846Y001425D01*
X011812Y001444D01*
X011781Y001467D01*
X011752Y001493D01*
X011725Y001521D01*
X011702Y001552D01*
X011681Y001585D01*
X011665Y001621D01*
X011651Y001657D01*
X011642Y001695D01*
X011636Y001733D01*
X011634Y001772D01*
X011624Y001372D02*
X012424Y002172D01*
X010634Y001772D02*
X010636Y001811D01*
X010642Y001849D01*
X010651Y001887D01*
X010665Y001923D01*
X010681Y001959D01*
X010702Y001992D01*
X010725Y002023D01*
X010752Y002051D01*
X010781Y002077D01*
X010812Y002100D01*
X010846Y002119D01*
X010882Y002135D01*
X010918Y002147D01*
X010956Y002156D01*
X010995Y002161D01*
X011034Y002162D01*
X011072Y002159D01*
X011111Y002152D01*
X011148Y002142D01*
X011184Y002127D01*
X011219Y002110D01*
X011252Y002089D01*
X011282Y002064D01*
X011310Y002037D01*
X011335Y002007D01*
X011357Y001975D01*
X011375Y001941D01*
X011390Y001905D01*
X011402Y001868D01*
X011410Y001830D01*
X011414Y001791D01*
X011414Y001753D01*
X011410Y001714D01*
X011402Y001676D01*
X011390Y001639D01*
X011375Y001603D01*
X011357Y001569D01*
X011335Y001537D01*
X011310Y001507D01*
X011282Y001480D01*
X011252Y001455D01*
X011219Y001434D01*
X011184Y001417D01*
X011148Y001402D01*
X011111Y001392D01*
X011072Y001385D01*
X011034Y001382D01*
X010995Y001383D01*
X010956Y001388D01*
X010918Y001397D01*
X010882Y001409D01*
X010846Y001425D01*
X010812Y001444D01*
X010781Y001467D01*
X010752Y001493D01*
X010725Y001521D01*
X010702Y001552D01*
X010681Y001585D01*
X010665Y001621D01*
X010651Y001657D01*
X010642Y001695D01*
X010636Y001733D01*
X010634Y001772D01*
X010624Y001372D02*
X011424Y002172D01*
X009634Y001772D02*
X009636Y001811D01*
X009642Y001849D01*
X009651Y001887D01*
X009665Y001923D01*
X009681Y001959D01*
X009702Y001992D01*
X009725Y002023D01*
X009752Y002051D01*
X009781Y002077D01*
X009812Y002100D01*
X009846Y002119D01*
X009882Y002135D01*
X009918Y002147D01*
X009956Y002156D01*
X009995Y002161D01*
X010034Y002162D01*
X010072Y002159D01*
X010111Y002152D01*
X010148Y002142D01*
X010184Y002127D01*
X010219Y002110D01*
X010252Y002089D01*
X010282Y002064D01*
X010310Y002037D01*
X010335Y002007D01*
X010357Y001975D01*
X010375Y001941D01*
X010390Y001905D01*
X010402Y001868D01*
X010410Y001830D01*
X010414Y001791D01*
X010414Y001753D01*
X010410Y001714D01*
X010402Y001676D01*
X010390Y001639D01*
X010375Y001603D01*
X010357Y001569D01*
X010335Y001537D01*
X010310Y001507D01*
X010282Y001480D01*
X010252Y001455D01*
X010219Y001434D01*
X010184Y001417D01*
X010148Y001402D01*
X010111Y001392D01*
X010072Y001385D01*
X010034Y001382D01*
X009995Y001383D01*
X009956Y001388D01*
X009918Y001397D01*
X009882Y001409D01*
X009846Y001425D01*
X009812Y001444D01*
X009781Y001467D01*
X009752Y001493D01*
X009725Y001521D01*
X009702Y001552D01*
X009681Y001585D01*
X009665Y001621D01*
X009651Y001657D01*
X009642Y001695D01*
X009636Y001733D01*
X009634Y001772D01*
X009624Y001372D02*
X010424Y002172D01*
X008634Y001772D02*
X008636Y001811D01*
X008642Y001849D01*
X008651Y001887D01*
X008665Y001923D01*
X008681Y001959D01*
X008702Y001992D01*
X008725Y002023D01*
X008752Y002051D01*
X008781Y002077D01*
X008812Y002100D01*
X008846Y002119D01*
X008882Y002135D01*
X008918Y002147D01*
X008956Y002156D01*
X008995Y002161D01*
X009034Y002162D01*
X009072Y002159D01*
X009111Y002152D01*
X009148Y002142D01*
X009184Y002127D01*
X009219Y002110D01*
X009252Y002089D01*
X009282Y002064D01*
X009310Y002037D01*
X009335Y002007D01*
X009357Y001975D01*
X009375Y001941D01*
X009390Y001905D01*
X009402Y001868D01*
X009410Y001830D01*
X009414Y001791D01*
X009414Y001753D01*
X009410Y001714D01*
X009402Y001676D01*
X009390Y001639D01*
X009375Y001603D01*
X009357Y001569D01*
X009335Y001537D01*
X009310Y001507D01*
X009282Y001480D01*
X009252Y001455D01*
X009219Y001434D01*
X009184Y001417D01*
X009148Y001402D01*
X009111Y001392D01*
X009072Y001385D01*
X009034Y001382D01*
X008995Y001383D01*
X008956Y001388D01*
X008918Y001397D01*
X008882Y001409D01*
X008846Y001425D01*
X008812Y001444D01*
X008781Y001467D01*
X008752Y001493D01*
X008725Y001521D01*
X008702Y001552D01*
X008681Y001585D01*
X008665Y001621D01*
X008651Y001657D01*
X008642Y001695D01*
X008636Y001733D01*
X008634Y001772D01*
X008624Y001372D02*
X009424Y002172D01*
X007634Y001772D02*
X007636Y001811D01*
X007642Y001849D01*
X007651Y001887D01*
X007665Y001923D01*
X007681Y001959D01*
X007702Y001992D01*
X007725Y002023D01*
X007752Y002051D01*
X007781Y002077D01*
X007812Y002100D01*
X007846Y002119D01*
X007882Y002135D01*
X007918Y002147D01*
X007956Y002156D01*
X007995Y002161D01*
X008034Y002162D01*
X008072Y002159D01*
X008111Y002152D01*
X008148Y002142D01*
X008184Y002127D01*
X008219Y002110D01*
X008252Y002089D01*
X008282Y002064D01*
X008310Y002037D01*
X008335Y002007D01*
X008357Y001975D01*
X008375Y001941D01*
X008390Y001905D01*
X008402Y001868D01*
X008410Y001830D01*
X008414Y001791D01*
X008414Y001753D01*
X008410Y001714D01*
X008402Y001676D01*
X008390Y001639D01*
X008375Y001603D01*
X008357Y001569D01*
X008335Y001537D01*
X008310Y001507D01*
X008282Y001480D01*
X008252Y001455D01*
X008219Y001434D01*
X008184Y001417D01*
X008148Y001402D01*
X008111Y001392D01*
X008072Y001385D01*
X008034Y001382D01*
X007995Y001383D01*
X007956Y001388D01*
X007918Y001397D01*
X007882Y001409D01*
X007846Y001425D01*
X007812Y001444D01*
X007781Y001467D01*
X007752Y001493D01*
X007725Y001521D01*
X007702Y001552D01*
X007681Y001585D01*
X007665Y001621D01*
X007651Y001657D01*
X007642Y001695D01*
X007636Y001733D01*
X007634Y001772D01*
X007624Y001372D02*
X008424Y002172D01*
X006634Y001772D02*
X006636Y001811D01*
X006642Y001849D01*
X006651Y001887D01*
X006665Y001923D01*
X006681Y001959D01*
X006702Y001992D01*
X006725Y002023D01*
X006752Y002051D01*
X006781Y002077D01*
X006812Y002100D01*
X006846Y002119D01*
X006882Y002135D01*
X006918Y002147D01*
X006956Y002156D01*
X006995Y002161D01*
X007034Y002162D01*
X007072Y002159D01*
X007111Y002152D01*
X007148Y002142D01*
X007184Y002127D01*
X007219Y002110D01*
X007252Y002089D01*
X007282Y002064D01*
X007310Y002037D01*
X007335Y002007D01*
X007357Y001975D01*
X007375Y001941D01*
X007390Y001905D01*
X007402Y001868D01*
X007410Y001830D01*
X007414Y001791D01*
X007414Y001753D01*
X007410Y001714D01*
X007402Y001676D01*
X007390Y001639D01*
X007375Y001603D01*
X007357Y001569D01*
X007335Y001537D01*
X007310Y001507D01*
X007282Y001480D01*
X007252Y001455D01*
X007219Y001434D01*
X007184Y001417D01*
X007148Y001402D01*
X007111Y001392D01*
X007072Y001385D01*
X007034Y001382D01*
X006995Y001383D01*
X006956Y001388D01*
X006918Y001397D01*
X006882Y001409D01*
X006846Y001425D01*
X006812Y001444D01*
X006781Y001467D01*
X006752Y001493D01*
X006725Y001521D01*
X006702Y001552D01*
X006681Y001585D01*
X006665Y001621D01*
X006651Y001657D01*
X006642Y001695D01*
X006636Y001733D01*
X006634Y001772D01*
X006624Y001372D02*
X007424Y002172D01*
X010106Y006260D02*
X010108Y006299D01*
X010114Y006337D01*
X010123Y006375D01*
X010137Y006411D01*
X010153Y006447D01*
X010174Y006480D01*
X010197Y006511D01*
X010224Y006539D01*
X010253Y006565D01*
X010284Y006588D01*
X010318Y006607D01*
X010354Y006623D01*
X010390Y006635D01*
X010428Y006644D01*
X010467Y006649D01*
X010506Y006650D01*
X010544Y006647D01*
X010583Y006640D01*
X010620Y006630D01*
X010656Y006615D01*
X010691Y006598D01*
X010724Y006577D01*
X010754Y006552D01*
X010782Y006525D01*
X010807Y006495D01*
X010829Y006463D01*
X010847Y006429D01*
X010862Y006393D01*
X010874Y006356D01*
X010882Y006318D01*
X010886Y006279D01*
X010886Y006241D01*
X010882Y006202D01*
X010874Y006164D01*
X010862Y006127D01*
X010847Y006091D01*
X010829Y006057D01*
X010807Y006025D01*
X010782Y005995D01*
X010754Y005968D01*
X010724Y005943D01*
X010691Y005922D01*
X010656Y005905D01*
X010620Y005890D01*
X010583Y005880D01*
X010544Y005873D01*
X010506Y005870D01*
X010467Y005871D01*
X010428Y005876D01*
X010390Y005885D01*
X010354Y005897D01*
X010318Y005913D01*
X010284Y005932D01*
X010253Y005955D01*
X010224Y005981D01*
X010197Y006009D01*
X010174Y006040D01*
X010153Y006073D01*
X010137Y006109D01*
X010123Y006145D01*
X010114Y006183D01*
X010108Y006221D01*
X010106Y006260D01*
X010096Y005860D02*
X010896Y006660D01*
X011464Y006693D02*
X011466Y006732D01*
X011472Y006770D01*
X011481Y006808D01*
X011495Y006844D01*
X011511Y006880D01*
X011532Y006913D01*
X011555Y006944D01*
X011582Y006972D01*
X011611Y006998D01*
X011642Y007021D01*
X011676Y007040D01*
X011712Y007056D01*
X011748Y007068D01*
X011786Y007077D01*
X011825Y007082D01*
X011864Y007083D01*
X011902Y007080D01*
X011941Y007073D01*
X011978Y007063D01*
X012014Y007048D01*
X012049Y007031D01*
X012082Y007010D01*
X012112Y006985D01*
X012140Y006958D01*
X012165Y006928D01*
X012187Y006896D01*
X012205Y006862D01*
X012220Y006826D01*
X012232Y006789D01*
X012240Y006751D01*
X012244Y006712D01*
X012244Y006674D01*
X012240Y006635D01*
X012232Y006597D01*
X012220Y006560D01*
X012205Y006524D01*
X012187Y006490D01*
X012165Y006458D01*
X012140Y006428D01*
X012112Y006401D01*
X012082Y006376D01*
X012049Y006355D01*
X012014Y006338D01*
X011978Y006323D01*
X011941Y006313D01*
X011902Y006306D01*
X011864Y006303D01*
X011825Y006304D01*
X011786Y006309D01*
X011748Y006318D01*
X011712Y006330D01*
X011676Y006346D01*
X011642Y006365D01*
X011611Y006388D01*
X011582Y006414D01*
X011555Y006442D01*
X011532Y006473D01*
X011511Y006506D01*
X011495Y006542D01*
X011481Y006578D01*
X011472Y006616D01*
X011466Y006654D01*
X011464Y006693D01*
X011454Y006293D02*
X012254Y007093D01*
X013121Y007392D02*
X013123Y007431D01*
X013129Y007469D01*
X013138Y007507D01*
X013152Y007543D01*
X013168Y007579D01*
X013189Y007612D01*
X013212Y007643D01*
X013239Y007671D01*
X013268Y007697D01*
X013299Y007720D01*
X013333Y007739D01*
X013369Y007755D01*
X013405Y007767D01*
X013443Y007776D01*
X013482Y007781D01*
X013521Y007782D01*
X013559Y007779D01*
X013598Y007772D01*
X013635Y007762D01*
X013671Y007747D01*
X013706Y007730D01*
X013739Y007709D01*
X013769Y007684D01*
X013797Y007657D01*
X013822Y007627D01*
X013844Y007595D01*
X013862Y007561D01*
X013877Y007525D01*
X013889Y007488D01*
X013897Y007450D01*
X013901Y007411D01*
X013901Y007373D01*
X013897Y007334D01*
X013889Y007296D01*
X013877Y007259D01*
X013862Y007223D01*
X013844Y007189D01*
X013822Y007157D01*
X013797Y007127D01*
X013769Y007100D01*
X013739Y007075D01*
X013706Y007054D01*
X013671Y007037D01*
X013635Y007022D01*
X013598Y007012D01*
X013559Y007005D01*
X013521Y007002D01*
X013482Y007003D01*
X013443Y007008D01*
X013405Y007017D01*
X013369Y007029D01*
X013333Y007045D01*
X013299Y007064D01*
X013268Y007087D01*
X013239Y007113D01*
X013212Y007141D01*
X013189Y007172D01*
X013168Y007205D01*
X013152Y007241D01*
X013138Y007277D01*
X013129Y007315D01*
X013123Y007353D01*
X013121Y007392D01*
X013111Y006992D02*
X013911Y007792D01*
X013325Y007682D02*
X013327Y007721D01*
X013333Y007759D01*
X013342Y007797D01*
X013356Y007833D01*
X013372Y007869D01*
X013393Y007902D01*
X013416Y007933D01*
X013443Y007961D01*
X013472Y007987D01*
X013503Y008010D01*
X013537Y008029D01*
X013573Y008045D01*
X013609Y008057D01*
X013647Y008066D01*
X013686Y008071D01*
X013725Y008072D01*
X013763Y008069D01*
X013802Y008062D01*
X013839Y008052D01*
X013875Y008037D01*
X013910Y008020D01*
X013943Y007999D01*
X013973Y007974D01*
X014001Y007947D01*
X014026Y007917D01*
X014048Y007885D01*
X014066Y007851D01*
X014081Y007815D01*
X014093Y007778D01*
X014101Y007740D01*
X014105Y007701D01*
X014105Y007663D01*
X014101Y007624D01*
X014093Y007586D01*
X014081Y007549D01*
X014066Y007513D01*
X014048Y007479D01*
X014026Y007447D01*
X014001Y007417D01*
X013973Y007390D01*
X013943Y007365D01*
X013910Y007344D01*
X013875Y007327D01*
X013839Y007312D01*
X013802Y007302D01*
X013763Y007295D01*
X013725Y007292D01*
X013686Y007293D01*
X013647Y007298D01*
X013609Y007307D01*
X013573Y007319D01*
X013537Y007335D01*
X013503Y007354D01*
X013472Y007377D01*
X013443Y007403D01*
X013416Y007431D01*
X013393Y007462D01*
X013372Y007495D01*
X013356Y007531D01*
X013342Y007567D01*
X013333Y007605D01*
X013327Y007643D01*
X013325Y007682D01*
X013315Y007282D02*
X014115Y008082D01*
X014484Y008190D02*
X014486Y008229D01*
X014492Y008267D01*
X014501Y008305D01*
X014515Y008341D01*
X014531Y008377D01*
X014552Y008410D01*
X014575Y008441D01*
X014602Y008469D01*
X014631Y008495D01*
X014662Y008518D01*
X014696Y008537D01*
X014732Y008553D01*
X014768Y008565D01*
X014806Y008574D01*
X014845Y008579D01*
X014884Y008580D01*
X014922Y008577D01*
X014961Y008570D01*
X014998Y008560D01*
X015034Y008545D01*
X015069Y008528D01*
X015102Y008507D01*
X015132Y008482D01*
X015160Y008455D01*
X015185Y008425D01*
X015207Y008393D01*
X015225Y008359D01*
X015240Y008323D01*
X015252Y008286D01*
X015260Y008248D01*
X015264Y008209D01*
X015264Y008171D01*
X015260Y008132D01*
X015252Y008094D01*
X015240Y008057D01*
X015225Y008021D01*
X015207Y007987D01*
X015185Y007955D01*
X015160Y007925D01*
X015132Y007898D01*
X015102Y007873D01*
X015069Y007852D01*
X015034Y007835D01*
X014998Y007820D01*
X014961Y007810D01*
X014922Y007803D01*
X014884Y007800D01*
X014845Y007801D01*
X014806Y007806D01*
X014768Y007815D01*
X014732Y007827D01*
X014696Y007843D01*
X014662Y007862D01*
X014631Y007885D01*
X014602Y007911D01*
X014575Y007939D01*
X014552Y007970D01*
X014531Y008003D01*
X014515Y008039D01*
X014501Y008075D01*
X014492Y008113D01*
X014486Y008151D01*
X014484Y008190D01*
X014474Y007790D02*
X015274Y008590D01*
X014516Y008598D02*
X014518Y008637D01*
X014524Y008675D01*
X014533Y008713D01*
X014547Y008749D01*
X014563Y008785D01*
X014584Y008818D01*
X014607Y008849D01*
X014634Y008877D01*
X014663Y008903D01*
X014694Y008926D01*
X014728Y008945D01*
X014764Y008961D01*
X014800Y008973D01*
X014838Y008982D01*
X014877Y008987D01*
X014916Y008988D01*
X014954Y008985D01*
X014993Y008978D01*
X015030Y008968D01*
X015066Y008953D01*
X015101Y008936D01*
X015134Y008915D01*
X015164Y008890D01*
X015192Y008863D01*
X015217Y008833D01*
X015239Y008801D01*
X015257Y008767D01*
X015272Y008731D01*
X015284Y008694D01*
X015292Y008656D01*
X015296Y008617D01*
X015296Y008579D01*
X015292Y008540D01*
X015284Y008502D01*
X015272Y008465D01*
X015257Y008429D01*
X015239Y008395D01*
X015217Y008363D01*
X015192Y008333D01*
X015164Y008306D01*
X015134Y008281D01*
X015101Y008260D01*
X015066Y008243D01*
X015030Y008228D01*
X014993Y008218D01*
X014954Y008211D01*
X014916Y008208D01*
X014877Y008209D01*
X014838Y008214D01*
X014800Y008223D01*
X014764Y008235D01*
X014728Y008251D01*
X014694Y008270D01*
X014663Y008293D01*
X014634Y008319D01*
X014607Y008347D01*
X014584Y008378D01*
X014563Y008411D01*
X014547Y008447D01*
X014533Y008483D01*
X014524Y008521D01*
X014518Y008559D01*
X014516Y008598D01*
X014506Y008198D02*
X015306Y008998D01*
X014715Y009713D02*
X014717Y009752D01*
X014723Y009790D01*
X014732Y009828D01*
X014746Y009864D01*
X014762Y009900D01*
X014783Y009933D01*
X014806Y009964D01*
X014833Y009992D01*
X014862Y010018D01*
X014893Y010041D01*
X014927Y010060D01*
X014963Y010076D01*
X014999Y010088D01*
X015037Y010097D01*
X015076Y010102D01*
X015115Y010103D01*
X015153Y010100D01*
X015192Y010093D01*
X015229Y010083D01*
X015265Y010068D01*
X015300Y010051D01*
X015333Y010030D01*
X015363Y010005D01*
X015391Y009978D01*
X015416Y009948D01*
X015438Y009916D01*
X015456Y009882D01*
X015471Y009846D01*
X015483Y009809D01*
X015491Y009771D01*
X015495Y009732D01*
X015495Y009694D01*
X015491Y009655D01*
X015483Y009617D01*
X015471Y009580D01*
X015456Y009544D01*
X015438Y009510D01*
X015416Y009478D01*
X015391Y009448D01*
X015363Y009421D01*
X015333Y009396D01*
X015300Y009375D01*
X015265Y009358D01*
X015229Y009343D01*
X015192Y009333D01*
X015153Y009326D01*
X015115Y009323D01*
X015076Y009324D01*
X015037Y009329D01*
X014999Y009338D01*
X014963Y009350D01*
X014927Y009366D01*
X014893Y009385D01*
X014862Y009408D01*
X014833Y009434D01*
X014806Y009462D01*
X014783Y009493D01*
X014762Y009526D01*
X014746Y009562D01*
X014732Y009598D01*
X014723Y009636D01*
X014717Y009674D01*
X014715Y009713D01*
X014705Y009313D02*
X015505Y010113D01*
X014051Y009720D02*
X014053Y009759D01*
X014059Y009797D01*
X014068Y009835D01*
X014082Y009871D01*
X014098Y009907D01*
X014119Y009940D01*
X014142Y009971D01*
X014169Y009999D01*
X014198Y010025D01*
X014229Y010048D01*
X014263Y010067D01*
X014299Y010083D01*
X014335Y010095D01*
X014373Y010104D01*
X014412Y010109D01*
X014451Y010110D01*
X014489Y010107D01*
X014528Y010100D01*
X014565Y010090D01*
X014601Y010075D01*
X014636Y010058D01*
X014669Y010037D01*
X014699Y010012D01*
X014727Y009985D01*
X014752Y009955D01*
X014774Y009923D01*
X014792Y009889D01*
X014807Y009853D01*
X014819Y009816D01*
X014827Y009778D01*
X014831Y009739D01*
X014831Y009701D01*
X014827Y009662D01*
X014819Y009624D01*
X014807Y009587D01*
X014792Y009551D01*
X014774Y009517D01*
X014752Y009485D01*
X014727Y009455D01*
X014699Y009428D01*
X014669Y009403D01*
X014636Y009382D01*
X014601Y009365D01*
X014565Y009350D01*
X014528Y009340D01*
X014489Y009333D01*
X014451Y009330D01*
X014412Y009331D01*
X014373Y009336D01*
X014335Y009345D01*
X014299Y009357D01*
X014263Y009373D01*
X014229Y009392D01*
X014198Y009415D01*
X014169Y009441D01*
X014142Y009469D01*
X014119Y009500D01*
X014098Y009533D01*
X014082Y009569D01*
X014068Y009605D01*
X014059Y009643D01*
X014053Y009681D01*
X014051Y009720D01*
X014041Y009320D02*
X014841Y010120D01*
X014082Y010791D02*
X014084Y010830D01*
X014090Y010868D01*
X014099Y010906D01*
X014113Y010942D01*
X014129Y010978D01*
X014150Y011011D01*
X014173Y011042D01*
X014200Y011070D01*
X014229Y011096D01*
X014260Y011119D01*
X014294Y011138D01*
X014330Y011154D01*
X014366Y011166D01*
X014404Y011175D01*
X014443Y011180D01*
X014482Y011181D01*
X014520Y011178D01*
X014559Y011171D01*
X014596Y011161D01*
X014632Y011146D01*
X014667Y011129D01*
X014700Y011108D01*
X014730Y011083D01*
X014758Y011056D01*
X014783Y011026D01*
X014805Y010994D01*
X014823Y010960D01*
X014838Y010924D01*
X014850Y010887D01*
X014858Y010849D01*
X014862Y010810D01*
X014862Y010772D01*
X014858Y010733D01*
X014850Y010695D01*
X014838Y010658D01*
X014823Y010622D01*
X014805Y010588D01*
X014783Y010556D01*
X014758Y010526D01*
X014730Y010499D01*
X014700Y010474D01*
X014667Y010453D01*
X014632Y010436D01*
X014596Y010421D01*
X014559Y010411D01*
X014520Y010404D01*
X014482Y010401D01*
X014443Y010402D01*
X014404Y010407D01*
X014366Y010416D01*
X014330Y010428D01*
X014294Y010444D01*
X014260Y010463D01*
X014229Y010486D01*
X014200Y010512D01*
X014173Y010540D01*
X014150Y010571D01*
X014129Y010604D01*
X014113Y010640D01*
X014099Y010676D01*
X014090Y010714D01*
X014084Y010752D01*
X014082Y010791D01*
X014072Y010391D02*
X014872Y011191D01*
X015665Y013248D02*
X015667Y013287D01*
X015673Y013325D01*
X015682Y013363D01*
X015696Y013399D01*
X015712Y013435D01*
X015733Y013468D01*
X015756Y013499D01*
X015783Y013527D01*
X015812Y013553D01*
X015843Y013576D01*
X015877Y013595D01*
X015913Y013611D01*
X015949Y013623D01*
X015987Y013632D01*
X016026Y013637D01*
X016065Y013638D01*
X016103Y013635D01*
X016142Y013628D01*
X016179Y013618D01*
X016215Y013603D01*
X016250Y013586D01*
X016283Y013565D01*
X016313Y013540D01*
X016341Y013513D01*
X016366Y013483D01*
X016388Y013451D01*
X016406Y013417D01*
X016421Y013381D01*
X016433Y013344D01*
X016441Y013306D01*
X016445Y013267D01*
X016445Y013229D01*
X016441Y013190D01*
X016433Y013152D01*
X016421Y013115D01*
X016406Y013079D01*
X016388Y013045D01*
X016366Y013013D01*
X016341Y012983D01*
X016313Y012956D01*
X016283Y012931D01*
X016250Y012910D01*
X016215Y012893D01*
X016179Y012878D01*
X016142Y012868D01*
X016103Y012861D01*
X016065Y012858D01*
X016026Y012859D01*
X015987Y012864D01*
X015949Y012873D01*
X015913Y012885D01*
X015877Y012901D01*
X015843Y012920D01*
X015812Y012943D01*
X015783Y012969D01*
X015756Y012997D01*
X015733Y013028D01*
X015712Y013061D01*
X015696Y013097D01*
X015682Y013133D01*
X015673Y013171D01*
X015667Y013209D01*
X015665Y013248D01*
X015655Y012848D02*
X016455Y013648D01*
X016004Y013850D02*
X016006Y013889D01*
X016012Y013927D01*
X016021Y013965D01*
X016035Y014001D01*
X016051Y014037D01*
X016072Y014070D01*
X016095Y014101D01*
X016122Y014129D01*
X016151Y014155D01*
X016182Y014178D01*
X016216Y014197D01*
X016252Y014213D01*
X016288Y014225D01*
X016326Y014234D01*
X016365Y014239D01*
X016404Y014240D01*
X016442Y014237D01*
X016481Y014230D01*
X016518Y014220D01*
X016554Y014205D01*
X016589Y014188D01*
X016622Y014167D01*
X016652Y014142D01*
X016680Y014115D01*
X016705Y014085D01*
X016727Y014053D01*
X016745Y014019D01*
X016760Y013983D01*
X016772Y013946D01*
X016780Y013908D01*
X016784Y013869D01*
X016784Y013831D01*
X016780Y013792D01*
X016772Y013754D01*
X016760Y013717D01*
X016745Y013681D01*
X016727Y013647D01*
X016705Y013615D01*
X016680Y013585D01*
X016652Y013558D01*
X016622Y013533D01*
X016589Y013512D01*
X016554Y013495D01*
X016518Y013480D01*
X016481Y013470D01*
X016442Y013463D01*
X016404Y013460D01*
X016365Y013461D01*
X016326Y013466D01*
X016288Y013475D01*
X016252Y013487D01*
X016216Y013503D01*
X016182Y013522D01*
X016151Y013545D01*
X016122Y013571D01*
X016095Y013599D01*
X016072Y013630D01*
X016051Y013663D01*
X016035Y013699D01*
X016021Y013735D01*
X016012Y013773D01*
X016006Y013811D01*
X016004Y013850D01*
X015994Y013450D02*
X016794Y014250D01*
X016716Y014913D02*
X016718Y014952D01*
X016724Y014990D01*
X016733Y015028D01*
X016747Y015064D01*
X016763Y015100D01*
X016784Y015133D01*
X016807Y015164D01*
X016834Y015192D01*
X016863Y015218D01*
X016894Y015241D01*
X016928Y015260D01*
X016964Y015276D01*
X017000Y015288D01*
X017038Y015297D01*
X017077Y015302D01*
X017116Y015303D01*
X017154Y015300D01*
X017193Y015293D01*
X017230Y015283D01*
X017266Y015268D01*
X017301Y015251D01*
X017334Y015230D01*
X017364Y015205D01*
X017392Y015178D01*
X017417Y015148D01*
X017439Y015116D01*
X017457Y015082D01*
X017472Y015046D01*
X017484Y015009D01*
X017492Y014971D01*
X017496Y014932D01*
X017496Y014894D01*
X017492Y014855D01*
X017484Y014817D01*
X017472Y014780D01*
X017457Y014744D01*
X017439Y014710D01*
X017417Y014678D01*
X017392Y014648D01*
X017364Y014621D01*
X017334Y014596D01*
X017301Y014575D01*
X017266Y014558D01*
X017230Y014543D01*
X017193Y014533D01*
X017154Y014526D01*
X017116Y014523D01*
X017077Y014524D01*
X017038Y014529D01*
X017000Y014538D01*
X016964Y014550D01*
X016928Y014566D01*
X016894Y014585D01*
X016863Y014608D01*
X016834Y014634D01*
X016807Y014662D01*
X016784Y014693D01*
X016763Y014726D01*
X016747Y014762D01*
X016733Y014798D01*
X016724Y014836D01*
X016718Y014874D01*
X016716Y014913D01*
X016706Y014513D02*
X017506Y015313D01*
X017716Y014913D02*
X017718Y014952D01*
X017724Y014990D01*
X017733Y015028D01*
X017747Y015064D01*
X017763Y015100D01*
X017784Y015133D01*
X017807Y015164D01*
X017834Y015192D01*
X017863Y015218D01*
X017894Y015241D01*
X017928Y015260D01*
X017964Y015276D01*
X018000Y015288D01*
X018038Y015297D01*
X018077Y015302D01*
X018116Y015303D01*
X018154Y015300D01*
X018193Y015293D01*
X018230Y015283D01*
X018266Y015268D01*
X018301Y015251D01*
X018334Y015230D01*
X018364Y015205D01*
X018392Y015178D01*
X018417Y015148D01*
X018439Y015116D01*
X018457Y015082D01*
X018472Y015046D01*
X018484Y015009D01*
X018492Y014971D01*
X018496Y014932D01*
X018496Y014894D01*
X018492Y014855D01*
X018484Y014817D01*
X018472Y014780D01*
X018457Y014744D01*
X018439Y014710D01*
X018417Y014678D01*
X018392Y014648D01*
X018364Y014621D01*
X018334Y014596D01*
X018301Y014575D01*
X018266Y014558D01*
X018230Y014543D01*
X018193Y014533D01*
X018154Y014526D01*
X018116Y014523D01*
X018077Y014524D01*
X018038Y014529D01*
X018000Y014538D01*
X017964Y014550D01*
X017928Y014566D01*
X017894Y014585D01*
X017863Y014608D01*
X017834Y014634D01*
X017807Y014662D01*
X017784Y014693D01*
X017763Y014726D01*
X017747Y014762D01*
X017733Y014798D01*
X017724Y014836D01*
X017718Y014874D01*
X017716Y014913D01*
X017706Y014513D02*
X018506Y015313D01*
X018716Y014913D02*
X018718Y014952D01*
X018724Y014990D01*
X018733Y015028D01*
X018747Y015064D01*
X018763Y015100D01*
X018784Y015133D01*
X018807Y015164D01*
X018834Y015192D01*
X018863Y015218D01*
X018894Y015241D01*
X018928Y015260D01*
X018964Y015276D01*
X019000Y015288D01*
X019038Y015297D01*
X019077Y015302D01*
X019116Y015303D01*
X019154Y015300D01*
X019193Y015293D01*
X019230Y015283D01*
X019266Y015268D01*
X019301Y015251D01*
X019334Y015230D01*
X019364Y015205D01*
X019392Y015178D01*
X019417Y015148D01*
X019439Y015116D01*
X019457Y015082D01*
X019472Y015046D01*
X019484Y015009D01*
X019492Y014971D01*
X019496Y014932D01*
X019496Y014894D01*
X019492Y014855D01*
X019484Y014817D01*
X019472Y014780D01*
X019457Y014744D01*
X019439Y014710D01*
X019417Y014678D01*
X019392Y014648D01*
X019364Y014621D01*
X019334Y014596D01*
X019301Y014575D01*
X019266Y014558D01*
X019230Y014543D01*
X019193Y014533D01*
X019154Y014526D01*
X019116Y014523D01*
X019077Y014524D01*
X019038Y014529D01*
X019000Y014538D01*
X018964Y014550D01*
X018928Y014566D01*
X018894Y014585D01*
X018863Y014608D01*
X018834Y014634D01*
X018807Y014662D01*
X018784Y014693D01*
X018763Y014726D01*
X018747Y014762D01*
X018733Y014798D01*
X018724Y014836D01*
X018718Y014874D01*
X018716Y014913D01*
X018706Y014513D02*
X019506Y015313D01*
X018720Y016299D02*
X018722Y016338D01*
X018728Y016376D01*
X018737Y016414D01*
X018751Y016450D01*
X018767Y016486D01*
X018788Y016519D01*
X018811Y016550D01*
X018838Y016578D01*
X018867Y016604D01*
X018898Y016627D01*
X018932Y016646D01*
X018968Y016662D01*
X019004Y016674D01*
X019042Y016683D01*
X019081Y016688D01*
X019120Y016689D01*
X019158Y016686D01*
X019197Y016679D01*
X019234Y016669D01*
X019270Y016654D01*
X019305Y016637D01*
X019338Y016616D01*
X019368Y016591D01*
X019396Y016564D01*
X019421Y016534D01*
X019443Y016502D01*
X019461Y016468D01*
X019476Y016432D01*
X019488Y016395D01*
X019496Y016357D01*
X019500Y016318D01*
X019500Y016280D01*
X019496Y016241D01*
X019488Y016203D01*
X019476Y016166D01*
X019461Y016130D01*
X019443Y016096D01*
X019421Y016064D01*
X019396Y016034D01*
X019368Y016007D01*
X019338Y015982D01*
X019305Y015961D01*
X019270Y015944D01*
X019234Y015929D01*
X019197Y015919D01*
X019158Y015912D01*
X019120Y015909D01*
X019081Y015910D01*
X019042Y015915D01*
X019004Y015924D01*
X018968Y015936D01*
X018932Y015952D01*
X018898Y015971D01*
X018867Y015994D01*
X018838Y016020D01*
X018811Y016048D01*
X018788Y016079D01*
X018767Y016112D01*
X018751Y016148D01*
X018737Y016184D01*
X018728Y016222D01*
X018722Y016260D01*
X018720Y016299D01*
X018710Y015899D02*
X019510Y016699D01*
X018716Y017677D02*
X018718Y017716D01*
X018724Y017754D01*
X018733Y017792D01*
X018747Y017828D01*
X018763Y017864D01*
X018784Y017897D01*
X018807Y017928D01*
X018834Y017956D01*
X018863Y017982D01*
X018894Y018005D01*
X018928Y018024D01*
X018964Y018040D01*
X019000Y018052D01*
X019038Y018061D01*
X019077Y018066D01*
X019116Y018067D01*
X019154Y018064D01*
X019193Y018057D01*
X019230Y018047D01*
X019266Y018032D01*
X019301Y018015D01*
X019334Y017994D01*
X019364Y017969D01*
X019392Y017942D01*
X019417Y017912D01*
X019439Y017880D01*
X019457Y017846D01*
X019472Y017810D01*
X019484Y017773D01*
X019492Y017735D01*
X019496Y017696D01*
X019496Y017658D01*
X019492Y017619D01*
X019484Y017581D01*
X019472Y017544D01*
X019457Y017508D01*
X019439Y017474D01*
X019417Y017442D01*
X019392Y017412D01*
X019364Y017385D01*
X019334Y017360D01*
X019301Y017339D01*
X019266Y017322D01*
X019230Y017307D01*
X019193Y017297D01*
X019154Y017290D01*
X019116Y017287D01*
X019077Y017288D01*
X019038Y017293D01*
X019000Y017302D01*
X018964Y017314D01*
X018928Y017330D01*
X018894Y017349D01*
X018863Y017372D01*
X018834Y017398D01*
X018807Y017426D01*
X018784Y017457D01*
X018763Y017490D01*
X018747Y017526D01*
X018733Y017562D01*
X018724Y017600D01*
X018718Y017638D01*
X018716Y017677D01*
X018706Y017277D02*
X019506Y018077D01*
X018720Y019059D02*
X018722Y019098D01*
X018728Y019136D01*
X018737Y019174D01*
X018751Y019210D01*
X018767Y019246D01*
X018788Y019279D01*
X018811Y019310D01*
X018838Y019338D01*
X018867Y019364D01*
X018898Y019387D01*
X018932Y019406D01*
X018968Y019422D01*
X019004Y019434D01*
X019042Y019443D01*
X019081Y019448D01*
X019120Y019449D01*
X019158Y019446D01*
X019197Y019439D01*
X019234Y019429D01*
X019270Y019414D01*
X019305Y019397D01*
X019338Y019376D01*
X019368Y019351D01*
X019396Y019324D01*
X019421Y019294D01*
X019443Y019262D01*
X019461Y019228D01*
X019476Y019192D01*
X019488Y019155D01*
X019496Y019117D01*
X019500Y019078D01*
X019500Y019040D01*
X019496Y019001D01*
X019488Y018963D01*
X019476Y018926D01*
X019461Y018890D01*
X019443Y018856D01*
X019421Y018824D01*
X019396Y018794D01*
X019368Y018767D01*
X019338Y018742D01*
X019305Y018721D01*
X019270Y018704D01*
X019234Y018689D01*
X019197Y018679D01*
X019158Y018672D01*
X019120Y018669D01*
X019081Y018670D01*
X019042Y018675D01*
X019004Y018684D01*
X018968Y018696D01*
X018932Y018712D01*
X018898Y018731D01*
X018867Y018754D01*
X018838Y018780D01*
X018811Y018808D01*
X018788Y018839D01*
X018767Y018872D01*
X018751Y018908D01*
X018737Y018944D01*
X018728Y018982D01*
X018722Y019020D01*
X018720Y019059D01*
X018710Y018659D02*
X019510Y019459D01*
X017720Y019059D02*
X017722Y019098D01*
X017728Y019136D01*
X017737Y019174D01*
X017751Y019210D01*
X017767Y019246D01*
X017788Y019279D01*
X017811Y019310D01*
X017838Y019338D01*
X017867Y019364D01*
X017898Y019387D01*
X017932Y019406D01*
X017968Y019422D01*
X018004Y019434D01*
X018042Y019443D01*
X018081Y019448D01*
X018120Y019449D01*
X018158Y019446D01*
X018197Y019439D01*
X018234Y019429D01*
X018270Y019414D01*
X018305Y019397D01*
X018338Y019376D01*
X018368Y019351D01*
X018396Y019324D01*
X018421Y019294D01*
X018443Y019262D01*
X018461Y019228D01*
X018476Y019192D01*
X018488Y019155D01*
X018496Y019117D01*
X018500Y019078D01*
X018500Y019040D01*
X018496Y019001D01*
X018488Y018963D01*
X018476Y018926D01*
X018461Y018890D01*
X018443Y018856D01*
X018421Y018824D01*
X018396Y018794D01*
X018368Y018767D01*
X018338Y018742D01*
X018305Y018721D01*
X018270Y018704D01*
X018234Y018689D01*
X018197Y018679D01*
X018158Y018672D01*
X018120Y018669D01*
X018081Y018670D01*
X018042Y018675D01*
X018004Y018684D01*
X017968Y018696D01*
X017932Y018712D01*
X017898Y018731D01*
X017867Y018754D01*
X017838Y018780D01*
X017811Y018808D01*
X017788Y018839D01*
X017767Y018872D01*
X017751Y018908D01*
X017737Y018944D01*
X017728Y018982D01*
X017722Y019020D01*
X017720Y019059D01*
X017710Y018659D02*
X018510Y019459D01*
X016720Y019059D02*
X016722Y019098D01*
X016728Y019136D01*
X016737Y019174D01*
X016751Y019210D01*
X016767Y019246D01*
X016788Y019279D01*
X016811Y019310D01*
X016838Y019338D01*
X016867Y019364D01*
X016898Y019387D01*
X016932Y019406D01*
X016968Y019422D01*
X017004Y019434D01*
X017042Y019443D01*
X017081Y019448D01*
X017120Y019449D01*
X017158Y019446D01*
X017197Y019439D01*
X017234Y019429D01*
X017270Y019414D01*
X017305Y019397D01*
X017338Y019376D01*
X017368Y019351D01*
X017396Y019324D01*
X017421Y019294D01*
X017443Y019262D01*
X017461Y019228D01*
X017476Y019192D01*
X017488Y019155D01*
X017496Y019117D01*
X017500Y019078D01*
X017500Y019040D01*
X017496Y019001D01*
X017488Y018963D01*
X017476Y018926D01*
X017461Y018890D01*
X017443Y018856D01*
X017421Y018824D01*
X017396Y018794D01*
X017368Y018767D01*
X017338Y018742D01*
X017305Y018721D01*
X017270Y018704D01*
X017234Y018689D01*
X017197Y018679D01*
X017158Y018672D01*
X017120Y018669D01*
X017081Y018670D01*
X017042Y018675D01*
X017004Y018684D01*
X016968Y018696D01*
X016932Y018712D01*
X016898Y018731D01*
X016867Y018754D01*
X016838Y018780D01*
X016811Y018808D01*
X016788Y018839D01*
X016767Y018872D01*
X016751Y018908D01*
X016737Y018944D01*
X016728Y018982D01*
X016722Y019020D01*
X016720Y019059D01*
X016710Y018659D02*
X017510Y019459D01*
X016716Y017677D02*
X016718Y017716D01*
X016724Y017754D01*
X016733Y017792D01*
X016747Y017828D01*
X016763Y017864D01*
X016784Y017897D01*
X016807Y017928D01*
X016834Y017956D01*
X016863Y017982D01*
X016894Y018005D01*
X016928Y018024D01*
X016964Y018040D01*
X017000Y018052D01*
X017038Y018061D01*
X017077Y018066D01*
X017116Y018067D01*
X017154Y018064D01*
X017193Y018057D01*
X017230Y018047D01*
X017266Y018032D01*
X017301Y018015D01*
X017334Y017994D01*
X017364Y017969D01*
X017392Y017942D01*
X017417Y017912D01*
X017439Y017880D01*
X017457Y017846D01*
X017472Y017810D01*
X017484Y017773D01*
X017492Y017735D01*
X017496Y017696D01*
X017496Y017658D01*
X017492Y017619D01*
X017484Y017581D01*
X017472Y017544D01*
X017457Y017508D01*
X017439Y017474D01*
X017417Y017442D01*
X017392Y017412D01*
X017364Y017385D01*
X017334Y017360D01*
X017301Y017339D01*
X017266Y017322D01*
X017230Y017307D01*
X017193Y017297D01*
X017154Y017290D01*
X017116Y017287D01*
X017077Y017288D01*
X017038Y017293D01*
X017000Y017302D01*
X016964Y017314D01*
X016928Y017330D01*
X016894Y017349D01*
X016863Y017372D01*
X016834Y017398D01*
X016807Y017426D01*
X016784Y017457D01*
X016763Y017490D01*
X016747Y017526D01*
X016733Y017562D01*
X016724Y017600D01*
X016718Y017638D01*
X016716Y017677D01*
X016706Y017277D02*
X017506Y018077D01*
X017716Y017677D02*
X017718Y017716D01*
X017724Y017754D01*
X017733Y017792D01*
X017747Y017828D01*
X017763Y017864D01*
X017784Y017897D01*
X017807Y017928D01*
X017834Y017956D01*
X017863Y017982D01*
X017894Y018005D01*
X017928Y018024D01*
X017964Y018040D01*
X018000Y018052D01*
X018038Y018061D01*
X018077Y018066D01*
X018116Y018067D01*
X018154Y018064D01*
X018193Y018057D01*
X018230Y018047D01*
X018266Y018032D01*
X018301Y018015D01*
X018334Y017994D01*
X018364Y017969D01*
X018392Y017942D01*
X018417Y017912D01*
X018439Y017880D01*
X018457Y017846D01*
X018472Y017810D01*
X018484Y017773D01*
X018492Y017735D01*
X018496Y017696D01*
X018496Y017658D01*
X018492Y017619D01*
X018484Y017581D01*
X018472Y017544D01*
X018457Y017508D01*
X018439Y017474D01*
X018417Y017442D01*
X018392Y017412D01*
X018364Y017385D01*
X018334Y017360D01*
X018301Y017339D01*
X018266Y017322D01*
X018230Y017307D01*
X018193Y017297D01*
X018154Y017290D01*
X018116Y017287D01*
X018077Y017288D01*
X018038Y017293D01*
X018000Y017302D01*
X017964Y017314D01*
X017928Y017330D01*
X017894Y017349D01*
X017863Y017372D01*
X017834Y017398D01*
X017807Y017426D01*
X017784Y017457D01*
X017763Y017490D01*
X017747Y017526D01*
X017733Y017562D01*
X017724Y017600D01*
X017718Y017638D01*
X017716Y017677D01*
X017706Y017277D02*
X018506Y018077D01*
X017720Y016299D02*
X017722Y016338D01*
X017728Y016376D01*
X017737Y016414D01*
X017751Y016450D01*
X017767Y016486D01*
X017788Y016519D01*
X017811Y016550D01*
X017838Y016578D01*
X017867Y016604D01*
X017898Y016627D01*
X017932Y016646D01*
X017968Y016662D01*
X018004Y016674D01*
X018042Y016683D01*
X018081Y016688D01*
X018120Y016689D01*
X018158Y016686D01*
X018197Y016679D01*
X018234Y016669D01*
X018270Y016654D01*
X018305Y016637D01*
X018338Y016616D01*
X018368Y016591D01*
X018396Y016564D01*
X018421Y016534D01*
X018443Y016502D01*
X018461Y016468D01*
X018476Y016432D01*
X018488Y016395D01*
X018496Y016357D01*
X018500Y016318D01*
X018500Y016280D01*
X018496Y016241D01*
X018488Y016203D01*
X018476Y016166D01*
X018461Y016130D01*
X018443Y016096D01*
X018421Y016064D01*
X018396Y016034D01*
X018368Y016007D01*
X018338Y015982D01*
X018305Y015961D01*
X018270Y015944D01*
X018234Y015929D01*
X018197Y015919D01*
X018158Y015912D01*
X018120Y015909D01*
X018081Y015910D01*
X018042Y015915D01*
X018004Y015924D01*
X017968Y015936D01*
X017932Y015952D01*
X017898Y015971D01*
X017867Y015994D01*
X017838Y016020D01*
X017811Y016048D01*
X017788Y016079D01*
X017767Y016112D01*
X017751Y016148D01*
X017737Y016184D01*
X017728Y016222D01*
X017722Y016260D01*
X017720Y016299D01*
X017710Y015899D02*
X018510Y016699D01*
X016720Y016299D02*
X016722Y016338D01*
X016728Y016376D01*
X016737Y016414D01*
X016751Y016450D01*
X016767Y016486D01*
X016788Y016519D01*
X016811Y016550D01*
X016838Y016578D01*
X016867Y016604D01*
X016898Y016627D01*
X016932Y016646D01*
X016968Y016662D01*
X017004Y016674D01*
X017042Y016683D01*
X017081Y016688D01*
X017120Y016689D01*
X017158Y016686D01*
X017197Y016679D01*
X017234Y016669D01*
X017270Y016654D01*
X017305Y016637D01*
X017338Y016616D01*
X017368Y016591D01*
X017396Y016564D01*
X017421Y016534D01*
X017443Y016502D01*
X017461Y016468D01*
X017476Y016432D01*
X017488Y016395D01*
X017496Y016357D01*
X017500Y016318D01*
X017500Y016280D01*
X017496Y016241D01*
X017488Y016203D01*
X017476Y016166D01*
X017461Y016130D01*
X017443Y016096D01*
X017421Y016064D01*
X017396Y016034D01*
X017368Y016007D01*
X017338Y015982D01*
X017305Y015961D01*
X017270Y015944D01*
X017234Y015929D01*
X017197Y015919D01*
X017158Y015912D01*
X017120Y015909D01*
X017081Y015910D01*
X017042Y015915D01*
X017004Y015924D01*
X016968Y015936D01*
X016932Y015952D01*
X016898Y015971D01*
X016867Y015994D01*
X016838Y016020D01*
X016811Y016048D01*
X016788Y016079D01*
X016767Y016112D01*
X016751Y016148D01*
X016737Y016184D01*
X016728Y016222D01*
X016722Y016260D01*
X016720Y016299D01*
X016710Y015899D02*
X017510Y016699D01*
X015720Y016299D02*
X015722Y016338D01*
X015728Y016376D01*
X015737Y016414D01*
X015751Y016450D01*
X015767Y016486D01*
X015788Y016519D01*
X015811Y016550D01*
X015838Y016578D01*
X015867Y016604D01*
X015898Y016627D01*
X015932Y016646D01*
X015968Y016662D01*
X016004Y016674D01*
X016042Y016683D01*
X016081Y016688D01*
X016120Y016689D01*
X016158Y016686D01*
X016197Y016679D01*
X016234Y016669D01*
X016270Y016654D01*
X016305Y016637D01*
X016338Y016616D01*
X016368Y016591D01*
X016396Y016564D01*
X016421Y016534D01*
X016443Y016502D01*
X016461Y016468D01*
X016476Y016432D01*
X016488Y016395D01*
X016496Y016357D01*
X016500Y016318D01*
X016500Y016280D01*
X016496Y016241D01*
X016488Y016203D01*
X016476Y016166D01*
X016461Y016130D01*
X016443Y016096D01*
X016421Y016064D01*
X016396Y016034D01*
X016368Y016007D01*
X016338Y015982D01*
X016305Y015961D01*
X016270Y015944D01*
X016234Y015929D01*
X016197Y015919D01*
X016158Y015912D01*
X016120Y015909D01*
X016081Y015910D01*
X016042Y015915D01*
X016004Y015924D01*
X015968Y015936D01*
X015932Y015952D01*
X015898Y015971D01*
X015867Y015994D01*
X015838Y016020D01*
X015811Y016048D01*
X015788Y016079D01*
X015767Y016112D01*
X015751Y016148D01*
X015737Y016184D01*
X015728Y016222D01*
X015722Y016260D01*
X015720Y016299D01*
X015710Y015899D02*
X016510Y016699D01*
X013890Y014669D02*
X013892Y014708D01*
X013898Y014746D01*
X013907Y014784D01*
X013921Y014820D01*
X013937Y014856D01*
X013958Y014889D01*
X013981Y014920D01*
X014008Y014948D01*
X014037Y014974D01*
X014068Y014997D01*
X014102Y015016D01*
X014138Y015032D01*
X014174Y015044D01*
X014212Y015053D01*
X014251Y015058D01*
X014290Y015059D01*
X014328Y015056D01*
X014367Y015049D01*
X014404Y015039D01*
X014440Y015024D01*
X014475Y015007D01*
X014508Y014986D01*
X014538Y014961D01*
X014566Y014934D01*
X014591Y014904D01*
X014613Y014872D01*
X014631Y014838D01*
X014646Y014802D01*
X014658Y014765D01*
X014666Y014727D01*
X014670Y014688D01*
X014670Y014650D01*
X014666Y014611D01*
X014658Y014573D01*
X014646Y014536D01*
X014631Y014500D01*
X014613Y014466D01*
X014591Y014434D01*
X014566Y014404D01*
X014538Y014377D01*
X014508Y014352D01*
X014475Y014331D01*
X014440Y014314D01*
X014404Y014299D01*
X014367Y014289D01*
X014328Y014282D01*
X014290Y014279D01*
X014251Y014280D01*
X014212Y014285D01*
X014174Y014294D01*
X014138Y014306D01*
X014102Y014322D01*
X014068Y014341D01*
X014037Y014364D01*
X014008Y014390D01*
X013981Y014418D01*
X013958Y014449D01*
X013937Y014482D01*
X013921Y014518D01*
X013907Y014554D01*
X013898Y014592D01*
X013892Y014630D01*
X013890Y014669D01*
X013880Y014269D02*
X014680Y015069D01*
X012130Y014705D02*
X012132Y014744D01*
X012138Y014782D01*
X012147Y014820D01*
X012161Y014856D01*
X012177Y014892D01*
X012198Y014925D01*
X012221Y014956D01*
X012248Y014984D01*
X012277Y015010D01*
X012308Y015033D01*
X012342Y015052D01*
X012378Y015068D01*
X012414Y015080D01*
X012452Y015089D01*
X012491Y015094D01*
X012530Y015095D01*
X012568Y015092D01*
X012607Y015085D01*
X012644Y015075D01*
X012680Y015060D01*
X012715Y015043D01*
X012748Y015022D01*
X012778Y014997D01*
X012806Y014970D01*
X012831Y014940D01*
X012853Y014908D01*
X012871Y014874D01*
X012886Y014838D01*
X012898Y014801D01*
X012906Y014763D01*
X012910Y014724D01*
X012910Y014686D01*
X012906Y014647D01*
X012898Y014609D01*
X012886Y014572D01*
X012871Y014536D01*
X012853Y014502D01*
X012831Y014470D01*
X012806Y014440D01*
X012778Y014413D01*
X012748Y014388D01*
X012715Y014367D01*
X012680Y014350D01*
X012644Y014335D01*
X012607Y014325D01*
X012568Y014318D01*
X012530Y014315D01*
X012491Y014316D01*
X012452Y014321D01*
X012414Y014330D01*
X012378Y014342D01*
X012342Y014358D01*
X012308Y014377D01*
X012277Y014400D01*
X012248Y014426D01*
X012221Y014454D01*
X012198Y014485D01*
X012177Y014518D01*
X012161Y014554D01*
X012147Y014590D01*
X012138Y014628D01*
X012132Y014666D01*
X012130Y014705D01*
X012120Y014305D02*
X012920Y015105D01*
X011012Y016701D02*
X011014Y016740D01*
X011020Y016778D01*
X011029Y016816D01*
X011043Y016852D01*
X011059Y016888D01*
X011080Y016921D01*
X011103Y016952D01*
X011130Y016980D01*
X011159Y017006D01*
X011190Y017029D01*
X011224Y017048D01*
X011260Y017064D01*
X011296Y017076D01*
X011334Y017085D01*
X011373Y017090D01*
X011412Y017091D01*
X011450Y017088D01*
X011489Y017081D01*
X011526Y017071D01*
X011562Y017056D01*
X011597Y017039D01*
X011630Y017018D01*
X011660Y016993D01*
X011688Y016966D01*
X011713Y016936D01*
X011735Y016904D01*
X011753Y016870D01*
X011768Y016834D01*
X011780Y016797D01*
X011788Y016759D01*
X011792Y016720D01*
X011792Y016682D01*
X011788Y016643D01*
X011780Y016605D01*
X011768Y016568D01*
X011753Y016532D01*
X011735Y016498D01*
X011713Y016466D01*
X011688Y016436D01*
X011660Y016409D01*
X011630Y016384D01*
X011597Y016363D01*
X011562Y016346D01*
X011526Y016331D01*
X011489Y016321D01*
X011450Y016314D01*
X011412Y016311D01*
X011373Y016312D01*
X011334Y016317D01*
X011296Y016326D01*
X011260Y016338D01*
X011224Y016354D01*
X011190Y016373D01*
X011159Y016396D01*
X011130Y016422D01*
X011103Y016450D01*
X011080Y016481D01*
X011059Y016514D01*
X011043Y016550D01*
X011029Y016586D01*
X011020Y016624D01*
X011014Y016662D01*
X011012Y016701D01*
X011002Y016301D02*
X011802Y017101D01*
X012590Y017661D02*
X012592Y017700D01*
X012598Y017738D01*
X012607Y017776D01*
X012621Y017812D01*
X012637Y017848D01*
X012658Y017881D01*
X012681Y017912D01*
X012708Y017940D01*
X012737Y017966D01*
X012768Y017989D01*
X012802Y018008D01*
X012838Y018024D01*
X012874Y018036D01*
X012912Y018045D01*
X012951Y018050D01*
X012990Y018051D01*
X013028Y018048D01*
X013067Y018041D01*
X013104Y018031D01*
X013140Y018016D01*
X013175Y017999D01*
X013208Y017978D01*
X013238Y017953D01*
X013266Y017926D01*
X013291Y017896D01*
X013313Y017864D01*
X013331Y017830D01*
X013346Y017794D01*
X013358Y017757D01*
X013366Y017719D01*
X013370Y017680D01*
X013370Y017642D01*
X013366Y017603D01*
X013358Y017565D01*
X013346Y017528D01*
X013331Y017492D01*
X013313Y017458D01*
X013291Y017426D01*
X013266Y017396D01*
X013238Y017369D01*
X013208Y017344D01*
X013175Y017323D01*
X013140Y017306D01*
X013104Y017291D01*
X013067Y017281D01*
X013028Y017274D01*
X012990Y017271D01*
X012951Y017272D01*
X012912Y017277D01*
X012874Y017286D01*
X012838Y017298D01*
X012802Y017314D01*
X012768Y017333D01*
X012737Y017356D01*
X012708Y017382D01*
X012681Y017410D01*
X012658Y017441D01*
X012637Y017474D01*
X012621Y017510D01*
X012607Y017546D01*
X012598Y017584D01*
X012592Y017622D01*
X012590Y017661D01*
X012580Y017261D02*
X013380Y018061D01*
X012649Y019004D02*
X012651Y019043D01*
X012657Y019081D01*
X012666Y019119D01*
X012680Y019155D01*
X012696Y019191D01*
X012717Y019224D01*
X012740Y019255D01*
X012767Y019283D01*
X012796Y019309D01*
X012827Y019332D01*
X012861Y019351D01*
X012897Y019367D01*
X012933Y019379D01*
X012971Y019388D01*
X013010Y019393D01*
X013049Y019394D01*
X013087Y019391D01*
X013126Y019384D01*
X013163Y019374D01*
X013199Y019359D01*
X013234Y019342D01*
X013267Y019321D01*
X013297Y019296D01*
X013325Y019269D01*
X013350Y019239D01*
X013372Y019207D01*
X013390Y019173D01*
X013405Y019137D01*
X013417Y019100D01*
X013425Y019062D01*
X013429Y019023D01*
X013429Y018985D01*
X013425Y018946D01*
X013417Y018908D01*
X013405Y018871D01*
X013390Y018835D01*
X013372Y018801D01*
X013350Y018769D01*
X013325Y018739D01*
X013297Y018712D01*
X013267Y018687D01*
X013234Y018666D01*
X013199Y018649D01*
X013163Y018634D01*
X013126Y018624D01*
X013087Y018617D01*
X013049Y018614D01*
X013010Y018615D01*
X012971Y018620D01*
X012933Y018629D01*
X012897Y018641D01*
X012861Y018657D01*
X012827Y018676D01*
X012796Y018699D01*
X012767Y018725D01*
X012740Y018753D01*
X012717Y018784D01*
X012696Y018817D01*
X012680Y018853D01*
X012666Y018889D01*
X012657Y018927D01*
X012651Y018965D01*
X012649Y019004D01*
X012639Y018604D02*
X013439Y019404D01*
X013649Y019004D02*
X013651Y019043D01*
X013657Y019081D01*
X013666Y019119D01*
X013680Y019155D01*
X013696Y019191D01*
X013717Y019224D01*
X013740Y019255D01*
X013767Y019283D01*
X013796Y019309D01*
X013827Y019332D01*
X013861Y019351D01*
X013897Y019367D01*
X013933Y019379D01*
X013971Y019388D01*
X014010Y019393D01*
X014049Y019394D01*
X014087Y019391D01*
X014126Y019384D01*
X014163Y019374D01*
X014199Y019359D01*
X014234Y019342D01*
X014267Y019321D01*
X014297Y019296D01*
X014325Y019269D01*
X014350Y019239D01*
X014372Y019207D01*
X014390Y019173D01*
X014405Y019137D01*
X014417Y019100D01*
X014425Y019062D01*
X014429Y019023D01*
X014429Y018985D01*
X014425Y018946D01*
X014417Y018908D01*
X014405Y018871D01*
X014390Y018835D01*
X014372Y018801D01*
X014350Y018769D01*
X014325Y018739D01*
X014297Y018712D01*
X014267Y018687D01*
X014234Y018666D01*
X014199Y018649D01*
X014163Y018634D01*
X014126Y018624D01*
X014087Y018617D01*
X014049Y018614D01*
X014010Y018615D01*
X013971Y018620D01*
X013933Y018629D01*
X013897Y018641D01*
X013861Y018657D01*
X013827Y018676D01*
X013796Y018699D01*
X013767Y018725D01*
X013740Y018753D01*
X013717Y018784D01*
X013696Y018817D01*
X013680Y018853D01*
X013666Y018889D01*
X013657Y018927D01*
X013651Y018965D01*
X013649Y019004D01*
X013639Y018604D02*
X014439Y019404D01*
X011649Y019004D02*
X011651Y019043D01*
X011657Y019081D01*
X011666Y019119D01*
X011680Y019155D01*
X011696Y019191D01*
X011717Y019224D01*
X011740Y019255D01*
X011767Y019283D01*
X011796Y019309D01*
X011827Y019332D01*
X011861Y019351D01*
X011897Y019367D01*
X011933Y019379D01*
X011971Y019388D01*
X012010Y019393D01*
X012049Y019394D01*
X012087Y019391D01*
X012126Y019384D01*
X012163Y019374D01*
X012199Y019359D01*
X012234Y019342D01*
X012267Y019321D01*
X012297Y019296D01*
X012325Y019269D01*
X012350Y019239D01*
X012372Y019207D01*
X012390Y019173D01*
X012405Y019137D01*
X012417Y019100D01*
X012425Y019062D01*
X012429Y019023D01*
X012429Y018985D01*
X012425Y018946D01*
X012417Y018908D01*
X012405Y018871D01*
X012390Y018835D01*
X012372Y018801D01*
X012350Y018769D01*
X012325Y018739D01*
X012297Y018712D01*
X012267Y018687D01*
X012234Y018666D01*
X012199Y018649D01*
X012163Y018634D01*
X012126Y018624D01*
X012087Y018617D01*
X012049Y018614D01*
X012010Y018615D01*
X011971Y018620D01*
X011933Y018629D01*
X011897Y018641D01*
X011861Y018657D01*
X011827Y018676D01*
X011796Y018699D01*
X011767Y018725D01*
X011740Y018753D01*
X011717Y018784D01*
X011696Y018817D01*
X011680Y018853D01*
X011666Y018889D01*
X011657Y018927D01*
X011651Y018965D01*
X011649Y019004D01*
X011639Y018604D02*
X012439Y019404D01*
X010649Y019004D02*
X010651Y019043D01*
X010657Y019081D01*
X010666Y019119D01*
X010680Y019155D01*
X010696Y019191D01*
X010717Y019224D01*
X010740Y019255D01*
X010767Y019283D01*
X010796Y019309D01*
X010827Y019332D01*
X010861Y019351D01*
X010897Y019367D01*
X010933Y019379D01*
X010971Y019388D01*
X011010Y019393D01*
X011049Y019394D01*
X011087Y019391D01*
X011126Y019384D01*
X011163Y019374D01*
X011199Y019359D01*
X011234Y019342D01*
X011267Y019321D01*
X011297Y019296D01*
X011325Y019269D01*
X011350Y019239D01*
X011372Y019207D01*
X011390Y019173D01*
X011405Y019137D01*
X011417Y019100D01*
X011425Y019062D01*
X011429Y019023D01*
X011429Y018985D01*
X011425Y018946D01*
X011417Y018908D01*
X011405Y018871D01*
X011390Y018835D01*
X011372Y018801D01*
X011350Y018769D01*
X011325Y018739D01*
X011297Y018712D01*
X011267Y018687D01*
X011234Y018666D01*
X011199Y018649D01*
X011163Y018634D01*
X011126Y018624D01*
X011087Y018617D01*
X011049Y018614D01*
X011010Y018615D01*
X010971Y018620D01*
X010933Y018629D01*
X010897Y018641D01*
X010861Y018657D01*
X010827Y018676D01*
X010796Y018699D01*
X010767Y018725D01*
X010740Y018753D01*
X010717Y018784D01*
X010696Y018817D01*
X010680Y018853D01*
X010666Y018889D01*
X010657Y018927D01*
X010651Y018965D01*
X010649Y019004D01*
X010639Y018604D02*
X011439Y019404D01*
X009649Y019004D02*
X009651Y019043D01*
X009657Y019081D01*
X009666Y019119D01*
X009680Y019155D01*
X009696Y019191D01*
X009717Y019224D01*
X009740Y019255D01*
X009767Y019283D01*
X009796Y019309D01*
X009827Y019332D01*
X009861Y019351D01*
X009897Y019367D01*
X009933Y019379D01*
X009971Y019388D01*
X010010Y019393D01*
X010049Y019394D01*
X010087Y019391D01*
X010126Y019384D01*
X010163Y019374D01*
X010199Y019359D01*
X010234Y019342D01*
X010267Y019321D01*
X010297Y019296D01*
X010325Y019269D01*
X010350Y019239D01*
X010372Y019207D01*
X010390Y019173D01*
X010405Y019137D01*
X010417Y019100D01*
X010425Y019062D01*
X010429Y019023D01*
X010429Y018985D01*
X010425Y018946D01*
X010417Y018908D01*
X010405Y018871D01*
X010390Y018835D01*
X010372Y018801D01*
X010350Y018769D01*
X010325Y018739D01*
X010297Y018712D01*
X010267Y018687D01*
X010234Y018666D01*
X010199Y018649D01*
X010163Y018634D01*
X010126Y018624D01*
X010087Y018617D01*
X010049Y018614D01*
X010010Y018615D01*
X009971Y018620D01*
X009933Y018629D01*
X009897Y018641D01*
X009861Y018657D01*
X009827Y018676D01*
X009796Y018699D01*
X009767Y018725D01*
X009740Y018753D01*
X009717Y018784D01*
X009696Y018817D01*
X009680Y018853D01*
X009666Y018889D01*
X009657Y018927D01*
X009651Y018965D01*
X009649Y019004D01*
X009639Y018604D02*
X010439Y019404D01*
X008649Y019004D02*
X008651Y019043D01*
X008657Y019081D01*
X008666Y019119D01*
X008680Y019155D01*
X008696Y019191D01*
X008717Y019224D01*
X008740Y019255D01*
X008767Y019283D01*
X008796Y019309D01*
X008827Y019332D01*
X008861Y019351D01*
X008897Y019367D01*
X008933Y019379D01*
X008971Y019388D01*
X009010Y019393D01*
X009049Y019394D01*
X009087Y019391D01*
X009126Y019384D01*
X009163Y019374D01*
X009199Y019359D01*
X009234Y019342D01*
X009267Y019321D01*
X009297Y019296D01*
X009325Y019269D01*
X009350Y019239D01*
X009372Y019207D01*
X009390Y019173D01*
X009405Y019137D01*
X009417Y019100D01*
X009425Y019062D01*
X009429Y019023D01*
X009429Y018985D01*
X009425Y018946D01*
X009417Y018908D01*
X009405Y018871D01*
X009390Y018835D01*
X009372Y018801D01*
X009350Y018769D01*
X009325Y018739D01*
X009297Y018712D01*
X009267Y018687D01*
X009234Y018666D01*
X009199Y018649D01*
X009163Y018634D01*
X009126Y018624D01*
X009087Y018617D01*
X009049Y018614D01*
X009010Y018615D01*
X008971Y018620D01*
X008933Y018629D01*
X008897Y018641D01*
X008861Y018657D01*
X008827Y018676D01*
X008796Y018699D01*
X008767Y018725D01*
X008740Y018753D01*
X008717Y018784D01*
X008696Y018817D01*
X008680Y018853D01*
X008666Y018889D01*
X008657Y018927D01*
X008651Y018965D01*
X008649Y019004D01*
X008639Y018604D02*
X009439Y019404D01*
X007649Y019004D02*
X007651Y019043D01*
X007657Y019081D01*
X007666Y019119D01*
X007680Y019155D01*
X007696Y019191D01*
X007717Y019224D01*
X007740Y019255D01*
X007767Y019283D01*
X007796Y019309D01*
X007827Y019332D01*
X007861Y019351D01*
X007897Y019367D01*
X007933Y019379D01*
X007971Y019388D01*
X008010Y019393D01*
X008049Y019394D01*
X008087Y019391D01*
X008126Y019384D01*
X008163Y019374D01*
X008199Y019359D01*
X008234Y019342D01*
X008267Y019321D01*
X008297Y019296D01*
X008325Y019269D01*
X008350Y019239D01*
X008372Y019207D01*
X008390Y019173D01*
X008405Y019137D01*
X008417Y019100D01*
X008425Y019062D01*
X008429Y019023D01*
X008429Y018985D01*
X008425Y018946D01*
X008417Y018908D01*
X008405Y018871D01*
X008390Y018835D01*
X008372Y018801D01*
X008350Y018769D01*
X008325Y018739D01*
X008297Y018712D01*
X008267Y018687D01*
X008234Y018666D01*
X008199Y018649D01*
X008163Y018634D01*
X008126Y018624D01*
X008087Y018617D01*
X008049Y018614D01*
X008010Y018615D01*
X007971Y018620D01*
X007933Y018629D01*
X007897Y018641D01*
X007861Y018657D01*
X007827Y018676D01*
X007796Y018699D01*
X007767Y018725D01*
X007740Y018753D01*
X007717Y018784D01*
X007696Y018817D01*
X007680Y018853D01*
X007666Y018889D01*
X007657Y018927D01*
X007651Y018965D01*
X007649Y019004D01*
X007639Y018604D02*
X008439Y019404D01*
X006649Y019004D02*
X006651Y019043D01*
X006657Y019081D01*
X006666Y019119D01*
X006680Y019155D01*
X006696Y019191D01*
X006717Y019224D01*
X006740Y019255D01*
X006767Y019283D01*
X006796Y019309D01*
X006827Y019332D01*
X006861Y019351D01*
X006897Y019367D01*
X006933Y019379D01*
X006971Y019388D01*
X007010Y019393D01*
X007049Y019394D01*
X007087Y019391D01*
X007126Y019384D01*
X007163Y019374D01*
X007199Y019359D01*
X007234Y019342D01*
X007267Y019321D01*
X007297Y019296D01*
X007325Y019269D01*
X007350Y019239D01*
X007372Y019207D01*
X007390Y019173D01*
X007405Y019137D01*
X007417Y019100D01*
X007425Y019062D01*
X007429Y019023D01*
X007429Y018985D01*
X007425Y018946D01*
X007417Y018908D01*
X007405Y018871D01*
X007390Y018835D01*
X007372Y018801D01*
X007350Y018769D01*
X007325Y018739D01*
X007297Y018712D01*
X007267Y018687D01*
X007234Y018666D01*
X007199Y018649D01*
X007163Y018634D01*
X007126Y018624D01*
X007087Y018617D01*
X007049Y018614D01*
X007010Y018615D01*
X006971Y018620D01*
X006933Y018629D01*
X006897Y018641D01*
X006861Y018657D01*
X006827Y018676D01*
X006796Y018699D01*
X006767Y018725D01*
X006740Y018753D01*
X006717Y018784D01*
X006696Y018817D01*
X006680Y018853D01*
X006666Y018889D01*
X006657Y018927D01*
X006651Y018965D01*
X006649Y019004D01*
X006639Y018604D02*
X007439Y019404D01*
X006412Y018361D02*
X005612Y017561D01*
X006412Y017561D02*
X006412Y018361D01*
X006412Y017561D02*
X005612Y018361D01*
X005612Y017561D01*
X004831Y016471D02*
X004831Y016071D01*
X004831Y016471D02*
X005231Y016071D01*
X004831Y015671D01*
X004431Y016071D01*
X004831Y016471D01*
X003551Y015295D02*
X003553Y015334D01*
X003559Y015372D01*
X003568Y015410D01*
X003582Y015446D01*
X003598Y015482D01*
X003619Y015515D01*
X003642Y015546D01*
X003669Y015574D01*
X003698Y015600D01*
X003729Y015623D01*
X003763Y015642D01*
X003799Y015658D01*
X003835Y015670D01*
X003873Y015679D01*
X003912Y015684D01*
X003951Y015685D01*
X003989Y015682D01*
X004028Y015675D01*
X004065Y015665D01*
X004101Y015650D01*
X004136Y015633D01*
X004169Y015612D01*
X004199Y015587D01*
X004227Y015560D01*
X004252Y015530D01*
X004274Y015498D01*
X004292Y015464D01*
X004307Y015428D01*
X004319Y015391D01*
X004327Y015353D01*
X004331Y015314D01*
X004331Y015276D01*
X004327Y015237D01*
X004319Y015199D01*
X004307Y015162D01*
X004292Y015126D01*
X004274Y015092D01*
X004252Y015060D01*
X004227Y015030D01*
X004199Y015003D01*
X004169Y014978D01*
X004136Y014957D01*
X004101Y014940D01*
X004065Y014925D01*
X004028Y014915D01*
X003989Y014908D01*
X003951Y014905D01*
X003912Y014906D01*
X003873Y014911D01*
X003835Y014920D01*
X003799Y014932D01*
X003763Y014948D01*
X003729Y014967D01*
X003698Y014990D01*
X003669Y015016D01*
X003642Y015044D01*
X003619Y015075D01*
X003598Y015108D01*
X003582Y015144D01*
X003568Y015180D01*
X003559Y015218D01*
X003553Y015256D01*
X003551Y015295D01*
X003541Y014895D02*
X004341Y015695D01*
X003650Y017961D02*
X003650Y018361D01*
X004050Y017961D01*
X003650Y017561D01*
X003250Y017961D01*
X003650Y018361D01*
X006909Y012193D02*
X006911Y012232D01*
X006917Y012270D01*
X006926Y012308D01*
X006940Y012344D01*
X006956Y012380D01*
X006977Y012413D01*
X007000Y012444D01*
X007027Y012472D01*
X007056Y012498D01*
X007087Y012521D01*
X007121Y012540D01*
X007157Y012556D01*
X007193Y012568D01*
X007231Y012577D01*
X007270Y012582D01*
X007309Y012583D01*
X007347Y012580D01*
X007386Y012573D01*
X007423Y012563D01*
X007459Y012548D01*
X007494Y012531D01*
X007527Y012510D01*
X007557Y012485D01*
X007585Y012458D01*
X007610Y012428D01*
X007632Y012396D01*
X007650Y012362D01*
X007665Y012326D01*
X007677Y012289D01*
X007685Y012251D01*
X007689Y012212D01*
X007689Y012174D01*
X007685Y012135D01*
X007677Y012097D01*
X007665Y012060D01*
X007650Y012024D01*
X007632Y011990D01*
X007610Y011958D01*
X007585Y011928D01*
X007557Y011901D01*
X007527Y011876D01*
X007494Y011855D01*
X007459Y011838D01*
X007423Y011823D01*
X007386Y011813D01*
X007347Y011806D01*
X007309Y011803D01*
X007270Y011804D01*
X007231Y011809D01*
X007193Y011818D01*
X007157Y011830D01*
X007121Y011846D01*
X007087Y011865D01*
X007056Y011888D01*
X007027Y011914D01*
X007000Y011942D01*
X006977Y011973D01*
X006956Y012006D01*
X006940Y012042D01*
X006926Y012078D01*
X006917Y012116D01*
X006911Y012154D01*
X006909Y012193D01*
X006899Y011793D02*
X007699Y012593D01*
X007649Y010071D02*
X007651Y010110D01*
X007657Y010148D01*
X007666Y010186D01*
X007680Y010222D01*
X007696Y010258D01*
X007717Y010291D01*
X007740Y010322D01*
X007767Y010350D01*
X007796Y010376D01*
X007827Y010399D01*
X007861Y010418D01*
X007897Y010434D01*
X007933Y010446D01*
X007971Y010455D01*
X008010Y010460D01*
X008049Y010461D01*
X008087Y010458D01*
X008126Y010451D01*
X008163Y010441D01*
X008199Y010426D01*
X008234Y010409D01*
X008267Y010388D01*
X008297Y010363D01*
X008325Y010336D01*
X008350Y010306D01*
X008372Y010274D01*
X008390Y010240D01*
X008405Y010204D01*
X008417Y010167D01*
X008425Y010129D01*
X008429Y010090D01*
X008429Y010052D01*
X008425Y010013D01*
X008417Y009975D01*
X008405Y009938D01*
X008390Y009902D01*
X008372Y009868D01*
X008350Y009836D01*
X008325Y009806D01*
X008297Y009779D01*
X008267Y009754D01*
X008234Y009733D01*
X008199Y009716D01*
X008163Y009701D01*
X008126Y009691D01*
X008087Y009684D01*
X008049Y009681D01*
X008010Y009682D01*
X007971Y009687D01*
X007933Y009696D01*
X007897Y009708D01*
X007861Y009724D01*
X007827Y009743D01*
X007796Y009766D01*
X007767Y009792D01*
X007740Y009820D01*
X007717Y009851D01*
X007696Y009884D01*
X007680Y009920D01*
X007666Y009956D01*
X007657Y009994D01*
X007651Y010032D01*
X007649Y010071D01*
X007639Y009671D02*
X008439Y010471D01*
X009023Y008795D02*
X009025Y008834D01*
X009031Y008872D01*
X009040Y008910D01*
X009054Y008946D01*
X009070Y008982D01*
X009091Y009015D01*
X009114Y009046D01*
X009141Y009074D01*
X009170Y009100D01*
X009201Y009123D01*
X009235Y009142D01*
X009271Y009158D01*
X009307Y009170D01*
X009345Y009179D01*
X009384Y009184D01*
X009423Y009185D01*
X009461Y009182D01*
X009500Y009175D01*
X009537Y009165D01*
X009573Y009150D01*
X009608Y009133D01*
X009641Y009112D01*
X009671Y009087D01*
X009699Y009060D01*
X009724Y009030D01*
X009746Y008998D01*
X009764Y008964D01*
X009779Y008928D01*
X009791Y008891D01*
X009799Y008853D01*
X009803Y008814D01*
X009803Y008776D01*
X009799Y008737D01*
X009791Y008699D01*
X009779Y008662D01*
X009764Y008626D01*
X009746Y008592D01*
X009724Y008560D01*
X009699Y008530D01*
X009671Y008503D01*
X009641Y008478D01*
X009608Y008457D01*
X009573Y008440D01*
X009537Y008425D01*
X009500Y008415D01*
X009461Y008408D01*
X009423Y008405D01*
X009384Y008406D01*
X009345Y008411D01*
X009307Y008420D01*
X009271Y008432D01*
X009235Y008448D01*
X009201Y008467D01*
X009170Y008490D01*
X009141Y008516D01*
X009114Y008544D01*
X009091Y008575D01*
X009070Y008608D01*
X009054Y008644D01*
X009040Y008680D01*
X009031Y008718D01*
X009025Y008756D01*
X009023Y008795D01*
X009013Y008395D02*
X009813Y009195D01*
X011197Y010260D02*
X011199Y010299D01*
X011205Y010337D01*
X011214Y010375D01*
X011228Y010411D01*
X011244Y010447D01*
X011265Y010480D01*
X011288Y010511D01*
X011315Y010539D01*
X011344Y010565D01*
X011375Y010588D01*
X011409Y010607D01*
X011445Y010623D01*
X011481Y010635D01*
X011519Y010644D01*
X011558Y010649D01*
X011597Y010650D01*
X011635Y010647D01*
X011674Y010640D01*
X011711Y010630D01*
X011747Y010615D01*
X011782Y010598D01*
X011815Y010577D01*
X011845Y010552D01*
X011873Y010525D01*
X011898Y010495D01*
X011920Y010463D01*
X011938Y010429D01*
X011953Y010393D01*
X011965Y010356D01*
X011973Y010318D01*
X011977Y010279D01*
X011977Y010241D01*
X011973Y010202D01*
X011965Y010164D01*
X011953Y010127D01*
X011938Y010091D01*
X011920Y010057D01*
X011898Y010025D01*
X011873Y009995D01*
X011845Y009968D01*
X011815Y009943D01*
X011782Y009922D01*
X011747Y009905D01*
X011711Y009890D01*
X011674Y009880D01*
X011635Y009873D01*
X011597Y009870D01*
X011558Y009871D01*
X011519Y009876D01*
X011481Y009885D01*
X011445Y009897D01*
X011409Y009913D01*
X011375Y009932D01*
X011344Y009955D01*
X011315Y009981D01*
X011288Y010009D01*
X011265Y010040D01*
X011244Y010073D01*
X011228Y010109D01*
X011214Y010145D01*
X011205Y010183D01*
X011199Y010221D01*
X011197Y010260D01*
X011187Y009860D02*
X011987Y010660D01*
X011468Y009248D02*
X011470Y009287D01*
X011476Y009325D01*
X011485Y009363D01*
X011499Y009399D01*
X011515Y009435D01*
X011536Y009468D01*
X011559Y009499D01*
X011586Y009527D01*
X011615Y009553D01*
X011646Y009576D01*
X011680Y009595D01*
X011716Y009611D01*
X011752Y009623D01*
X011790Y009632D01*
X011829Y009637D01*
X011868Y009638D01*
X011906Y009635D01*
X011945Y009628D01*
X011982Y009618D01*
X012018Y009603D01*
X012053Y009586D01*
X012086Y009565D01*
X012116Y009540D01*
X012144Y009513D01*
X012169Y009483D01*
X012191Y009451D01*
X012209Y009417D01*
X012224Y009381D01*
X012236Y009344D01*
X012244Y009306D01*
X012248Y009267D01*
X012248Y009229D01*
X012244Y009190D01*
X012236Y009152D01*
X012224Y009115D01*
X012209Y009079D01*
X012191Y009045D01*
X012169Y009013D01*
X012144Y008983D01*
X012116Y008956D01*
X012086Y008931D01*
X012053Y008910D01*
X012018Y008893D01*
X011982Y008878D01*
X011945Y008868D01*
X011906Y008861D01*
X011868Y008858D01*
X011829Y008859D01*
X011790Y008864D01*
X011752Y008873D01*
X011716Y008885D01*
X011680Y008901D01*
X011646Y008920D01*
X011615Y008943D01*
X011586Y008969D01*
X011559Y008997D01*
X011536Y009028D01*
X011515Y009061D01*
X011499Y009097D01*
X011485Y009133D01*
X011476Y009171D01*
X011470Y009209D01*
X011468Y009248D01*
X011458Y008848D02*
X012258Y009648D01*
X014398Y007279D02*
X014400Y007318D01*
X014406Y007356D01*
X014415Y007394D01*
X014429Y007430D01*
X014445Y007466D01*
X014466Y007499D01*
X014489Y007530D01*
X014516Y007558D01*
X014545Y007584D01*
X014576Y007607D01*
X014610Y007626D01*
X014646Y007642D01*
X014682Y007654D01*
X014720Y007663D01*
X014759Y007668D01*
X014798Y007669D01*
X014836Y007666D01*
X014875Y007659D01*
X014912Y007649D01*
X014948Y007634D01*
X014983Y007617D01*
X015016Y007596D01*
X015046Y007571D01*
X015074Y007544D01*
X015099Y007514D01*
X015121Y007482D01*
X015139Y007448D01*
X015154Y007412D01*
X015166Y007375D01*
X015174Y007337D01*
X015178Y007298D01*
X015178Y007260D01*
X015174Y007221D01*
X015166Y007183D01*
X015154Y007146D01*
X015139Y007110D01*
X015121Y007076D01*
X015099Y007044D01*
X015074Y007014D01*
X015046Y006987D01*
X015016Y006962D01*
X014983Y006941D01*
X014948Y006924D01*
X014912Y006909D01*
X014875Y006899D01*
X014836Y006892D01*
X014798Y006889D01*
X014759Y006890D01*
X014720Y006895D01*
X014682Y006904D01*
X014646Y006916D01*
X014610Y006932D01*
X014576Y006951D01*
X014545Y006974D01*
X014516Y007000D01*
X014489Y007028D01*
X014466Y007059D01*
X014445Y007092D01*
X014429Y007128D01*
X014415Y007164D01*
X014406Y007202D01*
X014400Y007240D01*
X014398Y007279D01*
X014388Y006879D02*
X015188Y007679D01*
X015149Y008319D02*
X015151Y008358D01*
X015157Y008396D01*
X015166Y008434D01*
X015180Y008470D01*
X015196Y008506D01*
X015217Y008539D01*
X015240Y008570D01*
X015267Y008598D01*
X015296Y008624D01*
X015327Y008647D01*
X015361Y008666D01*
X015397Y008682D01*
X015433Y008694D01*
X015471Y008703D01*
X015510Y008708D01*
X015549Y008709D01*
X015587Y008706D01*
X015626Y008699D01*
X015663Y008689D01*
X015699Y008674D01*
X015734Y008657D01*
X015767Y008636D01*
X015797Y008611D01*
X015825Y008584D01*
X015850Y008554D01*
X015872Y008522D01*
X015890Y008488D01*
X015905Y008452D01*
X015917Y008415D01*
X015925Y008377D01*
X015929Y008338D01*
X015929Y008300D01*
X015925Y008261D01*
X015917Y008223D01*
X015905Y008186D01*
X015890Y008150D01*
X015872Y008116D01*
X015850Y008084D01*
X015825Y008054D01*
X015797Y008027D01*
X015767Y008002D01*
X015734Y007981D01*
X015699Y007964D01*
X015663Y007949D01*
X015626Y007939D01*
X015587Y007932D01*
X015549Y007929D01*
X015510Y007930D01*
X015471Y007935D01*
X015433Y007944D01*
X015397Y007956D01*
X015361Y007972D01*
X015327Y007991D01*
X015296Y008014D01*
X015267Y008040D01*
X015240Y008068D01*
X015217Y008099D01*
X015196Y008132D01*
X015180Y008168D01*
X015166Y008204D01*
X015157Y008242D01*
X015151Y008280D01*
X015149Y008319D01*
X015139Y007919D02*
X015939Y008719D01*
X015730Y007929D02*
X015732Y007968D01*
X015738Y008006D01*
X015747Y008044D01*
X015761Y008080D01*
X015777Y008116D01*
X015798Y008149D01*
X015821Y008180D01*
X015848Y008208D01*
X015877Y008234D01*
X015908Y008257D01*
X015942Y008276D01*
X015978Y008292D01*
X016014Y008304D01*
X016052Y008313D01*
X016091Y008318D01*
X016130Y008319D01*
X016168Y008316D01*
X016207Y008309D01*
X016244Y008299D01*
X016280Y008284D01*
X016315Y008267D01*
X016348Y008246D01*
X016378Y008221D01*
X016406Y008194D01*
X016431Y008164D01*
X016453Y008132D01*
X016471Y008098D01*
X016486Y008062D01*
X016498Y008025D01*
X016506Y007987D01*
X016510Y007948D01*
X016510Y007910D01*
X016506Y007871D01*
X016498Y007833D01*
X016486Y007796D01*
X016471Y007760D01*
X016453Y007726D01*
X016431Y007694D01*
X016406Y007664D01*
X016378Y007637D01*
X016348Y007612D01*
X016315Y007591D01*
X016280Y007574D01*
X016244Y007559D01*
X016207Y007549D01*
X016168Y007542D01*
X016130Y007539D01*
X016091Y007540D01*
X016052Y007545D01*
X016014Y007554D01*
X015978Y007566D01*
X015942Y007582D01*
X015908Y007601D01*
X015877Y007624D01*
X015848Y007650D01*
X015821Y007678D01*
X015798Y007709D01*
X015777Y007742D01*
X015761Y007778D01*
X015747Y007814D01*
X015738Y007852D01*
X015732Y007890D01*
X015730Y007929D01*
X015720Y007529D02*
X016520Y008329D01*
X016441Y008476D02*
X016443Y008515D01*
X016449Y008553D01*
X016458Y008591D01*
X016472Y008627D01*
X016488Y008663D01*
X016509Y008696D01*
X016532Y008727D01*
X016559Y008755D01*
X016588Y008781D01*
X016619Y008804D01*
X016653Y008823D01*
X016689Y008839D01*
X016725Y008851D01*
X016763Y008860D01*
X016802Y008865D01*
X016841Y008866D01*
X016879Y008863D01*
X016918Y008856D01*
X016955Y008846D01*
X016991Y008831D01*
X017026Y008814D01*
X017059Y008793D01*
X017089Y008768D01*
X017117Y008741D01*
X017142Y008711D01*
X017164Y008679D01*
X017182Y008645D01*
X017197Y008609D01*
X017209Y008572D01*
X017217Y008534D01*
X017221Y008495D01*
X017221Y008457D01*
X017217Y008418D01*
X017209Y008380D01*
X017197Y008343D01*
X017182Y008307D01*
X017164Y008273D01*
X017142Y008241D01*
X017117Y008211D01*
X017089Y008184D01*
X017059Y008159D01*
X017026Y008138D01*
X016991Y008121D01*
X016955Y008106D01*
X016918Y008096D01*
X016879Y008089D01*
X016841Y008086D01*
X016802Y008087D01*
X016763Y008092D01*
X016725Y008101D01*
X016689Y008113D01*
X016653Y008129D01*
X016619Y008148D01*
X016588Y008171D01*
X016559Y008197D01*
X016532Y008225D01*
X016509Y008256D01*
X016488Y008289D01*
X016472Y008325D01*
X016458Y008361D01*
X016449Y008399D01*
X016443Y008437D01*
X016441Y008476D01*
X016431Y008076D02*
X017231Y008876D01*
X016953Y009079D02*
X016955Y009118D01*
X016961Y009156D01*
X016970Y009194D01*
X016984Y009230D01*
X017000Y009266D01*
X017021Y009299D01*
X017044Y009330D01*
X017071Y009358D01*
X017100Y009384D01*
X017131Y009407D01*
X017165Y009426D01*
X017201Y009442D01*
X017237Y009454D01*
X017275Y009463D01*
X017314Y009468D01*
X017353Y009469D01*
X017391Y009466D01*
X017430Y009459D01*
X017467Y009449D01*
X017503Y009434D01*
X017538Y009417D01*
X017571Y009396D01*
X017601Y009371D01*
X017629Y009344D01*
X017654Y009314D01*
X017676Y009282D01*
X017694Y009248D01*
X017709Y009212D01*
X017721Y009175D01*
X017729Y009137D01*
X017733Y009098D01*
X017733Y009060D01*
X017729Y009021D01*
X017721Y008983D01*
X017709Y008946D01*
X017694Y008910D01*
X017676Y008876D01*
X017654Y008844D01*
X017629Y008814D01*
X017601Y008787D01*
X017571Y008762D01*
X017538Y008741D01*
X017503Y008724D01*
X017467Y008709D01*
X017430Y008699D01*
X017391Y008692D01*
X017353Y008689D01*
X017314Y008690D01*
X017275Y008695D01*
X017237Y008704D01*
X017201Y008716D01*
X017165Y008732D01*
X017131Y008751D01*
X017100Y008774D01*
X017071Y008800D01*
X017044Y008828D01*
X017021Y008859D01*
X017000Y008892D01*
X016984Y008928D01*
X016970Y008964D01*
X016961Y009002D01*
X016955Y009040D01*
X016953Y009079D01*
X016943Y008679D02*
X017743Y009479D01*
X016815Y009957D02*
X016817Y009996D01*
X016823Y010034D01*
X016832Y010072D01*
X016846Y010108D01*
X016862Y010144D01*
X016883Y010177D01*
X016906Y010208D01*
X016933Y010236D01*
X016962Y010262D01*
X016993Y010285D01*
X017027Y010304D01*
X017063Y010320D01*
X017099Y010332D01*
X017137Y010341D01*
X017176Y010346D01*
X017215Y010347D01*
X017253Y010344D01*
X017292Y010337D01*
X017329Y010327D01*
X017365Y010312D01*
X017400Y010295D01*
X017433Y010274D01*
X017463Y010249D01*
X017491Y010222D01*
X017516Y010192D01*
X017538Y010160D01*
X017556Y010126D01*
X017571Y010090D01*
X017583Y010053D01*
X017591Y010015D01*
X017595Y009976D01*
X017595Y009938D01*
X017591Y009899D01*
X017583Y009861D01*
X017571Y009824D01*
X017556Y009788D01*
X017538Y009754D01*
X017516Y009722D01*
X017491Y009692D01*
X017463Y009665D01*
X017433Y009640D01*
X017400Y009619D01*
X017365Y009602D01*
X017329Y009587D01*
X017292Y009577D01*
X017253Y009570D01*
X017215Y009567D01*
X017176Y009568D01*
X017137Y009573D01*
X017099Y009582D01*
X017063Y009594D01*
X017027Y009610D01*
X016993Y009629D01*
X016962Y009652D01*
X016933Y009678D01*
X016906Y009706D01*
X016883Y009737D01*
X016862Y009770D01*
X016846Y009806D01*
X016832Y009842D01*
X016823Y009880D01*
X016817Y009918D01*
X016815Y009957D01*
X016805Y009557D02*
X017605Y010357D01*
X017067Y010283D02*
X017069Y010322D01*
X017075Y010360D01*
X017084Y010398D01*
X017098Y010434D01*
X017114Y010470D01*
X017135Y010503D01*
X017158Y010534D01*
X017185Y010562D01*
X017214Y010588D01*
X017245Y010611D01*
X017279Y010630D01*
X017315Y010646D01*
X017351Y010658D01*
X017389Y010667D01*
X017428Y010672D01*
X017467Y010673D01*
X017505Y010670D01*
X017544Y010663D01*
X017581Y010653D01*
X017617Y010638D01*
X017652Y010621D01*
X017685Y010600D01*
X017715Y010575D01*
X017743Y010548D01*
X017768Y010518D01*
X017790Y010486D01*
X017808Y010452D01*
X017823Y010416D01*
X017835Y010379D01*
X017843Y010341D01*
X017847Y010302D01*
X017847Y010264D01*
X017843Y010225D01*
X017835Y010187D01*
X017823Y010150D01*
X017808Y010114D01*
X017790Y010080D01*
X017768Y010048D01*
X017743Y010018D01*
X017715Y009991D01*
X017685Y009966D01*
X017652Y009945D01*
X017617Y009928D01*
X017581Y009913D01*
X017544Y009903D01*
X017505Y009896D01*
X017467Y009893D01*
X017428Y009894D01*
X017389Y009899D01*
X017351Y009908D01*
X017315Y009920D01*
X017279Y009936D01*
X017245Y009955D01*
X017214Y009978D01*
X017185Y010004D01*
X017158Y010032D01*
X017135Y010063D01*
X017114Y010096D01*
X017098Y010132D01*
X017084Y010168D01*
X017075Y010206D01*
X017069Y010244D01*
X017067Y010283D01*
X017057Y009883D02*
X017857Y010683D01*
X017807Y010291D02*
X017809Y010330D01*
X017815Y010368D01*
X017824Y010406D01*
X017838Y010442D01*
X017854Y010478D01*
X017875Y010511D01*
X017898Y010542D01*
X017925Y010570D01*
X017954Y010596D01*
X017985Y010619D01*
X018019Y010638D01*
X018055Y010654D01*
X018091Y010666D01*
X018129Y010675D01*
X018168Y010680D01*
X018207Y010681D01*
X018245Y010678D01*
X018284Y010671D01*
X018321Y010661D01*
X018357Y010646D01*
X018392Y010629D01*
X018425Y010608D01*
X018455Y010583D01*
X018483Y010556D01*
X018508Y010526D01*
X018530Y010494D01*
X018548Y010460D01*
X018563Y010424D01*
X018575Y010387D01*
X018583Y010349D01*
X018587Y010310D01*
X018587Y010272D01*
X018583Y010233D01*
X018575Y010195D01*
X018563Y010158D01*
X018548Y010122D01*
X018530Y010088D01*
X018508Y010056D01*
X018483Y010026D01*
X018455Y009999D01*
X018425Y009974D01*
X018392Y009953D01*
X018357Y009936D01*
X018321Y009921D01*
X018284Y009911D01*
X018245Y009904D01*
X018207Y009901D01*
X018168Y009902D01*
X018129Y009907D01*
X018091Y009916D01*
X018055Y009928D01*
X018019Y009944D01*
X017985Y009963D01*
X017954Y009986D01*
X017925Y010012D01*
X017898Y010040D01*
X017875Y010071D01*
X017854Y010104D01*
X017838Y010140D01*
X017824Y010176D01*
X017815Y010214D01*
X017809Y010252D01*
X017807Y010291D01*
X017797Y009891D02*
X018597Y010691D01*
X018807Y010291D02*
X018809Y010330D01*
X018815Y010368D01*
X018824Y010406D01*
X018838Y010442D01*
X018854Y010478D01*
X018875Y010511D01*
X018898Y010542D01*
X018925Y010570D01*
X018954Y010596D01*
X018985Y010619D01*
X019019Y010638D01*
X019055Y010654D01*
X019091Y010666D01*
X019129Y010675D01*
X019168Y010680D01*
X019207Y010681D01*
X019245Y010678D01*
X019284Y010671D01*
X019321Y010661D01*
X019357Y010646D01*
X019392Y010629D01*
X019425Y010608D01*
X019455Y010583D01*
X019483Y010556D01*
X019508Y010526D01*
X019530Y010494D01*
X019548Y010460D01*
X019563Y010424D01*
X019575Y010387D01*
X019583Y010349D01*
X019587Y010310D01*
X019587Y010272D01*
X019583Y010233D01*
X019575Y010195D01*
X019563Y010158D01*
X019548Y010122D01*
X019530Y010088D01*
X019508Y010056D01*
X019483Y010026D01*
X019455Y009999D01*
X019425Y009974D01*
X019392Y009953D01*
X019357Y009936D01*
X019321Y009921D01*
X019284Y009911D01*
X019245Y009904D01*
X019207Y009901D01*
X019168Y009902D01*
X019129Y009907D01*
X019091Y009916D01*
X019055Y009928D01*
X019019Y009944D01*
X018985Y009963D01*
X018954Y009986D01*
X018925Y010012D01*
X018898Y010040D01*
X018875Y010071D01*
X018854Y010104D01*
X018838Y010140D01*
X018824Y010176D01*
X018815Y010214D01*
X018809Y010252D01*
X018807Y010291D01*
X018797Y009891D02*
X019597Y010691D01*
X018807Y011291D02*
X018809Y011330D01*
X018815Y011368D01*
X018824Y011406D01*
X018838Y011442D01*
X018854Y011478D01*
X018875Y011511D01*
X018898Y011542D01*
X018925Y011570D01*
X018954Y011596D01*
X018985Y011619D01*
X019019Y011638D01*
X019055Y011654D01*
X019091Y011666D01*
X019129Y011675D01*
X019168Y011680D01*
X019207Y011681D01*
X019245Y011678D01*
X019284Y011671D01*
X019321Y011661D01*
X019357Y011646D01*
X019392Y011629D01*
X019425Y011608D01*
X019455Y011583D01*
X019483Y011556D01*
X019508Y011526D01*
X019530Y011494D01*
X019548Y011460D01*
X019563Y011424D01*
X019575Y011387D01*
X019583Y011349D01*
X019587Y011310D01*
X019587Y011272D01*
X019583Y011233D01*
X019575Y011195D01*
X019563Y011158D01*
X019548Y011122D01*
X019530Y011088D01*
X019508Y011056D01*
X019483Y011026D01*
X019455Y010999D01*
X019425Y010974D01*
X019392Y010953D01*
X019357Y010936D01*
X019321Y010921D01*
X019284Y010911D01*
X019245Y010904D01*
X019207Y010901D01*
X019168Y010902D01*
X019129Y010907D01*
X019091Y010916D01*
X019055Y010928D01*
X019019Y010944D01*
X018985Y010963D01*
X018954Y010986D01*
X018925Y011012D01*
X018898Y011040D01*
X018875Y011071D01*
X018854Y011104D01*
X018838Y011140D01*
X018824Y011176D01*
X018815Y011214D01*
X018809Y011252D01*
X018807Y011291D01*
X018797Y010891D02*
X019597Y011691D01*
X018807Y012291D02*
X018809Y012330D01*
X018815Y012368D01*
X018824Y012406D01*
X018838Y012442D01*
X018854Y012478D01*
X018875Y012511D01*
X018898Y012542D01*
X018925Y012570D01*
X018954Y012596D01*
X018985Y012619D01*
X019019Y012638D01*
X019055Y012654D01*
X019091Y012666D01*
X019129Y012675D01*
X019168Y012680D01*
X019207Y012681D01*
X019245Y012678D01*
X019284Y012671D01*
X019321Y012661D01*
X019357Y012646D01*
X019392Y012629D01*
X019425Y012608D01*
X019455Y012583D01*
X019483Y012556D01*
X019508Y012526D01*
X019530Y012494D01*
X019548Y012460D01*
X019563Y012424D01*
X019575Y012387D01*
X019583Y012349D01*
X019587Y012310D01*
X019587Y012272D01*
X019583Y012233D01*
X019575Y012195D01*
X019563Y012158D01*
X019548Y012122D01*
X019530Y012088D01*
X019508Y012056D01*
X019483Y012026D01*
X019455Y011999D01*
X019425Y011974D01*
X019392Y011953D01*
X019357Y011936D01*
X019321Y011921D01*
X019284Y011911D01*
X019245Y011904D01*
X019207Y011901D01*
X019168Y011902D01*
X019129Y011907D01*
X019091Y011916D01*
X019055Y011928D01*
X019019Y011944D01*
X018985Y011963D01*
X018954Y011986D01*
X018925Y012012D01*
X018898Y012040D01*
X018875Y012071D01*
X018854Y012104D01*
X018838Y012140D01*
X018824Y012176D01*
X018815Y012214D01*
X018809Y012252D01*
X018807Y012291D01*
X018797Y011891D02*
X019597Y012691D01*
X018807Y013291D02*
X018809Y013330D01*
X018815Y013368D01*
X018824Y013406D01*
X018838Y013442D01*
X018854Y013478D01*
X018875Y013511D01*
X018898Y013542D01*
X018925Y013570D01*
X018954Y013596D01*
X018985Y013619D01*
X019019Y013638D01*
X019055Y013654D01*
X019091Y013666D01*
X019129Y013675D01*
X019168Y013680D01*
X019207Y013681D01*
X019245Y013678D01*
X019284Y013671D01*
X019321Y013661D01*
X019357Y013646D01*
X019392Y013629D01*
X019425Y013608D01*
X019455Y013583D01*
X019483Y013556D01*
X019508Y013526D01*
X019530Y013494D01*
X019548Y013460D01*
X019563Y013424D01*
X019575Y013387D01*
X019583Y013349D01*
X019587Y013310D01*
X019587Y013272D01*
X019583Y013233D01*
X019575Y013195D01*
X019563Y013158D01*
X019548Y013122D01*
X019530Y013088D01*
X019508Y013056D01*
X019483Y013026D01*
X019455Y012999D01*
X019425Y012974D01*
X019392Y012953D01*
X019357Y012936D01*
X019321Y012921D01*
X019284Y012911D01*
X019245Y012904D01*
X019207Y012901D01*
X019168Y012902D01*
X019129Y012907D01*
X019091Y012916D01*
X019055Y012928D01*
X019019Y012944D01*
X018985Y012963D01*
X018954Y012986D01*
X018925Y013012D01*
X018898Y013040D01*
X018875Y013071D01*
X018854Y013104D01*
X018838Y013140D01*
X018824Y013176D01*
X018815Y013214D01*
X018809Y013252D01*
X018807Y013291D01*
X018797Y012891D02*
X019597Y013691D01*
X017807Y013291D02*
X017809Y013330D01*
X017815Y013368D01*
X017824Y013406D01*
X017838Y013442D01*
X017854Y013478D01*
X017875Y013511D01*
X017898Y013542D01*
X017925Y013570D01*
X017954Y013596D01*
X017985Y013619D01*
X018019Y013638D01*
X018055Y013654D01*
X018091Y013666D01*
X018129Y013675D01*
X018168Y013680D01*
X018207Y013681D01*
X018245Y013678D01*
X018284Y013671D01*
X018321Y013661D01*
X018357Y013646D01*
X018392Y013629D01*
X018425Y013608D01*
X018455Y013583D01*
X018483Y013556D01*
X018508Y013526D01*
X018530Y013494D01*
X018548Y013460D01*
X018563Y013424D01*
X018575Y013387D01*
X018583Y013349D01*
X018587Y013310D01*
X018587Y013272D01*
X018583Y013233D01*
X018575Y013195D01*
X018563Y013158D01*
X018548Y013122D01*
X018530Y013088D01*
X018508Y013056D01*
X018483Y013026D01*
X018455Y012999D01*
X018425Y012974D01*
X018392Y012953D01*
X018357Y012936D01*
X018321Y012921D01*
X018284Y012911D01*
X018245Y012904D01*
X018207Y012901D01*
X018168Y012902D01*
X018129Y012907D01*
X018091Y012916D01*
X018055Y012928D01*
X018019Y012944D01*
X017985Y012963D01*
X017954Y012986D01*
X017925Y013012D01*
X017898Y013040D01*
X017875Y013071D01*
X017854Y013104D01*
X017838Y013140D01*
X017824Y013176D01*
X017815Y013214D01*
X017809Y013252D01*
X017807Y013291D01*
X017797Y012891D02*
X018597Y013691D01*
X017807Y012291D02*
X017809Y012330D01*
X017815Y012368D01*
X017824Y012406D01*
X017838Y012442D01*
X017854Y012478D01*
X017875Y012511D01*
X017898Y012542D01*
X017925Y012570D01*
X017954Y012596D01*
X017985Y012619D01*
X018019Y012638D01*
X018055Y012654D01*
X018091Y012666D01*
X018129Y012675D01*
X018168Y012680D01*
X018207Y012681D01*
X018245Y012678D01*
X018284Y012671D01*
X018321Y012661D01*
X018357Y012646D01*
X018392Y012629D01*
X018425Y012608D01*
X018455Y012583D01*
X018483Y012556D01*
X018508Y012526D01*
X018530Y012494D01*
X018548Y012460D01*
X018563Y012424D01*
X018575Y012387D01*
X018583Y012349D01*
X018587Y012310D01*
X018587Y012272D01*
X018583Y012233D01*
X018575Y012195D01*
X018563Y012158D01*
X018548Y012122D01*
X018530Y012088D01*
X018508Y012056D01*
X018483Y012026D01*
X018455Y011999D01*
X018425Y011974D01*
X018392Y011953D01*
X018357Y011936D01*
X018321Y011921D01*
X018284Y011911D01*
X018245Y011904D01*
X018207Y011901D01*
X018168Y011902D01*
X018129Y011907D01*
X018091Y011916D01*
X018055Y011928D01*
X018019Y011944D01*
X017985Y011963D01*
X017954Y011986D01*
X017925Y012012D01*
X017898Y012040D01*
X017875Y012071D01*
X017854Y012104D01*
X017838Y012140D01*
X017824Y012176D01*
X017815Y012214D01*
X017809Y012252D01*
X017807Y012291D01*
X017797Y011891D02*
X018597Y012691D01*
X017807Y011291D02*
X017809Y011330D01*
X017815Y011368D01*
X017824Y011406D01*
X017838Y011442D01*
X017854Y011478D01*
X017875Y011511D01*
X017898Y011542D01*
X017925Y011570D01*
X017954Y011596D01*
X017985Y011619D01*
X018019Y011638D01*
X018055Y011654D01*
X018091Y011666D01*
X018129Y011675D01*
X018168Y011680D01*
X018207Y011681D01*
X018245Y011678D01*
X018284Y011671D01*
X018321Y011661D01*
X018357Y011646D01*
X018392Y011629D01*
X018425Y011608D01*
X018455Y011583D01*
X018483Y011556D01*
X018508Y011526D01*
X018530Y011494D01*
X018548Y011460D01*
X018563Y011424D01*
X018575Y011387D01*
X018583Y011349D01*
X018587Y011310D01*
X018587Y011272D01*
X018583Y011233D01*
X018575Y011195D01*
X018563Y011158D01*
X018548Y011122D01*
X018530Y011088D01*
X018508Y011056D01*
X018483Y011026D01*
X018455Y010999D01*
X018425Y010974D01*
X018392Y010953D01*
X018357Y010936D01*
X018321Y010921D01*
X018284Y010911D01*
X018245Y010904D01*
X018207Y010901D01*
X018168Y010902D01*
X018129Y010907D01*
X018091Y010916D01*
X018055Y010928D01*
X018019Y010944D01*
X017985Y010963D01*
X017954Y010986D01*
X017925Y011012D01*
X017898Y011040D01*
X017875Y011071D01*
X017854Y011104D01*
X017838Y011140D01*
X017824Y011176D01*
X017815Y011214D01*
X017809Y011252D01*
X017807Y011291D01*
X017797Y010891D02*
X018597Y011691D01*
X017704Y008780D02*
X017706Y008819D01*
X017712Y008857D01*
X017721Y008895D01*
X017735Y008931D01*
X017751Y008967D01*
X017772Y009000D01*
X017795Y009031D01*
X017822Y009059D01*
X017851Y009085D01*
X017882Y009108D01*
X017916Y009127D01*
X017952Y009143D01*
X017988Y009155D01*
X018026Y009164D01*
X018065Y009169D01*
X018104Y009170D01*
X018142Y009167D01*
X018181Y009160D01*
X018218Y009150D01*
X018254Y009135D01*
X018289Y009118D01*
X018322Y009097D01*
X018352Y009072D01*
X018380Y009045D01*
X018405Y009015D01*
X018427Y008983D01*
X018445Y008949D01*
X018460Y008913D01*
X018472Y008876D01*
X018480Y008838D01*
X018484Y008799D01*
X018484Y008761D01*
X018480Y008722D01*
X018472Y008684D01*
X018460Y008647D01*
X018445Y008611D01*
X018427Y008577D01*
X018405Y008545D01*
X018380Y008515D01*
X018352Y008488D01*
X018322Y008463D01*
X018289Y008442D01*
X018254Y008425D01*
X018218Y008410D01*
X018181Y008400D01*
X018142Y008393D01*
X018104Y008390D01*
X018065Y008391D01*
X018026Y008396D01*
X017988Y008405D01*
X017952Y008417D01*
X017916Y008433D01*
X017882Y008452D01*
X017851Y008475D01*
X017822Y008501D01*
X017795Y008529D01*
X017772Y008560D01*
X017751Y008593D01*
X017735Y008629D01*
X017721Y008665D01*
X017712Y008703D01*
X017706Y008741D01*
X017704Y008780D01*
X017694Y008380D02*
X018494Y009180D01*
X017967Y007895D02*
X017969Y007934D01*
X017975Y007972D01*
X017984Y008010D01*
X017998Y008046D01*
X018014Y008082D01*
X018035Y008115D01*
X018058Y008146D01*
X018085Y008174D01*
X018114Y008200D01*
X018145Y008223D01*
X018179Y008242D01*
X018215Y008258D01*
X018251Y008270D01*
X018289Y008279D01*
X018328Y008284D01*
X018367Y008285D01*
X018405Y008282D01*
X018444Y008275D01*
X018481Y008265D01*
X018517Y008250D01*
X018552Y008233D01*
X018585Y008212D01*
X018615Y008187D01*
X018643Y008160D01*
X018668Y008130D01*
X018690Y008098D01*
X018708Y008064D01*
X018723Y008028D01*
X018735Y007991D01*
X018743Y007953D01*
X018747Y007914D01*
X018747Y007876D01*
X018743Y007837D01*
X018735Y007799D01*
X018723Y007762D01*
X018708Y007726D01*
X018690Y007692D01*
X018668Y007660D01*
X018643Y007630D01*
X018615Y007603D01*
X018585Y007578D01*
X018552Y007557D01*
X018517Y007540D01*
X018481Y007525D01*
X018444Y007515D01*
X018405Y007508D01*
X018367Y007505D01*
X018328Y007506D01*
X018289Y007511D01*
X018251Y007520D01*
X018215Y007532D01*
X018179Y007548D01*
X018145Y007567D01*
X018114Y007590D01*
X018085Y007616D01*
X018058Y007644D01*
X018035Y007675D01*
X018014Y007708D01*
X017998Y007744D01*
X017984Y007780D01*
X017975Y007818D01*
X017969Y007856D01*
X017967Y007895D01*
X017957Y007495D02*
X018757Y008295D01*
X017665Y007677D02*
X017667Y007716D01*
X017673Y007754D01*
X017682Y007792D01*
X017696Y007828D01*
X017712Y007864D01*
X017733Y007897D01*
X017756Y007928D01*
X017783Y007956D01*
X017812Y007982D01*
X017843Y008005D01*
X017877Y008024D01*
X017913Y008040D01*
X017949Y008052D01*
X017987Y008061D01*
X018026Y008066D01*
X018065Y008067D01*
X018103Y008064D01*
X018142Y008057D01*
X018179Y008047D01*
X018215Y008032D01*
X018250Y008015D01*
X018283Y007994D01*
X018313Y007969D01*
X018341Y007942D01*
X018366Y007912D01*
X018388Y007880D01*
X018406Y007846D01*
X018421Y007810D01*
X018433Y007773D01*
X018441Y007735D01*
X018445Y007696D01*
X018445Y007658D01*
X018441Y007619D01*
X018433Y007581D01*
X018421Y007544D01*
X018406Y007508D01*
X018388Y007474D01*
X018366Y007442D01*
X018341Y007412D01*
X018313Y007385D01*
X018283Y007360D01*
X018250Y007339D01*
X018215Y007322D01*
X018179Y007307D01*
X018142Y007297D01*
X018103Y007290D01*
X018065Y007287D01*
X018026Y007288D01*
X017987Y007293D01*
X017949Y007302D01*
X017913Y007314D01*
X017877Y007330D01*
X017843Y007349D01*
X017812Y007372D01*
X017783Y007398D01*
X017756Y007426D01*
X017733Y007457D01*
X017712Y007490D01*
X017696Y007526D01*
X017682Y007562D01*
X017673Y007600D01*
X017667Y007638D01*
X017665Y007677D01*
X017655Y007277D02*
X018455Y008077D01*
X016273Y006270D02*
X016275Y006309D01*
X016281Y006347D01*
X016290Y006385D01*
X016304Y006421D01*
X016320Y006457D01*
X016341Y006490D01*
X016364Y006521D01*
X016391Y006549D01*
X016420Y006575D01*
X016451Y006598D01*
X016485Y006617D01*
X016521Y006633D01*
X016557Y006645D01*
X016595Y006654D01*
X016634Y006659D01*
X016673Y006660D01*
X016711Y006657D01*
X016750Y006650D01*
X016787Y006640D01*
X016823Y006625D01*
X016858Y006608D01*
X016891Y006587D01*
X016921Y006562D01*
X016949Y006535D01*
X016974Y006505D01*
X016996Y006473D01*
X017014Y006439D01*
X017029Y006403D01*
X017041Y006366D01*
X017049Y006328D01*
X017053Y006289D01*
X017053Y006251D01*
X017049Y006212D01*
X017041Y006174D01*
X017029Y006137D01*
X017014Y006101D01*
X016996Y006067D01*
X016974Y006035D01*
X016949Y006005D01*
X016921Y005978D01*
X016891Y005953D01*
X016858Y005932D01*
X016823Y005915D01*
X016787Y005900D01*
X016750Y005890D01*
X016711Y005883D01*
X016673Y005880D01*
X016634Y005881D01*
X016595Y005886D01*
X016557Y005895D01*
X016521Y005907D01*
X016485Y005923D01*
X016451Y005942D01*
X016420Y005965D01*
X016391Y005991D01*
X016364Y006019D01*
X016341Y006050D01*
X016320Y006083D01*
X016304Y006119D01*
X016290Y006155D01*
X016281Y006193D01*
X016275Y006231D01*
X016273Y006270D01*
X016263Y005870D02*
X017063Y006670D01*
X017025Y006057D02*
X017027Y006096D01*
X017033Y006134D01*
X017042Y006172D01*
X017056Y006208D01*
X017072Y006244D01*
X017093Y006277D01*
X017116Y006308D01*
X017143Y006336D01*
X017172Y006362D01*
X017203Y006385D01*
X017237Y006404D01*
X017273Y006420D01*
X017309Y006432D01*
X017347Y006441D01*
X017386Y006446D01*
X017425Y006447D01*
X017463Y006444D01*
X017502Y006437D01*
X017539Y006427D01*
X017575Y006412D01*
X017610Y006395D01*
X017643Y006374D01*
X017673Y006349D01*
X017701Y006322D01*
X017726Y006292D01*
X017748Y006260D01*
X017766Y006226D01*
X017781Y006190D01*
X017793Y006153D01*
X017801Y006115D01*
X017805Y006076D01*
X017805Y006038D01*
X017801Y005999D01*
X017793Y005961D01*
X017781Y005924D01*
X017766Y005888D01*
X017748Y005854D01*
X017726Y005822D01*
X017701Y005792D01*
X017673Y005765D01*
X017643Y005740D01*
X017610Y005719D01*
X017575Y005702D01*
X017539Y005687D01*
X017502Y005677D01*
X017463Y005670D01*
X017425Y005667D01*
X017386Y005668D01*
X017347Y005673D01*
X017309Y005682D01*
X017273Y005694D01*
X017237Y005710D01*
X017203Y005729D01*
X017172Y005752D01*
X017143Y005778D01*
X017116Y005806D01*
X017093Y005837D01*
X017072Y005870D01*
X017056Y005906D01*
X017042Y005942D01*
X017033Y005980D01*
X017027Y006018D01*
X017025Y006057D01*
X017015Y005657D02*
X017815Y006457D01*
X016811Y005354D02*
X016813Y005393D01*
X016819Y005431D01*
X016828Y005469D01*
X016842Y005505D01*
X016858Y005541D01*
X016879Y005574D01*
X016902Y005605D01*
X016929Y005633D01*
X016958Y005659D01*
X016989Y005682D01*
X017023Y005701D01*
X017059Y005717D01*
X017095Y005729D01*
X017133Y005738D01*
X017172Y005743D01*
X017211Y005744D01*
X017249Y005741D01*
X017288Y005734D01*
X017325Y005724D01*
X017361Y005709D01*
X017396Y005692D01*
X017429Y005671D01*
X017459Y005646D01*
X017487Y005619D01*
X017512Y005589D01*
X017534Y005557D01*
X017552Y005523D01*
X017567Y005487D01*
X017579Y005450D01*
X017587Y005412D01*
X017591Y005373D01*
X017591Y005335D01*
X017587Y005296D01*
X017579Y005258D01*
X017567Y005221D01*
X017552Y005185D01*
X017534Y005151D01*
X017512Y005119D01*
X017487Y005089D01*
X017459Y005062D01*
X017429Y005037D01*
X017396Y005016D01*
X017361Y004999D01*
X017325Y004984D01*
X017288Y004974D01*
X017249Y004967D01*
X017211Y004964D01*
X017172Y004965D01*
X017133Y004970D01*
X017095Y004979D01*
X017059Y004991D01*
X017023Y005007D01*
X016989Y005026D01*
X016958Y005049D01*
X016929Y005075D01*
X016902Y005103D01*
X016879Y005134D01*
X016858Y005167D01*
X016842Y005203D01*
X016828Y005239D01*
X016819Y005277D01*
X016813Y005315D01*
X016811Y005354D01*
X016801Y004954D02*
X017601Y005754D01*
X017330Y004984D02*
X017332Y005023D01*
X017338Y005061D01*
X017347Y005099D01*
X017361Y005135D01*
X017377Y005171D01*
X017398Y005204D01*
X017421Y005235D01*
X017448Y005263D01*
X017477Y005289D01*
X017508Y005312D01*
X017542Y005331D01*
X017578Y005347D01*
X017614Y005359D01*
X017652Y005368D01*
X017691Y005373D01*
X017730Y005374D01*
X017768Y005371D01*
X017807Y005364D01*
X017844Y005354D01*
X017880Y005339D01*
X017915Y005322D01*
X017948Y005301D01*
X017978Y005276D01*
X018006Y005249D01*
X018031Y005219D01*
X018053Y005187D01*
X018071Y005153D01*
X018086Y005117D01*
X018098Y005080D01*
X018106Y005042D01*
X018110Y005003D01*
X018110Y004965D01*
X018106Y004926D01*
X018098Y004888D01*
X018086Y004851D01*
X018071Y004815D01*
X018053Y004781D01*
X018031Y004749D01*
X018006Y004719D01*
X017978Y004692D01*
X017948Y004667D01*
X017915Y004646D01*
X017880Y004629D01*
X017844Y004614D01*
X017807Y004604D01*
X017768Y004597D01*
X017730Y004594D01*
X017691Y004595D01*
X017652Y004600D01*
X017614Y004609D01*
X017578Y004621D01*
X017542Y004637D01*
X017508Y004656D01*
X017477Y004679D01*
X017448Y004705D01*
X017421Y004733D01*
X017398Y004764D01*
X017377Y004797D01*
X017361Y004833D01*
X017347Y004869D01*
X017338Y004907D01*
X017332Y004945D01*
X017330Y004984D01*
X017320Y004584D02*
X018120Y005384D01*
X018886Y004165D02*
X018888Y004204D01*
X018894Y004242D01*
X018903Y004280D01*
X018917Y004316D01*
X018933Y004352D01*
X018954Y004385D01*
X018977Y004416D01*
X019004Y004444D01*
X019033Y004470D01*
X019064Y004493D01*
X019098Y004512D01*
X019134Y004528D01*
X019170Y004540D01*
X019208Y004549D01*
X019247Y004554D01*
X019286Y004555D01*
X019324Y004552D01*
X019363Y004545D01*
X019400Y004535D01*
X019436Y004520D01*
X019471Y004503D01*
X019504Y004482D01*
X019534Y004457D01*
X019562Y004430D01*
X019587Y004400D01*
X019609Y004368D01*
X019627Y004334D01*
X019642Y004298D01*
X019654Y004261D01*
X019662Y004223D01*
X019666Y004184D01*
X019666Y004146D01*
X019662Y004107D01*
X019654Y004069D01*
X019642Y004032D01*
X019627Y003996D01*
X019609Y003962D01*
X019587Y003930D01*
X019562Y003900D01*
X019534Y003873D01*
X019504Y003848D01*
X019471Y003827D01*
X019436Y003810D01*
X019400Y003795D01*
X019363Y003785D01*
X019324Y003778D01*
X019286Y003775D01*
X019247Y003776D01*
X019208Y003781D01*
X019170Y003790D01*
X019134Y003802D01*
X019098Y003818D01*
X019064Y003837D01*
X019033Y003860D01*
X019004Y003886D01*
X018977Y003914D01*
X018954Y003945D01*
X018933Y003978D01*
X018917Y004014D01*
X018903Y004050D01*
X018894Y004088D01*
X018888Y004126D01*
X018886Y004165D01*
X018876Y003765D02*
X019676Y004565D01*
X016107Y007775D02*
X016109Y007814D01*
X016115Y007852D01*
X016124Y007890D01*
X016138Y007926D01*
X016154Y007962D01*
X016175Y007995D01*
X016198Y008026D01*
X016225Y008054D01*
X016254Y008080D01*
X016285Y008103D01*
X016319Y008122D01*
X016355Y008138D01*
X016391Y008150D01*
X016429Y008159D01*
X016468Y008164D01*
X016507Y008165D01*
X016545Y008162D01*
X016584Y008155D01*
X016621Y008145D01*
X016657Y008130D01*
X016692Y008113D01*
X016725Y008092D01*
X016755Y008067D01*
X016783Y008040D01*
X016808Y008010D01*
X016830Y007978D01*
X016848Y007944D01*
X016863Y007908D01*
X016875Y007871D01*
X016883Y007833D01*
X016887Y007794D01*
X016887Y007756D01*
X016883Y007717D01*
X016875Y007679D01*
X016863Y007642D01*
X016848Y007606D01*
X016830Y007572D01*
X016808Y007540D01*
X016783Y007510D01*
X016755Y007483D01*
X016725Y007458D01*
X016692Y007437D01*
X016657Y007420D01*
X016621Y007405D01*
X016584Y007395D01*
X016545Y007388D01*
X016507Y007385D01*
X016468Y007386D01*
X016429Y007391D01*
X016391Y007400D01*
X016355Y007412D01*
X016319Y007428D01*
X016285Y007447D01*
X016254Y007470D01*
X016225Y007496D01*
X016198Y007524D01*
X016175Y007555D01*
X016154Y007588D01*
X016138Y007624D01*
X016124Y007660D01*
X016115Y007698D01*
X016109Y007736D01*
X016107Y007775D01*
X016097Y007375D02*
X016897Y008175D01*
X015751Y007345D02*
X015753Y007384D01*
X015759Y007422D01*
X015768Y007460D01*
X015782Y007496D01*
X015798Y007532D01*
X015819Y007565D01*
X015842Y007596D01*
X015869Y007624D01*
X015898Y007650D01*
X015929Y007673D01*
X015963Y007692D01*
X015999Y007708D01*
X016035Y007720D01*
X016073Y007729D01*
X016112Y007734D01*
X016151Y007735D01*
X016189Y007732D01*
X016228Y007725D01*
X016265Y007715D01*
X016301Y007700D01*
X016336Y007683D01*
X016369Y007662D01*
X016399Y007637D01*
X016427Y007610D01*
X016452Y007580D01*
X016474Y007548D01*
X016492Y007514D01*
X016507Y007478D01*
X016519Y007441D01*
X016527Y007403D01*
X016531Y007364D01*
X016531Y007326D01*
X016527Y007287D01*
X016519Y007249D01*
X016507Y007212D01*
X016492Y007176D01*
X016474Y007142D01*
X016452Y007110D01*
X016427Y007080D01*
X016399Y007053D01*
X016369Y007028D01*
X016336Y007007D01*
X016301Y006990D01*
X016265Y006975D01*
X016228Y006965D01*
X016189Y006958D01*
X016151Y006955D01*
X016112Y006956D01*
X016073Y006961D01*
X016035Y006970D01*
X015999Y006982D01*
X015963Y006998D01*
X015929Y007017D01*
X015898Y007040D01*
X015869Y007066D01*
X015842Y007094D01*
X015819Y007125D01*
X015798Y007158D01*
X015782Y007194D01*
X015768Y007230D01*
X015759Y007268D01*
X015753Y007306D01*
X015751Y007345D01*
X015741Y006945D02*
X016541Y007745D01*
X015896Y006874D02*
X015898Y006913D01*
X015904Y006951D01*
X015913Y006989D01*
X015927Y007025D01*
X015943Y007061D01*
X015964Y007094D01*
X015987Y007125D01*
X016014Y007153D01*
X016043Y007179D01*
X016074Y007202D01*
X016108Y007221D01*
X016144Y007237D01*
X016180Y007249D01*
X016218Y007258D01*
X016257Y007263D01*
X016296Y007264D01*
X016334Y007261D01*
X016373Y007254D01*
X016410Y007244D01*
X016446Y007229D01*
X016481Y007212D01*
X016514Y007191D01*
X016544Y007166D01*
X016572Y007139D01*
X016597Y007109D01*
X016619Y007077D01*
X016637Y007043D01*
X016652Y007007D01*
X016664Y006970D01*
X016672Y006932D01*
X016676Y006893D01*
X016676Y006855D01*
X016672Y006816D01*
X016664Y006778D01*
X016652Y006741D01*
X016637Y006705D01*
X016619Y006671D01*
X016597Y006639D01*
X016572Y006609D01*
X016544Y006582D01*
X016514Y006557D01*
X016481Y006536D01*
X016446Y006519D01*
X016410Y006504D01*
X016373Y006494D01*
X016334Y006487D01*
X016296Y006484D01*
X016257Y006485D01*
X016218Y006490D01*
X016180Y006499D01*
X016144Y006511D01*
X016108Y006527D01*
X016074Y006546D01*
X016043Y006569D01*
X016014Y006595D01*
X015987Y006623D01*
X015964Y006654D01*
X015943Y006687D01*
X015927Y006723D01*
X015913Y006759D01*
X015904Y006797D01*
X015898Y006835D01*
X015896Y006874D01*
X015886Y006474D02*
X016686Y007274D01*
X015224Y006256D02*
X015226Y006295D01*
X015232Y006333D01*
X015241Y006371D01*
X015255Y006407D01*
X015271Y006443D01*
X015292Y006476D01*
X015315Y006507D01*
X015342Y006535D01*
X015371Y006561D01*
X015402Y006584D01*
X015436Y006603D01*
X015472Y006619D01*
X015508Y006631D01*
X015546Y006640D01*
X015585Y006645D01*
X015624Y006646D01*
X015662Y006643D01*
X015701Y006636D01*
X015738Y006626D01*
X015774Y006611D01*
X015809Y006594D01*
X015842Y006573D01*
X015872Y006548D01*
X015900Y006521D01*
X015925Y006491D01*
X015947Y006459D01*
X015965Y006425D01*
X015980Y006389D01*
X015992Y006352D01*
X016000Y006314D01*
X016004Y006275D01*
X016004Y006237D01*
X016000Y006198D01*
X015992Y006160D01*
X015980Y006123D01*
X015965Y006087D01*
X015947Y006053D01*
X015925Y006021D01*
X015900Y005991D01*
X015872Y005964D01*
X015842Y005939D01*
X015809Y005918D01*
X015774Y005901D01*
X015738Y005886D01*
X015701Y005876D01*
X015662Y005869D01*
X015624Y005866D01*
X015585Y005867D01*
X015546Y005872D01*
X015508Y005881D01*
X015472Y005893D01*
X015436Y005909D01*
X015402Y005928D01*
X015371Y005951D01*
X015342Y005977D01*
X015315Y006005D01*
X015292Y006036D01*
X015271Y006069D01*
X015255Y006105D01*
X015241Y006141D01*
X015232Y006179D01*
X015226Y006217D01*
X015224Y006256D01*
X015214Y005856D02*
X016014Y006656D01*
X014964Y006709D02*
X014966Y006748D01*
X014972Y006786D01*
X014981Y006824D01*
X014995Y006860D01*
X015011Y006896D01*
X015032Y006929D01*
X015055Y006960D01*
X015082Y006988D01*
X015111Y007014D01*
X015142Y007037D01*
X015176Y007056D01*
X015212Y007072D01*
X015248Y007084D01*
X015286Y007093D01*
X015325Y007098D01*
X015364Y007099D01*
X015402Y007096D01*
X015441Y007089D01*
X015478Y007079D01*
X015514Y007064D01*
X015549Y007047D01*
X015582Y007026D01*
X015612Y007001D01*
X015640Y006974D01*
X015665Y006944D01*
X015687Y006912D01*
X015705Y006878D01*
X015720Y006842D01*
X015732Y006805D01*
X015740Y006767D01*
X015744Y006728D01*
X015744Y006690D01*
X015740Y006651D01*
X015732Y006613D01*
X015720Y006576D01*
X015705Y006540D01*
X015687Y006506D01*
X015665Y006474D01*
X015640Y006444D01*
X015612Y006417D01*
X015582Y006392D01*
X015549Y006371D01*
X015514Y006354D01*
X015478Y006339D01*
X015441Y006329D01*
X015402Y006322D01*
X015364Y006319D01*
X015325Y006320D01*
X015286Y006325D01*
X015248Y006334D01*
X015212Y006346D01*
X015176Y006362D01*
X015142Y006381D01*
X015111Y006404D01*
X015082Y006430D01*
X015055Y006458D01*
X015032Y006489D01*
X015011Y006522D01*
X014995Y006558D01*
X014981Y006594D01*
X014972Y006632D01*
X014966Y006670D01*
X014964Y006709D01*
X014954Y006309D02*
X015754Y007109D01*
X014886Y006256D02*
X014888Y006295D01*
X014894Y006333D01*
X014903Y006371D01*
X014917Y006407D01*
X014933Y006443D01*
X014954Y006476D01*
X014977Y006507D01*
X015004Y006535D01*
X015033Y006561D01*
X015064Y006584D01*
X015098Y006603D01*
X015134Y006619D01*
X015170Y006631D01*
X015208Y006640D01*
X015247Y006645D01*
X015286Y006646D01*
X015324Y006643D01*
X015363Y006636D01*
X015400Y006626D01*
X015436Y006611D01*
X015471Y006594D01*
X015504Y006573D01*
X015534Y006548D01*
X015562Y006521D01*
X015587Y006491D01*
X015609Y006459D01*
X015627Y006425D01*
X015642Y006389D01*
X015654Y006352D01*
X015662Y006314D01*
X015666Y006275D01*
X015666Y006237D01*
X015662Y006198D01*
X015654Y006160D01*
X015642Y006123D01*
X015627Y006087D01*
X015609Y006053D01*
X015587Y006021D01*
X015562Y005991D01*
X015534Y005964D01*
X015504Y005939D01*
X015471Y005918D01*
X015436Y005901D01*
X015400Y005886D01*
X015363Y005876D01*
X015324Y005869D01*
X015286Y005866D01*
X015247Y005867D01*
X015208Y005872D01*
X015170Y005881D01*
X015134Y005893D01*
X015098Y005909D01*
X015064Y005928D01*
X015033Y005951D01*
X015004Y005977D01*
X014977Y006005D01*
X014954Y006036D01*
X014933Y006069D01*
X014917Y006105D01*
X014903Y006141D01*
X014894Y006179D01*
X014888Y006217D01*
X014886Y006256D01*
X014876Y005856D02*
X015676Y006656D01*
X014342Y006508D02*
X014344Y006547D01*
X014350Y006585D01*
X014359Y006623D01*
X014373Y006659D01*
X014389Y006695D01*
X014410Y006728D01*
X014433Y006759D01*
X014460Y006787D01*
X014489Y006813D01*
X014520Y006836D01*
X014554Y006855D01*
X014590Y006871D01*
X014626Y006883D01*
X014664Y006892D01*
X014703Y006897D01*
X014742Y006898D01*
X014780Y006895D01*
X014819Y006888D01*
X014856Y006878D01*
X014892Y006863D01*
X014927Y006846D01*
X014960Y006825D01*
X014990Y006800D01*
X015018Y006773D01*
X015043Y006743D01*
X015065Y006711D01*
X015083Y006677D01*
X015098Y006641D01*
X015110Y006604D01*
X015118Y006566D01*
X015122Y006527D01*
X015122Y006489D01*
X015118Y006450D01*
X015110Y006412D01*
X015098Y006375D01*
X015083Y006339D01*
X015065Y006305D01*
X015043Y006273D01*
X015018Y006243D01*
X014990Y006216D01*
X014960Y006191D01*
X014927Y006170D01*
X014892Y006153D01*
X014856Y006138D01*
X014819Y006128D01*
X014780Y006121D01*
X014742Y006118D01*
X014703Y006119D01*
X014664Y006124D01*
X014626Y006133D01*
X014590Y006145D01*
X014554Y006161D01*
X014520Y006180D01*
X014489Y006203D01*
X014460Y006229D01*
X014433Y006257D01*
X014410Y006288D01*
X014389Y006321D01*
X014373Y006357D01*
X014359Y006393D01*
X014350Y006431D01*
X014344Y006469D01*
X014342Y006508D01*
X014332Y006108D02*
X015132Y006908D01*
X014070Y005904D02*
X014072Y005943D01*
X014078Y005981D01*
X014087Y006019D01*
X014101Y006055D01*
X014117Y006091D01*
X014138Y006124D01*
X014161Y006155D01*
X014188Y006183D01*
X014217Y006209D01*
X014248Y006232D01*
X014282Y006251D01*
X014318Y006267D01*
X014354Y006279D01*
X014392Y006288D01*
X014431Y006293D01*
X014470Y006294D01*
X014508Y006291D01*
X014547Y006284D01*
X014584Y006274D01*
X014620Y006259D01*
X014655Y006242D01*
X014688Y006221D01*
X014718Y006196D01*
X014746Y006169D01*
X014771Y006139D01*
X014793Y006107D01*
X014811Y006073D01*
X014826Y006037D01*
X014838Y006000D01*
X014846Y005962D01*
X014850Y005923D01*
X014850Y005885D01*
X014846Y005846D01*
X014838Y005808D01*
X014826Y005771D01*
X014811Y005735D01*
X014793Y005701D01*
X014771Y005669D01*
X014746Y005639D01*
X014718Y005612D01*
X014688Y005587D01*
X014655Y005566D01*
X014620Y005549D01*
X014584Y005534D01*
X014547Y005524D01*
X014508Y005517D01*
X014470Y005514D01*
X014431Y005515D01*
X014392Y005520D01*
X014354Y005529D01*
X014318Y005541D01*
X014282Y005557D01*
X014248Y005576D01*
X014217Y005599D01*
X014188Y005625D01*
X014161Y005653D01*
X014138Y005684D01*
X014117Y005717D01*
X014101Y005753D01*
X014087Y005789D01*
X014078Y005827D01*
X014072Y005865D01*
X014070Y005904D01*
X014060Y005504D02*
X014860Y006304D01*
X014031Y005451D02*
X014033Y005490D01*
X014039Y005528D01*
X014048Y005566D01*
X014062Y005602D01*
X014078Y005638D01*
X014099Y005671D01*
X014122Y005702D01*
X014149Y005730D01*
X014178Y005756D01*
X014209Y005779D01*
X014243Y005798D01*
X014279Y005814D01*
X014315Y005826D01*
X014353Y005835D01*
X014392Y005840D01*
X014431Y005841D01*
X014469Y005838D01*
X014508Y005831D01*
X014545Y005821D01*
X014581Y005806D01*
X014616Y005789D01*
X014649Y005768D01*
X014679Y005743D01*
X014707Y005716D01*
X014732Y005686D01*
X014754Y005654D01*
X014772Y005620D01*
X014787Y005584D01*
X014799Y005547D01*
X014807Y005509D01*
X014811Y005470D01*
X014811Y005432D01*
X014807Y005393D01*
X014799Y005355D01*
X014787Y005318D01*
X014772Y005282D01*
X014754Y005248D01*
X014732Y005216D01*
X014707Y005186D01*
X014679Y005159D01*
X014649Y005134D01*
X014616Y005113D01*
X014581Y005096D01*
X014545Y005081D01*
X014508Y005071D01*
X014469Y005064D01*
X014431Y005061D01*
X014392Y005062D01*
X014353Y005067D01*
X014315Y005076D01*
X014279Y005088D01*
X014243Y005104D01*
X014209Y005123D01*
X014178Y005146D01*
X014149Y005172D01*
X014122Y005200D01*
X014099Y005231D01*
X014078Y005264D01*
X014062Y005300D01*
X014048Y005336D01*
X014039Y005374D01*
X014033Y005412D01*
X014031Y005451D01*
X014021Y005051D02*
X014821Y005851D01*
X015094Y005276D02*
X015096Y005315D01*
X015102Y005353D01*
X015111Y005391D01*
X015125Y005427D01*
X015141Y005463D01*
X015162Y005496D01*
X015185Y005527D01*
X015212Y005555D01*
X015241Y005581D01*
X015272Y005604D01*
X015306Y005623D01*
X015342Y005639D01*
X015378Y005651D01*
X015416Y005660D01*
X015455Y005665D01*
X015494Y005666D01*
X015532Y005663D01*
X015571Y005656D01*
X015608Y005646D01*
X015644Y005631D01*
X015679Y005614D01*
X015712Y005593D01*
X015742Y005568D01*
X015770Y005541D01*
X015795Y005511D01*
X015817Y005479D01*
X015835Y005445D01*
X015850Y005409D01*
X015862Y005372D01*
X015870Y005334D01*
X015874Y005295D01*
X015874Y005257D01*
X015870Y005218D01*
X015862Y005180D01*
X015850Y005143D01*
X015835Y005107D01*
X015817Y005073D01*
X015795Y005041D01*
X015770Y005011D01*
X015742Y004984D01*
X015712Y004959D01*
X015679Y004938D01*
X015644Y004921D01*
X015608Y004906D01*
X015571Y004896D01*
X015532Y004889D01*
X015494Y004886D01*
X015455Y004887D01*
X015416Y004892D01*
X015378Y004901D01*
X015342Y004913D01*
X015306Y004929D01*
X015272Y004948D01*
X015241Y004971D01*
X015212Y004997D01*
X015185Y005025D01*
X015162Y005056D01*
X015141Y005089D01*
X015125Y005125D01*
X015111Y005161D01*
X015102Y005199D01*
X015096Y005237D01*
X015094Y005276D01*
X015084Y004876D02*
X015884Y005676D01*
X015582Y004953D02*
X015584Y004992D01*
X015590Y005030D01*
X015599Y005068D01*
X015613Y005104D01*
X015629Y005140D01*
X015650Y005173D01*
X015673Y005204D01*
X015700Y005232D01*
X015729Y005258D01*
X015760Y005281D01*
X015794Y005300D01*
X015830Y005316D01*
X015866Y005328D01*
X015904Y005337D01*
X015943Y005342D01*
X015982Y005343D01*
X016020Y005340D01*
X016059Y005333D01*
X016096Y005323D01*
X016132Y005308D01*
X016167Y005291D01*
X016200Y005270D01*
X016230Y005245D01*
X016258Y005218D01*
X016283Y005188D01*
X016305Y005156D01*
X016323Y005122D01*
X016338Y005086D01*
X016350Y005049D01*
X016358Y005011D01*
X016362Y004972D01*
X016362Y004934D01*
X016358Y004895D01*
X016350Y004857D01*
X016338Y004820D01*
X016323Y004784D01*
X016305Y004750D01*
X016283Y004718D01*
X016258Y004688D01*
X016230Y004661D01*
X016200Y004636D01*
X016167Y004615D01*
X016132Y004598D01*
X016096Y004583D01*
X016059Y004573D01*
X016020Y004566D01*
X015982Y004563D01*
X015943Y004564D01*
X015904Y004569D01*
X015866Y004578D01*
X015830Y004590D01*
X015794Y004606D01*
X015760Y004625D01*
X015729Y004648D01*
X015700Y004674D01*
X015673Y004702D01*
X015650Y004733D01*
X015629Y004766D01*
X015613Y004802D01*
X015599Y004838D01*
X015590Y004876D01*
X015584Y004914D01*
X015582Y004953D01*
X015572Y004553D02*
X016372Y005353D01*
X015126Y004848D02*
X015128Y004887D01*
X015134Y004925D01*
X015143Y004963D01*
X015157Y004999D01*
X015173Y005035D01*
X015194Y005068D01*
X015217Y005099D01*
X015244Y005127D01*
X015273Y005153D01*
X015304Y005176D01*
X015338Y005195D01*
X015374Y005211D01*
X015410Y005223D01*
X015448Y005232D01*
X015487Y005237D01*
X015526Y005238D01*
X015564Y005235D01*
X015603Y005228D01*
X015640Y005218D01*
X015676Y005203D01*
X015711Y005186D01*
X015744Y005165D01*
X015774Y005140D01*
X015802Y005113D01*
X015827Y005083D01*
X015849Y005051D01*
X015867Y005017D01*
X015882Y004981D01*
X015894Y004944D01*
X015902Y004906D01*
X015906Y004867D01*
X015906Y004829D01*
X015902Y004790D01*
X015894Y004752D01*
X015882Y004715D01*
X015867Y004679D01*
X015849Y004645D01*
X015827Y004613D01*
X015802Y004583D01*
X015774Y004556D01*
X015744Y004531D01*
X015711Y004510D01*
X015676Y004493D01*
X015640Y004478D01*
X015603Y004468D01*
X015564Y004461D01*
X015526Y004458D01*
X015487Y004459D01*
X015448Y004464D01*
X015410Y004473D01*
X015374Y004485D01*
X015338Y004501D01*
X015304Y004520D01*
X015273Y004543D01*
X015244Y004569D01*
X015217Y004597D01*
X015194Y004628D01*
X015173Y004661D01*
X015157Y004697D01*
X015143Y004733D01*
X015134Y004771D01*
X015128Y004809D01*
X015126Y004848D01*
X015116Y004448D02*
X015916Y005248D01*
X014192Y005082D02*
X014194Y005121D01*
X014200Y005159D01*
X014209Y005197D01*
X014223Y005233D01*
X014239Y005269D01*
X014260Y005302D01*
X014283Y005333D01*
X014310Y005361D01*
X014339Y005387D01*
X014370Y005410D01*
X014404Y005429D01*
X014440Y005445D01*
X014476Y005457D01*
X014514Y005466D01*
X014553Y005471D01*
X014592Y005472D01*
X014630Y005469D01*
X014669Y005462D01*
X014706Y005452D01*
X014742Y005437D01*
X014777Y005420D01*
X014810Y005399D01*
X014840Y005374D01*
X014868Y005347D01*
X014893Y005317D01*
X014915Y005285D01*
X014933Y005251D01*
X014948Y005215D01*
X014960Y005178D01*
X014968Y005140D01*
X014972Y005101D01*
X014972Y005063D01*
X014968Y005024D01*
X014960Y004986D01*
X014948Y004949D01*
X014933Y004913D01*
X014915Y004879D01*
X014893Y004847D01*
X014868Y004817D01*
X014840Y004790D01*
X014810Y004765D01*
X014777Y004744D01*
X014742Y004727D01*
X014706Y004712D01*
X014669Y004702D01*
X014630Y004695D01*
X014592Y004692D01*
X014553Y004693D01*
X014514Y004698D01*
X014476Y004707D01*
X014440Y004719D01*
X014404Y004735D01*
X014370Y004754D01*
X014339Y004777D01*
X014310Y004803D01*
X014283Y004831D01*
X014260Y004862D01*
X014239Y004895D01*
X014223Y004931D01*
X014209Y004967D01*
X014200Y005005D01*
X014194Y005043D01*
X014192Y005082D01*
X014182Y004682D02*
X014982Y005482D01*
X013185Y005795D02*
X013187Y005834D01*
X013193Y005872D01*
X013202Y005910D01*
X013216Y005946D01*
X013232Y005982D01*
X013253Y006015D01*
X013276Y006046D01*
X013303Y006074D01*
X013332Y006100D01*
X013363Y006123D01*
X013397Y006142D01*
X013433Y006158D01*
X013469Y006170D01*
X013507Y006179D01*
X013546Y006184D01*
X013585Y006185D01*
X013623Y006182D01*
X013662Y006175D01*
X013699Y006165D01*
X013735Y006150D01*
X013770Y006133D01*
X013803Y006112D01*
X013833Y006087D01*
X013861Y006060D01*
X013886Y006030D01*
X013908Y005998D01*
X013926Y005964D01*
X013941Y005928D01*
X013953Y005891D01*
X013961Y005853D01*
X013965Y005814D01*
X013965Y005776D01*
X013961Y005737D01*
X013953Y005699D01*
X013941Y005662D01*
X013926Y005626D01*
X013908Y005592D01*
X013886Y005560D01*
X013861Y005530D01*
X013833Y005503D01*
X013803Y005478D01*
X013770Y005457D01*
X013735Y005440D01*
X013699Y005425D01*
X013662Y005415D01*
X013623Y005408D01*
X013585Y005405D01*
X013546Y005406D01*
X013507Y005411D01*
X013469Y005420D01*
X013433Y005432D01*
X013397Y005448D01*
X013363Y005467D01*
X013332Y005490D01*
X013303Y005516D01*
X013276Y005544D01*
X013253Y005575D01*
X013232Y005608D01*
X013216Y005644D01*
X013202Y005680D01*
X013193Y005718D01*
X013187Y005756D01*
X013185Y005795D01*
X013175Y005395D02*
X013975Y006195D01*
X012842Y005280D02*
X012844Y005319D01*
X012850Y005357D01*
X012859Y005395D01*
X012873Y005431D01*
X012889Y005467D01*
X012910Y005500D01*
X012933Y005531D01*
X012960Y005559D01*
X012989Y005585D01*
X013020Y005608D01*
X013054Y005627D01*
X013090Y005643D01*
X013126Y005655D01*
X013164Y005664D01*
X013203Y005669D01*
X013242Y005670D01*
X013280Y005667D01*
X013319Y005660D01*
X013356Y005650D01*
X013392Y005635D01*
X013427Y005618D01*
X013460Y005597D01*
X013490Y005572D01*
X013518Y005545D01*
X013543Y005515D01*
X013565Y005483D01*
X013583Y005449D01*
X013598Y005413D01*
X013610Y005376D01*
X013618Y005338D01*
X013622Y005299D01*
X013622Y005261D01*
X013618Y005222D01*
X013610Y005184D01*
X013598Y005147D01*
X013583Y005111D01*
X013565Y005077D01*
X013543Y005045D01*
X013518Y005015D01*
X013490Y004988D01*
X013460Y004963D01*
X013427Y004942D01*
X013392Y004925D01*
X013356Y004910D01*
X013319Y004900D01*
X013280Y004893D01*
X013242Y004890D01*
X013203Y004891D01*
X013164Y004896D01*
X013126Y004905D01*
X013090Y004917D01*
X013054Y004933D01*
X013020Y004952D01*
X012989Y004975D01*
X012960Y005001D01*
X012933Y005029D01*
X012910Y005060D01*
X012889Y005093D01*
X012873Y005129D01*
X012859Y005165D01*
X012850Y005203D01*
X012844Y005241D01*
X012842Y005280D01*
X012832Y004880D02*
X013632Y005680D01*
X012775Y004949D02*
X012777Y004988D01*
X012783Y005026D01*
X012792Y005064D01*
X012806Y005100D01*
X012822Y005136D01*
X012843Y005169D01*
X012866Y005200D01*
X012893Y005228D01*
X012922Y005254D01*
X012953Y005277D01*
X012987Y005296D01*
X013023Y005312D01*
X013059Y005324D01*
X013097Y005333D01*
X013136Y005338D01*
X013175Y005339D01*
X013213Y005336D01*
X013252Y005329D01*
X013289Y005319D01*
X013325Y005304D01*
X013360Y005287D01*
X013393Y005266D01*
X013423Y005241D01*
X013451Y005214D01*
X013476Y005184D01*
X013498Y005152D01*
X013516Y005118D01*
X013531Y005082D01*
X013543Y005045D01*
X013551Y005007D01*
X013555Y004968D01*
X013555Y004930D01*
X013551Y004891D01*
X013543Y004853D01*
X013531Y004816D01*
X013516Y004780D01*
X013498Y004746D01*
X013476Y004714D01*
X013451Y004684D01*
X013423Y004657D01*
X013393Y004632D01*
X013360Y004611D01*
X013325Y004594D01*
X013289Y004579D01*
X013252Y004569D01*
X013213Y004562D01*
X013175Y004559D01*
X013136Y004560D01*
X013097Y004565D01*
X013059Y004574D01*
X013023Y004586D01*
X012987Y004602D01*
X012953Y004621D01*
X012922Y004644D01*
X012893Y004670D01*
X012866Y004698D01*
X012843Y004729D01*
X012822Y004762D01*
X012806Y004798D01*
X012792Y004834D01*
X012783Y004872D01*
X012777Y004910D01*
X012775Y004949D01*
X012765Y004549D02*
X013565Y005349D01*
X012959Y004600D02*
X012961Y004639D01*
X012967Y004677D01*
X012976Y004715D01*
X012990Y004751D01*
X013006Y004787D01*
X013027Y004820D01*
X013050Y004851D01*
X013077Y004879D01*
X013106Y004905D01*
X013137Y004928D01*
X013171Y004947D01*
X013207Y004963D01*
X013243Y004975D01*
X013281Y004984D01*
X013320Y004989D01*
X013359Y004990D01*
X013397Y004987D01*
X013436Y004980D01*
X013473Y004970D01*
X013509Y004955D01*
X013544Y004938D01*
X013577Y004917D01*
X013607Y004892D01*
X013635Y004865D01*
X013660Y004835D01*
X013682Y004803D01*
X013700Y004769D01*
X013715Y004733D01*
X013727Y004696D01*
X013735Y004658D01*
X013739Y004619D01*
X013739Y004581D01*
X013735Y004542D01*
X013727Y004504D01*
X013715Y004467D01*
X013700Y004431D01*
X013682Y004397D01*
X013660Y004365D01*
X013635Y004335D01*
X013607Y004308D01*
X013577Y004283D01*
X013544Y004262D01*
X013509Y004245D01*
X013473Y004230D01*
X013436Y004220D01*
X013397Y004213D01*
X013359Y004210D01*
X013320Y004211D01*
X013281Y004216D01*
X013243Y004225D01*
X013207Y004237D01*
X013171Y004253D01*
X013137Y004272D01*
X013106Y004295D01*
X013077Y004321D01*
X013050Y004349D01*
X013027Y004380D01*
X013006Y004413D01*
X012990Y004449D01*
X012976Y004485D01*
X012967Y004523D01*
X012961Y004561D01*
X012959Y004600D01*
X012949Y004200D02*
X013749Y005000D01*
X008559Y006906D02*
X008561Y006945D01*
X008567Y006983D01*
X008576Y007021D01*
X008590Y007057D01*
X008606Y007093D01*
X008627Y007126D01*
X008650Y007157D01*
X008677Y007185D01*
X008706Y007211D01*
X008737Y007234D01*
X008771Y007253D01*
X008807Y007269D01*
X008843Y007281D01*
X008881Y007290D01*
X008920Y007295D01*
X008959Y007296D01*
X008997Y007293D01*
X009036Y007286D01*
X009073Y007276D01*
X009109Y007261D01*
X009144Y007244D01*
X009177Y007223D01*
X009207Y007198D01*
X009235Y007171D01*
X009260Y007141D01*
X009282Y007109D01*
X009300Y007075D01*
X009315Y007039D01*
X009327Y007002D01*
X009335Y006964D01*
X009339Y006925D01*
X009339Y006887D01*
X009335Y006848D01*
X009327Y006810D01*
X009315Y006773D01*
X009300Y006737D01*
X009282Y006703D01*
X009260Y006671D01*
X009235Y006641D01*
X009207Y006614D01*
X009177Y006589D01*
X009144Y006568D01*
X009109Y006551D01*
X009073Y006536D01*
X009036Y006526D01*
X008997Y006519D01*
X008959Y006516D01*
X008920Y006517D01*
X008881Y006522D01*
X008843Y006531D01*
X008807Y006543D01*
X008771Y006559D01*
X008737Y006578D01*
X008706Y006601D01*
X008677Y006627D01*
X008650Y006655D01*
X008627Y006686D01*
X008606Y006719D01*
X008590Y006755D01*
X008576Y006791D01*
X008567Y006829D01*
X008561Y006867D01*
X008559Y006906D01*
X008549Y006506D02*
X009349Y007306D01*
X011594Y012445D02*
X011596Y012484D01*
X011602Y012522D01*
X011611Y012560D01*
X011625Y012596D01*
X011641Y012632D01*
X011662Y012665D01*
X011685Y012696D01*
X011712Y012724D01*
X011741Y012750D01*
X011772Y012773D01*
X011806Y012792D01*
X011842Y012808D01*
X011878Y012820D01*
X011916Y012829D01*
X011955Y012834D01*
X011994Y012835D01*
X012032Y012832D01*
X012071Y012825D01*
X012108Y012815D01*
X012144Y012800D01*
X012179Y012783D01*
X012212Y012762D01*
X012242Y012737D01*
X012270Y012710D01*
X012295Y012680D01*
X012317Y012648D01*
X012335Y012614D01*
X012350Y012578D01*
X012362Y012541D01*
X012370Y012503D01*
X012374Y012464D01*
X012374Y012426D01*
X012370Y012387D01*
X012362Y012349D01*
X012350Y012312D01*
X012335Y012276D01*
X012317Y012242D01*
X012295Y012210D01*
X012270Y012180D01*
X012242Y012153D01*
X012212Y012128D01*
X012179Y012107D01*
X012144Y012090D01*
X012108Y012075D01*
X012071Y012065D01*
X012032Y012058D01*
X011994Y012055D01*
X011955Y012056D01*
X011916Y012061D01*
X011878Y012070D01*
X011842Y012082D01*
X011806Y012098D01*
X011772Y012117D01*
X011741Y012140D01*
X011712Y012166D01*
X011685Y012194D01*
X011662Y012225D01*
X011641Y012258D01*
X011625Y012294D01*
X011611Y012330D01*
X011602Y012368D01*
X011596Y012406D01*
X011594Y012445D01*
X011584Y012045D02*
X012384Y012845D01*
X010157Y014988D02*
X010159Y015027D01*
X010165Y015065D01*
X010174Y015103D01*
X010188Y015139D01*
X010204Y015175D01*
X010225Y015208D01*
X010248Y015239D01*
X010275Y015267D01*
X010304Y015293D01*
X010335Y015316D01*
X010369Y015335D01*
X010405Y015351D01*
X010441Y015363D01*
X010479Y015372D01*
X010518Y015377D01*
X010557Y015378D01*
X010595Y015375D01*
X010634Y015368D01*
X010671Y015358D01*
X010707Y015343D01*
X010742Y015326D01*
X010775Y015305D01*
X010805Y015280D01*
X010833Y015253D01*
X010858Y015223D01*
X010880Y015191D01*
X010898Y015157D01*
X010913Y015121D01*
X010925Y015084D01*
X010933Y015046D01*
X010937Y015007D01*
X010937Y014969D01*
X010933Y014930D01*
X010925Y014892D01*
X010913Y014855D01*
X010898Y014819D01*
X010880Y014785D01*
X010858Y014753D01*
X010833Y014723D01*
X010805Y014696D01*
X010775Y014671D01*
X010742Y014650D01*
X010707Y014633D01*
X010671Y014618D01*
X010634Y014608D01*
X010595Y014601D01*
X010557Y014598D01*
X010518Y014599D01*
X010479Y014604D01*
X010441Y014613D01*
X010405Y014625D01*
X010369Y014641D01*
X010335Y014660D01*
X010304Y014683D01*
X010275Y014709D01*
X010248Y014737D01*
X010225Y014768D01*
X010204Y014801D01*
X010188Y014837D01*
X010174Y014873D01*
X010165Y014911D01*
X010159Y014949D01*
X010157Y014988D01*
X010147Y014588D02*
X010947Y015388D01*
X003589Y011371D02*
X003591Y011410D01*
X003597Y011448D01*
X003606Y011486D01*
X003620Y011522D01*
X003636Y011558D01*
X003657Y011591D01*
X003680Y011622D01*
X003707Y011650D01*
X003736Y011676D01*
X003767Y011699D01*
X003801Y011718D01*
X003837Y011734D01*
X003873Y011746D01*
X003911Y011755D01*
X003950Y011760D01*
X003989Y011761D01*
X004027Y011758D01*
X004066Y011751D01*
X004103Y011741D01*
X004139Y011726D01*
X004174Y011709D01*
X004207Y011688D01*
X004237Y011663D01*
X004265Y011636D01*
X004290Y011606D01*
X004312Y011574D01*
X004330Y011540D01*
X004345Y011504D01*
X004357Y011467D01*
X004365Y011429D01*
X004369Y011390D01*
X004369Y011352D01*
X004365Y011313D01*
X004357Y011275D01*
X004345Y011238D01*
X004330Y011202D01*
X004312Y011168D01*
X004290Y011136D01*
X004265Y011106D01*
X004237Y011079D01*
X004207Y011054D01*
X004174Y011033D01*
X004139Y011016D01*
X004103Y011001D01*
X004066Y010991D01*
X004027Y010984D01*
X003989Y010981D01*
X003950Y010982D01*
X003911Y010987D01*
X003873Y010996D01*
X003837Y011008D01*
X003801Y011024D01*
X003767Y011043D01*
X003736Y011066D01*
X003707Y011092D01*
X003680Y011120D01*
X003657Y011151D01*
X003636Y011184D01*
X003620Y011220D01*
X003606Y011256D01*
X003597Y011294D01*
X003591Y011332D01*
X003589Y011371D01*
X003579Y010971D02*
X004379Y011771D01*
X003589Y010996D02*
X003591Y011035D01*
X003597Y011073D01*
X003606Y011111D01*
X003620Y011147D01*
X003636Y011183D01*
X003657Y011216D01*
X003680Y011247D01*
X003707Y011275D01*
X003736Y011301D01*
X003767Y011324D01*
X003801Y011343D01*
X003837Y011359D01*
X003873Y011371D01*
X003911Y011380D01*
X003950Y011385D01*
X003989Y011386D01*
X004027Y011383D01*
X004066Y011376D01*
X004103Y011366D01*
X004139Y011351D01*
X004174Y011334D01*
X004207Y011313D01*
X004237Y011288D01*
X004265Y011261D01*
X004290Y011231D01*
X004312Y011199D01*
X004330Y011165D01*
X004345Y011129D01*
X004357Y011092D01*
X004365Y011054D01*
X004369Y011015D01*
X004369Y010977D01*
X004365Y010938D01*
X004357Y010900D01*
X004345Y010863D01*
X004330Y010827D01*
X004312Y010793D01*
X004290Y010761D01*
X004265Y010731D01*
X004237Y010704D01*
X004207Y010679D01*
X004174Y010658D01*
X004139Y010641D01*
X004103Y010626D01*
X004066Y010616D01*
X004027Y010609D01*
X003989Y010606D01*
X003950Y010607D01*
X003911Y010612D01*
X003873Y010621D01*
X003837Y010633D01*
X003801Y010649D01*
X003767Y010668D01*
X003736Y010691D01*
X003707Y010717D01*
X003680Y010745D01*
X003657Y010776D01*
X003636Y010809D01*
X003620Y010845D01*
X003606Y010881D01*
X003597Y010919D01*
X003591Y010957D01*
X003589Y010996D01*
X003579Y010596D02*
X004379Y011396D01*
X003589Y010620D02*
X003591Y010659D01*
X003597Y010697D01*
X003606Y010735D01*
X003620Y010771D01*
X003636Y010807D01*
X003657Y010840D01*
X003680Y010871D01*
X003707Y010899D01*
X003736Y010925D01*
X003767Y010948D01*
X003801Y010967D01*
X003837Y010983D01*
X003873Y010995D01*
X003911Y011004D01*
X003950Y011009D01*
X003989Y011010D01*
X004027Y011007D01*
X004066Y011000D01*
X004103Y010990D01*
X004139Y010975D01*
X004174Y010958D01*
X004207Y010937D01*
X004237Y010912D01*
X004265Y010885D01*
X004290Y010855D01*
X004312Y010823D01*
X004330Y010789D01*
X004345Y010753D01*
X004357Y010716D01*
X004365Y010678D01*
X004369Y010639D01*
X004369Y010601D01*
X004365Y010562D01*
X004357Y010524D01*
X004345Y010487D01*
X004330Y010451D01*
X004312Y010417D01*
X004290Y010385D01*
X004265Y010355D01*
X004237Y010328D01*
X004207Y010303D01*
X004174Y010282D01*
X004139Y010265D01*
X004103Y010250D01*
X004066Y010240D01*
X004027Y010233D01*
X003989Y010230D01*
X003950Y010231D01*
X003911Y010236D01*
X003873Y010245D01*
X003837Y010257D01*
X003801Y010273D01*
X003767Y010292D01*
X003736Y010315D01*
X003707Y010341D01*
X003680Y010369D01*
X003657Y010400D01*
X003636Y010433D01*
X003620Y010469D01*
X003606Y010505D01*
X003597Y010543D01*
X003591Y010581D01*
X003589Y010620D01*
X003579Y010220D02*
X004379Y011020D01*
X003214Y010996D02*
X003216Y011035D01*
X003222Y011073D01*
X003231Y011111D01*
X003245Y011147D01*
X003261Y011183D01*
X003282Y011216D01*
X003305Y011247D01*
X003332Y011275D01*
X003361Y011301D01*
X003392Y011324D01*
X003426Y011343D01*
X003462Y011359D01*
X003498Y011371D01*
X003536Y011380D01*
X003575Y011385D01*
X003614Y011386D01*
X003652Y011383D01*
X003691Y011376D01*
X003728Y011366D01*
X003764Y011351D01*
X003799Y011334D01*
X003832Y011313D01*
X003862Y011288D01*
X003890Y011261D01*
X003915Y011231D01*
X003937Y011199D01*
X003955Y011165D01*
X003970Y011129D01*
X003982Y011092D01*
X003990Y011054D01*
X003994Y011015D01*
X003994Y010977D01*
X003990Y010938D01*
X003982Y010900D01*
X003970Y010863D01*
X003955Y010827D01*
X003937Y010793D01*
X003915Y010761D01*
X003890Y010731D01*
X003862Y010704D01*
X003832Y010679D01*
X003799Y010658D01*
X003764Y010641D01*
X003728Y010626D01*
X003691Y010616D01*
X003652Y010609D01*
X003614Y010606D01*
X003575Y010607D01*
X003536Y010612D01*
X003498Y010621D01*
X003462Y010633D01*
X003426Y010649D01*
X003392Y010668D01*
X003361Y010691D01*
X003332Y010717D01*
X003305Y010745D01*
X003282Y010776D01*
X003261Y010809D01*
X003245Y010845D01*
X003231Y010881D01*
X003222Y010919D01*
X003216Y010957D01*
X003214Y010996D01*
X003204Y010596D02*
X004004Y011396D01*
X003214Y011371D02*
X003216Y011410D01*
X003222Y011448D01*
X003231Y011486D01*
X003245Y011522D01*
X003261Y011558D01*
X003282Y011591D01*
X003305Y011622D01*
X003332Y011650D01*
X003361Y011676D01*
X003392Y011699D01*
X003426Y011718D01*
X003462Y011734D01*
X003498Y011746D01*
X003536Y011755D01*
X003575Y011760D01*
X003614Y011761D01*
X003652Y011758D01*
X003691Y011751D01*
X003728Y011741D01*
X003764Y011726D01*
X003799Y011709D01*
X003832Y011688D01*
X003862Y011663D01*
X003890Y011636D01*
X003915Y011606D01*
X003937Y011574D01*
X003955Y011540D01*
X003970Y011504D01*
X003982Y011467D01*
X003990Y011429D01*
X003994Y011390D01*
X003994Y011352D01*
X003990Y011313D01*
X003982Y011275D01*
X003970Y011238D01*
X003955Y011202D01*
X003937Y011168D01*
X003915Y011136D01*
X003890Y011106D01*
X003862Y011079D01*
X003832Y011054D01*
X003799Y011033D01*
X003764Y011016D01*
X003728Y011001D01*
X003691Y010991D01*
X003652Y010984D01*
X003614Y010981D01*
X003575Y010982D01*
X003536Y010987D01*
X003498Y010996D01*
X003462Y011008D01*
X003426Y011024D01*
X003392Y011043D01*
X003361Y011066D01*
X003332Y011092D01*
X003305Y011120D01*
X003282Y011151D01*
X003261Y011184D01*
X003245Y011220D01*
X003231Y011256D01*
X003222Y011294D01*
X003216Y011332D01*
X003214Y011371D01*
X003204Y010971D02*
X004004Y011771D01*
X003214Y010620D02*
X003216Y010659D01*
X003222Y010697D01*
X003231Y010735D01*
X003245Y010771D01*
X003261Y010807D01*
X003282Y010840D01*
X003305Y010871D01*
X003332Y010899D01*
X003361Y010925D01*
X003392Y010948D01*
X003426Y010967D01*
X003462Y010983D01*
X003498Y010995D01*
X003536Y011004D01*
X003575Y011009D01*
X003614Y011010D01*
X003652Y011007D01*
X003691Y011000D01*
X003728Y010990D01*
X003764Y010975D01*
X003799Y010958D01*
X003832Y010937D01*
X003862Y010912D01*
X003890Y010885D01*
X003915Y010855D01*
X003937Y010823D01*
X003955Y010789D01*
X003970Y010753D01*
X003982Y010716D01*
X003990Y010678D01*
X003994Y010639D01*
X003994Y010601D01*
X003990Y010562D01*
X003982Y010524D01*
X003970Y010487D01*
X003955Y010451D01*
X003937Y010417D01*
X003915Y010385D01*
X003890Y010355D01*
X003862Y010328D01*
X003832Y010303D01*
X003799Y010282D01*
X003764Y010265D01*
X003728Y010250D01*
X003691Y010240D01*
X003652Y010233D01*
X003614Y010230D01*
X003575Y010231D01*
X003536Y010236D01*
X003498Y010245D01*
X003462Y010257D01*
X003426Y010273D01*
X003392Y010292D01*
X003361Y010315D01*
X003332Y010341D01*
X003305Y010369D01*
X003282Y010400D01*
X003261Y010433D01*
X003245Y010469D01*
X003231Y010505D01*
X003222Y010543D01*
X003216Y010581D01*
X003214Y010620D01*
X003204Y010220D02*
X004004Y011020D01*
X003589Y010245D02*
X003591Y010284D01*
X003597Y010322D01*
X003606Y010360D01*
X003620Y010396D01*
X003636Y010432D01*
X003657Y010465D01*
X003680Y010496D01*
X003707Y010524D01*
X003736Y010550D01*
X003767Y010573D01*
X003801Y010592D01*
X003837Y010608D01*
X003873Y010620D01*
X003911Y010629D01*
X003950Y010634D01*
X003989Y010635D01*
X004027Y010632D01*
X004066Y010625D01*
X004103Y010615D01*
X004139Y010600D01*
X004174Y010583D01*
X004207Y010562D01*
X004237Y010537D01*
X004265Y010510D01*
X004290Y010480D01*
X004312Y010448D01*
X004330Y010414D01*
X004345Y010378D01*
X004357Y010341D01*
X004365Y010303D01*
X004369Y010264D01*
X004369Y010226D01*
X004365Y010187D01*
X004357Y010149D01*
X004345Y010112D01*
X004330Y010076D01*
X004312Y010042D01*
X004290Y010010D01*
X004265Y009980D01*
X004237Y009953D01*
X004207Y009928D01*
X004174Y009907D01*
X004139Y009890D01*
X004103Y009875D01*
X004066Y009865D01*
X004027Y009858D01*
X003989Y009855D01*
X003950Y009856D01*
X003911Y009861D01*
X003873Y009870D01*
X003837Y009882D01*
X003801Y009898D01*
X003767Y009917D01*
X003736Y009940D01*
X003707Y009966D01*
X003680Y009994D01*
X003657Y010025D01*
X003636Y010058D01*
X003620Y010094D01*
X003606Y010130D01*
X003597Y010168D01*
X003591Y010206D01*
X003589Y010245D01*
X003579Y009845D02*
X004379Y010645D01*
X003214Y010245D02*
X003216Y010284D01*
X003222Y010322D01*
X003231Y010360D01*
X003245Y010396D01*
X003261Y010432D01*
X003282Y010465D01*
X003305Y010496D01*
X003332Y010524D01*
X003361Y010550D01*
X003392Y010573D01*
X003426Y010592D01*
X003462Y010608D01*
X003498Y010620D01*
X003536Y010629D01*
X003575Y010634D01*
X003614Y010635D01*
X003652Y010632D01*
X003691Y010625D01*
X003728Y010615D01*
X003764Y010600D01*
X003799Y010583D01*
X003832Y010562D01*
X003862Y010537D01*
X003890Y010510D01*
X003915Y010480D01*
X003937Y010448D01*
X003955Y010414D01*
X003970Y010378D01*
X003982Y010341D01*
X003990Y010303D01*
X003994Y010264D01*
X003994Y010226D01*
X003990Y010187D01*
X003982Y010149D01*
X003970Y010112D01*
X003955Y010076D01*
X003937Y010042D01*
X003915Y010010D01*
X003890Y009980D01*
X003862Y009953D01*
X003832Y009928D01*
X003799Y009907D01*
X003764Y009890D01*
X003728Y009875D01*
X003691Y009865D01*
X003652Y009858D01*
X003614Y009855D01*
X003575Y009856D01*
X003536Y009861D01*
X003498Y009870D01*
X003462Y009882D01*
X003426Y009898D01*
X003392Y009917D01*
X003361Y009940D01*
X003332Y009966D01*
X003305Y009994D01*
X003282Y010025D01*
X003261Y010058D01*
X003245Y010094D01*
X003231Y010130D01*
X003222Y010168D01*
X003216Y010206D01*
X003214Y010245D01*
X003204Y009845D02*
X004004Y010645D01*
X003589Y009869D02*
X003591Y009908D01*
X003597Y009946D01*
X003606Y009984D01*
X003620Y010020D01*
X003636Y010056D01*
X003657Y010089D01*
X003680Y010120D01*
X003707Y010148D01*
X003736Y010174D01*
X003767Y010197D01*
X003801Y010216D01*
X003837Y010232D01*
X003873Y010244D01*
X003911Y010253D01*
X003950Y010258D01*
X003989Y010259D01*
X004027Y010256D01*
X004066Y010249D01*
X004103Y010239D01*
X004139Y010224D01*
X004174Y010207D01*
X004207Y010186D01*
X004237Y010161D01*
X004265Y010134D01*
X004290Y010104D01*
X004312Y010072D01*
X004330Y010038D01*
X004345Y010002D01*
X004357Y009965D01*
X004365Y009927D01*
X004369Y009888D01*
X004369Y009850D01*
X004365Y009811D01*
X004357Y009773D01*
X004345Y009736D01*
X004330Y009700D01*
X004312Y009666D01*
X004290Y009634D01*
X004265Y009604D01*
X004237Y009577D01*
X004207Y009552D01*
X004174Y009531D01*
X004139Y009514D01*
X004103Y009499D01*
X004066Y009489D01*
X004027Y009482D01*
X003989Y009479D01*
X003950Y009480D01*
X003911Y009485D01*
X003873Y009494D01*
X003837Y009506D01*
X003801Y009522D01*
X003767Y009541D01*
X003736Y009564D01*
X003707Y009590D01*
X003680Y009618D01*
X003657Y009649D01*
X003636Y009682D01*
X003620Y009718D01*
X003606Y009754D01*
X003597Y009792D01*
X003591Y009830D01*
X003589Y009869D01*
X003579Y009469D02*
X004379Y010269D01*
X003214Y009869D02*
X003216Y009908D01*
X003222Y009946D01*
X003231Y009984D01*
X003245Y010020D01*
X003261Y010056D01*
X003282Y010089D01*
X003305Y010120D01*
X003332Y010148D01*
X003361Y010174D01*
X003392Y010197D01*
X003426Y010216D01*
X003462Y010232D01*
X003498Y010244D01*
X003536Y010253D01*
X003575Y010258D01*
X003614Y010259D01*
X003652Y010256D01*
X003691Y010249D01*
X003728Y010239D01*
X003764Y010224D01*
X003799Y010207D01*
X003832Y010186D01*
X003862Y010161D01*
X003890Y010134D01*
X003915Y010104D01*
X003937Y010072D01*
X003955Y010038D01*
X003970Y010002D01*
X003982Y009965D01*
X003990Y009927D01*
X003994Y009888D01*
X003994Y009850D01*
X003990Y009811D01*
X003982Y009773D01*
X003970Y009736D01*
X003955Y009700D01*
X003937Y009666D01*
X003915Y009634D01*
X003890Y009604D01*
X003862Y009577D01*
X003832Y009552D01*
X003799Y009531D01*
X003764Y009514D01*
X003728Y009499D01*
X003691Y009489D01*
X003652Y009482D01*
X003614Y009479D01*
X003575Y009480D01*
X003536Y009485D01*
X003498Y009494D01*
X003462Y009506D01*
X003426Y009522D01*
X003392Y009541D01*
X003361Y009564D01*
X003332Y009590D01*
X003305Y009618D01*
X003282Y009649D01*
X003261Y009682D01*
X003245Y009718D01*
X003231Y009754D01*
X003222Y009792D01*
X003216Y009830D01*
X003214Y009869D01*
X003204Y009469D02*
X004004Y010269D01*
X001866Y004953D02*
X001868Y004992D01*
X001874Y005030D01*
X001883Y005068D01*
X001897Y005104D01*
X001913Y005140D01*
X001934Y005173D01*
X001957Y005204D01*
X001984Y005232D01*
X002013Y005258D01*
X002044Y005281D01*
X002078Y005300D01*
X002114Y005316D01*
X002150Y005328D01*
X002188Y005337D01*
X002227Y005342D01*
X002266Y005343D01*
X002304Y005340D01*
X002343Y005333D01*
X002380Y005323D01*
X002416Y005308D01*
X002451Y005291D01*
X002484Y005270D01*
X002514Y005245D01*
X002542Y005218D01*
X002567Y005188D01*
X002589Y005156D01*
X002607Y005122D01*
X002622Y005086D01*
X002634Y005049D01*
X002642Y005011D01*
X002646Y004972D01*
X002646Y004934D01*
X002642Y004895D01*
X002634Y004857D01*
X002622Y004820D01*
X002607Y004784D01*
X002589Y004750D01*
X002567Y004718D01*
X002542Y004688D01*
X002514Y004661D01*
X002484Y004636D01*
X002451Y004615D01*
X002416Y004598D01*
X002380Y004583D01*
X002343Y004573D01*
X002304Y004566D01*
X002266Y004563D01*
X002227Y004564D01*
X002188Y004569D01*
X002150Y004578D01*
X002114Y004590D01*
X002078Y004606D01*
X002044Y004625D01*
X002013Y004648D01*
X001984Y004674D01*
X001957Y004702D01*
X001934Y004733D01*
X001913Y004766D01*
X001897Y004802D01*
X001883Y004838D01*
X001874Y004876D01*
X001868Y004914D01*
X001866Y004953D01*
X001856Y004553D02*
X002656Y005353D01*
X000866Y004953D02*
X000868Y004992D01*
X000874Y005030D01*
X000883Y005068D01*
X000897Y005104D01*
X000913Y005140D01*
X000934Y005173D01*
X000957Y005204D01*
X000984Y005232D01*
X001013Y005258D01*
X001044Y005281D01*
X001078Y005300D01*
X001114Y005316D01*
X001150Y005328D01*
X001188Y005337D01*
X001227Y005342D01*
X001266Y005343D01*
X001304Y005340D01*
X001343Y005333D01*
X001380Y005323D01*
X001416Y005308D01*
X001451Y005291D01*
X001484Y005270D01*
X001514Y005245D01*
X001542Y005218D01*
X001567Y005188D01*
X001589Y005156D01*
X001607Y005122D01*
X001622Y005086D01*
X001634Y005049D01*
X001642Y005011D01*
X001646Y004972D01*
X001646Y004934D01*
X001642Y004895D01*
X001634Y004857D01*
X001622Y004820D01*
X001607Y004784D01*
X001589Y004750D01*
X001567Y004718D01*
X001542Y004688D01*
X001514Y004661D01*
X001484Y004636D01*
X001451Y004615D01*
X001416Y004598D01*
X001380Y004583D01*
X001343Y004573D01*
X001304Y004566D01*
X001266Y004563D01*
X001227Y004564D01*
X001188Y004569D01*
X001150Y004578D01*
X001114Y004590D01*
X001078Y004606D01*
X001044Y004625D01*
X001013Y004648D01*
X000984Y004674D01*
X000957Y004702D01*
X000934Y004733D01*
X000913Y004766D01*
X000897Y004802D01*
X000883Y004838D01*
X000874Y004876D01*
X000868Y004914D01*
X000866Y004953D01*
X000856Y004553D02*
X001656Y005353D01*
M02*
