%
M48
M72
T01C0.0157
T02C0.0315
T03C0.0394
T04C0.0400
%
T01
X8949Y6906
X14472Y10791
X16055Y13248
X12980Y17661
X11984Y12445
X7299Y12193
X2587Y1988
X14280Y14669
X16394Y13850
X8472Y3843
X10496Y6260
X10547Y14988
X3604Y11371
X3979Y11371
X3604Y10996
X3979Y10996
X3604Y10620
X3979Y10620
X3604Y10245
X3979Y10245
X3604Y9869
X3979Y9869
X11858Y9248
X11854Y6693
X18094Y8780
X17201Y5354
X14441Y9720
X13575Y5795
X12520Y14705
X14582Y5082
X11402Y16701
X15276Y6256
X17457Y10283
X17343Y9079
X13511Y7392
X18055Y7677
X17205Y9957
X16286Y6874
X15354Y6709
X17720Y4984
X14460Y5904
X15105Y9713
X15972Y4953
X14788Y7279
X9413Y8795
X8039Y10071
X14732Y6508
X15539Y8319
X15516Y4848
X13165Y4949
X13349Y4600
X16663Y6270
X17415Y6057
X11587Y10260
X13715Y7682
X13232Y5280
X14421Y5451
X15484Y5276
X15614Y6256
X18357Y7895
X16141Y7345
X16497Y7775
X16120Y7929
X16831Y8476
X14874Y8190
X14906Y8598
X19276Y4165
X3941Y15295
T02
X4831Y16071
X3650Y17961
T03
X6012Y17961
T04
X17106Y14913
X18106Y14913
X19106Y14913
X16110Y16299
X17110Y16299
X18110Y16299
X19110Y16299
X19197Y13291
X18197Y13291
X19197Y12291
X18197Y12291
X19197Y11291
X18197Y11291
X19197Y10291
X18197Y10291
X1256Y4953
X2256Y4953
X3256Y4953
X4256Y4953
X5256Y4953
X17106Y17677
X18106Y17677
X19106Y17677
X17110Y19059
X18110Y19059
X19110Y19059
X7024Y1772
X7024Y2772
X8024Y1772
X8024Y2772
X9024Y1772
X9024Y2772
X10024Y1772
X10024Y2772
X11024Y1772
X11024Y2772
X12024Y1772
X12024Y2772
X13024Y1772
X13024Y2772
X14024Y1772
X14024Y2772
X15024Y1772
X15024Y2772
X16024Y1772
X16024Y2772
X7039Y19004
X8039Y19004
X9039Y19004
X10039Y19004
X11039Y19004
X12039Y19004
X13039Y19004
X14039Y19004
M30
