G75*
%MOIN*%
%OFA0B0*%
%FSLAX24Y24*%
%IPPOS*%
%LPD*%
%AMOC8*
5,1,8,0,0,1.08239X$1,22.5*
%
%ADD10C,0.0000*%
%ADD11R,0.0620X0.0150*%
%ADD12R,0.0150X0.0620*%
%ADD13R,0.0906X0.0276*%
%ADD14R,0.1064X0.0985*%
%ADD15R,0.1024X0.1044*%
%ADD16R,0.0827X0.0827*%
%ADD17R,0.0355X0.0355*%
%ADD18C,0.0227*%
%ADD19R,0.0709X0.0749*%
%ADD20C,0.0900*%
%ADD21R,0.0552X0.0670*%
%ADD22R,0.0640X0.0640*%
%ADD23OC8,0.0640*%
%ADD24R,0.0670X0.0552*%
%ADD25R,0.0552X0.0788*%
%ADD26R,0.0360X0.0700*%
%ADD27R,0.0434X0.0512*%
%ADD28R,0.0500X0.0670*%
%ADD29R,0.0060X0.0720*%
D10*
X000500Y000500D02*
X000500Y020185D01*
X020185Y020185D01*
X020185Y000500D01*
X000500Y000500D01*
X000500Y020185D01*
X020185Y020185D01*
X020185Y000500D01*
X000500Y000500D01*
D11*
X013064Y006739D03*
X013064Y006929D03*
X013064Y007129D03*
X013064Y007329D03*
X013064Y007519D03*
X013064Y007719D03*
X013064Y007919D03*
X013064Y008119D03*
X013064Y008309D03*
X013064Y008509D03*
X013064Y008709D03*
X013064Y008899D03*
X016384Y008899D03*
X016384Y008709D03*
X016384Y008509D03*
X016384Y008309D03*
X016384Y008119D03*
X016384Y007919D03*
X016384Y007719D03*
X016384Y007519D03*
X016384Y007329D03*
X016384Y007129D03*
X016384Y006929D03*
X016384Y006739D03*
D12*
X015804Y006159D03*
X015614Y006159D03*
X015414Y006159D03*
X015214Y006159D03*
X015024Y006159D03*
X014824Y006159D03*
X014624Y006159D03*
X014424Y006159D03*
X014234Y006159D03*
X014034Y006159D03*
X013834Y006159D03*
X013644Y006159D03*
X013644Y009479D03*
X013834Y009479D03*
X014034Y009479D03*
X014234Y009479D03*
X014424Y009479D03*
X014624Y009479D03*
X014824Y009479D03*
X015024Y009479D03*
X015214Y009479D03*
X015414Y009479D03*
X015614Y009479D03*
X015804Y009479D03*
D13*
X012350Y016089D03*
X012350Y016589D03*
X012350Y017089D03*
X012350Y017589D03*
X010303Y017589D03*
X010303Y017089D03*
X010303Y016589D03*
X010303Y016089D03*
X004823Y011360D03*
X004823Y010860D03*
X004823Y010360D03*
X004823Y009860D03*
X002776Y009860D03*
X002776Y010360D03*
X002776Y010860D03*
X002776Y011360D03*
X003217Y003415D03*
X003217Y002915D03*
X003217Y002415D03*
X003217Y001915D03*
X005264Y001915D03*
X005264Y002415D03*
X005264Y002915D03*
X005264Y003415D03*
D14*
X004482Y013091D03*
X001982Y013091D03*
D15*
X006020Y013260D03*
X006020Y011260D03*
D16*
X007579Y015835D03*
X007579Y017409D03*
D17*
X010043Y015461D03*
X010643Y015461D03*
X013125Y010906D03*
X013725Y010906D03*
X013749Y010181D03*
X013149Y010181D03*
X011627Y009752D03*
X011027Y009752D03*
X011027Y006996D03*
X011627Y006996D03*
X011641Y006280D03*
X012241Y006280D03*
X010854Y006186D03*
X010854Y005586D03*
X010197Y005570D03*
X010197Y006170D03*
X007493Y007587D03*
X006893Y007587D03*
X005918Y004043D03*
X005318Y004043D03*
X002965Y005815D03*
X002365Y005815D03*
X002960Y014724D03*
X003560Y014724D03*
X015578Y005413D03*
X016178Y005413D03*
X017087Y008700D03*
X017087Y009300D03*
X017326Y013689D03*
X017926Y013689D03*
X018901Y013689D03*
X019501Y013689D03*
D18*
X004258Y009238D02*
X004258Y006944D01*
X004258Y009238D02*
X004938Y009238D01*
X004938Y006944D01*
X004258Y006944D01*
X004258Y007170D02*
X004938Y007170D01*
X004938Y007396D02*
X004258Y007396D01*
X004258Y007622D02*
X004938Y007622D01*
X004938Y007848D02*
X004258Y007848D01*
X004258Y008074D02*
X004938Y008074D01*
X004938Y008300D02*
X004258Y008300D01*
X004258Y008526D02*
X004938Y008526D01*
X004938Y008752D02*
X004258Y008752D01*
X004258Y008978D02*
X004938Y008978D01*
X004938Y009204D02*
X004258Y009204D01*
X003324Y009238D02*
X003324Y006944D01*
X002644Y006944D01*
X002644Y009238D01*
X003324Y009238D01*
X003324Y007170D02*
X002644Y007170D01*
X002644Y007396D02*
X003324Y007396D01*
X003324Y007622D02*
X002644Y007622D01*
X002644Y007848D02*
X003324Y007848D01*
X003324Y008074D02*
X002644Y008074D01*
X002644Y008300D02*
X003324Y008300D01*
X003324Y008526D02*
X002644Y008526D01*
X002644Y008752D02*
X003324Y008752D01*
X003324Y008978D02*
X002644Y008978D01*
X002644Y009204D02*
X003324Y009204D01*
D19*
X001646Y009559D03*
X001646Y011173D03*
D20*
X004401Y016071D02*
X005261Y016071D01*
X006012Y017531D02*
X006012Y018391D01*
X003650Y018391D02*
X003650Y017531D01*
D21*
X005101Y014783D03*
X006301Y014783D03*
X010727Y014083D03*
X011927Y014083D03*
X013089Y014083D03*
X014289Y014083D03*
X014289Y012705D03*
X013089Y012705D03*
X011927Y012705D03*
X010727Y012705D03*
X010727Y010933D03*
X011927Y010933D03*
D22*
X017106Y014913D03*
X016110Y016299D03*
X017106Y017677D03*
X017110Y019059D03*
X007039Y019004D03*
X019197Y008575D03*
X007024Y001772D03*
X001256Y004953D03*
D23*
X002256Y004953D03*
X003256Y004953D03*
X004256Y004953D03*
X005256Y004953D03*
X007024Y002772D03*
X008024Y002772D03*
X009024Y002772D03*
X010024Y002772D03*
X011024Y002772D03*
X012024Y002772D03*
X013024Y002772D03*
X014024Y002772D03*
X015024Y002772D03*
X016024Y002772D03*
X016024Y001772D03*
X015024Y001772D03*
X014024Y001772D03*
X013024Y001772D03*
X012024Y001772D03*
X011024Y001772D03*
X010024Y001772D03*
X009024Y001772D03*
X008024Y001772D03*
X018197Y008575D03*
X018197Y009575D03*
X018197Y010575D03*
X018197Y011575D03*
X019197Y011575D03*
X019197Y010575D03*
X019197Y009575D03*
X019106Y014913D03*
X018106Y014913D03*
X018110Y016299D03*
X017110Y016299D03*
X018106Y017677D03*
X019106Y017677D03*
X019110Y019059D03*
X018110Y019059D03*
X019110Y016299D03*
X014039Y019004D03*
X013039Y019004D03*
X012039Y019004D03*
X011039Y019004D03*
X010039Y019004D03*
X009039Y019004D03*
X008039Y019004D03*
D24*
X013886Y017439D03*
X013886Y016239D03*
X015606Y017888D03*
X015606Y019088D03*
X009555Y011533D03*
X009555Y010333D03*
X001681Y003265D03*
X001681Y002065D03*
X019398Y004821D03*
X019398Y006021D03*
D25*
X011819Y007744D03*
X011819Y009004D03*
X009654Y009004D03*
X009654Y007744D03*
D26*
X008587Y006868D03*
X008087Y006868D03*
X007587Y006868D03*
X007087Y006868D03*
X007087Y004368D03*
X007587Y004368D03*
X008087Y004368D03*
X008587Y004368D03*
D27*
X016051Y012311D03*
X015657Y013098D03*
X016445Y013098D03*
X016051Y014280D03*
X015264Y014280D03*
X015657Y015067D03*
D28*
X008083Y012705D03*
X007483Y012705D03*
X007483Y011130D03*
X008083Y011130D03*
X008083Y009555D03*
X007483Y009555D03*
D29*
X007783Y009555D03*
X007783Y011130D03*
X007783Y012705D03*
M02*
