G75*
%MOIN*%
%OFA0B0*%
%FSLAX24Y24*%
%IPPOS*%
%LPD*%
%AMOC8*
5,1,8,0,0,1.08239X$1,22.5*
%
%ADD10C,0.0000*%
%ADD11C,0.0900*%
%ADD12R,0.0640X0.0640*%
%ADD13OC8,0.0640*%
%ADD14R,0.2009X0.1615*%
%ADD15R,0.0631X0.0631*%
D10*
X000500Y000500D02*
X000500Y020185D01*
X020185Y020185D01*
X020185Y000500D01*
X000500Y000500D01*
X000500Y020185D01*
X020185Y020185D01*
X020185Y000500D01*
X000500Y000500D01*
D11*
X004401Y016071D02*
X005261Y016071D01*
X006012Y017531D02*
X006012Y018391D01*
X003650Y018391D02*
X003650Y017531D01*
D12*
X007039Y019004D03*
X016110Y016299D03*
X017106Y017677D03*
X017110Y019059D03*
X017106Y014913D03*
X019197Y008575D03*
X007024Y001772D03*
X001256Y004953D03*
D13*
X002256Y004953D03*
X003256Y004953D03*
X004256Y004953D03*
X005256Y004953D03*
X007024Y002772D03*
X008024Y002772D03*
X009024Y002772D03*
X010024Y002772D03*
X011024Y002772D03*
X012024Y002772D03*
X013024Y002772D03*
X014024Y002772D03*
X015024Y002772D03*
X016024Y002772D03*
X016024Y001772D03*
X015024Y001772D03*
X014024Y001772D03*
X013024Y001772D03*
X012024Y001772D03*
X011024Y001772D03*
X010024Y001772D03*
X009024Y001772D03*
X008024Y001772D03*
X018197Y008575D03*
X018197Y009575D03*
X018197Y010575D03*
X018197Y011575D03*
X019197Y011575D03*
X019197Y010575D03*
X019197Y009575D03*
X019106Y014913D03*
X018106Y014913D03*
X018110Y016299D03*
X017110Y016299D03*
X018106Y017677D03*
X019106Y017677D03*
X019110Y019059D03*
X018110Y019059D03*
X019110Y016299D03*
X014039Y019004D03*
X013039Y019004D03*
X012039Y019004D03*
X011039Y019004D03*
X010039Y019004D03*
X009039Y019004D03*
X008039Y019004D03*
D14*
X007980Y016899D03*
X007980Y005649D03*
D15*
X003157Y014870D03*
X001780Y014870D03*
X017996Y003063D03*
X017996Y001685D03*
X019480Y001685D03*
X019480Y003063D03*
M02*
