G04 This is an RS-274x file exported by *
G04 gerbv version 2.6.1 *
G04 More information is available about gerbv at *
G04 http://gerbv.geda-project.org/ *
G04 --End of header info--*
%MOIN*%
%FSLAX34Y34*%
%IPPOS*%
G04 --Define apertures--*
%AMMACRO10*
21,1,0.058000,0.011000,0.000000,0.000000,0.000000*
%
%ADD10MACRO10*%
%AMMACRO11*
21,1,0.011000,0.058000,0.000000,0.000000,0.000000*
%
%ADD11MACRO11*%
%AMMACRO12*
21,1,0.086614,0.023622,0.000000,0.000000,0.000000*
%
%ADD12MACRO12*%
%AMMACRO13*
21,1,0.102362,0.094488,0.000000,0.000000,0.000000*
%
%ADD13MACRO13*%
%AMMACRO14*
21,1,0.098425,0.100394,0.000000,0.000000,0.000000*
%
%ADD14MACRO14*%
%AMMACRO15*
21,1,0.078740,0.078740,0.000000,0.000000,0.000000*
%
%ADD15MACRO15*%
%AMMACRO16*
21,1,0.031496,0.031496,0.000000,0.000000,0.000000*
%
%ADD16MACRO16*%
%AMMACRO17*
21,1,0.086614,0.248032,0.000000,0.000000,0.000000*
%
%ADD17MACRO17*%
%AMMACRO18*
21,1,0.066929,0.070866,0.000000,0.000000,0.000000*
%
%ADD18MACRO18*%
%AMMACRO19*
21,1,0.051181,0.062992,0.000000,0.000000,0.000000*
%
%ADD19MACRO19*%
%AMMACRO20*
21,1,0.060000,0.060000,0.000000,0.000000,0.000000*
%
%ADD20MACRO20*%
%AMMACRO21*
21,1,0.062992,0.051181,0.000000,0.000000,0.000000*
%
%ADD21MACRO21*%
%AMMACRO22*
21,1,0.051181,0.074803,0.000000,0.000000,0.000000*
%
%ADD22MACRO22*%
%AMMACRO23*
21,1,0.032000,0.066000,0.000000,0.000000,0.000000*
%
%ADD23MACRO23*%
%AMMACRO24*
21,1,0.039370,0.047244,0.000000,0.000000,0.000000*
%
%ADD24MACRO24*%
%AMMACRO25*
21,1,0.046000,0.063000,0.000000,0.000000,0.000000*
%
%ADD25MACRO25*%
%ADD26C,0.0000*%
%ADD27C,0.0060*%
%ADD28C,0.0000*%
%ADD29C,0.0100*%
%ADD30C,0.0157*%
%ADD31C,0.0236*%
%ADD32C,0.0276*%
%ADD33C,0.0860*%
G04 --Start main section--*
G36*
G01X0002888Y0013607D02*
G01X0002888Y0013563D01*
G01X0002888Y0012696D01*
G01X0002888Y0012618D01*
G01X0002888Y0012540D01*
G01X0002828Y0012395D01*
G01X0002717Y0012284D01*
G01X0002572Y0012224D01*
G01X0002494Y0012224D01*
G01X0002416Y0012224D01*
G01X0001470Y0012224D01*
G01X0001398Y0012224D01*
G01X0001398Y0011756D01*
G01X0001980Y0011756D01*
G01X0002026Y0011756D01*
G01X0002110Y0011722D01*
G01X0002174Y0011657D01*
G01X0002181Y0011640D01*
G01X0002213Y0011672D01*
G01X0002297Y0011707D01*
G01X0002343Y0011707D01*
G01X0003209Y0011707D01*
G01X0003254Y0011707D01*
G01X0003338Y0011672D01*
G01X0003402Y0011608D01*
G01X0003437Y0011524D01*
G01X0003437Y0011478D01*
G01X0003437Y0011242D01*
G01X0003437Y0011197D01*
G01X0003403Y0011113D01*
G01X0003400Y0011110D01*
G01X0003402Y0011108D01*
G01X0003437Y0011024D01*
G01X0003437Y0010978D01*
G01X0003437Y0010861D01*
G01X0004161Y0010861D01*
G01X0004161Y0010914D01*
G01X0004056Y0011019D01*
G01X0003996Y0011164D01*
G01X0003996Y0011242D01*
G01X0003996Y0011320D01*
G01X0003996Y0011478D01*
G01X0003996Y0011556D01*
G01X0004056Y0011701D01*
G01X0004166Y0011812D01*
G01X0004311Y0011872D01*
G01X0004390Y0011872D01*
G01X0005147Y0011872D01*
G01X0005194Y0011985D01*
G01X0005304Y0012095D01*
G01X0005449Y0012155D01*
G01X0005528Y0012156D01*
G01X0006434Y0012156D01*
G01X0006456Y0012156D01*
G01X0006456Y0012529D01*
G01X0005528Y0012529D01*
G01X0005482Y0012529D01*
G01X0005398Y0012564D01*
G01X0005334Y0012628D01*
G01X0005299Y0012712D01*
G01X0005299Y0012758D01*
G01X0005299Y0013762D01*
G01X0005299Y0013807D01*
G01X0005334Y0013891D01*
G01X0005398Y0013956D01*
G01X0005482Y0013991D01*
G01X0005528Y0013991D01*
G01X0006456Y0013991D01*
G01X0006456Y0014075D01*
G01X0006045Y0014075D01*
G01X0005967Y0014075D01*
G01X0005822Y0014135D01*
G01X0005711Y0014245D01*
G01X0005701Y0014270D01*
G01X0005690Y0014245D01*
G01X0005580Y0014135D01*
G01X0005435Y0014075D01*
G01X0005357Y0014075D01*
G01X0005278Y0014075D01*
G01X0004845Y0014075D01*
G01X0004767Y0014075D01*
G01X0004622Y0014135D01*
G01X0004511Y0014245D01*
G01X0004451Y0014390D01*
G01X0004451Y0014469D01*
G01X0004451Y0015072D01*
G01X0003850Y0015072D01*
G01X0003911Y0015012D01*
G01X0003946Y0014928D01*
G01X0003946Y0014882D01*
G01X0003946Y0014612D01*
G01X0003946Y0014567D01*
G01X0003946Y0014521D01*
G01X0003911Y0014437D01*
G01X0003847Y0014373D01*
G01X0003763Y0014338D01*
G01X0003717Y0014338D01*
G01X0003672Y0014338D01*
G01X0003445Y0014338D01*
G01X0003340Y0014233D01*
G01X0003237Y0014190D01*
G01X0002888Y0013607D01*
G37*
%LPC*%
G36*
G01X0003970Y0012389D02*
G01X0003925Y0012389D01*
G01X0003841Y0012424D01*
G01X0003777Y0012488D01*
G01X0003742Y0012572D01*
G01X0003742Y0012618D01*
G01X0003742Y0013563D01*
G01X0003742Y0013608D01*
G01X0003776Y0013692D01*
G01X0003841Y0013757D01*
G01X0003925Y0013792D01*
G01X0003970Y0013792D01*
G01X0004994Y0013792D01*
G01X0005039Y0013792D01*
G01X0005124Y0013757D01*
G01X0005188Y0013693D01*
G01X0005223Y0013609D01*
G01X0005223Y0013563D01*
G01X0005223Y0012664D01*
G01X0005223Y0012618D01*
G01X0005223Y0012573D01*
G01X0005188Y0012489D01*
G01X0005124Y0012424D01*
G01X0005040Y0012389D01*
G01X0004994Y0012389D01*
G01X0004949Y0012389D01*
G01X0003970Y0012389D01*
G37*
%LPD*%
G36*
G01X0000917Y0010819D02*
G01X0000917Y0010897D01*
G01X0000917Y0011528D01*
G01X0000917Y0011606D01*
G01X0000933Y0011644D01*
G01X0000925Y0011662D01*
G01X0000925Y0011756D01*
G01X0000925Y0012224D01*
G01X0000925Y0012318D01*
G01X0000997Y0012492D01*
G01X0001130Y0012625D01*
G01X0001242Y0012671D01*
G01X0001242Y0013563D01*
G01X0001242Y0013608D01*
G01X0001276Y0013692D01*
G01X0001341Y0013757D01*
G01X0001425Y0013792D01*
G01X0001470Y0013792D01*
G01X0002449Y0013792D01*
G01X0002449Y0013795D01*
G01X0002482Y0013850D01*
G01X0002775Y0014338D01*
G01X0002757Y0014338D01*
G01X0002673Y0014373D01*
G01X0002609Y0014437D01*
G01X0002574Y0014521D01*
G01X0002574Y0014567D01*
G01X0002574Y0014882D01*
G01X0002574Y0014927D01*
G01X0002608Y0015011D01*
G01X0002673Y0015076D01*
G01X0002731Y0015100D01*
G01X0000679Y0015100D01*
G01X0000679Y0010141D01*
G01X0000982Y0010141D01*
G01X0001088Y0010247D01*
G01X0001232Y0010307D01*
G01X0001311Y0010307D01*
G01X0001980Y0010307D01*
G01X0002058Y0010307D01*
G01X0002098Y0010291D01*
G01X0002114Y0010306D01*
G01X0002114Y0010414D01*
G01X0002090Y0010438D01*
G01X0002059Y0010425D01*
G01X0001980Y0010425D01*
G01X0001389Y0010425D01*
G01X0001311Y0010425D01*
G01X0001233Y0010425D01*
G01X0001088Y0010485D01*
G01X0000977Y0010596D01*
G01X0000917Y0010741D01*
G01X0000917Y0010819D01*
G01X0000917Y0010819D01*
G37*
G36*
G01X0005150Y0006927D02*
G01X0006456Y0006927D01*
G01X0006456Y0010640D01*
G01X0005528Y0010640D01*
G01X0005512Y0010640D01*
G01X0005500Y0010610D01*
G01X0005531Y0010533D01*
G01X0005531Y0010478D01*
G01X0005531Y0010242D01*
G01X0005532Y0010188D01*
G01X0005500Y0010110D01*
G01X0005531Y0010033D01*
G01X0005531Y0009978D01*
G01X0005531Y0009742D01*
G01X0005532Y0009688D01*
G01X0005490Y0009586D01*
G01X0005412Y0009509D01*
G01X0005311Y0009467D01*
G01X0005256Y0009467D01*
G01X0004445Y0009467D01*
G01X0004390Y0009467D01*
G01X0004335Y0009467D01*
G01X0004265Y0009496D01*
G01X0004232Y0009482D01*
G01X0004212Y0009482D01*
G01X0004212Y0009449D01*
G01X0004983Y0009449D01*
G01X0005031Y0009449D01*
G01X0005080Y0009449D01*
G01X0005150Y0009380D01*
G01X0005150Y0009331D01*
G01X0005150Y0009282D01*
G01X0005150Y0006927D01*
G01X0005150Y0006927D01*
G37*
G36*
G01X0001134Y0009693D02*
G01X0001076Y0009669D01*
G01X0000982Y0009669D01*
G01X0000679Y0009669D01*
G01X0000679Y0006900D01*
G01X0002374Y0006900D01*
G01X0002374Y0006924D01*
G01X0002374Y0009331D01*
G01X0002374Y0009366D01*
G01X0002401Y0009431D01*
G01X0002451Y0009481D01*
G01X0002516Y0009508D01*
G01X0002551Y0009508D01*
G01X0003263Y0009508D01*
G01X0003205Y0009565D01*
G01X0002416Y0009565D01*
G01X0002343Y0009565D01*
G01X0002269Y0009565D01*
G01X0002165Y0009669D01*
G01X0002165Y0009742D01*
G01X0002165Y0009816D01*
G01X0002165Y0009822D01*
G01X0002157Y0009821D01*
G01X0002157Y0009205D01*
G01X0002158Y0009170D01*
G01X0002131Y0009104D01*
G01X0002081Y0009055D01*
G01X0002016Y0009028D01*
G01X0001980Y0009028D01*
G01X0001384Y0009028D01*
G01X0001311Y0009028D01*
G01X0001238Y0009028D01*
G01X0001134Y0009131D01*
G01X0001134Y0009205D01*
G01X0001134Y0009278D01*
G01X0001134Y0009693D01*
G01X0001134Y0009693D01*
G37*
G36*
G01X0003602Y0009836D02*
G01X0004161Y0009836D01*
G01X0004161Y0009978D01*
G01X0004161Y0010024D01*
G01X0004196Y0010108D01*
G01X0004198Y0010110D01*
G01X0004196Y0010113D01*
G01X0004161Y0010197D01*
G01X0004161Y0010242D01*
G01X0004161Y0010288D01*
G01X0004161Y0010478D01*
G01X0004161Y0010524D01*
G01X0004196Y0010608D01*
G01X0004198Y0010610D01*
G01X0004196Y0010613D01*
G01X0004161Y0010697D01*
G01X0004161Y0010742D01*
G01X0004161Y0010756D01*
G01X0003487Y0010756D01*
G01X0003542Y0010702D01*
G01X0003602Y0010557D01*
G01X0003602Y0010478D01*
G01X0003602Y0010242D01*
G01X0003602Y0010164D01*
G01X0003580Y0010110D01*
G01X0003602Y0010057D01*
G01X0003602Y0009978D01*
G01X0003602Y0009836D01*
G01X0003602Y0009836D01*
G37*
G36*
G01X0013739Y0019128D02*
G01X0013915Y0019304D01*
G01X0014164Y0019304D01*
G01X0014339Y0019128D01*
G01X0014339Y0018880D01*
G01X0014164Y0018704D01*
G01X0013915Y0018704D01*
G01X0013739Y0018880D01*
G01X0013739Y0019128D01*
G37*
G36*
G01X0017806Y0015038D02*
G01X0017982Y0015213D01*
G01X0018231Y0015213D01*
G01X0018406Y0015038D01*
G01X0018406Y0014789D01*
G01X0018231Y0014613D01*
G01X0017982Y0014613D01*
G01X0017806Y0014789D01*
G01X0017806Y0015038D01*
G37*
G36*
G01X0018806Y0015038D02*
G01X0018982Y0015213D01*
G01X0019231Y0015213D01*
G01X0019406Y0015038D01*
G01X0019406Y0014789D01*
G01X0019231Y0014613D01*
G01X0018982Y0014613D01*
G01X0018806Y0014789D01*
G01X0018806Y0015038D01*
G37*
G36*
G01X0016810Y0016423D02*
G01X0016986Y0016599D01*
G01X0017234Y0016599D01*
G01X0017410Y0016423D01*
G01X0017410Y0016175D01*
G01X0017234Y0015999D01*
G01X0016986Y0015999D01*
G01X0016810Y0016175D01*
G01X0016810Y0016423D01*
G37*
G36*
G01X0017810Y0016423D02*
G01X0017986Y0016599D01*
G01X0018234Y0016599D01*
G01X0018410Y0016423D01*
G01X0018410Y0016175D01*
G01X0018234Y0015999D01*
G01X0017986Y0015999D01*
G01X0017810Y0016175D01*
G01X0017810Y0016423D01*
G37*
G36*
G01X0018810Y0016423D02*
G01X0018986Y0016599D01*
G01X0019234Y0016599D01*
G01X0019410Y0016423D01*
G01X0019410Y0016175D01*
G01X0019234Y0015999D01*
G01X0018986Y0015999D01*
G01X0018810Y0016175D01*
G01X0018810Y0016423D01*
G37*
G36*
G01X0018073Y0008275D02*
G01X0017897Y0008451D01*
G01X0017897Y0008699D01*
G01X0018073Y0008875D01*
G01X0018321Y0008875D01*
G01X0018497Y0008699D01*
G01X0018497Y0008451D01*
G01X0018321Y0008275D01*
G01X0018073Y0008275D01*
G37*
G36*
G01X0019073Y0009275D02*
G01X0018897Y0009451D01*
G01X0018897Y0009699D01*
G01X0019073Y0009875D01*
G01X0019321Y0009875D01*
G01X0019497Y0009699D01*
G01X0019497Y0009451D01*
G01X0019321Y0009275D01*
G01X0019073Y0009275D01*
G37*
G36*
G01X0018073Y0009275D02*
G01X0017897Y0009451D01*
G01X0017897Y0009699D01*
G01X0018073Y0009875D01*
G01X0018321Y0009875D01*
G01X0018497Y0009699D01*
G01X0018497Y0009451D01*
G01X0018321Y0009275D01*
G01X0018073Y0009275D01*
G37*
G36*
G01X0019073Y0010275D02*
G01X0018897Y0010451D01*
G01X0018897Y0010699D01*
G01X0019073Y0010875D01*
G01X0019321Y0010875D01*
G01X0019497Y0010699D01*
G01X0019497Y0010451D01*
G01X0019321Y0010275D01*
G01X0019073Y0010275D01*
G37*
G36*
G01X0018073Y0010275D02*
G01X0017897Y0010451D01*
G01X0017897Y0010699D01*
G01X0018073Y0010875D01*
G01X0018321Y0010875D01*
G01X0018497Y0010699D01*
G01X0018497Y0010451D01*
G01X0018321Y0010275D01*
G01X0018073Y0010275D01*
G37*
G36*
G01X0019073Y0011275D02*
G01X0018897Y0011451D01*
G01X0018897Y0011699D01*
G01X0019073Y0011875D01*
G01X0019321Y0011875D01*
G01X0019497Y0011699D01*
G01X0019497Y0011451D01*
G01X0019321Y0011275D01*
G01X0019073Y0011275D01*
G37*
G36*
G01X0018073Y0011275D02*
G01X0017897Y0011451D01*
G01X0017897Y0011699D01*
G01X0018073Y0011875D01*
G01X0018321Y0011875D01*
G01X0018497Y0011699D01*
G01X0018497Y0011451D01*
G01X0018321Y0011275D01*
G01X0018073Y0011275D01*
G37*
G36*
G01X0001956Y0004829D02*
G01X0002132Y0004653D01*
G01X0002380Y0004653D01*
G01X0002556Y0004829D01*
G01X0002556Y0005077D01*
G01X0002380Y0005253D01*
G01X0002132Y0005253D01*
G01X0001956Y0005077D01*
G01X0001956Y0004829D01*
G37*
G36*
G01X0002956Y0004829D02*
G01X0003132Y0004653D01*
G01X0003380Y0004653D01*
G01X0003556Y0004829D01*
G01X0003556Y0005077D01*
G01X0003380Y0005253D01*
G01X0003132Y0005253D01*
G01X0002956Y0005077D01*
G01X0002956Y0004829D01*
G37*
G36*
G01X0003956Y0004829D02*
G01X0004132Y0004653D01*
G01X0004380Y0004653D01*
G01X0004556Y0004829D01*
G01X0004556Y0005077D01*
G01X0004380Y0005253D01*
G01X0004132Y0005253D01*
G01X0003956Y0005077D01*
G01X0003956Y0004829D01*
G37*
G36*
G01X0004956Y0004829D02*
G01X0005132Y0004653D01*
G01X0005380Y0004653D01*
G01X0005556Y0004829D01*
G01X0005556Y0005077D01*
G01X0005380Y0005253D01*
G01X0005132Y0005253D01*
G01X0004956Y0005077D01*
G01X0004956Y0004829D01*
G37*
G36*
G01X0017806Y0017801D02*
G01X0017982Y0017977D01*
G01X0018231Y0017977D01*
G01X0018406Y0017801D01*
G01X0018406Y0017553D01*
G01X0018231Y0017377D01*
G01X0017982Y0017377D01*
G01X0017806Y0017553D01*
G01X0017806Y0017801D01*
G37*
G36*
G01X0018806Y0017801D02*
G01X0018982Y0017977D01*
G01X0019231Y0017977D01*
G01X0019406Y0017801D01*
G01X0019406Y0017553D01*
G01X0019231Y0017377D01*
G01X0018982Y0017377D01*
G01X0018806Y0017553D01*
G01X0018806Y0017801D01*
G37*
G36*
G01X0017810Y0019183D02*
G01X0017986Y0019359D01*
G01X0018234Y0019359D01*
G01X0018410Y0019183D01*
G01X0018410Y0018935D01*
G01X0018234Y0018759D01*
G01X0017986Y0018759D01*
G01X0017810Y0018935D01*
G01X0017810Y0019183D01*
G37*
G36*
G01X0018810Y0019183D02*
G01X0018986Y0019359D01*
G01X0019234Y0019359D01*
G01X0019410Y0019183D01*
G01X0019410Y0018935D01*
G01X0019234Y0018759D01*
G01X0018986Y0018759D01*
G01X0018810Y0018935D01*
G01X0018810Y0019183D01*
G37*
G36*
G01X0006724Y0002896D02*
G01X0006899Y0003072D01*
G01X0007148Y0003072D01*
G01X0007324Y0002896D01*
G01X0007324Y0002647D01*
G01X0007148Y0002472D01*
G01X0006899Y0002472D01*
G01X0006724Y0002647D01*
G01X0006724Y0002896D01*
G37*
G36*
G01X0007724Y0001896D02*
G01X0007899Y0002072D01*
G01X0008148Y0002072D01*
G01X0008324Y0001896D01*
G01X0008324Y0001647D01*
G01X0008148Y0001472D01*
G01X0007899Y0001472D01*
G01X0007724Y0001647D01*
G01X0007724Y0001896D01*
G37*
G36*
G01X0007724Y0002896D02*
G01X0007899Y0003072D01*
G01X0008148Y0003072D01*
G01X0008324Y0002896D01*
G01X0008324Y0002647D01*
G01X0008148Y0002472D01*
G01X0007899Y0002472D01*
G01X0007724Y0002647D01*
G01X0007724Y0002896D01*
G37*
G36*
G01X0008724Y0001896D02*
G01X0008899Y0002072D01*
G01X0009148Y0002072D01*
G01X0009324Y0001896D01*
G01X0009324Y0001647D01*
G01X0009148Y0001472D01*
G01X0008899Y0001472D01*
G01X0008724Y0001647D01*
G01X0008724Y0001896D01*
G37*
G36*
G01X0008724Y0002896D02*
G01X0008899Y0003072D01*
G01X0009148Y0003072D01*
G01X0009324Y0002896D01*
G01X0009324Y0002647D01*
G01X0009148Y0002472D01*
G01X0008899Y0002472D01*
G01X0008724Y0002647D01*
G01X0008724Y0002896D01*
G37*
G36*
G01X0009724Y0001896D02*
G01X0009899Y0002072D01*
G01X0010148Y0002072D01*
G01X0010324Y0001896D01*
G01X0010324Y0001647D01*
G01X0010148Y0001472D01*
G01X0009899Y0001472D01*
G01X0009724Y0001647D01*
G01X0009724Y0001896D01*
G37*
G36*
G01X0009724Y0002896D02*
G01X0009899Y0003072D01*
G01X0010148Y0003072D01*
G01X0010324Y0002896D01*
G01X0010324Y0002647D01*
G01X0010148Y0002472D01*
G01X0009899Y0002472D01*
G01X0009724Y0002647D01*
G01X0009724Y0002896D01*
G37*
G36*
G01X0010724Y0001896D02*
G01X0010899Y0002072D01*
G01X0011148Y0002072D01*
G01X0011324Y0001896D01*
G01X0011324Y0001647D01*
G01X0011148Y0001472D01*
G01X0010899Y0001472D01*
G01X0010724Y0001647D01*
G01X0010724Y0001896D01*
G37*
G36*
G01X0010724Y0002896D02*
G01X0010899Y0003072D01*
G01X0011148Y0003072D01*
G01X0011324Y0002896D01*
G01X0011324Y0002647D01*
G01X0011148Y0002472D01*
G01X0010899Y0002472D01*
G01X0010724Y0002647D01*
G01X0010724Y0002896D01*
G37*
G36*
G01X0011724Y0001896D02*
G01X0011899Y0002072D01*
G01X0012148Y0002072D01*
G01X0012324Y0001896D01*
G01X0012324Y0001647D01*
G01X0012148Y0001472D01*
G01X0011899Y0001472D01*
G01X0011724Y0001647D01*
G01X0011724Y0001896D01*
G37*
G36*
G01X0011724Y0002896D02*
G01X0011899Y0003072D01*
G01X0012148Y0003072D01*
G01X0012324Y0002896D01*
G01X0012324Y0002647D01*
G01X0012148Y0002472D01*
G01X0011899Y0002472D01*
G01X0011724Y0002647D01*
G01X0011724Y0002896D01*
G37*
G36*
G01X0012724Y0001896D02*
G01X0012899Y0002072D01*
G01X0013148Y0002072D01*
G01X0013324Y0001896D01*
G01X0013324Y0001647D01*
G01X0013148Y0001472D01*
G01X0012899Y0001472D01*
G01X0012724Y0001647D01*
G01X0012724Y0001896D01*
G37*
G36*
G01X0012724Y0002896D02*
G01X0012899Y0003072D01*
G01X0013148Y0003072D01*
G01X0013324Y0002896D01*
G01X0013324Y0002647D01*
G01X0013148Y0002472D01*
G01X0012899Y0002472D01*
G01X0012724Y0002647D01*
G01X0012724Y0002896D01*
G37*
G36*
G01X0013724Y0001896D02*
G01X0013899Y0002072D01*
G01X0014148Y0002072D01*
G01X0014324Y0001896D01*
G01X0014324Y0001647D01*
G01X0014148Y0001472D01*
G01X0013899Y0001472D01*
G01X0013724Y0001647D01*
G01X0013724Y0001896D01*
G37*
G36*
G01X0013724Y0002896D02*
G01X0013899Y0003072D01*
G01X0014148Y0003072D01*
G01X0014324Y0002896D01*
G01X0014324Y0002647D01*
G01X0014148Y0002472D01*
G01X0013899Y0002472D01*
G01X0013724Y0002647D01*
G01X0013724Y0002896D01*
G37*
G36*
G01X0014724Y0001896D02*
G01X0014899Y0002072D01*
G01X0015148Y0002072D01*
G01X0015324Y0001896D01*
G01X0015324Y0001647D01*
G01X0015148Y0001472D01*
G01X0014899Y0001472D01*
G01X0014724Y0001647D01*
G01X0014724Y0001896D01*
G37*
G36*
G01X0014724Y0002896D02*
G01X0014899Y0003072D01*
G01X0015148Y0003072D01*
G01X0015324Y0002896D01*
G01X0015324Y0002647D01*
G01X0015148Y0002472D01*
G01X0014899Y0002472D01*
G01X0014724Y0002647D01*
G01X0014724Y0002896D01*
G37*
G36*
G01X0015724Y0001896D02*
G01X0015899Y0002072D01*
G01X0016148Y0002072D01*
G01X0016324Y0001896D01*
G01X0016324Y0001647D01*
G01X0016148Y0001472D01*
G01X0015899Y0001472D01*
G01X0015724Y0001647D01*
G01X0015724Y0001896D01*
G37*
G36*
G01X0015724Y0002896D02*
G01X0015899Y0003072D01*
G01X0016148Y0003072D01*
G01X0016324Y0002896D01*
G01X0016324Y0002647D01*
G01X0016148Y0002472D01*
G01X0015899Y0002472D01*
G01X0015724Y0002647D01*
G01X0015724Y0002896D01*
G37*
G36*
G01X0007739Y0019128D02*
G01X0007915Y0019304D01*
G01X0008164Y0019304D01*
G01X0008339Y0019128D01*
G01X0008339Y0018880D01*
G01X0008164Y0018704D01*
G01X0007915Y0018704D01*
G01X0007739Y0018880D01*
G01X0007739Y0019128D01*
G37*
G36*
G01X0008739Y0019128D02*
G01X0008915Y0019304D01*
G01X0009164Y0019304D01*
G01X0009339Y0019128D01*
G01X0009339Y0018880D01*
G01X0009164Y0018704D01*
G01X0008915Y0018704D01*
G01X0008739Y0018880D01*
G01X0008739Y0019128D01*
G37*
G36*
G01X0009739Y0019128D02*
G01X0009915Y0019304D01*
G01X0010164Y0019304D01*
G01X0010339Y0019128D01*
G01X0010339Y0018880D01*
G01X0010164Y0018704D01*
G01X0009915Y0018704D01*
G01X0009739Y0018880D01*
G01X0009739Y0019128D01*
G37*
G36*
G01X0010739Y0019128D02*
G01X0010915Y0019304D01*
G01X0011164Y0019304D01*
G01X0011339Y0019128D01*
G01X0011339Y0018880D01*
G01X0011164Y0018704D01*
G01X0010915Y0018704D01*
G01X0010739Y0018880D01*
G01X0010739Y0019128D01*
G37*
G36*
G01X0011739Y0019128D02*
G01X0011915Y0019304D01*
G01X0012164Y0019304D01*
G01X0012339Y0019128D01*
G01X0012339Y0018880D01*
G01X0012164Y0018704D01*
G01X0011915Y0018704D01*
G01X0011739Y0018880D01*
G01X0011739Y0019128D01*
G37*
G36*
G01X0012739Y0019128D02*
G01X0012915Y0019304D01*
G01X0013164Y0019304D01*
G01X0013339Y0019128D01*
G01X0013339Y0018880D01*
G01X0013164Y0018704D01*
G01X0012915Y0018704D01*
G01X0012739Y0018880D01*
G01X0012739Y0019128D01*
G37*
G36*
G01X0005409Y0011633D02*
G01X0005388Y0011607D01*
G01X0005332Y0011569D01*
G01X0005374Y0011527D01*
G01X0005374Y0011478D01*
G01X0005374Y0011242D01*
G01X0005374Y0011228D01*
G01X0005409Y0011213D01*
G01X0005409Y0011633D01*
G01X0005409Y0011633D01*
G37*
G54D10*
G01X0016384Y0008899D03*
G01X0016384Y0008709D03*
G01X0016384Y0008509D03*
G01X0016384Y0008309D03*
G01X0016384Y0008119D03*
G01X0016384Y0007919D03*
G01X0016384Y0007719D03*
G01X0016384Y0007519D03*
G01X0016384Y0007329D03*
G01X0016384Y0007129D03*
G01X0016384Y0006929D03*
G01X0016384Y0006739D03*
G01X0013064Y0006739D03*
G01X0013064Y0006929D03*
G01X0013064Y0007129D03*
G01X0013064Y0007329D03*
G01X0013064Y0007519D03*
G01X0013064Y0007719D03*
G01X0013064Y0007919D03*
G01X0013064Y0008119D03*
G01X0013064Y0008309D03*
G01X0013064Y0008509D03*
G01X0013064Y0008709D03*
G01X0013064Y0008899D03*
G54D11*
G01X0013644Y0009479D03*
G01X0013834Y0009479D03*
G01X0014034Y0009479D03*
G01X0014234Y0009479D03*
G01X0014424Y0009479D03*
G01X0014624Y0009479D03*
G01X0014824Y0009479D03*
G01X0015024Y0009479D03*
G01X0015214Y0009479D03*
G01X0015414Y0009479D03*
G01X0015614Y0009479D03*
G01X0015804Y0009479D03*
G01X0015804Y0006159D03*
G01X0015614Y0006159D03*
G01X0015414Y0006159D03*
G01X0015214Y0006159D03*
G01X0015024Y0006159D03*
G01X0014824Y0006159D03*
G01X0014624Y0006159D03*
G01X0014424Y0006159D03*
G01X0014234Y0006159D03*
G01X0014034Y0006159D03*
G01X0013834Y0006159D03*
G01X0013644Y0006159D03*
G54D12*
G01X0005264Y0001915D03*
G01X0005264Y0002415D03*
G01X0005264Y0003415D03*
G01X0003217Y0001915D03*
G01X0003217Y0002415D03*
G01X0003217Y0003415D03*
G01X0005264Y0002915D03*
G01X0003217Y0002915D03*
G01X0010303Y0017589D03*
G01X0010303Y0017089D03*
G01X0010303Y0016089D03*
G01X0012350Y0017589D03*
G01X0012350Y0017089D03*
G01X0012350Y0016089D03*
G01X0010303Y0016589D03*
G01X0012350Y0016589D03*
G01X0002776Y0011360D03*
G01X0002776Y0010860D03*
G01X0002776Y0009860D03*
G01X0004823Y0011360D03*
G01X0004823Y0010860D03*
G01X0004823Y0009860D03*
G01X0002776Y0010360D03*
G01X0004823Y0010360D03*
G54D13*
G01X0004482Y0013091D03*
G01X0001982Y0013091D03*
G54D14*
G01X0006020Y0013260D03*
G01X0006020Y0011260D03*
G54D15*
G01X0007579Y0017409D03*
G01X0007579Y0015835D03*
G54D16*
G01X0019501Y0013689D03*
G01X0018901Y0013689D03*
G01X0017326Y0013689D03*
G01X0017926Y0013689D03*
G01X0013125Y0010906D03*
G01X0013725Y0010906D03*
G01X0006893Y0007587D03*
G01X0007493Y0007587D03*
G01X0011027Y0006996D03*
G01X0011627Y0006996D03*
G01X0011027Y0009752D03*
G01X0011627Y0009752D03*
G01X0005318Y0004043D03*
G01X0005918Y0004043D03*
G01X0010043Y0015461D03*
G01X0010643Y0015461D03*
G01X0002965Y0005815D03*
G01X0002365Y0005815D03*
G01X0015578Y0005413D03*
G01X0016178Y0005413D03*
G01X0010854Y0006186D03*
G01X0010854Y0005586D03*
G01X0017087Y0009300D03*
G01X0017087Y0008700D03*
G01X0011641Y0006280D03*
G01X0012241Y0006280D03*
G01X0013149Y0010181D03*
G01X0013749Y0010181D03*
G01X0010197Y0006170D03*
G01X0010197Y0005570D03*
G01X0002960Y0014724D03*
G01X0003560Y0014724D03*
G54D17*
G01X0002984Y0008091D03*
G01X0004598Y0008091D03*
G54D18*
G01X0001646Y0011173D03*
G01X0001646Y0009559D03*
G54D19*
G01X0011927Y0010933D03*
G01X0010727Y0010933D03*
G01X0010727Y0012705D03*
G01X0011927Y0012705D03*
G01X0011927Y0014083D03*
G01X0010727Y0014083D03*
G01X0013089Y0012705D03*
G01X0014289Y0012705D03*
G01X0013089Y0014083D03*
G01X0014289Y0014083D03*
G01X0006301Y0014783D03*
G01X0005101Y0014783D03*
G54D20*
G01X0007039Y0019004D03*
G01X0007024Y0001772D03*
G01X0017110Y0019059D03*
G01X0017106Y0017677D03*
G01X0001256Y0004953D03*
G01X0019197Y0008575D03*
G01X0016110Y0016299D03*
G01X0017106Y0014913D03*
G54D21*
G01X0009555Y0011533D03*
G01X0009555Y0010333D03*
G01X0015606Y0017888D03*
G01X0015606Y0019088D03*
G01X0013886Y0016239D03*
G01X0013886Y0017439D03*
G01X0019398Y0006021D03*
G01X0019398Y0004821D03*
G01X0001681Y0002065D03*
G01X0001681Y0003265D03*
G54D22*
G01X0011819Y0007744D03*
G01X0009654Y0007744D03*
G01X0009654Y0009004D03*
G01X0011819Y0009004D03*
G54D23*
G01X0007587Y0006868D03*
G01X0007087Y0006868D03*
G01X0008087Y0006868D03*
G01X0008587Y0006868D03*
G01X0008587Y0004368D03*
G01X0008087Y0004368D03*
G01X0007587Y0004368D03*
G01X0007087Y0004368D03*
G54D24*
G01X0016051Y0014280D03*
G01X0015264Y0014280D03*
G01X0015657Y0015067D03*
G01X0015657Y0013098D03*
G01X0016445Y0013098D03*
G01X0016051Y0012311D03*
G54D25*
G01X0008083Y0012705D03*
G01X0007483Y0012705D03*
G01X0008083Y0011130D03*
G01X0007483Y0011130D03*
G01X0008083Y0009555D03*
G01X0007483Y0009555D03*
G54D26*
G01X0000500Y0020185D02*
G01X0000500Y0000500D01*
G01X0020185Y0020185D02*
G01X0000500Y0020185D01*
G01X0020185Y0000500D02*
G01X0020185Y0020185D01*
G01X0000500Y0000500D02*
G01X0020185Y0000500D01*
G54D27*
G01X0008283Y0012480D02*
G01X0008083Y0012705D01*
G01X0008313Y0012480D02*
G01X0008283Y0012480D01*
G01X0009288Y0011865D02*
G01X0008313Y0012480D01*
G01X0009330Y0011789D02*
G75*
G03X0009288Y0011865I-000090J0000000D01*
G01X0009330Y0011759D02*
G01X0009330Y0011789D01*
G01X0009555Y0011533D02*
G01X0009330Y0011759D01*
G01X0005357Y0014888D02*
G01X0005555Y0014888D01*
G01X0005327Y0014888D02*
G01X0005357Y0014888D01*
G01X0005101Y0014783D02*
G01X0005327Y0014888D01*
G01X0019291Y0004595D02*
G01X0019398Y0004821D01*
G01X0019291Y0004565D02*
G01X0019291Y0004595D01*
G01X0019291Y0004366D02*
G01X0019291Y0004565D01*
G01X0019075Y0005855D02*
G01X0017650Y0005736D01*
G01X0019083Y0005855D02*
G75*
G03X0019075Y0005855I0000000J-000090D01*
G01X0019113Y0005855D02*
G01X0019083Y0005855D01*
G01X0019398Y0006021D02*
G01X0019113Y0005855D01*
G01X0013324Y0008709D02*
G01X0013064Y0008709D01*
G01X0013354Y0008709D02*
G01X0013324Y0008709D01*
G01X0013403Y0008680D02*
G75*
G03X0013354Y0008709I-000048J-000026D01*
G01X0013551Y0008409D02*
G01X0013403Y0008680D01*
G01X0014034Y0009219D02*
G01X0014034Y0009479D01*
G01X0014034Y0009189D02*
G01X0014034Y0009219D01*
G01X0014035Y0009185D02*
G01X0014034Y0009189D01*
G01X0014050Y0008935D02*
G01X0014035Y0009185D01*
G01X0014050Y0008935D02*
G75*
G03X0014056Y0008889I0000348J0000022D01*
G01X0014129Y0008524D02*
G01X0014056Y0008889D01*
G01X0014124Y0008272D02*
G75*
G03X0014129Y0008524I-000572J0000137D01*
G01X0013863Y0007187D02*
G01X0014124Y0008272D01*
G01X0013816Y0007094D02*
G75*
G03X0013863Y0007187I-000175J0000147D01*
G01X0013423Y0006626D02*
G01X0013816Y0007094D01*
G01X0013409Y0006612D02*
G75*
G03X0013423Y0006626I-000054J0000072D01*
G01X0012976Y0006284D02*
G01X0013409Y0006612D01*
G01X0012976Y0006284D02*
G75*
G03X0012931Y0006238I0000138J-000182D01*
G01X0010554Y0003021D02*
G01X0012931Y0006238D01*
G01X0010554Y0003021D02*
G75*
G03X0010524Y0002963I0000169J-000125D01*
G01X0010409Y0002619D02*
G01X0010524Y0002963D01*
G01X0010387Y0002584D02*
G75*
G03X0010409Y0002619I-000064J0000064D01*
G01X0010212Y0002408D02*
G01X0010387Y0002584D01*
G01X0010200Y0002398D02*
G75*
G03X0010212Y0002408I-000053J0000073D01*
G01X0009847Y0002145D02*
G01X0010200Y0002398D01*
G01X0009847Y0002145D02*
G75*
G03X0009836Y0002135I0000053J-000073D01*
G01X0009660Y0001960D02*
G01X0009836Y0002135D01*
G01X0009660Y0001960D02*
G75*
G03X0009650Y0001948I0000064J-000064D01*
G01X0009397Y0001595D02*
G01X0009650Y0001948D01*
G01X0009387Y0001584D02*
G75*
G03X0009397Y0001595I-000064J0000064D01*
G01X0009212Y0001408D02*
G01X0009387Y0001584D01*
G01X0009148Y0001381D02*
G75*
G03X0009212Y0001408I0000000J0000090D01*
G01X0008899Y0001381D02*
G01X0009148Y0001381D01*
G01X0008836Y0001408D02*
G75*
G03X0008899Y0001381I0000064J0000064D01*
G01X0008660Y0001584D02*
G01X0008836Y0001408D01*
G01X0008642Y0001610D02*
G75*
G03X0008660Y0001584I0000082J0000038D01*
G01X0008230Y0002509D02*
G01X0008642Y0001610D01*
G01X0008230Y0002509D02*
G75*
G03X0008212Y0002535I-000082J-000038D01*
G01X0008212Y0002535D02*
G01X0008212Y0002535D01*
G01X0008190Y0002557D02*
G01X0008212Y0002535D01*
G01X0008024Y0002772D02*
G01X0008190Y0002557D01*
G01X0014234Y0009219D02*
G01X0014234Y0009479D01*
G01X0014234Y0009189D02*
G01X0014234Y0009219D01*
G01X0014231Y0009171D02*
G75*
G03X0014234Y0009189I-000052J0000018D01*
G01X0014183Y0009032D02*
G01X0014231Y0009171D01*
G01X0014183Y0009032D02*
G75*
G03X0014174Y0008912I0000215J-000076D01*
G01X0014246Y0008547D02*
G01X0014174Y0008912D01*
G01X0014240Y0008244D02*
G75*
G03X0014246Y0008547I-000689J0000165D01*
G01X0013980Y0007159D02*
G01X0014240Y0008244D01*
G01X0013908Y0007016D02*
G75*
G03X0013980Y0007159I-000267J0000224D01*
G01X0013516Y0006549D02*
G01X0013908Y0007016D01*
G01X0013511Y0006543D02*
G75*
G03X0013516Y0006549I-000156J0000141D01*
G01X0013114Y0006102D02*
G01X0013511Y0006543D01*
G01X0014425Y0009778D02*
G01X0014563Y0010626D01*
G01X0014425Y0009778D02*
G75*
G03X0014424Y0009769I0000054J-000009D01*
G01X0014424Y0009739D02*
G01X0014424Y0009769D01*
G01X0014424Y0009479D02*
G01X0014424Y0009739D01*
G01X0013940Y0011133D02*
G01X0014563Y0010626D01*
G01X0013940Y0011133D02*
G75*
G03X0013892Y0011153I-000057J-000070D01*
G01X0012192Y0011338D02*
G01X0013892Y0011153D01*
G01X0012192Y0011338D02*
G01X0012192Y0011338D01*
G01X0011004Y0011457D02*
G01X0012192Y0011338D01*
G01X0011004Y0011457D02*
G75*
G03X0010983Y0011458I-000021J-000209D01*
G01X0010471Y0011458D02*
G01X0010983Y0011458D01*
G01X0010471Y0011458D02*
G75*
G03X0010298Y0011367I0000000J-000210D01*
G01X0009796Y0010640D02*
G01X0010298Y0011367D01*
G01X0009796Y0010640D02*
G75*
G03X0009780Y0010589I0000074J-000051D01*
G01X0009780Y0010559D02*
G01X0009780Y0010589D01*
G01X0009555Y0010333D02*
G01X0009780Y0010559D01*
G01X0018040Y0011959D02*
G01X0014563Y0010626D01*
G01X0018073Y0011965D02*
G75*
G03X0018040Y0011959I0000000J-000090D01*
G01X0019321Y0011965D02*
G01X0018073Y0011965D01*
G01X0019385Y0011939D02*
G75*
G03X0019321Y0011965I-000064J-000064D01*
G01X0019561Y0011763D02*
G01X0019385Y0011939D01*
G01X0019587Y0011699D02*
G75*
G03X0019561Y0011763I-000090J0000000D01*
G01X0019587Y0010451D02*
G01X0019587Y0011699D01*
G01X0019561Y0010387D02*
G75*
G03X0019587Y0010451I-000064J0000064D01*
G01X0019385Y0010211D02*
G01X0019561Y0010387D01*
G01X0019350Y0010189D02*
G75*
G03X0019385Y0010211I-000029J0000086D01*
G01X0019006Y0010074D02*
G01X0019350Y0010189D01*
G01X0019006Y0010074D02*
G75*
G03X0018924Y0010024I0000067J-000200D01*
G01X0018748Y0009848D02*
G01X0018924Y0010024D01*
G01X0018748Y0009848D02*
G75*
G03X0018687Y0009716I0000149J-000149D01*
G01X0018587Y0008443D02*
G01X0018687Y0009716D01*
G01X0018578Y0008411D02*
G75*
G03X0018587Y0008443I-000081J0000040D01*
G01X0017337Y0005890D02*
G01X0018578Y0008411D01*
G01X0017337Y0005890D02*
G75*
G03X0017325Y0005862I0000312J-000154D01*
G01X0016232Y0003039D02*
G01X0017325Y0005862D01*
G01X0016212Y0003008D02*
G75*
G03X0016232Y0003039I-000064J0000063D01*
G01X0016212Y0003008D02*
G01X0016212Y0003008D01*
G01X0016190Y0002987D02*
G01X0016212Y0003008D01*
G01X0016024Y0002772D02*
G01X0016190Y0002987D01*
G01X0016644Y0008119D02*
G01X0016384Y0008119D01*
G01X0016674Y0008119D02*
G01X0016644Y0008119D01*
G01X0016674Y0008119D02*
G75*
G03X0016707Y0008130I0000000J0000055D01*
G01X0016948Y0008308D02*
G01X0016707Y0008130D01*
G01X0016644Y0007919D02*
G01X0016384Y0007919D01*
G01X0016674Y0007919D02*
G01X0016644Y0007919D01*
G01X0016674Y0007919D02*
G75*
G03X0016687Y0007920I0000000J0000055D01*
G01X0017235Y0008046D02*
G01X0016687Y0007920D01*
G01X0016644Y0007719D02*
G01X0016384Y0007719D01*
G01X0016674Y0007719D02*
G01X0016644Y0007719D01*
G01X0016694Y0007715D02*
G75*
G03X0016674Y0007719I-000019J-000052D01*
G01X0017092Y0007568D02*
G01X0016694Y0007715D01*
G01X0016644Y0007519D02*
G01X0016384Y0007519D01*
G01X0016674Y0007519D02*
G01X0016644Y0007519D01*
G01X0016699Y0007513D02*
G75*
G03X0016674Y0007519I-000025J-000049D01*
G01X0016988Y0007365D02*
G01X0016699Y0007513D01*
G01X0016988Y0007365D02*
G75*
G03X0017245Y0007399I0000104J0000203D01*
G01X0017789Y0007890D02*
G01X0017245Y0007399D01*
G01X0014882Y0002383D02*
G01X0014587Y0002441D01*
G01X0014882Y0002383D02*
G75*
G03X0014899Y0002381I0000017J0000089D01*
G01X0016148Y0002381D02*
G01X0014899Y0002381D01*
G01X0016148Y0002381D02*
G75*
G03X0016212Y0002408I0000000J0000090D01*
G01X0016387Y0002584D02*
G01X0016212Y0002408D01*
G01X0016387Y0002584D02*
G75*
G03X0016409Y0002620I-000064J0000064D01*
G01X0017433Y0005806D02*
G01X0016409Y0002620D01*
G01X0017445Y0005837D02*
G75*
G03X0017433Y0005806I0000205J-000101D01*
G01X0018686Y0008358D02*
G01X0017445Y0005837D01*
G01X0018686Y0008358D02*
G75*
G03X0018707Y0008434I-000189J0000093D01*
G01X0018807Y0009706D02*
G01X0018707Y0008434D01*
G01X0018833Y0009763D02*
G75*
G03X0018807Y0009706I0000064J-000064D01*
G01X0019009Y0009939D02*
G01X0018833Y0009763D01*
G01X0019044Y0009960D02*
G75*
G03X0019009Y0009939I0000029J-000086D01*
G01X0019388Y0010075D02*
G01X0019044Y0009960D01*
G01X0019388Y0010075D02*
G75*
G03X0019470Y0010126I-000067J0000200D01*
G01X0019646Y0010302D02*
G01X0019470Y0010126D01*
G01X0019646Y0010302D02*
G75*
G03X0019707Y0010448I-000149J0000149D01*
G01X0019748Y0013530D02*
G01X0019707Y0010448D01*
G01X0019748Y0013531D02*
G01X0019748Y0013530D01*
G01X0019748Y0013846D02*
G01X0019748Y0013531D01*
G01X0019748Y0013846D02*
G75*
G03X0019747Y0013864I-000090J0000000D01*
G01X0019323Y0016017D02*
G01X0019747Y0013864D01*
G01X0019323Y0016017D02*
G75*
G03X0019299Y0016063I-000089J-000017D01*
G01X0019298Y0016063D02*
G01X0019299Y0016063D01*
G01X0019277Y0016084D02*
G01X0019298Y0016063D01*
G01X0019110Y0016299D02*
G01X0019277Y0016084D01*
G01X0014216Y0002013D02*
G01X0014587Y0002441D01*
G01X0014213Y0002009D02*
G75*
G03X0014216Y0002013I-000065J0000062D01*
G01X0014211Y0002008D02*
G01X0014213Y0002009D01*
G01X0014190Y0001987D02*
G01X0014211Y0002008D01*
G01X0014024Y0001772D02*
G01X0014190Y0001987D01*
G01X0014424Y0005899D02*
G01X0014424Y0006159D01*
G01X0014424Y0005869D02*
G01X0014424Y0005899D01*
G01X0014423Y0005856D02*
G75*
G03X0014424Y0005869I-000054J0000012D01*
G01X0014098Y0004461D02*
G01X0014423Y0005856D01*
G01X0014098Y0004461D02*
G75*
G03X0014100Y0004293I0000339J-000079D01*
G01X0014587Y0002441D02*
G01X0014100Y0004293D01*
G01X0014234Y0005899D02*
G01X0014234Y0006159D01*
G01X0014234Y0005869D02*
G01X0014234Y0005899D01*
G01X0014233Y0005857D02*
G75*
G03X0014234Y0005869I-000054J0000012D01*
G01X0013529Y0002603D02*
G01X0014233Y0005857D01*
G01X0013508Y0002546D02*
G75*
G03X0013529Y0002603I-000184J0000102D01*
G01X0013211Y0002008D02*
G01X0013508Y0002546D01*
G01X0013190Y0001987D02*
G01X0013211Y0002008D01*
G01X0013024Y0001772D02*
G01X0013190Y0001987D01*
G01X0014234Y0006419D02*
G01X0014234Y0006159D01*
G01X0014234Y0006449D02*
G01X0014234Y0006419D01*
G01X0014241Y0006475D02*
G75*
G03X0014234Y0006449I0000048J-000027D01*
G01X0015143Y0008108D02*
G01X0014241Y0006475D01*
G01X0013619Y0005959D02*
G01X0013644Y0006159D01*
G01X0013589Y0005959D02*
G01X0013619Y0005959D01*
G01X0013589Y0005959D02*
G75*
G03X0013524Y0005931I0000000J-000090D01*
G01X0010659Y0002959D02*
G01X0013524Y0005931D01*
G01X0010659Y0002959D02*
G75*
G03X0010638Y0002924I0000065J-000063D01*
G01X0010523Y0002581D02*
G01X0010638Y0002924D01*
G01X0010508Y0002546D02*
G75*
G03X0010523Y0002581I-000184J0000102D01*
G01X0010211Y0002008D02*
G01X0010508Y0002546D01*
G01X0010190Y0001987D02*
G01X0010211Y0002008D01*
G01X0010024Y0001772D02*
G01X0010190Y0001987D01*
G01X0012865Y0006714D02*
G01X0013064Y0006739D01*
G01X0012865Y0006684D02*
G01X0012865Y0006714D01*
G01X0012857Y0006648D02*
G75*
G03X0012865Y0006684I-000083J0000036D01*
G01X0012591Y0006038D02*
G01X0012857Y0006648D01*
G01X0012550Y0005976D02*
G75*
G03X0012591Y0006038I-000152J0000146D01*
G01X0009659Y0002958D02*
G01X0012550Y0005976D01*
G01X0009659Y0002958D02*
G75*
G03X0009642Y0002934I0000065J-000062D01*
G01X0009211Y0002008D02*
G01X0009642Y0002934D01*
G01X0009190Y0001987D02*
G01X0009211Y0002008D01*
G01X0009024Y0001772D02*
G01X0009190Y0001987D01*
G01X0013324Y0007919D02*
G01X0013064Y0007919D01*
G01X0013354Y0007919D02*
G01X0013324Y0007919D01*
G01X0013354Y0007919D02*
G75*
G03X0013393Y0007935I0000000J0000055D01*
G01X0013711Y0008247D02*
G01X0013393Y0007935D01*
G01X0013711Y0008247D02*
G75*
G03X0013741Y0008536I-000160J0000163D01*
G01X0013429Y0009004D02*
G01X0013741Y0008536D01*
G01X0013429Y0009004D02*
G75*
G03X0013406Y0009028I-000075J-000050D01*
G01X0011034Y0010692D02*
G01X0013406Y0009028D01*
G01X0011034Y0010692D02*
G75*
G03X0010983Y0010708I-000052J-000074D01*
G01X0010953Y0010708D02*
G01X0010983Y0010708D01*
G01X0010727Y0010933D02*
G01X0010953Y0010708D01*
G01X0015891Y0018922D02*
G01X0015606Y0019088D01*
G01X0015921Y0018922D02*
G01X0015891Y0018922D01*
G01X0015947Y0018919D02*
G75*
G03X0015921Y0018922I-000025J-000086D01*
G01X0016785Y0018673D02*
G01X0015947Y0018919D01*
G01X0016785Y0018673D02*
G75*
G03X0016810Y0018669I0000025J0000087D01*
G01X0017410Y0018669D02*
G01X0016810Y0018669D01*
G01X0017410Y0018669D02*
G01X0017410Y0018669D01*
G01X0017986Y0018669D02*
G01X0017410Y0018669D01*
G01X0017986Y0018669D02*
G75*
G03X0018076Y0018759I0000000J0000090D01*
G01X0018076Y0018789D02*
G01X0018076Y0018759D01*
G01X0018110Y0019059D02*
G01X0018076Y0018789D01*
G01X0014624Y0006419D02*
G01X0014624Y0006159D01*
G01X0014624Y0006449D02*
G01X0014624Y0006419D01*
G01X0014631Y0006474D02*
G75*
G03X0014624Y0006449I0000049J-000025D01*
G01X0014970Y0007129D02*
G01X0014631Y0006474D01*
G01X0014976Y0007140D02*
G75*
G03X0014970Y0007129I0000410J-000226D01*
G01X0015244Y0007626D02*
G01X0014976Y0007140D01*
G01X0014171Y0016404D02*
G01X0013886Y0016239D01*
G01X0014201Y0016404D02*
G01X0014171Y0016404D01*
G01X0014201Y0016404D02*
G75*
G03X0014224Y0016407I0000000J0000090D01*
G01X0015751Y0016818D02*
G01X0014224Y0016407D01*
G01X0015764Y0016821D02*
G75*
G03X0015751Y0016818I0000046J-000222D01*
G01X0018001Y0017289D02*
G01X0015764Y0016821D01*
G01X0018001Y0017289D02*
G75*
G03X0018072Y0017377I-000018J0000088D01*
G01X0018072Y0017407D02*
G01X0018072Y0017377D01*
G01X0018106Y0017677D02*
G01X0018072Y0017407D01*
G01X0013787Y0015983D02*
G01X0013787Y0015783D01*
G01X0013787Y0016013D02*
G01X0013787Y0015983D01*
G01X0013886Y0016239D02*
G01X0013787Y0016013D01*
G01X0014824Y0006419D02*
G01X0014824Y0006159D01*
G01X0014824Y0006449D02*
G01X0014824Y0006419D01*
G01X0014829Y0006470D02*
G75*
G03X0014824Y0006449I0000051J-000021D01*
G01X0015064Y0007045D02*
G01X0014829Y0006470D01*
G01X0015124Y0007143D02*
G75*
G03X0015064Y0007045I0000262J-000229D01*
G01X0015416Y0007476D02*
G01X0015124Y0007143D01*
G01X0015416Y0007476D02*
G75*
G03X0015467Y0007673I-000171J0000150D01*
G01X0015366Y0008155D02*
G01X0015467Y0007673D01*
G01X0015365Y0008158D02*
G01X0015366Y0008155D01*
G01X0015266Y0008602D02*
G01X0015365Y0008158D01*
G01X0007136Y0004038D02*
G01X0007136Y0003587D01*
G01X0007136Y0004068D02*
G01X0007136Y0004038D01*
G01X0007087Y0004368D02*
G01X0007136Y0004068D01*
G01X0015414Y0005899D02*
G01X0015414Y0006159D01*
G01X0015414Y0005869D02*
G01X0015414Y0005899D01*
G01X0015407Y0005842D02*
G75*
G03X0015414Y0005869I-000048J0000027D01*
G01X0015174Y0005434D02*
G01X0015407Y0005842D01*
G01X0015163Y0005416D02*
G75*
G03X0015174Y0005434I-000187J0000131D01*
G01X0014437Y0004382D02*
G01X0015163Y0005416D01*
G01X0015132Y0005735D02*
G01X0014976Y0005547D01*
G01X0015132Y0005735D02*
G75*
G03X0015141Y0005748I-000162J0000134D01*
G01X0015204Y0005837D02*
G01X0015141Y0005748D01*
G01X0015204Y0005837D02*
G75*
G03X0015214Y0005869I-000045J0000032D01*
G01X0015214Y0005899D02*
G01X0015214Y0005869D01*
G01X0015214Y0006159D02*
G01X0015214Y0005899D01*
G01X0007661Y0004012D02*
G01X0007759Y0003691D01*
G01X0007657Y0004038D02*
G75*
G03X0007661Y0004012I0000090J0000000D01*
G01X0007657Y0004068D02*
G01X0007657Y0004038D01*
G01X0007587Y0004368D02*
G01X0007657Y0004068D01*
G01X0008180Y0003977D02*
G01X0008413Y0003723D01*
G01X0008157Y0004038D02*
G75*
G03X0008180Y0003977I0000090J0000000D01*
G01X0008157Y0004068D02*
G01X0008157Y0004038D01*
G01X0008087Y0004368D02*
G01X0008157Y0004068D01*
G01X0015024Y0005899D02*
G01X0015024Y0006159D01*
G01X0015024Y0005869D02*
G01X0015024Y0005899D01*
G01X0014997Y0005821D02*
G75*
G03X0015024Y0005869I-000027J0000048D01*
G01X0014864Y0005745D02*
G01X0014997Y0005821D01*
G01X0014864Y0005745D02*
G75*
G03X0014769Y0005643I0000113J-000198D01*
G01X0014230Y0004478D02*
G01X0014769Y0005643D01*
G01X0014230Y0004478D02*
G75*
G03X0014224Y0004300I0000207J-000096D01*
G01X0014470Y0003664D02*
G01X0014224Y0004300D01*
G01X0014470Y0003664D02*
G75*
G03X0014483Y0003636I0000213J0000082D01*
G01X0014820Y0003028D02*
G01X0014483Y0003636D01*
G01X0014820Y0003028D02*
G75*
G03X0014835Y0003008I0000079J0000044D01*
G01X0014836Y0003008D02*
G01X0014835Y0003008D01*
G01X0014857Y0002987D02*
G01X0014836Y0003008D01*
G01X0015024Y0002772D02*
G01X0014857Y0002987D01*
G01X0016124Y0008309D02*
G01X0016384Y0008309D01*
G01X0016094Y0008309D02*
G01X0016124Y0008309D01*
G01X0016094Y0008309D02*
G75*
G03X0016082Y0008308I0000000J-000055D01*
G01X0015845Y0008253D02*
G01X0016082Y0008308D01*
G01X0012804Y0006929D02*
G01X0013064Y0006929D01*
G01X0012774Y0006929D02*
G01X0012804Y0006929D01*
G01X0012774Y0006929D02*
G75*
G03X0012725Y0006898I0000000J-000055D01*
G01X0012693Y0006834D02*
G01X0012725Y0006898D01*
G01X0012693Y0006834D02*
G75*
G03X0012688Y0006818I0000081J-000040D01*
G01X0012485Y0006098D02*
G01X0012688Y0006818D01*
G01X0012447Y0006046D02*
G75*
G03X0012485Y0006098I-000049J0000076D01*
G01X0008536Y0003531D02*
G01X0012447Y0006046D01*
G01X0008524Y0003524D02*
G75*
G03X0008536Y0003531I-000111J0000199D01*
G01X0007855Y0003150D02*
G01X0008524Y0003524D01*
G01X0007855Y0003150D02*
G75*
G03X0007836Y0003135I0000044J-000079D01*
G01X0007660Y0002960D02*
G01X0007836Y0003135D01*
G01X0007660Y0002960D02*
G75*
G03X0007633Y0002896I0000064J-000064D01*
G01X0007633Y0002647D02*
G01X0007633Y0002896D01*
G01X0007633Y0002647D02*
G75*
G03X0007637Y0002621I0000090J0000000D01*
G01X0007813Y0002045D02*
G01X0007637Y0002621D01*
G01X0007813Y0002045D02*
G75*
G03X0007835Y0002008I0000086J0000026D01*
G01X0007836Y0002008D02*
G01X0007835Y0002008D01*
G01X0007857Y0001987D02*
G01X0007836Y0002008D01*
G01X0008024Y0001772D02*
G01X0007857Y0001987D01*
G01X0012824Y0009029D02*
G01X0011984Y0009579D01*
G01X0012865Y0008954D02*
G75*
G03X0012824Y0009029I-000090J0000000D01*
G01X0012865Y0008924D02*
G01X0012865Y0008954D01*
G01X0013064Y0008899D02*
G01X0012865Y0008924D01*
G01X0007639Y0010764D02*
G01X0008031Y0010189D01*
G01X0007623Y0010815D02*
G75*
G03X0007639Y0010764I0000090J0000000D01*
G01X0007623Y0010845D02*
G01X0007623Y0010815D01*
G01X0007483Y0011130D02*
G01X0007623Y0010845D01*
G01X0013375Y0007133D02*
G01X0013642Y0007240D01*
G01X0013354Y0007129D02*
G75*
G03X0013375Y0007133I0000000J0000055D01*
G01X0013324Y0007129D02*
G01X0013354Y0007129D01*
G01X0013064Y0007129D02*
G01X0013324Y0007129D01*
G01X0012910Y0010817D02*
G01X0012717Y0010657D01*
G01X0012968Y0010838D02*
G75*
G03X0012910Y0010817I0000000J-000090D01*
G01X0012998Y0010838D02*
G01X0012968Y0010838D01*
G01X0013125Y0010906D02*
G01X0012998Y0010838D01*
G01X0012153Y0010708D02*
G01X0011927Y0010933D01*
G01X0012183Y0010708D02*
G01X0012153Y0010708D01*
G01X0012191Y0010708D02*
G75*
G03X0012183Y0010708I-000009J-000090D01*
G01X0012717Y0010657D02*
G01X0012191Y0010708D01*
G01X0006459Y0010560D02*
G01X0006456Y0010561D01*
G01X0006459Y0010560D02*
G75*
G03X0006715Y0010735I0000053J0000198D01*
G01X0006737Y0010929D02*
G01X0006715Y0010735D01*
G01X0006737Y0010929D02*
G75*
G03X0006739Y0010950I-000225J0000026D01*
G01X0006762Y0012150D02*
G01X0006739Y0010950D01*
G01X0006762Y0012150D02*
G75*
G03X0006762Y0012156I-000306J0000006D01*
G01X0006762Y0012529D02*
G01X0006762Y0012156D01*
G01X0006762Y0012529D02*
G75*
G03X0006762Y0012539I-000306J0000000D01*
G01X0006742Y0013141D02*
G01X0006762Y0012539D01*
G01X0006742Y0013162D02*
G75*
G03X0006742Y0013141I0000365J-000009D01*
G01X0006762Y0013983D02*
G01X0006742Y0013162D01*
G01X0006762Y0013983D02*
G75*
G03X0006659Y0014219I-000306J0000007D01*
G01X0006617Y0014256D02*
G01X0006659Y0014219D01*
G01X0006617Y0014256D02*
G75*
G03X0006516Y0014310I-000161J-000182D01*
G01X0006516Y0014310D02*
G01X0006516Y0014310D01*
G01X0006438Y0014355D02*
G75*
G03X0006516Y0014310I0000118J0000113D01*
G01X0006330Y0014469D02*
G01X0006438Y0014355D01*
G01X0006330Y0014499D02*
G01X0006330Y0014469D01*
G01X0006301Y0014783D02*
G01X0006330Y0014499D01*
G01X0007253Y0009643D02*
G01X0006456Y0009643D01*
G01X0007283Y0009643D02*
G01X0007253Y0009643D01*
G01X0007483Y0009555D02*
G01X0007283Y0009643D01*
G01X0004861Y0002887D02*
G01X0005264Y0002915D01*
G01X0004831Y0002887D02*
G01X0004861Y0002887D01*
G01X0004831Y0002887D02*
G75*
G03X0004798Y0002881I0000000J-000090D01*
G01X0003682Y0002450D02*
G01X0004798Y0002881D01*
G01X0003650Y0002443D02*
G75*
G03X0003682Y0002450I0000000J0000090D01*
G01X0003620Y0002443D02*
G01X0003650Y0002443D01*
G01X0003217Y0002415D02*
G01X0003620Y0002443D01*
G01X0002813Y0002387D02*
G01X0003217Y0002415D01*
G01X0002783Y0002387D02*
G01X0002813Y0002387D01*
G01X0002783Y0002387D02*
G75*
G03X0002766Y0002385I0000000J-000090D01*
G01X0002014Y0002233D02*
G01X0002766Y0002385D01*
G01X0001996Y0002231D02*
G75*
G03X0002014Y0002233I0000000J0000090D01*
G01X0001966Y0002231D02*
G01X0001996Y0002231D01*
G01X0001681Y0002065D02*
G01X0001966Y0002231D01*
G01X0003656Y0003387D02*
G01X0003850Y0003374D01*
G01X0003656Y0003387D02*
G75*
G03X0003650Y0003387I-000006J-000090D01*
G01X0003620Y0003387D02*
G01X0003650Y0003387D01*
G01X0003217Y0003415D02*
G01X0003620Y0003387D01*
G01X0016426Y0006714D02*
G01X0016384Y0006739D01*
G01X0016426Y0006684D02*
G01X0016426Y0006714D01*
G01X0016426Y0005256D02*
G01X0016426Y0006684D01*
G01X0016383Y0005179D02*
G75*
G03X0016426Y0005256I-000047J0000077D01*
G01X0014626Y0004102D02*
G01X0016383Y0005179D01*
G01X0005707Y0002387D02*
G01X0005921Y0002362D01*
G01X0005707Y0002387D02*
G75*
G03X0005697Y0002387I-000010J-000090D01*
G01X0005667Y0002387D02*
G01X0005697Y0002387D01*
G01X0005264Y0002415D02*
G01X0005667Y0002387D01*
G01X0016644Y0006929D02*
G01X0016384Y0006929D01*
G01X0016674Y0006929D02*
G01X0016644Y0006929D01*
G01X0016724Y0006898D02*
G75*
G03X0016674Y0006929I-000049J-000024D01*
G01X0016755Y0006834D02*
G01X0016724Y0006898D01*
G01X0016765Y0006794D02*
G75*
G03X0016755Y0006834I-000090J0000000D01*
G01X0016765Y0006684D02*
G01X0016765Y0006794D01*
G01X0016764Y0006670D02*
G75*
G03X0016765Y0006684I-000089J0000014D01*
G01X0016543Y0005224D02*
G01X0016764Y0006670D01*
G01X0016462Y0005088D02*
G75*
G03X0016543Y0005224I-000127J0000168D01*
G01X0014683Y0003747D02*
G01X0016462Y0005088D01*
G01X0012809Y0002605D02*
G01X0013024Y0002772D01*
G01X0012787Y0002584D02*
G01X0012809Y0002605D01*
G01X0012787Y0002583D02*
G01X0012787Y0002584D01*
G01X0012761Y0002565D02*
G75*
G03X0012787Y0002583I-000038J0000082D01*
G01X0011862Y0002154D02*
G01X0012761Y0002565D01*
G01X0011862Y0002154D02*
G75*
G03X0011836Y0002135I0000038J-000082D01*
G01X0011660Y0001960D02*
G01X0011836Y0002135D01*
G01X0011660Y0001960D02*
G75*
G03X0011650Y0001948I0000064J-000064D01*
G01X0011397Y0001595D02*
G01X0011650Y0001948D01*
G01X0011387Y0001584D02*
G75*
G03X0011397Y0001595I-000064J0000064D01*
G01X0011212Y0001408D02*
G01X0011387Y0001584D01*
G01X0011153Y0001382D02*
G75*
G03X0011212Y0001408I-000005J0000090D01*
G01X0009161Y0001262D02*
G01X0011153Y0001382D01*
G01X0009148Y0001261D02*
G75*
G03X0009161Y0001262I0000000J0000210D01*
G01X0008899Y0001261D02*
G01X0009148Y0001261D01*
G01X0008874Y0001263D02*
G75*
G03X0008899Y0001261I0000025J0000209D01*
G01X0007889Y0001382D02*
G01X0008874Y0001263D01*
G01X0007836Y0001408D02*
G75*
G03X0007889Y0001382I0000064J0000064D01*
G01X0007660Y0001584D02*
G01X0007836Y0001408D01*
G01X0007642Y0001609D02*
G75*
G03X0007660Y0001584I0000082J0000039D01*
G01X0007405Y0002110D02*
G01X0007642Y0001609D01*
G01X0007405Y0002110D02*
G75*
G03X0007362Y0002153I-000082J-000039D01*
G01X0006861Y0002390D02*
G01X0007362Y0002153D01*
G01X0006850Y0002396D02*
G75*
G03X0006861Y0002390I0000049J0000076D01*
G01X0005746Y0003109D02*
G01X0006850Y0002396D01*
G01X0005746Y0003109D02*
G75*
G03X0005697Y0003124I-000049J-000076D01*
G01X0004831Y0003124D02*
G01X0005697Y0003124D01*
G01X0004831Y0003124D02*
G75*
G03X0004817Y0003123I0000000J-000090D01*
G01X0003663Y0002944D02*
G01X0004817Y0003123D01*
G01X0003650Y0002943D02*
G75*
G03X0003663Y0002944I0000000J0000090D01*
G01X0003620Y0002943D02*
G01X0003650Y0002943D01*
G01X0003217Y0002915D02*
G01X0003620Y0002943D01*
G01X0016124Y0007129D02*
G01X0016384Y0007129D01*
G01X0016094Y0007129D02*
G01X0016124Y0007129D01*
G01X0016094Y0007129D02*
G75*
G03X0016056Y0007113I0000000J-000055D01*
G01X0015677Y0006744D02*
G01X0016056Y0007113D01*
G01X0013857Y0002557D02*
G01X0014024Y0002772D01*
G01X0013836Y0002535D02*
G01X0013857Y0002557D01*
G01X0013835Y0002535D02*
G01X0013836Y0002535D01*
G01X0013835Y0002535D02*
G75*
G03X0013817Y0002509I0000064J-000063D01*
G01X0013406Y0001610D02*
G01X0013817Y0002509D01*
G01X0013387Y0001584D02*
G75*
G03X0013406Y0001610I-000064J0000064D01*
G01X0013212Y0001408D02*
G01X0013387Y0001584D01*
G01X0013153Y0001382D02*
G75*
G03X0013212Y0001408I-000005J0000090D01*
G01X0009168Y0001142D02*
G01X0013153Y0001382D01*
G01X0009148Y0001141D02*
G75*
G03X0009168Y0001142I0000000J0000331D01*
G01X0008899Y0001141D02*
G01X0009148Y0001141D01*
G01X0008863Y0001143D02*
G75*
G03X0008899Y0001141I0000037J0000329D01*
G01X0006714Y0001382D02*
G01X0008863Y0001143D01*
G01X0006696Y0001386D02*
G75*
G03X0006714Y0001382I0000027J0000086D01*
G01X0005670Y0001711D02*
G01X0006696Y0001386D01*
G01X0005607Y0001797D02*
G75*
G03X0005670Y0001711I0000090J0000000D01*
G01X0005607Y0001827D02*
G01X0005607Y0001797D01*
G01X0005264Y0001915D02*
G01X0005607Y0001827D01*
G01X0016644Y0007329D02*
G01X0016384Y0007329D01*
G01X0016674Y0007329D02*
G01X0016644Y0007329D01*
G01X0016725Y0007295D02*
G75*
G03X0016674Y0007329I-000051J-000021D01*
G01X0016757Y0007219D02*
G01X0016725Y0007295D01*
G01X0016758Y0007219D02*
G01X0016757Y0007219D01*
G01X0016868Y0006955D02*
G01X0016758Y0007219D01*
G01X0016885Y0006874D02*
G75*
G03X0016868Y0006955I-000210J0000000D01*
G01X0016885Y0006684D02*
G01X0016885Y0006874D01*
G01X0016882Y0006652D02*
G75*
G03X0016885Y0006684I-000208J0000032D01*
G01X0016662Y0005206D02*
G01X0016882Y0006652D01*
G01X0016565Y0005018D02*
G75*
G03X0016662Y0005206I-000230J0000238D01*
G01X0014889Y0003400D02*
G01X0016565Y0005018D01*
G01X0015214Y0009739D02*
G01X0015214Y0009479D01*
G01X0015214Y0009769D02*
G01X0015214Y0009739D01*
G01X0015227Y0009804D02*
G75*
G03X0015214Y0009769I0000043J-000035D01*
G01X0015306Y0009901D02*
G01X0015227Y0009804D01*
G01X0015343Y0009937D02*
G75*
G03X0015306Y0009901I0000126J-000168D01*
G01X0015471Y0010033D02*
G01X0015343Y0009937D01*
G01X0015602Y0010093D02*
G75*
G03X0015471Y0010033I0000068J-000324D01*
G01X0015959Y0010167D02*
G01X0015602Y0010093D01*
G01X0016054Y0010177D02*
G75*
G03X0015959Y0010167I0000002J-000468D01*
G01X0018321Y0010185D02*
G01X0016054Y0010177D01*
G01X0018321Y0010185D02*
G75*
G03X0018385Y0010211I0000000J0000090D01*
G01X0018561Y0010387D02*
G01X0018385Y0010211D01*
G01X0018561Y0010387D02*
G75*
G03X0018579Y0010413I-000064J0000064D01*
G01X0018991Y0011312D02*
G01X0018579Y0010413D01*
G01X0019009Y0011338D02*
G75*
G03X0018991Y0011312I0000064J-000063D01*
G01X0019009Y0011339D02*
G01X0019009Y0011338D01*
G01X0019030Y0011360D02*
G01X0019009Y0011339D01*
G01X0019197Y0011575D02*
G01X0019030Y0011360D01*
G01X0015024Y0009739D02*
G01X0015024Y0009479D01*
G01X0015024Y0009769D02*
G01X0015024Y0009739D01*
G01X0015034Y0009801D02*
G75*
G03X0015024Y0009769I0000045J-000032D01*
G01X0015097Y0009890D02*
G01X0015034Y0009801D01*
G01X0015143Y0009937D02*
G75*
G03X0015097Y0009890I0000126J-000168D01*
G01X0015399Y0010129D02*
G01X0015143Y0009937D01*
G01X0015577Y0010210D02*
G75*
G03X0015399Y0010129I0000092J-000441D01*
G01X0015935Y0010285D02*
G01X0015577Y0010210D01*
G01X0016035Y0010297D02*
G75*
G03X0015935Y0010285I0000020J-000588D01*
G01X0017900Y0010360D02*
G01X0016035Y0010297D01*
G01X0017900Y0010360D02*
G75*
G03X0017960Y0010386I-000003J0000090D01*
G01X0017961Y0010387D02*
G01X0017960Y0010386D01*
G01X0017982Y0010408D02*
G01X0017961Y0010387D01*
G01X0018197Y0010575D02*
G01X0017982Y0010408D01*
G01X0015414Y0009739D02*
G01X0015414Y0009479D01*
G01X0015414Y0009769D02*
G01X0015414Y0009739D01*
G01X0015427Y0009804D02*
G75*
G03X0015414Y0009769I0000043J-000035D01*
G01X0015506Y0009901D02*
G01X0015427Y0009804D01*
G01X0015626Y0009975D02*
G75*
G03X0015506Y0009901I0000043J-000206D01*
G01X0015984Y0010049D02*
G01X0015626Y0009975D01*
G01X0016054Y0010057D02*
G75*
G03X0015984Y0010049I0000001J-000348D01*
G01X0018322Y0010064D02*
G01X0016054Y0010057D01*
G01X0018322Y0010064D02*
G75*
G03X0018421Y0010090I-000001J0000210D01*
G01X0018940Y0010371D02*
G01X0018421Y0010090D01*
G01X0018940Y0010371D02*
G75*
G03X0018960Y0010386I-000043J0000079D01*
G01X0018961Y0010387D02*
G01X0018960Y0010386D01*
G01X0018982Y0010408D02*
G01X0018961Y0010387D01*
G01X0019197Y0010575D02*
G01X0018982Y0010408D01*
G01X0004072Y0005151D02*
G01X0004256Y0004953D01*
G01X0004051Y0005172D02*
G01X0004072Y0005151D01*
G01X0003187Y0006036D02*
G01X0004051Y0005172D01*
G01X0003187Y0006036D02*
G75*
G03X0003123Y0006063I-000064J-000064D01*
G01X0002808Y0006063D02*
G01X0003123Y0006063D01*
G01X0002808Y0006063D02*
G75*
G03X0002751Y0006042I0000000J-000090D01*
G01X0002580Y0005903D02*
G01X0002751Y0006042D01*
G01X0002523Y0005882D02*
G75*
G03X0002580Y0005903I0000000J0000090D01*
G01X0002493Y0005882D02*
G01X0002523Y0005882D01*
G01X0002365Y0005815D02*
G01X0002493Y0005882D01*
G01X0016124Y0008509D02*
G01X0016384Y0008509D01*
G01X0016094Y0008509D02*
G01X0016124Y0008509D01*
G01X0016094Y0008509D02*
G75*
G03X0016089Y0008509I0000000J-000055D01*
G01X0015821Y0008480D02*
G01X0016089Y0008509D01*
G01X0015821Y0008480D02*
G75*
G03X0015620Y0008216I0000024J-000227D01*
G01X0015706Y0007703D02*
G01X0015620Y0008216D01*
G01X0015654Y0007400D02*
G75*
G03X0015706Y0007703I-000410J0000226D01*
G01X0015386Y0006913D02*
G01X0015654Y0007400D01*
G01X0015829Y0009679D02*
G01X0015804Y0009479D01*
G01X0015859Y0009679D02*
G01X0015829Y0009679D01*
G01X0015859Y0009679D02*
G75*
G03X0015873Y0009680I0000000J0000090D01*
G01X0016055Y0009709D02*
G01X0015873Y0009680D01*
G01X0012804Y0007719D02*
G01X0013064Y0007719D01*
G01X0012774Y0007719D02*
G01X0012804Y0007719D01*
G01X0012762Y0007720D02*
G75*
G03X0012774Y0007719I0000013J0000054D01*
G01X0012276Y0007835D02*
G01X0012762Y0007720D01*
G01X0014624Y0009739D02*
G01X0014624Y0009479D01*
G01X0014624Y0009769D02*
G01X0014624Y0009739D01*
G01X0014637Y0009804D02*
G75*
G03X0014624Y0009769I0000043J-000035D01*
G01X0014716Y0009901D02*
G01X0014637Y0009804D01*
G01X0014750Y0009935D02*
G75*
G03X0014716Y0009901I0000130J-000166D01*
G01X0014992Y0010124D02*
G01X0014750Y0009935D01*
G01X0014999Y0010129D02*
G75*
G03X0014992Y0010124I0000271J-000360D01*
G01X0015254Y0010321D02*
G01X0014999Y0010129D01*
G01X0015381Y0010397D02*
G75*
G03X0015254Y0010321I0000288J-000628D01*
G01X0017859Y0011533D02*
G01X0015381Y0010397D01*
G01X0017897Y0011541D02*
G75*
G03X0017859Y0011533I0000000J-000090D01*
G01X0017927Y0011541D02*
G01X0017897Y0011541D01*
G01X0018197Y0011575D02*
G01X0017927Y0011541D01*
G01X0014824Y0009739D02*
G01X0014824Y0009479D01*
G01X0014824Y0009769D02*
G01X0014824Y0009739D01*
G01X0014837Y0009804D02*
G75*
G03X0014824Y0009769I0000043J-000035D01*
G01X0014916Y0009901D02*
G01X0014837Y0009804D01*
G01X0014946Y0009932D02*
G75*
G03X0014916Y0009901I0000133J-000163D01*
G01X0015060Y0010025D02*
G01X0014946Y0009932D01*
G01X0015071Y0010033D02*
G75*
G03X0015060Y0010025I0000199J-000264D01*
G01X0015326Y0010225D02*
G01X0015071Y0010033D01*
G01X0015553Y0010328D02*
G75*
G03X0015326Y0010225I0000117J-000559D01*
G01X0015910Y0010402D02*
G01X0015553Y0010328D01*
G01X0015968Y0010412D02*
G75*
G03X0015910Y0010402I0000087J-000703D01*
G01X0017553Y0010608D02*
G01X0015968Y0010412D01*
G01X0015614Y0009739D02*
G01X0015614Y0009479D01*
G01X0015614Y0009769D02*
G01X0015614Y0009739D01*
G01X0015645Y0009818D02*
G75*
G03X0015614Y0009769I0000024J-000049D01*
G01X0015710Y0009850D02*
G01X0015645Y0009818D01*
G01X0015726Y0009856D02*
G75*
G03X0015710Y0009850I0000024J-000087D01*
G01X0015996Y0009929D02*
G01X0015726Y0009856D01*
G01X0016096Y0009933D02*
G75*
G03X0015996Y0009929I-000041J-000224D01*
G01X0017881Y0009610D02*
G01X0016096Y0009933D01*
G01X0017881Y0009610D02*
G75*
G03X0017897Y0009609I0000016J0000089D01*
G01X0017927Y0009609D02*
G01X0017897Y0009609D01*
G01X0018197Y0009575D02*
G01X0017927Y0009609D01*
G01X0015851Y0011985D02*
G01X0015976Y0011980D01*
G01X0015822Y0011991D02*
G75*
G03X0015851Y0011985I0000033J0000084D01*
G01X0014578Y0012474D02*
G01X0015822Y0011991D01*
G01X0014578Y0012474D02*
G75*
G03X0014545Y0012480I-000033J-000084D01*
G01X0014515Y0012480D02*
G01X0014545Y0012480D01*
G01X0014289Y0012705D02*
G01X0014515Y0012480D01*
G01X0010706Y0016560D02*
G01X0010303Y0016589D01*
G01X0010736Y0016560D02*
G01X0010706Y0016560D01*
G01X0010756Y0016558D02*
G75*
G03X0010736Y0016560I-000020J-000088D01*
G01X0010814Y0016545D02*
G01X0010756Y0016558D01*
G01X0011057Y0016339D02*
G75*
G03X0010814Y0016545I-000321J-000133D01*
G01X0011318Y0015708D02*
G01X0011057Y0016339D01*
G01X0011341Y0015619D02*
G75*
G03X0011318Y0015708I-000345J-000044D01*
G01X0011581Y0013756D02*
G01X0011341Y0015619D01*
G01X0011581Y0013756D02*
G75*
G03X0011644Y0013682I0000089J0000012D01*
G01X0014006Y0012934D02*
G01X0011644Y0013682D01*
G01X0014006Y0012934D02*
G75*
G03X0014033Y0012930I0000027J0000086D01*
G01X0014063Y0012930D02*
G01X0014033Y0012930D01*
G01X0014289Y0012705D02*
G01X0014063Y0012930D01*
G01X0019142Y0014596D02*
G01X0019280Y0013917D01*
G01X0019141Y0014613D02*
G75*
G03X0019142Y0014596I0000090J0000000D01*
G01X0019141Y0014643D02*
G01X0019141Y0014613D01*
G01X0019106Y0014913D02*
G01X0019141Y0014643D01*
G01X0015976Y0012075D02*
G01X0015976Y0011980D01*
G01X0015976Y0012105D02*
G01X0015976Y0012075D01*
G01X0016051Y0012311D02*
G01X0015976Y0012105D01*
G01X0019433Y0013816D02*
G01X0019501Y0013689D01*
G01X0019433Y0013846D02*
G01X0019433Y0013816D01*
G01X0019433Y0013846D02*
G75*
G03X0019309Y0013929I-000090J0000000D01*
G01X0019280Y0013917D02*
G01X0019309Y0013929D01*
G01X0016249Y0011985D02*
G01X0015976Y0011980D01*
G01X0016249Y0011985D02*
G75*
G03X0016290Y0011995I-000001J0000090D01*
G01X0019100Y0013451D02*
G01X0016290Y0011995D01*
G01X0019100Y0013451D02*
G75*
G03X0019145Y0013505I-000041J0000080D01*
G01X0019257Y0013873D02*
G01X0019145Y0013505D01*
G01X0019264Y0013890D02*
G75*
G03X0019257Y0013873I0000079J-000044D01*
G01X0019280Y0013917D02*
G01X0019264Y0013890D01*
G01X0009900Y0017061D02*
G01X0010303Y0017089D01*
G01X0009870Y0017061D02*
G01X0009900Y0017061D01*
G01X0009870Y0017061D02*
G75*
G03X0009780Y0016970I0000000J-000090D01*
G01X0009780Y0016560D02*
G01X0009780Y0016970D01*
G01X0009780Y0016560D02*
G01X0009780Y0016560D01*
G01X0009780Y0016470D02*
G01X0009780Y0016560D01*
G01X0009780Y0016470D02*
G75*
G03X0009870Y0016380I0000090J0000000D01*
G01X0009870Y0016380D02*
G01X0009870Y0016380D01*
G01X0009960Y0016380D02*
G01X0009870Y0016380D01*
G01X0009960Y0016380D02*
G01X0009960Y0016380D01*
G01X0009984Y0016380D02*
G01X0009960Y0016380D01*
G01X0009984Y0016380D02*
G01X0009984Y0016380D01*
G01X0010097Y0016380D02*
G01X0009984Y0016380D01*
G01X0010097Y0016380D02*
G01X0010097Y0016380D01*
G01X0010509Y0016380D02*
G01X0010097Y0016380D01*
G01X0010509Y0016380D02*
G01X0010509Y0016380D01*
G01X0010623Y0016380D02*
G01X0010509Y0016380D01*
G01X0010623Y0016380D02*
G01X0010623Y0016380D01*
G01X0010646Y0016380D02*
G01X0010623Y0016380D01*
G01X0010646Y0016380D02*
G01X0010646Y0016380D01*
G01X0010736Y0016380D02*
G01X0010646Y0016380D01*
G01X0010891Y0016285D02*
G75*
G03X0010736Y0016380I-000155J-000079D01*
G01X0011199Y0015678D02*
G01X0010891Y0016285D01*
G01X0011222Y0015604D02*
G75*
G03X0011199Y0015678I-000226J-000029D01*
G01X0011462Y0013741D02*
G01X0011222Y0015604D01*
G01X0011462Y0013741D02*
G75*
G03X0011573Y0013582I0000209J0000027D01*
G01X0012791Y0012940D02*
G01X0011573Y0013582D01*
G01X0012791Y0012940D02*
G75*
G03X0012833Y0012930I0000042J0000080D01*
G01X0012863Y0012930D02*
G01X0012833Y0012930D01*
G01X0013089Y0012705D02*
G01X0012863Y0012930D01*
G01X0012863Y0012480D02*
G01X0013089Y0012705D01*
G01X0012833Y0012480D02*
G01X0012863Y0012480D01*
G01X0012833Y0012480D02*
G75*
G03X0012808Y0012476I0000000J-000090D01*
G01X0012208Y0012303D02*
G01X0012808Y0012476D01*
G01X0012183Y0012300D02*
G75*
G03X0012208Y0012303I0000000J0000090D01*
G01X0011671Y0012300D02*
G01X0012183Y0012300D01*
G01X0011671Y0012300D02*
G01X0011671Y0012300D01*
G01X0010983Y0012300D02*
G01X0011671Y0012300D01*
G01X0010893Y0012390D02*
G75*
G03X0010983Y0012300I0000090J0000000D01*
G01X0010893Y0012420D02*
G01X0010893Y0012390D01*
G01X0010727Y0012705D02*
G01X0010893Y0012420D01*
G01X0011947Y0016560D02*
G01X0012350Y0016589D01*
G01X0011917Y0016560D02*
G01X0011947Y0016560D01*
G01X0011917Y0016560D02*
G75*
G03X0011827Y0016471I0000000J-000090D01*
G01X0011827Y0016207D02*
G01X0011827Y0016471D01*
G01X0011827Y0016207D02*
G01X0011827Y0016207D01*
G01X0011827Y0015970D02*
G01X0011827Y0016207D01*
G01X0011827Y0015970D02*
G75*
G03X0011830Y0015947I0000090J0000000D01*
G01X0011917Y0015617D02*
G01X0011830Y0015947D01*
G01X0011925Y0015559D02*
G75*
G03X0011917Y0015617I-000228J0000000D01*
G01X0011925Y0014398D02*
G01X0011925Y0015559D01*
G01X0011925Y0014368D02*
G01X0011925Y0014398D01*
G01X0011927Y0014083D02*
G01X0011925Y0014368D01*
G01X0012863Y0014083D02*
G01X0013089Y0014083D01*
G01X0012833Y0014083D02*
G01X0012863Y0014083D01*
G01X0012183Y0014083D02*
G01X0012833Y0014083D01*
G01X0012153Y0014083D02*
G01X0012183Y0014083D01*
G01X0011927Y0014083D02*
G01X0012153Y0014083D01*
G01X0012693Y0016000D02*
G01X0012350Y0016089D01*
G01X0012693Y0015970D02*
G01X0012693Y0016000D01*
G01X0012693Y0015970D02*
G75*
G03X0012718Y0015908I0000090J0000000D01*
G01X0014098Y0014460D02*
G01X0012718Y0015908D01*
G01X0014123Y0014398D02*
G75*
G03X0014098Y0014460I-000090J0000000D01*
G01X0014123Y0014368D02*
G01X0014123Y0014398D01*
G01X0014289Y0014083D02*
G01X0014123Y0014368D01*
G01X0015824Y0014990D02*
G01X0015657Y0015067D01*
G01X0015854Y0014990D02*
G01X0015824Y0014990D01*
G01X0016806Y0014990D02*
G01X0015854Y0014990D01*
G01X0016836Y0014990D02*
G01X0016806Y0014990D01*
G01X0017106Y0014913D02*
G01X0016836Y0014990D01*
G01X0014515Y0014308D02*
G01X0014289Y0014083D01*
G01X0014545Y0014308D02*
G01X0014515Y0014308D01*
G01X0014545Y0014308D02*
G75*
G03X0014597Y0014324I0000000J0000090D01*
G01X0015408Y0014904D02*
G01X0014597Y0014324D01*
G01X0015461Y0014921D02*
G75*
G03X0015408Y0014904I0000000J-000090D01*
G01X0015491Y0014921D02*
G01X0015461Y0014921D01*
G01X0015657Y0015067D02*
G01X0015491Y0014921D01*
G01X0017259Y0014643D02*
G01X0017106Y0014913D01*
G01X0017259Y0014613D02*
G01X0017259Y0014643D01*
G01X0017259Y0013846D02*
G01X0017259Y0014613D01*
G01X0017259Y0013816D02*
G01X0017259Y0013846D01*
G01X0017326Y0013689D02*
G01X0017259Y0013816D01*
G01X0010816Y0017511D02*
G01X0011411Y0016343D01*
G01X0010816Y0017511D02*
G75*
G03X0010736Y0017560I-000080J-000041D01*
G01X0010706Y0017560D02*
G01X0010736Y0017560D01*
G01X0010303Y0017589D02*
G01X0010706Y0017560D01*
G01X0014034Y0005899D02*
G01X0014034Y0006159D01*
G01X0014034Y0005869D02*
G01X0014034Y0005899D01*
G01X0014033Y0005859D02*
G75*
G03X0014034Y0005869I-000054J0000010D01*
G01X0013412Y0002630D02*
G01X0014033Y0005859D01*
G01X0013387Y0002584D02*
G75*
G03X0013412Y0002630I-000064J0000064D01*
G01X0013212Y0002408D02*
G01X0013387Y0002584D01*
G01X0013186Y0002390D02*
G75*
G03X0013212Y0002408I-000038J0000082D01*
G01X0012260Y0001960D02*
G01X0013186Y0002390D01*
G01X0012239Y0001938D02*
G01X0012260Y0001960D01*
G01X0012024Y0001772D02*
G01X0012239Y0001938D01*
G01X0014034Y0006419D02*
G01X0014034Y0006159D01*
G01X0014034Y0006449D02*
G01X0014034Y0006419D01*
G01X0014038Y0006469D02*
G75*
G03X0014034Y0006449I0000051J-000020D01*
G01X0014937Y0008786D02*
G01X0014038Y0006469D01*
G01X0011707Y0016473D02*
G01X0011697Y0015559D01*
G01X0011713Y0016521D02*
G75*
G03X0011707Y0016473I0000204J-000051D01*
G01X0011830Y0016992D02*
G01X0011713Y0016521D01*
G01X0011917Y0017061D02*
G75*
G03X0011830Y0016992I0000000J-000090D01*
G01X0011947Y0017061D02*
G01X0011917Y0017061D01*
G01X0012350Y0017089D02*
G01X0011947Y0017061D01*
G01X0013834Y0005899D02*
G01X0013834Y0006159D01*
G01X0013834Y0005869D02*
G01X0013834Y0005899D01*
G01X0013823Y0005836D02*
G75*
G03X0013834Y0005869I-000044J0000033D01*
G01X0011652Y0002950D02*
G01X0013823Y0005836D01*
G01X0011652Y0002950D02*
G75*
G03X0011642Y0002934I0000072J-000054D01*
G01X0011211Y0002008D02*
G01X0011642Y0002934D01*
G01X0011190Y0001987D02*
G01X0011211Y0002008D01*
G01X0011024Y0001772D02*
G01X0011190Y0001987D01*
G01X0013834Y0006419D02*
G01X0013834Y0006159D01*
G01X0013834Y0006449D02*
G01X0013834Y0006419D01*
G01X0013838Y0006469D02*
G75*
G03X0013834Y0006449I0000051J-000020D01*
G01X0014077Y0007066D02*
G01X0013838Y0006469D01*
G01X0014077Y0007066D02*
G75*
G03X0014097Y0007131I-000435J0000174D01*
G01X0014357Y0008216D02*
G01X0014097Y0007131D01*
G01X0014357Y0008216D02*
G75*
G03X0014380Y0008384I-000806J0000193D01*
G01X0014398Y0008957D02*
G01X0014380Y0008384D01*
G01X0007215Y0017576D02*
G01X0007579Y0017409D01*
G01X0007185Y0017576D02*
G01X0007215Y0017576D01*
G01X0006012Y0017576D02*
G01X0007185Y0017576D01*
G01X0006012Y0017961D02*
G01X0006012Y0017576D01*
G01X0011734Y0006500D02*
G01X0011708Y0006474D01*
G01X0011734Y0006501D02*
G01X0011734Y0006500D01*
G01X0012732Y0007506D02*
G01X0011734Y0006501D01*
G01X0012751Y0007518D02*
G75*
G03X0012732Y0007506I0000024J-000055D01*
G01X0012752Y0007519D02*
G01X0012751Y0007518D01*
G01X0016124Y0008899D02*
G01X0016384Y0008899D01*
G01X0016094Y0008899D02*
G01X0016124Y0008899D01*
G01X0016084Y0008900D02*
G75*
G03X0016094Y0008899I0000011J0000054D01*
G01X0015854Y0008945D02*
G01X0016084Y0008900D01*
G01X0015854Y0008945D02*
G75*
G03X0015585Y0008763I-000044J-000224D01*
G01X0015503Y0008317D02*
G01X0015585Y0008763D01*
G01X0015503Y0008317D02*
G75*
G03X0015502Y0008196I0000342J-000063D01*
G01X0015587Y0007684D02*
G01X0015502Y0008196D01*
G01X0015506Y0007397D02*
G75*
G03X0015587Y0007684I-000262J0000229D01*
G01X0015214Y0007064D02*
G01X0015506Y0007397D01*
G01X0015214Y0007064D02*
G75*
G03X0015256Y0006726I0000171J-000150D01*
G01X0015591Y0006494D02*
G01X0015256Y0006726D01*
G01X0015614Y0006449D02*
G75*
G03X0015591Y0006494I-000055J0000000D01*
G01X0015614Y0006419D02*
G01X0015614Y0006449D01*
G01X0015614Y0006159D02*
G01X0015614Y0006419D01*
G01X0013324Y0007519D02*
G01X0013064Y0007519D01*
G01X0013354Y0007519D02*
G01X0013324Y0007519D01*
G01X0013354Y0007519D02*
G75*
G03X0013400Y0007544I0000000J0000055D01*
G01X0013842Y0008219D02*
G01X0013400Y0007544D01*
G01X0013842Y0008219D02*
G75*
G03X0013879Y0008527I-000291J0000191D01*
G01X0013648Y0009170D02*
G01X0013879Y0008527D01*
G01X0013644Y0009189D02*
G75*
G03X0013648Y0009170I0000055J0000000D01*
G01X0013644Y0009219D02*
G01X0013644Y0009189D01*
G01X0013644Y0009479D02*
G01X0013644Y0009219D01*
G01X0010727Y0005578D02*
G01X0010854Y0005586D01*
G01X0010697Y0005578D02*
G01X0010727Y0005578D01*
G01X0010354Y0005578D02*
G01X0010697Y0005578D01*
G01X0010324Y0005578D02*
G01X0010354Y0005578D01*
G01X0010197Y0005570D02*
G01X0010324Y0005578D01*
G01X0011573Y0006152D02*
G01X0011641Y0006280D01*
G01X0011573Y0006122D02*
G01X0011573Y0006152D01*
G01X0011538Y0006050D02*
G75*
G03X0011573Y0006122I-000054J0000072D01*
G01X0011012Y0005653D02*
G01X0011538Y0006050D01*
G01X0010982Y0005653D02*
G01X0011012Y0005653D01*
G01X0010854Y0005586D02*
G01X0010982Y0005653D01*
G01X0016637Y0009044D02*
G01X0016637Y0009044D01*
G01X0016636Y0009145D02*
G75*
G03X0016637Y0009044I0000082J-000049D01*
G01X0016852Y0009504D02*
G01X0016636Y0009145D01*
G01X0016929Y0009548D02*
G75*
G03X0016852Y0009504I0000000J-000090D01*
G01X0017244Y0009548D02*
G01X0016929Y0009548D01*
G01X0017308Y0009521D02*
G75*
G03X0017244Y0009548I-000064J-000063D01*
G01X0018009Y0008811D02*
G01X0017308Y0009521D01*
G01X0018030Y0008790D02*
G01X0018009Y0008811D01*
G01X0018197Y0008575D02*
G01X0018030Y0008790D01*
G01X0001466Y0003491D02*
G01X0001681Y0003265D01*
G01X0001466Y0003521D02*
G01X0001466Y0003491D01*
G01X0001466Y0004653D02*
G01X0001466Y0003521D01*
G01X0001466Y0004683D02*
G01X0001466Y0004653D01*
G01X0001256Y0004953D02*
G01X0001466Y0004683D01*
G01X0005291Y0003916D02*
G01X0005318Y0004043D01*
G01X0005291Y0003886D02*
G01X0005291Y0003916D01*
G01X0005291Y0003533D02*
G01X0005291Y0003886D01*
G01X0005291Y0003503D02*
G01X0005291Y0003533D01*
G01X0005264Y0003415D02*
G01X0005291Y0003503D01*
G01X0004861Y0003387D02*
G01X0005264Y0003415D01*
G01X0004831Y0003387D02*
G01X0004861Y0003387D01*
G01X0004831Y0003387D02*
G75*
G03X0004808Y0003384I0000000J-000090D01*
G01X0003907Y0003153D02*
G01X0004808Y0003384D01*
G01X0003850Y0003146D02*
G75*
G03X0003907Y0003153I0000000J0000228D01*
G01X0001996Y0003146D02*
G01X0003850Y0003146D01*
G01X0001966Y0003146D02*
G01X0001996Y0003146D01*
G01X0001681Y0003265D02*
G01X0001966Y0003146D01*
G01X0006957Y0006628D02*
G01X0007087Y0006868D01*
G01X0006927Y0006628D02*
G01X0006957Y0006628D01*
G01X0006927Y0006628D02*
G75*
G03X0006850Y0006586I0000000J-000090D01*
G01X0005399Y0004248D02*
G01X0006850Y0006586D01*
G01X0005399Y0004248D02*
G75*
G03X0005385Y0004201I0000077J-000048D01*
G01X0005385Y0004171D02*
G01X0005385Y0004201D01*
G01X0005318Y0004043D02*
G01X0005385Y0004171D01*
G01X0007017Y0007168D02*
G01X0007087Y0006868D01*
G01X0007017Y0007198D02*
G01X0007017Y0007168D01*
G01X0007017Y0007198D02*
G75*
G03X0007014Y0007222I-000090J0000000D01*
G01X0006963Y0007405D02*
G01X0007014Y0007222D01*
G01X0006960Y0007429D02*
G75*
G03X0006963Y0007405I0000090J0000000D01*
G01X0006960Y0007459D02*
G01X0006960Y0007429D01*
G01X0006893Y0007587D02*
G01X0006960Y0007459D01*
G01X0015891Y0017783D02*
G01X0015606Y0017888D01*
G01X0015921Y0017783D02*
G01X0015891Y0017783D01*
G01X0016806Y0017783D02*
G01X0015921Y0017783D01*
G01X0016836Y0017783D02*
G01X0016806Y0017783D01*
G01X0017106Y0017677D02*
G01X0016836Y0017783D01*
G01X0009255Y0018837D02*
G01X0009039Y0019004D01*
G01X0009276Y0018816D02*
G01X0009255Y0018837D01*
G01X0009887Y0018618D02*
G01X0009276Y0018816D01*
G01X0009887Y0018618D02*
G75*
G03X0009902Y0018615I0000028J0000086D01*
G01X0012853Y0018185D02*
G01X0009902Y0018615D01*
G01X0013032Y0018122D02*
G75*
G03X0012853Y0018185I-000248J-000415D01*
G01X0013617Y0017772D02*
G01X0013032Y0018122D01*
G01X0013661Y0017694D02*
G75*
G03X0013617Y0017772I-000090J0000000D01*
G01X0013661Y0017664D02*
G01X0013661Y0017694D01*
G01X0013886Y0017439D02*
G01X0013661Y0017664D01*
G01X0014171Y0017604D02*
G01X0013886Y0017439D01*
G01X0014201Y0017604D02*
G01X0014171Y0017604D01*
G01X0014201Y0017604D02*
G75*
G03X0014211Y0017605I0000000J0000090D01*
G01X0015282Y0017722D02*
G01X0014211Y0017605D01*
G01X0015291Y0017722D02*
G75*
G03X0015282Y0017722I0000000J-000090D01*
G01X0015321Y0017722D02*
G01X0015291Y0017722D01*
G01X0015606Y0017888D02*
G01X0015321Y0017722D01*
G01X0006960Y0007714D02*
G01X0006893Y0007587D01*
G01X0006960Y0007744D02*
G01X0006960Y0007714D01*
G01X0006977Y0007796D02*
G75*
G03X0006960Y0007744I0000074J-000052D01*
G01X0007899Y0009110D02*
G01X0006977Y0007796D01*
G01X0007899Y0009110D02*
G75*
G03X0007935Y0009192I-000186J0000130D01*
G01X0007941Y0009221D02*
G01X0007935Y0009192D01*
G01X0007941Y0009221D02*
G75*
G03X0007943Y0009240I-000088J0000019D01*
G01X0007943Y0009270D02*
G01X0007943Y0009240D01*
G01X0008083Y0009555D02*
G01X0007943Y0009270D01*
G01X0011406Y0006775D02*
G01X0011708Y0006474D01*
G01X0011383Y0006812D02*
G75*
G03X0011406Y0006775I0000086J0000026D01*
G01X0011271Y0007180D02*
G01X0011383Y0006812D01*
G01X0011271Y0007180D02*
G75*
G03X0011239Y0007225I-000086J-000026D01*
G01X0009964Y0008190D02*
G01X0011239Y0007225D01*
G01X0009964Y0008190D02*
G75*
G03X0009955Y0008196I-000054J-000072D01*
G01X0009352Y0008552D02*
G01X0009955Y0008196D01*
G01X0009342Y0008559D02*
G75*
G03X0009352Y0008552I0000055J0000071D01*
G01X0008369Y0009311D02*
G01X0009342Y0008559D01*
G01X0008369Y0009311D02*
G75*
G03X0008313Y0009330I-000055J-000071D01*
G01X0008283Y0009330D02*
G01X0008313Y0009330D01*
G01X0008083Y0009555D02*
G01X0008283Y0009330D01*
G01X0008223Y0009840D02*
G01X0008083Y0009555D01*
G01X0008223Y0009870D02*
G01X0008223Y0009840D01*
G01X0008224Y0009881D02*
G75*
G03X0008223Y0009870I0000090J-000011D01*
G01X0008258Y0010162D02*
G01X0008224Y0009881D01*
G01X0008258Y0010162D02*
G75*
G03X0008259Y0010202I-000226J0000027D01*
G01X0008223Y0010810D02*
G01X0008259Y0010202D01*
G01X0008223Y0010815D02*
G75*
G03X0008223Y0010810I0000090J0000000D01*
G01X0008223Y0010845D02*
G01X0008223Y0010815D01*
G01X0008083Y0011130D02*
G01X0008223Y0010845D01*
G01X0001276Y0004683D02*
G01X0001256Y0004953D01*
G01X0001276Y0004653D02*
G01X0001276Y0004683D01*
G01X0001276Y0001809D02*
G01X0001276Y0004653D01*
G01X0001276Y0001809D02*
G75*
G03X0001358Y0001720I0000090J0000000D01*
G01X0008858Y0001023D02*
G01X0001358Y0001720D01*
G01X0008858Y0001023D02*
G75*
G03X0008899Y0001021I0000042J0000449D01*
G01X0009148Y0001021D02*
G01X0008899Y0001021D01*
G01X0009148Y0001021D02*
G75*
G03X0009175Y0001022I0000000J0000451D01*
G01X0013161Y0001262D02*
G01X0009175Y0001022D01*
G01X0013162Y0001262D02*
G01X0013161Y0001262D01*
G01X0014906Y0001382D02*
G01X0013162Y0001262D01*
G01X0014906Y0001382D02*
G75*
G03X0014990Y0001472I-000006J0000090D01*
G01X0014990Y0001502D02*
G01X0014990Y0001472D01*
G01X0015024Y0001772D02*
G01X0014990Y0001502D01*
G01X0015645Y0005286D02*
G01X0015578Y0005413D01*
G01X0015645Y0005256D02*
G01X0015645Y0005286D01*
G01X0015645Y0005256D02*
G75*
G03X0015646Y0005249I0000090J0000000D01*
G01X0015661Y0005043D02*
G01X0015646Y0005249D01*
G01X0008223Y0011415D02*
G01X0008083Y0011130D01*
G01X0008223Y0011445D02*
G01X0008223Y0011415D01*
G01X0008224Y0011458D02*
G75*
G03X0008223Y0011445I0000089J-000013D01*
G01X0008315Y0012077D02*
G01X0008224Y0011458D01*
G01X0012804Y0007519D02*
G01X0013064Y0007519D01*
G01X0012774Y0007519D02*
G01X0012804Y0007519D01*
G01X0012752Y0007519D02*
G01X0012774Y0007519D01*
G01X0016929Y0009233D02*
G01X0016959Y0009233D01*
G01X0016637Y0009044D02*
G01X0016929Y0009233D01*
G01X0015614Y0005541D02*
G01X0015578Y0005413D01*
G01X0015614Y0005571D02*
G01X0015614Y0005541D01*
G01X0015614Y0005869D02*
G01X0015614Y0005571D01*
G01X0015614Y0005899D02*
G01X0015614Y0005869D01*
G01X0015614Y0006159D02*
G01X0015614Y0005899D01*
G01X0016584Y0008991D02*
G01X0016637Y0009044D01*
G01X0016584Y0008954D02*
G01X0016584Y0008991D01*
G01X0016584Y0008924D02*
G01X0016584Y0008954D01*
G01X0016384Y0008899D02*
G01X0016584Y0008924D01*
G01X0013216Y0010054D02*
G01X0013149Y0010181D01*
G01X0013216Y0010024D02*
G01X0013216Y0010054D01*
G01X0013216Y0009986D02*
G01X0013216Y0010024D01*
G01X0013269Y0009934D02*
G01X0013216Y0009986D01*
G01X0013589Y0009679D02*
G01X0013269Y0009934D01*
G01X0013619Y0009679D02*
G01X0013589Y0009679D01*
G01X0013644Y0009479D02*
G01X0013619Y0009679D01*
G01X0011708Y0006437D02*
G01X0011708Y0006474D01*
G01X0011708Y0006407D02*
G01X0011708Y0006437D01*
G01X0011641Y0006280D02*
G01X0011708Y0006407D01*
G01X0015929Y0005929D02*
G01X0016098Y0006079D01*
G01X0015928Y0005927D02*
G01X0015929Y0005929D01*
G01X0013324Y0007329D02*
G01X0013064Y0007329D01*
G01X0013354Y0007329D02*
G01X0013324Y0007329D01*
G01X0013354Y0007329D02*
G75*
G03X0013386Y0007339I0000000J0000055D01*
G01X0013475Y0007402D02*
G01X0013386Y0007339D01*
G01X0013475Y0007402D02*
G75*
G03X0013535Y0007466I-000121J0000172D01*
G01X0013954Y0008170D02*
G01X0013535Y0007466D01*
G01X0013954Y0008170D02*
G75*
G03X0014005Y0008527I-000403J0000239D01*
G01X0013836Y0009175D02*
G01X0014005Y0008527D01*
G01X0013834Y0009189D02*
G75*
G03X0013836Y0009175I0000055J0000000D01*
G01X0013834Y0009219D02*
G01X0013834Y0009189D01*
G01X0013834Y0009479D02*
G01X0013834Y0009219D01*
G01X0010727Y0006178D02*
G01X0010854Y0006186D01*
G01X0010697Y0006178D02*
G01X0010727Y0006178D01*
G01X0010354Y0006178D02*
G01X0010697Y0006178D01*
G01X0010324Y0006178D02*
G01X0010354Y0006178D01*
G01X0010197Y0006170D02*
G01X0010324Y0006178D01*
G01X0013658Y0010399D02*
G01X0013551Y0010516D01*
G01X0013681Y0010339D02*
G75*
G03X0013658Y0010399I-000090J0000000D01*
G01X0013681Y0010309D02*
G01X0013681Y0010339D01*
G01X0013749Y0010181D02*
G01X0013681Y0010309D01*
G01X0010959Y0006869D02*
G01X0011027Y0006996D01*
G01X0010959Y0006839D02*
G01X0010959Y0006869D01*
G01X0010959Y0006832D02*
G75*
G03X0010959Y0006839I-000090J0000007D01*
G01X0010922Y0006350D02*
G01X0010959Y0006832D01*
G01X0010922Y0006350D02*
G75*
G03X0010922Y0006343I0000090J-000007D01*
G01X0010922Y0006313D02*
G01X0010922Y0006343D01*
G01X0010854Y0006186D02*
G01X0010922Y0006313D01*
G01X0011896Y0017558D02*
G01X0011720Y0017516D01*
G01X0011917Y0017561D02*
G75*
G03X0011896Y0017558I0000000J-000090D01*
G01X0011947Y0017561D02*
G01X0011917Y0017561D01*
G01X0012350Y0017589D02*
G01X0011947Y0017561D01*
G01X0011701Y0012930D02*
G01X0011927Y0012705D01*
G01X0011671Y0012930D02*
G01X0011701Y0012930D01*
G01X0011605Y0012959D02*
G75*
G03X0011671Y0012930I0000066J0000061D01*
G01X0010916Y0013707D02*
G01X0011605Y0012959D01*
G01X0010893Y0013768D02*
G75*
G03X0010916Y0013707I0000090J0000000D01*
G01X0010893Y0013798D02*
G01X0010893Y0013768D01*
G01X0010727Y0014083D02*
G01X0010893Y0013798D01*
G01X0017993Y0013816D02*
G01X0017926Y0013689D01*
G01X0017993Y0013846D02*
G01X0017993Y0013816D01*
G01X0017994Y0013856D02*
G75*
G03X0017993Y0013846I0000090J-000009D01*
G01X0018072Y0014604D02*
G01X0017994Y0013856D01*
G01X0018072Y0014604D02*
G75*
G03X0018072Y0014613I-000090J0000009D01*
G01X0018072Y0014643D02*
G01X0018072Y0014613D01*
G01X0018106Y0014913D02*
G01X0018072Y0014643D01*
G01X0003222Y0005223D02*
G01X0003256Y0004953D01*
G01X0003222Y0005253D02*
G01X0003222Y0005223D01*
G01X0003222Y0005253D02*
G75*
G03X0003211Y0005295I-000090J0000000D01*
G01X0003043Y0005616D02*
G01X0003211Y0005295D01*
G01X0003033Y0005657D02*
G75*
G03X0003043Y0005616I0000090J0000000D01*
G01X0003033Y0005687D02*
G01X0003033Y0005657D01*
G01X0002965Y0005815D02*
G01X0003033Y0005687D01*
G01X0002762Y0001946D02*
G01X0002587Y0001988D01*
G01X0002762Y0001946D02*
G75*
G03X0002783Y0001943I0000021J0000088D01*
G01X0002813Y0001943D02*
G01X0002783Y0001943D01*
G01X0003217Y0001915D02*
G01X0002813Y0001943D01*
G01X0010685Y0014368D02*
G01X0010727Y0014083D01*
G01X0010685Y0014398D02*
G01X0010685Y0014368D01*
G01X0010685Y0015303D02*
G01X0010685Y0014398D01*
G01X0010685Y0015333D02*
G01X0010685Y0015303D01*
G01X0010643Y0015461D02*
G01X0010685Y0015333D01*
G01X0010822Y0015531D02*
G01X0010996Y0015575D01*
G01X0010800Y0015528D02*
G75*
G03X0010822Y0015531I0000000J0000090D01*
G01X0010770Y0015528D02*
G01X0010800Y0015528D01*
G01X0010643Y0015461D02*
G01X0010770Y0015528D01*
G01X0008517Y0004668D02*
G01X0008587Y0004368D01*
G01X0008517Y0004698D02*
G01X0008517Y0004668D01*
G01X0008517Y0004698D02*
G75*
G03X0008427Y0004788I-000090J0000000D01*
G01X0006927Y0004788D02*
G01X0008427Y0004788D01*
G01X0006927Y0004788D02*
G75*
G03X0006881Y0004776I0000000J-000090D01*
G01X0006030Y0004279D02*
G01X0006881Y0004776D01*
G01X0006030Y0004279D02*
G75*
G03X0005985Y0004201I0000046J-000078D01*
G01X0005985Y0004171D02*
G01X0005985Y0004201D01*
G01X0005918Y0004043D02*
G01X0005985Y0004171D01*
G01X0012740Y0010431D02*
G01X0013551Y0010516D01*
G01X0012695Y0010431D02*
G75*
G03X0012740Y0010431I0000021J0000227D01*
G01X0011662Y0010528D02*
G01X0012695Y0010431D01*
G01X0011598Y0010565D02*
G75*
G03X0011662Y0010528I0000073J0000054D01*
G01X0011055Y0011302D02*
G01X0011598Y0010565D01*
G01X0011055Y0011302D02*
G75*
G03X0010983Y0011338I-000073J-000054D01*
G01X0010471Y0011338D02*
G01X0010983Y0011338D01*
G01X0010471Y0011338D02*
G75*
G03X0010381Y0011248I0000000J-000090D01*
G01X0010381Y0010618D02*
G01X0010381Y0011248D01*
G01X0010381Y0010618D02*
G75*
G03X0010404Y0010558I0000090J0000000D01*
G01X0010936Y0009970D02*
G01X0010404Y0010558D01*
G01X0010959Y0009909D02*
G75*
G03X0010936Y0009970I-000090J0000000D01*
G01X0010959Y0009879D02*
G01X0010959Y0009909D01*
G01X0011027Y0009752D02*
G01X0010959Y0009879D01*
G01X0008637Y0006568D02*
G01X0008587Y0006868D01*
G01X0008637Y0006538D02*
G01X0008637Y0006568D01*
G01X0008637Y0004698D02*
G01X0008637Y0006538D01*
G01X0008637Y0004668D02*
G01X0008637Y0004698D01*
G01X0008587Y0004368D02*
G01X0008637Y0004668D01*
G01X0010069Y0006238D02*
G01X0010197Y0006170D01*
G01X0010039Y0006238D02*
G01X0010069Y0006238D01*
G01X0010013Y0006242D02*
G75*
G03X0010039Y0006238I0000027J0000086D01*
G01X0008773Y0006624D02*
G01X0010013Y0006242D01*
G01X0008773Y0006624D02*
G75*
G03X0008747Y0006628I-000027J-000086D01*
G01X0008717Y0006628D02*
G01X0008747Y0006628D01*
G01X0008587Y0006868D02*
G01X0008717Y0006628D01*
G01X0008457Y0006868D02*
G01X0008587Y0006868D01*
G01X0008427Y0006868D02*
G01X0008457Y0006868D01*
G01X0008247Y0006868D02*
G01X0008427Y0006868D01*
G01X0008217Y0006868D02*
G01X0008247Y0006868D01*
G01X0008087Y0006868D02*
G01X0008217Y0006868D01*
G01X0007957Y0006868D02*
G01X0008087Y0006868D01*
G01X0007927Y0006868D02*
G01X0007957Y0006868D01*
G01X0007747Y0006868D02*
G01X0007927Y0006868D01*
G01X0007717Y0006868D02*
G01X0007747Y0006868D01*
G01X0007587Y0006868D02*
G01X0007717Y0006868D01*
G01X0007540Y0007168D02*
G01X0007587Y0006868D01*
G01X0007540Y0007198D02*
G01X0007540Y0007168D01*
G01X0007540Y0007429D02*
G01X0007540Y0007198D01*
G01X0007540Y0007459D02*
G01X0007540Y0007429D01*
G01X0007493Y0007587D02*
G01X0007540Y0007459D01*
G01X0016278Y0013245D02*
G01X0016445Y0013098D01*
G01X0016248Y0013245D02*
G01X0016278Y0013245D01*
G01X0016188Y0013268D02*
G75*
G03X0016248Y0013245I0000060J0000067D01*
G01X0015400Y0013976D02*
G01X0016188Y0013268D01*
G01X0015371Y0014043D02*
G75*
G03X0015400Y0013976I0000090J0000000D01*
G01X0015371Y0014073D02*
G01X0015371Y0014043D01*
G01X0015264Y0014280D02*
G01X0015371Y0014073D01*
G01X0013648Y0010707D02*
G01X0013551Y0010516D01*
G01X0013648Y0010707D02*
G75*
G03X0013658Y0010748I-000080J0000041D01*
G01X0013658Y0010778D02*
G01X0013658Y0010748D01*
G01X0013725Y0010906D02*
G01X0013658Y0010778D01*
G01X0016612Y0013244D02*
G01X0016445Y0013098D01*
G01X0016642Y0013244D02*
G01X0016612Y0013244D01*
G01X0016642Y0013244D02*
G75*
G03X0016657Y0013246I0000000J0000090D01*
G01X0017784Y0013443D02*
G01X0016657Y0013246D01*
G01X0017784Y0013443D02*
G75*
G03X0017859Y0013531I-000016J0000089D01*
G01X0017859Y0013561D02*
G01X0017859Y0013531D01*
G01X0017926Y0013689D02*
G01X0017859Y0013561D01*
G01X0018053Y0013689D02*
G01X0017926Y0013689D01*
G01X0018083Y0013689D02*
G01X0018053Y0013689D01*
G01X0018743Y0013689D02*
G01X0018083Y0013689D01*
G01X0018773Y0013689D02*
G01X0018743Y0013689D01*
G01X0018901Y0013689D02*
G01X0018773Y0013689D01*
G01X0007169Y0012988D02*
G01X0007106Y0013154D01*
G01X0007169Y0012988D02*
G75*
G03X0007253Y0012930I0000084J0000032D01*
G01X0007283Y0012930D02*
G01X0007253Y0012930D01*
G01X0007483Y0012705D02*
G01X0007283Y0012930D01*
G01X0016124Y0008709D02*
G01X0016384Y0008709D01*
G01X0016094Y0008709D02*
G01X0016124Y0008709D01*
G01X0016092Y0008709D02*
G01X0016094Y0008709D01*
G01X0015810Y0008722D02*
G01X0016092Y0008709D01*
G01X0010899Y0006976D02*
G01X0011027Y0006996D01*
G01X0010869Y0006976D02*
G01X0010899Y0006976D01*
G01X0010659Y0006976D02*
G01X0010869Y0006976D01*
G01X0010899Y0009743D02*
G01X0011027Y0009752D01*
G01X0010869Y0009743D02*
G01X0010899Y0009743D01*
G01X0010641Y0009743D02*
G01X0010869Y0009743D01*
G01X0016110Y0005541D02*
G01X0016178Y0005413D01*
G01X0016110Y0005571D02*
G01X0016110Y0005541D01*
G01X0015949Y0005906D02*
G01X0016110Y0005571D01*
G01X0015928Y0005927D02*
G01X0015949Y0005906D01*
G01X0015897Y0005959D02*
G01X0015928Y0005927D01*
G01X0015859Y0005959D02*
G01X0015897Y0005959D01*
G01X0015829Y0005959D02*
G01X0015859Y0005959D01*
G01X0015804Y0006159D02*
G01X0015829Y0005959D01*
G01X0016929Y0008709D02*
G01X0016959Y0008709D01*
G01X0016674Y0008709D02*
G01X0016929Y0008709D01*
G01X0016644Y0008709D02*
G01X0016674Y0008709D01*
G01X0016384Y0008709D02*
G01X0016644Y0008709D01*
G01X0013816Y0010054D02*
G01X0013749Y0010181D01*
G01X0013816Y0010024D02*
G01X0013816Y0010054D01*
G01X0013816Y0009986D02*
G01X0013816Y0010024D01*
G01X0013834Y0009792D02*
G01X0013816Y0009986D01*
G01X0013834Y0009769D02*
G01X0013834Y0009792D01*
G01X0013834Y0009739D02*
G01X0013834Y0009769D01*
G01X0013834Y0009479D02*
G01X0013834Y0009739D01*
G01X0012804Y0007329D02*
G01X0013064Y0007329D01*
G01X0012774Y0007329D02*
G01X0012804Y0007329D01*
G01X0012752Y0007329D02*
G01X0012774Y0007329D01*
G01X0012719Y0007297D02*
G01X0012752Y0007329D01*
G01X0012308Y0006437D02*
G01X0012719Y0007297D01*
G01X0012308Y0006407D02*
G01X0012308Y0006437D01*
G01X0012241Y0006280D02*
G01X0012308Y0006407D01*
G01X0008091Y0016035D02*
G01X0009004Y0016594D01*
G01X0007972Y0016001D02*
G75*
G03X0008091Y0016035I0000000J0000227D01*
G01X0007942Y0016001D02*
G01X0007972Y0016001D01*
G01X0007579Y0015835D02*
G01X0007942Y0016001D01*
G01X0003774Y0015368D02*
G01X0002731Y0015100D01*
G01X0003842Y0015378D02*
G75*
G03X0003774Y0015368I0000008J-000305D01*
G01X0005241Y0015414D02*
G01X0003842Y0015378D01*
G01X0005241Y0015414D02*
G75*
G03X0005311Y0015420I-000017J0000657D01*
G01X0007185Y0015668D02*
G01X0005311Y0015420D01*
G01X0007215Y0015668D02*
G01X0007185Y0015668D01*
G01X0007579Y0015835D02*
G01X0007215Y0015668D01*
G01X0009689Y0016175D02*
G01X0009004Y0016594D01*
G01X0009689Y0016175D02*
G75*
G03X0009698Y0016169I0000181J0000296D01*
G01X0009811Y0016104D02*
G01X0009698Y0016169D01*
G01X0009811Y0016104D02*
G75*
G03X0009870Y0016089I0000059J0000103D01*
G01X0009900Y0016089D02*
G01X0009870Y0016089D01*
G01X0010303Y0016089D02*
G01X0009900Y0016089D01*
G01X0009757Y0017904D02*
G01X0009004Y0017472D01*
G01X0009870Y0017934D02*
G75*
G03X0009757Y0017904I0000000J-000227D01*
G01X0012783Y0017934D02*
G01X0009870Y0017934D01*
G01X0013006Y0017749D02*
G75*
G03X0012783Y0017934I-000223J-000042D01*
G01X0013348Y0015941D02*
G01X0013006Y0017749D01*
G01X0013348Y0015941D02*
G75*
G03X0013357Y0015907I0000223J0000042D01*
G01X0013444Y0015662D02*
G01X0013357Y0015907D01*
G01X0013444Y0015662D02*
G75*
G03X0013930Y0015448I0000344J0000121D01*
G01X0015722Y0016208D02*
G01X0013930Y0015448D01*
G01X0015810Y0016226D02*
G75*
G03X0015722Y0016208I0000000J-000227D01*
G01X0015840Y0016226D02*
G01X0015810Y0016226D01*
G01X0016110Y0016299D02*
G01X0015840Y0016226D01*
G01X0010097Y0016000D02*
G01X0010303Y0016089D01*
G01X0010097Y0015970D02*
G01X0010097Y0016000D01*
G01X0010094Y0015932D02*
G75*
G03X0010097Y0015970I-000224J0000038D01*
G01X0010045Y0015645D02*
G01X0010094Y0015932D01*
G01X0010045Y0015645D02*
G75*
G03X0010043Y0015618I0000155J-000026D01*
G01X0010043Y0015588D02*
G01X0010043Y0015618D01*
G01X0010043Y0015461D02*
G01X0010043Y0015588D01*
G01X0007225Y0018508D02*
G01X0009004Y0017472D01*
G01X0007113Y0018704D02*
G75*
G03X0007225Y0018508I0000227J0000000D01*
G01X0007113Y0018734D02*
G01X0007113Y0018704D01*
G01X0007039Y0019004D02*
G01X0007113Y0018734D01*
G01X0009004Y0017472D02*
G01X0009004Y0016594D01*
G01X0005357Y0014888D02*
G01X0005497Y0014979D01*
G01X0005357Y0014888D02*
G01X0005497Y0014798D01*
G01X0019291Y0004565D02*
G01X0019382Y0004424D01*
G01X0019291Y0004565D02*
G01X0019201Y0004424D01*
G01X0017859Y0005754D02*
G01X0017712Y0005649D01*
G01X0017859Y0005754D02*
G01X0017697Y0005833D01*
G01X0013450Y0008593D02*
G01X0013606Y0008502D01*
G01X0013450Y0008593D02*
G01X0013444Y0008414D01*
G01X0013254Y0006258D02*
G01X0013220Y0006082D01*
G01X0013254Y0006258D02*
G01X0013082Y0006205D01*
G01X0016779Y0008183D02*
G01X0016848Y0008350D01*
G01X0016779Y0008183D02*
G01X0016958Y0008201D01*
G01X0017031Y0007999D02*
G01X0017161Y0008124D01*
G01X0017031Y0007999D02*
G01X0017202Y0007943D01*
G01X0016895Y0007641D02*
G01X0017072Y0007674D01*
G01X0016895Y0007641D02*
G01X0017008Y0007500D01*
G01X0017634Y0007750D02*
G01X0017686Y0007922D01*
G01X0017634Y0007750D02*
G01X0017810Y0007785D01*
G01X0015041Y0007924D02*
G01X0015035Y0008104D01*
G01X0015041Y0007924D02*
G01X0015197Y0008015D01*
G01X0015143Y0007442D02*
G01X0015136Y0007622D01*
G01X0015143Y0007442D02*
G01X0015298Y0007533D01*
G01X0013787Y0015983D02*
G01X0013878Y0015842D01*
G01X0013787Y0015983D02*
G01X0013697Y0015842D01*
G01X0015312Y0008398D02*
G01X0015188Y0008528D01*
G01X0015312Y0008398D02*
G01X0015368Y0008569D01*
G01X0007136Y0003797D02*
G01X0007229Y0003643D01*
G01X0007136Y0003797D02*
G01X0007044Y0003643D01*
G01X0014558Y0004554D02*
G01X0014545Y0004374D01*
G01X0014558Y0004554D02*
G01X0014393Y0004480D01*
G01X0015110Y0005709D02*
G01X0015083Y0005531D01*
G01X0015110Y0005709D02*
G01X0014940Y0005649D01*
G01X0007697Y0003892D02*
G01X0007831Y0003771D01*
G01X0007697Y0003892D02*
G01X0007654Y0003717D01*
G01X0008271Y0003878D02*
G01X0008444Y0003826D01*
G01X0008271Y0003878D02*
G01X0008307Y0003701D01*
G01X0016050Y0008300D02*
G01X0015920Y0008176D01*
G01X0016050Y0008300D02*
G01X0015878Y0008356D01*
G01X0012160Y0009464D02*
G01X0011980Y0009471D01*
G01X0012160Y0009464D02*
G01X0012081Y0009626D01*
G01X0007913Y0010362D02*
G01X0008077Y0010287D01*
G01X0007913Y0010362D02*
G01X0007924Y0010183D01*
G01X0013447Y0007162D02*
G01X0013556Y0007305D01*
G01X0013447Y0007162D02*
G01X0013625Y0007134D01*
G01X0012878Y0010791D02*
G01X0012818Y0010621D01*
G01X0012878Y0010791D02*
G01X0012700Y0010764D01*
G01X0012508Y0010677D02*
G01X0012670Y0010755D01*
G01X0012508Y0010677D02*
G01X0012653Y0010571D01*
G01X0003656Y0003387D02*
G01X0003797Y0003468D01*
G01X0003656Y0003387D02*
G01X0003785Y0003288D01*
G01X0014805Y0004212D02*
G01X0014722Y0004052D01*
G01X0014805Y0004212D02*
G01X0014625Y0004210D01*
G01X0005713Y0002386D02*
G01X0005877Y0002460D01*
G01X0005713Y0002386D02*
G01X0005856Y0002277D01*
G01X0014850Y0003873D02*
G01X0014783Y0003706D01*
G01X0014850Y0003873D02*
G01X0014671Y0003854D01*
G01X0015827Y0006891D02*
G01X0015781Y0006717D01*
G01X0015827Y0006891D02*
G01X0015652Y0006849D01*
G01X0015040Y0003546D02*
G01X0014993Y0003372D01*
G01X0015040Y0003546D02*
G01X0014864Y0003505D01*
G01X0015487Y0007097D02*
G01X0015494Y0006917D01*
G01X0015487Y0007097D02*
G01X0015332Y0007007D01*
G01X0015873Y0009680D02*
G01X0015979Y0009785D01*
G01X0015873Y0009680D02*
G01X0016006Y0009613D01*
G01X0012480Y0007787D02*
G01X0012308Y0007732D01*
G01X0012480Y0007787D02*
G01X0012351Y0007912D01*
G01X0017345Y0010582D02*
G01X0017487Y0010693D01*
G01X0017345Y0010582D02*
G01X0017510Y0010509D01*
G01X0011316Y0016530D02*
G01X0011468Y0016434D01*
G01X0011316Y0016530D02*
G01X0011303Y0016350D01*
G01X0014861Y0008590D02*
G01X0014831Y0008767D01*
G01X0014861Y0008590D02*
G01X0015003Y0008700D01*
G01X0011699Y0015769D02*
G01X0011790Y0015613D01*
G01X0011699Y0015769D02*
G01X0011605Y0015615D01*
G01X0014391Y0008747D02*
G01X0014303Y0008904D01*
G01X0014391Y0008747D02*
G01X0014488Y0008898D01*
G01X0015646Y0005249D02*
G01X0015749Y0005106D01*
G01X0015646Y0005249D02*
G01X0015565Y0005092D01*
G01X0008285Y0011870D02*
G01X0008215Y0012036D01*
G01X0008285Y0011870D02*
G01X0008398Y0012009D01*
G01X0015942Y0005939D02*
G01X0015996Y0006111D01*
G01X0015942Y0005939D02*
G01X0016118Y0005973D01*
G01X0011896Y0017558D02*
G01X0011803Y0017447D01*
G01X0011896Y0017558D02*
G01X0011763Y0017615D01*
G01X0002762Y0001946D02*
G01X0002629Y0001889D01*
G01X0002762Y0001946D02*
G01X0002669Y0002057D01*
G01X0010822Y0015531D02*
G01X0010912Y0015643D01*
G01X0010822Y0015531D02*
G01X0010954Y0015475D01*
G01X0007169Y0012988D02*
G01X0007050Y0013062D01*
G01X0007169Y0012988D02*
G01X0007210Y0013123D01*
G01X0016019Y0008712D02*
G01X0015861Y0008627D01*
G01X0016019Y0008712D02*
G01X0015869Y0008812D01*
G01X0010869Y0006976D02*
G01X0010714Y0006884D01*
G01X0010869Y0006976D02*
G01X0010714Y0007069D01*
G01X0010851Y0009743D02*
G01X0010696Y0009650D01*
G01X0010851Y0009743D02*
G01X0010696Y0009835D01*
G54D28*
G01X0013739Y0019128D02*
G01X0013915Y0019304D01*
G01X0013915Y0019304D02*
G01X0014164Y0019304D01*
G01X0014164Y0019304D02*
G01X0014339Y0019128D01*
G01X0014339Y0019128D02*
G01X0014339Y0018880D01*
G01X0014339Y0018880D02*
G01X0014164Y0018704D01*
G01X0014164Y0018704D02*
G01X0013915Y0018704D01*
G01X0013915Y0018704D02*
G01X0013739Y0018880D01*
G01X0013739Y0018880D02*
G01X0013739Y0019128D01*
G01X0012739Y0019128D02*
G01X0012915Y0019304D01*
G01X0012915Y0019304D02*
G01X0013164Y0019304D01*
G01X0013164Y0019304D02*
G01X0013339Y0019128D01*
G01X0013339Y0019128D02*
G01X0013339Y0018880D01*
G01X0013339Y0018880D02*
G01X0013164Y0018704D01*
G01X0013164Y0018704D02*
G01X0012915Y0018704D01*
G01X0012915Y0018704D02*
G01X0012739Y0018880D01*
G01X0012739Y0018880D02*
G01X0012739Y0019128D01*
G01X0011739Y0019128D02*
G01X0011915Y0019304D01*
G01X0011915Y0019304D02*
G01X0012164Y0019304D01*
G01X0012164Y0019304D02*
G01X0012339Y0019128D01*
G01X0012339Y0019128D02*
G01X0012339Y0018880D01*
G01X0012339Y0018880D02*
G01X0012164Y0018704D01*
G01X0012164Y0018704D02*
G01X0011915Y0018704D01*
G01X0011915Y0018704D02*
G01X0011739Y0018880D01*
G01X0011739Y0018880D02*
G01X0011739Y0019128D01*
G01X0010739Y0019128D02*
G01X0010915Y0019304D01*
G01X0010915Y0019304D02*
G01X0011164Y0019304D01*
G01X0011164Y0019304D02*
G01X0011339Y0019128D01*
G01X0011339Y0019128D02*
G01X0011339Y0018880D01*
G01X0011339Y0018880D02*
G01X0011164Y0018704D01*
G01X0011164Y0018704D02*
G01X0010915Y0018704D01*
G01X0010915Y0018704D02*
G01X0010739Y0018880D01*
G01X0010739Y0018880D02*
G01X0010739Y0019128D01*
G01X0009739Y0019128D02*
G01X0009915Y0019304D01*
G01X0009915Y0019304D02*
G01X0010164Y0019304D01*
G01X0010164Y0019304D02*
G01X0010339Y0019128D01*
G01X0010339Y0019128D02*
G01X0010339Y0018880D01*
G01X0010339Y0018880D02*
G01X0010164Y0018704D01*
G01X0010164Y0018704D02*
G01X0009915Y0018704D01*
G01X0009915Y0018704D02*
G01X0009739Y0018880D01*
G01X0009739Y0018880D02*
G01X0009739Y0019128D01*
G01X0008739Y0019128D02*
G01X0008915Y0019304D01*
G01X0008915Y0019304D02*
G01X0009164Y0019304D01*
G01X0009164Y0019304D02*
G01X0009339Y0019128D01*
G01X0009339Y0019128D02*
G01X0009339Y0018880D01*
G01X0009339Y0018880D02*
G01X0009164Y0018704D01*
G01X0009164Y0018704D02*
G01X0008915Y0018704D01*
G01X0008915Y0018704D02*
G01X0008739Y0018880D01*
G01X0008739Y0018880D02*
G01X0008739Y0019128D01*
G01X0007739Y0019128D02*
G01X0007915Y0019304D01*
G01X0007915Y0019304D02*
G01X0008164Y0019304D01*
G01X0008164Y0019304D02*
G01X0008339Y0019128D01*
G01X0008339Y0019128D02*
G01X0008339Y0018880D01*
G01X0008339Y0018880D02*
G01X0008164Y0018704D01*
G01X0008164Y0018704D02*
G01X0007915Y0018704D01*
G01X0007915Y0018704D02*
G01X0007739Y0018880D01*
G01X0007739Y0018880D02*
G01X0007739Y0019128D01*
G01X0015724Y0002896D02*
G01X0015899Y0003072D01*
G01X0015899Y0003072D02*
G01X0016148Y0003072D01*
G01X0016148Y0003072D02*
G01X0016324Y0002896D01*
G01X0016324Y0002896D02*
G01X0016324Y0002647D01*
G01X0016324Y0002647D02*
G01X0016148Y0002472D01*
G01X0016148Y0002472D02*
G01X0015899Y0002472D01*
G01X0015899Y0002472D02*
G01X0015724Y0002647D01*
G01X0015724Y0002647D02*
G01X0015724Y0002896D01*
G01X0015724Y0001896D02*
G01X0015899Y0002072D01*
G01X0015899Y0002072D02*
G01X0016148Y0002072D01*
G01X0016148Y0002072D02*
G01X0016324Y0001896D01*
G01X0016324Y0001896D02*
G01X0016324Y0001647D01*
G01X0016324Y0001647D02*
G01X0016148Y0001472D01*
G01X0016148Y0001472D02*
G01X0015899Y0001472D01*
G01X0015899Y0001472D02*
G01X0015724Y0001647D01*
G01X0015724Y0001647D02*
G01X0015724Y0001896D01*
G01X0014724Y0002896D02*
G01X0014899Y0003072D01*
G01X0014899Y0003072D02*
G01X0015148Y0003072D01*
G01X0015148Y0003072D02*
G01X0015324Y0002896D01*
G01X0015324Y0002896D02*
G01X0015324Y0002647D01*
G01X0015324Y0002647D02*
G01X0015148Y0002472D01*
G01X0015148Y0002472D02*
G01X0014899Y0002472D01*
G01X0014899Y0002472D02*
G01X0014724Y0002647D01*
G01X0014724Y0002647D02*
G01X0014724Y0002896D01*
G01X0014724Y0001896D02*
G01X0014899Y0002072D01*
G01X0014899Y0002072D02*
G01X0015148Y0002072D01*
G01X0015148Y0002072D02*
G01X0015324Y0001896D01*
G01X0015324Y0001896D02*
G01X0015324Y0001647D01*
G01X0015324Y0001647D02*
G01X0015148Y0001472D01*
G01X0015148Y0001472D02*
G01X0014899Y0001472D01*
G01X0014899Y0001472D02*
G01X0014724Y0001647D01*
G01X0014724Y0001647D02*
G01X0014724Y0001896D01*
G01X0013724Y0002896D02*
G01X0013899Y0003072D01*
G01X0013899Y0003072D02*
G01X0014148Y0003072D01*
G01X0014148Y0003072D02*
G01X0014324Y0002896D01*
G01X0014324Y0002896D02*
G01X0014324Y0002647D01*
G01X0014324Y0002647D02*
G01X0014148Y0002472D01*
G01X0014148Y0002472D02*
G01X0013899Y0002472D01*
G01X0013899Y0002472D02*
G01X0013724Y0002647D01*
G01X0013724Y0002647D02*
G01X0013724Y0002896D01*
G01X0013724Y0001896D02*
G01X0013899Y0002072D01*
G01X0013899Y0002072D02*
G01X0014148Y0002072D01*
G01X0014148Y0002072D02*
G01X0014324Y0001896D01*
G01X0014324Y0001896D02*
G01X0014324Y0001647D01*
G01X0014324Y0001647D02*
G01X0014148Y0001472D01*
G01X0014148Y0001472D02*
G01X0013899Y0001472D01*
G01X0013899Y0001472D02*
G01X0013724Y0001647D01*
G01X0013724Y0001647D02*
G01X0013724Y0001896D01*
G01X0012724Y0002896D02*
G01X0012899Y0003072D01*
G01X0012899Y0003072D02*
G01X0013148Y0003072D01*
G01X0013148Y0003072D02*
G01X0013324Y0002896D01*
G01X0013324Y0002896D02*
G01X0013324Y0002647D01*
G01X0013324Y0002647D02*
G01X0013148Y0002472D01*
G01X0013148Y0002472D02*
G01X0012899Y0002472D01*
G01X0012899Y0002472D02*
G01X0012724Y0002647D01*
G01X0012724Y0002647D02*
G01X0012724Y0002896D01*
G01X0012724Y0001896D02*
G01X0012899Y0002072D01*
G01X0012899Y0002072D02*
G01X0013148Y0002072D01*
G01X0013148Y0002072D02*
G01X0013324Y0001896D01*
G01X0013324Y0001896D02*
G01X0013324Y0001647D01*
G01X0013324Y0001647D02*
G01X0013148Y0001472D01*
G01X0013148Y0001472D02*
G01X0012899Y0001472D01*
G01X0012899Y0001472D02*
G01X0012724Y0001647D01*
G01X0012724Y0001647D02*
G01X0012724Y0001896D01*
G01X0011724Y0002896D02*
G01X0011899Y0003072D01*
G01X0011899Y0003072D02*
G01X0012148Y0003072D01*
G01X0012148Y0003072D02*
G01X0012324Y0002896D01*
G01X0012324Y0002896D02*
G01X0012324Y0002647D01*
G01X0012324Y0002647D02*
G01X0012148Y0002472D01*
G01X0012148Y0002472D02*
G01X0011899Y0002472D01*
G01X0011899Y0002472D02*
G01X0011724Y0002647D01*
G01X0011724Y0002647D02*
G01X0011724Y0002896D01*
G01X0011724Y0001896D02*
G01X0011899Y0002072D01*
G01X0011899Y0002072D02*
G01X0012148Y0002072D01*
G01X0012148Y0002072D02*
G01X0012324Y0001896D01*
G01X0012324Y0001896D02*
G01X0012324Y0001647D01*
G01X0012324Y0001647D02*
G01X0012148Y0001472D01*
G01X0012148Y0001472D02*
G01X0011899Y0001472D01*
G01X0011899Y0001472D02*
G01X0011724Y0001647D01*
G01X0011724Y0001647D02*
G01X0011724Y0001896D01*
G01X0010724Y0002896D02*
G01X0010899Y0003072D01*
G01X0010899Y0003072D02*
G01X0011148Y0003072D01*
G01X0011148Y0003072D02*
G01X0011324Y0002896D01*
G01X0011324Y0002896D02*
G01X0011324Y0002647D01*
G01X0011324Y0002647D02*
G01X0011148Y0002472D01*
G01X0011148Y0002472D02*
G01X0010899Y0002472D01*
G01X0010899Y0002472D02*
G01X0010724Y0002647D01*
G01X0010724Y0002647D02*
G01X0010724Y0002896D01*
G01X0010724Y0001896D02*
G01X0010899Y0002072D01*
G01X0010899Y0002072D02*
G01X0011148Y0002072D01*
G01X0011148Y0002072D02*
G01X0011324Y0001896D01*
G01X0011324Y0001896D02*
G01X0011324Y0001647D01*
G01X0011324Y0001647D02*
G01X0011148Y0001472D01*
G01X0011148Y0001472D02*
G01X0010899Y0001472D01*
G01X0010899Y0001472D02*
G01X0010724Y0001647D01*
G01X0010724Y0001647D02*
G01X0010724Y0001896D01*
G01X0009724Y0002896D02*
G01X0009899Y0003072D01*
G01X0009899Y0003072D02*
G01X0010148Y0003072D01*
G01X0010148Y0003072D02*
G01X0010324Y0002896D01*
G01X0010324Y0002896D02*
G01X0010324Y0002647D01*
G01X0010324Y0002647D02*
G01X0010148Y0002472D01*
G01X0010148Y0002472D02*
G01X0009899Y0002472D01*
G01X0009899Y0002472D02*
G01X0009724Y0002647D01*
G01X0009724Y0002647D02*
G01X0009724Y0002896D01*
G01X0009724Y0001896D02*
G01X0009899Y0002072D01*
G01X0009899Y0002072D02*
G01X0010148Y0002072D01*
G01X0010148Y0002072D02*
G01X0010324Y0001896D01*
G01X0010324Y0001896D02*
G01X0010324Y0001647D01*
G01X0010324Y0001647D02*
G01X0010148Y0001472D01*
G01X0010148Y0001472D02*
G01X0009899Y0001472D01*
G01X0009899Y0001472D02*
G01X0009724Y0001647D01*
G01X0009724Y0001647D02*
G01X0009724Y0001896D01*
G01X0008724Y0002896D02*
G01X0008899Y0003072D01*
G01X0008899Y0003072D02*
G01X0009148Y0003072D01*
G01X0009148Y0003072D02*
G01X0009324Y0002896D01*
G01X0009324Y0002896D02*
G01X0009324Y0002647D01*
G01X0009324Y0002647D02*
G01X0009148Y0002472D01*
G01X0009148Y0002472D02*
G01X0008899Y0002472D01*
G01X0008899Y0002472D02*
G01X0008724Y0002647D01*
G01X0008724Y0002647D02*
G01X0008724Y0002896D01*
G01X0008724Y0001896D02*
G01X0008899Y0002072D01*
G01X0008899Y0002072D02*
G01X0009148Y0002072D01*
G01X0009148Y0002072D02*
G01X0009324Y0001896D01*
G01X0009324Y0001896D02*
G01X0009324Y0001647D01*
G01X0009324Y0001647D02*
G01X0009148Y0001472D01*
G01X0009148Y0001472D02*
G01X0008899Y0001472D01*
G01X0008899Y0001472D02*
G01X0008724Y0001647D01*
G01X0008724Y0001647D02*
G01X0008724Y0001896D01*
G01X0007724Y0002896D02*
G01X0007899Y0003072D01*
G01X0007899Y0003072D02*
G01X0008148Y0003072D01*
G01X0008148Y0003072D02*
G01X0008324Y0002896D01*
G01X0008324Y0002896D02*
G01X0008324Y0002647D01*
G01X0008324Y0002647D02*
G01X0008148Y0002472D01*
G01X0008148Y0002472D02*
G01X0007899Y0002472D01*
G01X0007899Y0002472D02*
G01X0007724Y0002647D01*
G01X0007724Y0002647D02*
G01X0007724Y0002896D01*
G01X0007724Y0001896D02*
G01X0007899Y0002072D01*
G01X0007899Y0002072D02*
G01X0008148Y0002072D01*
G01X0008148Y0002072D02*
G01X0008324Y0001896D01*
G01X0008324Y0001896D02*
G01X0008324Y0001647D01*
G01X0008324Y0001647D02*
G01X0008148Y0001472D01*
G01X0008148Y0001472D02*
G01X0007899Y0001472D01*
G01X0007899Y0001472D02*
G01X0007724Y0001647D01*
G01X0007724Y0001647D02*
G01X0007724Y0001896D01*
G01X0006724Y0002896D02*
G01X0006899Y0003072D01*
G01X0006899Y0003072D02*
G01X0007148Y0003072D01*
G01X0007148Y0003072D02*
G01X0007324Y0002896D01*
G01X0007324Y0002896D02*
G01X0007324Y0002647D01*
G01X0007324Y0002647D02*
G01X0007148Y0002472D01*
G01X0007148Y0002472D02*
G01X0006899Y0002472D01*
G01X0006899Y0002472D02*
G01X0006724Y0002647D01*
G01X0006724Y0002647D02*
G01X0006724Y0002896D01*
G01X0018810Y0019183D02*
G01X0018986Y0019359D01*
G01X0018986Y0019359D02*
G01X0019234Y0019359D01*
G01X0019234Y0019359D02*
G01X0019410Y0019183D01*
G01X0019410Y0019183D02*
G01X0019410Y0018935D01*
G01X0019410Y0018935D02*
G01X0019234Y0018759D01*
G01X0019234Y0018759D02*
G01X0018986Y0018759D01*
G01X0018986Y0018759D02*
G01X0018810Y0018935D01*
G01X0018810Y0018935D02*
G01X0018810Y0019183D01*
G01X0017810Y0019183D02*
G01X0017986Y0019359D01*
G01X0017986Y0019359D02*
G01X0018234Y0019359D01*
G01X0018234Y0019359D02*
G01X0018410Y0019183D01*
G01X0018410Y0019183D02*
G01X0018410Y0018935D01*
G01X0018410Y0018935D02*
G01X0018234Y0018759D01*
G01X0018234Y0018759D02*
G01X0017986Y0018759D01*
G01X0017986Y0018759D02*
G01X0017810Y0018935D01*
G01X0017810Y0018935D02*
G01X0017810Y0019183D01*
G01X0018806Y0017801D02*
G01X0018982Y0017977D01*
G01X0018982Y0017977D02*
G01X0019231Y0017977D01*
G01X0019231Y0017977D02*
G01X0019406Y0017801D01*
G01X0019406Y0017801D02*
G01X0019406Y0017553D01*
G01X0019406Y0017553D02*
G01X0019231Y0017377D01*
G01X0019231Y0017377D02*
G01X0018982Y0017377D01*
G01X0018982Y0017377D02*
G01X0018806Y0017553D01*
G01X0018806Y0017553D02*
G01X0018806Y0017801D01*
G01X0017806Y0017801D02*
G01X0017982Y0017977D01*
G01X0017982Y0017977D02*
G01X0018231Y0017977D01*
G01X0018231Y0017977D02*
G01X0018406Y0017801D01*
G01X0018406Y0017801D02*
G01X0018406Y0017553D01*
G01X0018406Y0017553D02*
G01X0018231Y0017377D01*
G01X0018231Y0017377D02*
G01X0017982Y0017377D01*
G01X0017982Y0017377D02*
G01X0017806Y0017553D01*
G01X0017806Y0017553D02*
G01X0017806Y0017801D01*
G01X0004956Y0004829D02*
G01X0005132Y0004653D01*
G01X0005132Y0004653D02*
G01X0005380Y0004653D01*
G01X0005380Y0004653D02*
G01X0005556Y0004829D01*
G01X0005556Y0004829D02*
G01X0005556Y0005077D01*
G01X0005556Y0005077D02*
G01X0005380Y0005253D01*
G01X0005380Y0005253D02*
G01X0005132Y0005253D01*
G01X0005132Y0005253D02*
G01X0004956Y0005077D01*
G01X0004956Y0005077D02*
G01X0004956Y0004829D01*
G01X0003956Y0004829D02*
G01X0004132Y0004653D01*
G01X0004132Y0004653D02*
G01X0004380Y0004653D01*
G01X0004380Y0004653D02*
G01X0004556Y0004829D01*
G01X0004556Y0004829D02*
G01X0004556Y0005077D01*
G01X0004556Y0005077D02*
G01X0004380Y0005253D01*
G01X0004380Y0005253D02*
G01X0004132Y0005253D01*
G01X0004132Y0005253D02*
G01X0003956Y0005077D01*
G01X0003956Y0005077D02*
G01X0003956Y0004829D01*
G01X0002956Y0004829D02*
G01X0003132Y0004653D01*
G01X0003132Y0004653D02*
G01X0003380Y0004653D01*
G01X0003380Y0004653D02*
G01X0003556Y0004829D01*
G01X0003556Y0004829D02*
G01X0003556Y0005077D01*
G01X0003556Y0005077D02*
G01X0003380Y0005253D01*
G01X0003380Y0005253D02*
G01X0003132Y0005253D01*
G01X0003132Y0005253D02*
G01X0002956Y0005077D01*
G01X0002956Y0005077D02*
G01X0002956Y0004829D01*
G01X0001956Y0004829D02*
G01X0002132Y0004653D01*
G01X0002132Y0004653D02*
G01X0002380Y0004653D01*
G01X0002380Y0004653D02*
G01X0002556Y0004829D01*
G01X0002556Y0004829D02*
G01X0002556Y0005077D01*
G01X0002556Y0005077D02*
G01X0002380Y0005253D01*
G01X0002380Y0005253D02*
G01X0002132Y0005253D01*
G01X0002132Y0005253D02*
G01X0001956Y0005077D01*
G01X0001956Y0005077D02*
G01X0001956Y0004829D01*
G01X0018073Y0011275D02*
G01X0017897Y0011451D01*
G01X0017897Y0011451D02*
G01X0017897Y0011699D01*
G01X0017897Y0011699D02*
G01X0018073Y0011875D01*
G01X0018073Y0011875D02*
G01X0018321Y0011875D01*
G01X0018321Y0011875D02*
G01X0018497Y0011699D01*
G01X0018497Y0011699D02*
G01X0018497Y0011451D01*
G01X0018497Y0011451D02*
G01X0018321Y0011275D01*
G01X0018321Y0011275D02*
G01X0018073Y0011275D01*
G01X0019073Y0011275D02*
G01X0018897Y0011451D01*
G01X0018897Y0011451D02*
G01X0018897Y0011699D01*
G01X0018897Y0011699D02*
G01X0019073Y0011875D01*
G01X0019073Y0011875D02*
G01X0019321Y0011875D01*
G01X0019321Y0011875D02*
G01X0019497Y0011699D01*
G01X0019497Y0011699D02*
G01X0019497Y0011451D01*
G01X0019497Y0011451D02*
G01X0019321Y0011275D01*
G01X0019321Y0011275D02*
G01X0019073Y0011275D01*
G01X0018073Y0010275D02*
G01X0017897Y0010451D01*
G01X0017897Y0010451D02*
G01X0017897Y0010699D01*
G01X0017897Y0010699D02*
G01X0018073Y0010875D01*
G01X0018073Y0010875D02*
G01X0018321Y0010875D01*
G01X0018321Y0010875D02*
G01X0018497Y0010699D01*
G01X0018497Y0010699D02*
G01X0018497Y0010451D01*
G01X0018497Y0010451D02*
G01X0018321Y0010275D01*
G01X0018321Y0010275D02*
G01X0018073Y0010275D01*
G01X0019073Y0010275D02*
G01X0018897Y0010451D01*
G01X0018897Y0010451D02*
G01X0018897Y0010699D01*
G01X0018897Y0010699D02*
G01X0019073Y0010875D01*
G01X0019073Y0010875D02*
G01X0019321Y0010875D01*
G01X0019321Y0010875D02*
G01X0019497Y0010699D01*
G01X0019497Y0010699D02*
G01X0019497Y0010451D01*
G01X0019497Y0010451D02*
G01X0019321Y0010275D01*
G01X0019321Y0010275D02*
G01X0019073Y0010275D01*
G01X0018073Y0009275D02*
G01X0017897Y0009451D01*
G01X0017897Y0009451D02*
G01X0017897Y0009699D01*
G01X0017897Y0009699D02*
G01X0018073Y0009875D01*
G01X0018073Y0009875D02*
G01X0018321Y0009875D01*
G01X0018321Y0009875D02*
G01X0018497Y0009699D01*
G01X0018497Y0009699D02*
G01X0018497Y0009451D01*
G01X0018497Y0009451D02*
G01X0018321Y0009275D01*
G01X0018321Y0009275D02*
G01X0018073Y0009275D01*
G01X0019073Y0009275D02*
G01X0018897Y0009451D01*
G01X0018897Y0009451D02*
G01X0018897Y0009699D01*
G01X0018897Y0009699D02*
G01X0019073Y0009875D01*
G01X0019073Y0009875D02*
G01X0019321Y0009875D01*
G01X0019321Y0009875D02*
G01X0019497Y0009699D01*
G01X0019497Y0009699D02*
G01X0019497Y0009451D01*
G01X0019497Y0009451D02*
G01X0019321Y0009275D01*
G01X0019321Y0009275D02*
G01X0019073Y0009275D01*
G01X0018073Y0008275D02*
G01X0017897Y0008451D01*
G01X0017897Y0008451D02*
G01X0017897Y0008699D01*
G01X0017897Y0008699D02*
G01X0018073Y0008875D01*
G01X0018073Y0008875D02*
G01X0018321Y0008875D01*
G01X0018321Y0008875D02*
G01X0018497Y0008699D01*
G01X0018497Y0008699D02*
G01X0018497Y0008451D01*
G01X0018497Y0008451D02*
G01X0018321Y0008275D01*
G01X0018321Y0008275D02*
G01X0018073Y0008275D01*
G01X0018810Y0016423D02*
G01X0018986Y0016599D01*
G01X0018986Y0016599D02*
G01X0019234Y0016599D01*
G01X0019234Y0016599D02*
G01X0019410Y0016423D01*
G01X0019410Y0016423D02*
G01X0019410Y0016175D01*
G01X0019410Y0016175D02*
G01X0019234Y0015999D01*
G01X0019234Y0015999D02*
G01X0018986Y0015999D01*
G01X0018986Y0015999D02*
G01X0018810Y0016175D01*
G01X0018810Y0016175D02*
G01X0018810Y0016423D01*
G01X0017810Y0016423D02*
G01X0017986Y0016599D01*
G01X0017986Y0016599D02*
G01X0018234Y0016599D01*
G01X0018234Y0016599D02*
G01X0018410Y0016423D01*
G01X0018410Y0016423D02*
G01X0018410Y0016175D01*
G01X0018410Y0016175D02*
G01X0018234Y0015999D01*
G01X0018234Y0015999D02*
G01X0017986Y0015999D01*
G01X0017986Y0015999D02*
G01X0017810Y0016175D01*
G01X0017810Y0016175D02*
G01X0017810Y0016423D01*
G01X0016810Y0016423D02*
G01X0016986Y0016599D01*
G01X0016986Y0016599D02*
G01X0017234Y0016599D01*
G01X0017234Y0016599D02*
G01X0017410Y0016423D01*
G01X0017410Y0016423D02*
G01X0017410Y0016175D01*
G01X0017410Y0016175D02*
G01X0017234Y0015999D01*
G01X0017234Y0015999D02*
G01X0016986Y0015999D01*
G01X0016986Y0015999D02*
G01X0016810Y0016175D01*
G01X0016810Y0016175D02*
G01X0016810Y0016423D01*
G01X0018806Y0015038D02*
G01X0018982Y0015213D01*
G01X0018982Y0015213D02*
G01X0019231Y0015213D01*
G01X0019231Y0015213D02*
G01X0019406Y0015038D01*
G01X0019406Y0015038D02*
G01X0019406Y0014789D01*
G01X0019406Y0014789D02*
G01X0019231Y0014613D01*
G01X0019231Y0014613D02*
G01X0018982Y0014613D01*
G01X0018982Y0014613D02*
G01X0018806Y0014789D01*
G01X0018806Y0014789D02*
G01X0018806Y0015038D01*
G01X0017806Y0015038D02*
G01X0017982Y0015213D01*
G01X0017982Y0015213D02*
G01X0018231Y0015213D01*
G01X0018231Y0015213D02*
G01X0018406Y0015038D01*
G01X0018406Y0015038D02*
G01X0018406Y0014789D01*
G01X0018406Y0014789D02*
G01X0018231Y0014613D01*
G01X0018231Y0014613D02*
G01X0017982Y0014613D01*
G01X0017982Y0014613D02*
G01X0017806Y0014789D01*
G01X0017806Y0014789D02*
G01X0017806Y0015038D01*
G54D29*
G01X0011819Y0007744D02*
G01X0011627Y0006996D01*
G01X0012403Y0008308D02*
G01X0013064Y0008309D01*
G01X0011819Y0007744D02*
G01X0012403Y0008308D01*
G01X0011819Y0009004D02*
G01X0011627Y0009752D01*
G01X0012413Y0008509D02*
G01X0013064Y0008509D01*
G01X0011819Y0009004D02*
G01X0012413Y0008509D01*
G54D30*
G01X0005150Y0006927D02*
G01X0006456Y0006927D01*
G01X0006456Y0006927D02*
G01X0006456Y0010640D01*
G01X0006456Y0010640D02*
G01X0005528Y0010640D01*
G01X0005528Y0010640D02*
G01X0005512Y0010640D01*
G01X0005512Y0010640D02*
G01X0005500Y0010610D01*
G01X0005500Y0010610D02*
G01X0005531Y0010533D01*
G01X0005531Y0010533D02*
G01X0005531Y0010478D01*
G01X0005531Y0010478D02*
G01X0005531Y0010242D01*
G01X0005531Y0010242D02*
G01X0005532Y0010188D01*
G01X0005532Y0010188D02*
G01X0005500Y0010110D01*
G01X0005500Y0010110D02*
G01X0005531Y0010033D01*
G01X0005531Y0010033D02*
G01X0005531Y0009978D01*
G01X0005531Y0009978D02*
G01X0005531Y0009742D01*
G01X0005531Y0009742D02*
G01X0005532Y0009688D01*
G01X0005532Y0009688D02*
G01X0005490Y0009586D01*
G01X0005490Y0009586D02*
G01X0005412Y0009509D01*
G01X0005412Y0009509D02*
G01X0005311Y0009467D01*
G01X0005311Y0009467D02*
G01X0005256Y0009467D01*
G01X0005256Y0009467D02*
G01X0004445Y0009467D01*
G01X0004445Y0009467D02*
G01X0004390Y0009467D01*
G01X0004390Y0009467D02*
G01X0004335Y0009467D01*
G01X0004335Y0009467D02*
G01X0004265Y0009496D01*
G01X0004265Y0009496D02*
G01X0004232Y0009482D01*
G01X0004232Y0009482D02*
G01X0004212Y0009482D01*
G01X0004212Y0009482D02*
G01X0004212Y0009449D01*
G01X0004212Y0009449D02*
G01X0004983Y0009449D01*
G01X0004983Y0009449D02*
G01X0005031Y0009449D01*
G01X0005031Y0009449D02*
G01X0005080Y0009449D01*
G01X0005080Y0009449D02*
G01X0005150Y0009380D01*
G01X0005150Y0009380D02*
G01X0005150Y0009331D01*
G01X0005150Y0009331D02*
G01X0005150Y0009282D01*
G01X0005150Y0009282D02*
G01X0005150Y0006927D01*
G01X0005150Y0006927D02*
G01X0005150Y0006927D01*
G01X0005409Y0011633D02*
G01X0005388Y0011607D01*
G01X0005388Y0011607D02*
G01X0005332Y0011569D01*
G01X0005332Y0011569D02*
G01X0005374Y0011527D01*
G01X0005374Y0011527D02*
G01X0005374Y0011478D01*
G01X0005374Y0011478D02*
G01X0005374Y0011242D01*
G01X0005374Y0011242D02*
G01X0005374Y0011228D01*
G01X0005374Y0011228D02*
G01X0005409Y0011213D01*
G01X0005409Y0011213D02*
G01X0005409Y0011633D01*
G01X0005409Y0011633D02*
G01X0005409Y0011633D01*
G01X0001134Y0009693D02*
G01X0001076Y0009669D01*
G01X0001076Y0009669D02*
G01X0000982Y0009669D01*
G01X0000982Y0009669D02*
G01X0000679Y0009669D01*
G01X0000679Y0009669D02*
G01X0000679Y0006900D01*
G01X0000679Y0006900D02*
G01X0002374Y0006900D01*
G01X0002374Y0006900D02*
G01X0002374Y0006924D01*
G01X0002374Y0006924D02*
G01X0002374Y0009331D01*
G01X0002374Y0009331D02*
G01X0002374Y0009366D01*
G01X0002374Y0009366D02*
G01X0002401Y0009431D01*
G01X0002401Y0009431D02*
G01X0002451Y0009481D01*
G01X0002451Y0009481D02*
G01X0002516Y0009508D01*
G01X0002516Y0009508D02*
G01X0002551Y0009508D01*
G01X0002551Y0009508D02*
G01X0003263Y0009508D01*
G01X0003263Y0009508D02*
G01X0003205Y0009565D01*
G01X0003205Y0009565D02*
G01X0002416Y0009565D01*
G01X0002416Y0009565D02*
G01X0002343Y0009565D01*
G01X0002343Y0009565D02*
G01X0002269Y0009565D01*
G01X0002269Y0009565D02*
G01X0002165Y0009669D01*
G01X0002165Y0009669D02*
G01X0002165Y0009742D01*
G01X0002165Y0009742D02*
G01X0002165Y0009816D01*
G01X0002165Y0009816D02*
G01X0002165Y0009822D01*
G01X0002165Y0009822D02*
G01X0002157Y0009821D01*
G01X0002157Y0009821D02*
G01X0002157Y0009205D01*
G01X0002157Y0009205D02*
G01X0002158Y0009170D01*
G01X0002158Y0009170D02*
G01X0002131Y0009104D01*
G01X0002131Y0009104D02*
G01X0002081Y0009055D01*
G01X0002081Y0009055D02*
G01X0002016Y0009028D01*
G01X0002016Y0009028D02*
G01X0001980Y0009028D01*
G01X0001980Y0009028D02*
G01X0001384Y0009028D01*
G01X0001384Y0009028D02*
G01X0001311Y0009028D01*
G01X0001311Y0009028D02*
G01X0001238Y0009028D01*
G01X0001238Y0009028D02*
G01X0001134Y0009131D01*
G01X0001134Y0009131D02*
G01X0001134Y0009205D01*
G01X0001134Y0009205D02*
G01X0001134Y0009278D01*
G01X0001134Y0009278D02*
G01X0001134Y0009693D01*
G01X0001134Y0009693D02*
G01X0001134Y0009693D01*
G01X0000917Y0010819D02*
G01X0000917Y0010897D01*
G01X0000917Y0010897D02*
G01X0000917Y0011528D01*
G01X0000917Y0011528D02*
G01X0000917Y0011606D01*
G01X0000917Y0011606D02*
G01X0000933Y0011644D01*
G01X0000933Y0011644D02*
G01X0000925Y0011662D01*
G01X0000925Y0011662D02*
G01X0000925Y0011756D01*
G01X0000925Y0011756D02*
G01X0000925Y0012224D01*
G01X0000925Y0012224D02*
G01X0000925Y0012318D01*
G01X0000925Y0012318D02*
G01X0000997Y0012492D01*
G01X0000997Y0012492D02*
G01X0001130Y0012625D01*
G01X0001130Y0012625D02*
G01X0001242Y0012671D01*
G01X0001242Y0012671D02*
G01X0001242Y0013563D01*
G01X0001242Y0013563D02*
G01X0001242Y0013608D01*
G01X0001242Y0013608D02*
G01X0001276Y0013692D01*
G01X0001276Y0013692D02*
G01X0001341Y0013757D01*
G01X0001341Y0013757D02*
G01X0001425Y0013792D01*
G01X0001425Y0013792D02*
G01X0001470Y0013792D01*
G01X0001470Y0013792D02*
G01X0002449Y0013792D01*
G01X0002449Y0013792D02*
G01X0002449Y0013795D01*
G01X0002449Y0013795D02*
G01X0002482Y0013850D01*
G01X0002482Y0013850D02*
G01X0002775Y0014338D01*
G01X0002775Y0014338D02*
G01X0002757Y0014338D01*
G01X0002757Y0014338D02*
G01X0002673Y0014373D01*
G01X0002673Y0014373D02*
G01X0002609Y0014437D01*
G01X0002609Y0014437D02*
G01X0002574Y0014521D01*
G01X0002574Y0014521D02*
G01X0002574Y0014567D01*
G01X0002574Y0014567D02*
G01X0002574Y0014882D01*
G01X0002574Y0014882D02*
G01X0002574Y0014927D01*
G01X0002574Y0014927D02*
G01X0002608Y0015011D01*
G01X0002608Y0015011D02*
G01X0002673Y0015076D01*
G01X0002673Y0015076D02*
G01X0002731Y0015100D01*
G01X0002731Y0015100D02*
G01X0000679Y0015100D01*
G01X0000679Y0015100D02*
G01X0000679Y0010141D01*
G01X0000679Y0010141D02*
G01X0000982Y0010141D01*
G01X0000982Y0010141D02*
G01X0001088Y0010247D01*
G01X0001088Y0010247D02*
G01X0001232Y0010307D01*
G01X0001232Y0010307D02*
G01X0001311Y0010307D01*
G01X0001311Y0010307D02*
G01X0001980Y0010307D01*
G01X0001980Y0010307D02*
G01X0002058Y0010307D01*
G01X0002058Y0010307D02*
G01X0002098Y0010291D01*
G01X0002098Y0010291D02*
G01X0002114Y0010306D01*
G01X0002114Y0010306D02*
G01X0002114Y0010414D01*
G01X0002114Y0010414D02*
G01X0002090Y0010438D01*
G01X0002090Y0010438D02*
G01X0002059Y0010425D01*
G01X0002059Y0010425D02*
G01X0001980Y0010425D01*
G01X0001980Y0010425D02*
G01X0001389Y0010425D01*
G01X0001389Y0010425D02*
G01X0001311Y0010425D01*
G01X0001311Y0010425D02*
G01X0001233Y0010425D01*
G01X0001233Y0010425D02*
G01X0001088Y0010485D01*
G01X0001088Y0010485D02*
G01X0000977Y0010596D01*
G01X0000977Y0010596D02*
G01X0000917Y0010741D01*
G01X0000917Y0010741D02*
G01X0000917Y0010819D01*
G01X0000917Y0010819D02*
G01X0000917Y0010819D01*
G01X0003602Y0009836D02*
G01X0004161Y0009836D01*
G01X0004161Y0009836D02*
G01X0004161Y0009978D01*
G01X0004161Y0009978D02*
G01X0004161Y0010024D01*
G01X0004161Y0010024D02*
G01X0004196Y0010108D01*
G01X0004196Y0010108D02*
G01X0004198Y0010110D01*
G01X0004198Y0010110D02*
G01X0004196Y0010113D01*
G01X0004196Y0010113D02*
G01X0004161Y0010197D01*
G01X0004161Y0010197D02*
G01X0004161Y0010242D01*
G01X0004161Y0010242D02*
G01X0004161Y0010288D01*
G01X0004161Y0010288D02*
G01X0004161Y0010478D01*
G01X0004161Y0010478D02*
G01X0004161Y0010524D01*
G01X0004161Y0010524D02*
G01X0004196Y0010608D01*
G01X0004196Y0010608D02*
G01X0004198Y0010610D01*
G01X0004198Y0010610D02*
G01X0004196Y0010613D01*
G01X0004196Y0010613D02*
G01X0004161Y0010697D01*
G01X0004161Y0010697D02*
G01X0004161Y0010742D01*
G01X0004161Y0010742D02*
G01X0004161Y0010756D01*
G01X0004161Y0010756D02*
G01X0003487Y0010756D01*
G01X0003487Y0010756D02*
G01X0003542Y0010702D01*
G01X0003542Y0010702D02*
G01X0003602Y0010557D01*
G01X0003602Y0010557D02*
G01X0003602Y0010478D01*
G01X0003602Y0010478D02*
G01X0003602Y0010242D01*
G01X0003602Y0010242D02*
G01X0003602Y0010164D01*
G01X0003602Y0010164D02*
G01X0003580Y0010110D01*
G01X0003580Y0010110D02*
G01X0003602Y0010057D01*
G01X0003602Y0010057D02*
G01X0003602Y0009978D01*
G01X0003602Y0009978D02*
G01X0003602Y0009836D01*
G01X0003602Y0009836D02*
G01X0003602Y0009836D01*
G01X0002888Y0013607D02*
G01X0002888Y0013563D01*
G01X0002888Y0013563D02*
G01X0002888Y0012696D01*
G01X0002888Y0012696D02*
G01X0002888Y0012618D01*
G01X0002888Y0012618D02*
G01X0002888Y0012540D01*
G01X0002888Y0012540D02*
G01X0002828Y0012395D01*
G01X0002828Y0012395D02*
G01X0002717Y0012284D01*
G01X0002717Y0012284D02*
G01X0002572Y0012224D01*
G01X0002572Y0012224D02*
G01X0002494Y0012224D01*
G01X0002494Y0012224D02*
G01X0002416Y0012224D01*
G01X0002416Y0012224D02*
G01X0001470Y0012224D01*
G01X0001470Y0012224D02*
G01X0001398Y0012224D01*
G01X0001398Y0012224D02*
G01X0001398Y0011756D01*
G01X0001398Y0011756D02*
G01X0001980Y0011756D01*
G01X0001980Y0011756D02*
G01X0002026Y0011756D01*
G01X0002026Y0011756D02*
G01X0002110Y0011722D01*
G01X0002110Y0011722D02*
G01X0002174Y0011657D01*
G01X0002174Y0011657D02*
G01X0002181Y0011640D01*
G01X0002181Y0011640D02*
G01X0002213Y0011672D01*
G01X0002213Y0011672D02*
G01X0002297Y0011707D01*
G01X0002297Y0011707D02*
G01X0002343Y0011707D01*
G01X0002343Y0011707D02*
G01X0003209Y0011707D01*
G01X0003209Y0011707D02*
G01X0003254Y0011707D01*
G01X0003254Y0011707D02*
G01X0003338Y0011672D01*
G01X0003338Y0011672D02*
G01X0003402Y0011608D01*
G01X0003402Y0011608D02*
G01X0003437Y0011524D01*
G01X0003437Y0011524D02*
G01X0003437Y0011478D01*
G01X0003437Y0011478D02*
G01X0003437Y0011242D01*
G01X0003437Y0011242D02*
G01X0003437Y0011197D01*
G01X0003437Y0011197D02*
G01X0003403Y0011113D01*
G01X0003403Y0011113D02*
G01X0003400Y0011110D01*
G01X0003400Y0011110D02*
G01X0003402Y0011108D01*
G01X0003402Y0011108D02*
G01X0003437Y0011024D01*
G01X0003437Y0011024D02*
G01X0003437Y0010978D01*
G01X0003437Y0010978D02*
G01X0003437Y0010861D01*
G01X0003437Y0010861D02*
G01X0004161Y0010861D01*
G01X0004161Y0010861D02*
G01X0004161Y0010914D01*
G01X0004161Y0010914D02*
G01X0004056Y0011019D01*
G01X0004056Y0011019D02*
G01X0003996Y0011164D01*
G01X0003996Y0011164D02*
G01X0003996Y0011242D01*
G01X0003996Y0011242D02*
G01X0003996Y0011320D01*
G01X0003996Y0011320D02*
G01X0003996Y0011478D01*
G01X0003996Y0011478D02*
G01X0003996Y0011556D01*
G01X0003996Y0011556D02*
G01X0004056Y0011701D01*
G01X0004056Y0011701D02*
G01X0004166Y0011812D01*
G01X0004166Y0011812D02*
G01X0004311Y0011872D01*
G01X0004311Y0011872D02*
G01X0004390Y0011872D01*
G01X0004390Y0011872D02*
G01X0005147Y0011872D01*
G01X0005147Y0011872D02*
G01X0005194Y0011985D01*
G01X0005194Y0011985D02*
G01X0005304Y0012095D01*
G01X0005304Y0012095D02*
G01X0005449Y0012155D01*
G01X0005449Y0012155D02*
G01X0005528Y0012156D01*
G01X0005528Y0012156D02*
G01X0006434Y0012156D01*
G01X0006434Y0012156D02*
G01X0006456Y0012156D01*
G01X0006456Y0012156D02*
G01X0006456Y0012529D01*
G01X0006456Y0012529D02*
G01X0005528Y0012529D01*
G01X0005528Y0012529D02*
G01X0005482Y0012529D01*
G01X0005482Y0012529D02*
G01X0005398Y0012564D01*
G01X0005398Y0012564D02*
G01X0005334Y0012628D01*
G01X0005334Y0012628D02*
G01X0005299Y0012712D01*
G01X0005299Y0012712D02*
G01X0005299Y0012758D01*
G01X0005299Y0012758D02*
G01X0005299Y0013762D01*
G01X0005299Y0013762D02*
G01X0005299Y0013807D01*
G01X0005299Y0013807D02*
G01X0005334Y0013891D01*
G01X0005334Y0013891D02*
G01X0005398Y0013956D01*
G01X0005398Y0013956D02*
G01X0005482Y0013991D01*
G01X0005482Y0013991D02*
G01X0005528Y0013991D01*
G01X0005528Y0013991D02*
G01X0006456Y0013991D01*
G01X0006456Y0013991D02*
G01X0006456Y0014075D01*
G01X0006456Y0014075D02*
G01X0006045Y0014075D01*
G01X0006045Y0014075D02*
G01X0005967Y0014075D01*
G01X0005967Y0014075D02*
G01X0005822Y0014135D01*
G01X0005822Y0014135D02*
G01X0005711Y0014245D01*
G01X0005711Y0014245D02*
G01X0005701Y0014270D01*
G01X0005701Y0014270D02*
G01X0005690Y0014245D01*
G01X0005690Y0014245D02*
G01X0005580Y0014135D01*
G01X0005580Y0014135D02*
G01X0005435Y0014075D01*
G01X0005435Y0014075D02*
G01X0005357Y0014075D01*
G01X0005357Y0014075D02*
G01X0005278Y0014075D01*
G01X0005278Y0014075D02*
G01X0004845Y0014075D01*
G01X0004845Y0014075D02*
G01X0004767Y0014075D01*
G01X0004767Y0014075D02*
G01X0004622Y0014135D01*
G01X0004622Y0014135D02*
G01X0004511Y0014245D01*
G01X0004511Y0014245D02*
G01X0004451Y0014390D01*
G01X0004451Y0014390D02*
G01X0004451Y0014469D01*
G01X0004451Y0014469D02*
G01X0004451Y0015072D01*
G01X0004451Y0015072D02*
G01X0003850Y0015072D01*
G01X0003850Y0015072D02*
G01X0003911Y0015012D01*
G01X0003911Y0015012D02*
G01X0003946Y0014928D01*
G01X0003946Y0014928D02*
G01X0003946Y0014882D01*
G01X0003946Y0014882D02*
G01X0003946Y0014612D01*
G01X0003946Y0014612D02*
G01X0003946Y0014567D01*
G01X0003946Y0014567D02*
G01X0003946Y0014521D01*
G01X0003946Y0014521D02*
G01X0003911Y0014437D01*
G01X0003911Y0014437D02*
G01X0003847Y0014373D01*
G01X0003847Y0014373D02*
G01X0003763Y0014338D01*
G01X0003763Y0014338D02*
G01X0003717Y0014338D01*
G01X0003717Y0014338D02*
G01X0003672Y0014338D01*
G01X0003672Y0014338D02*
G01X0003445Y0014338D01*
G01X0003445Y0014338D02*
G01X0003340Y0014233D01*
G01X0003340Y0014233D02*
G01X0003237Y0014190D01*
G01X0003237Y0014190D02*
G01X0002888Y0013607D01*
G01X0003970Y0012389D02*
G01X0003925Y0012389D01*
G01X0003925Y0012389D02*
G01X0003841Y0012424D01*
G01X0003841Y0012424D02*
G01X0003777Y0012488D01*
G01X0003777Y0012488D02*
G01X0003742Y0012572D01*
G01X0003742Y0012572D02*
G01X0003742Y0012618D01*
G01X0003742Y0012618D02*
G01X0003742Y0013563D01*
G01X0003742Y0013563D02*
G01X0003742Y0013608D01*
G01X0003742Y0013608D02*
G01X0003776Y0013692D01*
G01X0003776Y0013692D02*
G01X0003841Y0013757D01*
G01X0003841Y0013757D02*
G01X0003925Y0013792D01*
G01X0003925Y0013792D02*
G01X0003970Y0013792D01*
G01X0003970Y0013792D02*
G01X0004994Y0013792D01*
G01X0004994Y0013792D02*
G01X0005039Y0013792D01*
G01X0005039Y0013792D02*
G01X0005124Y0013757D01*
G01X0005124Y0013757D02*
G01X0005188Y0013693D01*
G01X0005188Y0013693D02*
G01X0005223Y0013609D01*
G01X0005223Y0013609D02*
G01X0005223Y0013563D01*
G01X0005223Y0013563D02*
G01X0005223Y0012664D01*
G01X0005223Y0012664D02*
G01X0005223Y0012618D01*
G01X0005223Y0012618D02*
G01X0005223Y0012573D01*
G01X0005223Y0012573D02*
G01X0005188Y0012489D01*
G01X0005188Y0012489D02*
G01X0005124Y0012424D01*
G01X0005124Y0012424D02*
G01X0005040Y0012389D01*
G01X0005040Y0012389D02*
G01X0004994Y0012389D01*
G01X0004994Y0012389D02*
G01X0004949Y0012389D01*
G01X0004949Y0012389D02*
G01X0003970Y0012389D01*
G54D31*
G01X0004598Y0008091D02*
G01X0005150Y0008091D01*
G01X0004598Y0008898D02*
G01X0004598Y0009449D01*
G01X0006020Y0011250D02*
G01X0006020Y0010640D01*
G01X0006020Y0011260D02*
G01X0005409Y0011260D01*
G01X0005138Y0011360D02*
G01X0005374Y0011360D01*
G01X0001646Y0009559D02*
G01X0001134Y0009559D01*
G01X0001646Y0009559D02*
G01X0002157Y0009559D01*
G01X0001646Y0009539D02*
G01X0001646Y0009028D01*
G01X0002984Y0008091D02*
G01X0002374Y0008091D01*
G01X0002984Y0008898D02*
G01X0002984Y0009508D01*
G01X0002776Y0009860D02*
G01X0002776Y0009565D01*
G01X0002960Y0014724D02*
G01X0002574Y0014724D01*
G01X0001943Y0013091D02*
G01X0001242Y0013091D01*
G01X0001982Y0013091D02*
G01X0001982Y0013792D01*
G01X0002461Y0010360D02*
G01X0002114Y0010360D01*
G01X0004508Y0009860D02*
G01X0004161Y0009860D01*
G01X0004508Y0010360D02*
G01X0004161Y0010360D01*
G01X0001646Y0011193D02*
G01X0001646Y0011756D01*
G01X0003560Y0014724D02*
G01X0003946Y0014724D01*
G01X0003560Y0014724D02*
G01X0003560Y0014338D01*
G01X0006020Y0013250D02*
G01X0006020Y0012529D01*
G01X0006020Y0013260D02*
G01X0005299Y0013260D01*
G01X0006020Y0013270D02*
G01X0006020Y0013991D01*
G01X0004482Y0013091D02*
G01X0004482Y0012389D01*
G01X0004443Y0013091D02*
G01X0003742Y0013091D01*
G01X0004482Y0013091D02*
G01X0004482Y0013792D01*
G01X0004522Y0013091D02*
G01X0005223Y0013091D01*
G01X0002776Y0011360D02*
G01X0002776Y0011707D01*
G01X0003091Y0011360D02*
G01X0003437Y0011360D01*
G01X0003091Y0010860D02*
G01X0003437Y0010861D01*
G01X0004508Y0010860D02*
G01X0004161Y0010861D01*
G54D32*
G01X0010641Y0009743D03*
G01X0010659Y0006976D03*
G01X0003609Y0011374D03*
G01X0003984Y0011374D03*
G01X0003609Y0010998D03*
G01X0003984Y0010998D03*
G01X0003609Y0010623D03*
G01X0003984Y0010623D03*
G01X0003609Y0010247D03*
G01X0003984Y0010247D03*
G01X0003609Y0009871D03*
G01X0003984Y0009871D03*
G01X0011720Y0017516D03*
G01X0007759Y0003691D03*
G01X0005555Y0014888D03*
G01X0019291Y0004366D03*
G01X0013551Y0008409D03*
G01X0017650Y0005736D03*
G01X0013114Y0006102D03*
G01X0016948Y0008308D03*
G01X0017235Y0008046D03*
G01X0017092Y0007568D03*
G01X0017789Y0007890D03*
G01X0015143Y0008108D03*
G01X0015244Y0007626D03*
G01X0015266Y0008602D03*
G01X0013787Y0015783D03*
G01X0007136Y0003587D03*
G01X0014437Y0004382D03*
G01X0014976Y0005547D03*
G01X0008413Y0003723D03*
G01X0015845Y0008253D03*
G01X0011984Y0009579D03*
G01X0008031Y0010189D03*
G01X0013642Y0007240D03*
G01X0012717Y0010657D03*
G01X0003850Y0003374D03*
G01X0014626Y0004102D03*
G01X0005921Y0002362D03*
G01X0014683Y0003747D03*
G01X0015677Y0006744D03*
G01X0014889Y0003400D03*
G01X0015386Y0006913D03*
G01X0016055Y0009709D03*
G01X0012276Y0007835D03*
G01X0017553Y0010608D03*
G01X0014937Y0008786D03*
G01X0011411Y0016343D03*
G01X0014398Y0008957D03*
G01X0011697Y0015559D03*
G01X0008315Y0012077D03*
G01X0015661Y0005043D03*
G01X0002587Y0001988D03*
G01X0007106Y0013154D03*
G01X0015810Y0008722D03*
G01X0016098Y0006079D03*
G01X0010996Y0015575D03*
G54D33*
G01X0006012Y0018354D02*
G01X0006012Y0017567D01*
G01X0003650Y0018354D02*
G01X0003650Y0017567D01*
G01X0005224Y0016071D02*
G01X0004437Y0016071D01*
M02*
