G75*
%MOIN*%
%OFA0B0*%
%FSLAX24Y24*%
%IPPOS*%
%LPD*%
%AMOC8*
5,1,8,0,0,1.08239X$1,22.5*
%
%ADD10C,0.0000*%
%ADD11C,0.0049*%
%ADD12C,0.0030*%
%ADD13C,0.0080*%
%ADD14C,0.0040*%
%ADD15R,0.0276X0.1732*%
%ADD16C,0.0060*%
%ADD17R,0.1260X0.0157*%
%ADD18C,0.0100*%
%ADD19C,0.0050*%
%ADD20R,0.0197X0.0295*%
%ADD21C,0.0079*%
%ADD22R,0.0827X0.0118*%
%ADD23C,0.0039*%
%ADD24C,0.0020*%
D10*
X000500Y000500D02*
X000500Y020185D01*
X020185Y020185D01*
X020185Y000500D01*
X000500Y000500D01*
X000500Y020185D01*
X020185Y020185D01*
X020185Y000500D01*
X000500Y000500D01*
X012914Y006679D02*
X013304Y006679D01*
X013304Y006789D01*
X012914Y006789D01*
X012914Y006679D01*
X012914Y006879D02*
X013304Y006879D01*
X013304Y006989D01*
X012914Y006989D01*
X012914Y006879D01*
X012914Y007079D02*
X013304Y007079D01*
X013304Y007189D01*
X012914Y007189D01*
X012914Y007079D01*
X012914Y007269D02*
X013304Y007269D01*
X013304Y007379D01*
X012914Y007379D01*
X012914Y007269D01*
X012914Y007469D02*
X013304Y007469D01*
X013304Y007579D01*
X012914Y007579D01*
X012914Y007469D01*
X012914Y007669D02*
X013304Y007669D01*
X013304Y007779D01*
X012914Y007779D01*
X012914Y007669D01*
X012914Y007859D02*
X013304Y007859D01*
X013304Y007969D01*
X012914Y007969D01*
X012914Y007859D01*
X012914Y008059D02*
X013304Y008059D01*
X013304Y008169D01*
X012914Y008169D01*
X012914Y008059D01*
X012914Y008259D02*
X013304Y008259D01*
X013304Y008369D01*
X012914Y008369D01*
X012914Y008259D01*
X012914Y008449D02*
X013304Y008449D01*
X013304Y008559D01*
X012914Y008559D01*
X012914Y008449D01*
X012914Y008649D02*
X013304Y008649D01*
X013304Y008739D01*
X013804Y009239D01*
X013894Y009239D01*
X013894Y009629D01*
X013784Y009629D01*
X013784Y009239D01*
X013804Y009239D01*
X013694Y009239D02*
X013694Y009629D01*
X013584Y009629D01*
X013584Y009239D01*
X013694Y009239D01*
X013984Y009239D02*
X013984Y009629D01*
X014094Y009629D01*
X014094Y009239D01*
X013984Y009239D01*
X014174Y009239D02*
X014174Y009629D01*
X014284Y009629D01*
X014284Y009239D01*
X014174Y009239D01*
X014374Y009239D02*
X014374Y009629D01*
X014484Y009629D01*
X014484Y009239D01*
X014374Y009239D01*
X014574Y009239D02*
X014574Y009629D01*
X014684Y009629D01*
X014684Y009239D01*
X014574Y009239D01*
X014764Y009239D02*
X014764Y009629D01*
X014874Y009629D01*
X014874Y009239D01*
X014764Y009239D01*
X014964Y009239D02*
X014964Y009629D01*
X015074Y009629D01*
X015074Y009239D01*
X014964Y009239D01*
X015164Y009239D02*
X015164Y009629D01*
X015274Y009629D01*
X015274Y009239D01*
X015164Y009239D01*
X015354Y009239D02*
X015354Y009629D01*
X015464Y009629D01*
X015464Y009239D01*
X015354Y009239D01*
X015554Y009239D02*
X015554Y009629D01*
X015664Y009629D01*
X015664Y009239D01*
X015554Y009239D01*
X015754Y009239D02*
X015754Y009629D01*
X015864Y009629D01*
X015864Y009239D01*
X015754Y009239D01*
X016144Y009239D02*
X013304Y009239D01*
X013304Y006399D01*
X016144Y006399D01*
X016144Y009239D01*
X016144Y008959D02*
X016534Y008959D01*
X016534Y008849D01*
X016144Y008849D01*
X016144Y008959D01*
X016144Y008759D02*
X016534Y008759D01*
X016534Y008649D01*
X016144Y008649D01*
X016144Y008759D01*
X016144Y008559D02*
X016534Y008559D01*
X016534Y008449D01*
X016144Y008449D01*
X016144Y008559D01*
X016144Y008369D02*
X016534Y008369D01*
X016534Y008259D01*
X016144Y008259D01*
X016144Y008369D01*
X016144Y008169D02*
X016534Y008169D01*
X016534Y008059D01*
X016144Y008059D01*
X016144Y008169D01*
X016144Y007969D02*
X016534Y007969D01*
X016534Y007859D01*
X016144Y007859D01*
X016144Y007969D01*
X016144Y007779D02*
X016534Y007779D01*
X016534Y007669D01*
X016144Y007669D01*
X016144Y007779D01*
X016144Y007579D02*
X016534Y007579D01*
X016534Y007469D01*
X016144Y007469D01*
X016144Y007579D01*
X016144Y007379D02*
X016534Y007379D01*
X016534Y007269D01*
X016144Y007269D01*
X016144Y007379D01*
X016144Y007189D02*
X016534Y007189D01*
X016534Y007079D01*
X016144Y007079D01*
X016144Y007189D01*
X016144Y006989D02*
X016534Y006989D01*
X016534Y006879D01*
X016144Y006879D01*
X016144Y006989D01*
X016144Y006789D02*
X016534Y006789D01*
X016534Y006679D01*
X016144Y006679D01*
X016144Y006789D01*
X015864Y006399D02*
X015754Y006399D01*
X015754Y006009D01*
X015864Y006009D01*
X015864Y006399D01*
X015664Y006399D02*
X015664Y006009D01*
X015554Y006009D01*
X015554Y006399D01*
X015664Y006399D01*
X015464Y006399D02*
X015464Y006009D01*
X015354Y006009D01*
X015354Y006399D01*
X015464Y006399D01*
X015274Y006399D02*
X015274Y006009D01*
X015164Y006009D01*
X015164Y006399D01*
X015274Y006399D01*
X015074Y006399D02*
X015074Y006009D01*
X014964Y006009D01*
X014964Y006399D01*
X015074Y006399D01*
X014874Y006399D02*
X014874Y006009D01*
X014764Y006009D01*
X014764Y006399D01*
X014874Y006399D01*
X014684Y006399D02*
X014684Y006009D01*
X014574Y006009D01*
X014574Y006399D01*
X014684Y006399D01*
X014484Y006399D02*
X014484Y006009D01*
X014374Y006009D01*
X014374Y006399D01*
X014484Y006399D01*
X014284Y006399D02*
X014284Y006009D01*
X014174Y006009D01*
X014174Y006399D01*
X014284Y006399D01*
X014094Y006399D02*
X014094Y006009D01*
X013984Y006009D01*
X013984Y006399D01*
X014094Y006399D01*
X013894Y006399D02*
X013894Y006009D01*
X013784Y006009D01*
X013784Y006399D01*
X013894Y006399D01*
X013694Y006399D02*
X013694Y006009D01*
X013584Y006009D01*
X013584Y006399D01*
X013694Y006399D01*
X012914Y008649D02*
X012914Y008759D01*
X013304Y008759D01*
X013304Y008739D01*
X013304Y008849D02*
X012914Y008849D01*
X012914Y008959D01*
X013304Y008959D01*
X013304Y008849D01*
D11*
X011130Y014791D02*
X011132Y014812D01*
X011138Y014832D01*
X011147Y014852D01*
X011159Y014869D01*
X011174Y014883D01*
X011192Y014895D01*
X011212Y014903D01*
X011232Y014908D01*
X011253Y014909D01*
X011274Y014906D01*
X011294Y014900D01*
X011313Y014889D01*
X011330Y014876D01*
X011343Y014860D01*
X011354Y014842D01*
X011362Y014822D01*
X011366Y014802D01*
X011366Y014780D01*
X011362Y014760D01*
X011354Y014740D01*
X011343Y014722D01*
X011330Y014706D01*
X011313Y014693D01*
X011294Y014682D01*
X011274Y014676D01*
X011253Y014673D01*
X011232Y014674D01*
X011212Y014679D01*
X011192Y014687D01*
X011174Y014699D01*
X011159Y014713D01*
X011147Y014730D01*
X011138Y014750D01*
X011132Y014770D01*
X011130Y014791D01*
D12*
X011181Y016197D02*
X011181Y016391D01*
X011181Y016294D02*
X011471Y016294D01*
X011471Y016492D02*
X011181Y016492D01*
X011471Y016492D02*
X011471Y016685D01*
X011423Y016787D02*
X011229Y016980D01*
X011423Y016980D01*
X011471Y016932D01*
X011471Y016835D01*
X011423Y016787D01*
X011229Y016787D01*
X011181Y016835D01*
X011181Y016932D01*
X011229Y016980D01*
X011326Y017081D02*
X011326Y017226D01*
X011374Y017275D01*
X011423Y017275D01*
X011471Y017226D01*
X011471Y017130D01*
X011423Y017081D01*
X011326Y017081D01*
X011229Y017178D01*
X011181Y017275D01*
X011229Y017376D02*
X011181Y017424D01*
X011181Y017521D01*
X011229Y017569D01*
X011278Y017569D01*
X011471Y017376D01*
X011471Y017569D01*
X011387Y019609D02*
X011194Y019609D01*
X011291Y019609D02*
X011291Y019900D01*
X011194Y019803D01*
X011093Y019609D02*
X010899Y019609D01*
X010996Y019609D02*
X010996Y019900D01*
X010899Y019803D01*
X010798Y019803D02*
X010798Y019609D01*
X010798Y019755D02*
X010605Y019755D01*
X010605Y019803D02*
X010701Y019900D01*
X010798Y019803D01*
X010605Y019803D02*
X010605Y019609D01*
X010403Y019609D02*
X010210Y019609D01*
X010403Y019803D01*
X010403Y019851D01*
X010355Y019900D01*
X010258Y019900D01*
X010210Y019851D01*
X010012Y019900D02*
X010012Y019609D01*
X010108Y019609D02*
X009915Y019609D01*
X009814Y019609D02*
X009814Y019803D01*
X009717Y019900D01*
X009620Y019803D01*
X009620Y019609D01*
X009620Y019755D02*
X009814Y019755D01*
X009915Y019803D02*
X010012Y019900D01*
X009399Y019851D02*
X009399Y019803D01*
X009351Y019755D01*
X009399Y019706D01*
X009399Y019658D01*
X009351Y019609D01*
X009254Y019609D01*
X009206Y019658D01*
X009104Y019706D02*
X009104Y019900D01*
X009206Y019851D02*
X009254Y019900D01*
X009351Y019900D01*
X009399Y019851D01*
X009351Y019755D02*
X009302Y019755D01*
X009104Y019706D02*
X009008Y019609D01*
X008911Y019706D01*
X008911Y019900D01*
X008810Y019851D02*
X008761Y019900D01*
X008665Y019900D01*
X008616Y019851D01*
X008713Y019755D02*
X008761Y019755D01*
X008810Y019706D01*
X008810Y019658D01*
X008761Y019609D01*
X008665Y019609D01*
X008616Y019658D01*
X008761Y019755D02*
X008810Y019803D01*
X008810Y019851D01*
X008395Y019851D02*
X008395Y019658D01*
X008347Y019609D01*
X008202Y019609D01*
X008202Y019900D01*
X008347Y019900D01*
X008395Y019851D01*
X008101Y019900D02*
X008101Y019609D01*
X007907Y019900D01*
X007907Y019609D01*
X007806Y019658D02*
X007806Y019755D01*
X007709Y019755D01*
X007612Y019851D02*
X007612Y019658D01*
X007661Y019609D01*
X007758Y019609D01*
X007806Y019658D01*
X007806Y019851D02*
X007758Y019900D01*
X007661Y019900D01*
X007612Y019851D01*
X007391Y019900D02*
X007391Y019706D01*
X007295Y019609D01*
X007198Y019706D01*
X007198Y019900D01*
X007097Y019851D02*
X007048Y019900D01*
X006951Y019900D01*
X006903Y019851D01*
X007097Y019851D02*
X007097Y019803D01*
X006903Y019609D01*
X007097Y019609D01*
X006802Y019609D02*
X006608Y019609D01*
X006705Y019609D02*
X006705Y019900D01*
X006608Y019803D01*
X011608Y019803D02*
X011608Y019609D01*
X011608Y019755D02*
X011802Y019755D01*
X011802Y019803D02*
X011802Y019609D01*
X011903Y019609D02*
X012097Y019609D01*
X012000Y019609D02*
X012000Y019900D01*
X011903Y019803D01*
X011802Y019803D02*
X011705Y019900D01*
X011608Y019803D01*
X012198Y019851D02*
X012198Y019658D01*
X012391Y019851D01*
X012391Y019658D01*
X012343Y019609D01*
X012246Y019609D01*
X012198Y019658D01*
X012198Y019851D02*
X012246Y019900D01*
X012343Y019900D01*
X012391Y019851D01*
X012760Y019803D02*
X012760Y019609D01*
X012760Y019755D02*
X012953Y019755D01*
X012953Y019803D02*
X012953Y019609D01*
X013054Y019658D02*
X013103Y019609D01*
X013199Y019609D01*
X013248Y019658D01*
X013248Y019851D01*
X013199Y019900D01*
X013103Y019900D01*
X013054Y019851D01*
X013054Y019803D01*
X013103Y019755D01*
X013248Y019755D01*
X012953Y019803D02*
X012856Y019900D01*
X012760Y019803D01*
X013764Y019803D02*
X013764Y019609D01*
X013764Y019755D02*
X013957Y019755D01*
X013957Y019803D02*
X013957Y019609D01*
X014058Y019658D02*
X014058Y019706D01*
X014107Y019755D01*
X014203Y019755D01*
X014252Y019706D01*
X014252Y019658D01*
X014203Y019609D01*
X014107Y019609D01*
X014058Y019658D01*
X014107Y019755D02*
X014058Y019803D01*
X014058Y019851D01*
X014107Y019900D01*
X014203Y019900D01*
X014252Y019851D01*
X014252Y019803D01*
X014203Y019755D01*
X013957Y019803D02*
X013860Y019900D01*
X013764Y019803D01*
X013123Y009306D02*
X012809Y008992D01*
X012809Y009149D02*
X013123Y009149D01*
X013123Y008992D02*
X012809Y009306D01*
X012966Y009306D02*
X012966Y008992D01*
X013004Y003679D02*
X013004Y003389D01*
X012907Y003389D02*
X013101Y003389D01*
X013202Y003534D02*
X013395Y003534D01*
X013347Y003389D02*
X013347Y003679D01*
X013202Y003534D01*
X013004Y003679D02*
X012907Y003583D01*
X012806Y003583D02*
X012758Y003534D01*
X012612Y003534D01*
X012612Y003389D02*
X012758Y003389D01*
X012806Y003437D01*
X012806Y003486D01*
X012758Y003534D01*
X012806Y003583D02*
X012806Y003631D01*
X012758Y003679D01*
X012612Y003679D01*
X012612Y003389D01*
X012391Y003437D02*
X012391Y003486D01*
X012343Y003534D01*
X012295Y003534D01*
X012343Y003534D02*
X012391Y003583D01*
X012391Y003631D01*
X012343Y003679D01*
X012246Y003679D01*
X012198Y003631D01*
X012198Y003437D02*
X012246Y003389D01*
X012343Y003389D01*
X012391Y003437D01*
X012097Y003389D02*
X011903Y003389D01*
X012000Y003389D02*
X012000Y003679D01*
X011903Y003583D01*
X011802Y003583D02*
X011754Y003534D01*
X011608Y003534D01*
X011608Y003389D02*
X011754Y003389D01*
X011802Y003437D01*
X011802Y003486D01*
X011754Y003534D01*
X011802Y003583D02*
X011802Y003631D01*
X011754Y003679D01*
X011608Y003679D01*
X011608Y003389D01*
X011387Y003389D02*
X011194Y003389D01*
X011387Y003583D01*
X011387Y003631D01*
X011339Y003679D01*
X011242Y003679D01*
X011194Y003631D01*
X010996Y003679D02*
X010996Y003389D01*
X010899Y003389D02*
X011093Y003389D01*
X010899Y003583D02*
X010996Y003679D01*
X010798Y003631D02*
X010798Y003583D01*
X010750Y003534D01*
X010605Y003534D01*
X010750Y003534D02*
X010798Y003486D01*
X010798Y003437D01*
X010750Y003389D01*
X010605Y003389D01*
X010605Y003679D01*
X010750Y003679D01*
X010798Y003631D01*
X010383Y003389D02*
X010190Y003389D01*
X010287Y003389D02*
X010287Y003679D01*
X010190Y003583D01*
X010089Y003389D02*
X009895Y003389D01*
X009992Y003389D02*
X009992Y003679D01*
X009895Y003583D01*
X009794Y003583D02*
X009746Y003534D01*
X009601Y003534D01*
X009746Y003534D02*
X009794Y003486D01*
X009794Y003437D01*
X009746Y003389D01*
X009601Y003389D01*
X009601Y003679D01*
X009746Y003679D01*
X009794Y003631D01*
X009794Y003583D01*
X009379Y003631D02*
X009379Y003437D01*
X009331Y003389D01*
X009234Y003389D01*
X009186Y003437D01*
X009379Y003631D01*
X009331Y003679D01*
X009234Y003679D01*
X009186Y003631D01*
X009186Y003437D01*
X009085Y003389D02*
X008891Y003389D01*
X008988Y003389D02*
X008988Y003679D01*
X008891Y003583D01*
X008790Y003583D02*
X008742Y003534D01*
X008597Y003534D01*
X008742Y003534D02*
X008790Y003486D01*
X008790Y003437D01*
X008742Y003389D01*
X008597Y003389D01*
X008597Y003679D01*
X008742Y003679D01*
X008790Y003631D01*
X008790Y003583D01*
X008228Y003631D02*
X008228Y003437D01*
X008180Y003389D01*
X008083Y003389D01*
X008035Y003437D01*
X007934Y003437D02*
X007885Y003389D01*
X007740Y003389D01*
X007740Y003679D01*
X007885Y003679D01*
X007934Y003631D01*
X007934Y003583D01*
X007885Y003534D01*
X007740Y003534D01*
X007885Y003534D02*
X007934Y003486D01*
X007934Y003437D01*
X008035Y003583D02*
X008083Y003534D01*
X008228Y003534D01*
X008228Y003631D02*
X008180Y003679D01*
X008083Y003679D01*
X008035Y003631D01*
X008035Y003583D01*
X007224Y003583D02*
X007176Y003534D01*
X007079Y003534D01*
X007031Y003583D01*
X007031Y003631D01*
X007079Y003679D01*
X007176Y003679D01*
X007224Y003631D01*
X007224Y003583D01*
X007176Y003534D02*
X007224Y003486D01*
X007224Y003437D01*
X007176Y003389D01*
X007079Y003389D01*
X007031Y003437D01*
X007031Y003486D01*
X007079Y003534D01*
X006930Y003486D02*
X006930Y003437D01*
X006881Y003389D01*
X006736Y003389D01*
X006736Y003679D01*
X006881Y003679D01*
X006930Y003631D01*
X006930Y003583D01*
X006881Y003534D01*
X006736Y003534D01*
X006881Y003534D02*
X006930Y003486D01*
X006833Y001120D02*
X006930Y001023D01*
X006930Y000830D01*
X007031Y000878D02*
X007224Y001072D01*
X007224Y000878D01*
X007176Y000830D01*
X007079Y000830D01*
X007031Y000878D01*
X007031Y001072D01*
X007079Y001120D01*
X007176Y001120D01*
X007224Y001072D01*
X006930Y000975D02*
X006736Y000975D01*
X006736Y001023D02*
X006736Y000830D01*
X006736Y001023D02*
X006833Y001120D01*
X007740Y001023D02*
X007740Y000830D01*
X007740Y000975D02*
X007934Y000975D01*
X007934Y001023D02*
X007934Y000830D01*
X008035Y000830D02*
X008228Y000830D01*
X008131Y000830D02*
X008131Y001120D01*
X008035Y001023D01*
X007934Y001023D02*
X007837Y001120D01*
X007740Y001023D01*
X008744Y001023D02*
X008744Y000830D01*
X008744Y000975D02*
X008937Y000975D01*
X008937Y001023D02*
X008937Y000830D01*
X009039Y000830D02*
X009232Y001023D01*
X009232Y001072D01*
X009184Y001120D01*
X009087Y001120D01*
X009039Y001072D01*
X008937Y001023D02*
X008841Y001120D01*
X008744Y001023D01*
X009039Y000830D02*
X009232Y000830D01*
X009748Y000830D02*
X009748Y001023D01*
X009845Y001120D01*
X009941Y001023D01*
X009941Y000830D01*
X010043Y000878D02*
X010091Y000830D01*
X010188Y000830D01*
X010236Y000878D01*
X010236Y000927D01*
X010188Y000975D01*
X010139Y000975D01*
X010188Y000975D02*
X010236Y001023D01*
X010236Y001072D01*
X010188Y001120D01*
X010091Y001120D01*
X010043Y001072D01*
X009941Y000975D02*
X009748Y000975D01*
X010752Y000975D02*
X010945Y000975D01*
X010945Y001023D02*
X010945Y000830D01*
X011046Y000975D02*
X011240Y000975D01*
X011192Y000830D02*
X011192Y001120D01*
X011046Y000975D01*
X010945Y001023D02*
X010849Y001120D01*
X010752Y001023D01*
X010752Y000830D01*
X011756Y000830D02*
X011756Y001023D01*
X011853Y001120D01*
X011949Y001023D01*
X011949Y000830D01*
X012050Y000878D02*
X012099Y000830D01*
X012196Y000830D01*
X012244Y000878D01*
X012244Y000975D01*
X012196Y001023D01*
X012147Y001023D01*
X012050Y000975D01*
X012050Y001120D01*
X012244Y001120D01*
X011949Y000975D02*
X011756Y000975D01*
X012760Y000975D02*
X012953Y000975D01*
X012953Y001023D02*
X012953Y000830D01*
X013054Y000878D02*
X013103Y000830D01*
X013199Y000830D01*
X013248Y000878D01*
X013248Y000927D01*
X013199Y000975D01*
X013054Y000975D01*
X013054Y000878D01*
X013054Y000975D02*
X013151Y001072D01*
X013248Y001120D01*
X012953Y001023D02*
X012856Y001120D01*
X012760Y001023D01*
X012760Y000830D01*
X013764Y000830D02*
X013764Y001023D01*
X013860Y001120D01*
X013957Y001023D01*
X013957Y000830D01*
X014058Y000830D02*
X014058Y000878D01*
X014252Y001072D01*
X014252Y001120D01*
X014058Y001120D01*
X013957Y000975D02*
X013764Y000975D01*
X014620Y000878D02*
X014669Y000830D01*
X014765Y000830D01*
X014814Y000878D01*
X014814Y000927D01*
X014765Y000975D01*
X014717Y000975D01*
X014765Y000975D02*
X014814Y001023D01*
X014814Y001072D01*
X014765Y001120D01*
X014669Y001120D01*
X014620Y001072D01*
X014915Y001120D02*
X014915Y000927D01*
X015012Y000830D01*
X015108Y000927D01*
X015108Y001120D01*
X015210Y001072D02*
X015258Y001120D01*
X015355Y001120D01*
X015403Y001072D01*
X015403Y001023D01*
X015355Y000975D01*
X015403Y000927D01*
X015403Y000878D01*
X015355Y000830D01*
X015258Y000830D01*
X015210Y000878D01*
X015306Y000975D02*
X015355Y000975D01*
X015624Y001072D02*
X015624Y000878D01*
X015673Y000830D01*
X015769Y000830D01*
X015818Y000878D01*
X015818Y000975D01*
X015721Y000975D01*
X015818Y001072D02*
X015769Y001120D01*
X015673Y001120D01*
X015624Y001072D01*
X015919Y001120D02*
X015919Y000830D01*
X016112Y000830D02*
X015919Y001120D01*
X016112Y001120D02*
X016112Y000830D01*
X016214Y000830D02*
X016359Y000830D01*
X016407Y000878D01*
X016407Y001072D01*
X016359Y001120D01*
X016214Y001120D01*
X016214Y000830D01*
X016262Y003389D02*
X016214Y003437D01*
X016407Y003631D01*
X016407Y003437D01*
X016359Y003389D01*
X016262Y003389D01*
X016214Y003437D02*
X016214Y003631D01*
X016262Y003679D01*
X016359Y003679D01*
X016407Y003631D01*
X016112Y003679D02*
X015919Y003679D01*
X016016Y003679D02*
X016016Y003389D01*
X015818Y003437D02*
X015818Y003486D01*
X015769Y003534D01*
X015624Y003534D01*
X015624Y003389D02*
X015769Y003389D01*
X015818Y003437D01*
X015769Y003534D02*
X015818Y003583D01*
X015818Y003631D01*
X015769Y003679D01*
X015624Y003679D01*
X015624Y003389D01*
X015256Y003389D02*
X015062Y003389D01*
X015256Y003583D01*
X015256Y003631D01*
X015207Y003679D01*
X015111Y003679D01*
X015062Y003631D01*
X014961Y003631D02*
X014913Y003679D01*
X014768Y003679D01*
X014768Y003389D01*
X014913Y003389D01*
X014961Y003437D01*
X014961Y003486D01*
X014913Y003534D01*
X014768Y003534D01*
X014913Y003534D02*
X014961Y003583D01*
X014961Y003631D01*
X014399Y003679D02*
X014206Y003679D01*
X014206Y003534D01*
X014302Y003583D01*
X014351Y003583D01*
X014399Y003534D01*
X014399Y003437D01*
X014351Y003389D01*
X014254Y003389D01*
X014206Y003437D01*
X014104Y003389D02*
X013911Y003389D01*
X014008Y003389D02*
X014008Y003679D01*
X013911Y003583D01*
X013810Y003583D02*
X013761Y003534D01*
X013616Y003534D01*
X013616Y003389D02*
X013761Y003389D01*
X013810Y003437D01*
X013810Y003486D01*
X013761Y003534D01*
X013810Y003583D02*
X013810Y003631D01*
X013761Y003679D01*
X013616Y003679D01*
X013616Y003389D01*
D13*
X015328Y005163D02*
X015328Y005663D01*
X016428Y005663D01*
X016428Y005163D01*
X015328Y005163D01*
X012491Y006030D02*
X012491Y006530D01*
X011391Y006530D01*
X011391Y006030D01*
X012491Y006030D01*
X011877Y006746D02*
X011877Y007246D01*
X010777Y007246D01*
X010777Y006746D01*
X011877Y006746D01*
X011104Y006436D02*
X011104Y005336D01*
X010604Y005336D01*
X010604Y006436D01*
X011104Y006436D01*
X010447Y006420D02*
X010447Y005320D01*
X009947Y005320D01*
X009947Y006420D01*
X010447Y006420D01*
X007743Y007337D02*
X007743Y007837D01*
X006643Y007837D01*
X006643Y007337D01*
X007743Y007337D01*
X009105Y009953D02*
X009105Y011913D01*
X010005Y011913D01*
X010005Y009953D01*
X009105Y009953D01*
X010347Y010483D02*
X010347Y011383D01*
X012307Y011383D01*
X012307Y010483D01*
X010347Y010483D01*
X010777Y010002D02*
X011877Y010002D01*
X011877Y009502D01*
X010777Y009502D01*
X010777Y010002D01*
X012899Y009931D02*
X012899Y010431D01*
X013999Y010431D01*
X013999Y009931D01*
X012899Y009931D01*
X012875Y010656D02*
X012875Y011156D01*
X013975Y011156D01*
X013975Y010656D01*
X012875Y010656D01*
X012709Y012255D02*
X012709Y013155D01*
X014669Y013155D01*
X014669Y012255D01*
X012709Y012255D01*
X012307Y012255D02*
X010347Y012255D01*
X010347Y013155D01*
X012307Y013155D01*
X012307Y012255D01*
X012307Y013633D02*
X012307Y014533D01*
X010347Y014533D01*
X010347Y013633D01*
X012307Y013633D01*
X012709Y013633D02*
X012709Y014533D01*
X014669Y014533D01*
X014669Y013633D01*
X012709Y013633D01*
X010893Y015211D02*
X010893Y015711D01*
X009793Y015711D01*
X009793Y015211D01*
X010893Y015211D01*
X013436Y015859D02*
X013436Y017819D01*
X014336Y017819D01*
X014336Y015859D01*
X013436Y015859D01*
X015106Y015126D02*
X015106Y014594D01*
X015539Y014220D02*
X015776Y014220D01*
X016209Y014594D02*
X016209Y015126D01*
X015933Y015126D01*
X015382Y015126D02*
X015106Y015126D01*
X015933Y013157D02*
X016169Y013157D01*
X016602Y012783D02*
X016602Y012252D01*
X016327Y012252D01*
X015776Y012252D02*
X015500Y012252D01*
X015500Y012783D01*
X017076Y013439D02*
X017076Y013939D01*
X018176Y013939D01*
X018176Y013439D01*
X017076Y013439D01*
X018651Y013439D02*
X018651Y013939D01*
X019751Y013939D01*
X019751Y013439D01*
X018651Y013439D01*
X017337Y009550D02*
X016837Y009550D01*
X016837Y008450D01*
X017337Y008450D01*
X017337Y009550D01*
X018948Y006401D02*
X019848Y006401D01*
X019848Y004441D01*
X018948Y004441D01*
X018948Y006401D01*
X016056Y017508D02*
X015156Y017508D01*
X015156Y019468D01*
X016056Y019468D01*
X016056Y017508D01*
X006681Y015233D02*
X006681Y014333D01*
X004721Y014333D01*
X004721Y015233D01*
X006681Y015233D01*
X005132Y013941D02*
X005132Y012241D01*
X002632Y012241D01*
X002632Y013941D01*
X005132Y013941D01*
X005420Y013410D02*
X005420Y011160D01*
X004547Y011555D02*
X003051Y011555D01*
X002632Y012241D02*
X001082Y012241D01*
X001082Y013941D01*
X002632Y013941D01*
X002710Y014474D02*
X002710Y014974D01*
X003810Y014974D01*
X003810Y014474D01*
X002710Y014474D01*
X006620Y013410D02*
X006620Y011160D01*
X004547Y009665D02*
X003051Y009665D01*
X004049Y009850D02*
X004051Y009870D01*
X004057Y009888D01*
X004066Y009906D01*
X004078Y009921D01*
X004093Y009933D01*
X004111Y009942D01*
X004129Y009948D01*
X004149Y009950D01*
X004169Y009948D01*
X004187Y009942D01*
X004205Y009933D01*
X004220Y009921D01*
X004232Y009906D01*
X004241Y009888D01*
X004247Y009870D01*
X004249Y009850D01*
X004247Y009830D01*
X004241Y009812D01*
X004232Y009794D01*
X004220Y009779D01*
X004205Y009767D01*
X004187Y009758D01*
X004169Y009752D01*
X004149Y009750D01*
X004129Y009752D01*
X004111Y009758D01*
X004093Y009767D01*
X004078Y009779D01*
X004066Y009794D01*
X004057Y009812D01*
X004051Y009830D01*
X004049Y009850D01*
X003215Y006065D02*
X002115Y006065D01*
X002115Y005565D01*
X003215Y005565D01*
X003215Y006065D01*
X005068Y004293D02*
X006168Y004293D01*
X006168Y003793D01*
X005068Y003793D01*
X005068Y004293D01*
X004988Y003610D02*
X003492Y003610D01*
X003790Y003425D02*
X003792Y003445D01*
X003798Y003463D01*
X003807Y003481D01*
X003819Y003496D01*
X003834Y003508D01*
X003852Y003517D01*
X003870Y003523D01*
X003890Y003525D01*
X003910Y003523D01*
X003928Y003517D01*
X003946Y003508D01*
X003961Y003496D01*
X003973Y003481D01*
X003982Y003463D01*
X003988Y003445D01*
X003990Y003425D01*
X003988Y003405D01*
X003982Y003387D01*
X003973Y003369D01*
X003961Y003354D01*
X003946Y003342D01*
X003928Y003333D01*
X003910Y003327D01*
X003890Y003325D01*
X003870Y003327D01*
X003852Y003333D01*
X003834Y003342D01*
X003819Y003354D01*
X003807Y003369D01*
X003798Y003387D01*
X003792Y003405D01*
X003790Y003425D01*
X002131Y003645D02*
X002131Y001685D01*
X001231Y001685D01*
X001231Y003645D01*
X002131Y003645D01*
X003492Y001720D02*
X004988Y001720D01*
D14*
X006962Y005516D02*
X007269Y005516D01*
X007422Y005516D02*
X007422Y005976D01*
X007576Y005823D01*
X007729Y005976D01*
X007729Y005516D01*
X007883Y005516D02*
X007883Y005593D01*
X008190Y005900D01*
X008190Y005976D01*
X007883Y005976D01*
X008343Y005976D02*
X008343Y005746D01*
X008497Y005823D01*
X008573Y005823D01*
X008650Y005746D01*
X008650Y005593D01*
X008573Y005516D01*
X008420Y005516D01*
X008343Y005593D01*
X008343Y005976D02*
X008650Y005976D01*
X006962Y005976D02*
X006962Y005516D01*
X010949Y007976D02*
X010949Y008116D01*
X011043Y008209D01*
X011043Y008256D01*
X011151Y008162D02*
X011244Y008256D01*
X011244Y007976D01*
X011151Y007976D02*
X011337Y007976D01*
X010949Y008116D02*
X010856Y008209D01*
X010856Y008256D01*
X014519Y012503D02*
X014749Y012503D01*
X014826Y012579D01*
X014826Y012886D01*
X014749Y012963D01*
X014519Y012963D01*
X014519Y012503D01*
X014980Y012503D02*
X015287Y012810D01*
X015287Y012886D01*
X015210Y012963D01*
X015056Y012963D01*
X014980Y012886D01*
X014980Y012503D02*
X015287Y012503D01*
X015324Y013431D02*
X015555Y013431D01*
X015631Y013508D01*
X015631Y013815D01*
X015555Y013891D01*
X015324Y013891D01*
X015324Y013431D01*
X015785Y013431D02*
X016092Y013431D01*
X015938Y013431D02*
X015938Y013891D01*
X015785Y013738D01*
X003946Y011354D02*
X003746Y011354D01*
X003813Y011287D01*
X003746Y011220D01*
X003946Y011220D01*
X003946Y011099D02*
X003746Y011099D01*
X003846Y010999D01*
X003846Y011133D01*
X003846Y010912D02*
X003846Y010811D01*
X003813Y010778D01*
X003779Y010778D01*
X003746Y010811D01*
X003746Y010878D01*
X003779Y010912D01*
X003913Y010912D01*
X003946Y010878D01*
X003946Y010811D01*
X003913Y010778D01*
X003913Y010691D02*
X003846Y010691D01*
X003813Y010657D01*
X003813Y010624D01*
X003846Y010557D01*
X003746Y010557D01*
X003746Y010691D01*
X003913Y010691D02*
X003946Y010657D01*
X003946Y010591D01*
X003913Y010557D01*
X003946Y010470D02*
X003946Y010336D01*
X003813Y010470D01*
X003779Y010470D01*
X003746Y010436D01*
X003746Y010370D01*
X003779Y010336D01*
X003746Y010249D02*
X003946Y010249D01*
X003946Y010115D02*
X003746Y010115D01*
X003813Y010182D01*
X003746Y010249D01*
X003946Y010028D02*
X003946Y009894D01*
X003746Y009894D01*
D15*
X001214Y013091D03*
D16*
X003159Y015109D02*
X003246Y015109D01*
X003289Y015153D01*
X003410Y015109D02*
X003584Y015283D01*
X003584Y015326D01*
X003540Y015369D01*
X003454Y015369D01*
X003410Y015326D01*
X003289Y015326D02*
X003246Y015369D01*
X003159Y015369D01*
X003115Y015326D01*
X003115Y015153D01*
X003159Y015109D01*
X003410Y015109D02*
X003584Y015109D01*
X003916Y014356D02*
X003872Y014313D01*
X003872Y014139D01*
X003916Y014096D01*
X004002Y014096D01*
X004046Y014139D01*
X004167Y014139D02*
X004167Y014226D01*
X004297Y014226D01*
X004340Y014183D01*
X004340Y014139D01*
X004297Y014096D01*
X004210Y014096D01*
X004167Y014139D01*
X004167Y014226D02*
X004254Y014313D01*
X004340Y014356D01*
X004046Y014313D02*
X004002Y014356D01*
X003916Y014356D01*
X006041Y014154D02*
X006041Y013893D01*
X006041Y013980D02*
X006172Y013980D01*
X006215Y014024D01*
X006215Y014110D01*
X006172Y014154D01*
X006041Y014154D01*
X006128Y013980D02*
X006215Y013893D01*
X006336Y013937D02*
X006380Y013893D01*
X006466Y013893D01*
X006510Y013937D01*
X006510Y013980D01*
X006466Y014024D01*
X006423Y014024D01*
X006466Y014024D02*
X006510Y014067D01*
X006510Y014110D01*
X006466Y014154D01*
X006380Y014154D01*
X006336Y014110D01*
X007233Y013105D02*
X008333Y013105D01*
X008350Y013103D01*
X008367Y013099D01*
X008383Y013092D01*
X008397Y013082D01*
X008410Y013069D01*
X008420Y013055D01*
X008427Y013039D01*
X008431Y013022D01*
X008433Y013005D01*
X008433Y012405D01*
X008431Y012388D01*
X008427Y012371D01*
X008420Y012355D01*
X008410Y012341D01*
X008397Y012328D01*
X008383Y012318D01*
X008367Y012311D01*
X008350Y012307D01*
X008333Y012305D01*
X007233Y012305D01*
X007216Y012307D01*
X007199Y012311D01*
X007183Y012318D01*
X007169Y012328D01*
X007156Y012341D01*
X007146Y012355D01*
X007139Y012371D01*
X007135Y012388D01*
X007133Y012405D01*
X007133Y013005D01*
X007135Y013022D01*
X007139Y013039D01*
X007146Y013055D01*
X007156Y013069D01*
X007169Y013082D01*
X007183Y013092D01*
X007199Y013099D01*
X007216Y013103D01*
X007233Y013105D01*
X007233Y011530D02*
X008333Y011530D01*
X008350Y011528D01*
X008367Y011524D01*
X008383Y011517D01*
X008397Y011507D01*
X008410Y011494D01*
X008420Y011480D01*
X008427Y011464D01*
X008431Y011447D01*
X008433Y011430D01*
X008433Y010830D01*
X008431Y010813D01*
X008427Y010796D01*
X008420Y010780D01*
X008410Y010766D01*
X008397Y010753D01*
X008383Y010743D01*
X008367Y010736D01*
X008350Y010732D01*
X008333Y010730D01*
X007233Y010730D01*
X007216Y010732D01*
X007199Y010736D01*
X007183Y010743D01*
X007169Y010753D01*
X007156Y010766D01*
X007146Y010780D01*
X007139Y010796D01*
X007135Y010813D01*
X007133Y010830D01*
X007133Y011430D01*
X007135Y011447D01*
X007139Y011464D01*
X007146Y011480D01*
X007156Y011494D01*
X007169Y011507D01*
X007183Y011517D01*
X007199Y011524D01*
X007216Y011528D01*
X007233Y011530D01*
X006222Y010339D02*
X006179Y010339D01*
X006005Y010513D01*
X005962Y010513D01*
X005962Y010339D01*
X006005Y010218D02*
X005962Y010175D01*
X005962Y010088D01*
X006005Y010045D01*
X006179Y010045D01*
X006222Y010088D01*
X006222Y010175D01*
X006179Y010218D01*
X005839Y009281D02*
X005839Y008854D01*
X005839Y009067D02*
X005199Y009067D01*
X005412Y008854D01*
X005839Y008636D02*
X005839Y008209D01*
X005199Y008209D01*
X007133Y009255D02*
X007133Y009855D01*
X007135Y009872D01*
X007139Y009889D01*
X007146Y009905D01*
X007156Y009919D01*
X007169Y009932D01*
X007183Y009942D01*
X007199Y009949D01*
X007216Y009953D01*
X007233Y009955D01*
X008333Y009955D01*
X008350Y009953D01*
X008367Y009949D01*
X008383Y009942D01*
X008397Y009932D01*
X008410Y009919D01*
X008420Y009905D01*
X008427Y009889D01*
X008431Y009872D01*
X008433Y009855D01*
X008433Y009255D01*
X008431Y009238D01*
X008427Y009221D01*
X008420Y009205D01*
X008410Y009191D01*
X008397Y009178D01*
X008383Y009168D01*
X008367Y009161D01*
X008350Y009157D01*
X008333Y009155D01*
X007233Y009155D01*
X007216Y009157D01*
X007199Y009161D01*
X007183Y009168D01*
X007169Y009178D01*
X007156Y009191D01*
X007146Y009205D01*
X007139Y009221D01*
X007135Y009238D01*
X007133Y009255D01*
X007277Y007157D02*
X007234Y007113D01*
X007234Y006940D01*
X007277Y006897D01*
X007364Y006897D01*
X007407Y006940D01*
X007528Y006897D02*
X007702Y006897D01*
X007615Y006897D02*
X007615Y007157D01*
X007528Y007070D01*
X007407Y007113D02*
X007364Y007157D01*
X007277Y007157D01*
X010097Y004937D02*
X010097Y004851D01*
X010141Y004807D01*
X010184Y004807D01*
X010227Y004851D01*
X010227Y004981D01*
X010141Y004981D02*
X010314Y004981D01*
X010357Y004937D01*
X010357Y004851D01*
X010314Y004807D01*
X010314Y004686D02*
X010357Y004643D01*
X010357Y004556D01*
X010314Y004513D01*
X010141Y004513D01*
X010097Y004556D01*
X010097Y004643D01*
X010141Y004686D01*
X010097Y004937D02*
X010141Y004981D01*
X010755Y004964D02*
X010755Y005051D01*
X010798Y005094D01*
X010841Y005094D01*
X010885Y005051D01*
X010928Y005094D01*
X010972Y005094D01*
X011015Y005051D01*
X011015Y004964D01*
X010972Y004921D01*
X010885Y005008D02*
X010885Y005051D01*
X010798Y004921D02*
X010755Y004964D01*
X010755Y004713D02*
X011015Y004713D01*
X011015Y004626D02*
X011015Y004800D01*
X010841Y004626D02*
X010755Y004713D01*
X010798Y004505D02*
X010755Y004462D01*
X010755Y004375D01*
X010798Y004332D01*
X010972Y004332D01*
X011015Y004375D01*
X011015Y004462D01*
X010972Y004505D01*
X011730Y005590D02*
X011817Y005590D01*
X011860Y005633D01*
X011982Y005590D02*
X012155Y005590D01*
X012068Y005590D02*
X012068Y005850D01*
X011982Y005763D01*
X011860Y005806D02*
X011817Y005850D01*
X011730Y005850D01*
X011687Y005806D01*
X011687Y005633D01*
X011730Y005590D01*
X012276Y005590D02*
X012450Y005590D01*
X012363Y005590D02*
X012363Y005850D01*
X012276Y005763D01*
X010654Y006743D02*
X010611Y006700D01*
X010524Y006700D01*
X010481Y006743D01*
X010481Y006830D02*
X010568Y006873D01*
X010611Y006873D01*
X010654Y006830D01*
X010654Y006743D01*
X010481Y006830D02*
X010481Y006960D01*
X010654Y006960D01*
X010360Y006917D02*
X010316Y006960D01*
X010230Y006960D01*
X010186Y006917D01*
X010186Y006743D01*
X010230Y006700D01*
X010316Y006700D01*
X010360Y006743D01*
X010316Y009456D02*
X010360Y009499D01*
X010316Y009456D02*
X010230Y009456D01*
X010186Y009499D01*
X010186Y009673D01*
X010230Y009716D01*
X010316Y009716D01*
X010360Y009673D01*
X010481Y009586D02*
X010654Y009586D01*
X010611Y009716D02*
X010481Y009586D01*
X010611Y009456D02*
X010611Y009716D01*
X010445Y011570D02*
X010185Y011570D01*
X010185Y011700D01*
X010228Y011743D01*
X010315Y011743D01*
X010358Y011700D01*
X010358Y011570D01*
X010358Y011656D02*
X010445Y011743D01*
X010445Y011864D02*
X010445Y012038D01*
X010445Y011951D02*
X010185Y011951D01*
X010272Y011864D01*
X010272Y012159D02*
X010185Y012246D01*
X010445Y012246D01*
X010445Y012332D02*
X010445Y012159D01*
X011077Y011878D02*
X011077Y011618D01*
X011077Y011705D02*
X011207Y011705D01*
X011250Y011748D01*
X011250Y011835D01*
X011207Y011878D01*
X011077Y011878D01*
X011164Y011705D02*
X011250Y011618D01*
X011372Y011618D02*
X011545Y011618D01*
X011458Y011618D02*
X011458Y011878D01*
X011372Y011791D01*
X010751Y013335D02*
X010751Y013378D01*
X010925Y013552D01*
X010925Y013595D01*
X010751Y013595D01*
X010630Y013552D02*
X010587Y013595D01*
X010457Y013595D01*
X010457Y013335D01*
X010457Y013421D02*
X010587Y013421D01*
X010630Y013465D01*
X010630Y013552D01*
X010544Y013421D02*
X010630Y013335D01*
X010557Y014771D02*
X010383Y014771D01*
X010470Y014771D02*
X010470Y015031D01*
X010383Y014944D01*
X010262Y014987D02*
X010219Y015031D01*
X010132Y015031D01*
X010089Y014987D01*
X010089Y014814D01*
X010132Y014771D01*
X010219Y014771D01*
X010262Y014814D01*
X010678Y014814D02*
X010721Y014771D01*
X010808Y014771D01*
X010851Y014814D01*
X010851Y014901D01*
X010808Y014944D01*
X010765Y014944D01*
X010678Y014901D01*
X010678Y015031D01*
X010851Y015031D01*
X012032Y014776D02*
X012032Y014516D01*
X012032Y014603D02*
X012162Y014603D01*
X012205Y014646D01*
X012205Y014733D01*
X012162Y014776D01*
X012032Y014776D01*
X012118Y014603D02*
X012205Y014516D01*
X012326Y014559D02*
X012326Y014603D01*
X012370Y014646D01*
X012456Y014646D01*
X012500Y014603D01*
X012500Y014559D01*
X012456Y014516D01*
X012370Y014516D01*
X012326Y014559D01*
X012370Y014646D02*
X012326Y014689D01*
X012326Y014733D01*
X012370Y014776D01*
X012456Y014776D01*
X012500Y014733D01*
X012500Y014689D01*
X012456Y014646D01*
X012819Y013595D02*
X012949Y013595D01*
X012992Y013552D01*
X012992Y013465D01*
X012949Y013421D01*
X012819Y013421D01*
X012809Y013453D02*
X012722Y013366D01*
X012852Y013366D01*
X012895Y013323D01*
X012895Y013279D01*
X012852Y013236D01*
X012765Y013236D01*
X012722Y013279D01*
X012722Y013366D01*
X012819Y013335D02*
X012819Y013595D01*
X012895Y013496D02*
X012809Y013453D01*
X012906Y013421D02*
X012992Y013335D01*
X013114Y013378D02*
X013157Y013335D01*
X013244Y013335D01*
X013287Y013378D01*
X013287Y013552D01*
X013244Y013595D01*
X013157Y013595D01*
X013114Y013552D01*
X013114Y013508D01*
X013157Y013465D01*
X013287Y013465D01*
X012601Y013453D02*
X012601Y013366D01*
X012557Y013323D01*
X012427Y013323D01*
X012427Y013236D02*
X012427Y013496D01*
X012557Y013496D01*
X012601Y013453D01*
X012514Y013323D02*
X012601Y013236D01*
X013586Y014984D02*
X013586Y015114D01*
X013630Y015158D01*
X013716Y015158D01*
X013760Y015114D01*
X013760Y014984D01*
X013846Y014984D02*
X013586Y014984D01*
X013760Y015071D02*
X013846Y015158D01*
X013846Y015279D02*
X013846Y015452D01*
X013846Y015366D02*
X013586Y015366D01*
X013673Y015279D01*
X013630Y015574D02*
X013586Y015617D01*
X013586Y015704D01*
X013630Y015747D01*
X013803Y015574D01*
X013846Y015617D01*
X013846Y015704D01*
X013803Y015747D01*
X013630Y015747D01*
X013630Y015574D02*
X013803Y015574D01*
X015610Y016049D02*
X015860Y015799D01*
X016360Y015799D01*
X016610Y016049D01*
X016860Y015799D01*
X017360Y015799D01*
X017610Y016049D01*
X017610Y016549D01*
X017360Y016799D01*
X016860Y016799D01*
X016610Y016549D01*
X016610Y016049D01*
X016610Y016549D02*
X016360Y016799D01*
X015860Y016799D01*
X015610Y016549D01*
X015610Y016049D01*
X016606Y015163D02*
X016856Y015413D01*
X017356Y015413D01*
X017606Y015163D01*
X017856Y015413D01*
X018356Y015413D01*
X018606Y015163D01*
X018856Y015413D01*
X019356Y015413D01*
X019606Y015163D01*
X019606Y014663D01*
X019356Y014413D01*
X018856Y014413D01*
X018606Y014663D01*
X018356Y014413D01*
X017856Y014413D01*
X017606Y014663D01*
X017356Y014413D01*
X016856Y014413D01*
X016606Y014663D01*
X016606Y015163D01*
X017606Y015163D02*
X017606Y014663D01*
X018400Y013850D02*
X018356Y013806D01*
X018356Y013633D01*
X018400Y013590D01*
X018486Y013590D01*
X018530Y013633D01*
X018651Y013590D02*
X018824Y013590D01*
X018738Y013590D02*
X018738Y013850D01*
X018651Y013763D01*
X018530Y013806D02*
X018486Y013850D01*
X018400Y013850D01*
X018674Y014119D02*
X018631Y014162D01*
X018631Y014336D01*
X018674Y014379D01*
X018761Y014379D01*
X018804Y014336D01*
X018925Y014292D02*
X019012Y014379D01*
X019012Y014119D01*
X018925Y014119D02*
X019099Y014119D01*
X019220Y014119D02*
X019220Y014162D01*
X019394Y014336D01*
X019394Y014379D01*
X019220Y014379D01*
X018804Y014162D02*
X018761Y014119D01*
X018674Y014119D01*
X019032Y013806D02*
X018946Y013720D01*
X019076Y013720D01*
X019119Y013676D01*
X019119Y013633D01*
X019076Y013590D01*
X018989Y013590D01*
X018946Y013633D01*
X018946Y013720D01*
X019032Y013806D02*
X019119Y013850D01*
X018606Y014663D02*
X018606Y015163D01*
X018360Y015799D02*
X017860Y015799D01*
X017610Y016049D01*
X017610Y016549D02*
X017860Y016799D01*
X018360Y016799D01*
X018610Y016549D01*
X018860Y016799D01*
X019360Y016799D01*
X019610Y016549D01*
X019610Y016049D01*
X019360Y015799D01*
X018860Y015799D01*
X018610Y016049D01*
X018360Y015799D01*
X018610Y016049D02*
X018610Y016549D01*
X018856Y017177D02*
X018606Y017427D01*
X018356Y017177D01*
X017856Y017177D01*
X017606Y017427D01*
X017356Y017177D01*
X016856Y017177D01*
X016606Y017427D01*
X016606Y017927D01*
X016856Y018177D01*
X017356Y018177D01*
X017606Y017927D01*
X017856Y018177D01*
X018356Y018177D01*
X018606Y017927D01*
X018856Y018177D01*
X019356Y018177D01*
X019606Y017927D01*
X019606Y017427D01*
X019356Y017177D01*
X018856Y017177D01*
X018606Y017427D02*
X018606Y017927D01*
X018360Y018559D02*
X017860Y018559D01*
X017610Y018809D01*
X017360Y018559D01*
X016860Y018559D01*
X016610Y018809D01*
X016610Y019309D01*
X016860Y019559D01*
X017360Y019559D01*
X017610Y019309D01*
X017860Y019559D01*
X018360Y019559D01*
X018610Y019309D01*
X018860Y019559D01*
X019360Y019559D01*
X019610Y019309D01*
X019610Y018809D01*
X019360Y018559D01*
X018860Y018559D01*
X018610Y018809D01*
X018360Y018559D01*
X018610Y018809D02*
X018610Y019309D01*
X017610Y019309D02*
X017610Y018809D01*
X017606Y017927D02*
X017606Y017427D01*
X014976Y017618D02*
X014716Y017618D01*
X014716Y017748D01*
X014759Y017792D01*
X014846Y017792D01*
X014890Y017748D01*
X014890Y017618D01*
X014890Y017705D02*
X014976Y017792D01*
X014933Y017913D02*
X014976Y017956D01*
X014976Y018043D01*
X014933Y018086D01*
X014846Y018086D01*
X014803Y018043D01*
X014803Y018000D01*
X014846Y017913D01*
X014716Y017913D01*
X014716Y018086D01*
X014289Y018504D02*
X013789Y018504D01*
X013539Y018754D01*
X013289Y018504D01*
X012789Y018504D01*
X012539Y018754D01*
X012289Y018504D01*
X011789Y018504D01*
X011539Y018754D01*
X011289Y018504D01*
X010789Y018504D01*
X010539Y018754D01*
X010289Y018504D01*
X009789Y018504D01*
X009539Y018754D01*
X009289Y018504D01*
X008789Y018504D01*
X008539Y018754D01*
X008289Y018504D01*
X007789Y018504D01*
X007539Y018754D01*
X007289Y018504D01*
X006789Y018504D01*
X006539Y018754D01*
X006539Y019254D01*
X006789Y019504D01*
X007289Y019504D01*
X007539Y019254D01*
X007789Y019504D01*
X008289Y019504D01*
X008539Y019254D01*
X008539Y018754D01*
X008539Y019254D02*
X008789Y019504D01*
X009289Y019504D01*
X009539Y019254D01*
X009789Y019504D01*
X010289Y019504D01*
X010539Y019254D01*
X010789Y019504D01*
X011289Y019504D01*
X011539Y019254D01*
X011539Y018754D01*
X011539Y019254D02*
X011789Y019504D01*
X012289Y019504D01*
X012539Y019254D01*
X012789Y019504D01*
X013289Y019504D01*
X013539Y019254D01*
X013789Y019504D01*
X014289Y019504D01*
X014539Y019254D01*
X014539Y018754D01*
X014289Y018504D01*
X013539Y018754D02*
X013539Y019254D01*
X012539Y019254D02*
X012539Y018754D01*
X010539Y018754D02*
X010539Y019254D01*
X009539Y019254D02*
X009539Y018754D01*
X007539Y018754D02*
X007539Y019254D01*
X014100Y011066D02*
X014056Y011023D01*
X014056Y010849D01*
X014100Y010806D01*
X014187Y010806D01*
X014230Y010849D01*
X014351Y010849D02*
X014394Y010806D01*
X014481Y010806D01*
X014525Y010849D01*
X014525Y010893D01*
X014481Y010936D01*
X014438Y010936D01*
X014481Y010936D02*
X014525Y010980D01*
X014525Y011023D01*
X014481Y011066D01*
X014394Y011066D01*
X014351Y011023D01*
X014230Y011023D02*
X014187Y011066D01*
X014100Y011066D01*
X014222Y010342D02*
X014179Y010299D01*
X014179Y010125D01*
X014222Y010082D01*
X014309Y010082D01*
X014353Y010125D01*
X014474Y010082D02*
X014647Y010082D01*
X014561Y010082D02*
X014561Y010342D01*
X014474Y010255D01*
X014353Y010299D02*
X014309Y010342D01*
X014222Y010342D01*
X014768Y010299D02*
X014768Y010125D01*
X014942Y010299D01*
X014942Y010125D01*
X014899Y010082D01*
X014812Y010082D01*
X014768Y010125D01*
X014768Y010299D02*
X014812Y010342D01*
X014899Y010342D01*
X014942Y010299D01*
X016396Y009740D02*
X016396Y009653D01*
X016440Y009610D01*
X016396Y009740D02*
X016440Y009783D01*
X016483Y009783D01*
X016657Y009610D01*
X016657Y009783D01*
X016657Y009489D02*
X016657Y009315D01*
X016657Y009402D02*
X016396Y009402D01*
X016483Y009315D01*
X016440Y009194D02*
X016396Y009151D01*
X016396Y009064D01*
X016440Y009021D01*
X016613Y009021D01*
X016657Y009064D01*
X016657Y009151D01*
X016613Y009194D01*
X017697Y009325D02*
X017697Y009825D01*
X017947Y010075D01*
X019447Y010075D01*
X019697Y010325D01*
X019697Y010825D01*
X019447Y011075D01*
X019697Y011325D01*
X019697Y011825D01*
X019447Y012075D01*
X017947Y012075D01*
X017697Y011825D01*
X017697Y011325D01*
X017947Y011075D01*
X019447Y011075D01*
X019447Y010075D02*
X019697Y009825D01*
X019697Y009325D01*
X019447Y009075D01*
X017947Y009075D01*
X017697Y009325D01*
X017947Y009075D02*
X017697Y008825D01*
X017697Y008325D01*
X017947Y008075D01*
X019447Y008075D01*
X019697Y008325D01*
X019697Y008825D01*
X019447Y009075D01*
X017947Y010075D02*
X017697Y010325D01*
X017697Y010825D01*
X017947Y011075D01*
X018583Y005640D02*
X018583Y005466D01*
X018453Y005596D01*
X018713Y005596D01*
X018713Y005345D02*
X018626Y005258D01*
X018626Y005302D02*
X018626Y005171D01*
X018713Y005171D02*
X018453Y005171D01*
X018453Y005302D01*
X018496Y005345D01*
X018583Y005345D01*
X018626Y005302D01*
X016387Y004853D02*
X016213Y004853D01*
X016343Y004984D01*
X016343Y004723D01*
X016092Y004723D02*
X015919Y004723D01*
X016005Y004723D02*
X016005Y004984D01*
X015919Y004897D01*
X015797Y004940D02*
X015754Y004984D01*
X015667Y004984D01*
X015624Y004940D01*
X015624Y004767D01*
X015667Y004723D01*
X015754Y004723D01*
X015797Y004767D01*
X015774Y003272D02*
X016274Y003272D01*
X016524Y003022D01*
X016524Y001522D01*
X016274Y001272D01*
X015774Y001272D01*
X015524Y001522D01*
X015524Y003022D01*
X015774Y003272D01*
X015524Y003022D02*
X015274Y003272D01*
X014774Y003272D01*
X014524Y003022D01*
X014524Y001522D01*
X014274Y001272D01*
X013774Y001272D01*
X013524Y001522D01*
X013524Y003022D01*
X013774Y003272D01*
X014274Y003272D01*
X014524Y003022D01*
X013524Y003022D02*
X013274Y003272D01*
X012774Y003272D01*
X012524Y003022D01*
X012524Y001522D01*
X012774Y001272D01*
X013274Y001272D01*
X013524Y001522D01*
X014524Y001522D02*
X014774Y001272D01*
X015274Y001272D01*
X015524Y001522D01*
X012524Y001522D02*
X012274Y001272D01*
X011774Y001272D01*
X011524Y001522D01*
X011524Y003022D01*
X011774Y003272D01*
X012274Y003272D01*
X012524Y003022D01*
X011524Y003022D02*
X011274Y003272D01*
X010774Y003272D01*
X010524Y003022D01*
X010524Y001522D01*
X010774Y001272D01*
X011274Y001272D01*
X011524Y001522D01*
X010524Y001522D02*
X010274Y001272D01*
X009774Y001272D01*
X009524Y001522D01*
X009524Y003022D01*
X009774Y003272D01*
X010274Y003272D01*
X010524Y003022D01*
X009524Y003022D02*
X009274Y003272D01*
X008774Y003272D01*
X008524Y003022D01*
X008524Y001522D01*
X008774Y001272D01*
X009274Y001272D01*
X009524Y001522D01*
X008524Y001522D02*
X008274Y001272D01*
X007774Y001272D01*
X007524Y001522D01*
X007524Y003022D01*
X007774Y003272D01*
X008274Y003272D01*
X008524Y003022D01*
X007524Y003022D02*
X007274Y003272D01*
X006774Y003272D01*
X006524Y003022D01*
X006524Y001522D01*
X006774Y001272D01*
X007274Y001272D01*
X007524Y001522D01*
X006058Y001578D02*
X006058Y001752D01*
X006058Y001873D02*
X005798Y001873D01*
X005798Y002003D01*
X005841Y002047D01*
X005928Y002047D01*
X005971Y002003D01*
X005971Y001873D01*
X005798Y001752D02*
X005798Y001578D01*
X006058Y001578D01*
X006058Y001457D02*
X006058Y001284D01*
X005798Y001284D01*
X005798Y001457D01*
X005928Y001370D02*
X005928Y001284D01*
X005928Y001578D02*
X005928Y001665D01*
X005971Y002168D02*
X005971Y002298D01*
X005928Y002341D01*
X005841Y002341D01*
X005798Y002298D01*
X005798Y002168D01*
X006058Y002168D01*
X005971Y002254D02*
X006058Y002341D01*
X006015Y002462D02*
X005841Y002462D01*
X005798Y002506D01*
X005798Y002592D01*
X005841Y002636D01*
X006015Y002636D01*
X006058Y002592D01*
X006058Y002506D01*
X006015Y002462D01*
X006058Y002757D02*
X005798Y002757D01*
X005885Y002844D01*
X005798Y002930D01*
X006058Y002930D01*
X005986Y003353D02*
X006029Y003397D01*
X005986Y003353D02*
X005899Y003353D01*
X005856Y003397D01*
X005856Y003570D01*
X005899Y003614D01*
X005986Y003614D01*
X006029Y003570D01*
X006150Y003570D02*
X006150Y003527D01*
X006194Y003483D01*
X006280Y003483D01*
X006324Y003440D01*
X006324Y003397D01*
X006280Y003353D01*
X006194Y003353D01*
X006150Y003397D01*
X006150Y003440D01*
X006194Y003483D01*
X006280Y003483D02*
X006324Y003527D01*
X006324Y003570D01*
X006280Y003614D01*
X006194Y003614D01*
X006150Y003570D01*
X002858Y006288D02*
X002815Y006245D01*
X002728Y006245D01*
X002685Y006288D01*
X002685Y006332D01*
X002728Y006375D01*
X002815Y006375D01*
X002858Y006332D01*
X002858Y006288D01*
X002815Y006375D02*
X002858Y006418D01*
X002858Y006462D01*
X002815Y006505D01*
X002728Y006505D01*
X002685Y006462D01*
X002685Y006418D01*
X002728Y006375D01*
X002563Y006245D02*
X002390Y006245D01*
X002477Y006245D02*
X002477Y006505D01*
X002390Y006418D01*
X002269Y006462D02*
X002225Y006505D01*
X002139Y006505D01*
X002095Y006462D01*
X002095Y006288D01*
X002139Y006245D01*
X002225Y006245D01*
X002269Y006288D01*
X001051Y002263D02*
X001051Y002090D01*
X000878Y002263D01*
X000834Y002263D01*
X000791Y002220D01*
X000791Y002133D01*
X000834Y002090D01*
X000834Y001969D02*
X000791Y001925D01*
X000791Y001795D01*
X001051Y001795D01*
X000964Y001795D02*
X000964Y001925D01*
X000921Y001969D01*
X000834Y001969D01*
X000964Y001882D02*
X001051Y001969D01*
D17*
X006020Y011956D03*
D18*
X006860Y015736D02*
X007087Y015736D01*
X006860Y015736D02*
X006860Y017508D01*
X007087Y017508D01*
X008297Y017508D02*
X008297Y015736D01*
X008071Y015736D01*
X008071Y017508D02*
X008184Y017507D01*
X008297Y017508D01*
X001921Y010465D02*
X001350Y010465D01*
X001646Y010051D01*
X001921Y010465D01*
D19*
X001114Y010573D02*
X001114Y010273D01*
X000814Y010573D01*
X000739Y010573D01*
X000664Y010498D01*
X000664Y010348D01*
X000739Y010273D01*
X000739Y010112D02*
X000664Y010037D01*
X000664Y009812D01*
X001114Y009812D01*
X001114Y010037D01*
X001039Y010112D01*
X000739Y010112D01*
X000664Y009652D02*
X000964Y009652D01*
X001114Y009502D01*
X000964Y009352D01*
X000664Y009352D01*
X006587Y006618D02*
X006587Y004618D01*
X009087Y004618D01*
X009087Y006618D01*
X006587Y006618D01*
X006837Y005118D02*
X006839Y005149D01*
X006845Y005180D01*
X006855Y005210D01*
X006868Y005238D01*
X006885Y005265D01*
X006905Y005289D01*
X006928Y005311D01*
X006953Y005329D01*
X006981Y005344D01*
X007010Y005356D01*
X007040Y005364D01*
X007071Y005368D01*
X007103Y005368D01*
X007134Y005364D01*
X007164Y005356D01*
X007193Y005344D01*
X007221Y005329D01*
X007246Y005311D01*
X007269Y005289D01*
X007289Y005265D01*
X007306Y005238D01*
X007319Y005210D01*
X007329Y005180D01*
X007335Y005149D01*
X007337Y005118D01*
X007335Y005087D01*
X007329Y005056D01*
X007319Y005026D01*
X007306Y004998D01*
X007289Y004971D01*
X007269Y004947D01*
X007246Y004925D01*
X007221Y004907D01*
X007193Y004892D01*
X007164Y004880D01*
X007134Y004872D01*
X007103Y004868D01*
X007071Y004868D01*
X007040Y004872D01*
X007010Y004880D01*
X006981Y004892D01*
X006953Y004907D01*
X006928Y004925D01*
X006905Y004947D01*
X006885Y004971D01*
X006868Y004998D01*
X006855Y005026D01*
X006845Y005056D01*
X006839Y005087D01*
X006837Y005118D01*
X008571Y007980D02*
X008571Y013965D01*
X019791Y013965D01*
X019791Y008571D01*
X019791Y007980D01*
X019201Y007980D01*
X008571Y007980D01*
X008283Y010081D02*
X008133Y010081D01*
X008058Y010156D01*
X007898Y010231D02*
X007748Y010081D01*
X007598Y010231D01*
X007598Y010532D01*
X007437Y010457D02*
X007437Y010382D01*
X007362Y010306D01*
X007437Y010231D01*
X007437Y010156D01*
X007362Y010081D01*
X007212Y010081D01*
X007137Y010156D01*
X007287Y010306D02*
X007362Y010306D01*
X007437Y010457D02*
X007362Y010532D01*
X007212Y010532D01*
X007137Y010457D01*
X007898Y010532D02*
X007898Y010231D01*
X008058Y010457D02*
X008133Y010532D01*
X008283Y010532D01*
X008358Y010457D01*
X008358Y010382D01*
X008283Y010306D01*
X008358Y010231D01*
X008358Y010156D01*
X008283Y010081D01*
X008283Y010306D02*
X008208Y010306D01*
X008112Y011640D02*
X008112Y011941D01*
X007962Y012091D01*
X007812Y011941D01*
X007812Y011640D01*
X007652Y011715D02*
X007652Y011790D01*
X007577Y011866D01*
X007352Y011866D01*
X007191Y011790D02*
X007191Y012091D01*
X007352Y012091D02*
X007577Y012091D01*
X007652Y012016D01*
X007652Y011941D01*
X007577Y011866D01*
X007652Y011715D02*
X007577Y011640D01*
X007352Y011640D01*
X007352Y012091D01*
X007191Y011790D02*
X007041Y011640D01*
X006891Y011790D01*
X006891Y012091D01*
X007812Y011866D02*
X008112Y011866D01*
X008272Y012091D02*
X008573Y012091D01*
X008423Y012091D02*
X008423Y011640D01*
X008252Y013231D02*
X008102Y013231D01*
X008026Y013306D01*
X008327Y013606D01*
X008327Y013306D01*
X008252Y013231D01*
X008026Y013306D02*
X008026Y013606D01*
X008102Y013681D01*
X008252Y013681D01*
X008327Y013606D01*
X007866Y013681D02*
X007566Y013681D01*
X007716Y013681D02*
X007716Y013231D01*
X007406Y013306D02*
X007331Y013231D01*
X007106Y013231D01*
X007106Y013681D01*
X007331Y013681D01*
X007406Y013606D01*
X007406Y013531D01*
X007331Y013456D01*
X007106Y013456D01*
X007331Y013456D02*
X007406Y013381D01*
X007406Y013306D01*
X006616Y015564D02*
X006316Y015564D01*
X006616Y015564D02*
X006766Y015714D01*
X006616Y015865D01*
X006316Y015865D01*
X006316Y016025D02*
X006316Y016250D01*
X006391Y016325D01*
X006691Y016325D01*
X006766Y016250D01*
X006766Y016025D01*
X006316Y016025D01*
X006466Y016485D02*
X006316Y016635D01*
X006766Y016635D01*
X006766Y016485D02*
X006766Y016785D01*
D20*
X006988Y016179D03*
X008169Y016179D03*
D21*
X004047Y009193D02*
X003535Y009193D01*
X003535Y007304D02*
X003585Y007289D01*
X003636Y007278D01*
X003687Y007270D01*
X003739Y007265D01*
X003791Y007263D01*
X003843Y007265D01*
X003895Y007270D01*
X003946Y007278D01*
X003997Y007289D01*
X004047Y007304D01*
X004047Y006988D02*
X003535Y006988D01*
X003535Y008878D02*
X003585Y008893D01*
X003636Y008904D01*
X003687Y008912D01*
X003739Y008917D01*
X003791Y008919D01*
X003843Y008917D01*
X003895Y008912D01*
X003946Y008904D01*
X003997Y008893D01*
X004047Y008878D01*
D22*
X001646Y010031D03*
D23*
X001976Y016189D02*
X001976Y019535D01*
X005323Y019535D01*
X005323Y016886D01*
X005913Y017035D02*
X005913Y016386D01*
X006110Y016386D01*
X006110Y017035D01*
X006110Y018886D02*
X006110Y019535D01*
X005913Y019535D01*
X005913Y018886D01*
X005913Y019535D02*
X005323Y019535D01*
X005323Y019732D01*
X000598Y019732D01*
X000598Y019220D01*
X000992Y019220D01*
X000598Y019220D02*
X000598Y016701D01*
X000992Y016701D01*
X000598Y016701D02*
X000598Y016189D01*
X003823Y016189D01*
X003748Y016701D02*
X004142Y016701D01*
X004142Y016937D01*
X004142Y017331D02*
X004142Y017567D01*
X004142Y018354D01*
X004142Y018591D01*
X004142Y018984D02*
X004142Y019220D01*
X003748Y019220D01*
X003354Y019220D02*
X002961Y019220D01*
X002567Y019220D02*
X002173Y019220D01*
X001976Y019535D02*
X001976Y019732D01*
X001780Y019220D02*
X001386Y019220D01*
X001386Y018355D02*
X001347Y018353D01*
X001309Y018347D01*
X001272Y018338D01*
X001235Y018325D01*
X001200Y018308D01*
X001167Y018289D01*
X001136Y018266D01*
X001107Y018240D01*
X001081Y018211D01*
X001058Y018180D01*
X001039Y018147D01*
X001022Y018112D01*
X001009Y018075D01*
X001000Y018038D01*
X000994Y018000D01*
X000992Y017961D01*
X000994Y017922D01*
X001000Y017884D01*
X001009Y017847D01*
X001022Y017810D01*
X001039Y017775D01*
X001058Y017742D01*
X001081Y017711D01*
X001107Y017682D01*
X001136Y017656D01*
X001167Y017633D01*
X001200Y017614D01*
X001235Y017597D01*
X001272Y017584D01*
X001309Y017575D01*
X001347Y017569D01*
X001386Y017567D01*
X001386Y016701D02*
X001780Y016701D01*
X002173Y016701D02*
X002567Y016701D01*
X002961Y016701D02*
X003354Y016701D01*
X009161Y009122D02*
X012311Y009122D01*
X011917Y008866D01*
X011917Y007882D01*
X012311Y007626D01*
X012311Y009122D01*
X011917Y008866D02*
X009260Y008866D01*
X009260Y007882D01*
X011917Y007882D01*
X012311Y007626D02*
X009161Y007626D01*
X009161Y009122D01*
D24*
X019699Y014586D02*
X019699Y014696D01*
X019736Y014732D01*
X019882Y014732D01*
X019919Y014696D01*
X019919Y014586D01*
X019699Y014586D01*
X019772Y014807D02*
X019699Y014880D01*
X019772Y014953D01*
X019919Y014953D01*
X019882Y015028D02*
X019919Y015064D01*
X019919Y015138D01*
X019882Y015174D01*
X019736Y015174D02*
X019699Y015138D01*
X019699Y015064D01*
X019736Y015028D01*
X019882Y015028D01*
X019809Y014953D02*
X019809Y014807D01*
X019772Y014807D02*
X019919Y014807D01*
X019919Y015975D02*
X019699Y015975D01*
X019772Y016049D01*
X019699Y016122D01*
X019919Y016122D01*
X019882Y016196D02*
X019919Y016233D01*
X019919Y016306D01*
X019882Y016343D01*
X019736Y016343D01*
X019699Y016306D01*
X019699Y016233D01*
X019736Y016196D01*
X019882Y016196D01*
X019882Y016417D02*
X019919Y016454D01*
X019919Y016527D01*
X019882Y016564D01*
X019736Y016564D02*
X019699Y016527D01*
X019699Y016454D01*
X019736Y016417D01*
X019882Y016417D01*
X019919Y017239D02*
X019699Y017239D01*
X019699Y017349D01*
X019736Y017386D01*
X019882Y017386D01*
X019919Y017349D01*
X019919Y017239D01*
X019882Y017460D02*
X019919Y017496D01*
X019919Y017570D01*
X019882Y017607D01*
X019846Y017607D01*
X019809Y017570D01*
X019809Y017496D01*
X019772Y017460D01*
X019736Y017460D01*
X019699Y017496D01*
X019699Y017570D01*
X019736Y017607D01*
X019772Y017681D02*
X019699Y017754D01*
X019919Y017754D01*
X019919Y017681D02*
X019919Y017828D01*
X019882Y017902D02*
X019846Y017902D01*
X019809Y017938D01*
X019809Y018012D01*
X019846Y018049D01*
X019882Y018049D01*
X019919Y018012D01*
X019919Y017938D01*
X019882Y017902D01*
X019809Y017938D02*
X019772Y017902D01*
X019736Y017902D01*
X019699Y017938D01*
X019699Y018012D01*
X019736Y018049D01*
X019772Y018049D01*
X019809Y018012D01*
X019699Y018506D02*
X019699Y018616D01*
X019736Y018653D01*
X019882Y018653D01*
X019919Y018616D01*
X019919Y018506D01*
X019699Y018506D01*
X019699Y018727D02*
X019919Y018727D01*
X019809Y018727D02*
X019809Y018874D01*
X019699Y018874D02*
X019919Y018874D01*
X019919Y019022D02*
X019699Y019022D01*
X019699Y019095D02*
X019699Y018948D01*
X019772Y019169D02*
X019699Y019243D01*
X019919Y019243D01*
X019919Y019316D02*
X019919Y019169D01*
X019919Y019390D02*
X019919Y019537D01*
X019919Y019464D02*
X019699Y019464D01*
X019772Y019390D01*
M02*
