%
M48
M72
T01C0.0315
T02C0.0394
T03C0.0400
%
T01
X4831Y16071
X3650Y17961
T02
X6012Y17961
T03
X17106Y14913
X18106Y14913
X19106Y14913
X16110Y16299
X17110Y16299
X18110Y16299
X19110Y16299
X19197Y8575
X18197Y8575
X19197Y9575
X18197Y9575
X19197Y10575
X18197Y10575
X19197Y11575
X18197Y11575
X1256Y4953
X2256Y4953
X3256Y4953
X4256Y4953
X5256Y4953
X17106Y17677
X18106Y17677
X19106Y17677
X17110Y19059
X18110Y19059
X19110Y19059
X7024Y1772
X7024Y2772
X8024Y1772
X8024Y2772
X9024Y1772
X9024Y2772
X10024Y1772
X10024Y2772
X11024Y1772
X11024Y2772
X12024Y1772
X12024Y2772
X13024Y1772
X13024Y2772
X14024Y1772
X14024Y2772
X15024Y1772
X15024Y2772
X16024Y1772
X16024Y2772
X7039Y19004
X8039Y19004
X9039Y19004
X10039Y19004
X11039Y19004
X12039Y19004
X13039Y19004
X14039Y19004
M30
