G04 This is an RS-274x file exported by *
G04 gerbv version 2.6.1 *
G04 More information is available about gerbv at *
G04 http://gerbv.geda-project.org/ *
G04 --End of header info--*
%MOIN*%
%FSLAX34Y34*%
%IPPOS*%
G04 --Define apertures--*
%AMMACRO10*
21,1,0.060000,0.060000,0.000000,0.000000,0.000000*
%
%ADD10MACRO10*%
%AMMACRO11*
21,1,0.196850,0.157480,0.000000,0.000000,0.000000*
%
%ADD11MACRO11*%
%AMMACRO12*
21,1,0.059055,0.059055,0.000000,0.000000,0.000000*
%
%ADD12MACRO12*%
%ADD13C,0.0000*%
%ADD14C,0.0060*%
%ADD15C,0.0000*%
%ADD16C,0.0157*%
%ADD17C,0.0150*%
%ADD18C,0.0118*%
%ADD19C,0.0276*%
%ADD20C,0.0860*%
G04 --Start main section--*
G36*
G01X0012789Y0016272D02*
G01X0012768Y0016293D01*
G01X0012705Y0016445D01*
G01X0012705Y0016610D01*
G01X0012768Y0016762D01*
G01X0012801Y0016795D01*
G01X0011964Y0017789D01*
G01X0011902Y0017851D01*
G01X0009811Y0018315D01*
G01X0009769Y0018325D01*
G01X0009692Y0018367D01*
G01X0009662Y0018398D01*
G01X0009652Y0018408D01*
G01X0009609Y0018450D01*
G01X0009454Y0018605D01*
G01X0009359Y0018509D01*
G01X0009320Y0018470D01*
G01X0009219Y0018428D01*
G01X0009164Y0018428D01*
G01X0008915Y0018428D01*
G01X0008861Y0018428D01*
G01X0008759Y0018470D01*
G01X0008720Y0018509D01*
G01X0008544Y0018685D01*
G01X0008506Y0018723D01*
G01X0008501Y0018718D01*
G01X0008325Y0018542D01*
G01X0008293Y0018510D01*
G01X0008209Y0018475D01*
G01X0008164Y0018475D01*
G01X0007915Y0018475D01*
G01X0007870Y0018475D01*
G01X0007786Y0018510D01*
G01X0007753Y0018542D01*
G01X0007615Y0018681D01*
G01X0007615Y0018649D01*
G01X0007573Y0018548D01*
G01X0007496Y0018470D01*
G01X0007394Y0018428D01*
G01X0007339Y0018428D01*
G01X0006739Y0018428D01*
G01X0006717Y0018428D01*
G01X0006717Y0017474D01*
G01X0006669Y0017295D01*
G01X0006576Y0017134D01*
G01X0006445Y0017002D01*
G01X0006284Y0016909D01*
G01X0006105Y0016861D01*
G01X0005919Y0016861D01*
G01X0005739Y0016909D01*
G01X0005579Y0017002D01*
G01X0005447Y0017134D01*
G01X0005354Y0017295D01*
G01X0005306Y0017474D01*
G01X0005306Y0018447D01*
G01X0005354Y0018627D01*
G01X0005447Y0018788D01*
G01X0005579Y0018919D01*
G01X0005739Y0019012D01*
G01X0005919Y0019060D01*
G01X0006105Y0019060D01*
G01X0006284Y0019012D01*
G01X0006445Y0018919D01*
G01X0006464Y0018900D01*
G01X0006464Y0019249D01*
G01X0006464Y0019304D01*
G01X0006464Y0019359D01*
G01X0006506Y0019460D01*
G01X0006583Y0019538D01*
G01X0006685Y0019580D01*
G01X0006739Y0019580D01*
G01X0006794Y0019580D01*
G01X0007339Y0019580D01*
G01X0007394Y0019580D01*
G01X0007495Y0019538D01*
G01X0007573Y0019460D01*
G01X0007615Y0019359D01*
G01X0007615Y0019327D01*
G01X0007753Y0019466D01*
G01X0007785Y0019498D01*
G01X0007869Y0019533D01*
G01X0007915Y0019533D01*
G01X0008164Y0019533D01*
G01X0008209Y0019533D01*
G01X0008293Y0019498D01*
G01X0008325Y0019466D01*
G01X0008501Y0019290D01*
G01X0008506Y0019285D01*
G01X0008545Y0019323D01*
G01X0008583Y0019362D01*
G01X0008720Y0019499D01*
G01X0008759Y0019537D01*
G01X0008860Y0019579D01*
G01X0008915Y0019580D01*
G01X0009164Y0019580D01*
G01X0009218Y0019580D01*
G01X0009320Y0019538D01*
G01X0009359Y0019499D01*
G01X0009454Y0019403D01*
G01X0009476Y0019425D01*
G01X0009486Y0019434D01*
G01X0009662Y0019610D01*
G01X0009700Y0019649D01*
G01X0009705Y0019653D01*
G01X0009755Y0019674D01*
G01X0009798Y0019694D01*
G01X0009805Y0019695D01*
G01X0009817Y0019700D01*
G01X0009865Y0019700D01*
G01X0012753Y0019939D01*
G01X0012759Y0019940D01*
G01X0012772Y0019940D01*
G01X0012778Y0019940D01*
G01X0012991Y0019940D01*
G01X0013052Y0019940D01*
G01X0014301Y0019940D01*
G01X0014307Y0019940D01*
G01X0014361Y0019940D01*
G01X0014364Y0019939D01*
G01X0017504Y0019875D01*
G01X0017563Y0019874D01*
G01X0017671Y0019828D01*
G01X0017714Y0019786D01*
G01X0017837Y0019662D01*
G01X0017870Y0019629D01*
G01X0017878Y0019613D01*
G01X0017931Y0019635D01*
G01X0017986Y0019635D01*
G01X0018234Y0019635D01*
G01X0018289Y0019635D01*
G01X0018390Y0019593D01*
G01X0018429Y0019554D01*
G01X0018605Y0019378D01*
G01X0018643Y0019340D01*
G01X0018649Y0019345D01*
G01X0018681Y0019377D01*
G01X0018824Y0019521D01*
G01X0018856Y0019553D01*
G01X0018940Y0019588D01*
G01X0018986Y0019588D01*
G01X0019234Y0019588D01*
G01X0019280Y0019588D01*
G01X0019364Y0019553D01*
G01X0019396Y0019521D01*
G01X0019572Y0019345D01*
G01X0019604Y0019313D01*
G01X0019639Y0019229D01*
G01X0019639Y0019183D01*
G01X0019639Y0018935D01*
G01X0019639Y0018889D01*
G01X0019604Y0018805D01*
G01X0019572Y0018773D01*
G01X0019396Y0018597D01*
G01X0019364Y0018565D01*
G01X0019280Y0018530D01*
G01X0019234Y0018530D01*
G01X0018986Y0018530D01*
G01X0018941Y0018530D01*
G01X0018857Y0018565D01*
G01X0018824Y0018597D01*
G01X0018649Y0018773D01*
G01X0018643Y0018778D01*
G01X0018605Y0018740D01*
G01X0018506Y0018641D01*
G01X0018738Y0018057D01*
G01X0018820Y0018139D01*
G01X0018852Y0018171D01*
G01X0018936Y0018206D01*
G01X0018982Y0018206D01*
G01X0019231Y0018206D01*
G01X0019276Y0018206D01*
G01X0019360Y0018171D01*
G01X0019392Y0018139D01*
G01X0019568Y0017963D01*
G01X0019600Y0017931D01*
G01X0019635Y0017847D01*
G01X0019635Y0017801D01*
G01X0019635Y0017553D01*
G01X0019635Y0017508D01*
G01X0019600Y0017424D01*
G01X0019568Y0017391D01*
G01X0019392Y0017215D01*
G01X0019360Y0017183D01*
G01X0019276Y0017148D01*
G01X0019231Y0017148D01*
G01X0018982Y0017148D01*
G01X0018937Y0017148D01*
G01X0018893Y0017166D01*
G01X0018931Y0016875D01*
G01X0018986Y0016875D01*
G01X0019234Y0016875D01*
G01X0019289Y0016875D01*
G01X0019390Y0016833D01*
G01X0019429Y0016794D01*
G01X0019605Y0016618D01*
G01X0019644Y0016580D01*
G01X0019686Y0016479D01*
G01X0019686Y0016423D01*
G01X0019686Y0016175D01*
G01X0019686Y0016120D01*
G01X0019644Y0016019D01*
G01X0019605Y0015980D01*
G01X0019429Y0015804D01*
G01X0019391Y0015766D01*
G01X0019375Y0015759D01*
G01X0019743Y0015255D01*
G01X0019765Y0015226D01*
G01X0019793Y0015157D01*
G01X0019799Y0015121D01*
G01X0020006Y0013749D01*
G01X0020006Y0020006D01*
G01X0000679Y0020006D01*
G01X0000679Y0000679D01*
G01X0020006Y0000679D01*
G01X0020006Y0001060D01*
G01X0019988Y0001042D01*
G01X0019882Y0000996D01*
G01X0019824Y0000994D01*
G01X0012346Y0000715D01*
G01X0012335Y0000715D01*
G01X0012022Y0000715D01*
G01X0011961Y0000715D01*
G01X0008713Y0000715D01*
G01X0008700Y0000715D01*
G01X0008652Y0000715D01*
G01X0008629Y0000725D01*
G01X0007187Y0000960D01*
G01X0007171Y0000963D01*
G01X0006621Y0001083D01*
G01X0006578Y0001092D01*
G01X0006501Y0001134D01*
G01X0006470Y0001165D01*
G01X0006417Y0001218D01*
G01X0006407Y0001229D01*
G01X0006387Y0001252D01*
G01X0006379Y0001265D01*
G01X0004311Y0004377D01*
G01X0004132Y0004377D01*
G01X0004077Y0004377D01*
G01X0003976Y0004419D01*
G01X0003937Y0004458D01*
G01X0003800Y0004595D01*
G01X0003761Y0004634D01*
G01X0003723Y0004672D01*
G01X0003718Y0004667D01*
G01X0003542Y0004491D01*
G01X0003510Y0004459D01*
G01X0003426Y0004424D01*
G01X0003380Y0004424D01*
G01X0003132Y0004424D01*
G01X0003086Y0004424D01*
G01X0003002Y0004459D01*
G01X0002970Y0004491D01*
G01X0002826Y0004635D01*
G01X0002794Y0004667D01*
G01X0002789Y0004672D01*
G01X0002751Y0004634D01*
G01X0002575Y0004458D01*
G01X0002536Y0004419D01*
G01X0002435Y0004377D01*
G01X0002380Y0004377D01*
G01X0002132Y0004377D01*
G01X0002077Y0004377D01*
G01X0001976Y0004419D01*
G01X0001937Y0004458D01*
G01X0001821Y0004573D01*
G01X0001790Y0004497D01*
G01X0001712Y0004419D01*
G01X0001611Y0004377D01*
G01X0001556Y0004377D01*
G01X0001011Y0004377D01*
G01X0000956Y0004377D01*
G01X0000901Y0004377D01*
G01X0000800Y0004419D01*
G01X0000722Y0004497D01*
G01X0000680Y0004598D01*
G01X0000680Y0004653D01*
G01X0000680Y0004708D01*
G01X0000680Y0005253D01*
G01X0000680Y0005307D01*
G01X0000722Y0005409D01*
G01X0000800Y0005486D01*
G01X0000901Y0005528D01*
G01X0000956Y0005528D01*
G01X0001556Y0005528D01*
G01X0001610Y0005528D01*
G01X0001712Y0005487D01*
G01X0001789Y0005409D01*
G01X0001821Y0005332D01*
G01X0001937Y0005448D01*
G01X0001975Y0005486D01*
G01X0002077Y0005528D01*
G01X0002132Y0005528D01*
G01X0002380Y0005528D01*
G01X0002431Y0005528D01*
G01X0007608Y0010706D01*
G01X0007640Y0010738D01*
G01X0007720Y0010781D01*
G01X0007765Y0010790D01*
G01X0013396Y0011911D01*
G01X0013459Y0011969D01*
G01X0013510Y0012020D01*
G01X0013560Y0012041D01*
G01X0010766Y0016931D01*
G01X0010705Y0016966D01*
G01X0010652Y0016988D01*
G01X0010634Y0017006D01*
G01X0010630Y0017008D01*
G01X0010625Y0017015D01*
G01X0010535Y0017104D01*
G01X0010472Y0017256D01*
G01X0010472Y0017421D01*
G01X0010535Y0017573D01*
G01X0010652Y0017689D01*
G01X0010804Y0017752D01*
G01X0010968Y0017752D01*
G01X0011120Y0017689D01*
G01X0011236Y0017573D01*
G01X0011299Y0017421D01*
G01X0011299Y0017394D01*
G01X0011300Y0017391D01*
G01X0011299Y0017334D01*
G01X0011299Y0017256D01*
G01X0011298Y0017252D01*
G01X0011297Y0017235D01*
G01X0013891Y0012694D01*
G01X0012905Y0016161D01*
G01X0012890Y0016175D01*
G01X0012884Y0016177D01*
G01X0012830Y0016231D01*
G01X0012791Y0016268D01*
G01X0012789Y0016272D01*
G01X0012789Y0016272D01*
G37*
%LPC*%
G36*
G01X0004138Y0014935D02*
G01X0004080Y0014948D01*
G01X0003728Y0014832D01*
G01X0003728Y0014575D01*
G01X0003728Y0014520D01*
G01X0003687Y0014419D01*
G01X0003609Y0014341D01*
G01X0003508Y0014299D01*
G01X0003453Y0014299D01*
G01X0002862Y0014299D01*
G01X0002808Y0014299D01*
G01X0002706Y0014341D01*
G01X0002629Y0014419D01*
G01X0002587Y0014520D01*
G01X0002587Y0014575D01*
G01X0002587Y0015111D01*
G01X0002587Y0015165D01*
G01X0002587Y0015220D01*
G01X0002629Y0015321D01*
G01X0002706Y0015399D01*
G01X0002807Y0015441D01*
G01X0002862Y0015441D01*
G01X0002917Y0015441D01*
G01X0003453Y0015441D01*
G01X0003507Y0015441D01*
G01X0003559Y0015420D01*
G01X0003888Y0015529D01*
G01X0003907Y0015551D01*
G01X0003913Y0015565D01*
G01X0003929Y0015581D01*
G01X0003872Y0015638D01*
G01X0003779Y0015799D01*
G01X0003731Y0015978D01*
G01X0003731Y0016164D01*
G01X0003779Y0016343D01*
G01X0003872Y0016504D01*
G01X0004004Y0016635D01*
G01X0004165Y0016728D01*
G01X0004344Y0016776D01*
G01X0005317Y0016776D01*
G01X0005497Y0016728D01*
G01X0005658Y0016635D01*
G01X0005789Y0016504D01*
G01X0005882Y0016343D01*
G01X0005930Y0016164D01*
G01X0005930Y0015978D01*
G01X0005882Y0015799D01*
G01X0005789Y0015638D01*
G01X0005658Y0015506D01*
G01X0005497Y0015413D01*
G01X0005317Y0015365D01*
G01X0004677Y0015365D01*
G01X0004677Y0015248D01*
G01X0004614Y0015097D01*
G01X0004498Y0014980D01*
G01X0004346Y0014917D01*
G01X0004251Y0014917D01*
G01X0004233Y0014914D01*
G01X0004218Y0014917D01*
G01X0004182Y0014917D01*
G01X0004138Y0014935D01*
G37*
G36*
G01X0001484Y0015394D02*
G01X0001530Y0015394D01*
G01X0002075Y0015394D01*
G01X0002120Y0015394D01*
G01X0002204Y0015359D01*
G01X0002269Y0015295D01*
G01X0002304Y0015211D01*
G01X0002304Y0015165D01*
G01X0002304Y0014575D01*
G01X0002304Y0014529D01*
G01X0002269Y0014445D01*
G01X0002205Y0014381D01*
G01X0002121Y0014346D01*
G01X0002075Y0014346D01*
G01X0001484Y0014346D01*
G01X0001439Y0014346D01*
G01X0001355Y0014381D01*
G01X0001290Y0014445D01*
G01X0001256Y0014529D01*
G01X0001256Y0014575D01*
G01X0001256Y0015120D01*
G01X0001256Y0015165D01*
G01X0001256Y0015211D01*
G01X0001290Y0015295D01*
G01X0001355Y0015359D01*
G01X0001439Y0015394D01*
G01X0001484Y0015394D01*
G37*
G36*
G01X0006767Y0017686D02*
G01X0006767Y0017731D01*
G01X0006802Y0017815D01*
G01X0006866Y0017880D01*
G01X0006950Y0017915D01*
G01X0006996Y0017915D01*
G01X0008965Y0017915D01*
G01X0009010Y0017915D01*
G01X0009094Y0017880D01*
G01X0009158Y0017816D01*
G01X0009193Y0017732D01*
G01X0009193Y0017686D01*
G01X0009193Y0016111D01*
G01X0009193Y0016066D01*
G01X0009159Y0015982D01*
G01X0009094Y0015917D01*
G01X0009010Y0015883D01*
G01X0008965Y0015882D01*
G01X0007042Y0015882D01*
G01X0006996Y0015882D01*
G01X0006951Y0015882D01*
G01X0006866Y0015917D01*
G01X0006802Y0015982D01*
G01X0006767Y0016066D01*
G01X0006767Y0016111D01*
G01X0006767Y0016157D01*
G01X0006767Y0017686D01*
G37*
G36*
G01X0004308Y0017436D02*
G01X0004208Y0017194D01*
G01X0004023Y0017008D01*
G01X0003781Y0016908D01*
G01X0003519Y0016908D01*
G01X0003276Y0017008D01*
G01X0003091Y0017194D01*
G01X0002991Y0017436D01*
G01X0002991Y0018485D01*
G01X0003091Y0018727D01*
G01X0003276Y0018913D01*
G01X0003519Y0019013D01*
G01X0003781Y0019013D01*
G01X0004023Y0018913D01*
G01X0004208Y0018727D01*
G01X0004308Y0018485D01*
G01X0004308Y0017436D01*
G37*
%LPD*%
G36*
G01X0013309Y0006838D02*
G01X0013229Y0006867D01*
G01X0011887Y0006596D01*
G01X0009057Y0004400D01*
G01X0008949Y0004292D01*
G01X0008695Y0003974D01*
G01X0013209Y0006479D01*
G01X0013243Y0006538D01*
G01X0013264Y0006589D01*
G01X0013283Y0006608D01*
G01X0013287Y0006614D01*
G01X0013297Y0006622D01*
G01X0013380Y0006705D01*
G01X0013532Y0006768D01*
G01X0013696Y0006768D01*
G01X0013848Y0006705D01*
G01X0013965Y0006589D01*
G01X0014028Y0006437D01*
G01X0014028Y0006272D01*
G01X0013965Y0006122D01*
G01X0014016Y0006000D01*
G01X0014016Y0005938D01*
G01X0014056Y0005958D01*
G01X0014088Y0006010D01*
G01X0014106Y0006053D01*
G01X0014132Y0006079D01*
G01X0014139Y0006091D01*
G01X0014155Y0006102D01*
G01X0014223Y0006169D01*
G01X0014374Y0006232D01*
G01X0014446Y0006232D01*
G01X0014500Y0006628D01*
G01X0014494Y0006642D01*
G01X0014492Y0006644D01*
G01X0014462Y0006717D01*
G01X0014439Y0006771D01*
G01X0014439Y0006773D01*
G01X0014429Y0006796D01*
G01X0014429Y0006960D01*
G01X0014492Y0007112D01*
G01X0014608Y0007228D01*
G01X0014675Y0007256D01*
G01X0014309Y0010731D01*
G01X0013974Y0011317D01*
G01X0013826Y0011256D01*
G01X0013662Y0011256D01*
G01X0013596Y0011283D01*
G01X0013515Y0011312D01*
G01X0011937Y0010998D01*
G01X0012032Y0010903D01*
G01X0012094Y0010752D01*
G01X0012094Y0010587D01*
G01X0012032Y0010435D01*
G01X0011915Y0010319D01*
G01X0011763Y0010256D01*
G01X0011731Y0010256D01*
G01X0011706Y0010179D01*
G01X0011905Y0009315D01*
G01X0011964Y0009256D01*
G01X0013552Y0007985D01*
G01X0013619Y0007976D01*
G01X0013673Y0007976D01*
G01X0013700Y0007965D01*
G01X0013707Y0007964D01*
G01X0013719Y0007957D01*
G01X0013825Y0007913D01*
G01X0013942Y0007796D01*
G01X0014004Y0007644D01*
G01X0014004Y0007480D01*
G01X0013942Y0007328D01*
G01X0013870Y0007257D01*
G01X0013870Y0007142D01*
G01X0013807Y0006990D01*
G01X0013691Y0006874D01*
G01X0013539Y0006811D01*
G01X0013374Y0006811D01*
G01X0013309Y0006838D01*
G01X0013309Y0006838D01*
G37*
G36*
G01X0010164Y0008549D02*
G01X0010175Y0008532D01*
G01X0010232Y0008474D01*
G01X0010295Y0008322D01*
G01X0010295Y0008158D01*
G01X0010232Y0008006D01*
G01X0010143Y0007917D01*
G01X0010138Y0007910D01*
G01X0010134Y0007908D01*
G01X0010116Y0007890D01*
G01X0010063Y0007868D01*
G01X0010002Y0007833D01*
G01X0009239Y0006495D01*
G01X0009240Y0006491D01*
G01X0009240Y0006436D01*
G01X0009240Y0005316D01*
G01X0011569Y0007123D01*
G01X0011597Y0007145D01*
G01X0011661Y0007174D01*
G01X0011696Y0007181D01*
G01X0013108Y0007466D01*
G01X0013161Y0007515D01*
G01X0011569Y0008789D01*
G01X0011562Y0008795D01*
G01X0011550Y0008806D01*
G01X0011544Y0008812D01*
G01X0011410Y0008945D01*
G01X0011380Y0008976D01*
G01X0011338Y0009051D01*
G01X0011329Y0009093D01*
G01X0011111Y0010042D01*
G01X0011047Y0010109D01*
G01X0010992Y0010163D01*
G01X0010934Y0010304D01*
G01X0008920Y0010145D01*
G01X0009195Y0010053D01*
G01X0009229Y0010042D01*
G01X0009289Y0010005D01*
G01X0009314Y0009980D01*
G01X0009448Y0009846D01*
G01X0009467Y0009827D01*
G01X0009497Y0009784D01*
G01X0009509Y0009759D01*
G01X0010034Y0008636D01*
G01X0010079Y0008606D01*
G01X0010116Y0008591D01*
G01X0010146Y0008561D01*
G01X0010164Y0008549D01*
G01X0010164Y0008549D01*
G37*
G36*
G01X0017002Y0004150D02*
G01X0017873Y0003723D01*
G01X0017896Y0003712D01*
G01X0017936Y0003682D01*
G01X0017954Y0003665D01*
G01X0017985Y0003634D01*
G01X0018291Y0003634D01*
G01X0018346Y0003634D01*
G01X0018447Y0003592D01*
G01X0018525Y0003515D01*
G01X0018567Y0003413D01*
G01X0018567Y0003358D01*
G01X0018567Y0002768D01*
G01X0018567Y0002713D01*
G01X0018525Y0002612D01*
G01X0018448Y0002534D01*
G01X0018346Y0002492D01*
G01X0018291Y0002492D01*
G01X0017756Y0002492D01*
G01X0017701Y0002492D01*
G01X0017646Y0002492D01*
G01X0017607Y0002508D01*
G01X0016473Y0002070D01*
G01X0016485Y0002058D01*
G01X0016517Y0002026D01*
G01X0016552Y0001942D01*
G01X0016552Y0001896D01*
G01X0016552Y0001647D01*
G01X0016552Y0001602D01*
G01X0016518Y0001518D01*
G01X0016485Y0001486D01*
G01X0016481Y0001481D01*
G01X0017472Y0001518D01*
G01X0017472Y0001980D01*
G01X0017472Y0002026D01*
G01X0017507Y0002110D01*
G01X0017571Y0002174D01*
G01X0017655Y0002209D01*
G01X0017701Y0002209D01*
G01X0018291Y0002209D01*
G01X0018337Y0002209D01*
G01X0018421Y0002174D01*
G01X0018485Y0002110D01*
G01X0018520Y0002026D01*
G01X0018520Y0001980D01*
G01X0018520Y0001557D01*
G01X0018956Y0001573D01*
G01X0018956Y0001980D01*
G01X0018956Y0002026D01*
G01X0018991Y0002110D01*
G01X0019055Y0002174D01*
G01X0019139Y0002209D01*
G01X0019185Y0002209D01*
G01X0019560Y0002209D01*
G01X0019560Y0002492D01*
G01X0019240Y0002492D01*
G01X0019185Y0002492D01*
G01X0019130Y0002492D01*
G01X0019029Y0002534D01*
G01X0018951Y0002612D01*
G01X0018909Y0002713D01*
G01X0018909Y0002768D01*
G01X0018909Y0002823D01*
G01X0018909Y0003358D01*
G01X0018909Y0003413D01*
G01X0018951Y0003514D01*
G01X0018959Y0003522D01*
G01X0018926Y0004054D01*
G01X0018893Y0004101D01*
G01X0018862Y0004132D01*
G01X0018847Y0004168D01*
G01X0018837Y0004182D01*
G01X0018833Y0004202D01*
G01X0018799Y0004284D01*
G01X0018799Y0004448D01*
G01X0018862Y0004600D01*
G01X0018978Y0004717D01*
G01X0019130Y0004780D01*
G01X0019173Y0004780D01*
G01X0018969Y0005528D01*
G01X0018834Y0005472D01*
G01X0018670Y0005472D01*
G01X0018518Y0005535D01*
G01X0018402Y0005652D01*
G01X0018371Y0005726D01*
G01X0018334Y0005811D01*
G01X0016905Y0006848D01*
G01X0016828Y0006854D01*
G01X0016816Y0006854D01*
G01X0016858Y0006605D01*
G01X0016860Y0006592D01*
G01X0016862Y0006566D01*
G01X0016862Y0006554D01*
G01X0016862Y0006265D01*
G01X0016862Y0006247D01*
G01X0016858Y0006210D01*
G01X0016854Y0006193D01*
G01X0016446Y0004522D01*
G01X0016445Y0004518D01*
G01X0016447Y0004515D01*
G01X0016464Y0004504D01*
G01X0016473Y0004490D01*
G01X0016500Y0004463D01*
G01X0016517Y0004421D01*
G01X0016548Y0004373D01*
G01X0016909Y0004196D01*
G01X0016909Y0004176D01*
G01X0016944Y0004142D01*
G01X0016993Y0004142D01*
G01X0017002Y0004150D01*
G01X0017002Y0004150D01*
G37*
G36*
G01X0007998Y0009725D02*
G01X0007979Y0009728D01*
G01X0007886Y0009728D01*
G01X0007821Y0009755D01*
G01X0005446Y0005524D01*
G01X0005536Y0005487D01*
G01X0005575Y0005448D01*
G01X0005751Y0005272D01*
G01X0005789Y0005233D01*
G01X0005831Y0005132D01*
G01X0005831Y0005077D01*
G01X0005831Y0004922D01*
G01X0006555Y0004554D01*
G01X0006576Y0004543D01*
G01X0006615Y0004514D01*
G01X0006603Y0004756D01*
G01X0006600Y0004763D01*
G01X0006600Y0004824D01*
G01X0006600Y0004899D01*
G01X0006600Y0004959D01*
G01X0006600Y0006473D01*
G01X0006600Y0006520D01*
G01X0006628Y0006608D01*
G01X0006654Y0006646D01*
G01X0008585Y0009465D01*
G01X0008591Y0009548D01*
G01X0008591Y0009611D01*
G01X0008151Y0009759D01*
G01X0008093Y0009746D01*
G01X0008051Y0009728D01*
G01X0008013Y0009728D01*
G01X0007998Y0009725D01*
G01X0007998Y0009725D01*
G37*
G36*
G01X0006606Y0008840D02*
G01X0003248Y0005481D01*
G01X0003380Y0005481D01*
G01X0003425Y0005482D01*
G01X0003510Y0005447D01*
G01X0003542Y0005414D01*
G01X0003718Y0005239D01*
G01X0003723Y0005234D01*
G01X0003761Y0005272D01*
G01X0003937Y0005448D01*
G01X0003975Y0005486D01*
G01X0004077Y0005528D01*
G01X0004132Y0005528D01*
G01X0004380Y0005528D01*
G01X0004435Y0005528D01*
G01X0004536Y0005487D01*
G01X0004575Y0005448D01*
G01X0004657Y0005366D01*
G01X0006606Y0008840D01*
G01X0006606Y0008840D01*
G37*
G36*
G01X0017267Y0011956D02*
G01X0017280Y0011953D01*
G01X0017315Y0011953D01*
G01X0017359Y0011934D01*
G01X0017419Y0011920D01*
G01X0017672Y0012002D01*
G01X0017663Y0012011D01*
G01X0017621Y0012112D01*
G01X0017621Y0012167D01*
G01X0017621Y0012416D01*
G01X0017621Y0012470D01*
G01X0017663Y0012571D01*
G01X0017702Y0012610D01*
G01X0017839Y0012747D01*
G01X0017878Y0012786D01*
G01X0017883Y0012791D01*
G01X0017878Y0012796D01*
G01X0017702Y0012972D01*
G01X0017663Y0013011D01*
G01X0017621Y0013112D01*
G01X0017621Y0013167D01*
G01X0017621Y0013416D01*
G01X0017621Y0013470D01*
G01X0017663Y0013571D01*
G01X0017702Y0013610D01*
G01X0017839Y0013747D01*
G01X0017878Y0013786D01*
G01X0017916Y0013825D01*
G01X0018018Y0013867D01*
G01X0018032Y0013867D01*
G01X0017873Y0014248D01*
G01X0017838Y0014330D01*
G01X0017843Y0014373D01*
G01X0017826Y0014380D01*
G01X0017787Y0014419D01*
G01X0017672Y0014534D01*
G01X0017640Y0014457D01*
G01X0017563Y0014380D01*
G01X0017461Y0014338D01*
G01X0017406Y0014338D01*
G01X0016806Y0014338D01*
G01X0016752Y0014338D01*
G01X0016650Y0014380D01*
G01X0016573Y0014457D01*
G01X0016531Y0014558D01*
G01X0016531Y0014613D01*
G01X0016531Y0015159D01*
G01X0016531Y0015213D01*
G01X0016531Y0015268D01*
G01X0016573Y0015369D01*
G01X0016650Y0015447D01*
G01X0016751Y0015489D01*
G01X0016806Y0015489D01*
G01X0016861Y0015489D01*
G01X0017241Y0015489D01*
G01X0017137Y0015604D01*
G01X0017091Y0015654D01*
G01X0017066Y0015724D01*
G01X0016986Y0015724D01*
G01X0016931Y0015724D01*
G01X0016830Y0015765D01*
G01X0016791Y0015804D01*
G01X0016676Y0015920D01*
G01X0016644Y0015843D01*
G01X0016567Y0015766D01*
G01X0016465Y0015724D01*
G01X0016410Y0015724D01*
G01X0015810Y0015724D01*
G01X0015756Y0015724D01*
G01X0015751Y0015725D01*
G01X0016899Y0011790D01*
G01X0016998Y0011890D01*
G01X0017150Y0011953D01*
G01X0017249Y0011953D01*
G01X0017267Y0011956D01*
G01X0017267Y0011956D01*
G37*
G36*
G01X0015535Y0016468D02*
G01X0015535Y0016544D01*
G01X0015535Y0016599D01*
G01X0015535Y0016654D01*
G01X0015577Y0016755D01*
G01X0015654Y0016833D01*
G01X0015755Y0016875D01*
G01X0015810Y0016875D01*
G01X0015865Y0016875D01*
G01X0016410Y0016875D01*
G01X0016465Y0016875D01*
G01X0016566Y0016833D01*
G01X0016644Y0016756D01*
G01X0016676Y0016679D01*
G01X0016791Y0016794D01*
G01X0016830Y0016833D01*
G01X0016931Y0016875D01*
G01X0016986Y0016875D01*
G01X0017234Y0016875D01*
G01X0017289Y0016875D01*
G01X0017390Y0016833D01*
G01X0017429Y0016794D01*
G01X0017605Y0016618D01*
G01X0017610Y0016613D01*
G01X0017615Y0016618D01*
G01X0017654Y0016657D01*
G01X0017791Y0016794D01*
G01X0017830Y0016833D01*
G01X0017840Y0016837D01*
G01X0017591Y0017172D01*
G01X0017563Y0017144D01*
G01X0017461Y0017102D01*
G01X0017406Y0017102D01*
G01X0016806Y0017102D01*
G01X0016752Y0017102D01*
G01X0016650Y0017143D01*
G01X0016573Y0017221D01*
G01X0016531Y0017322D01*
G01X0016531Y0017377D01*
G01X0016531Y0017922D01*
G01X0016531Y0017977D01*
G01X0016531Y0018032D01*
G01X0016570Y0018128D01*
G01X0014819Y0018921D01*
G01X0015535Y0016468D01*
G01X0015535Y0016468D01*
G37*
G36*
G01X0015290Y0012304D02*
G01X0015286Y0012322D01*
G01X0015248Y0012414D01*
G01X0015248Y0012578D01*
G01X0015311Y0012730D01*
G01X0015399Y0012818D01*
G01X0014224Y0014798D01*
G01X0015515Y0010575D01*
G01X0015381Y0012177D01*
G01X0015345Y0012228D01*
G01X0015311Y0012262D01*
G01X0015298Y0012294D01*
G01X0015290Y0012304D01*
G01X0015290Y0012304D01*
G37*
G36*
G01X0009524Y0003256D02*
G01X0009646Y0003378D01*
G01X0009654Y0003386D01*
G01X0009671Y0003401D01*
G01X0009681Y0003408D01*
G01X0011959Y0005086D01*
G01X0009042Y0003467D01*
G01X0009124Y0003467D01*
G01X0009185Y0003467D01*
G01X0009246Y0003468D01*
G01X0009358Y0003421D01*
G01X0009401Y0003378D01*
G01X0009454Y0003325D01*
G01X0009497Y0003282D01*
G01X0009524Y0003256D01*
G01X0009524Y0003256D01*
G37*
G36*
G01X0009464Y0008222D02*
G01X0009468Y0008257D01*
G01X0009467Y0008292D01*
G01X0009469Y0008295D01*
G01X0009469Y0008322D01*
G01X0009477Y0008342D01*
G01X0009480Y0008377D01*
G01X0009125Y0009136D01*
G01X0009090Y0009120D01*
G01X0007440Y0006712D01*
G01X0008659Y0006712D01*
G01X0009471Y0008136D01*
G01X0009470Y0008154D01*
G01X0009469Y0008158D01*
G01X0009469Y0008208D01*
G01X0009464Y0008222D01*
G01X0009464Y0008222D01*
G37*
G36*
G01X0019505Y0007246D02*
G01X0019504Y0007242D01*
G01X0019504Y0007213D01*
G01X0019441Y0007061D01*
G01X0019325Y0006945D01*
G01X0019228Y0006905D01*
G01X0020006Y0004046D01*
G01X0020006Y0009399D01*
G01X0019717Y0008042D01*
G01X0019715Y0008031D01*
G01X0019611Y0007618D01*
G01X0019606Y0007598D01*
G01X0019591Y0007561D01*
G01X0019581Y0007543D01*
G01X0019501Y0007402D01*
G01X0019502Y0007383D01*
G01X0019504Y0007378D01*
G01X0019504Y0007302D01*
G01X0019505Y0007246D01*
G01X0019505Y0007246D01*
G37*
G36*
G01X0012593Y0018573D02*
G01X0012417Y0018398D01*
G01X0012403Y0018384D01*
G01X0012525Y0018262D01*
G01X0012529Y0018257D01*
G01X0012538Y0018248D01*
G01X0012543Y0018243D01*
G01X0013700Y0016869D01*
G01X0013708Y0016859D01*
G01X0013723Y0016839D01*
G01X0013729Y0016828D01*
G01X0013954Y0016449D01*
G01X0013060Y0018428D01*
G01X0012915Y0018428D01*
G01X0012861Y0018428D01*
G01X0012759Y0018470D01*
G01X0012720Y0018509D01*
G01X0012624Y0018605D01*
G01X0012593Y0018573D01*
G01X0012593Y0018573D01*
G37*
G36*
G01X0018742Y0008509D02*
G01X0018745Y0008511D01*
G01X0018781Y0008545D01*
G01X0018836Y0008600D01*
G01X0018841Y0008602D01*
G01X0018854Y0008615D01*
G01X0019156Y0009716D01*
G01X0019073Y0009716D01*
G01X0019018Y0009716D01*
G01X0018917Y0009758D01*
G01X0018910Y0009764D01*
G01X0018465Y0009615D01*
G01X0018419Y0009596D01*
G01X0018383Y0009596D01*
G01X0018358Y0009596D01*
G01X0018284Y0009596D01*
G01X0018223Y0009596D01*
G01X0018035Y0009596D01*
G01X0017980Y0009596D01*
G01X0017875Y0009635D01*
G01X0017833Y0009672D01*
G01X0017728Y0009765D01*
G01X0017717Y0009738D01*
G01X0017600Y0009622D01*
G01X0017596Y0009620D01*
G01X0018251Y0008219D01*
G01X0018295Y0008189D01*
G01X0018333Y0008173D01*
G01X0018340Y0008166D01*
G01X0018371Y0008196D01*
G01X0018385Y0008211D01*
G01X0018419Y0008236D01*
G01X0018438Y0008247D01*
G01X0018664Y0008373D01*
G01X0018699Y0008433D01*
G01X0018720Y0008484D01*
G01X0018739Y0008503D01*
G01X0018741Y0008507D01*
G01X0018742Y0008508D01*
G01X0018742Y0008509D01*
G01X0018742Y0008509D01*
G37*
G36*
G01X0013672Y0018557D02*
G01X0014688Y0016308D01*
G01X0014031Y0018428D01*
G01X0013915Y0018428D01*
G01X0013861Y0018428D01*
G01X0013759Y0018470D01*
G01X0013720Y0018509D01*
G01X0013672Y0018557D01*
G01X0013672Y0018557D01*
G37*
G36*
G01X0007286Y0003313D02*
G01X0007304Y0003305D01*
G01X0007343Y0003267D01*
G01X0007346Y0003263D01*
G01X0008401Y0004586D01*
G01X0007223Y0004586D01*
G01X0007286Y0003313D01*
G01X0007286Y0003313D01*
G37*
G36*
G01X0005976Y0003638D02*
G01X0005958Y0003663D01*
G01X0005921Y0003699D01*
G01X0005909Y0003728D01*
G01X0005883Y0003764D01*
G01X0005289Y0004010D01*
G01X0006207Y0002628D01*
G01X0006199Y0003520D01*
G01X0006189Y0003520D01*
G01X0006037Y0003583D01*
G01X0005992Y0003629D01*
G01X0005976Y0003638D01*
G01X0005976Y0003638D01*
G37*
G36*
G01X0016282Y0003314D02*
G01X0016304Y0003305D01*
G01X0016343Y0003267D01*
G01X0016519Y0003091D01*
G01X0016557Y0003052D01*
G01X0016599Y0002951D01*
G01X0016599Y0002896D01*
G01X0016599Y0002774D01*
G01X0017390Y0003080D01*
G01X0016250Y0003803D01*
G01X0016282Y0003314D01*
G01X0016282Y0003314D01*
G37*
G36*
G01X0016535Y0018958D02*
G01X0016535Y0019304D01*
G01X0016535Y0019359D01*
G01X0016535Y0019414D01*
G01X0016577Y0019515D01*
G01X0016600Y0019539D01*
G01X0015188Y0019568D01*
G01X0016535Y0018958D01*
G01X0016535Y0018958D01*
G37*
G36*
G01X0018488Y0014547D02*
G01X0018392Y0014452D01*
G01X0018360Y0014420D01*
G01X0018276Y0014385D01*
G01X0018231Y0014385D01*
G01X0018200Y0014385D01*
G01X0018424Y0013847D01*
G01X0018477Y0013825D01*
G01X0018516Y0013786D01*
G01X0018668Y0013634D01*
G01X0018668Y0013637D01*
G01X0018703Y0013721D01*
G01X0018767Y0013785D01*
G01X0018851Y0013820D01*
G01X0018897Y0013820D01*
G01X0018942Y0013820D01*
G01X0019052Y0013820D01*
G01X0018488Y0014547D01*
G01X0018488Y0014547D01*
G37*
G36*
G01X0012568Y0004776D02*
G01X0012685Y0004776D01*
G01X0012827Y0004716D01*
G01X0013537Y0005490D01*
G01X0012568Y0004776D01*
G01X0012568Y0004776D01*
G37*
G36*
G01X0017717Y0007155D02*
G01X0017720Y0007196D01*
G01X0017720Y0007259D01*
G01X0017728Y0007278D01*
G01X0017731Y0007311D01*
G01X0017595Y0007597D01*
G01X0017587Y0007613D01*
G01X0017272Y0008389D01*
G01X0017314Y0008204D01*
G01X0017316Y0008192D01*
G01X0017320Y0008168D01*
G01X0017320Y0008156D01*
G01X0017335Y0007906D01*
G01X0017367Y0007859D01*
G01X0017398Y0007829D01*
G01X0017413Y0007792D01*
G01X0017423Y0007777D01*
G01X0017427Y0007757D01*
G01X0017461Y0007677D01*
G01X0017461Y0007512D01*
G01X0017398Y0007360D01*
G01X0017331Y0007294D01*
G01X0017770Y0006975D01*
G01X0017720Y0007095D01*
G01X0017720Y0007143D01*
G01X0017717Y0007155D01*
G01X0017717Y0007155D01*
G37*
G36*
G01X0018323Y0015422D02*
G01X0018285Y0015724D01*
G01X0018234Y0015724D01*
G01X0017986Y0015724D01*
G01X0017931Y0015724D01*
G01X0017830Y0015765D01*
G01X0017791Y0015804D01*
G01X0017615Y0015980D01*
G01X0017577Y0016018D01*
G01X0017572Y0016013D01*
G01X0017400Y0015841D01*
G01X0017739Y0015466D01*
G01X0017758Y0015445D01*
G01X0017788Y0015397D01*
G01X0017799Y0015371D01*
G01X0017804Y0015358D01*
G01X0017820Y0015375D01*
G01X0017852Y0015407D01*
G01X0017936Y0015442D01*
G01X0017982Y0015442D01*
G01X0018231Y0015442D01*
G01X0018276Y0015442D01*
G01X0018323Y0015422D01*
G01X0018323Y0015422D01*
G37*
G36*
G01X0013739Y0019128D02*
G01X0013915Y0019304D01*
G01X0014164Y0019304D01*
G01X0014339Y0019128D01*
G01X0014339Y0018880D01*
G01X0014164Y0018704D01*
G01X0013915Y0018704D01*
G01X0013739Y0018880D01*
G01X0013739Y0019128D01*
G37*
G36*
G01X0017806Y0015038D02*
G01X0017982Y0015213D01*
G01X0018231Y0015213D01*
G01X0018406Y0015038D01*
G01X0018406Y0014789D01*
G01X0018231Y0014613D01*
G01X0017982Y0014613D01*
G01X0017806Y0014789D01*
G01X0017806Y0015038D01*
G37*
G36*
G01X0018806Y0015038D02*
G01X0018982Y0015213D01*
G01X0019231Y0015213D01*
G01X0019406Y0015038D01*
G01X0019406Y0014789D01*
G01X0019231Y0014613D01*
G01X0018982Y0014613D01*
G01X0018806Y0014789D01*
G01X0018806Y0015038D01*
G37*
G36*
G01X0016810Y0016423D02*
G01X0016986Y0016599D01*
G01X0017234Y0016599D01*
G01X0017410Y0016423D01*
G01X0017410Y0016175D01*
G01X0017234Y0015999D01*
G01X0016986Y0015999D01*
G01X0016810Y0016175D01*
G01X0016810Y0016423D01*
G37*
G36*
G01X0017810Y0016423D02*
G01X0017986Y0016599D01*
G01X0018234Y0016599D01*
G01X0018410Y0016423D01*
G01X0018410Y0016175D01*
G01X0018234Y0015999D01*
G01X0017986Y0015999D01*
G01X0017810Y0016175D01*
G01X0017810Y0016423D01*
G37*
G36*
G01X0018810Y0016423D02*
G01X0018986Y0016599D01*
G01X0019234Y0016599D01*
G01X0019410Y0016423D01*
G01X0019410Y0016175D01*
G01X0019234Y0015999D01*
G01X0018986Y0015999D01*
G01X0018810Y0016175D01*
G01X0018810Y0016423D01*
G37*
G36*
G01X0018073Y0013591D02*
G01X0017897Y0013416D01*
G01X0017897Y0013167D01*
G01X0018073Y0012991D01*
G01X0018321Y0012991D01*
G01X0018497Y0013167D01*
G01X0018497Y0013416D01*
G01X0018321Y0013591D01*
G01X0018073Y0013591D01*
G37*
G36*
G01X0019073Y0012591D02*
G01X0018897Y0012416D01*
G01X0018897Y0012167D01*
G01X0019073Y0011991D01*
G01X0019321Y0011991D01*
G01X0019497Y0012167D01*
G01X0019497Y0012416D01*
G01X0019321Y0012591D01*
G01X0019073Y0012591D01*
G37*
G36*
G01X0018073Y0012591D02*
G01X0017897Y0012416D01*
G01X0017897Y0012167D01*
G01X0018073Y0011991D01*
G01X0018321Y0011991D01*
G01X0018497Y0012167D01*
G01X0018497Y0012416D01*
G01X0018321Y0012591D01*
G01X0018073Y0012591D01*
G37*
G36*
G01X0019073Y0011591D02*
G01X0018897Y0011416D01*
G01X0018897Y0011167D01*
G01X0019073Y0010991D01*
G01X0019321Y0010991D01*
G01X0019497Y0011167D01*
G01X0019497Y0011416D01*
G01X0019321Y0011591D01*
G01X0019073Y0011591D01*
G37*
G36*
G01X0018073Y0011591D02*
G01X0017897Y0011416D01*
G01X0017897Y0011167D01*
G01X0018073Y0010991D01*
G01X0018321Y0010991D01*
G01X0018497Y0011167D01*
G01X0018497Y0011416D01*
G01X0018321Y0011591D01*
G01X0018073Y0011591D01*
G37*
G36*
G01X0019073Y0010591D02*
G01X0018897Y0010416D01*
G01X0018897Y0010167D01*
G01X0019073Y0009991D01*
G01X0019321Y0009991D01*
G01X0019497Y0010167D01*
G01X0019497Y0010416D01*
G01X0019321Y0010591D01*
G01X0019073Y0010591D01*
G37*
G36*
G01X0018073Y0010591D02*
G01X0017897Y0010416D01*
G01X0017897Y0010167D01*
G01X0018073Y0009991D01*
G01X0018321Y0009991D01*
G01X0018497Y0010167D01*
G01X0018497Y0010416D01*
G01X0018321Y0010591D01*
G01X0018073Y0010591D01*
G37*
G36*
G01X0001956Y0004829D02*
G01X0002132Y0004653D01*
G01X0002380Y0004653D01*
G01X0002556Y0004829D01*
G01X0002556Y0005077D01*
G01X0002380Y0005253D01*
G01X0002132Y0005253D01*
G01X0001956Y0005077D01*
G01X0001956Y0004829D01*
G37*
G36*
G01X0002956Y0004829D02*
G01X0003132Y0004653D01*
G01X0003380Y0004653D01*
G01X0003556Y0004829D01*
G01X0003556Y0005077D01*
G01X0003380Y0005253D01*
G01X0003132Y0005253D01*
G01X0002956Y0005077D01*
G01X0002956Y0004829D01*
G37*
G36*
G01X0003956Y0004829D02*
G01X0004132Y0004653D01*
G01X0004380Y0004653D01*
G01X0004556Y0004829D01*
G01X0004556Y0005077D01*
G01X0004380Y0005253D01*
G01X0004132Y0005253D01*
G01X0003956Y0005077D01*
G01X0003956Y0004829D01*
G37*
G36*
G01X0004956Y0004829D02*
G01X0005132Y0004653D01*
G01X0005380Y0004653D01*
G01X0005556Y0004829D01*
G01X0005556Y0005077D01*
G01X0005380Y0005253D01*
G01X0005132Y0005253D01*
G01X0004956Y0005077D01*
G01X0004956Y0004829D01*
G37*
G36*
G01X0017806Y0017801D02*
G01X0017982Y0017977D01*
G01X0018231Y0017977D01*
G01X0018406Y0017801D01*
G01X0018406Y0017553D01*
G01X0018231Y0017377D01*
G01X0017982Y0017377D01*
G01X0017806Y0017553D01*
G01X0017806Y0017801D01*
G37*
G36*
G01X0018806Y0017801D02*
G01X0018982Y0017977D01*
G01X0019231Y0017977D01*
G01X0019406Y0017801D01*
G01X0019406Y0017553D01*
G01X0019231Y0017377D01*
G01X0018982Y0017377D01*
G01X0018806Y0017553D01*
G01X0018806Y0017801D01*
G37*
G36*
G01X0017810Y0019183D02*
G01X0017986Y0019359D01*
G01X0018234Y0019359D01*
G01X0018410Y0019183D01*
G01X0018410Y0018935D01*
G01X0018234Y0018759D01*
G01X0017986Y0018759D01*
G01X0017810Y0018935D01*
G01X0017810Y0019183D01*
G37*
G36*
G01X0018810Y0019183D02*
G01X0018986Y0019359D01*
G01X0019234Y0019359D01*
G01X0019410Y0019183D01*
G01X0019410Y0018935D01*
G01X0019234Y0018759D01*
G01X0018986Y0018759D01*
G01X0018810Y0018935D01*
G01X0018810Y0019183D01*
G37*
G36*
G01X0006724Y0002896D02*
G01X0006899Y0003072D01*
G01X0007148Y0003072D01*
G01X0007324Y0002896D01*
G01X0007324Y0002647D01*
G01X0007148Y0002472D01*
G01X0006899Y0002472D01*
G01X0006724Y0002647D01*
G01X0006724Y0002896D01*
G37*
G36*
G01X0007724Y0001896D02*
G01X0007899Y0002072D01*
G01X0008148Y0002072D01*
G01X0008324Y0001896D01*
G01X0008324Y0001647D01*
G01X0008148Y0001472D01*
G01X0007899Y0001472D01*
G01X0007724Y0001647D01*
G01X0007724Y0001896D01*
G37*
G36*
G01X0007724Y0002896D02*
G01X0007899Y0003072D01*
G01X0008148Y0003072D01*
G01X0008324Y0002896D01*
G01X0008324Y0002647D01*
G01X0008148Y0002472D01*
G01X0007899Y0002472D01*
G01X0007724Y0002647D01*
G01X0007724Y0002896D01*
G37*
G36*
G01X0008724Y0001896D02*
G01X0008899Y0002072D01*
G01X0009148Y0002072D01*
G01X0009324Y0001896D01*
G01X0009324Y0001647D01*
G01X0009148Y0001472D01*
G01X0008899Y0001472D01*
G01X0008724Y0001647D01*
G01X0008724Y0001896D01*
G37*
G36*
G01X0008724Y0002896D02*
G01X0008899Y0003072D01*
G01X0009148Y0003072D01*
G01X0009324Y0002896D01*
G01X0009324Y0002647D01*
G01X0009148Y0002472D01*
G01X0008899Y0002472D01*
G01X0008724Y0002647D01*
G01X0008724Y0002896D01*
G37*
G36*
G01X0009724Y0001896D02*
G01X0009899Y0002072D01*
G01X0010148Y0002072D01*
G01X0010324Y0001896D01*
G01X0010324Y0001647D01*
G01X0010148Y0001472D01*
G01X0009899Y0001472D01*
G01X0009724Y0001647D01*
G01X0009724Y0001896D01*
G37*
G36*
G01X0009724Y0002896D02*
G01X0009899Y0003072D01*
G01X0010148Y0003072D01*
G01X0010324Y0002896D01*
G01X0010324Y0002647D01*
G01X0010148Y0002472D01*
G01X0009899Y0002472D01*
G01X0009724Y0002647D01*
G01X0009724Y0002896D01*
G37*
G36*
G01X0010724Y0001896D02*
G01X0010899Y0002072D01*
G01X0011148Y0002072D01*
G01X0011324Y0001896D01*
G01X0011324Y0001647D01*
G01X0011148Y0001472D01*
G01X0010899Y0001472D01*
G01X0010724Y0001647D01*
G01X0010724Y0001896D01*
G37*
G36*
G01X0010724Y0002896D02*
G01X0010899Y0003072D01*
G01X0011148Y0003072D01*
G01X0011324Y0002896D01*
G01X0011324Y0002647D01*
G01X0011148Y0002472D01*
G01X0010899Y0002472D01*
G01X0010724Y0002647D01*
G01X0010724Y0002896D01*
G37*
G36*
G01X0011724Y0001896D02*
G01X0011899Y0002072D01*
G01X0012148Y0002072D01*
G01X0012324Y0001896D01*
G01X0012324Y0001647D01*
G01X0012148Y0001472D01*
G01X0011899Y0001472D01*
G01X0011724Y0001647D01*
G01X0011724Y0001896D01*
G37*
G36*
G01X0011724Y0002896D02*
G01X0011899Y0003072D01*
G01X0012148Y0003072D01*
G01X0012324Y0002896D01*
G01X0012324Y0002647D01*
G01X0012148Y0002472D01*
G01X0011899Y0002472D01*
G01X0011724Y0002647D01*
G01X0011724Y0002896D01*
G37*
G36*
G01X0012724Y0001896D02*
G01X0012899Y0002072D01*
G01X0013148Y0002072D01*
G01X0013324Y0001896D01*
G01X0013324Y0001647D01*
G01X0013148Y0001472D01*
G01X0012899Y0001472D01*
G01X0012724Y0001647D01*
G01X0012724Y0001896D01*
G37*
G36*
G01X0012724Y0002896D02*
G01X0012899Y0003072D01*
G01X0013148Y0003072D01*
G01X0013324Y0002896D01*
G01X0013324Y0002647D01*
G01X0013148Y0002472D01*
G01X0012899Y0002472D01*
G01X0012724Y0002647D01*
G01X0012724Y0002896D01*
G37*
G36*
G01X0013724Y0001896D02*
G01X0013899Y0002072D01*
G01X0014148Y0002072D01*
G01X0014324Y0001896D01*
G01X0014324Y0001647D01*
G01X0014148Y0001472D01*
G01X0013899Y0001472D01*
G01X0013724Y0001647D01*
G01X0013724Y0001896D01*
G37*
G36*
G01X0013724Y0002896D02*
G01X0013899Y0003072D01*
G01X0014148Y0003072D01*
G01X0014324Y0002896D01*
G01X0014324Y0002647D01*
G01X0014148Y0002472D01*
G01X0013899Y0002472D01*
G01X0013724Y0002647D01*
G01X0013724Y0002896D01*
G37*
G36*
G01X0014724Y0001896D02*
G01X0014899Y0002072D01*
G01X0015148Y0002072D01*
G01X0015324Y0001896D01*
G01X0015324Y0001647D01*
G01X0015148Y0001472D01*
G01X0014899Y0001472D01*
G01X0014724Y0001647D01*
G01X0014724Y0001896D01*
G37*
G36*
G01X0014724Y0002896D02*
G01X0014899Y0003072D01*
G01X0015148Y0003072D01*
G01X0015324Y0002896D01*
G01X0015324Y0002647D01*
G01X0015148Y0002472D01*
G01X0014899Y0002472D01*
G01X0014724Y0002647D01*
G01X0014724Y0002896D01*
G37*
G36*
G01X0015724Y0001896D02*
G01X0015899Y0002072D01*
G01X0016148Y0002072D01*
G01X0016324Y0001896D01*
G01X0016324Y0001647D01*
G01X0016148Y0001472D01*
G01X0015899Y0001472D01*
G01X0015724Y0001647D01*
G01X0015724Y0001896D01*
G37*
G36*
G01X0015724Y0002896D02*
G01X0015899Y0003072D01*
G01X0016148Y0003072D01*
G01X0016324Y0002896D01*
G01X0016324Y0002647D01*
G01X0016148Y0002472D01*
G01X0015899Y0002472D01*
G01X0015724Y0002647D01*
G01X0015724Y0002896D01*
G37*
G36*
G01X0007739Y0019128D02*
G01X0007915Y0019304D01*
G01X0008164Y0019304D01*
G01X0008339Y0019128D01*
G01X0008339Y0018880D01*
G01X0008164Y0018704D01*
G01X0007915Y0018704D01*
G01X0007739Y0018880D01*
G01X0007739Y0019128D01*
G37*
G36*
G01X0008739Y0019128D02*
G01X0008915Y0019304D01*
G01X0009164Y0019304D01*
G01X0009339Y0019128D01*
G01X0009339Y0018880D01*
G01X0009164Y0018704D01*
G01X0008915Y0018704D01*
G01X0008739Y0018880D01*
G01X0008739Y0019128D01*
G37*
G36*
G01X0009739Y0019128D02*
G01X0009915Y0019304D01*
G01X0010164Y0019304D01*
G01X0010339Y0019128D01*
G01X0010339Y0018880D01*
G01X0010164Y0018704D01*
G01X0009915Y0018704D01*
G01X0009739Y0018880D01*
G01X0009739Y0019128D01*
G37*
G36*
G01X0010739Y0019128D02*
G01X0010915Y0019304D01*
G01X0011164Y0019304D01*
G01X0011339Y0019128D01*
G01X0011339Y0018880D01*
G01X0011164Y0018704D01*
G01X0010915Y0018704D01*
G01X0010739Y0018880D01*
G01X0010739Y0019128D01*
G37*
G36*
G01X0011739Y0019128D02*
G01X0011915Y0019304D01*
G01X0012164Y0019304D01*
G01X0012339Y0019128D01*
G01X0012339Y0018880D01*
G01X0012164Y0018704D01*
G01X0011915Y0018704D01*
G01X0011739Y0018880D01*
G01X0011739Y0019128D01*
G37*
G36*
G01X0012739Y0019128D02*
G01X0012915Y0019304D01*
G01X0013164Y0019304D01*
G01X0013339Y0019128D01*
G01X0013339Y0018880D01*
G01X0013164Y0018704D01*
G01X0012915Y0018704D01*
G01X0012739Y0018880D01*
G01X0012739Y0019128D01*
G37*
G36*
G01X0016147Y0005876D02*
G01X0016114Y0005876D01*
G01X0016054Y0005876D01*
G01X0015941Y0005922D01*
G01X0015903Y0005960D01*
G01X0015777Y0005496D01*
G01X0015788Y0005500D01*
G01X0015952Y0005500D01*
G01X0016046Y0005461D01*
G01X0016147Y0005876D01*
G01X0016147Y0005876D01*
G37*
G54D10*
G01X0007039Y0019004D03*
G01X0007024Y0001772D03*
G01X0017110Y0019059D03*
G01X0017106Y0017677D03*
G01X0001256Y0004953D03*
G01X0019197Y0013291D03*
G01X0016110Y0016299D03*
G01X0017106Y0014913D03*
G54D11*
G01X0007980Y0016899D03*
G01X0007980Y0005649D03*
G54D12*
G01X0003157Y0014870D03*
G01X0001780Y0014870D03*
G01X0019480Y0003063D03*
G01X0019480Y0001685D03*
G01X0017996Y0003063D03*
G01X0017996Y0001685D03*
G54D13*
G01X0000500Y0020185D02*
G01X0000500Y0000500D01*
G01X0020185Y0020185D02*
G01X0000500Y0020185D01*
G01X0020185Y0000500D02*
G01X0020185Y0020185D01*
G01X0000500Y0000500D02*
G01X0020185Y0000500D01*
G54D14*
G01X0003423Y0015075D02*
G01X0003157Y0014870D01*
G01X0003453Y0015075D02*
G01X0003423Y0015075D01*
G01X0003453Y0015075D02*
G75*
G03X0003480Y0015079I0000000J0000090D01*
G01X0004264Y0015331D02*
G01X0003480Y0015079D01*
G01X0019275Y0003364D02*
G01X0019213Y0004366D01*
G01X0019275Y0003358D02*
G75*
G03X0019275Y0003364I-000090J0000000D01*
G01X0019275Y0003328D02*
G01X0019275Y0003358D01*
G01X0019480Y0003063D02*
G01X0019275Y0003328D01*
G01X0018752Y0005886D02*
G01X0016846Y0007268D01*
G01X0015241Y0007281D02*
G01X0015217Y0009665D01*
G01X0015241Y0007281D02*
G75*
G03X0015245Y0007236I0000228J0000002D01*
G01X0015301Y0006975D02*
G01X0015245Y0007236D01*
G01X0015301Y0006783D02*
G75*
G03X0015301Y0006975I-000459J0000095D01*
G01X0014975Y0005213D02*
G01X0015301Y0006783D01*
G01X0014942Y0005134D02*
G75*
G03X0014975Y0005213I-000190J0000126D01*
G01X0014915Y0005092D02*
G01X0014942Y0005134D01*
G01X0014915Y0005092D02*
G75*
G03X0014849Y0004958I0000491J-000325D01*
G01X0014791Y0004788D02*
G01X0014849Y0004958D01*
G01X0014720Y0004686D02*
G75*
G03X0014791Y0004788I-000145J0000176D01*
G01X0012842Y0003141D02*
G01X0014720Y0004686D01*
G01X0012842Y0003141D02*
G75*
G03X0012836Y0003135I0000057J-000070D01*
G01X0012660Y0002960D02*
G01X0012836Y0003135D01*
G01X0012660Y0002960D02*
G75*
G03X0012635Y0002911I0000064J-000064D01*
G01X0012412Y0001632D02*
G01X0012635Y0002911D01*
G01X0012387Y0001584D02*
G75*
G03X0012412Y0001632I-000064J0000064D01*
G01X0012212Y0001408D02*
G01X0012387Y0001584D01*
G01X0012148Y0001381D02*
G75*
G03X0012212Y0001408I0000000J0000090D01*
G01X0008899Y0001381D02*
G01X0012148Y0001381D01*
G01X0008836Y0001408D02*
G75*
G03X0008899Y0001381I0000064J0000064D01*
G01X0008660Y0001584D02*
G01X0008836Y0001408D01*
G01X0008633Y0001647D02*
G75*
G03X0008660Y0001584I0000090J0000000D01*
G01X0008633Y0001896D02*
G01X0008633Y0001647D01*
G01X0008660Y0001960D02*
G75*
G03X0008633Y0001896I0000064J-000064D01*
G01X0008836Y0002135D02*
G01X0008660Y0001960D01*
G01X0008847Y0002145D02*
G75*
G03X0008836Y0002135I0000053J-000073D01*
G01X0009200Y0002398D02*
G01X0008847Y0002145D01*
G01X0009200Y0002398D02*
G75*
G03X0009212Y0002408I-000053J0000073D01*
G01X0009387Y0002584D02*
G01X0009212Y0002408D01*
G01X0009387Y0002584D02*
G75*
G03X0009414Y0002647I-000064J0000064D01*
G01X0009414Y0002896D02*
G01X0009414Y0002647D01*
G01X0009414Y0002896D02*
G75*
G03X0009387Y0002960I-000090J0000000D01*
G01X0009212Y0003135D02*
G01X0009387Y0002960D01*
G01X0009212Y0003135D02*
G75*
G03X0009148Y0003162I-000064J-000064D01*
G01X0008899Y0003162D02*
G01X0009148Y0003162D01*
G01X0008899Y0003162D02*
G75*
G03X0008872Y0003157I0000000J-000090D01*
G01X0008260Y0002960D02*
G01X0008872Y0003157D01*
G01X0008239Y0002938D02*
G01X0008260Y0002960D01*
G01X0008024Y0002772D02*
G01X0008239Y0002938D01*
G01X0006922Y0006487D02*
G01X0009004Y0009535D01*
G01X0006922Y0006487D02*
G75*
G03X0006906Y0006436I0000074J-000051D01*
G01X0006906Y0004861D02*
G01X0006906Y0006436D01*
G01X0006906Y0004861D02*
G75*
G03X0006906Y0004857I0000090J0000000D01*
G01X0006989Y0003076D02*
G01X0006906Y0004857D01*
G01X0006990Y0003072D02*
G75*
G03X0006989Y0003076I-000090J0000000D01*
G01X0006990Y0003042D02*
G01X0006990Y0003072D01*
G01X0007024Y0002772D02*
G01X0006990Y0003042D01*
G01X0016553Y0006464D02*
G01X0016232Y0008476D01*
G01X0016547Y0006329D02*
G75*
G03X0016553Y0006464I-000339J0000081D01*
G01X0016143Y0004636D02*
G01X0016547Y0006329D01*
G01X0016105Y0004555D02*
G75*
G03X0016143Y0004636I-000184J0000134D01*
G01X0015965Y0004363D02*
G01X0016105Y0004555D01*
G01X0015965Y0004363D02*
G75*
G03X0015922Y0004215I0000184J-000134D01*
G01X0015989Y0003077D02*
G01X0015922Y0004215D01*
G01X0015990Y0003072D02*
G75*
G03X0015989Y0003077I-000090J0000000D01*
G01X0015990Y0003042D02*
G01X0015990Y0003072D01*
G01X0016024Y0002772D02*
G01X0015990Y0003042D01*
G01X0017159Y0009878D02*
G01X0018098Y0007823D01*
G01X0017147Y0009908D02*
G75*
G03X0017159Y0009878I0000219J0000064D01*
G01X0014426Y0019154D02*
G01X0017147Y0009908D01*
G01X0014426Y0019154D02*
G75*
G03X0014403Y0019192I-000087J-000025D01*
G01X0014227Y0019368D02*
G01X0014403Y0019192D01*
G01X0014227Y0019368D02*
G75*
G03X0014164Y0019394I-000064J-000064D01*
G01X0012915Y0019394D02*
G01X0014164Y0019394D01*
G01X0012915Y0019394D02*
G75*
G03X0012851Y0019368I0000000J-000090D01*
G01X0012676Y0019192D02*
G01X0012851Y0019368D01*
G01X0012676Y0019192D02*
G75*
G03X0012666Y0019181I0000064J-000064D01*
G01X0012413Y0018827D02*
G01X0012666Y0019181D01*
G01X0012403Y0018816D02*
G75*
G03X0012413Y0018827I-000064J0000064D01*
G01X0012227Y0018640D02*
G01X0012403Y0018816D01*
G01X0012164Y0018614D02*
G75*
G03X0012227Y0018640I0000000J0000090D01*
G01X0011915Y0018614D02*
G01X0012164Y0018614D01*
G01X0011887Y0018618D02*
G75*
G03X0011915Y0018614I0000028J0000086D01*
G01X0011276Y0018816D02*
G01X0011887Y0018618D01*
G01X0011255Y0018837D02*
G01X0011276Y0018816D01*
G01X0011039Y0019004D02*
G01X0011255Y0018837D01*
G01X0019273Y0008145D02*
G01X0019087Y0007787D01*
G01X0019273Y0008145D02*
G75*
G03X0019293Y0008202I-000202J0000105D01*
G01X0019703Y0010123D02*
G01X0019293Y0008202D01*
G01X0019703Y0010123D02*
G75*
G03X0019707Y0010167I-000206J0000044D01*
G01X0019707Y0012416D02*
G01X0019707Y0010167D01*
G01X0019707Y0012416D02*
G75*
G03X0019706Y0012437I-000210J0000000D01*
G01X0019587Y0013601D02*
G01X0019706Y0012437D01*
G01X0019587Y0013601D02*
G75*
G03X0019568Y0013646I-000090J-000009D01*
G01X0018735Y0014734D02*
G01X0019568Y0013646D01*
G01X0018717Y0014777D02*
G75*
G03X0018735Y0014734I0000089J0000012D01*
G01X0018500Y0016435D02*
G01X0018717Y0014777D01*
G01X0018500Y0016435D02*
G75*
G03X0018483Y0016477I-000089J-000012D01*
G01X0017734Y0017500D02*
G01X0018483Y0016477D01*
G01X0017725Y0017514D02*
G75*
G03X0017734Y0017500I0000082J0000039D01*
G01X0017488Y0018016D02*
G01X0017725Y0017514D01*
G01X0017488Y0018016D02*
G75*
G03X0017443Y0018059I-000082J-000039D01*
G01X0014250Y0019496D02*
G01X0017443Y0018059D01*
G01X0014250Y0019496D02*
G75*
G03X0014164Y0019514I-000086J-000192D01*
G01X0012915Y0019514D02*
G01X0014164Y0019514D01*
G01X0012915Y0019514D02*
G75*
G03X0012815Y0019489I0000000J-000210D01*
G01X0012296Y0019207D02*
G01X0012815Y0019489D01*
G01X0012296Y0019207D02*
G75*
G03X0012276Y0019192I0000043J-000079D01*
G01X0012276Y0019192D02*
G01X0012276Y0019192D01*
G01X0012254Y0019171D02*
G01X0012276Y0019192D01*
G01X0012039Y0019004D02*
G01X0012254Y0019171D01*
G01X0017015Y0008059D02*
G01X0017047Y0007594D01*
G01X0017015Y0008059D02*
G75*
G03X0017010Y0008093I-000227J-000016D01*
G01X0016001Y0012573D02*
G01X0017010Y0008093D01*
G01X0016001Y0012573D02*
G75*
G03X0015979Y0012638I-000340J-000076D01*
G01X0013246Y0018741D02*
G01X0015979Y0012638D01*
G01X0013246Y0018741D02*
G75*
G03X0013228Y0018767I-000082J-000037D01*
G01X0013227Y0018768D02*
G01X0013228Y0018767D01*
G01X0013206Y0018789D02*
G01X0013227Y0018768D01*
G01X0013039Y0019004D02*
G01X0013206Y0018789D01*
G01X0017890Y0007731D02*
G01X0018134Y0007177D01*
G01X0017887Y0007738D02*
G75*
G03X0017890Y0007731I0000212J0000085D01*
G01X0017043Y0009843D02*
G01X0017887Y0007738D01*
G01X0017034Y0009868D02*
G75*
G03X0017043Y0009843I0000332J0000104D01*
G01X0014250Y0018731D02*
G01X0017034Y0009868D01*
G01X0014250Y0018731D02*
G75*
G03X0014228Y0018767I-000086J-000027D01*
G01X0014227Y0018768D02*
G01X0014228Y0018767D01*
G01X0014206Y0018789D02*
G01X0014227Y0018768D01*
G01X0014039Y0019004D02*
G01X0014206Y0018789D01*
G01X0014640Y0002931D02*
G01X0015406Y0004768D01*
G01X0014640Y0002931D02*
G75*
G03X0014638Y0002924I0000083J-000035D01*
G01X0014523Y0002581D02*
G01X0014638Y0002924D01*
G01X0014508Y0002546D02*
G75*
G03X0014523Y0002581I-000184J0000102D01*
G01X0014211Y0002008D02*
G01X0014508Y0002546D01*
G01X0014190Y0001987D02*
G01X0014211Y0002008D01*
G01X0014024Y0001772D02*
G01X0014190Y0001987D01*
G01X0013239Y0001938D02*
G01X0013024Y0001772D01*
G01X0013260Y0001960D02*
G01X0013239Y0001938D01*
G01X0014186Y0002390D02*
G01X0013260Y0001960D01*
G01X0014186Y0002390D02*
G75*
G03X0014212Y0002408I-000038J0000082D01*
G01X0014387Y0002584D02*
G01X0014212Y0002408D01*
G01X0014387Y0002584D02*
G75*
G03X0014409Y0002619I-000064J0000064D01*
G01X0014524Y0002963D02*
G01X0014409Y0002619D01*
G01X0014525Y0002966D02*
G75*
G03X0014524Y0002963I0000198J-000070D01*
G01X0015129Y0004665D02*
G01X0014525Y0002966D01*
G01X0015129Y0004665D02*
G75*
G03X0015132Y0004672I-000555J0000197D01*
G01X0015190Y0004841D02*
G01X0015132Y0004672D01*
G01X0015215Y0004893D02*
G75*
G03X0015190Y0004841I0000190J-000126D01*
G01X0015243Y0004935D02*
G01X0015215Y0004893D01*
G01X0015243Y0004935D02*
G75*
G03X0015317Y0005094I-000491J0000325D01*
G01X0015772Y0006642D02*
G01X0015317Y0005094D01*
G01X0016021Y0006280D02*
G01X0015772Y0006642D01*
G01X0016021Y0006280D02*
G75*
G03X0016432Y0006457I0000188J0000129D01*
G01X0016009Y0008429D02*
G01X0016432Y0006457D01*
G01X0016005Y0008457D02*
G75*
G03X0016009Y0008429I0000227J0000019D01*
G01X0015661Y0012496D02*
G01X0016005Y0008457D01*
G01X0013890Y0005160D02*
G01X0014193Y0005409D01*
G01X0013890Y0005160D02*
G75*
G03X0013874Y0005145I0000145J-000176D01*
G01X0012849Y0004116D02*
G01X0013874Y0005145D01*
G01X0012822Y0004092D02*
G75*
G03X0012849Y0004116I-000220J0000270D01*
G01X0011767Y0003235D02*
G01X0012822Y0004092D01*
G01X0011767Y0003235D02*
G75*
G03X0011751Y0003220I0000133J-000163D01*
G01X0011575Y0003045D02*
G01X0011751Y0003220D01*
G01X0011575Y0003045D02*
G75*
G03X0011524Y0002963I0000149J-000149D01*
G01X0011409Y0002619D02*
G01X0011524Y0002963D01*
G01X0011387Y0002584D02*
G75*
G03X0011409Y0002619I-000064J0000064D01*
G01X0011212Y0002408D02*
G01X0011387Y0002584D01*
G01X0011186Y0002390D02*
G75*
G03X0011212Y0002408I-000038J0000082D01*
G01X0010260Y0001960D02*
G01X0011186Y0002390D01*
G01X0010239Y0001938D02*
G01X0010260Y0001960D01*
G01X0010024Y0001772D02*
G01X0010239Y0001938D01*
G01X0009846Y0003144D02*
G01X0013602Y0005917D01*
G01X0009846Y0003144D02*
G75*
G03X0009836Y0003135I0000054J-000073D01*
G01X0009660Y0002960D02*
G01X0009836Y0003135D01*
G01X0009660Y0002960D02*
G75*
G03X0009638Y0002924I0000064J-000064D01*
G01X0009523Y0002581D02*
G01X0009638Y0002924D01*
G01X0009508Y0002546D02*
G75*
G03X0009523Y0002581I-000184J0000102D01*
G01X0009211Y0002008D02*
G01X0009508Y0002546D01*
G01X0009190Y0001987D02*
G01X0009211Y0002008D01*
G01X0009024Y0001772D02*
G01X0009190Y0001987D01*
G01X0011711Y0009078D02*
G01X0013591Y0007562D01*
G01X0011633Y0009202D02*
G75*
G03X0011711Y0009078I0000222J0000054D01*
G01X0011343Y0010398D02*
G01X0011633Y0009202D01*
G01X0018144Y0018789D02*
G01X0018110Y0019059D01*
G01X0018144Y0018759D02*
G01X0018144Y0018789D01*
G01X0018144Y0018759D02*
G75*
G03X0018150Y0018727I0000090J0000000D01*
G01X0018491Y0017834D02*
G01X0018150Y0018727D01*
G01X0018496Y0017814D02*
G75*
G03X0018491Y0017834I-000089J-000012D01*
G01X0018721Y0016163D02*
G01X0018496Y0017814D01*
G01X0018721Y0016163D02*
G75*
G03X0018737Y0016122I0000089J0000012D01*
G01X0019480Y0015090D02*
G01X0018737Y0016122D01*
G01X0019496Y0015051D02*
G75*
G03X0019480Y0015090I-000089J-000013D01*
G01X0019705Y0013622D02*
G01X0019496Y0015051D01*
G01X0019706Y0013613D02*
G75*
G03X0019705Y0013622I-000209J-000021D01*
G01X0019826Y0012449D02*
G01X0019706Y0013613D01*
G01X0019827Y0012416D02*
G75*
G03X0019826Y0012449I-000331J0000000D01*
G01X0019827Y0010167D02*
G01X0019827Y0012416D01*
G01X0019820Y0010098D02*
G75*
G03X0019827Y0010167I-000323J0000069D01*
G01X0019411Y0008177D02*
G01X0019820Y0010098D01*
G01X0019410Y0008171D02*
G75*
G03X0019411Y0008177I-000339J0000079D01*
G01X0019309Y0007736D02*
G01X0019410Y0008171D01*
G01X0019289Y0007683D02*
G75*
G03X0019309Y0007736I-000203J0000104D01*
G01X0019091Y0007295D02*
G01X0019289Y0007683D01*
G01X0016069Y0007513D02*
G01X0016209Y0006409D01*
G01X0016069Y0007513D02*
G75*
G03X0016062Y0007547I-000226J-000029D01*
G01X0015436Y0009728D02*
G01X0016062Y0007547D01*
G01X0015435Y0009732D02*
G01X0015436Y0009728D01*
G01X0013336Y0016594D02*
G01X0015435Y0009732D01*
G01X0013336Y0016594D02*
G75*
G03X0013292Y0016674I-000218J-000067D01*
G01X0012135Y0018048D02*
G01X0013292Y0016674D01*
G01X0012135Y0018048D02*
G75*
G03X0012012Y0018124I-000174J-000147D01*
G01X0009895Y0018616D02*
G01X0012012Y0018124D01*
G01X0009851Y0018640D02*
G75*
G03X0009895Y0018616I0000064J0000064D01*
G01X0009676Y0018816D02*
G01X0009851Y0018640D01*
G01X0009649Y0018880D02*
G75*
G03X0009676Y0018816I0000090J0000000D01*
G01X0009649Y0019128D02*
G01X0009649Y0018880D01*
G01X0009676Y0019192D02*
G75*
G03X0009649Y0019128I0000064J-000064D01*
G01X0009851Y0019368D02*
G01X0009676Y0019192D01*
G01X0009908Y0019394D02*
G75*
G03X0009851Y0019368I0000007J-000090D01*
G01X0012889Y0019633D02*
G01X0009908Y0019394D01*
G01X0012915Y0019635D02*
G75*
G03X0012889Y0019633I0000000J-000331D01*
G01X0014164Y0019635D02*
G01X0012915Y0019635D01*
G01X0014299Y0019605D02*
G75*
G03X0014164Y0019635I-000136J-000301D01*
G01X0017493Y0018169D02*
G01X0014299Y0019605D01*
G01X0017541Y0018139D02*
G75*
G03X0017493Y0018169I-000134J-000162D01*
G01X0017864Y0017871D02*
G01X0017541Y0018139D01*
G01X0017870Y0017866D02*
G75*
G03X0017864Y0017871I-000063J-000064D01*
G01X0017870Y0017865D02*
G01X0017870Y0017866D01*
G01X0017891Y0017844D02*
G01X0017870Y0017865D01*
G01X0018106Y0017677D02*
G01X0017891Y0017844D01*
G01X0010109Y0003153D02*
G01X0012602Y0004362D01*
G01X0010109Y0003153D02*
G75*
G03X0010058Y0003072I0000039J-000081D01*
G01X0010058Y0003042D02*
G01X0010058Y0003072D01*
G01X0010024Y0002772D02*
G01X0010058Y0003042D01*
G01X0015815Y0004326D02*
G01X0015921Y0004689D01*
G01X0015815Y0004326D02*
G75*
G03X0015811Y0004309I0000334J-000097D01*
G01X0015411Y0002627D02*
G01X0015811Y0004309D01*
G01X0015387Y0002584D02*
G75*
G03X0015411Y0002627I-000064J0000064D01*
G01X0015212Y0002408D02*
G01X0015387Y0002584D01*
G01X0015200Y0002398D02*
G75*
G03X0015212Y0002408I-000053J0000073D01*
G01X0014847Y0002145D02*
G01X0015200Y0002398D01*
G01X0014847Y0002145D02*
G75*
G03X0014836Y0002135I0000053J-000073D01*
G01X0014660Y0001960D02*
G01X0014836Y0002135D01*
G01X0014660Y0001960D02*
G75*
G03X0014650Y0001948I0000064J-000064D01*
G01X0014397Y0001595D02*
G01X0014650Y0001948D01*
G01X0014387Y0001584D02*
G75*
G03X0014397Y0001595I-000064J0000064D01*
G01X0014212Y0001408D02*
G01X0014387Y0001584D01*
G01X0014153Y0001382D02*
G75*
G03X0014212Y0001408I-000005J0000090D01*
G01X0012161Y0001262D02*
G01X0014153Y0001382D01*
G01X0012148Y0001261D02*
G75*
G03X0012161Y0001262I0000000J0000210D01*
G01X0008899Y0001261D02*
G01X0012148Y0001261D01*
G01X0008751Y0001323D02*
G75*
G03X0008899Y0001261I0000149J0000149D01*
G01X0008575Y0001499D02*
G01X0008751Y0001323D01*
G01X0008513Y0001647D02*
G75*
G03X0008575Y0001499I0000210J0000000D01*
G01X0008513Y0001896D02*
G01X0008513Y0001647D01*
G01X0008539Y0001996D02*
G75*
G03X0008513Y0001896I0000185J-000100D01*
G01X0008820Y0002515D02*
G01X0008539Y0001996D01*
G01X0008835Y0002535D02*
G75*
G03X0008820Y0002515I0000064J-000063D01*
G01X0008836Y0002535D02*
G01X0008835Y0002535D01*
G01X0008857Y0002557D02*
G01X0008836Y0002535D01*
G01X0009024Y0002772D02*
G01X0008857Y0002557D01*
G01X0015719Y0004794D02*
G01X0015870Y0005087D01*
G01X0015719Y0004794D02*
G75*
G03X0015709Y0004771I0000203J-000105D01*
G01X0015064Y0003104D02*
G01X0015709Y0004771D01*
G01X0015064Y0003104D02*
G75*
G03X0015058Y0003072I0000084J-000033D01*
G01X0015058Y0003042D02*
G01X0015058Y0003072D01*
G01X0015024Y0002772D02*
G01X0015058Y0003042D01*
G01X0015885Y0012541D02*
G01X0016787Y0008043D01*
G01X0015885Y0012541D02*
G75*
G03X0015857Y0012613I-000224J-000045D01*
G01X0013417Y0016706D02*
G01X0015857Y0012613D01*
G01X0013417Y0016706D02*
G75*
G03X0013384Y0016752I-000299J-000178D01*
G01X0012227Y0018126D02*
G01X0013384Y0016752D01*
G01X0012227Y0018126D02*
G75*
G03X0012067Y0018233I-000266J-000224D01*
G01X0010312Y0018794D02*
G01X0012067Y0018233D01*
G01X0010276Y0018816D02*
G75*
G03X0010312Y0018794I0000063J0000064D01*
G01X0010276Y0018816D02*
G01X0010276Y0018816D01*
G01X0010254Y0018837D02*
G01X0010276Y0018816D01*
G01X0010039Y0019004D02*
G01X0010254Y0018837D01*
G01X0007856Y0003150D02*
G01X0013614Y0006354D01*
G01X0007856Y0003150D02*
G75*
G03X0007836Y0003135I0000044J-000079D01*
G01X0007660Y0002960D02*
G01X0007836Y0003135D01*
G01X0007660Y0002960D02*
G75*
G03X0007633Y0002896I0000064J-000064D01*
G01X0007633Y0002647D02*
G01X0007633Y0002896D01*
G01X0007633Y0002647D02*
G75*
G03X0007638Y0002620I0000090J0000000D01*
G01X0007836Y0002008D02*
G01X0007638Y0002620D01*
G01X0007857Y0001987D02*
G01X0007836Y0002008D01*
G01X0008024Y0001772D02*
G01X0007857Y0001987D01*
G01X0008886Y0006480D02*
G01X0009882Y0008240D01*
G01X0008886Y0006480D02*
G75*
G03X0008874Y0006436I0000079J-000044D01*
G01X0008874Y0006406D02*
G01X0008874Y0006436D01*
G01X0007980Y0005649D02*
G01X0008874Y0006406D01*
G01X0009209Y0009634D02*
G01X0009882Y0008240D01*
G01X0009209Y0009634D02*
G75*
G03X0009080Y0009750I-000205J-000099D01*
G01X0007969Y0010142D02*
G01X0009080Y0009750D01*
G01X0017653Y0003282D02*
G01X0016150Y0004228D01*
G01X0017653Y0003282D02*
G75*
G03X0017701Y0003268I0000048J0000076D01*
G01X0017731Y0003268D02*
G01X0017701Y0003268D01*
G01X0017996Y0003063D02*
G01X0017731Y0003268D01*
G01X0017731Y0002858D02*
G01X0017996Y0003063D01*
G01X0017701Y0002858D02*
G01X0017731Y0002858D01*
G01X0017701Y0002858D02*
G75*
G03X0017668Y0002852I0000000J-000090D01*
G01X0015867Y0002156D02*
G01X0017668Y0002852D01*
G01X0015867Y0002156D02*
G75*
G03X0015836Y0002135I0000033J-000084D01*
G01X0015660Y0001960D02*
G01X0015836Y0002135D01*
G01X0015660Y0001960D02*
G75*
G03X0015650Y0001948I0000064J-000064D01*
G01X0015397Y0001595D02*
G01X0015650Y0001948D01*
G01X0015387Y0001584D02*
G75*
G03X0015397Y0001595I-000064J0000064D01*
G01X0015212Y0001408D02*
G01X0015387Y0001584D01*
G01X0015159Y0001382D02*
G75*
G03X0015212Y0001408I-000011J0000090D01*
G01X0014173Y0001263D02*
G01X0015159Y0001382D01*
G01X0014161Y0001262D02*
G75*
G03X0014173Y0001263I-000013J0000210D01*
G01X0012168Y0001142D02*
G01X0014161Y0001262D01*
G01X0012148Y0001141D02*
G75*
G03X0012168Y0001142I0000000J0000331D01*
G01X0008899Y0001141D02*
G01X0012148Y0001141D01*
G01X0008849Y0001145D02*
G75*
G03X0008899Y0001141I0000050J0000327D01*
G01X0007310Y0001383D02*
G01X0008849Y0001145D01*
G01X0007234Y0001472D02*
G75*
G03X0007310Y0001383I0000090J0000000D01*
G01X0007234Y0001502D02*
G01X0007234Y0001472D01*
G01X0007024Y0001772D02*
G01X0007234Y0001502D01*
G01X0006814Y0002042D02*
G01X0007024Y0001772D01*
G01X0006814Y0002072D02*
G01X0006814Y0002042D01*
G01X0006814Y0002072D02*
G75*
G03X0006801Y0002119I-000090J0000000D01*
G01X0006544Y0002538D02*
G01X0006801Y0002119D01*
G01X0006513Y0002645D02*
G75*
G03X0006544Y0002538I0000210J0000002D01*
G01X0006500Y0003935D02*
G01X0006513Y0002645D01*
G01X0006500Y0003935D02*
G75*
G03X0006344Y0004149I-000228J-000002D01*
G01X0005103Y0004567D02*
G01X0006344Y0004149D01*
G01X0005068Y0004589D02*
G75*
G03X0005103Y0004567I0000064J0000064D01*
G01X0004892Y0004765D02*
G01X0005068Y0004589D01*
G01X0004866Y0004829D02*
G75*
G03X0004892Y0004765I0000090J0000000D01*
G01X0004866Y0005077D02*
G01X0004866Y0004829D01*
G01X0004877Y0005121D02*
G75*
G03X0004866Y0005077I0000079J-000044D01*
G01X0007770Y0010254D02*
G01X0004877Y0005121D01*
G01X0007950Y0010369D02*
G75*
G03X0007770Y0010254I0000018J-000227D01*
G01X0011681Y0010669D02*
G01X0007950Y0010369D01*
G01X0010989Y0003081D02*
G01X0010969Y0003272D01*
G01X0010989Y0003072D02*
G75*
G03X0010989Y0003081I-000090J0000000D01*
G01X0010989Y0003042D02*
G01X0010989Y0003072D01*
G01X0011024Y0002772D02*
G01X0010989Y0003042D01*
G01X0014081Y0005608D02*
G01X0014457Y0005819D01*
G01X0014081Y0005608D02*
G75*
G03X0014026Y0005564I0000112J-000199D01*
G01X0012770Y0004207D02*
G01X0014026Y0005564D01*
G01X0012706Y0004159D02*
G75*
G03X0012770Y0004207I-000104J0000203D01*
G01X0010969Y0003272D02*
G01X0012706Y0004159D01*
G01X0014682Y0005786D02*
G01X0014843Y0006878D01*
G01X0014637Y0005679D02*
G75*
G03X0014682Y0005786I-000180J0000140D01*
G01X0014477Y0005473D02*
G01X0014637Y0005679D01*
G01X0014477Y0005473D02*
G75*
G03X0014425Y0005381I0000275J-000214D01*
G01X0014249Y0004905D02*
G01X0014425Y0005381D01*
G01X0014194Y0004820D02*
G75*
G03X0014249Y0004905I-000158J0000164D01*
G01X0012261Y0002961D02*
G01X0014194Y0004820D01*
G01X0012260Y0002960D02*
G01X0012261Y0002961D01*
G01X0012260Y0002960D02*
G01X0012260Y0002960D01*
G01X0012239Y0002938D02*
G01X0012260Y0002960D01*
G01X0012024Y0002772D02*
G01X0012239Y0002938D01*
G01X0015429Y0006827D02*
G01X0015469Y0007283D01*
G01X0015419Y0006758D02*
G75*
G03X0015429Y0006827I-000576J0000120D01*
G01X0015093Y0005189D02*
G01X0015419Y0006758D01*
G01X0015042Y0005068D02*
G75*
G03X0015093Y0005189I-000290J0000192D01*
G01X0015015Y0005026D02*
G01X0015042Y0005068D01*
G01X0015015Y0005026D02*
G75*
G03X0014962Y0004919I0000391J-000258D01*
G01X0014904Y0004749D02*
G01X0014962Y0004919D01*
G01X0014801Y0004597D02*
G75*
G03X0014904Y0004749I-000226J0000265D01*
G01X0013089Y0003140D02*
G01X0014801Y0004597D01*
G01X0013089Y0003140D02*
G75*
G03X0013058Y0003072I0000058J-000069D01*
G01X0013058Y0003042D02*
G01X0013058Y0003072D01*
G01X0013024Y0002772D02*
G01X0013058Y0003042D01*
G01X0015558Y0006721D02*
G01X0015843Y0007484D01*
G01X0015558Y0006721D02*
G75*
G03X0015549Y0006691I0000214J-000080D01*
G01X0015209Y0005158D02*
G01X0015549Y0006691D01*
G01X0015143Y0005002D02*
G75*
G03X0015209Y0005158I-000391J0000258D01*
G01X0015115Y0004960D02*
G01X0015143Y0005002D01*
G01X0015115Y0004960D02*
G75*
G03X0015076Y0004880I0000290J-000192D01*
G01X0015018Y0004711D02*
G01X0015076Y0004880D01*
G01X0014998Y0004662D02*
G75*
G03X0015018Y0004711I-000424J0000200D01*
G01X0014229Y0003033D02*
G01X0014998Y0004662D01*
G01X0014212Y0003008D02*
G75*
G03X0014229Y0003033I-000064J0000063D01*
G01X0014212Y0003008D02*
G01X0014212Y0003008D01*
G01X0014190Y0002987D02*
G01X0014212Y0003008D01*
G01X0014024Y0002772D02*
G01X0014190Y0002987D01*
G01X0018013Y0009924D02*
G01X0017406Y0010457D01*
G01X0018013Y0009924D02*
G75*
G03X0018073Y0009901I0000059J0000068D01*
G01X0018321Y0009901D02*
G01X0018073Y0009901D01*
G01X0018321Y0009901D02*
G75*
G03X0018347Y0009905I0000000J0000090D01*
G01X0018923Y0010081D02*
G01X0018347Y0009905D01*
G01X0018923Y0010081D02*
G75*
G03X0018960Y0010103I-000026J0000086D01*
G01X0018961Y0010103D02*
G01X0018960Y0010103D01*
G01X0018982Y0010125D02*
G01X0018961Y0010103D01*
G01X0019197Y0010291D02*
G01X0018982Y0010125D01*
G01X0017897Y0011077D02*
G01X0017386Y0011079D01*
G01X0017897Y0011077D02*
G75*
G03X0017960Y0011103I0000000J0000090D01*
G01X0017961Y0011103D02*
G01X0017960Y0011103D01*
G01X0017982Y0011125D02*
G01X0017961Y0011103D01*
G01X0018197Y0011291D02*
G01X0017982Y0011125D01*
G01X0017196Y0010366D02*
G01X0017366Y0009972D01*
G01X0017355Y0010679D02*
G75*
G03X0017196Y0010366I0000051J-000222D01*
G01X0018341Y0010903D02*
G01X0017355Y0010679D01*
G01X0018341Y0010903D02*
G75*
G03X0018349Y0010906I-000020J0000088D01*
G01X0018960Y0011103D02*
G01X0018349Y0010906D01*
G01X0018982Y0011125D02*
G01X0018960Y0011103D01*
G01X0019197Y0011291D02*
G01X0018982Y0011125D01*
G01X0019863Y0003382D02*
G01X0018681Y0007752D01*
G01X0019866Y0003358D02*
G75*
G03X0019863Y0003382I-000090J0000000D01*
G01X0019866Y0001390D02*
G01X0019866Y0003358D01*
G01X0019779Y0001300D02*
G75*
G03X0019866Y0001390I-000003J0000090D01*
G01X0012164Y0001021D02*
G01X0019779Y0001300D01*
G01X0012148Y0001021D02*
G75*
G03X0012164Y0001021I0000000J0000451D01*
G01X0008899Y0001021D02*
G01X0012148Y0001021D01*
G01X0008831Y0001026D02*
G75*
G03X0008899Y0001021I0000069J0000446D01*
G01X0007292Y0001264D02*
G01X0008831Y0001026D01*
G01X0007281Y0001266D02*
G75*
G03X0007292Y0001264I0000042J0000206D01*
G01X0006706Y0001383D02*
G01X0007281Y0001266D01*
G01X0006649Y0001422D02*
G75*
G03X0006706Y0001383I0000075J0000050D01*
G01X0004455Y0004703D02*
G01X0006649Y0001422D01*
G01X0004455Y0004703D02*
G75*
G03X0004444Y0004716I-000075J-000050D01*
G01X0004444Y0004717D02*
G01X0004444Y0004716D01*
G01X0004423Y0004738D02*
G01X0004444Y0004717D01*
G01X0004256Y0004953D02*
G01X0004423Y0004738D01*
G01X0007899Y0010483D02*
G01X0013744Y0011669D01*
G01X0007899Y0010483D02*
G75*
G03X0007722Y0010388I0000069J-000341D01*
G01X0002484Y0005149D02*
G01X0007722Y0010388D01*
G01X0002462Y0005128D02*
G01X0002484Y0005149D01*
G01X0002256Y0004953D02*
G01X0002462Y0005128D01*
G01X0011803Y0006877D02*
G01X0013457Y0007224D01*
G01X0011803Y0006877D02*
G75*
G03X0011711Y0006834I0000047J-000223D01*
G01X0008809Y0004582D02*
G01X0011711Y0006834D01*
G01X0008809Y0004582D02*
G75*
G03X0008771Y0004544I0000140J-000180D01*
G01X0007559Y0003027D02*
G01X0008771Y0004544D01*
G01X0007559Y0003027D02*
G75*
G03X0007524Y0002963I0000164J-000131D01*
G01X0007409Y0002619D02*
G01X0007524Y0002963D01*
G01X0007387Y0002584D02*
G75*
G03X0007409Y0002619I-000064J0000064D01*
G01X0007212Y0002408D02*
G01X0007387Y0002584D01*
G01X0007148Y0002381D02*
G75*
G03X0007212Y0002408I0000000J0000090D01*
G01X0006899Y0002381D02*
G01X0007148Y0002381D01*
G01X0006836Y0002408D02*
G75*
G03X0006899Y0002381I0000064J0000064D01*
G01X0006660Y0002584D02*
G01X0006836Y0002408D01*
G01X0006633Y0002646D02*
G75*
G03X0006660Y0002584I0000090J0000001D01*
G01X0006620Y0003937D02*
G01X0006633Y0002646D01*
G01X0006620Y0003937D02*
G75*
G03X0006440Y0004238I-000348J-000004D01*
G01X0005512Y0004750D02*
G01X0006440Y0004238D01*
G01X0005492Y0004764D02*
G75*
G03X0005512Y0004750I0000063J0000064D01*
G01X0005492Y0004765D02*
G01X0005492Y0004764D01*
G01X0005471Y0004786D02*
G01X0005492Y0004765D01*
G01X0005256Y0004953D02*
G01X0005471Y0004786D01*
G01X0018960Y0012103D02*
G01X0017232Y0011539D01*
G01X0018982Y0012125D02*
G01X0018960Y0012103D01*
G01X0019197Y0012291D02*
G01X0018982Y0012125D01*
G01X0012759Y0003228D02*
G01X0014575Y0004862D01*
G01X0012759Y0003228D02*
G75*
G03X0012751Y0003220I0000141J-000156D01*
G01X0012575Y0003045D02*
G01X0012751Y0003220D01*
G01X0012575Y0003045D02*
G75*
G03X0012524Y0002961I0000149J-000149D01*
G01X0012211Y0002008D02*
G01X0012524Y0002961D01*
G01X0012190Y0001987D02*
G01X0012211Y0002008D01*
G01X0012024Y0001772D02*
G01X0012190Y0001987D01*
G01X0014526Y0005230D02*
G01X0014575Y0004862D01*
G01X0014572Y0005400D02*
G75*
G03X0014526Y0005230I0000180J-000140D01*
G01X0014732Y0005605D02*
G01X0014572Y0005400D01*
G01X0014732Y0005605D02*
G75*
G03X0014795Y0005735I-000275J0000214D01*
G01X0015064Y0006823D02*
G01X0014795Y0005735D01*
G01X0015064Y0006823D02*
G75*
G03X0015066Y0006925I-000221J0000055D01*
G01X0015010Y0007186D02*
G01X0015066Y0006925D01*
G01X0015003Y0007231D02*
G75*
G03X0015010Y0007186I0000465J0000053D01*
G01X0014604Y0010758D02*
G01X0015003Y0007231D01*
G01X0014604Y0010758D02*
G75*
G03X0014576Y0010845I-000227J-000026D01*
G01X0010886Y0017339D02*
G01X0014576Y0010845D01*
G01X0012909Y0004008D02*
G01X0014035Y0004984D01*
G01X0012898Y0003999D02*
G75*
G03X0012909Y0004008I-000295J0000364D01*
G01X0011843Y0003142D02*
G01X0012898Y0003999D01*
G01X0011843Y0003142D02*
G75*
G03X0011836Y0003135I0000057J-000070D01*
G01X0011660Y0002960D02*
G01X0011836Y0003135D01*
G01X0011660Y0002960D02*
G75*
G03X0011638Y0002924I0000064J-000064D01*
G01X0011523Y0002581D02*
G01X0011638Y0002924D01*
G01X0011508Y0002546D02*
G75*
G03X0011523Y0002581I-000184J0000102D01*
G01X0011211Y0002008D02*
G01X0011508Y0002546D01*
G01X0011190Y0001987D02*
G01X0011211Y0002008D01*
G01X0011024Y0001772D02*
G01X0011190Y0001987D01*
G01X0014897Y0005659D02*
G01X0014752Y0005260D01*
G01X0014897Y0005659D02*
G75*
G03X0014911Y0005706I-000440J0000160D01*
G01X0015181Y0006794D02*
G01X0014911Y0005706D01*
G01X0015181Y0006794D02*
G75*
G03X0015183Y0006950I-000338J0000084D01*
G01X0015128Y0007211D02*
G01X0015183Y0006950D01*
G01X0015123Y0007244D02*
G75*
G03X0015128Y0007211I0000346J0000039D01*
G01X0014724Y0010771D02*
G01X0015123Y0007244D01*
G01X0014724Y0010771D02*
G75*
G03X0014713Y0010826I-000346J-000039D01*
G01X0013118Y0016528D02*
G01X0014713Y0010826D01*
G01X0018297Y0014722D02*
G01X0018106Y0014913D01*
G01X0018318Y0014701D02*
G01X0018297Y0014722D01*
G01X0018480Y0014540D02*
G01X0018318Y0014701D01*
G01X0019584Y0010143D02*
G01X0019070Y0008250D01*
G01X0019584Y0010143D02*
G75*
G03X0019587Y0010167I-000087J0000024D01*
G01X0019587Y0012416D02*
G01X0019587Y0010167D01*
G01X0019587Y0012416D02*
G75*
G03X0019583Y0012444I-000090J0000000D01*
G01X0019411Y0012963D02*
G01X0019583Y0012444D01*
G01X0019407Y0012991D02*
G75*
G03X0019411Y0012963I0000090J0000000D01*
G01X0019407Y0013021D02*
G01X0019407Y0012991D01*
G01X0019197Y0013291D02*
G01X0019407Y0013021D01*
G01X0005048Y0004459D02*
G01X0006272Y0003933D01*
G01X0004983Y0004504D02*
G75*
G03X0005048Y0004459I0000149J0000149D01*
G01X0004807Y0004680D02*
G01X0004983Y0004504D01*
G01X0004756Y0004762D02*
G75*
G03X0004807Y0004680I0000200J0000067D01*
G01X0004641Y0005106D02*
G01X0004756Y0004762D01*
G01X0004641Y0005106D02*
G75*
G03X0004620Y0005141I-000086J-000029D01*
G01X0004444Y0005317D02*
G01X0004620Y0005141D01*
G01X0004444Y0005317D02*
G75*
G03X0004380Y0005343I-000064J-000064D01*
G01X0004132Y0005343D02*
G01X0004380Y0005343D01*
G01X0004132Y0005343D02*
G75*
G03X0004071Y0005320I0000000J-000090D01*
G01X0003836Y0005108D02*
G01X0004071Y0005320D01*
G01X0003789Y0005078D02*
G75*
G03X0003836Y0005108I-000066J0000156D01*
G01X0003591Y0004994D02*
G01X0003789Y0005078D01*
G01X0003556Y0004987D02*
G75*
G03X0003591Y0004994I0000000J0000090D01*
G01X0003526Y0004987D02*
G01X0003556Y0004987D01*
G01X0003256Y0004953D02*
G01X0003526Y0004987D01*
G01X0018980Y0005879D02*
G01X0018969Y0005528D01*
G01X0018980Y0005879D02*
G75*
G03X0018971Y0005950I-000228J0000007D01*
G01X0018462Y0007688D02*
G01X0018971Y0005950D01*
G01X0018564Y0007948D02*
G75*
G03X0018462Y0007688I0000117J-000196D01*
G01X0019070Y0008250D02*
G01X0018564Y0007948D01*
G01X0004064Y0015267D02*
G01X0004183Y0015402D01*
G01X0004064Y0015267D02*
G01X0004239Y0015226D01*
G01X0019226Y0004157D02*
G01X0019124Y0004305D01*
G01X0019226Y0004157D02*
G01X0019308Y0004317D01*
G01X0017016Y0007145D02*
G01X0016837Y0007160D01*
G01X0017016Y0007145D02*
G01X0016946Y0007310D01*
G01X0018582Y0006009D02*
G01X0018761Y0005993D01*
G01X0018582Y0006009D02*
G01X0018653Y0005843D01*
G01X0015219Y0009456D02*
G01X0015125Y0009609D01*
G01X0015219Y0009456D02*
G01X0015310Y0009611D01*
G01X0008886Y0009362D02*
G01X0008896Y0009542D01*
G01X0008886Y0009362D02*
G01X0009049Y0009438D01*
G01X0016265Y0008269D02*
G01X0016150Y0008407D01*
G01X0016265Y0008269D02*
G01X0016332Y0008436D01*
G01X0018011Y0008014D02*
G01X0018159Y0007912D01*
G01X0018011Y0008014D02*
G01X0017991Y0007835D01*
G01X0019184Y0007974D02*
G01X0019194Y0007794D01*
G01X0019184Y0007974D02*
G01X0019030Y0007879D01*
G01X0017033Y0007804D02*
G01X0017136Y0007656D01*
G01X0017033Y0007804D02*
G01X0016951Y0007643D01*
G01X0018049Y0007369D02*
G01X0018196Y0007265D01*
G01X0018049Y0007369D02*
G01X0018027Y0007191D01*
G01X0015325Y0004574D02*
G01X0015299Y0004752D01*
G01X0015325Y0004574D02*
G01X0015470Y0004681D01*
G01X0015712Y0006440D02*
G01X0015667Y0006615D01*
G01X0015712Y0006440D02*
G01X0015845Y0006562D01*
G01X0015891Y0006469D02*
G01X0015727Y0006544D01*
G01X0015891Y0006469D02*
G01X0015879Y0006649D01*
G01X0015679Y0012287D02*
G01X0015574Y0012433D01*
G01X0015679Y0012287D02*
G01X0015758Y0012449D01*
G01X0014031Y0005276D02*
G01X0014091Y0005446D01*
G01X0014031Y0005276D02*
G01X0014209Y0005303D01*
G01X0013434Y0005793D02*
G01X0013503Y0005959D01*
G01X0013434Y0005793D02*
G01X0013613Y0005810D01*
G01X0013428Y0007694D02*
G01X0013606Y0007669D01*
G01X0013428Y0007694D02*
G01X0013490Y0007525D01*
G01X0011392Y0010194D02*
G01X0011266Y0010322D01*
G01X0011392Y0010194D02*
G01X0011445Y0010366D01*
G01X0019186Y0007482D02*
G01X0019198Y0007302D01*
G01X0019186Y0007482D02*
G01X0019034Y0007387D01*
G01X0016182Y0006618D02*
G01X0016293Y0006476D01*
G01X0016182Y0006618D02*
G01X0016110Y0006453D01*
G01X0012414Y0004271D02*
G01X0012512Y0004421D01*
G01X0012414Y0004271D02*
G01X0012593Y0004255D01*
G01X0015863Y0004488D02*
G01X0015817Y0004662D01*
G01X0015863Y0004488D02*
G01X0015995Y0004610D01*
G01X0015774Y0004900D02*
G01X0015762Y0005080D01*
G01X0015774Y0004900D02*
G01X0015927Y0004995D01*
G01X0016746Y0008249D02*
G01X0016867Y0008116D01*
G01X0016746Y0008249D02*
G01X0016686Y0008079D01*
G01X0013431Y0006252D02*
G01X0013521Y0006408D01*
G01X0013431Y0006252D02*
G01X0013611Y0006247D01*
G01X0009779Y0008058D02*
G01X0009774Y0008238D01*
G01X0009779Y0008058D02*
G01X0009935Y0008146D01*
G01X0009791Y0008429D02*
G01X0009941Y0008330D01*
G01X0009791Y0008429D02*
G01X0009775Y0008250D01*
G01X0008166Y0010072D02*
G01X0007990Y0010036D01*
G01X0008166Y0010072D02*
G01X0008051Y0010211D01*
G01X0016327Y0004117D02*
G01X0016147Y0004121D01*
G01X0016327Y0004117D02*
G01X0016246Y0004277D01*
G01X0011472Y0010652D02*
G01X0011618Y0010757D01*
G01X0011472Y0010652D02*
G01X0011633Y0010573D01*
G01X0010989Y0003081D02*
G01X0010886Y0003202D01*
G01X0010989Y0003081D02*
G01X0011064Y0003221D01*
G01X0014274Y0005716D02*
G01X0014363Y0005872D01*
G01X0014274Y0005716D02*
G01X0014454Y0005711D01*
G01X0011155Y0003367D02*
G01X0011060Y0003214D01*
G01X0011155Y0003367D02*
G01X0010976Y0003379D01*
G01X0014812Y0006670D02*
G01X0014743Y0006837D01*
G01X0014812Y0006670D02*
G01X0014926Y0006810D01*
G01X0015450Y0007074D02*
G01X0015372Y0007236D01*
G01X0015450Y0007074D02*
G01X0015556Y0007220D01*
G01X0015769Y0007288D02*
G01X0015736Y0007465D01*
G01X0015769Y0007288D02*
G01X0015910Y0007400D01*
G01X0017563Y0010318D02*
G01X0017386Y0010351D01*
G01X0017563Y0010318D02*
G01X0017508Y0010490D01*
G01X0017596Y0011078D02*
G01X0017441Y0010986D01*
G01X0017596Y0011078D02*
G01X0017442Y0011171D01*
G01X0017283Y0010165D02*
G01X0017429Y0010060D01*
G01X0017283Y0010165D02*
G01X0017259Y0009987D01*
G01X0018736Y0007549D02*
G01X0018606Y0007674D01*
G01X0018736Y0007549D02*
G01X0018785Y0007723D01*
G01X0013539Y0011628D02*
G01X0013671Y0011749D01*
G01X0013539Y0011628D02*
G01X0013708Y0011568D01*
G01X0013251Y0007181D02*
G01X0013383Y0007304D01*
G01X0013251Y0007181D02*
G01X0013422Y0007122D01*
G01X0017432Y0011604D02*
G01X0017314Y0011469D01*
G01X0017432Y0011604D02*
G01X0017256Y0011644D01*
G01X0014419Y0004722D02*
G01X0014472Y0004894D01*
G01X0014419Y0004722D02*
G01X0014595Y0004756D01*
G01X0014547Y0005070D02*
G01X0014659Y0004929D01*
G01X0014547Y0005070D02*
G01X0014476Y0004905D01*
G01X0010989Y0017156D02*
G01X0010833Y0017245D01*
G01X0010989Y0017156D02*
G01X0010994Y0017336D01*
G01X0013877Y0004847D02*
G01X0013933Y0005018D01*
G01X0013877Y0004847D02*
G01X0014054Y0004878D01*
G01X0014824Y0005457D02*
G01X0014858Y0005280D01*
G01X0014824Y0005457D02*
G01X0014684Y0005343D01*
G01X0013175Y0016326D02*
G01X0013044Y0016449D01*
G01X0013175Y0016326D02*
G01X0013222Y0016499D01*
G01X0019125Y0008452D02*
G01X0019174Y0008279D01*
G01X0019125Y0008452D02*
G01X0018996Y0008328D01*
G01X0006079Y0004016D02*
G01X0006257Y0004040D01*
G01X0006079Y0004016D02*
G01X0006184Y0003870D01*
G01X0018890Y0008142D02*
G01X0018975Y0008301D01*
G01X0018890Y0008142D02*
G01X0019070Y0008142D01*
G54D15*
G01X0013739Y0019128D02*
G01X0013915Y0019304D01*
G01X0013915Y0019304D02*
G01X0014164Y0019304D01*
G01X0014164Y0019304D02*
G01X0014339Y0019128D01*
G01X0014339Y0019128D02*
G01X0014339Y0018880D01*
G01X0014339Y0018880D02*
G01X0014164Y0018704D01*
G01X0014164Y0018704D02*
G01X0013915Y0018704D01*
G01X0013915Y0018704D02*
G01X0013739Y0018880D01*
G01X0013739Y0018880D02*
G01X0013739Y0019128D01*
G01X0012739Y0019128D02*
G01X0012915Y0019304D01*
G01X0012915Y0019304D02*
G01X0013164Y0019304D01*
G01X0013164Y0019304D02*
G01X0013339Y0019128D01*
G01X0013339Y0019128D02*
G01X0013339Y0018880D01*
G01X0013339Y0018880D02*
G01X0013164Y0018704D01*
G01X0013164Y0018704D02*
G01X0012915Y0018704D01*
G01X0012915Y0018704D02*
G01X0012739Y0018880D01*
G01X0012739Y0018880D02*
G01X0012739Y0019128D01*
G01X0011739Y0019128D02*
G01X0011915Y0019304D01*
G01X0011915Y0019304D02*
G01X0012164Y0019304D01*
G01X0012164Y0019304D02*
G01X0012339Y0019128D01*
G01X0012339Y0019128D02*
G01X0012339Y0018880D01*
G01X0012339Y0018880D02*
G01X0012164Y0018704D01*
G01X0012164Y0018704D02*
G01X0011915Y0018704D01*
G01X0011915Y0018704D02*
G01X0011739Y0018880D01*
G01X0011739Y0018880D02*
G01X0011739Y0019128D01*
G01X0010739Y0019128D02*
G01X0010915Y0019304D01*
G01X0010915Y0019304D02*
G01X0011164Y0019304D01*
G01X0011164Y0019304D02*
G01X0011339Y0019128D01*
G01X0011339Y0019128D02*
G01X0011339Y0018880D01*
G01X0011339Y0018880D02*
G01X0011164Y0018704D01*
G01X0011164Y0018704D02*
G01X0010915Y0018704D01*
G01X0010915Y0018704D02*
G01X0010739Y0018880D01*
G01X0010739Y0018880D02*
G01X0010739Y0019128D01*
G01X0009739Y0019128D02*
G01X0009915Y0019304D01*
G01X0009915Y0019304D02*
G01X0010164Y0019304D01*
G01X0010164Y0019304D02*
G01X0010339Y0019128D01*
G01X0010339Y0019128D02*
G01X0010339Y0018880D01*
G01X0010339Y0018880D02*
G01X0010164Y0018704D01*
G01X0010164Y0018704D02*
G01X0009915Y0018704D01*
G01X0009915Y0018704D02*
G01X0009739Y0018880D01*
G01X0009739Y0018880D02*
G01X0009739Y0019128D01*
G01X0008739Y0019128D02*
G01X0008915Y0019304D01*
G01X0008915Y0019304D02*
G01X0009164Y0019304D01*
G01X0009164Y0019304D02*
G01X0009339Y0019128D01*
G01X0009339Y0019128D02*
G01X0009339Y0018880D01*
G01X0009339Y0018880D02*
G01X0009164Y0018704D01*
G01X0009164Y0018704D02*
G01X0008915Y0018704D01*
G01X0008915Y0018704D02*
G01X0008739Y0018880D01*
G01X0008739Y0018880D02*
G01X0008739Y0019128D01*
G01X0007739Y0019128D02*
G01X0007915Y0019304D01*
G01X0007915Y0019304D02*
G01X0008164Y0019304D01*
G01X0008164Y0019304D02*
G01X0008339Y0019128D01*
G01X0008339Y0019128D02*
G01X0008339Y0018880D01*
G01X0008339Y0018880D02*
G01X0008164Y0018704D01*
G01X0008164Y0018704D02*
G01X0007915Y0018704D01*
G01X0007915Y0018704D02*
G01X0007739Y0018880D01*
G01X0007739Y0018880D02*
G01X0007739Y0019128D01*
G01X0015724Y0002896D02*
G01X0015899Y0003072D01*
G01X0015899Y0003072D02*
G01X0016148Y0003072D01*
G01X0016148Y0003072D02*
G01X0016324Y0002896D01*
G01X0016324Y0002896D02*
G01X0016324Y0002647D01*
G01X0016324Y0002647D02*
G01X0016148Y0002472D01*
G01X0016148Y0002472D02*
G01X0015899Y0002472D01*
G01X0015899Y0002472D02*
G01X0015724Y0002647D01*
G01X0015724Y0002647D02*
G01X0015724Y0002896D01*
G01X0015724Y0001896D02*
G01X0015899Y0002072D01*
G01X0015899Y0002072D02*
G01X0016148Y0002072D01*
G01X0016148Y0002072D02*
G01X0016324Y0001896D01*
G01X0016324Y0001896D02*
G01X0016324Y0001647D01*
G01X0016324Y0001647D02*
G01X0016148Y0001472D01*
G01X0016148Y0001472D02*
G01X0015899Y0001472D01*
G01X0015899Y0001472D02*
G01X0015724Y0001647D01*
G01X0015724Y0001647D02*
G01X0015724Y0001896D01*
G01X0014724Y0002896D02*
G01X0014899Y0003072D01*
G01X0014899Y0003072D02*
G01X0015148Y0003072D01*
G01X0015148Y0003072D02*
G01X0015324Y0002896D01*
G01X0015324Y0002896D02*
G01X0015324Y0002647D01*
G01X0015324Y0002647D02*
G01X0015148Y0002472D01*
G01X0015148Y0002472D02*
G01X0014899Y0002472D01*
G01X0014899Y0002472D02*
G01X0014724Y0002647D01*
G01X0014724Y0002647D02*
G01X0014724Y0002896D01*
G01X0014724Y0001896D02*
G01X0014899Y0002072D01*
G01X0014899Y0002072D02*
G01X0015148Y0002072D01*
G01X0015148Y0002072D02*
G01X0015324Y0001896D01*
G01X0015324Y0001896D02*
G01X0015324Y0001647D01*
G01X0015324Y0001647D02*
G01X0015148Y0001472D01*
G01X0015148Y0001472D02*
G01X0014899Y0001472D01*
G01X0014899Y0001472D02*
G01X0014724Y0001647D01*
G01X0014724Y0001647D02*
G01X0014724Y0001896D01*
G01X0013724Y0002896D02*
G01X0013899Y0003072D01*
G01X0013899Y0003072D02*
G01X0014148Y0003072D01*
G01X0014148Y0003072D02*
G01X0014324Y0002896D01*
G01X0014324Y0002896D02*
G01X0014324Y0002647D01*
G01X0014324Y0002647D02*
G01X0014148Y0002472D01*
G01X0014148Y0002472D02*
G01X0013899Y0002472D01*
G01X0013899Y0002472D02*
G01X0013724Y0002647D01*
G01X0013724Y0002647D02*
G01X0013724Y0002896D01*
G01X0013724Y0001896D02*
G01X0013899Y0002072D01*
G01X0013899Y0002072D02*
G01X0014148Y0002072D01*
G01X0014148Y0002072D02*
G01X0014324Y0001896D01*
G01X0014324Y0001896D02*
G01X0014324Y0001647D01*
G01X0014324Y0001647D02*
G01X0014148Y0001472D01*
G01X0014148Y0001472D02*
G01X0013899Y0001472D01*
G01X0013899Y0001472D02*
G01X0013724Y0001647D01*
G01X0013724Y0001647D02*
G01X0013724Y0001896D01*
G01X0012724Y0002896D02*
G01X0012899Y0003072D01*
G01X0012899Y0003072D02*
G01X0013148Y0003072D01*
G01X0013148Y0003072D02*
G01X0013324Y0002896D01*
G01X0013324Y0002896D02*
G01X0013324Y0002647D01*
G01X0013324Y0002647D02*
G01X0013148Y0002472D01*
G01X0013148Y0002472D02*
G01X0012899Y0002472D01*
G01X0012899Y0002472D02*
G01X0012724Y0002647D01*
G01X0012724Y0002647D02*
G01X0012724Y0002896D01*
G01X0012724Y0001896D02*
G01X0012899Y0002072D01*
G01X0012899Y0002072D02*
G01X0013148Y0002072D01*
G01X0013148Y0002072D02*
G01X0013324Y0001896D01*
G01X0013324Y0001896D02*
G01X0013324Y0001647D01*
G01X0013324Y0001647D02*
G01X0013148Y0001472D01*
G01X0013148Y0001472D02*
G01X0012899Y0001472D01*
G01X0012899Y0001472D02*
G01X0012724Y0001647D01*
G01X0012724Y0001647D02*
G01X0012724Y0001896D01*
G01X0011724Y0002896D02*
G01X0011899Y0003072D01*
G01X0011899Y0003072D02*
G01X0012148Y0003072D01*
G01X0012148Y0003072D02*
G01X0012324Y0002896D01*
G01X0012324Y0002896D02*
G01X0012324Y0002647D01*
G01X0012324Y0002647D02*
G01X0012148Y0002472D01*
G01X0012148Y0002472D02*
G01X0011899Y0002472D01*
G01X0011899Y0002472D02*
G01X0011724Y0002647D01*
G01X0011724Y0002647D02*
G01X0011724Y0002896D01*
G01X0011724Y0001896D02*
G01X0011899Y0002072D01*
G01X0011899Y0002072D02*
G01X0012148Y0002072D01*
G01X0012148Y0002072D02*
G01X0012324Y0001896D01*
G01X0012324Y0001896D02*
G01X0012324Y0001647D01*
G01X0012324Y0001647D02*
G01X0012148Y0001472D01*
G01X0012148Y0001472D02*
G01X0011899Y0001472D01*
G01X0011899Y0001472D02*
G01X0011724Y0001647D01*
G01X0011724Y0001647D02*
G01X0011724Y0001896D01*
G01X0010724Y0002896D02*
G01X0010899Y0003072D01*
G01X0010899Y0003072D02*
G01X0011148Y0003072D01*
G01X0011148Y0003072D02*
G01X0011324Y0002896D01*
G01X0011324Y0002896D02*
G01X0011324Y0002647D01*
G01X0011324Y0002647D02*
G01X0011148Y0002472D01*
G01X0011148Y0002472D02*
G01X0010899Y0002472D01*
G01X0010899Y0002472D02*
G01X0010724Y0002647D01*
G01X0010724Y0002647D02*
G01X0010724Y0002896D01*
G01X0010724Y0001896D02*
G01X0010899Y0002072D01*
G01X0010899Y0002072D02*
G01X0011148Y0002072D01*
G01X0011148Y0002072D02*
G01X0011324Y0001896D01*
G01X0011324Y0001896D02*
G01X0011324Y0001647D01*
G01X0011324Y0001647D02*
G01X0011148Y0001472D01*
G01X0011148Y0001472D02*
G01X0010899Y0001472D01*
G01X0010899Y0001472D02*
G01X0010724Y0001647D01*
G01X0010724Y0001647D02*
G01X0010724Y0001896D01*
G01X0009724Y0002896D02*
G01X0009899Y0003072D01*
G01X0009899Y0003072D02*
G01X0010148Y0003072D01*
G01X0010148Y0003072D02*
G01X0010324Y0002896D01*
G01X0010324Y0002896D02*
G01X0010324Y0002647D01*
G01X0010324Y0002647D02*
G01X0010148Y0002472D01*
G01X0010148Y0002472D02*
G01X0009899Y0002472D01*
G01X0009899Y0002472D02*
G01X0009724Y0002647D01*
G01X0009724Y0002647D02*
G01X0009724Y0002896D01*
G01X0009724Y0001896D02*
G01X0009899Y0002072D01*
G01X0009899Y0002072D02*
G01X0010148Y0002072D01*
G01X0010148Y0002072D02*
G01X0010324Y0001896D01*
G01X0010324Y0001896D02*
G01X0010324Y0001647D01*
G01X0010324Y0001647D02*
G01X0010148Y0001472D01*
G01X0010148Y0001472D02*
G01X0009899Y0001472D01*
G01X0009899Y0001472D02*
G01X0009724Y0001647D01*
G01X0009724Y0001647D02*
G01X0009724Y0001896D01*
G01X0008724Y0002896D02*
G01X0008899Y0003072D01*
G01X0008899Y0003072D02*
G01X0009148Y0003072D01*
G01X0009148Y0003072D02*
G01X0009324Y0002896D01*
G01X0009324Y0002896D02*
G01X0009324Y0002647D01*
G01X0009324Y0002647D02*
G01X0009148Y0002472D01*
G01X0009148Y0002472D02*
G01X0008899Y0002472D01*
G01X0008899Y0002472D02*
G01X0008724Y0002647D01*
G01X0008724Y0002647D02*
G01X0008724Y0002896D01*
G01X0008724Y0001896D02*
G01X0008899Y0002072D01*
G01X0008899Y0002072D02*
G01X0009148Y0002072D01*
G01X0009148Y0002072D02*
G01X0009324Y0001896D01*
G01X0009324Y0001896D02*
G01X0009324Y0001647D01*
G01X0009324Y0001647D02*
G01X0009148Y0001472D01*
G01X0009148Y0001472D02*
G01X0008899Y0001472D01*
G01X0008899Y0001472D02*
G01X0008724Y0001647D01*
G01X0008724Y0001647D02*
G01X0008724Y0001896D01*
G01X0007724Y0002896D02*
G01X0007899Y0003072D01*
G01X0007899Y0003072D02*
G01X0008148Y0003072D01*
G01X0008148Y0003072D02*
G01X0008324Y0002896D01*
G01X0008324Y0002896D02*
G01X0008324Y0002647D01*
G01X0008324Y0002647D02*
G01X0008148Y0002472D01*
G01X0008148Y0002472D02*
G01X0007899Y0002472D01*
G01X0007899Y0002472D02*
G01X0007724Y0002647D01*
G01X0007724Y0002647D02*
G01X0007724Y0002896D01*
G01X0007724Y0001896D02*
G01X0007899Y0002072D01*
G01X0007899Y0002072D02*
G01X0008148Y0002072D01*
G01X0008148Y0002072D02*
G01X0008324Y0001896D01*
G01X0008324Y0001896D02*
G01X0008324Y0001647D01*
G01X0008324Y0001647D02*
G01X0008148Y0001472D01*
G01X0008148Y0001472D02*
G01X0007899Y0001472D01*
G01X0007899Y0001472D02*
G01X0007724Y0001647D01*
G01X0007724Y0001647D02*
G01X0007724Y0001896D01*
G01X0006724Y0002896D02*
G01X0006899Y0003072D01*
G01X0006899Y0003072D02*
G01X0007148Y0003072D01*
G01X0007148Y0003072D02*
G01X0007324Y0002896D01*
G01X0007324Y0002896D02*
G01X0007324Y0002647D01*
G01X0007324Y0002647D02*
G01X0007148Y0002472D01*
G01X0007148Y0002472D02*
G01X0006899Y0002472D01*
G01X0006899Y0002472D02*
G01X0006724Y0002647D01*
G01X0006724Y0002647D02*
G01X0006724Y0002896D01*
G01X0018810Y0019183D02*
G01X0018986Y0019359D01*
G01X0018986Y0019359D02*
G01X0019234Y0019359D01*
G01X0019234Y0019359D02*
G01X0019410Y0019183D01*
G01X0019410Y0019183D02*
G01X0019410Y0018935D01*
G01X0019410Y0018935D02*
G01X0019234Y0018759D01*
G01X0019234Y0018759D02*
G01X0018986Y0018759D01*
G01X0018986Y0018759D02*
G01X0018810Y0018935D01*
G01X0018810Y0018935D02*
G01X0018810Y0019183D01*
G01X0017810Y0019183D02*
G01X0017986Y0019359D01*
G01X0017986Y0019359D02*
G01X0018234Y0019359D01*
G01X0018234Y0019359D02*
G01X0018410Y0019183D01*
G01X0018410Y0019183D02*
G01X0018410Y0018935D01*
G01X0018410Y0018935D02*
G01X0018234Y0018759D01*
G01X0018234Y0018759D02*
G01X0017986Y0018759D01*
G01X0017986Y0018759D02*
G01X0017810Y0018935D01*
G01X0017810Y0018935D02*
G01X0017810Y0019183D01*
G01X0018806Y0017801D02*
G01X0018982Y0017977D01*
G01X0018982Y0017977D02*
G01X0019231Y0017977D01*
G01X0019231Y0017977D02*
G01X0019406Y0017801D01*
G01X0019406Y0017801D02*
G01X0019406Y0017553D01*
G01X0019406Y0017553D02*
G01X0019231Y0017377D01*
G01X0019231Y0017377D02*
G01X0018982Y0017377D01*
G01X0018982Y0017377D02*
G01X0018806Y0017553D01*
G01X0018806Y0017553D02*
G01X0018806Y0017801D01*
G01X0017806Y0017801D02*
G01X0017982Y0017977D01*
G01X0017982Y0017977D02*
G01X0018231Y0017977D01*
G01X0018231Y0017977D02*
G01X0018406Y0017801D01*
G01X0018406Y0017801D02*
G01X0018406Y0017553D01*
G01X0018406Y0017553D02*
G01X0018231Y0017377D01*
G01X0018231Y0017377D02*
G01X0017982Y0017377D01*
G01X0017982Y0017377D02*
G01X0017806Y0017553D01*
G01X0017806Y0017553D02*
G01X0017806Y0017801D01*
G01X0004956Y0004829D02*
G01X0005132Y0004653D01*
G01X0005132Y0004653D02*
G01X0005380Y0004653D01*
G01X0005380Y0004653D02*
G01X0005556Y0004829D01*
G01X0005556Y0004829D02*
G01X0005556Y0005077D01*
G01X0005556Y0005077D02*
G01X0005380Y0005253D01*
G01X0005380Y0005253D02*
G01X0005132Y0005253D01*
G01X0005132Y0005253D02*
G01X0004956Y0005077D01*
G01X0004956Y0005077D02*
G01X0004956Y0004829D01*
G01X0003956Y0004829D02*
G01X0004132Y0004653D01*
G01X0004132Y0004653D02*
G01X0004380Y0004653D01*
G01X0004380Y0004653D02*
G01X0004556Y0004829D01*
G01X0004556Y0004829D02*
G01X0004556Y0005077D01*
G01X0004556Y0005077D02*
G01X0004380Y0005253D01*
G01X0004380Y0005253D02*
G01X0004132Y0005253D01*
G01X0004132Y0005253D02*
G01X0003956Y0005077D01*
G01X0003956Y0005077D02*
G01X0003956Y0004829D01*
G01X0002956Y0004829D02*
G01X0003132Y0004653D01*
G01X0003132Y0004653D02*
G01X0003380Y0004653D01*
G01X0003380Y0004653D02*
G01X0003556Y0004829D01*
G01X0003556Y0004829D02*
G01X0003556Y0005077D01*
G01X0003556Y0005077D02*
G01X0003380Y0005253D01*
G01X0003380Y0005253D02*
G01X0003132Y0005253D01*
G01X0003132Y0005253D02*
G01X0002956Y0005077D01*
G01X0002956Y0005077D02*
G01X0002956Y0004829D01*
G01X0001956Y0004829D02*
G01X0002132Y0004653D01*
G01X0002132Y0004653D02*
G01X0002380Y0004653D01*
G01X0002380Y0004653D02*
G01X0002556Y0004829D01*
G01X0002556Y0004829D02*
G01X0002556Y0005077D01*
G01X0002556Y0005077D02*
G01X0002380Y0005253D01*
G01X0002380Y0005253D02*
G01X0002132Y0005253D01*
G01X0002132Y0005253D02*
G01X0001956Y0005077D01*
G01X0001956Y0005077D02*
G01X0001956Y0004829D01*
G01X0018073Y0010591D02*
G01X0017897Y0010416D01*
G01X0017897Y0010416D02*
G01X0017897Y0010167D01*
G01X0017897Y0010167D02*
G01X0018073Y0009991D01*
G01X0018073Y0009991D02*
G01X0018321Y0009991D01*
G01X0018321Y0009991D02*
G01X0018497Y0010167D01*
G01X0018497Y0010167D02*
G01X0018497Y0010416D01*
G01X0018497Y0010416D02*
G01X0018321Y0010591D01*
G01X0018321Y0010591D02*
G01X0018073Y0010591D01*
G01X0019073Y0010591D02*
G01X0018897Y0010416D01*
G01X0018897Y0010416D02*
G01X0018897Y0010167D01*
G01X0018897Y0010167D02*
G01X0019073Y0009991D01*
G01X0019073Y0009991D02*
G01X0019321Y0009991D01*
G01X0019321Y0009991D02*
G01X0019497Y0010167D01*
G01X0019497Y0010167D02*
G01X0019497Y0010416D01*
G01X0019497Y0010416D02*
G01X0019321Y0010591D01*
G01X0019321Y0010591D02*
G01X0019073Y0010591D01*
G01X0018073Y0011591D02*
G01X0017897Y0011416D01*
G01X0017897Y0011416D02*
G01X0017897Y0011167D01*
G01X0017897Y0011167D02*
G01X0018073Y0010991D01*
G01X0018073Y0010991D02*
G01X0018321Y0010991D01*
G01X0018321Y0010991D02*
G01X0018497Y0011167D01*
G01X0018497Y0011167D02*
G01X0018497Y0011416D01*
G01X0018497Y0011416D02*
G01X0018321Y0011591D01*
G01X0018321Y0011591D02*
G01X0018073Y0011591D01*
G01X0019073Y0011591D02*
G01X0018897Y0011416D01*
G01X0018897Y0011416D02*
G01X0018897Y0011167D01*
G01X0018897Y0011167D02*
G01X0019073Y0010991D01*
G01X0019073Y0010991D02*
G01X0019321Y0010991D01*
G01X0019321Y0010991D02*
G01X0019497Y0011167D01*
G01X0019497Y0011167D02*
G01X0019497Y0011416D01*
G01X0019497Y0011416D02*
G01X0019321Y0011591D01*
G01X0019321Y0011591D02*
G01X0019073Y0011591D01*
G01X0018073Y0012591D02*
G01X0017897Y0012416D01*
G01X0017897Y0012416D02*
G01X0017897Y0012167D01*
G01X0017897Y0012167D02*
G01X0018073Y0011991D01*
G01X0018073Y0011991D02*
G01X0018321Y0011991D01*
G01X0018321Y0011991D02*
G01X0018497Y0012167D01*
G01X0018497Y0012167D02*
G01X0018497Y0012416D01*
G01X0018497Y0012416D02*
G01X0018321Y0012591D01*
G01X0018321Y0012591D02*
G01X0018073Y0012591D01*
G01X0019073Y0012591D02*
G01X0018897Y0012416D01*
G01X0018897Y0012416D02*
G01X0018897Y0012167D01*
G01X0018897Y0012167D02*
G01X0019073Y0011991D01*
G01X0019073Y0011991D02*
G01X0019321Y0011991D01*
G01X0019321Y0011991D02*
G01X0019497Y0012167D01*
G01X0019497Y0012167D02*
G01X0019497Y0012416D01*
G01X0019497Y0012416D02*
G01X0019321Y0012591D01*
G01X0019321Y0012591D02*
G01X0019073Y0012591D01*
G01X0018073Y0013591D02*
G01X0017897Y0013416D01*
G01X0017897Y0013416D02*
G01X0017897Y0013167D01*
G01X0017897Y0013167D02*
G01X0018073Y0012991D01*
G01X0018073Y0012991D02*
G01X0018321Y0012991D01*
G01X0018321Y0012991D02*
G01X0018497Y0013167D01*
G01X0018497Y0013167D02*
G01X0018497Y0013416D01*
G01X0018497Y0013416D02*
G01X0018321Y0013591D01*
G01X0018321Y0013591D02*
G01X0018073Y0013591D01*
G01X0018810Y0016423D02*
G01X0018986Y0016599D01*
G01X0018986Y0016599D02*
G01X0019234Y0016599D01*
G01X0019234Y0016599D02*
G01X0019410Y0016423D01*
G01X0019410Y0016423D02*
G01X0019410Y0016175D01*
G01X0019410Y0016175D02*
G01X0019234Y0015999D01*
G01X0019234Y0015999D02*
G01X0018986Y0015999D01*
G01X0018986Y0015999D02*
G01X0018810Y0016175D01*
G01X0018810Y0016175D02*
G01X0018810Y0016423D01*
G01X0017810Y0016423D02*
G01X0017986Y0016599D01*
G01X0017986Y0016599D02*
G01X0018234Y0016599D01*
G01X0018234Y0016599D02*
G01X0018410Y0016423D01*
G01X0018410Y0016423D02*
G01X0018410Y0016175D01*
G01X0018410Y0016175D02*
G01X0018234Y0015999D01*
G01X0018234Y0015999D02*
G01X0017986Y0015999D01*
G01X0017986Y0015999D02*
G01X0017810Y0016175D01*
G01X0017810Y0016175D02*
G01X0017810Y0016423D01*
G01X0016810Y0016423D02*
G01X0016986Y0016599D01*
G01X0016986Y0016599D02*
G01X0017234Y0016599D01*
G01X0017234Y0016599D02*
G01X0017410Y0016423D01*
G01X0017410Y0016423D02*
G01X0017410Y0016175D01*
G01X0017410Y0016175D02*
G01X0017234Y0015999D01*
G01X0017234Y0015999D02*
G01X0016986Y0015999D01*
G01X0016986Y0015999D02*
G01X0016810Y0016175D01*
G01X0016810Y0016175D02*
G01X0016810Y0016423D01*
G01X0018806Y0015038D02*
G01X0018982Y0015213D01*
G01X0018982Y0015213D02*
G01X0019231Y0015213D01*
G01X0019231Y0015213D02*
G01X0019406Y0015038D01*
G01X0019406Y0015038D02*
G01X0019406Y0014789D01*
G01X0019406Y0014789D02*
G01X0019231Y0014613D01*
G01X0019231Y0014613D02*
G01X0018982Y0014613D01*
G01X0018982Y0014613D02*
G01X0018806Y0014789D01*
G01X0018806Y0014789D02*
G01X0018806Y0015038D01*
G01X0017806Y0015038D02*
G01X0017982Y0015213D01*
G01X0017982Y0015213D02*
G01X0018231Y0015213D01*
G01X0018231Y0015213D02*
G01X0018406Y0015038D01*
G01X0018406Y0015038D02*
G01X0018406Y0014789D01*
G01X0018406Y0014789D02*
G01X0018231Y0014613D01*
G01X0018231Y0014613D02*
G01X0017982Y0014613D01*
G01X0017982Y0014613D02*
G01X0017806Y0014789D01*
G01X0017806Y0014789D02*
G01X0017806Y0015038D01*
G54D16*
G01X0010164Y0008549D02*
G01X0010175Y0008532D01*
G01X0010175Y0008532D02*
G01X0010232Y0008474D01*
G01X0010232Y0008474D02*
G01X0010295Y0008322D01*
G01X0010295Y0008322D02*
G01X0010295Y0008158D01*
G01X0010295Y0008158D02*
G01X0010232Y0008006D01*
G01X0010232Y0008006D02*
G01X0010143Y0007917D01*
G01X0010143Y0007917D02*
G01X0010138Y0007910D01*
G01X0010138Y0007910D02*
G01X0010134Y0007908D01*
G01X0010134Y0007908D02*
G01X0010116Y0007890D01*
G01X0010116Y0007890D02*
G01X0010063Y0007868D01*
G01X0010063Y0007868D02*
G01X0010002Y0007833D01*
G01X0010002Y0007833D02*
G01X0009239Y0006495D01*
G01X0009239Y0006495D02*
G01X0009240Y0006491D01*
G01X0009240Y0006491D02*
G01X0009240Y0006436D01*
G01X0009240Y0006436D02*
G01X0009240Y0005316D01*
G01X0009240Y0005316D02*
G01X0011569Y0007123D01*
G01X0011569Y0007123D02*
G01X0011597Y0007145D01*
G01X0011597Y0007145D02*
G01X0011661Y0007174D01*
G01X0011661Y0007174D02*
G01X0011696Y0007181D01*
G01X0011696Y0007181D02*
G01X0013108Y0007466D01*
G01X0013108Y0007466D02*
G01X0013161Y0007515D01*
G01X0013161Y0007515D02*
G01X0011569Y0008789D01*
G01X0011569Y0008789D02*
G01X0011562Y0008795D01*
G01X0011562Y0008795D02*
G01X0011550Y0008806D01*
G01X0011550Y0008806D02*
G01X0011544Y0008812D01*
G01X0011544Y0008812D02*
G01X0011410Y0008945D01*
G01X0011410Y0008945D02*
G01X0011380Y0008976D01*
G01X0011380Y0008976D02*
G01X0011338Y0009051D01*
G01X0011338Y0009051D02*
G01X0011329Y0009093D01*
G01X0011329Y0009093D02*
G01X0011111Y0010042D01*
G01X0011111Y0010042D02*
G01X0011047Y0010109D01*
G01X0011047Y0010109D02*
G01X0010992Y0010163D01*
G01X0010992Y0010163D02*
G01X0010934Y0010304D01*
G01X0010934Y0010304D02*
G01X0008920Y0010145D01*
G01X0008920Y0010145D02*
G01X0009195Y0010053D01*
G01X0009195Y0010053D02*
G01X0009229Y0010042D01*
G01X0009229Y0010042D02*
G01X0009289Y0010005D01*
G01X0009289Y0010005D02*
G01X0009314Y0009980D01*
G01X0009314Y0009980D02*
G01X0009448Y0009846D01*
G01X0009448Y0009846D02*
G01X0009467Y0009827D01*
G01X0009467Y0009827D02*
G01X0009497Y0009784D01*
G01X0009497Y0009784D02*
G01X0009509Y0009759D01*
G01X0009509Y0009759D02*
G01X0010034Y0008636D01*
G01X0010034Y0008636D02*
G01X0010079Y0008606D01*
G01X0010079Y0008606D02*
G01X0010116Y0008591D01*
G01X0010116Y0008591D02*
G01X0010146Y0008561D01*
G01X0010146Y0008561D02*
G01X0010164Y0008549D01*
G01X0010164Y0008549D02*
G01X0010164Y0008549D01*
G01X0017267Y0011956D02*
G01X0017280Y0011953D01*
G01X0017280Y0011953D02*
G01X0017315Y0011953D01*
G01X0017315Y0011953D02*
G01X0017359Y0011934D01*
G01X0017359Y0011934D02*
G01X0017419Y0011920D01*
G01X0017419Y0011920D02*
G01X0017672Y0012002D01*
G01X0017672Y0012002D02*
G01X0017663Y0012011D01*
G01X0017663Y0012011D02*
G01X0017621Y0012112D01*
G01X0017621Y0012112D02*
G01X0017621Y0012167D01*
G01X0017621Y0012167D02*
G01X0017621Y0012416D01*
G01X0017621Y0012416D02*
G01X0017621Y0012470D01*
G01X0017621Y0012470D02*
G01X0017663Y0012571D01*
G01X0017663Y0012571D02*
G01X0017702Y0012610D01*
G01X0017702Y0012610D02*
G01X0017839Y0012747D01*
G01X0017839Y0012747D02*
G01X0017878Y0012786D01*
G01X0017878Y0012786D02*
G01X0017883Y0012791D01*
G01X0017883Y0012791D02*
G01X0017878Y0012796D01*
G01X0017878Y0012796D02*
G01X0017702Y0012972D01*
G01X0017702Y0012972D02*
G01X0017663Y0013011D01*
G01X0017663Y0013011D02*
G01X0017621Y0013112D01*
G01X0017621Y0013112D02*
G01X0017621Y0013167D01*
G01X0017621Y0013167D02*
G01X0017621Y0013416D01*
G01X0017621Y0013416D02*
G01X0017621Y0013470D01*
G01X0017621Y0013470D02*
G01X0017663Y0013571D01*
G01X0017663Y0013571D02*
G01X0017702Y0013610D01*
G01X0017702Y0013610D02*
G01X0017839Y0013747D01*
G01X0017839Y0013747D02*
G01X0017878Y0013786D01*
G01X0017878Y0013786D02*
G01X0017916Y0013825D01*
G01X0017916Y0013825D02*
G01X0018018Y0013867D01*
G01X0018018Y0013867D02*
G01X0018032Y0013867D01*
G01X0018032Y0013867D02*
G01X0017873Y0014248D01*
G01X0017873Y0014248D02*
G01X0017838Y0014330D01*
G01X0017838Y0014330D02*
G01X0017843Y0014373D01*
G01X0017843Y0014373D02*
G01X0017826Y0014380D01*
G01X0017826Y0014380D02*
G01X0017787Y0014419D01*
G01X0017787Y0014419D02*
G01X0017672Y0014534D01*
G01X0017672Y0014534D02*
G01X0017640Y0014457D01*
G01X0017640Y0014457D02*
G01X0017563Y0014380D01*
G01X0017563Y0014380D02*
G01X0017461Y0014338D01*
G01X0017461Y0014338D02*
G01X0017406Y0014338D01*
G01X0017406Y0014338D02*
G01X0016806Y0014338D01*
G01X0016806Y0014338D02*
G01X0016752Y0014338D01*
G01X0016752Y0014338D02*
G01X0016650Y0014380D01*
G01X0016650Y0014380D02*
G01X0016573Y0014457D01*
G01X0016573Y0014457D02*
G01X0016531Y0014558D01*
G01X0016531Y0014558D02*
G01X0016531Y0014613D01*
G01X0016531Y0014613D02*
G01X0016531Y0015159D01*
G01X0016531Y0015159D02*
G01X0016531Y0015213D01*
G01X0016531Y0015213D02*
G01X0016531Y0015268D01*
G01X0016531Y0015268D02*
G01X0016573Y0015369D01*
G01X0016573Y0015369D02*
G01X0016650Y0015447D01*
G01X0016650Y0015447D02*
G01X0016751Y0015489D01*
G01X0016751Y0015489D02*
G01X0016806Y0015489D01*
G01X0016806Y0015489D02*
G01X0016861Y0015489D01*
G01X0016861Y0015489D02*
G01X0017241Y0015489D01*
G01X0017241Y0015489D02*
G01X0017137Y0015604D01*
G01X0017137Y0015604D02*
G01X0017091Y0015654D01*
G01X0017091Y0015654D02*
G01X0017066Y0015724D01*
G01X0017066Y0015724D02*
G01X0016986Y0015724D01*
G01X0016986Y0015724D02*
G01X0016931Y0015724D01*
G01X0016931Y0015724D02*
G01X0016830Y0015765D01*
G01X0016830Y0015765D02*
G01X0016791Y0015804D01*
G01X0016791Y0015804D02*
G01X0016676Y0015920D01*
G01X0016676Y0015920D02*
G01X0016644Y0015843D01*
G01X0016644Y0015843D02*
G01X0016567Y0015766D01*
G01X0016567Y0015766D02*
G01X0016465Y0015724D01*
G01X0016465Y0015724D02*
G01X0016410Y0015724D01*
G01X0016410Y0015724D02*
G01X0015810Y0015724D01*
G01X0015810Y0015724D02*
G01X0015756Y0015724D01*
G01X0015756Y0015724D02*
G01X0015751Y0015725D01*
G01X0015751Y0015725D02*
G01X0016899Y0011790D01*
G01X0016899Y0011790D02*
G01X0016998Y0011890D01*
G01X0016998Y0011890D02*
G01X0017150Y0011953D01*
G01X0017150Y0011953D02*
G01X0017249Y0011953D01*
G01X0017249Y0011953D02*
G01X0017267Y0011956D01*
G01X0017267Y0011956D02*
G01X0017267Y0011956D01*
G01X0007998Y0009725D02*
G01X0007979Y0009728D01*
G01X0007979Y0009728D02*
G01X0007886Y0009728D01*
G01X0007886Y0009728D02*
G01X0007821Y0009755D01*
G01X0007821Y0009755D02*
G01X0005446Y0005524D01*
G01X0005446Y0005524D02*
G01X0005536Y0005487D01*
G01X0005536Y0005487D02*
G01X0005575Y0005448D01*
G01X0005575Y0005448D02*
G01X0005751Y0005272D01*
G01X0005751Y0005272D02*
G01X0005789Y0005233D01*
G01X0005789Y0005233D02*
G01X0005831Y0005132D01*
G01X0005831Y0005132D02*
G01X0005831Y0005077D01*
G01X0005831Y0005077D02*
G01X0005831Y0004922D01*
G01X0005831Y0004922D02*
G01X0006555Y0004554D01*
G01X0006555Y0004554D02*
G01X0006576Y0004543D01*
G01X0006576Y0004543D02*
G01X0006615Y0004514D01*
G01X0006615Y0004514D02*
G01X0006603Y0004756D01*
G01X0006603Y0004756D02*
G01X0006600Y0004763D01*
G01X0006600Y0004763D02*
G01X0006600Y0004824D01*
G01X0006600Y0004824D02*
G01X0006600Y0004899D01*
G01X0006600Y0004899D02*
G01X0006600Y0004959D01*
G01X0006600Y0004959D02*
G01X0006600Y0006473D01*
G01X0006600Y0006473D02*
G01X0006600Y0006520D01*
G01X0006600Y0006520D02*
G01X0006628Y0006608D01*
G01X0006628Y0006608D02*
G01X0006654Y0006646D01*
G01X0006654Y0006646D02*
G01X0008585Y0009465D01*
G01X0008585Y0009465D02*
G01X0008591Y0009548D01*
G01X0008591Y0009548D02*
G01X0008591Y0009611D01*
G01X0008591Y0009611D02*
G01X0008151Y0009759D01*
G01X0008151Y0009759D02*
G01X0008093Y0009746D01*
G01X0008093Y0009746D02*
G01X0008051Y0009728D01*
G01X0008051Y0009728D02*
G01X0008013Y0009728D01*
G01X0008013Y0009728D02*
G01X0007998Y0009725D01*
G01X0007998Y0009725D02*
G01X0007998Y0009725D01*
G01X0015535Y0016468D02*
G01X0015535Y0016544D01*
G01X0015535Y0016544D02*
G01X0015535Y0016599D01*
G01X0015535Y0016599D02*
G01X0015535Y0016654D01*
G01X0015535Y0016654D02*
G01X0015577Y0016755D01*
G01X0015577Y0016755D02*
G01X0015654Y0016833D01*
G01X0015654Y0016833D02*
G01X0015755Y0016875D01*
G01X0015755Y0016875D02*
G01X0015810Y0016875D01*
G01X0015810Y0016875D02*
G01X0015865Y0016875D01*
G01X0015865Y0016875D02*
G01X0016410Y0016875D01*
G01X0016410Y0016875D02*
G01X0016465Y0016875D01*
G01X0016465Y0016875D02*
G01X0016566Y0016833D01*
G01X0016566Y0016833D02*
G01X0016644Y0016756D01*
G01X0016644Y0016756D02*
G01X0016676Y0016679D01*
G01X0016676Y0016679D02*
G01X0016791Y0016794D01*
G01X0016791Y0016794D02*
G01X0016830Y0016833D01*
G01X0016830Y0016833D02*
G01X0016931Y0016875D01*
G01X0016931Y0016875D02*
G01X0016986Y0016875D01*
G01X0016986Y0016875D02*
G01X0017234Y0016875D01*
G01X0017234Y0016875D02*
G01X0017289Y0016875D01*
G01X0017289Y0016875D02*
G01X0017390Y0016833D01*
G01X0017390Y0016833D02*
G01X0017429Y0016794D01*
G01X0017429Y0016794D02*
G01X0017605Y0016618D01*
G01X0017605Y0016618D02*
G01X0017610Y0016613D01*
G01X0017610Y0016613D02*
G01X0017615Y0016618D01*
G01X0017615Y0016618D02*
G01X0017654Y0016657D01*
G01X0017654Y0016657D02*
G01X0017791Y0016794D01*
G01X0017791Y0016794D02*
G01X0017830Y0016833D01*
G01X0017830Y0016833D02*
G01X0017840Y0016837D01*
G01X0017840Y0016837D02*
G01X0017591Y0017172D01*
G01X0017591Y0017172D02*
G01X0017563Y0017144D01*
G01X0017563Y0017144D02*
G01X0017461Y0017102D01*
G01X0017461Y0017102D02*
G01X0017406Y0017102D01*
G01X0017406Y0017102D02*
G01X0016806Y0017102D01*
G01X0016806Y0017102D02*
G01X0016752Y0017102D01*
G01X0016752Y0017102D02*
G01X0016650Y0017143D01*
G01X0016650Y0017143D02*
G01X0016573Y0017221D01*
G01X0016573Y0017221D02*
G01X0016531Y0017322D01*
G01X0016531Y0017322D02*
G01X0016531Y0017377D01*
G01X0016531Y0017377D02*
G01X0016531Y0017922D01*
G01X0016531Y0017922D02*
G01X0016531Y0017977D01*
G01X0016531Y0017977D02*
G01X0016531Y0018032D01*
G01X0016531Y0018032D02*
G01X0016570Y0018128D01*
G01X0016570Y0018128D02*
G01X0014819Y0018921D01*
G01X0014819Y0018921D02*
G01X0015535Y0016468D01*
G01X0015535Y0016468D02*
G01X0015535Y0016468D01*
G01X0009464Y0008222D02*
G01X0009468Y0008257D01*
G01X0009468Y0008257D02*
G01X0009467Y0008292D01*
G01X0009467Y0008292D02*
G01X0009469Y0008295D01*
G01X0009469Y0008295D02*
G01X0009469Y0008322D01*
G01X0009469Y0008322D02*
G01X0009477Y0008342D01*
G01X0009477Y0008342D02*
G01X0009480Y0008377D01*
G01X0009480Y0008377D02*
G01X0009125Y0009136D01*
G01X0009125Y0009136D02*
G01X0009090Y0009120D01*
G01X0009090Y0009120D02*
G01X0007440Y0006712D01*
G01X0007440Y0006712D02*
G01X0008659Y0006712D01*
G01X0008659Y0006712D02*
G01X0009471Y0008136D01*
G01X0009471Y0008136D02*
G01X0009470Y0008154D01*
G01X0009470Y0008154D02*
G01X0009469Y0008158D01*
G01X0009469Y0008158D02*
G01X0009469Y0008208D01*
G01X0009469Y0008208D02*
G01X0009464Y0008222D01*
G01X0009464Y0008222D02*
G01X0009464Y0008222D01*
G01X0019505Y0007246D02*
G01X0019504Y0007242D01*
G01X0019504Y0007242D02*
G01X0019504Y0007213D01*
G01X0019504Y0007213D02*
G01X0019441Y0007061D01*
G01X0019441Y0007061D02*
G01X0019325Y0006945D01*
G01X0019325Y0006945D02*
G01X0019228Y0006905D01*
G01X0019228Y0006905D02*
G01X0020006Y0004046D01*
G01X0020006Y0004046D02*
G01X0020006Y0009399D01*
G01X0020006Y0009399D02*
G01X0019717Y0008042D01*
G01X0019717Y0008042D02*
G01X0019715Y0008031D01*
G01X0019715Y0008031D02*
G01X0019611Y0007618D01*
G01X0019611Y0007618D02*
G01X0019606Y0007598D01*
G01X0019606Y0007598D02*
G01X0019591Y0007561D01*
G01X0019591Y0007561D02*
G01X0019581Y0007543D01*
G01X0019581Y0007543D02*
G01X0019501Y0007402D01*
G01X0019501Y0007402D02*
G01X0019502Y0007383D01*
G01X0019502Y0007383D02*
G01X0019504Y0007378D01*
G01X0019504Y0007378D02*
G01X0019504Y0007302D01*
G01X0019504Y0007302D02*
G01X0019505Y0007246D01*
G01X0019505Y0007246D02*
G01X0019505Y0007246D01*
G01X0018742Y0008509D02*
G01X0018745Y0008511D01*
G01X0018745Y0008511D02*
G01X0018781Y0008545D01*
G01X0018781Y0008545D02*
G01X0018836Y0008600D01*
G01X0018836Y0008600D02*
G01X0018841Y0008602D01*
G01X0018841Y0008602D02*
G01X0018854Y0008615D01*
G01X0018854Y0008615D02*
G01X0019156Y0009716D01*
G01X0019156Y0009716D02*
G01X0019073Y0009716D01*
G01X0019073Y0009716D02*
G01X0019018Y0009716D01*
G01X0019018Y0009716D02*
G01X0018917Y0009758D01*
G01X0018917Y0009758D02*
G01X0018910Y0009764D01*
G01X0018910Y0009764D02*
G01X0018465Y0009615D01*
G01X0018465Y0009615D02*
G01X0018419Y0009596D01*
G01X0018419Y0009596D02*
G01X0018383Y0009596D01*
G01X0018383Y0009596D02*
G01X0018358Y0009596D01*
G01X0018358Y0009596D02*
G01X0018284Y0009596D01*
G01X0018284Y0009596D02*
G01X0018223Y0009596D01*
G01X0018223Y0009596D02*
G01X0018035Y0009596D01*
G01X0018035Y0009596D02*
G01X0017980Y0009596D01*
G01X0017980Y0009596D02*
G01X0017875Y0009635D01*
G01X0017875Y0009635D02*
G01X0017833Y0009672D01*
G01X0017833Y0009672D02*
G01X0017728Y0009765D01*
G01X0017728Y0009765D02*
G01X0017717Y0009738D01*
G01X0017717Y0009738D02*
G01X0017600Y0009622D01*
G01X0017600Y0009622D02*
G01X0017596Y0009620D01*
G01X0017596Y0009620D02*
G01X0018251Y0008219D01*
G01X0018251Y0008219D02*
G01X0018295Y0008189D01*
G01X0018295Y0008189D02*
G01X0018333Y0008173D01*
G01X0018333Y0008173D02*
G01X0018340Y0008166D01*
G01X0018340Y0008166D02*
G01X0018371Y0008196D01*
G01X0018371Y0008196D02*
G01X0018385Y0008211D01*
G01X0018385Y0008211D02*
G01X0018419Y0008236D01*
G01X0018419Y0008236D02*
G01X0018438Y0008247D01*
G01X0018438Y0008247D02*
G01X0018664Y0008373D01*
G01X0018664Y0008373D02*
G01X0018699Y0008433D01*
G01X0018699Y0008433D02*
G01X0018720Y0008484D01*
G01X0018720Y0008484D02*
G01X0018739Y0008503D01*
G01X0018739Y0008503D02*
G01X0018741Y0008507D01*
G01X0018741Y0008507D02*
G01X0018742Y0008508D01*
G01X0018742Y0008508D02*
G01X0018742Y0008509D01*
G01X0018742Y0008509D02*
G01X0018742Y0008509D01*
G01X0015290Y0012304D02*
G01X0015286Y0012322D01*
G01X0015286Y0012322D02*
G01X0015248Y0012414D01*
G01X0015248Y0012414D02*
G01X0015248Y0012578D01*
G01X0015248Y0012578D02*
G01X0015311Y0012730D01*
G01X0015311Y0012730D02*
G01X0015399Y0012818D01*
G01X0015399Y0012818D02*
G01X0014224Y0014798D01*
G01X0014224Y0014798D02*
G01X0015515Y0010575D01*
G01X0015515Y0010575D02*
G01X0015381Y0012177D01*
G01X0015381Y0012177D02*
G01X0015345Y0012228D01*
G01X0015345Y0012228D02*
G01X0015311Y0012262D01*
G01X0015311Y0012262D02*
G01X0015298Y0012294D01*
G01X0015298Y0012294D02*
G01X0015290Y0012304D01*
G01X0015290Y0012304D02*
G01X0015290Y0012304D01*
G01X0007286Y0003313D02*
G01X0007304Y0003305D01*
G01X0007304Y0003305D02*
G01X0007343Y0003267D01*
G01X0007343Y0003267D02*
G01X0007346Y0003263D01*
G01X0007346Y0003263D02*
G01X0008401Y0004586D01*
G01X0008401Y0004586D02*
G01X0007223Y0004586D01*
G01X0007223Y0004586D02*
G01X0007286Y0003313D01*
G01X0007286Y0003313D02*
G01X0007286Y0003313D01*
G01X0012593Y0018573D02*
G01X0012417Y0018398D01*
G01X0012417Y0018398D02*
G01X0012403Y0018384D01*
G01X0012403Y0018384D02*
G01X0012525Y0018262D01*
G01X0012525Y0018262D02*
G01X0012529Y0018257D01*
G01X0012529Y0018257D02*
G01X0012538Y0018248D01*
G01X0012538Y0018248D02*
G01X0012543Y0018243D01*
G01X0012543Y0018243D02*
G01X0013700Y0016869D01*
G01X0013700Y0016869D02*
G01X0013708Y0016859D01*
G01X0013708Y0016859D02*
G01X0013723Y0016839D01*
G01X0013723Y0016839D02*
G01X0013729Y0016828D01*
G01X0013729Y0016828D02*
G01X0013954Y0016449D01*
G01X0013954Y0016449D02*
G01X0013060Y0018428D01*
G01X0013060Y0018428D02*
G01X0012915Y0018428D01*
G01X0012915Y0018428D02*
G01X0012861Y0018428D01*
G01X0012861Y0018428D02*
G01X0012759Y0018470D01*
G01X0012759Y0018470D02*
G01X0012720Y0018509D01*
G01X0012720Y0018509D02*
G01X0012624Y0018605D01*
G01X0012624Y0018605D02*
G01X0012593Y0018573D01*
G01X0012593Y0018573D02*
G01X0012593Y0018573D01*
G01X0009524Y0003256D02*
G01X0009646Y0003378D01*
G01X0009646Y0003378D02*
G01X0009654Y0003386D01*
G01X0009654Y0003386D02*
G01X0009671Y0003401D01*
G01X0009671Y0003401D02*
G01X0009681Y0003408D01*
G01X0009681Y0003408D02*
G01X0011959Y0005086D01*
G01X0011959Y0005086D02*
G01X0009042Y0003467D01*
G01X0009042Y0003467D02*
G01X0009124Y0003467D01*
G01X0009124Y0003467D02*
G01X0009185Y0003467D01*
G01X0009185Y0003467D02*
G01X0009246Y0003468D01*
G01X0009246Y0003468D02*
G01X0009358Y0003421D01*
G01X0009358Y0003421D02*
G01X0009401Y0003378D01*
G01X0009401Y0003378D02*
G01X0009454Y0003325D01*
G01X0009454Y0003325D02*
G01X0009497Y0003282D01*
G01X0009497Y0003282D02*
G01X0009524Y0003256D01*
G01X0009524Y0003256D02*
G01X0009524Y0003256D01*
G01X0016282Y0003314D02*
G01X0016304Y0003305D01*
G01X0016304Y0003305D02*
G01X0016343Y0003267D01*
G01X0016343Y0003267D02*
G01X0016519Y0003091D01*
G01X0016519Y0003091D02*
G01X0016557Y0003052D01*
G01X0016557Y0003052D02*
G01X0016599Y0002951D01*
G01X0016599Y0002951D02*
G01X0016599Y0002896D01*
G01X0016599Y0002896D02*
G01X0016599Y0002774D01*
G01X0016599Y0002774D02*
G01X0017390Y0003080D01*
G01X0017390Y0003080D02*
G01X0016250Y0003803D01*
G01X0016250Y0003803D02*
G01X0016282Y0003314D01*
G01X0016282Y0003314D02*
G01X0016282Y0003314D01*
G01X0005976Y0003638D02*
G01X0005958Y0003663D01*
G01X0005958Y0003663D02*
G01X0005921Y0003699D01*
G01X0005921Y0003699D02*
G01X0005909Y0003728D01*
G01X0005909Y0003728D02*
G01X0005883Y0003764D01*
G01X0005883Y0003764D02*
G01X0005289Y0004010D01*
G01X0005289Y0004010D02*
G01X0006207Y0002628D01*
G01X0006207Y0002628D02*
G01X0006199Y0003520D01*
G01X0006199Y0003520D02*
G01X0006189Y0003520D01*
G01X0006189Y0003520D02*
G01X0006037Y0003583D01*
G01X0006037Y0003583D02*
G01X0005992Y0003629D01*
G01X0005992Y0003629D02*
G01X0005976Y0003638D01*
G01X0005976Y0003638D02*
G01X0005976Y0003638D01*
G01X0016535Y0018958D02*
G01X0016535Y0019304D01*
G01X0016535Y0019304D02*
G01X0016535Y0019359D01*
G01X0016535Y0019359D02*
G01X0016535Y0019414D01*
G01X0016535Y0019414D02*
G01X0016577Y0019515D01*
G01X0016577Y0019515D02*
G01X0016600Y0019539D01*
G01X0016600Y0019539D02*
G01X0015188Y0019568D01*
G01X0015188Y0019568D02*
G01X0016535Y0018958D01*
G01X0016535Y0018958D02*
G01X0016535Y0018958D01*
G01X0013672Y0018557D02*
G01X0014688Y0016308D01*
G01X0014688Y0016308D02*
G01X0014031Y0018428D01*
G01X0014031Y0018428D02*
G01X0013915Y0018428D01*
G01X0013915Y0018428D02*
G01X0013861Y0018428D01*
G01X0013861Y0018428D02*
G01X0013759Y0018470D01*
G01X0013759Y0018470D02*
G01X0013720Y0018509D01*
G01X0013720Y0018509D02*
G01X0013672Y0018557D01*
G01X0013672Y0018557D02*
G01X0013672Y0018557D01*
G01X0017717Y0007155D02*
G01X0017720Y0007196D01*
G01X0017720Y0007196D02*
G01X0017720Y0007259D01*
G01X0017720Y0007259D02*
G01X0017728Y0007278D01*
G01X0017728Y0007278D02*
G01X0017731Y0007311D01*
G01X0017731Y0007311D02*
G01X0017595Y0007597D01*
G01X0017595Y0007597D02*
G01X0017587Y0007613D01*
G01X0017587Y0007613D02*
G01X0017272Y0008389D01*
G01X0017272Y0008389D02*
G01X0017314Y0008204D01*
G01X0017314Y0008204D02*
G01X0017316Y0008192D01*
G01X0017316Y0008192D02*
G01X0017320Y0008168D01*
G01X0017320Y0008168D02*
G01X0017320Y0008156D01*
G01X0017320Y0008156D02*
G01X0017335Y0007906D01*
G01X0017335Y0007906D02*
G01X0017367Y0007859D01*
G01X0017367Y0007859D02*
G01X0017398Y0007829D01*
G01X0017398Y0007829D02*
G01X0017413Y0007792D01*
G01X0017413Y0007792D02*
G01X0017423Y0007777D01*
G01X0017423Y0007777D02*
G01X0017427Y0007757D01*
G01X0017427Y0007757D02*
G01X0017461Y0007677D01*
G01X0017461Y0007677D02*
G01X0017461Y0007512D01*
G01X0017461Y0007512D02*
G01X0017398Y0007360D01*
G01X0017398Y0007360D02*
G01X0017331Y0007294D01*
G01X0017331Y0007294D02*
G01X0017770Y0006975D01*
G01X0017770Y0006975D02*
G01X0017720Y0007095D01*
G01X0017720Y0007095D02*
G01X0017720Y0007143D01*
G01X0017720Y0007143D02*
G01X0017717Y0007155D01*
G01X0017717Y0007155D02*
G01X0017717Y0007155D01*
G01X0012568Y0004776D02*
G01X0012685Y0004776D01*
G01X0012685Y0004776D02*
G01X0012827Y0004716D01*
G01X0012827Y0004716D02*
G01X0013537Y0005490D01*
G01X0013537Y0005490D02*
G01X0012568Y0004776D01*
G01X0012568Y0004776D02*
G01X0012568Y0004776D01*
G01X0016147Y0005876D02*
G01X0016114Y0005876D01*
G01X0016114Y0005876D02*
G01X0016054Y0005876D01*
G01X0016054Y0005876D02*
G01X0015941Y0005922D01*
G01X0015941Y0005922D02*
G01X0015903Y0005960D01*
G01X0015903Y0005960D02*
G01X0015777Y0005496D01*
G01X0015777Y0005496D02*
G01X0015788Y0005500D01*
G01X0015788Y0005500D02*
G01X0015952Y0005500D01*
G01X0015952Y0005500D02*
G01X0016046Y0005461D01*
G01X0016046Y0005461D02*
G01X0016147Y0005876D01*
G01X0016147Y0005876D02*
G01X0016147Y0005876D01*
G01X0012789Y0016272D02*
G01X0012768Y0016293D01*
G01X0012768Y0016293D02*
G01X0012705Y0016445D01*
G01X0012705Y0016445D02*
G01X0012705Y0016610D01*
G01X0012705Y0016610D02*
G01X0012768Y0016762D01*
G01X0012768Y0016762D02*
G01X0012801Y0016795D01*
G01X0012801Y0016795D02*
G01X0011964Y0017789D01*
G01X0011964Y0017789D02*
G01X0011902Y0017851D01*
G01X0011902Y0017851D02*
G01X0009811Y0018315D01*
G01X0009811Y0018315D02*
G01X0009769Y0018325D01*
G01X0009769Y0018325D02*
G01X0009692Y0018367D01*
G01X0009692Y0018367D02*
G01X0009662Y0018398D01*
G01X0009662Y0018398D02*
G01X0009652Y0018408D01*
G01X0009652Y0018408D02*
G01X0009609Y0018450D01*
G01X0009609Y0018450D02*
G01X0009454Y0018605D01*
G01X0009454Y0018605D02*
G01X0009359Y0018509D01*
G01X0009359Y0018509D02*
G01X0009320Y0018470D01*
G01X0009320Y0018470D02*
G01X0009219Y0018428D01*
G01X0009219Y0018428D02*
G01X0009164Y0018428D01*
G01X0009164Y0018428D02*
G01X0008915Y0018428D01*
G01X0008915Y0018428D02*
G01X0008861Y0018428D01*
G01X0008861Y0018428D02*
G01X0008759Y0018470D01*
G01X0008759Y0018470D02*
G01X0008720Y0018509D01*
G01X0008720Y0018509D02*
G01X0008544Y0018685D01*
G01X0008544Y0018685D02*
G01X0008506Y0018723D01*
G01X0008506Y0018723D02*
G01X0008501Y0018718D01*
G01X0008501Y0018718D02*
G01X0008325Y0018542D01*
G01X0008325Y0018542D02*
G01X0008293Y0018510D01*
G01X0008293Y0018510D02*
G01X0008209Y0018475D01*
G01X0008209Y0018475D02*
G01X0008164Y0018475D01*
G01X0008164Y0018475D02*
G01X0007915Y0018475D01*
G01X0007915Y0018475D02*
G01X0007870Y0018475D01*
G01X0007870Y0018475D02*
G01X0007786Y0018510D01*
G01X0007786Y0018510D02*
G01X0007753Y0018542D01*
G01X0007753Y0018542D02*
G01X0007615Y0018681D01*
G01X0007615Y0018681D02*
G01X0007615Y0018649D01*
G01X0007615Y0018649D02*
G01X0007573Y0018548D01*
G01X0007573Y0018548D02*
G01X0007496Y0018470D01*
G01X0007496Y0018470D02*
G01X0007394Y0018428D01*
G01X0007394Y0018428D02*
G01X0007339Y0018428D01*
G01X0007339Y0018428D02*
G01X0006739Y0018428D01*
G01X0006739Y0018428D02*
G01X0006717Y0018428D01*
G01X0006717Y0018428D02*
G01X0006717Y0017474D01*
G01X0006717Y0017474D02*
G01X0006669Y0017295D01*
G01X0006669Y0017295D02*
G01X0006576Y0017134D01*
G01X0006576Y0017134D02*
G01X0006445Y0017002D01*
G01X0006445Y0017002D02*
G01X0006284Y0016909D01*
G01X0006284Y0016909D02*
G01X0006105Y0016861D01*
G01X0006105Y0016861D02*
G01X0005919Y0016861D01*
G01X0005919Y0016861D02*
G01X0005739Y0016909D01*
G01X0005739Y0016909D02*
G01X0005579Y0017002D01*
G01X0005579Y0017002D02*
G01X0005447Y0017134D01*
G01X0005447Y0017134D02*
G01X0005354Y0017295D01*
G01X0005354Y0017295D02*
G01X0005306Y0017474D01*
G01X0005306Y0017474D02*
G01X0005306Y0018447D01*
G01X0005306Y0018447D02*
G01X0005354Y0018627D01*
G01X0005354Y0018627D02*
G01X0005447Y0018788D01*
G01X0005447Y0018788D02*
G01X0005579Y0018919D01*
G01X0005579Y0018919D02*
G01X0005739Y0019012D01*
G01X0005739Y0019012D02*
G01X0005919Y0019060D01*
G01X0005919Y0019060D02*
G01X0006105Y0019060D01*
G01X0006105Y0019060D02*
G01X0006284Y0019012D01*
G01X0006284Y0019012D02*
G01X0006445Y0018919D01*
G01X0006445Y0018919D02*
G01X0006464Y0018900D01*
G01X0006464Y0018900D02*
G01X0006464Y0019249D01*
G01X0006464Y0019249D02*
G01X0006464Y0019304D01*
G01X0006464Y0019304D02*
G01X0006464Y0019359D01*
G01X0006464Y0019359D02*
G01X0006506Y0019460D01*
G01X0006506Y0019460D02*
G01X0006583Y0019538D01*
G01X0006583Y0019538D02*
G01X0006685Y0019580D01*
G01X0006685Y0019580D02*
G01X0006739Y0019580D01*
G01X0006739Y0019580D02*
G01X0006794Y0019580D01*
G01X0006794Y0019580D02*
G01X0007339Y0019580D01*
G01X0007339Y0019580D02*
G01X0007394Y0019580D01*
G01X0007394Y0019580D02*
G01X0007495Y0019538D01*
G01X0007495Y0019538D02*
G01X0007573Y0019460D01*
G01X0007573Y0019460D02*
G01X0007615Y0019359D01*
G01X0007615Y0019359D02*
G01X0007615Y0019327D01*
G01X0007615Y0019327D02*
G01X0007753Y0019466D01*
G01X0007753Y0019466D02*
G01X0007785Y0019498D01*
G01X0007785Y0019498D02*
G01X0007869Y0019533D01*
G01X0007869Y0019533D02*
G01X0007915Y0019533D01*
G01X0007915Y0019533D02*
G01X0008164Y0019533D01*
G01X0008164Y0019533D02*
G01X0008209Y0019533D01*
G01X0008209Y0019533D02*
G01X0008293Y0019498D01*
G01X0008293Y0019498D02*
G01X0008325Y0019466D01*
G01X0008325Y0019466D02*
G01X0008501Y0019290D01*
G01X0008501Y0019290D02*
G01X0008506Y0019285D01*
G01X0008506Y0019285D02*
G01X0008545Y0019323D01*
G01X0008545Y0019323D02*
G01X0008583Y0019362D01*
G01X0008583Y0019362D02*
G01X0008720Y0019499D01*
G01X0008720Y0019499D02*
G01X0008759Y0019537D01*
G01X0008759Y0019537D02*
G01X0008860Y0019579D01*
G01X0008860Y0019579D02*
G01X0008915Y0019580D01*
G01X0008915Y0019580D02*
G01X0009164Y0019580D01*
G01X0009164Y0019580D02*
G01X0009218Y0019580D01*
G01X0009218Y0019580D02*
G01X0009320Y0019538D01*
G01X0009320Y0019538D02*
G01X0009359Y0019499D01*
G01X0009359Y0019499D02*
G01X0009454Y0019403D01*
G01X0009454Y0019403D02*
G01X0009476Y0019425D01*
G01X0009476Y0019425D02*
G01X0009486Y0019434D01*
G01X0009486Y0019434D02*
G01X0009662Y0019610D01*
G01X0009662Y0019610D02*
G01X0009700Y0019649D01*
G01X0009700Y0019649D02*
G01X0009705Y0019653D01*
G01X0009705Y0019653D02*
G01X0009755Y0019674D01*
G01X0009755Y0019674D02*
G01X0009798Y0019694D01*
G01X0009798Y0019694D02*
G01X0009805Y0019695D01*
G01X0009805Y0019695D02*
G01X0009817Y0019700D01*
G01X0009817Y0019700D02*
G01X0009865Y0019700D01*
G01X0009865Y0019700D02*
G01X0012753Y0019939D01*
G01X0012753Y0019939D02*
G01X0012759Y0019940D01*
G01X0012759Y0019940D02*
G01X0012772Y0019940D01*
G01X0012772Y0019940D02*
G01X0012778Y0019940D01*
G01X0012778Y0019940D02*
G01X0012991Y0019940D01*
G01X0012991Y0019940D02*
G01X0013052Y0019940D01*
G01X0013052Y0019940D02*
G01X0014301Y0019940D01*
G01X0014301Y0019940D02*
G01X0014307Y0019940D01*
G01X0014307Y0019940D02*
G01X0014361Y0019940D01*
G01X0014361Y0019940D02*
G01X0014364Y0019939D01*
G01X0014364Y0019939D02*
G01X0017504Y0019875D01*
G01X0017504Y0019875D02*
G01X0017563Y0019874D01*
G01X0017563Y0019874D02*
G01X0017671Y0019828D01*
G01X0017671Y0019828D02*
G01X0017714Y0019786D01*
G01X0017714Y0019786D02*
G01X0017837Y0019662D01*
G01X0017837Y0019662D02*
G01X0017870Y0019629D01*
G01X0017870Y0019629D02*
G01X0017878Y0019613D01*
G01X0017878Y0019613D02*
G01X0017931Y0019635D01*
G01X0017931Y0019635D02*
G01X0017986Y0019635D01*
G01X0017986Y0019635D02*
G01X0018234Y0019635D01*
G01X0018234Y0019635D02*
G01X0018289Y0019635D01*
G01X0018289Y0019635D02*
G01X0018390Y0019593D01*
G01X0018390Y0019593D02*
G01X0018429Y0019554D01*
G01X0018429Y0019554D02*
G01X0018605Y0019378D01*
G01X0018605Y0019378D02*
G01X0018643Y0019340D01*
G01X0018643Y0019340D02*
G01X0018649Y0019345D01*
G01X0018649Y0019345D02*
G01X0018681Y0019377D01*
G01X0018681Y0019377D02*
G01X0018824Y0019521D01*
G01X0018824Y0019521D02*
G01X0018856Y0019553D01*
G01X0018856Y0019553D02*
G01X0018940Y0019588D01*
G01X0018940Y0019588D02*
G01X0018986Y0019588D01*
G01X0018986Y0019588D02*
G01X0019234Y0019588D01*
G01X0019234Y0019588D02*
G01X0019280Y0019588D01*
G01X0019280Y0019588D02*
G01X0019364Y0019553D01*
G01X0019364Y0019553D02*
G01X0019396Y0019521D01*
G01X0019396Y0019521D02*
G01X0019572Y0019345D01*
G01X0019572Y0019345D02*
G01X0019604Y0019313D01*
G01X0019604Y0019313D02*
G01X0019639Y0019229D01*
G01X0019639Y0019229D02*
G01X0019639Y0019183D01*
G01X0019639Y0019183D02*
G01X0019639Y0018935D01*
G01X0019639Y0018935D02*
G01X0019639Y0018889D01*
G01X0019639Y0018889D02*
G01X0019604Y0018805D01*
G01X0019604Y0018805D02*
G01X0019572Y0018773D01*
G01X0019572Y0018773D02*
G01X0019396Y0018597D01*
G01X0019396Y0018597D02*
G01X0019364Y0018565D01*
G01X0019364Y0018565D02*
G01X0019280Y0018530D01*
G01X0019280Y0018530D02*
G01X0019234Y0018530D01*
G01X0019234Y0018530D02*
G01X0018986Y0018530D01*
G01X0018986Y0018530D02*
G01X0018941Y0018530D01*
G01X0018941Y0018530D02*
G01X0018857Y0018565D01*
G01X0018857Y0018565D02*
G01X0018824Y0018597D01*
G01X0018824Y0018597D02*
G01X0018649Y0018773D01*
G01X0018649Y0018773D02*
G01X0018643Y0018778D01*
G01X0018643Y0018778D02*
G01X0018605Y0018740D01*
G01X0018605Y0018740D02*
G01X0018506Y0018641D01*
G01X0018506Y0018641D02*
G01X0018738Y0018057D01*
G01X0018738Y0018057D02*
G01X0018820Y0018139D01*
G01X0018820Y0018139D02*
G01X0018852Y0018171D01*
G01X0018852Y0018171D02*
G01X0018936Y0018206D01*
G01X0018936Y0018206D02*
G01X0018982Y0018206D01*
G01X0018982Y0018206D02*
G01X0019231Y0018206D01*
G01X0019231Y0018206D02*
G01X0019276Y0018206D01*
G01X0019276Y0018206D02*
G01X0019360Y0018171D01*
G01X0019360Y0018171D02*
G01X0019392Y0018139D01*
G01X0019392Y0018139D02*
G01X0019568Y0017963D01*
G01X0019568Y0017963D02*
G01X0019600Y0017931D01*
G01X0019600Y0017931D02*
G01X0019635Y0017847D01*
G01X0019635Y0017847D02*
G01X0019635Y0017801D01*
G01X0019635Y0017801D02*
G01X0019635Y0017553D01*
G01X0019635Y0017553D02*
G01X0019635Y0017508D01*
G01X0019635Y0017508D02*
G01X0019600Y0017424D01*
G01X0019600Y0017424D02*
G01X0019568Y0017391D01*
G01X0019568Y0017391D02*
G01X0019392Y0017215D01*
G01X0019392Y0017215D02*
G01X0019360Y0017183D01*
G01X0019360Y0017183D02*
G01X0019276Y0017148D01*
G01X0019276Y0017148D02*
G01X0019231Y0017148D01*
G01X0019231Y0017148D02*
G01X0018982Y0017148D01*
G01X0018982Y0017148D02*
G01X0018937Y0017148D01*
G01X0018937Y0017148D02*
G01X0018893Y0017166D01*
G01X0018893Y0017166D02*
G01X0018931Y0016875D01*
G01X0018931Y0016875D02*
G01X0018986Y0016875D01*
G01X0018986Y0016875D02*
G01X0019234Y0016875D01*
G01X0019234Y0016875D02*
G01X0019289Y0016875D01*
G01X0019289Y0016875D02*
G01X0019390Y0016833D01*
G01X0019390Y0016833D02*
G01X0019429Y0016794D01*
G01X0019429Y0016794D02*
G01X0019605Y0016618D01*
G01X0019605Y0016618D02*
G01X0019644Y0016580D01*
G01X0019644Y0016580D02*
G01X0019686Y0016479D01*
G01X0019686Y0016479D02*
G01X0019686Y0016423D01*
G01X0019686Y0016423D02*
G01X0019686Y0016175D01*
G01X0019686Y0016175D02*
G01X0019686Y0016120D01*
G01X0019686Y0016120D02*
G01X0019644Y0016019D01*
G01X0019644Y0016019D02*
G01X0019605Y0015980D01*
G01X0019605Y0015980D02*
G01X0019429Y0015804D01*
G01X0019429Y0015804D02*
G01X0019391Y0015766D01*
G01X0019391Y0015766D02*
G01X0019375Y0015759D01*
G01X0019375Y0015759D02*
G01X0019743Y0015255D01*
G01X0019743Y0015255D02*
G01X0019765Y0015226D01*
G01X0019765Y0015226D02*
G01X0019793Y0015157D01*
G01X0019793Y0015157D02*
G01X0019799Y0015121D01*
G01X0019799Y0015121D02*
G01X0020006Y0013749D01*
G01X0020006Y0013749D02*
G01X0020006Y0020006D01*
G01X0020006Y0020006D02*
G01X0000679Y0020006D01*
G01X0000679Y0020006D02*
G01X0000679Y0000679D01*
G01X0000679Y0000679D02*
G01X0020006Y0000679D01*
G01X0020006Y0000679D02*
G01X0020006Y0001060D01*
G01X0020006Y0001060D02*
G01X0019988Y0001042D01*
G01X0019988Y0001042D02*
G01X0019882Y0000996D01*
G01X0019882Y0000996D02*
G01X0019824Y0000994D01*
G01X0019824Y0000994D02*
G01X0012346Y0000715D01*
G01X0012346Y0000715D02*
G01X0012335Y0000715D01*
G01X0012335Y0000715D02*
G01X0012022Y0000715D01*
G01X0012022Y0000715D02*
G01X0011961Y0000715D01*
G01X0011961Y0000715D02*
G01X0008713Y0000715D01*
G01X0008713Y0000715D02*
G01X0008700Y0000715D01*
G01X0008700Y0000715D02*
G01X0008652Y0000715D01*
G01X0008652Y0000715D02*
G01X0008629Y0000725D01*
G01X0008629Y0000725D02*
G01X0007187Y0000960D01*
G01X0007187Y0000960D02*
G01X0007171Y0000963D01*
G01X0007171Y0000963D02*
G01X0006621Y0001083D01*
G01X0006621Y0001083D02*
G01X0006578Y0001092D01*
G01X0006578Y0001092D02*
G01X0006501Y0001134D01*
G01X0006501Y0001134D02*
G01X0006470Y0001165D01*
G01X0006470Y0001165D02*
G01X0006417Y0001218D01*
G01X0006417Y0001218D02*
G01X0006407Y0001229D01*
G01X0006407Y0001229D02*
G01X0006387Y0001252D01*
G01X0006387Y0001252D02*
G01X0006379Y0001265D01*
G01X0006379Y0001265D02*
G01X0004311Y0004377D01*
G01X0004311Y0004377D02*
G01X0004132Y0004377D01*
G01X0004132Y0004377D02*
G01X0004077Y0004377D01*
G01X0004077Y0004377D02*
G01X0003976Y0004419D01*
G01X0003976Y0004419D02*
G01X0003937Y0004458D01*
G01X0003937Y0004458D02*
G01X0003800Y0004595D01*
G01X0003800Y0004595D02*
G01X0003761Y0004634D01*
G01X0003761Y0004634D02*
G01X0003723Y0004672D01*
G01X0003723Y0004672D02*
G01X0003718Y0004667D01*
G01X0003718Y0004667D02*
G01X0003542Y0004491D01*
G01X0003542Y0004491D02*
G01X0003510Y0004459D01*
G01X0003510Y0004459D02*
G01X0003426Y0004424D01*
G01X0003426Y0004424D02*
G01X0003380Y0004424D01*
G01X0003380Y0004424D02*
G01X0003132Y0004424D01*
G01X0003132Y0004424D02*
G01X0003086Y0004424D01*
G01X0003086Y0004424D02*
G01X0003002Y0004459D01*
G01X0003002Y0004459D02*
G01X0002970Y0004491D01*
G01X0002970Y0004491D02*
G01X0002826Y0004635D01*
G01X0002826Y0004635D02*
G01X0002794Y0004667D01*
G01X0002794Y0004667D02*
G01X0002789Y0004672D01*
G01X0002789Y0004672D02*
G01X0002751Y0004634D01*
G01X0002751Y0004634D02*
G01X0002575Y0004458D01*
G01X0002575Y0004458D02*
G01X0002536Y0004419D01*
G01X0002536Y0004419D02*
G01X0002435Y0004377D01*
G01X0002435Y0004377D02*
G01X0002380Y0004377D01*
G01X0002380Y0004377D02*
G01X0002132Y0004377D01*
G01X0002132Y0004377D02*
G01X0002077Y0004377D01*
G01X0002077Y0004377D02*
G01X0001976Y0004419D01*
G01X0001976Y0004419D02*
G01X0001937Y0004458D01*
G01X0001937Y0004458D02*
G01X0001821Y0004573D01*
G01X0001821Y0004573D02*
G01X0001790Y0004497D01*
G01X0001790Y0004497D02*
G01X0001712Y0004419D01*
G01X0001712Y0004419D02*
G01X0001611Y0004377D01*
G01X0001611Y0004377D02*
G01X0001556Y0004377D01*
G01X0001556Y0004377D02*
G01X0001011Y0004377D01*
G01X0001011Y0004377D02*
G01X0000956Y0004377D01*
G01X0000956Y0004377D02*
G01X0000901Y0004377D01*
G01X0000901Y0004377D02*
G01X0000800Y0004419D01*
G01X0000800Y0004419D02*
G01X0000722Y0004497D01*
G01X0000722Y0004497D02*
G01X0000680Y0004598D01*
G01X0000680Y0004598D02*
G01X0000680Y0004653D01*
G01X0000680Y0004653D02*
G01X0000680Y0004708D01*
G01X0000680Y0004708D02*
G01X0000680Y0005253D01*
G01X0000680Y0005253D02*
G01X0000680Y0005307D01*
G01X0000680Y0005307D02*
G01X0000722Y0005409D01*
G01X0000722Y0005409D02*
G01X0000800Y0005486D01*
G01X0000800Y0005486D02*
G01X0000901Y0005528D01*
G01X0000901Y0005528D02*
G01X0000956Y0005528D01*
G01X0000956Y0005528D02*
G01X0001556Y0005528D01*
G01X0001556Y0005528D02*
G01X0001610Y0005528D01*
G01X0001610Y0005528D02*
G01X0001712Y0005487D01*
G01X0001712Y0005487D02*
G01X0001789Y0005409D01*
G01X0001789Y0005409D02*
G01X0001821Y0005332D01*
G01X0001821Y0005332D02*
G01X0001937Y0005448D01*
G01X0001937Y0005448D02*
G01X0001975Y0005486D01*
G01X0001975Y0005486D02*
G01X0002077Y0005528D01*
G01X0002077Y0005528D02*
G01X0002132Y0005528D01*
G01X0002132Y0005528D02*
G01X0002380Y0005528D01*
G01X0002380Y0005528D02*
G01X0002431Y0005528D01*
G01X0002431Y0005528D02*
G01X0007608Y0010706D01*
G01X0007608Y0010706D02*
G01X0007640Y0010738D01*
G01X0007640Y0010738D02*
G01X0007720Y0010781D01*
G01X0007720Y0010781D02*
G01X0007765Y0010790D01*
G01X0007765Y0010790D02*
G01X0013396Y0011911D01*
G01X0013396Y0011911D02*
G01X0013459Y0011969D01*
G01X0013459Y0011969D02*
G01X0013510Y0012020D01*
G01X0013510Y0012020D02*
G01X0013560Y0012041D01*
G01X0013560Y0012041D02*
G01X0010766Y0016931D01*
G01X0010766Y0016931D02*
G01X0010705Y0016966D01*
G01X0010705Y0016966D02*
G01X0010652Y0016988D01*
G01X0010652Y0016988D02*
G01X0010634Y0017006D01*
G01X0010634Y0017006D02*
G01X0010630Y0017008D01*
G01X0010630Y0017008D02*
G01X0010625Y0017015D01*
G01X0010625Y0017015D02*
G01X0010535Y0017104D01*
G01X0010535Y0017104D02*
G01X0010472Y0017256D01*
G01X0010472Y0017256D02*
G01X0010472Y0017421D01*
G01X0010472Y0017421D02*
G01X0010535Y0017573D01*
G01X0010535Y0017573D02*
G01X0010652Y0017689D01*
G01X0010652Y0017689D02*
G01X0010804Y0017752D01*
G01X0010804Y0017752D02*
G01X0010968Y0017752D01*
G01X0010968Y0017752D02*
G01X0011120Y0017689D01*
G01X0011120Y0017689D02*
G01X0011236Y0017573D01*
G01X0011236Y0017573D02*
G01X0011299Y0017421D01*
G01X0011299Y0017421D02*
G01X0011299Y0017394D01*
G01X0011299Y0017394D02*
G01X0011300Y0017391D01*
G01X0011300Y0017391D02*
G01X0011299Y0017334D01*
G01X0011299Y0017334D02*
G01X0011299Y0017256D01*
G01X0011299Y0017256D02*
G01X0011298Y0017252D01*
G01X0011298Y0017252D02*
G01X0011297Y0017235D01*
G01X0011297Y0017235D02*
G01X0013891Y0012694D01*
G01X0013891Y0012694D02*
G01X0012905Y0016161D01*
G01X0012905Y0016161D02*
G01X0012890Y0016175D01*
G01X0012890Y0016175D02*
G01X0012884Y0016177D01*
G01X0012884Y0016177D02*
G01X0012830Y0016231D01*
G01X0012830Y0016231D02*
G01X0012791Y0016268D01*
G01X0012791Y0016268D02*
G01X0012789Y0016272D01*
G01X0012789Y0016272D02*
G01X0012789Y0016272D01*
G01X0004138Y0014935D02*
G01X0004080Y0014948D01*
G01X0004080Y0014948D02*
G01X0003728Y0014832D01*
G01X0003728Y0014832D02*
G01X0003728Y0014575D01*
G01X0003728Y0014575D02*
G01X0003728Y0014520D01*
G01X0003728Y0014520D02*
G01X0003687Y0014419D01*
G01X0003687Y0014419D02*
G01X0003609Y0014341D01*
G01X0003609Y0014341D02*
G01X0003508Y0014299D01*
G01X0003508Y0014299D02*
G01X0003453Y0014299D01*
G01X0003453Y0014299D02*
G01X0002862Y0014299D01*
G01X0002862Y0014299D02*
G01X0002808Y0014299D01*
G01X0002808Y0014299D02*
G01X0002706Y0014341D01*
G01X0002706Y0014341D02*
G01X0002629Y0014419D01*
G01X0002629Y0014419D02*
G01X0002587Y0014520D01*
G01X0002587Y0014520D02*
G01X0002587Y0014575D01*
G01X0002587Y0014575D02*
G01X0002587Y0015111D01*
G01X0002587Y0015111D02*
G01X0002587Y0015165D01*
G01X0002587Y0015165D02*
G01X0002587Y0015220D01*
G01X0002587Y0015220D02*
G01X0002629Y0015321D01*
G01X0002629Y0015321D02*
G01X0002706Y0015399D01*
G01X0002706Y0015399D02*
G01X0002807Y0015441D01*
G01X0002807Y0015441D02*
G01X0002862Y0015441D01*
G01X0002862Y0015441D02*
G01X0002917Y0015441D01*
G01X0002917Y0015441D02*
G01X0003453Y0015441D01*
G01X0003453Y0015441D02*
G01X0003507Y0015441D01*
G01X0003507Y0015441D02*
G01X0003559Y0015420D01*
G01X0003559Y0015420D02*
G01X0003888Y0015529D01*
G01X0003888Y0015529D02*
G01X0003907Y0015551D01*
G01X0003907Y0015551D02*
G01X0003913Y0015565D01*
G01X0003913Y0015565D02*
G01X0003929Y0015581D01*
G01X0003929Y0015581D02*
G01X0003872Y0015638D01*
G01X0003872Y0015638D02*
G01X0003779Y0015799D01*
G01X0003779Y0015799D02*
G01X0003731Y0015978D01*
G01X0003731Y0015978D02*
G01X0003731Y0016164D01*
G01X0003731Y0016164D02*
G01X0003779Y0016343D01*
G01X0003779Y0016343D02*
G01X0003872Y0016504D01*
G01X0003872Y0016504D02*
G01X0004004Y0016635D01*
G01X0004004Y0016635D02*
G01X0004165Y0016728D01*
G01X0004165Y0016728D02*
G01X0004344Y0016776D01*
G01X0004344Y0016776D02*
G01X0005317Y0016776D01*
G01X0005317Y0016776D02*
G01X0005497Y0016728D01*
G01X0005497Y0016728D02*
G01X0005658Y0016635D01*
G01X0005658Y0016635D02*
G01X0005789Y0016504D01*
G01X0005789Y0016504D02*
G01X0005882Y0016343D01*
G01X0005882Y0016343D02*
G01X0005930Y0016164D01*
G01X0005930Y0016164D02*
G01X0005930Y0015978D01*
G01X0005930Y0015978D02*
G01X0005882Y0015799D01*
G01X0005882Y0015799D02*
G01X0005789Y0015638D01*
G01X0005789Y0015638D02*
G01X0005658Y0015506D01*
G01X0005658Y0015506D02*
G01X0005497Y0015413D01*
G01X0005497Y0015413D02*
G01X0005317Y0015365D01*
G01X0005317Y0015365D02*
G01X0004677Y0015365D01*
G01X0004677Y0015365D02*
G01X0004677Y0015248D01*
G01X0004677Y0015248D02*
G01X0004614Y0015097D01*
G01X0004614Y0015097D02*
G01X0004498Y0014980D01*
G01X0004498Y0014980D02*
G01X0004346Y0014917D01*
G01X0004346Y0014917D02*
G01X0004251Y0014917D01*
G01X0004251Y0014917D02*
G01X0004233Y0014914D01*
G01X0004233Y0014914D02*
G01X0004218Y0014917D01*
G01X0004218Y0014917D02*
G01X0004182Y0014917D01*
G01X0004182Y0014917D02*
G01X0004138Y0014935D01*
G01X0001484Y0015394D02*
G01X0001530Y0015394D01*
G01X0001530Y0015394D02*
G01X0002075Y0015394D01*
G01X0002075Y0015394D02*
G01X0002120Y0015394D01*
G01X0002120Y0015394D02*
G01X0002204Y0015359D01*
G01X0002204Y0015359D02*
G01X0002269Y0015295D01*
G01X0002269Y0015295D02*
G01X0002304Y0015211D01*
G01X0002304Y0015211D02*
G01X0002304Y0015165D01*
G01X0002304Y0015165D02*
G01X0002304Y0014575D01*
G01X0002304Y0014575D02*
G01X0002304Y0014529D01*
G01X0002304Y0014529D02*
G01X0002269Y0014445D01*
G01X0002269Y0014445D02*
G01X0002205Y0014381D01*
G01X0002205Y0014381D02*
G01X0002121Y0014346D01*
G01X0002121Y0014346D02*
G01X0002075Y0014346D01*
G01X0002075Y0014346D02*
G01X0001484Y0014346D01*
G01X0001484Y0014346D02*
G01X0001439Y0014346D01*
G01X0001439Y0014346D02*
G01X0001355Y0014381D01*
G01X0001355Y0014381D02*
G01X0001290Y0014445D01*
G01X0001290Y0014445D02*
G01X0001256Y0014529D01*
G01X0001256Y0014529D02*
G01X0001256Y0014575D01*
G01X0001256Y0014575D02*
G01X0001256Y0015120D01*
G01X0001256Y0015120D02*
G01X0001256Y0015165D01*
G01X0001256Y0015165D02*
G01X0001256Y0015211D01*
G01X0001256Y0015211D02*
G01X0001290Y0015295D01*
G01X0001290Y0015295D02*
G01X0001355Y0015359D01*
G01X0001355Y0015359D02*
G01X0001439Y0015394D01*
G01X0001439Y0015394D02*
G01X0001484Y0015394D01*
G01X0006767Y0017686D02*
G01X0006767Y0017731D01*
G01X0006767Y0017731D02*
G01X0006802Y0017815D01*
G01X0006802Y0017815D02*
G01X0006866Y0017880D01*
G01X0006866Y0017880D02*
G01X0006950Y0017915D01*
G01X0006950Y0017915D02*
G01X0006996Y0017915D01*
G01X0006996Y0017915D02*
G01X0008965Y0017915D01*
G01X0008965Y0017915D02*
G01X0009010Y0017915D01*
G01X0009010Y0017915D02*
G01X0009094Y0017880D01*
G01X0009094Y0017880D02*
G01X0009158Y0017816D01*
G01X0009158Y0017816D02*
G01X0009193Y0017732D01*
G01X0009193Y0017732D02*
G01X0009193Y0017686D01*
G01X0009193Y0017686D02*
G01X0009193Y0016111D01*
G01X0009193Y0016111D02*
G01X0009193Y0016066D01*
G01X0009193Y0016066D02*
G01X0009159Y0015982D01*
G01X0009159Y0015982D02*
G01X0009094Y0015917D01*
G01X0009094Y0015917D02*
G01X0009010Y0015883D01*
G01X0009010Y0015883D02*
G01X0008965Y0015882D01*
G01X0008965Y0015882D02*
G01X0007042Y0015882D01*
G01X0007042Y0015882D02*
G01X0006996Y0015882D01*
G01X0006996Y0015882D02*
G01X0006951Y0015882D01*
G01X0006951Y0015882D02*
G01X0006866Y0015917D01*
G01X0006866Y0015917D02*
G01X0006802Y0015982D01*
G01X0006802Y0015982D02*
G01X0006767Y0016066D01*
G01X0006767Y0016066D02*
G01X0006767Y0016111D01*
G01X0006767Y0016111D02*
G01X0006767Y0016157D01*
G01X0006767Y0016157D02*
G01X0006767Y0017686D01*
G01X0004308Y0017436D02*
G01X0004208Y0017194D01*
G01X0004208Y0017194D02*
G01X0004023Y0017008D01*
G01X0004023Y0017008D02*
G01X0003781Y0016908D01*
G01X0003781Y0016908D02*
G01X0003519Y0016908D01*
G01X0003519Y0016908D02*
G01X0003276Y0017008D01*
G01X0003276Y0017008D02*
G01X0003091Y0017194D01*
G01X0003091Y0017194D02*
G01X0002991Y0017436D01*
G01X0002991Y0017436D02*
G01X0002991Y0018485D01*
G01X0002991Y0018485D02*
G01X0003091Y0018727D01*
G01X0003091Y0018727D02*
G01X0003276Y0018913D01*
G01X0003276Y0018913D02*
G01X0003519Y0019013D01*
G01X0003519Y0019013D02*
G01X0003781Y0019013D01*
G01X0003781Y0019013D02*
G01X0004023Y0018913D01*
G01X0004023Y0018913D02*
G01X0004208Y0018727D01*
G01X0004208Y0018727D02*
G01X0004308Y0018485D01*
G01X0004308Y0018485D02*
G01X0004308Y0017436D01*
G01X0013309Y0006838D02*
G01X0013229Y0006867D01*
G01X0013229Y0006867D02*
G01X0011887Y0006596D01*
G01X0011887Y0006596D02*
G01X0009057Y0004400D01*
G01X0009057Y0004400D02*
G01X0008949Y0004292D01*
G01X0008949Y0004292D02*
G01X0008695Y0003974D01*
G01X0008695Y0003974D02*
G01X0013209Y0006479D01*
G01X0013209Y0006479D02*
G01X0013243Y0006538D01*
G01X0013243Y0006538D02*
G01X0013264Y0006589D01*
G01X0013264Y0006589D02*
G01X0013283Y0006608D01*
G01X0013283Y0006608D02*
G01X0013287Y0006614D01*
G01X0013287Y0006614D02*
G01X0013297Y0006622D01*
G01X0013297Y0006622D02*
G01X0013380Y0006705D01*
G01X0013380Y0006705D02*
G01X0013532Y0006768D01*
G01X0013532Y0006768D02*
G01X0013696Y0006768D01*
G01X0013696Y0006768D02*
G01X0013848Y0006705D01*
G01X0013848Y0006705D02*
G01X0013965Y0006589D01*
G01X0013965Y0006589D02*
G01X0014028Y0006437D01*
G01X0014028Y0006437D02*
G01X0014028Y0006272D01*
G01X0014028Y0006272D02*
G01X0013965Y0006122D01*
G01X0013965Y0006122D02*
G01X0014016Y0006000D01*
G01X0014016Y0006000D02*
G01X0014016Y0005938D01*
G01X0014016Y0005938D02*
G01X0014056Y0005958D01*
G01X0014056Y0005958D02*
G01X0014088Y0006010D01*
G01X0014088Y0006010D02*
G01X0014106Y0006053D01*
G01X0014106Y0006053D02*
G01X0014132Y0006079D01*
G01X0014132Y0006079D02*
G01X0014139Y0006091D01*
G01X0014139Y0006091D02*
G01X0014155Y0006102D01*
G01X0014155Y0006102D02*
G01X0014223Y0006169D01*
G01X0014223Y0006169D02*
G01X0014374Y0006232D01*
G01X0014374Y0006232D02*
G01X0014446Y0006232D01*
G01X0014446Y0006232D02*
G01X0014500Y0006628D01*
G01X0014500Y0006628D02*
G01X0014494Y0006642D01*
G01X0014494Y0006642D02*
G01X0014492Y0006644D01*
G01X0014492Y0006644D02*
G01X0014462Y0006717D01*
G01X0014462Y0006717D02*
G01X0014439Y0006771D01*
G01X0014439Y0006771D02*
G01X0014439Y0006773D01*
G01X0014439Y0006773D02*
G01X0014429Y0006796D01*
G01X0014429Y0006796D02*
G01X0014429Y0006960D01*
G01X0014429Y0006960D02*
G01X0014492Y0007112D01*
G01X0014492Y0007112D02*
G01X0014608Y0007228D01*
G01X0014608Y0007228D02*
G01X0014675Y0007256D01*
G01X0014675Y0007256D02*
G01X0014309Y0010731D01*
G01X0014309Y0010731D02*
G01X0013974Y0011317D01*
G01X0013974Y0011317D02*
G01X0013826Y0011256D01*
G01X0013826Y0011256D02*
G01X0013662Y0011256D01*
G01X0013662Y0011256D02*
G01X0013596Y0011283D01*
G01X0013596Y0011283D02*
G01X0013515Y0011312D01*
G01X0013515Y0011312D02*
G01X0011937Y0010998D01*
G01X0011937Y0010998D02*
G01X0012032Y0010903D01*
G01X0012032Y0010903D02*
G01X0012094Y0010752D01*
G01X0012094Y0010752D02*
G01X0012094Y0010587D01*
G01X0012094Y0010587D02*
G01X0012032Y0010435D01*
G01X0012032Y0010435D02*
G01X0011915Y0010319D01*
G01X0011915Y0010319D02*
G01X0011763Y0010256D01*
G01X0011763Y0010256D02*
G01X0011731Y0010256D01*
G01X0011731Y0010256D02*
G01X0011706Y0010179D01*
G01X0011706Y0010179D02*
G01X0011905Y0009315D01*
G01X0011905Y0009315D02*
G01X0011964Y0009256D01*
G01X0011964Y0009256D02*
G01X0013552Y0007985D01*
G01X0013552Y0007985D02*
G01X0013619Y0007976D01*
G01X0013619Y0007976D02*
G01X0013673Y0007976D01*
G01X0013673Y0007976D02*
G01X0013700Y0007965D01*
G01X0013700Y0007965D02*
G01X0013707Y0007964D01*
G01X0013707Y0007964D02*
G01X0013719Y0007957D01*
G01X0013719Y0007957D02*
G01X0013825Y0007913D01*
G01X0013825Y0007913D02*
G01X0013942Y0007796D01*
G01X0013942Y0007796D02*
G01X0014004Y0007644D01*
G01X0014004Y0007644D02*
G01X0014004Y0007480D01*
G01X0014004Y0007480D02*
G01X0013942Y0007328D01*
G01X0013942Y0007328D02*
G01X0013870Y0007257D01*
G01X0013870Y0007257D02*
G01X0013870Y0007142D01*
G01X0013870Y0007142D02*
G01X0013807Y0006990D01*
G01X0013807Y0006990D02*
G01X0013691Y0006874D01*
G01X0013691Y0006874D02*
G01X0013539Y0006811D01*
G01X0013539Y0006811D02*
G01X0013374Y0006811D01*
G01X0013374Y0006811D02*
G01X0013309Y0006838D01*
G01X0013309Y0006838D02*
G01X0013309Y0006838D01*
G01X0017002Y0004150D02*
G01X0017873Y0003723D01*
G01X0017873Y0003723D02*
G01X0017896Y0003712D01*
G01X0017896Y0003712D02*
G01X0017936Y0003682D01*
G01X0017936Y0003682D02*
G01X0017954Y0003665D01*
G01X0017954Y0003665D02*
G01X0017985Y0003634D01*
G01X0017985Y0003634D02*
G01X0018291Y0003634D01*
G01X0018291Y0003634D02*
G01X0018346Y0003634D01*
G01X0018346Y0003634D02*
G01X0018447Y0003592D01*
G01X0018447Y0003592D02*
G01X0018525Y0003515D01*
G01X0018525Y0003515D02*
G01X0018567Y0003413D01*
G01X0018567Y0003413D02*
G01X0018567Y0003358D01*
G01X0018567Y0003358D02*
G01X0018567Y0002768D01*
G01X0018567Y0002768D02*
G01X0018567Y0002713D01*
G01X0018567Y0002713D02*
G01X0018525Y0002612D01*
G01X0018525Y0002612D02*
G01X0018448Y0002534D01*
G01X0018448Y0002534D02*
G01X0018346Y0002492D01*
G01X0018346Y0002492D02*
G01X0018291Y0002492D01*
G01X0018291Y0002492D02*
G01X0017756Y0002492D01*
G01X0017756Y0002492D02*
G01X0017701Y0002492D01*
G01X0017701Y0002492D02*
G01X0017646Y0002492D01*
G01X0017646Y0002492D02*
G01X0017607Y0002508D01*
G01X0017607Y0002508D02*
G01X0016473Y0002070D01*
G01X0016473Y0002070D02*
G01X0016485Y0002058D01*
G01X0016485Y0002058D02*
G01X0016517Y0002026D01*
G01X0016517Y0002026D02*
G01X0016552Y0001942D01*
G01X0016552Y0001942D02*
G01X0016552Y0001896D01*
G01X0016552Y0001896D02*
G01X0016552Y0001647D01*
G01X0016552Y0001647D02*
G01X0016552Y0001602D01*
G01X0016552Y0001602D02*
G01X0016518Y0001518D01*
G01X0016518Y0001518D02*
G01X0016485Y0001486D01*
G01X0016485Y0001486D02*
G01X0016481Y0001481D01*
G01X0016481Y0001481D02*
G01X0017472Y0001518D01*
G01X0017472Y0001518D02*
G01X0017472Y0001980D01*
G01X0017472Y0001980D02*
G01X0017472Y0002026D01*
G01X0017472Y0002026D02*
G01X0017507Y0002110D01*
G01X0017507Y0002110D02*
G01X0017571Y0002174D01*
G01X0017571Y0002174D02*
G01X0017655Y0002209D01*
G01X0017655Y0002209D02*
G01X0017701Y0002209D01*
G01X0017701Y0002209D02*
G01X0018291Y0002209D01*
G01X0018291Y0002209D02*
G01X0018337Y0002209D01*
G01X0018337Y0002209D02*
G01X0018421Y0002174D01*
G01X0018421Y0002174D02*
G01X0018485Y0002110D01*
G01X0018485Y0002110D02*
G01X0018520Y0002026D01*
G01X0018520Y0002026D02*
G01X0018520Y0001980D01*
G01X0018520Y0001980D02*
G01X0018520Y0001557D01*
G01X0018520Y0001557D02*
G01X0018956Y0001573D01*
G01X0018956Y0001573D02*
G01X0018956Y0001980D01*
G01X0018956Y0001980D02*
G01X0018956Y0002026D01*
G01X0018956Y0002026D02*
G01X0018991Y0002110D01*
G01X0018991Y0002110D02*
G01X0019055Y0002174D01*
G01X0019055Y0002174D02*
G01X0019139Y0002209D01*
G01X0019139Y0002209D02*
G01X0019185Y0002209D01*
G01X0019185Y0002209D02*
G01X0019560Y0002209D01*
G01X0019560Y0002209D02*
G01X0019560Y0002492D01*
G01X0019560Y0002492D02*
G01X0019240Y0002492D01*
G01X0019240Y0002492D02*
G01X0019185Y0002492D01*
G01X0019185Y0002492D02*
G01X0019130Y0002492D01*
G01X0019130Y0002492D02*
G01X0019029Y0002534D01*
G01X0019029Y0002534D02*
G01X0018951Y0002612D01*
G01X0018951Y0002612D02*
G01X0018909Y0002713D01*
G01X0018909Y0002713D02*
G01X0018909Y0002768D01*
G01X0018909Y0002768D02*
G01X0018909Y0002823D01*
G01X0018909Y0002823D02*
G01X0018909Y0003358D01*
G01X0018909Y0003358D02*
G01X0018909Y0003413D01*
G01X0018909Y0003413D02*
G01X0018951Y0003514D01*
G01X0018951Y0003514D02*
G01X0018959Y0003522D01*
G01X0018959Y0003522D02*
G01X0018926Y0004054D01*
G01X0018926Y0004054D02*
G01X0018893Y0004101D01*
G01X0018893Y0004101D02*
G01X0018862Y0004132D01*
G01X0018862Y0004132D02*
G01X0018847Y0004168D01*
G01X0018847Y0004168D02*
G01X0018837Y0004182D01*
G01X0018837Y0004182D02*
G01X0018833Y0004202D01*
G01X0018833Y0004202D02*
G01X0018799Y0004284D01*
G01X0018799Y0004284D02*
G01X0018799Y0004448D01*
G01X0018799Y0004448D02*
G01X0018862Y0004600D01*
G01X0018862Y0004600D02*
G01X0018978Y0004717D01*
G01X0018978Y0004717D02*
G01X0019130Y0004780D01*
G01X0019130Y0004780D02*
G01X0019173Y0004780D01*
G01X0019173Y0004780D02*
G01X0018969Y0005528D01*
G01X0018969Y0005528D02*
G01X0018834Y0005472D01*
G01X0018834Y0005472D02*
G01X0018670Y0005472D01*
G01X0018670Y0005472D02*
G01X0018518Y0005535D01*
G01X0018518Y0005535D02*
G01X0018402Y0005652D01*
G01X0018402Y0005652D02*
G01X0018371Y0005726D01*
G01X0018371Y0005726D02*
G01X0018334Y0005811D01*
G01X0018334Y0005811D02*
G01X0016905Y0006848D01*
G01X0016905Y0006848D02*
G01X0016828Y0006854D01*
G01X0016828Y0006854D02*
G01X0016816Y0006854D01*
G01X0016816Y0006854D02*
G01X0016858Y0006605D01*
G01X0016858Y0006605D02*
G01X0016860Y0006592D01*
G01X0016860Y0006592D02*
G01X0016862Y0006566D01*
G01X0016862Y0006566D02*
G01X0016862Y0006554D01*
G01X0016862Y0006554D02*
G01X0016862Y0006265D01*
G01X0016862Y0006265D02*
G01X0016862Y0006247D01*
G01X0016862Y0006247D02*
G01X0016858Y0006210D01*
G01X0016858Y0006210D02*
G01X0016854Y0006193D01*
G01X0016854Y0006193D02*
G01X0016446Y0004522D01*
G01X0016446Y0004522D02*
G01X0016445Y0004518D01*
G01X0016445Y0004518D02*
G01X0016447Y0004515D01*
G01X0016447Y0004515D02*
G01X0016464Y0004504D01*
G01X0016464Y0004504D02*
G01X0016473Y0004490D01*
G01X0016473Y0004490D02*
G01X0016500Y0004463D01*
G01X0016500Y0004463D02*
G01X0016517Y0004421D01*
G01X0016517Y0004421D02*
G01X0016548Y0004373D01*
G01X0016548Y0004373D02*
G01X0016909Y0004196D01*
G01X0016909Y0004196D02*
G01X0016909Y0004176D01*
G01X0016909Y0004176D02*
G01X0016944Y0004142D01*
G01X0016944Y0004142D02*
G01X0016993Y0004142D01*
G01X0016993Y0004142D02*
G01X0017002Y0004150D01*
G01X0017002Y0004150D02*
G01X0017002Y0004150D01*
G01X0006606Y0008840D02*
G01X0003248Y0005481D01*
G01X0003248Y0005481D02*
G01X0003380Y0005481D01*
G01X0003380Y0005481D02*
G01X0003425Y0005482D01*
G01X0003425Y0005482D02*
G01X0003510Y0005447D01*
G01X0003510Y0005447D02*
G01X0003542Y0005414D01*
G01X0003542Y0005414D02*
G01X0003718Y0005239D01*
G01X0003718Y0005239D02*
G01X0003723Y0005234D01*
G01X0003723Y0005234D02*
G01X0003761Y0005272D01*
G01X0003761Y0005272D02*
G01X0003937Y0005448D01*
G01X0003937Y0005448D02*
G01X0003975Y0005486D01*
G01X0003975Y0005486D02*
G01X0004077Y0005528D01*
G01X0004077Y0005528D02*
G01X0004132Y0005528D01*
G01X0004132Y0005528D02*
G01X0004380Y0005528D01*
G01X0004380Y0005528D02*
G01X0004435Y0005528D01*
G01X0004435Y0005528D02*
G01X0004536Y0005487D01*
G01X0004536Y0005487D02*
G01X0004575Y0005448D01*
G01X0004575Y0005448D02*
G01X0004657Y0005366D01*
G01X0004657Y0005366D02*
G01X0006606Y0008840D01*
G01X0006606Y0008840D02*
G01X0006606Y0008840D01*
G01X0018488Y0014547D02*
G01X0018392Y0014452D01*
G01X0018392Y0014452D02*
G01X0018360Y0014420D01*
G01X0018360Y0014420D02*
G01X0018276Y0014385D01*
G01X0018276Y0014385D02*
G01X0018231Y0014385D01*
G01X0018231Y0014385D02*
G01X0018200Y0014385D01*
G01X0018200Y0014385D02*
G01X0018424Y0013847D01*
G01X0018424Y0013847D02*
G01X0018477Y0013825D01*
G01X0018477Y0013825D02*
G01X0018516Y0013786D01*
G01X0018516Y0013786D02*
G01X0018668Y0013634D01*
G01X0018668Y0013634D02*
G01X0018668Y0013637D01*
G01X0018668Y0013637D02*
G01X0018703Y0013721D01*
G01X0018703Y0013721D02*
G01X0018767Y0013785D01*
G01X0018767Y0013785D02*
G01X0018851Y0013820D01*
G01X0018851Y0013820D02*
G01X0018897Y0013820D01*
G01X0018897Y0013820D02*
G01X0018942Y0013820D01*
G01X0018942Y0013820D02*
G01X0019052Y0013820D01*
G01X0019052Y0013820D02*
G01X0018488Y0014547D01*
G01X0018488Y0014547D02*
G01X0018488Y0014547D01*
G01X0018323Y0015422D02*
G01X0018285Y0015724D01*
G01X0018285Y0015724D02*
G01X0018234Y0015724D01*
G01X0018234Y0015724D02*
G01X0017986Y0015724D01*
G01X0017986Y0015724D02*
G01X0017931Y0015724D01*
G01X0017931Y0015724D02*
G01X0017830Y0015765D01*
G01X0017830Y0015765D02*
G01X0017791Y0015804D01*
G01X0017791Y0015804D02*
G01X0017615Y0015980D01*
G01X0017615Y0015980D02*
G01X0017577Y0016018D01*
G01X0017577Y0016018D02*
G01X0017572Y0016013D01*
G01X0017572Y0016013D02*
G01X0017400Y0015841D01*
G01X0017400Y0015841D02*
G01X0017739Y0015466D01*
G01X0017739Y0015466D02*
G01X0017758Y0015445D01*
G01X0017758Y0015445D02*
G01X0017788Y0015397D01*
G01X0017788Y0015397D02*
G01X0017799Y0015371D01*
G01X0017799Y0015371D02*
G01X0017804Y0015358D01*
G01X0017804Y0015358D02*
G01X0017820Y0015375D01*
G01X0017820Y0015375D02*
G01X0017852Y0015407D01*
G01X0017852Y0015407D02*
G01X0017936Y0015442D01*
G01X0017936Y0015442D02*
G01X0017982Y0015442D01*
G01X0017982Y0015442D02*
G01X0018231Y0015442D01*
G01X0018231Y0015442D02*
G01X0018276Y0015442D01*
G01X0018276Y0015442D02*
G01X0018323Y0015422D01*
G01X0018323Y0015422D02*
G01X0018323Y0015422D01*
G54D17*
G01X0008039Y0018704D02*
G01X0008039Y0018475D01*
G01X0008039Y0019304D02*
G01X0008039Y0019533D01*
G01X0001780Y0014870D02*
G01X0002237Y0015327D01*
G01X0001780Y0014870D02*
G01X0002237Y0014413D01*
G01X0001780Y0014870D02*
G01X0001323Y0014413D01*
G01X0001780Y0014870D02*
G01X0001323Y0015327D01*
G01X0007783Y0016899D02*
G01X0006834Y0015949D01*
G01X0007783Y0016899D02*
G01X0006834Y0017848D01*
G01X0008177Y0016899D02*
G01X0009126Y0017848D01*
G01X0008177Y0016899D02*
G01X0009126Y0015949D01*
G01X0019110Y0018759D02*
G01X0019110Y0018530D01*
G01X0019410Y0019059D02*
G01X0019639Y0019059D01*
G01X0019110Y0019359D02*
G01X0019110Y0019588D01*
G01X0019106Y0017377D02*
G01X0019106Y0017148D01*
G01X0019406Y0017677D02*
G01X0019635Y0017677D01*
G01X0019106Y0017977D02*
G01X0019106Y0018206D01*
G01X0003256Y0004653D02*
G01X0003256Y0004424D01*
G01X0003650Y0017567D02*
G01X0004115Y0017101D01*
G01X0003650Y0017567D02*
G01X0003184Y0017101D01*
G01X0003650Y0018354D02*
G01X0003184Y0018820D01*
G01X0003650Y0018354D02*
G01X0004115Y0018820D01*
G01X0016324Y0001772D02*
G01X0016552Y0001772D01*
G01X0019480Y0001685D02*
G01X0019023Y0002142D01*
G01X0017996Y0001685D02*
G01X0018453Y0002142D01*
G01X0017996Y0001685D02*
G01X0017539Y0002142D01*
G01X0003256Y0005253D02*
G01X0003256Y0005481D01*
G01X0019197Y0013291D02*
G01X0018735Y0013753D01*
G01X0018106Y0015213D02*
G01X0018106Y0015442D01*
G54D18*
G01X0017281Y0016129D02*
G01X0017110Y0016299D01*
G01X0017322Y0016087D02*
G01X0017281Y0016129D01*
G01X0017484Y0015925D02*
G01X0017322Y0016087D01*
G54D19*
G01X0011850Y0006654D03*
G01X0016969Y0004201D03*
G01X0019070Y0008250D03*
G01X0014378Y0010732D03*
G01X0003612Y0011371D03*
G01X0003988Y0011371D03*
G01X0003612Y0010996D03*
G01X0003988Y0010996D03*
G01X0003612Y0010620D03*
G01X0003988Y0010620D03*
G01X0003612Y0010244D03*
G01X0003988Y0010244D03*
G01X0003612Y0009869D03*
G01X0003988Y0009869D03*
G01X0010677Y0014906D03*
G01X0011854Y0009256D03*
G01X0014575Y0004862D03*
G01X0009882Y0008240D03*
G01X0004264Y0015331D03*
G01X0019213Y0004366D03*
G01X0016846Y0007268D03*
G01X0018752Y0005886D03*
G01X0015217Y0009665D03*
G01X0009004Y0009535D03*
G01X0016232Y0008476D03*
G01X0018098Y0007823D03*
G01X0019087Y0007787D03*
G01X0017047Y0007594D03*
G01X0018134Y0007177D03*
G01X0015406Y0004768D03*
G01X0015661Y0012496D03*
G01X0015772Y0006642D03*
G01X0014193Y0005409D03*
G01X0013602Y0005917D03*
G01X0013591Y0007562D03*
G01X0011343Y0010398D03*
G01X0019091Y0007295D03*
G01X0016209Y0006409D03*
G01X0012602Y0004362D03*
G01X0015921Y0004689D03*
G01X0015870Y0005087D03*
G01X0016787Y0008043D03*
G01X0013614Y0006354D03*
G01X0007969Y0010142D03*
G01X0016150Y0004228D03*
G01X0011681Y0010669D03*
G01X0010969Y0003272D03*
G01X0014457Y0005819D03*
G01X0014843Y0006878D03*
G01X0015469Y0007283D03*
G01X0015843Y0007484D03*
G01X0017406Y0010457D03*
G01X0017386Y0011079D03*
G01X0017366Y0009972D03*
G01X0018681Y0007752D03*
G01X0013744Y0011669D03*
G01X0013457Y0007224D03*
G01X0017232Y0011539D03*
G01X0010886Y0017339D03*
G01X0014752Y0005260D03*
G01X0013118Y0016528D03*
G01X0014035Y0004984D03*
G01X0008949Y0004402D03*
G01X0002587Y0001988D03*
G01X0006272Y0003933D03*
G01X0011961Y0017902D03*
G01X0007295Y0012193D03*
G54D20*
G01X0006012Y0018354D02*
G01X0006012Y0017567D01*
G01X0003650Y0018354D02*
G01X0003650Y0017567D01*
G01X0005224Y0016071D02*
G01X0004437Y0016071D01*
M02*
