M48
INCH,TZ
T10C0.016
T11C0.032
T12C0.039
T13C0.040
%
T10
X007287Y012193
X011953Y017902
X006264Y003933
X002579Y001988
X008941Y004402
X011846Y009256
X010669Y014906
X003980Y009869
X003604Y009869
X003980Y010244
X003604Y010244
X003980Y010620
X003604Y010620
X003980Y010996
X003604Y010996
X003980Y011371
X003604Y011371
X014370Y010732
X019062Y008250
X016960Y004201
X011842Y006654
X014027Y004984
X013110Y016528
X014744Y005260
X010878Y017339
X014567Y004862
X017224Y011539
X013449Y007224
X013736Y011669
X018673Y007752
X017358Y009972
X017378Y011079
X017397Y010457
X015835Y007484
X015460Y007283
X014835Y006878
X014449Y005819
X010960Y003272
X011673Y010669
X016142Y004228
X007960Y010142
X009874Y008240
X013606Y006354
X016779Y008043
X015862Y005087
X015913Y004689
X012594Y004362
X016201Y006409
X019083Y007295
X011335Y010398
X013583Y007562
X013594Y005917
X014185Y005409
X015764Y006642
X015653Y012496
X015397Y004768
X018126Y007177
X017039Y007594
X019079Y007787
X018090Y007823
X016224Y008476
X008996Y009535
X015209Y009665
X018744Y005886
X016838Y007268
X019205Y004366
X004256Y015331
T11
X004823Y016071
X003642Y017961
T12
X006004Y017961
T13
X017098Y014913
X018098Y014913
X019098Y014913
X016102Y016299
X017102Y016299
X018102Y016299
X019102Y016299
X019189Y013291
X018189Y013291
X019189Y012291
X018189Y012291
X019189Y011291
X018189Y011291
X019189Y010291
X018189Y010291
X001248Y004953
X002248Y004953
X003248Y004953
X004248Y004953
X005248Y004953
X017098Y017677
X018098Y017677
X019098Y017677
X017102Y019059
X018102Y019059
X019102Y019059
X007016Y001772
X007016Y002772
X008016Y001772
X008016Y002772
X009016Y001772
X009016Y002772
X010016Y001772
X010016Y002772
X011016Y001772
X011016Y002772
X012016Y001772
X012016Y002772
X013016Y001772
X013016Y002772
X014016Y001772
X014016Y002772
X015016Y001772
X015016Y002772
X016016Y001772
X016016Y002772
X007031Y019004
X008031Y019004
X009031Y019004
X010031Y019004
X011031Y019004
X012031Y019004
X013031Y019004
X014031Y019004
M30

