G75*
%MOIN*%
%OFA0B0*%
%FSLAX24Y24*%
%IPPOS*%
%LPD*%
%AMOC8*
5,1,8,0,0,1.08239X$1,22.5*
%
%ADD10R,0.0120X0.0390*%
%ADD11R,0.0512X0.0630*%
%ADD12R,0.0472X0.0512*%
%ADD13R,0.0512X0.0472*%
%ADD14R,0.0600X0.0600*%
%ADD15OC8,0.0649*%
%ADD16R,0.4252X0.4098*%
%ADD17R,0.0420X0.0850*%
%ADD18R,0.0945X0.1024*%
%ADD19R,0.0787X0.0787*%
%ADD20R,0.0315X0.0315*%
%ADD21R,0.2441X0.2126*%
%ADD22R,0.0630X0.0394*%
%ADD23R,0.0630X0.0512*%
%ADD24C,0.0100*%
%ADD25C,0.0276*%
D10*
X016329Y011135D03*
X016585Y011135D03*
X016841Y011135D03*
X017096Y011135D03*
X017352Y011135D03*
X017608Y011135D03*
X017864Y011135D03*
X018120Y011135D03*
X018376Y011135D03*
X018632Y011135D03*
X018632Y013432D03*
X018376Y013432D03*
X018120Y013432D03*
X017864Y013432D03*
X017608Y013432D03*
X017352Y013432D03*
X017096Y013432D03*
X016841Y013432D03*
X016585Y013432D03*
X016329Y013432D03*
D11*
X016900Y009000D03*
X018100Y009000D03*
X005466Y011575D03*
X004266Y011575D03*
D12*
X016935Y010031D03*
X017735Y010031D03*
X017900Y008000D03*
X017100Y008000D03*
D13*
X017185Y014832D03*
X017185Y015632D03*
X016315Y015344D03*
X016315Y016144D03*
D14*
X015500Y008000D03*
X005000Y014500D03*
D15*
X005000Y015500D03*
X004750Y018750D03*
X003750Y018750D03*
X001750Y018750D03*
X006750Y018750D03*
X007750Y018750D03*
X008750Y018750D03*
X009750Y018750D03*
X010750Y018750D03*
X012750Y018750D03*
X014750Y018750D03*
X015750Y018750D03*
X017750Y018750D03*
X018750Y018750D03*
X015500Y007000D03*
X015500Y006000D03*
X015500Y005000D03*
X015500Y004000D03*
X014750Y001750D03*
X013750Y001750D03*
X011750Y001750D03*
X010750Y001750D03*
X008750Y001750D03*
X006750Y001750D03*
X005750Y001750D03*
X004750Y001750D03*
X002750Y001750D03*
X001750Y001750D03*
X017750Y001750D03*
X018750Y001750D03*
D16*
X009547Y013331D03*
D17*
X009547Y010051D03*
X008877Y010051D03*
X008207Y010051D03*
X010217Y010051D03*
X010887Y010051D03*
D18*
X013106Y011089D03*
X013106Y008589D03*
X003961Y009719D03*
X003961Y007219D03*
D19*
X003287Y014500D03*
X001713Y014500D03*
D20*
X009106Y008528D03*
X009706Y008528D03*
D21*
X008886Y005874D03*
D22*
X006012Y004976D03*
X006012Y006772D03*
D23*
X017000Y006100D03*
X017000Y004900D03*
D24*
X001750Y001500D02*
X001750Y001450D01*
X001750Y001500D02*
X001750Y001750D01*
X001866Y001318D02*
X001887Y001310D01*
X001908Y001304D01*
X001931Y001300D01*
X002594Y001212D01*
X002626Y001210D02*
X002874Y001210D01*
X003008Y001251D02*
X004492Y002249D01*
X004535Y002272D02*
X010197Y004589D01*
X010343Y004769D02*
X010866Y007681D01*
X012551Y008302D01*
X012634Y008317D02*
X012684Y008317D01*
X013106Y008589D01*
X013529Y008744D01*
X013579Y008744D01*
X013878Y008744D01*
X014177Y008546D02*
X014193Y008572D01*
X014207Y008601D01*
X014218Y008630D01*
X014177Y008546D02*
X013779Y007944D01*
X013754Y007912D02*
X010492Y004448D01*
X010327Y004329D02*
X006405Y002532D01*
X006340Y002496D02*
X005807Y002155D01*
X005750Y002050D02*
X005750Y002000D01*
X005750Y001750D01*
X006177Y001432D02*
X006164Y001409D01*
X006149Y001388D01*
X006132Y001368D01*
X006044Y001280D01*
X005874Y001210D02*
X005626Y001210D01*
X005513Y001238D02*
X004992Y001516D01*
X004962Y001538D02*
X004962Y001538D01*
X004927Y001573D01*
X004750Y001750D01*
X004962Y001538D02*
X004976Y001526D01*
X004992Y001517D01*
X005513Y001238D02*
X005540Y001226D01*
X005568Y001217D01*
X005597Y001212D01*
X005626Y001210D01*
X005874Y001210D02*
X005901Y001212D01*
X005927Y001216D01*
X005953Y001223D01*
X005978Y001234D01*
X006002Y001247D01*
X006024Y001262D01*
X006044Y001280D01*
X006177Y001432D02*
X006229Y001537D01*
X006250Y001626D02*
X006250Y001874D01*
X006271Y001963D02*
X006323Y002068D01*
X006368Y002132D02*
X006456Y002220D01*
X006526Y002268D02*
X010448Y004066D01*
X010609Y003821D02*
X006994Y001985D01*
X006962Y001962D02*
X006962Y001962D01*
X006927Y001927D01*
X006750Y001750D01*
X006323Y002068D02*
X006336Y002091D01*
X006351Y002112D01*
X006368Y002132D01*
X006456Y002220D02*
X006478Y002239D01*
X006501Y002255D01*
X006526Y002268D01*
X006405Y002532D02*
X006372Y002515D01*
X006340Y002496D01*
X005807Y002154D02*
X005791Y002142D01*
X005777Y002127D01*
X005765Y002109D01*
X005757Y002091D01*
X005752Y002071D01*
X005750Y002050D01*
X006250Y001626D02*
X006249Y001603D01*
X006245Y001581D01*
X006238Y001559D01*
X006229Y001538D01*
X006250Y001874D02*
X006251Y001897D01*
X006255Y001919D01*
X006262Y001941D01*
X006271Y001962D01*
X006962Y001962D02*
X006977Y001974D01*
X006994Y001985D01*
X008750Y001750D02*
X008927Y001927D01*
X008962Y001962D01*
X008962Y001962D01*
X008969Y001968D02*
X011024Y003754D01*
X011126Y003851D02*
X014387Y007316D01*
X014549Y007537D02*
X014903Y008173D01*
X014990Y008370D02*
X014990Y008371D01*
X015024Y008435D02*
X016539Y010410D01*
X016619Y010473D02*
X016810Y010555D01*
X016963Y010667D02*
X017020Y010734D01*
X017096Y010940D02*
X017096Y010990D01*
X017096Y011135D01*
X017272Y011493D02*
X017256Y011509D01*
X017237Y011524D01*
X017218Y011537D01*
X016793Y011786D01*
X016525Y011860D02*
X016269Y011860D01*
X016169Y011850D02*
X013624Y011365D01*
X013579Y011360D02*
X013529Y011360D01*
X013106Y011089D01*
X012684Y010817D01*
X012634Y010817D01*
X012544Y010799D02*
X011187Y010253D01*
X011097Y010236D02*
X011047Y010236D01*
X010887Y010051D01*
X010887Y010426D01*
X010887Y010476D01*
X010885Y010504D01*
X010880Y010531D01*
X010871Y010557D01*
X010858Y010582D01*
X010843Y010605D01*
X010825Y010625D01*
X010804Y010643D01*
X010781Y010659D01*
X010756Y010671D01*
X010729Y010679D01*
X010702Y010684D01*
X010456Y010714D01*
X010427Y010716D02*
X009551Y010717D01*
X009547Y010479D01*
X009547Y010476D01*
X009547Y010426D01*
X009547Y010051D01*
X008877Y009626D02*
X008879Y009600D01*
X008884Y009574D01*
X009101Y008724D01*
X009106Y008685D02*
X009106Y008635D01*
X009106Y008528D01*
X009106Y008420D01*
X009106Y008370D01*
X009106Y006937D01*
X009106Y006887D01*
X008886Y005874D01*
X010327Y004329D02*
X010363Y004348D01*
X010398Y004369D01*
X010431Y004393D01*
X010463Y004419D01*
X010492Y004448D01*
X010703Y004249D02*
X013965Y007714D01*
X014028Y007796D02*
X014412Y008409D01*
X014654Y008285D02*
X014285Y007660D01*
X014176Y007515D02*
X010915Y004050D01*
X010703Y004249D02*
X010666Y004212D01*
X010626Y004177D01*
X010584Y004145D01*
X010540Y004116D01*
X010495Y004089D01*
X010448Y004066D01*
X010197Y004589D02*
X010224Y004602D01*
X010249Y004618D01*
X010272Y004638D01*
X010293Y004660D01*
X010310Y004685D01*
X010324Y004711D01*
X010335Y004739D01*
X010342Y004769D01*
X011125Y003851D02*
X011076Y003801D01*
X011024Y003754D01*
X010914Y004050D02*
X010869Y004005D01*
X010821Y003962D01*
X010771Y003923D01*
X010719Y003886D01*
X010665Y003852D01*
X010609Y003821D01*
X010777Y002127D02*
X014784Y007204D01*
X015001Y007367D02*
X015300Y007488D01*
X015400Y007501D02*
X015416Y007499D01*
X015449Y007498D02*
X015491Y007500D01*
X015509Y007500D02*
X015551Y007498D01*
X015584Y007499D02*
X015600Y007501D01*
X015674Y007496D02*
X016735Y007230D01*
X016864Y007214D02*
X017664Y007214D01*
X017826Y006940D02*
X015664Y006504D01*
X015624Y006500D02*
X015376Y006500D01*
X015287Y006479D02*
X015182Y006427D01*
X015118Y006382D02*
X015030Y006294D01*
X015004Y006263D02*
X011976Y001978D01*
X011962Y001962D02*
X011962Y001962D01*
X011927Y001927D01*
X011750Y001750D01*
X011323Y002068D02*
X011335Y002089D01*
X011348Y002109D01*
X015102Y006952D01*
X015200Y007000D02*
X015250Y007000D01*
X015500Y007000D01*
X015624Y006500D02*
X015644Y006501D01*
X015663Y006504D01*
X015376Y006500D02*
X015353Y006499D01*
X015331Y006495D01*
X015309Y006488D01*
X015288Y006479D01*
X015182Y006427D02*
X015159Y006414D01*
X015138Y006399D01*
X015118Y006382D01*
X015030Y006294D02*
X015016Y006278D01*
X015004Y006262D01*
X015500Y006000D02*
X015750Y006000D01*
X015800Y006000D01*
X015812Y006001D02*
X016662Y006083D01*
X016685Y006084D02*
X016735Y006084D01*
X017000Y006100D01*
X016685Y006084D02*
X016662Y006083D01*
X015812Y006001D02*
X015800Y006000D01*
X016662Y004917D02*
X016685Y004916D01*
X016735Y004916D01*
X017000Y004900D01*
X017265Y004916D01*
X017315Y004916D01*
X017343Y004918D01*
X017370Y004922D01*
X017397Y004931D01*
X017423Y004942D01*
X017447Y004956D01*
X017469Y004972D01*
X017490Y004991D01*
X017508Y005013D01*
X017523Y005036D01*
X018847Y007335D01*
X019098Y007190D02*
X017774Y004891D01*
X017752Y004856D02*
X017513Y004508D01*
X017315Y004404D02*
X016685Y004404D01*
X016663Y004405D02*
X015643Y004499D01*
X015624Y004500D02*
X015376Y004500D01*
X015287Y004479D02*
X015182Y004427D01*
X015118Y004382D02*
X015030Y004294D01*
X014961Y004148D02*
X014751Y002062D01*
X014750Y002050D02*
X014750Y002000D01*
X014750Y001750D01*
X014750Y001500D01*
X014750Y001450D01*
X014748Y001430D01*
X014743Y001410D01*
X014735Y001391D01*
X014724Y001374D01*
X014710Y001359D01*
X014694Y001346D01*
X014676Y001336D01*
X014634Y001318D01*
X014569Y001300D02*
X013906Y001212D01*
X013874Y001210D02*
X011626Y001210D01*
X011456Y001280D02*
X011368Y001368D01*
X011323Y001432D02*
X011271Y001537D01*
X011250Y001626D02*
X011250Y001874D01*
X011271Y001963D02*
X011323Y002068D01*
X011271Y001962D02*
X011262Y001941D01*
X011255Y001919D01*
X011251Y001897D01*
X011250Y001874D01*
X011250Y001626D02*
X011251Y001603D01*
X011255Y001581D01*
X011262Y001559D01*
X011271Y001538D01*
X011323Y001432D02*
X011336Y001409D01*
X011351Y001388D01*
X011368Y001368D01*
X011456Y001280D02*
X011476Y001262D01*
X011498Y001247D01*
X011522Y001234D01*
X011547Y001223D01*
X011573Y001216D01*
X011599Y001212D01*
X011626Y001210D01*
X011962Y001962D02*
X011975Y001979D01*
X010777Y002127D02*
X010765Y002110D01*
X010757Y002091D01*
X010752Y002071D01*
X010750Y002050D01*
X010750Y002000D01*
X010750Y001750D01*
X008968Y001968D02*
X008962Y001962D01*
X005859Y004602D02*
X002966Y001966D01*
X002962Y001962D02*
X002962Y001962D01*
X002927Y001927D01*
X002750Y001750D01*
X002626Y001210D02*
X002610Y001211D01*
X002594Y001212D01*
X002874Y001210D02*
X002902Y001212D01*
X002930Y001217D01*
X002957Y001225D01*
X002983Y001236D01*
X003008Y001251D01*
X002962Y001962D02*
X002966Y001966D01*
X001824Y001336D02*
X001806Y001346D01*
X001790Y001359D01*
X001776Y001374D01*
X001765Y001391D01*
X001757Y001410D01*
X001752Y001430D01*
X001750Y001450D01*
X001824Y001336D02*
X001866Y001318D01*
X004492Y002249D02*
X004513Y002262D01*
X004535Y002272D01*
X005859Y004603D02*
X005879Y004623D01*
X005896Y004646D01*
X005910Y004670D01*
X005922Y004696D01*
X005930Y004723D01*
X005935Y004752D01*
X005937Y004780D01*
X005937Y004830D01*
X006012Y004976D01*
X006012Y005123D01*
X006012Y005173D01*
X006012Y006575D01*
X006012Y006625D01*
X006012Y006772D01*
X005747Y006772D01*
X005697Y006772D01*
X005669Y006774D02*
X004467Y006944D01*
X004433Y006947D02*
X004383Y006947D01*
X003961Y007219D01*
X004433Y006947D02*
X004450Y006946D01*
X004467Y006945D01*
X005669Y006773D02*
X005683Y006771D01*
X005697Y006771D01*
X004383Y009885D02*
X003961Y009719D01*
X004193Y010180D01*
X004193Y010230D01*
X004193Y010244D02*
X004250Y011246D01*
X004250Y011260D02*
X004250Y011310D01*
X004266Y011575D01*
X004060Y011650D01*
X004010Y011650D01*
X003828Y011733D02*
X001924Y013950D01*
X001866Y014106D02*
X001866Y014156D01*
X001713Y014500D01*
X001750Y014844D01*
X001750Y014894D01*
X001750Y018450D01*
X001750Y018500D01*
X001750Y018750D01*
X004750Y018750D02*
X005000Y018750D01*
X005050Y018750D01*
X005092Y018757D02*
X006545Y019276D01*
X006626Y019290D02*
X010874Y019290D01*
X010947Y019279D02*
X011827Y019000D01*
X011932Y018514D01*
X011984Y018374D02*
X012153Y018061D01*
X012408Y018198D02*
X012239Y018512D01*
X012210Y018626D02*
X012210Y018874D01*
X012280Y019044D02*
X012368Y019132D01*
X012390Y019151D02*
X012487Y019227D01*
X012630Y019275D02*
X012674Y019274D01*
X012702Y019274D02*
X012746Y019275D01*
X012754Y019275D02*
X012798Y019274D01*
X012824Y019274D02*
X012870Y019275D01*
X012882Y019275D02*
X013298Y019260D01*
X013324Y019260D02*
X014357Y019260D01*
X014405Y019261D02*
X014611Y019274D01*
X014630Y019275D02*
X014674Y019274D01*
X014702Y019274D02*
X014746Y019275D01*
X014754Y019275D02*
X014798Y019274D01*
X014826Y019274D02*
X014870Y019275D01*
X014884Y019275D02*
X015218Y019260D01*
X015250Y019260D02*
X015383Y019260D01*
X015437Y019262D02*
X015609Y019274D01*
X015630Y019275D02*
X015674Y019274D01*
X015702Y019274D02*
X015746Y019275D01*
X015754Y019275D02*
X015798Y019274D01*
X015826Y019274D02*
X015870Y019275D01*
X015948Y019262D02*
X017409Y018757D01*
X017450Y018750D02*
X017500Y018750D01*
X017750Y018750D01*
X017750Y018500D01*
X017750Y018450D01*
X017756Y018410D02*
X018493Y016223D01*
X018550Y015909D02*
X018631Y013704D01*
X018632Y013627D02*
X018632Y013577D01*
X018632Y013432D01*
X018376Y013432D02*
X018376Y013577D01*
X018376Y013627D01*
X018373Y013737D02*
X018260Y015911D01*
X017970Y015904D02*
X018116Y013753D01*
X018120Y013627D02*
X018120Y013577D01*
X018120Y013432D01*
X017864Y013237D02*
X017865Y013214D01*
X017869Y013192D01*
X017876Y013170D01*
X017885Y013150D01*
X017896Y013130D01*
X019136Y011229D01*
X019202Y011082D02*
X019319Y010664D01*
X019349Y010536D02*
X019531Y009527D01*
X019550Y009315D02*
X019550Y008685D01*
X019550Y008668D02*
X019536Y007724D01*
X019244Y007680D02*
X019299Y008630D01*
X019301Y008692D02*
X019300Y008800D01*
X019300Y008810D02*
X019301Y008918D01*
X019301Y008925D02*
X019301Y009075D01*
X019301Y009082D02*
X019300Y009190D01*
X019300Y009200D02*
X019301Y009308D01*
X019278Y009520D02*
X019054Y010528D01*
X018997Y010710D02*
X018872Y011014D01*
X019202Y011083D02*
X019190Y011121D01*
X019175Y011159D01*
X019157Y011195D01*
X019136Y011230D01*
X018692Y011135D02*
X018642Y011135D01*
X018632Y011135D01*
X017971Y010602D02*
X017987Y010574D01*
X018005Y010547D01*
X018005Y010546D02*
X018115Y010387D01*
X018132Y010356D02*
X018539Y009392D01*
X018555Y009307D02*
X018552Y009253D01*
X018552Y009136D02*
X018555Y009083D01*
X018555Y009075D02*
X018555Y008925D01*
X018555Y008917D02*
X018552Y008864D01*
X018552Y008747D02*
X018555Y008693D01*
X018547Y008629D02*
X018455Y008320D01*
X018703Y008109D02*
X018796Y008602D01*
X018803Y008697D02*
X018801Y008773D01*
X018801Y008837D02*
X018803Y008913D01*
X018803Y008925D02*
X018803Y009075D01*
X018803Y009087D02*
X018801Y009163D01*
X018801Y009227D02*
X018803Y009303D01*
X018771Y009483D02*
X018462Y010246D01*
X018426Y010319D02*
X018196Y010704D01*
X018193Y010709D02*
X018193Y010709D01*
X018156Y010787D02*
X018139Y010831D01*
X018120Y010940D02*
X018120Y010990D01*
X018120Y011135D01*
X018376Y011135D02*
X018376Y010990D01*
X018376Y010940D01*
X018120Y010940D02*
X018121Y010912D01*
X018125Y010885D01*
X018131Y010858D01*
X018139Y010831D01*
X017938Y010659D02*
X017970Y010601D01*
X019319Y010664D02*
X019336Y010601D01*
X019349Y010536D01*
X018746Y010316D02*
X019014Y009543D01*
X019052Y009303D02*
X019051Y009211D01*
X019051Y009179D02*
X019052Y009087D01*
X019052Y009075D02*
X019052Y008925D01*
X019052Y008913D02*
X019051Y008821D01*
X019051Y008789D02*
X019052Y008697D01*
X019048Y008606D02*
X018976Y007981D01*
X018972Y007938D02*
X018954Y007685D01*
X018665Y007706D02*
X018683Y007959D01*
X018394Y007979D02*
X018376Y007727D01*
X018284Y007555D02*
X017989Y007326D01*
X018167Y007097D02*
X018462Y007326D01*
X018847Y007335D02*
X018871Y007381D01*
X018893Y007429D01*
X018912Y007479D01*
X018927Y007529D01*
X018940Y007581D01*
X018948Y007633D01*
X018954Y007685D01*
X019349Y007045D02*
X018026Y004747D01*
X017991Y004691D02*
X017752Y004344D01*
X017435Y004128D02*
X015828Y003755D01*
X015712Y003788D02*
X015712Y003788D01*
X015677Y003823D01*
X015500Y004000D01*
X015712Y003788D02*
X015728Y003775D01*
X015746Y003764D01*
X015766Y003757D01*
X015786Y003753D01*
X015807Y003752D01*
X015828Y003755D01*
X015642Y004499D02*
X015624Y004500D01*
X015376Y004500D02*
X015353Y004499D01*
X015331Y004495D01*
X015309Y004488D01*
X015288Y004479D01*
X015182Y004427D02*
X015159Y004414D01*
X015138Y004399D01*
X015118Y004382D01*
X015030Y004294D02*
X015012Y004273D01*
X014996Y004251D01*
X014983Y004227D01*
X014973Y004201D01*
X014966Y004175D01*
X014961Y004148D01*
X014713Y004332D02*
X014732Y004372D01*
X014754Y004410D01*
X015095Y004943D01*
X015200Y005000D02*
X015250Y005000D01*
X015500Y005000D01*
X015750Y005000D01*
X015800Y005000D01*
X015812Y004999D02*
X016662Y004917D01*
X016663Y004405D02*
X016685Y004404D01*
X017435Y004128D02*
X017477Y004139D01*
X017518Y004154D01*
X017557Y004173D01*
X017595Y004194D01*
X017631Y004219D01*
X017665Y004246D01*
X017697Y004276D01*
X017726Y004309D01*
X017752Y004344D01*
X017513Y004508D02*
X017495Y004485D01*
X017474Y004465D01*
X017452Y004447D01*
X017427Y004432D01*
X017400Y004420D01*
X017373Y004411D01*
X017344Y004406D01*
X017315Y004404D01*
X017752Y004856D02*
X017774Y004891D01*
X018025Y004747D02*
X018009Y004718D01*
X017991Y004691D01*
X015812Y004999D02*
X015800Y005000D01*
X015200Y005000D02*
X015179Y004998D01*
X015159Y004993D01*
X015141Y004985D01*
X015123Y004973D01*
X015108Y004959D01*
X015096Y004943D01*
X014712Y004332D02*
X013760Y002099D01*
X013750Y002050D02*
X013750Y002000D01*
X013750Y001750D01*
X013874Y001210D02*
X013890Y001211D01*
X013906Y001212D01*
X014569Y001300D02*
X014592Y001304D01*
X014613Y001310D01*
X014634Y001318D01*
X014750Y002050D02*
X014751Y002062D01*
X013760Y002099D02*
X013754Y002083D01*
X013751Y002067D01*
X013750Y002050D01*
X014784Y007204D02*
X014809Y007234D01*
X014837Y007262D01*
X014867Y007288D01*
X014898Y007312D01*
X014931Y007333D01*
X014966Y007351D01*
X015001Y007367D01*
X015300Y007488D02*
X015324Y007496D01*
X015349Y007501D01*
X015375Y007503D01*
X015400Y007502D01*
X015416Y007499D02*
X015433Y007498D01*
X015449Y007498D01*
X015491Y007500D02*
X015509Y007500D01*
X015551Y007498D02*
X015567Y007498D01*
X015584Y007499D01*
X015600Y007502D02*
X015624Y007503D01*
X015649Y007501D01*
X015673Y007497D01*
X015800Y007940D02*
X015826Y007939D01*
X015851Y007935D01*
X015875Y007928D01*
X015899Y007919D01*
X016765Y007526D01*
X016864Y007504D02*
X017336Y007504D01*
X017339Y007504D01*
X017666Y007508D01*
X017667Y007508D02*
X017695Y007510D01*
X017723Y007515D01*
X017750Y007524D01*
X017775Y007536D01*
X017799Y007551D01*
X017822Y007568D01*
X017841Y007588D01*
X017859Y007611D01*
X017873Y007635D01*
X017885Y007661D01*
X017893Y007688D01*
X017898Y007716D01*
X017900Y007744D01*
X017900Y007794D01*
X017900Y008000D01*
X017900Y008206D01*
X017900Y008256D01*
X017937Y008382D02*
X018047Y008557D01*
X018084Y008685D02*
X018084Y008735D01*
X018100Y009000D01*
X018084Y009265D01*
X018084Y009315D01*
X018082Y009338D01*
X018077Y009367D01*
X018069Y009395D01*
X018058Y009422D01*
X018043Y009447D01*
X018026Y009470D01*
X018005Y009491D01*
X017983Y009510D01*
X017958Y009525D01*
X017931Y009538D01*
X017931Y009537D02*
X017885Y009556D01*
X017859Y009568D01*
X017835Y009583D01*
X017813Y009601D01*
X017793Y009621D01*
X017776Y009643D01*
X017762Y009667D01*
X017750Y009693D01*
X017742Y009720D01*
X017737Y009748D01*
X017735Y009776D01*
X017735Y009826D01*
X017735Y010031D01*
X017735Y010237D01*
X017735Y010287D01*
X017727Y010347D02*
X017644Y010665D01*
X018193Y010710D02*
X018197Y010704D01*
X018415Y010822D02*
X018627Y010539D01*
X018193Y010710D02*
X018179Y010735D01*
X018167Y010761D01*
X018156Y010788D01*
X017937Y010660D02*
X017918Y010697D01*
X017902Y010735D01*
X017888Y010775D01*
X017878Y010815D01*
X017870Y010857D01*
X017866Y010898D01*
X017864Y010940D01*
X017864Y010990D01*
X017864Y011135D01*
X017608Y011135D02*
X017608Y010990D01*
X017608Y010940D01*
X017608Y011135D02*
X017608Y011280D01*
X017608Y011330D01*
X017608Y013237D01*
X017608Y013287D01*
X017608Y013432D01*
X017608Y013577D01*
X017608Y013627D01*
X017352Y013627D02*
X017352Y013577D01*
X017352Y013432D01*
X017096Y013432D02*
X017096Y013577D01*
X017096Y013627D01*
X016841Y013627D02*
X016841Y013577D01*
X016841Y013432D01*
X016585Y013432D02*
X016585Y013577D01*
X016585Y013627D01*
X016583Y013642D02*
X016575Y013674D01*
X018631Y013704D02*
X018632Y013628D01*
X017864Y013627D02*
X017864Y013577D01*
X017864Y013432D01*
X017864Y013287D01*
X017864Y013237D01*
X017859Y013761D02*
X017680Y015889D01*
X017577Y016066D02*
X017229Y016305D01*
X017198Y016325D02*
X016328Y016837D01*
X016267Y016868D02*
X012868Y018317D01*
X012866Y018318D01*
X012824Y018336D01*
X012230Y017547D02*
X012191Y017576D01*
X012190Y017576D02*
X010973Y018528D01*
X010962Y018538D02*
X010962Y018538D01*
X010927Y018573D01*
X010750Y018750D01*
X010963Y018538D02*
X010974Y018528D01*
X010947Y019279D02*
X010923Y019285D01*
X010899Y019289D01*
X010874Y019290D01*
X011827Y019000D02*
X012075Y019249D01*
X012075Y019249D01*
X012163Y019337D01*
X012266Y019417D02*
X012369Y019479D01*
X012626Y019550D02*
X012874Y019550D01*
X012874Y019550D01*
X013324Y019550D01*
X013324Y019550D01*
X014357Y019550D01*
X014358Y019550D01*
X014626Y019550D01*
X014626Y019550D01*
X014874Y019550D01*
X014874Y019550D01*
X015250Y019550D01*
X015250Y019550D01*
X015383Y019550D01*
X015383Y019550D01*
X015626Y019550D01*
X015626Y019550D01*
X015874Y019550D01*
X015939Y019545D02*
X017905Y019288D01*
X017906Y019288D01*
X018569Y019200D01*
X018634Y019182D02*
X018676Y019164D01*
X018694Y019154D01*
X018710Y019141D01*
X018724Y019126D01*
X018735Y019109D01*
X018743Y019090D01*
X018748Y019070D01*
X018750Y019050D01*
X018750Y019000D01*
X018750Y018750D01*
X018634Y019182D02*
X018613Y019190D01*
X018592Y019196D01*
X018569Y019200D01*
X017750Y018450D02*
X017752Y018430D01*
X017756Y018410D01*
X017450Y018750D02*
X017429Y018752D01*
X017410Y018757D01*
X015963Y018537D02*
X018025Y016444D01*
X017744Y016304D02*
X014803Y018348D01*
X014750Y018450D02*
X014750Y018500D01*
X014750Y018750D01*
X014754Y019275D02*
X014746Y019275D01*
X014630Y019275D02*
X014611Y019275D01*
X014870Y019275D02*
X014884Y019275D01*
X014826Y019274D02*
X014798Y019274D01*
X014702Y019274D02*
X014674Y019274D01*
X014405Y019262D02*
X014357Y019260D01*
X014750Y018450D02*
X014752Y018430D01*
X014756Y018411D01*
X014764Y018393D01*
X014775Y018376D01*
X014788Y018361D01*
X014803Y018348D01*
X015610Y019274D02*
X015630Y019275D01*
X015746Y019275D02*
X015754Y019275D01*
X015870Y019275D02*
X015896Y019274D01*
X015922Y019270D01*
X015948Y019263D01*
X015939Y019546D02*
X015906Y019549D01*
X015874Y019550D01*
X015826Y019274D02*
X015798Y019274D01*
X015750Y018750D02*
X015927Y018573D01*
X015962Y018538D01*
X015962Y018538D01*
X015963Y018537D01*
X015702Y019274D02*
X015674Y019274D01*
X015437Y019262D02*
X015410Y019261D01*
X015383Y019260D01*
X015250Y019260D02*
X015219Y019261D01*
X013324Y019260D02*
X013298Y019260D01*
X012882Y019275D02*
X012870Y019275D01*
X012754Y019275D02*
X012746Y019275D01*
X012626Y019550D02*
X012588Y019549D01*
X012549Y019544D01*
X012512Y019537D01*
X012475Y019527D01*
X012438Y019513D01*
X012403Y019498D01*
X012370Y019479D01*
X012488Y019227D02*
X012509Y019242D01*
X012531Y019254D01*
X012555Y019263D01*
X012580Y019270D01*
X012605Y019274D01*
X012630Y019275D01*
X012266Y019417D02*
X012230Y019393D01*
X012195Y019366D01*
X012163Y019337D01*
X012368Y019132D02*
X012390Y019151D01*
X012280Y019044D02*
X012262Y019024D01*
X012247Y019002D01*
X012234Y018978D01*
X012223Y018953D01*
X012216Y018927D01*
X012212Y018901D01*
X012210Y018874D01*
X011932Y018514D02*
X011941Y018478D01*
X011953Y018442D01*
X011967Y018408D01*
X011984Y018374D01*
X012239Y018512D02*
X012226Y018539D01*
X012217Y018567D01*
X012212Y018596D01*
X012210Y018626D01*
X012750Y018750D02*
X012750Y018500D01*
X012750Y018450D01*
X012752Y018430D01*
X012757Y018410D01*
X012765Y018391D01*
X012776Y018374D01*
X012790Y018359D01*
X012806Y018346D01*
X012824Y018336D01*
X012413Y017772D02*
X012368Y017805D01*
X012325Y017841D01*
X012284Y017880D01*
X012247Y017922D01*
X012212Y017966D01*
X012181Y018012D01*
X012152Y018061D01*
X012413Y017772D02*
X015926Y015385D01*
X016059Y015344D02*
X016109Y015344D01*
X016315Y015344D01*
X016521Y015344D01*
X016571Y015344D01*
X016687Y015245D01*
X016750Y015088D02*
X016750Y015088D01*
X016813Y014931D02*
X016929Y014832D01*
X016979Y014832D01*
X017185Y014832D01*
X017201Y014646D01*
X017201Y014596D01*
X017256Y014495D01*
X017285Y014454D02*
X017288Y014450D01*
X017285Y014454D02*
X017269Y014473D01*
X017256Y014495D01*
X017071Y014249D02*
X016995Y014316D01*
X016815Y014439D02*
X015947Y014895D01*
X015920Y014913D02*
X012229Y017547D01*
X012682Y017956D02*
X016146Y016604D01*
X016172Y016592D01*
X016197Y016576D01*
X016219Y016559D01*
X016240Y016538D01*
X016257Y016515D01*
X016272Y016491D01*
X016284Y016464D01*
X016292Y016437D01*
X016297Y016409D01*
X016299Y016380D01*
X016299Y016330D01*
X016315Y016144D01*
X016521Y016144D01*
X016571Y016144D01*
X016594Y016143D02*
X016953Y016107D01*
X017198Y016326D02*
X017229Y016306D01*
X017169Y015869D02*
X017169Y015819D01*
X017185Y015632D01*
X017169Y015868D02*
X017167Y015897D01*
X017162Y015926D01*
X017153Y015954D01*
X017141Y015981D01*
X017125Y016006D01*
X017107Y016029D01*
X017086Y016050D01*
X017062Y016067D01*
X017037Y016082D01*
X017010Y016094D01*
X016982Y016102D01*
X016953Y016107D01*
X016594Y016143D02*
X016571Y016144D01*
X016328Y016837D02*
X016298Y016853D01*
X016267Y016868D01*
X015926Y015385D02*
X015951Y015370D01*
X015976Y015359D01*
X016003Y015351D01*
X016031Y015346D01*
X016059Y015344D01*
X015649Y014398D02*
X015684Y014379D01*
X015720Y014362D01*
X015756Y014346D01*
X016549Y014030D01*
X016449Y013809D02*
X015710Y014054D01*
X015527Y014133D02*
X007815Y018341D01*
X007799Y018351D01*
X007785Y018364D01*
X007773Y018379D01*
X007763Y018395D01*
X007756Y018413D01*
X007751Y018431D01*
X007750Y018450D01*
X007750Y018500D01*
X007750Y018750D01*
X006817Y018340D02*
X006800Y018350D01*
X006786Y018363D01*
X006773Y018378D01*
X006763Y018394D01*
X006756Y018412D01*
X006751Y018431D01*
X006750Y018450D01*
X006750Y018500D01*
X006750Y018750D01*
X006626Y019290D02*
X006599Y019288D01*
X006572Y019284D01*
X006545Y019276D01*
X006817Y018340D02*
X016179Y013454D01*
X016269Y013432D02*
X016319Y013432D01*
X016329Y013432D01*
X018376Y013627D02*
X018375Y013682D01*
X018373Y013737D01*
X016961Y013996D02*
X016905Y014063D01*
X016765Y013843D02*
X016799Y013785D01*
X016583Y013641D02*
X016585Y013627D01*
X016841Y013627D02*
X016839Y013660D01*
X016834Y013692D01*
X016826Y013724D01*
X016814Y013755D01*
X016799Y013784D01*
X016962Y013996D02*
X016989Y013961D01*
X017014Y013924D01*
X017036Y013885D01*
X017054Y013844D01*
X017069Y013802D01*
X017081Y013760D01*
X017090Y013716D01*
X017095Y013672D01*
X017097Y013627D01*
X017353Y013627D02*
X017351Y013681D01*
X017346Y013735D01*
X017337Y013788D01*
X017325Y013841D01*
X017309Y013893D01*
X017290Y013943D01*
X017268Y013993D01*
X017242Y014040D01*
X017214Y014086D01*
X017182Y014130D01*
X017148Y014172D01*
X017111Y014212D01*
X017072Y014249D01*
X016672Y014240D02*
X015837Y014627D01*
X015781Y014657D02*
X009809Y018344D01*
X009750Y018450D02*
X009750Y018500D01*
X009750Y018750D01*
X009750Y018450D02*
X009752Y018429D01*
X009757Y018409D01*
X009766Y018390D01*
X009777Y018372D01*
X009792Y018357D01*
X009809Y018344D01*
X008812Y018343D02*
X008797Y018353D01*
X008783Y018366D01*
X008772Y018380D01*
X008762Y018396D01*
X008756Y018413D01*
X008751Y018432D01*
X008750Y018450D01*
X008750Y018500D01*
X008750Y018750D01*
X008812Y018342D02*
X015649Y014398D01*
X015527Y014134D02*
X015587Y014104D01*
X015648Y014077D01*
X015710Y014054D01*
X016179Y013454D02*
X016200Y013445D01*
X016223Y013438D01*
X016246Y013433D01*
X016269Y013432D01*
X017864Y013627D02*
X017863Y013694D01*
X017858Y013760D01*
X016813Y014932D02*
X016795Y014949D01*
X016779Y014969D01*
X016767Y014991D01*
X016758Y015014D01*
X016752Y015039D01*
X016749Y015064D01*
X016750Y015089D01*
X016750Y015088D02*
X016751Y015113D01*
X016748Y015138D01*
X016742Y015163D01*
X016733Y015186D01*
X016721Y015208D01*
X016705Y015228D01*
X016687Y015245D01*
X015947Y014896D02*
X015933Y014904D01*
X015920Y014913D01*
X015781Y014657D02*
X015808Y014641D01*
X015837Y014627D01*
X018116Y013752D02*
X018119Y013690D01*
X018120Y013627D01*
X017609Y013627D02*
X017607Y013697D01*
X017601Y013766D01*
X017591Y013835D01*
X017577Y013903D01*
X017560Y013970D01*
X017538Y014036D01*
X017513Y014101D01*
X017484Y014164D01*
X017452Y014226D01*
X017416Y014285D01*
X017377Y014343D01*
X017335Y014398D01*
X017289Y014451D01*
X016575Y013673D02*
X016568Y013696D01*
X016558Y013718D01*
X016545Y013739D01*
X016530Y013757D01*
X016512Y013774D01*
X016493Y013788D01*
X016472Y013800D01*
X016449Y013809D01*
X016673Y014241D02*
X016717Y014218D01*
X016759Y014193D01*
X016799Y014165D01*
X016837Y014133D01*
X016872Y014100D01*
X016905Y014063D01*
X016765Y013843D02*
X016746Y013874D01*
X016724Y013903D01*
X016700Y013930D01*
X016673Y013955D01*
X016645Y013978D01*
X016615Y013998D01*
X016583Y014015D01*
X016550Y014030D01*
X016815Y014439D02*
X016863Y014412D01*
X016909Y014382D01*
X016953Y014350D01*
X016995Y014316D01*
X017680Y015888D02*
X017676Y015918D01*
X017668Y015947D01*
X017656Y015975D01*
X017641Y016001D01*
X017622Y016025D01*
X017601Y016047D01*
X017577Y016066D01*
X018493Y016223D02*
X018512Y016162D01*
X018527Y016100D01*
X018538Y016037D01*
X018546Y015973D01*
X018550Y015909D01*
X017970Y015905D02*
X017965Y015948D01*
X017957Y015990D01*
X017945Y016032D01*
X017931Y016072D01*
X017912Y016111D01*
X017891Y016149D01*
X017867Y016184D01*
X017840Y016218D01*
X017810Y016249D01*
X017778Y016278D01*
X017744Y016304D01*
X018025Y016444D02*
X018062Y016405D01*
X018096Y016363D01*
X018127Y016318D01*
X018155Y016272D01*
X018180Y016224D01*
X018202Y016175D01*
X018220Y016124D01*
X018236Y016072D01*
X018247Y016019D01*
X018255Y015966D01*
X018260Y015912D01*
X017273Y011492D02*
X017300Y011463D01*
X017352Y011330D02*
X017352Y011280D01*
X017352Y011135D01*
X017352Y010990D01*
X017352Y010940D01*
X017352Y011330D02*
X017350Y011354D01*
X017346Y011378D01*
X017339Y011401D01*
X017328Y011423D01*
X017315Y011444D01*
X017300Y011463D01*
X016841Y011135D02*
X016841Y010990D01*
X016841Y010940D01*
X016836Y010916D02*
X016814Y010866D01*
X017021Y010734D02*
X017040Y010760D01*
X017057Y010787D01*
X017071Y010815D01*
X017083Y010845D01*
X017091Y010876D01*
X017095Y010908D01*
X017097Y010940D01*
X016841Y010940D02*
X016840Y010928D01*
X016836Y010916D01*
X017353Y010940D02*
X017351Y010896D01*
X017346Y010852D01*
X017338Y010808D01*
X017326Y010765D01*
X017311Y010724D01*
X017292Y010683D01*
X017271Y010644D01*
X017246Y010607D01*
X017219Y010572D01*
X017189Y010539D01*
X017157Y010509D01*
X017122Y010481D01*
X017061Y010435D01*
X017027Y010403D02*
X016935Y010287D01*
X016935Y010237D01*
X016935Y010031D01*
X016935Y009826D01*
X016935Y009776D01*
X016934Y009766D02*
X016916Y009325D01*
X016916Y009315D02*
X016916Y009265D01*
X016900Y009000D01*
X016916Y008735D01*
X016916Y008685D01*
X016953Y008557D02*
X017063Y008382D01*
X017100Y008256D02*
X017100Y008206D01*
X017100Y008000D01*
X016864Y007504D02*
X016838Y007505D01*
X016813Y007509D01*
X016789Y007516D01*
X016765Y007525D01*
X016735Y007230D02*
X016778Y007221D01*
X016821Y007216D01*
X016864Y007214D01*
X017664Y007214D02*
X017708Y007216D01*
X017751Y007221D01*
X017794Y007230D01*
X017836Y007243D01*
X017877Y007259D01*
X017916Y007278D01*
X017954Y007300D01*
X017989Y007326D01*
X019349Y007045D02*
X019383Y007108D01*
X019414Y007172D01*
X019441Y007238D01*
X019465Y007305D01*
X019486Y007373D01*
X019503Y007442D01*
X019517Y007512D01*
X019527Y007582D01*
X019533Y007653D01*
X019536Y007724D01*
X018394Y007979D02*
X018401Y008048D01*
X018410Y008117D01*
X018422Y008185D01*
X018438Y008253D01*
X018456Y008320D01*
X017936Y008382D02*
X017924Y008359D01*
X017913Y008334D01*
X017906Y008309D01*
X017901Y008283D01*
X017900Y008256D01*
X018047Y008557D02*
X018060Y008580D01*
X018070Y008605D01*
X018078Y008631D01*
X018082Y008658D01*
X018084Y008685D01*
X019299Y008631D02*
X019301Y008662D01*
X019301Y008692D01*
X019050Y008789D02*
X019050Y008821D01*
X019052Y008913D02*
X019052Y008925D01*
X018804Y008913D02*
X018804Y008925D01*
X018555Y008917D02*
X018555Y008925D01*
X019301Y008918D02*
X019301Y008925D01*
X019300Y008810D02*
X019300Y008800D01*
X018552Y008747D02*
X018551Y008805D01*
X018552Y008863D01*
X018804Y008697D02*
X018804Y008665D01*
X018801Y008633D01*
X018796Y008602D01*
X019550Y008668D02*
X019550Y008685D01*
X018801Y008773D02*
X018801Y008837D01*
X019052Y008697D02*
X019051Y008651D01*
X019047Y008606D01*
X018555Y008693D02*
X018555Y008671D01*
X018552Y008650D01*
X018547Y008629D01*
X019301Y009075D02*
X019301Y009082D01*
X019050Y009179D02*
X019050Y009211D01*
X019052Y009303D02*
X019051Y009352D01*
X019047Y009401D01*
X019039Y009449D01*
X019028Y009497D01*
X019014Y009543D01*
X019279Y009520D02*
X019289Y009467D01*
X019296Y009414D01*
X019300Y009361D01*
X019301Y009308D01*
X019300Y009200D02*
X019300Y009190D01*
X018552Y009137D02*
X018551Y009195D01*
X018552Y009253D01*
X019550Y009315D02*
X019549Y009368D01*
X019545Y009421D01*
X019539Y009474D01*
X019531Y009527D01*
X018801Y009227D02*
X018801Y009163D01*
X019052Y009087D02*
X019052Y009075D01*
X018804Y009075D02*
X018804Y009087D01*
X018555Y009075D02*
X018555Y009083D01*
X018804Y009303D02*
X018803Y009340D01*
X018800Y009376D01*
X018793Y009413D01*
X018784Y009448D01*
X018771Y009483D01*
X018539Y009392D02*
X018547Y009372D01*
X018552Y009350D01*
X018555Y009329D01*
X018555Y009307D01*
X018462Y010246D02*
X018446Y010283D01*
X018426Y010319D01*
X019055Y010528D02*
X019039Y010589D01*
X019020Y010650D01*
X018997Y010709D01*
X017643Y010665D02*
X017631Y010719D01*
X017621Y010774D01*
X017614Y010829D01*
X017609Y010884D01*
X017608Y010940D01*
X017726Y010347D02*
X017732Y010317D01*
X017734Y010287D01*
X018115Y010388D02*
X018124Y010372D01*
X018132Y010356D01*
X018627Y010538D02*
X018656Y010497D01*
X018683Y010454D01*
X018707Y010409D01*
X018728Y010363D01*
X018746Y010316D01*
X018872Y011014D02*
X018861Y011037D01*
X018847Y011058D01*
X018830Y011078D01*
X018811Y011095D01*
X018790Y011109D01*
X018767Y011120D01*
X018743Y011128D01*
X018718Y011133D01*
X018692Y011135D01*
X018376Y010940D02*
X018378Y010915D01*
X018382Y010890D01*
X018390Y010866D01*
X018401Y010844D01*
X018415Y010823D01*
X017061Y010435D02*
X017042Y010420D01*
X017026Y010402D01*
X016560Y010718D02*
X016523Y010705D01*
X016488Y010688D01*
X016455Y010669D01*
X016423Y010647D01*
X016393Y010622D01*
X016366Y010595D01*
X016341Y010565D01*
X016341Y010566D02*
X014811Y008603D01*
X014733Y008457D02*
X014733Y008457D01*
X014563Y008722D02*
X016106Y011048D01*
X016269Y011135D02*
X016319Y011135D01*
X016329Y011135D01*
X016505Y011493D02*
X016485Y011512D01*
X016462Y011529D01*
X016438Y011544D01*
X016412Y011555D01*
X016385Y011563D01*
X016357Y011568D01*
X016329Y011570D01*
X016269Y011570D01*
X016108Y011508D02*
X015914Y011334D01*
X015821Y011223D02*
X014324Y008853D01*
X014733Y008457D02*
X014717Y008412D01*
X014698Y008369D01*
X014677Y008326D01*
X014654Y008285D01*
X014733Y008457D02*
X014748Y008496D01*
X014766Y008533D01*
X014787Y008569D01*
X014811Y008603D01*
X015025Y008434D02*
X015011Y008414D01*
X014999Y008393D01*
X014990Y008370D01*
X014476Y008543D02*
X014493Y008590D01*
X014514Y008636D01*
X014537Y008680D01*
X014563Y008723D01*
X014325Y008853D02*
X014293Y008799D01*
X014265Y008744D01*
X014240Y008688D01*
X014219Y008630D01*
X014990Y008370D02*
X014972Y008320D01*
X014951Y008270D01*
X014928Y008221D01*
X014903Y008173D01*
X015500Y008000D02*
X015750Y007940D01*
X015800Y007940D01*
X017100Y008256D02*
X017099Y008283D01*
X017094Y008309D01*
X017087Y008334D01*
X017076Y008359D01*
X017063Y008382D01*
X016953Y008557D02*
X016940Y008580D01*
X016930Y008605D01*
X016922Y008631D01*
X016918Y008658D01*
X016916Y008685D01*
X016916Y009315D02*
X016916Y009325D01*
X016934Y009765D02*
X016934Y009775D01*
X016538Y010409D02*
X016555Y010429D01*
X016575Y010446D01*
X016596Y010460D01*
X016619Y010472D01*
X016560Y010719D02*
X016701Y010764D01*
X016702Y010764D02*
X016726Y010774D01*
X016748Y010787D01*
X016769Y010803D01*
X016787Y010822D01*
X016802Y010843D01*
X016815Y010866D01*
X016963Y010667D02*
X016937Y010639D01*
X016908Y010614D01*
X016878Y010591D01*
X016845Y010572D01*
X016810Y010555D01*
X016585Y011135D02*
X016585Y011280D01*
X016585Y011330D01*
X016794Y011787D02*
X016758Y011806D01*
X016722Y011822D01*
X016684Y011836D01*
X016645Y011846D01*
X016605Y011854D01*
X016565Y011858D01*
X016525Y011860D01*
X016505Y011492D02*
X016533Y011463D01*
X016548Y011444D01*
X016561Y011423D01*
X016572Y011401D01*
X016579Y011378D01*
X016583Y011354D01*
X016585Y011330D01*
X016269Y011860D02*
X016236Y011859D01*
X016202Y011856D01*
X016170Y011851D01*
X016269Y011570D02*
X016240Y011568D01*
X016211Y011563D01*
X016183Y011554D01*
X016156Y011542D01*
X016131Y011527D01*
X016109Y011508D01*
X016269Y011135D02*
X016242Y011133D01*
X016215Y011127D01*
X016189Y011118D01*
X016165Y011105D01*
X016143Y011089D01*
X016123Y011070D01*
X016107Y011048D01*
X015821Y011223D02*
X015841Y011253D01*
X015864Y011282D01*
X015888Y011309D01*
X015915Y011334D01*
X013624Y011364D02*
X013602Y011361D01*
X013579Y011360D01*
X012634Y010817D02*
X012603Y010815D01*
X012573Y010809D01*
X012544Y010800D01*
X011187Y010253D02*
X011158Y010244D01*
X011128Y010238D01*
X011097Y010236D01*
X010456Y010714D02*
X010427Y010716D01*
X010217Y010051D02*
X010217Y009676D01*
X010217Y009626D01*
X010186Y009516D02*
X009729Y008767D01*
X009706Y008685D02*
X009706Y008635D01*
X009706Y008528D01*
X009813Y008528D01*
X009863Y008528D01*
X009968Y008487D02*
X010866Y007681D01*
X009968Y008487D02*
X009950Y008501D01*
X009930Y008512D01*
X009908Y008520D01*
X009886Y008525D01*
X009863Y008527D01*
X009706Y008685D02*
X009707Y008706D01*
X009712Y008728D01*
X009719Y008748D01*
X009729Y008767D01*
X009105Y008685D02*
X009104Y008705D01*
X009100Y008724D01*
X008877Y009626D02*
X008877Y009676D01*
X008877Y010051D01*
X008207Y010051D02*
X008047Y009885D01*
X007997Y009885D01*
X004433Y009885D01*
X004383Y009885D01*
X004193Y010230D02*
X004193Y010244D01*
X004250Y011246D02*
X004250Y011260D01*
X004010Y011650D02*
X003981Y011652D01*
X003952Y011657D01*
X003923Y011666D01*
X003897Y011678D01*
X003872Y011694D01*
X003849Y011712D01*
X003828Y011734D01*
X005466Y011575D02*
X005672Y011650D01*
X005722Y011650D01*
X005899Y011728D02*
X005965Y011799D01*
X005962Y011896D01*
X005960Y011924D02*
X005538Y014834D01*
X005536Y014843D02*
X005448Y015330D01*
X005432Y015384D02*
X005414Y015426D01*
X005404Y015444D01*
X005391Y015460D01*
X005376Y015474D01*
X005359Y015485D01*
X005340Y015493D01*
X005320Y015498D01*
X005300Y015500D01*
X005250Y015500D01*
X005000Y015500D01*
X005432Y015384D02*
X005442Y015358D01*
X005448Y015330D01*
X005536Y014842D02*
X005537Y014834D01*
X005000Y014500D02*
X004750Y014500D01*
X004700Y014500D01*
X003681Y014500D01*
X003631Y014500D01*
X003287Y014500D01*
X001924Y013950D02*
X001907Y013972D01*
X001892Y013997D01*
X001881Y014023D01*
X001873Y014050D01*
X001868Y014078D01*
X001866Y014106D01*
X005722Y011650D02*
X005750Y011652D01*
X005778Y011657D01*
X005806Y011665D01*
X005832Y011676D01*
X005856Y011691D01*
X005879Y011708D01*
X005899Y011728D01*
X005965Y011799D02*
X007307Y011071D01*
X007385Y011044D02*
X009551Y010717D01*
X010217Y009626D02*
X010216Y009603D01*
X010212Y009580D01*
X010206Y009558D01*
X010197Y009537D01*
X010186Y009516D01*
X012551Y008302D02*
X012578Y008310D01*
X012606Y008315D01*
X012634Y008317D01*
X014176Y007515D02*
X014206Y007549D01*
X014235Y007584D01*
X014261Y007621D01*
X014285Y007660D01*
X013779Y007944D02*
X013767Y007928D01*
X013754Y007912D01*
X013965Y007714D02*
X013988Y007740D01*
X014009Y007767D01*
X014028Y007796D01*
X014549Y007537D02*
X014521Y007490D01*
X014491Y007444D01*
X014458Y007400D01*
X014424Y007357D01*
X014387Y007316D01*
X015102Y006952D02*
X015115Y006966D01*
X015129Y006978D01*
X015145Y006987D01*
X015163Y006994D01*
X015181Y006999D01*
X015200Y007000D01*
X014413Y008409D02*
X014437Y008452D01*
X014459Y008497D01*
X014476Y008543D01*
X017826Y006940D02*
X017879Y006953D01*
X017931Y006969D01*
X017981Y006988D01*
X018030Y007010D01*
X018078Y007036D01*
X018124Y007065D01*
X018167Y007097D01*
X019098Y007190D02*
X019128Y007247D01*
X019156Y007305D01*
X019179Y007365D01*
X019200Y007426D01*
X019216Y007489D01*
X019229Y007552D01*
X019239Y007616D01*
X019244Y007680D01*
X018683Y007959D02*
X018688Y008009D01*
X018695Y008059D01*
X018703Y008109D01*
X018665Y007706D02*
X018660Y007662D01*
X018651Y007618D01*
X018639Y007576D01*
X018623Y007534D01*
X018603Y007494D01*
X018581Y007456D01*
X018555Y007420D01*
X018527Y007386D01*
X018495Y007354D01*
X018461Y007326D01*
X018283Y007555D02*
X018305Y007573D01*
X018324Y007595D01*
X018341Y007618D01*
X018354Y007644D01*
X018364Y007671D01*
X018372Y007698D01*
X018375Y007727D01*
X018973Y007938D02*
X018977Y007981D01*
X012681Y017956D02*
X012643Y017973D01*
X012607Y017992D01*
X012572Y018015D01*
X012539Y018040D01*
X012508Y018067D01*
X012479Y018097D01*
X012452Y018129D01*
X012429Y018163D01*
X012408Y018198D01*
X012674Y019274D02*
X012702Y019274D01*
X012798Y019274D02*
X012824Y019274D01*
X005960Y011924D02*
X005962Y011896D01*
X007306Y011070D02*
X007332Y011058D01*
X007358Y011049D01*
X007385Y011044D01*
X005092Y018757D02*
X005071Y018752D01*
X005050Y018750D01*
D25*
X013878Y008744D03*
M02*
