G75*
%MOIN*%
%OFA0B0*%
%FSLAX24Y24*%
%IPPOS*%
%LPD*%
%AMOC8*
5,1,8,0,0,1.08239X$1,22.5*
%
%ADD10C,0.0000*%
%ADD11R,0.0160X0.0430*%
%ADD12R,0.0552X0.0670*%
%ADD13R,0.0512X0.0552*%
%ADD14R,0.0552X0.0512*%
%ADD15R,0.0640X0.0640*%
%ADD16OC8,0.0689*%
%ADD17R,0.4292X0.4138*%
%ADD18R,0.0460X0.0890*%
%ADD19R,0.0985X0.1064*%
%ADD20R,0.0827X0.0827*%
%ADD21R,0.0355X0.0355*%
%ADD22R,0.2481X0.2166*%
%ADD23R,0.0670X0.0434*%
%ADD24R,0.0670X0.0552*%
D10*
X000500Y000500D02*
X000500Y019996D01*
X000500Y020000D02*
X020000Y020000D01*
X020000Y019996D02*
X020000Y000500D01*
X000500Y000500D01*
D11*
X016329Y011135D03*
X016585Y011135D03*
X016841Y011135D03*
X017096Y011135D03*
X017352Y011135D03*
X017608Y011135D03*
X017864Y011135D03*
X018120Y011135D03*
X018376Y011135D03*
X018632Y011135D03*
X018632Y013432D03*
X018376Y013432D03*
X018120Y013432D03*
X017864Y013432D03*
X017608Y013432D03*
X017352Y013432D03*
X017096Y013432D03*
X016841Y013432D03*
X016585Y013432D03*
X016329Y013432D03*
D12*
X016900Y009000D03*
X018100Y009000D03*
X005466Y011575D03*
X004266Y011575D03*
D13*
X016935Y010031D03*
X017735Y010031D03*
X017900Y008000D03*
X017100Y008000D03*
D14*
X017185Y014832D03*
X017185Y015632D03*
X016315Y015344D03*
X016315Y016144D03*
D15*
X015500Y008000D03*
X005000Y014500D03*
D16*
X005000Y015500D03*
X004750Y018750D03*
X003750Y018750D03*
X001750Y018750D03*
X006750Y018750D03*
X007750Y018750D03*
X008750Y018750D03*
X009750Y018750D03*
X010750Y018750D03*
X012750Y018750D03*
X014750Y018750D03*
X015750Y018750D03*
X017750Y018750D03*
X018750Y018750D03*
X015500Y007000D03*
X015500Y006000D03*
X015500Y005000D03*
X015500Y004000D03*
X014750Y001750D03*
X013750Y001750D03*
X011750Y001750D03*
X010750Y001750D03*
X008750Y001750D03*
X006750Y001750D03*
X005750Y001750D03*
X004750Y001750D03*
X002750Y001750D03*
X001750Y001750D03*
X017750Y001750D03*
X018750Y001750D03*
D17*
X009547Y013331D03*
D18*
X009547Y010051D03*
X008877Y010051D03*
X008207Y010051D03*
X010217Y010051D03*
X010887Y010051D03*
D19*
X013106Y011089D03*
X013106Y008589D03*
X003961Y009719D03*
X003961Y007219D03*
D20*
X003287Y014500D03*
X001713Y014500D03*
D21*
X009106Y008528D03*
X009706Y008528D03*
D22*
X008886Y005874D03*
D23*
X006012Y004976D03*
X006012Y006772D03*
D24*
X017000Y006100D03*
X017000Y004900D03*
M02*
