G75*
%MOIN*%
%OFA0B0*%
%FSLAX24Y24*%
%IPPOS*%
%LPD*%
%AMOC8*
5,1,8,0,0,1.08239X$1,22.5*
%
%ADD10C,0.0000*%
%ADD11C,0.0600*%
%ADD12OC8,0.0600*%
%ADD13R,0.0591X0.0591*%
D10*
X000415Y000100D02*
X000415Y019785D01*
X020100Y019785D01*
X020100Y000100D01*
X000415Y000100D01*
D11*
X001887Y003537D02*
X002487Y003537D01*
X002487Y004537D02*
X001887Y004537D01*
X012762Y003496D02*
X012762Y002896D01*
X013762Y002896D02*
X013762Y003496D01*
X017785Y004458D02*
X018385Y004458D01*
X018385Y005458D02*
X017785Y005458D01*
X017779Y007236D02*
X018379Y007236D01*
X018379Y008236D02*
X017779Y008236D01*
X017781Y009992D02*
X018381Y009992D01*
X018381Y010992D02*
X017781Y010992D01*
X017785Y012742D02*
X018385Y012742D01*
X018385Y013742D02*
X017785Y013742D01*
X018148Y015942D02*
X018148Y016542D01*
X017148Y016542D02*
X017148Y015942D01*
X016148Y015942D02*
X016148Y016542D01*
X014407Y016739D02*
X014407Y016139D01*
X013407Y016139D02*
X013407Y016739D01*
X012407Y016739D02*
X012407Y016139D01*
X010561Y016139D02*
X010561Y016739D01*
X009561Y016739D02*
X009561Y016139D01*
X004959Y016139D02*
X004959Y016739D01*
X003959Y016739D02*
X003959Y016139D01*
X002959Y016139D02*
X002959Y016739D01*
D12*
X002750Y018419D03*
X003750Y018419D03*
X004750Y018419D03*
X005750Y018419D03*
X006750Y018419D03*
X007750Y018419D03*
X010750Y018419D03*
X011750Y018419D03*
X012750Y018419D03*
X013750Y018419D03*
X014750Y018419D03*
X015750Y018419D03*
X016750Y018419D03*
X017750Y018419D03*
X007890Y014006D03*
X006890Y014006D03*
X003690Y014006D03*
X002690Y014006D03*
X002690Y006706D03*
X003690Y006706D03*
X006890Y006706D03*
X007890Y006706D03*
X007750Y001419D03*
X006750Y001419D03*
X005750Y001419D03*
X004750Y001419D03*
X003750Y001419D03*
X002750Y001419D03*
X010750Y001419D03*
X011750Y001419D03*
X012750Y001419D03*
X013750Y001419D03*
X014750Y001419D03*
X015750Y001419D03*
X016750Y001419D03*
X017750Y001419D03*
D13*
X007994Y016439D03*
X006616Y016439D03*
M02*
