G75*
%MOIN*%
%OFA0B0*%
%FSLAX24Y24*%
%IPPOS*%
%LPD*%
%AMOC8*
5,1,8,0,0,1.08239X$1,22.5*
%
%ADD10C,0.0000*%
%ADD11C,0.0020*%
%ADD12C,0.0060*%
%ADD13C,0.0217*%
%ADD14C,0.0080*%
%ADD15C,0.0040*%
%ADD16R,0.0340X0.0300*%
%ADD17R,0.0354X0.1102*%
%ADD18C,0.0050*%
D10*
X000100Y000100D02*
X000100Y011596D01*
X015600Y011596D01*
X015600Y000100D01*
X000100Y000100D01*
X000576Y005800D02*
X000578Y005839D01*
X000584Y005878D01*
X000594Y005916D01*
X000607Y005953D01*
X000624Y005988D01*
X000644Y006022D01*
X000668Y006053D01*
X000695Y006082D01*
X000724Y006108D01*
X000756Y006131D01*
X000790Y006151D01*
X000826Y006167D01*
X000863Y006179D01*
X000902Y006188D01*
X000941Y006193D01*
X000980Y006194D01*
X001019Y006191D01*
X001058Y006184D01*
X001095Y006173D01*
X001132Y006159D01*
X001167Y006141D01*
X001200Y006120D01*
X001231Y006095D01*
X001259Y006068D01*
X001284Y006038D01*
X001306Y006005D01*
X001325Y005971D01*
X001340Y005935D01*
X001352Y005897D01*
X001360Y005859D01*
X001364Y005820D01*
X001364Y005780D01*
X001360Y005741D01*
X001352Y005703D01*
X001340Y005665D01*
X001325Y005629D01*
X001306Y005595D01*
X001284Y005562D01*
X001259Y005532D01*
X001231Y005505D01*
X001200Y005480D01*
X001167Y005459D01*
X001132Y005441D01*
X001095Y005427D01*
X001058Y005416D01*
X001019Y005409D01*
X000980Y005406D01*
X000941Y005407D01*
X000902Y005412D01*
X000863Y005421D01*
X000826Y005433D01*
X000790Y005449D01*
X000756Y005469D01*
X000724Y005492D01*
X000695Y005518D01*
X000668Y005547D01*
X000644Y005578D01*
X000624Y005612D01*
X000607Y005647D01*
X000594Y005684D01*
X000584Y005722D01*
X000578Y005761D01*
X000576Y005800D01*
X014366Y005800D02*
X014368Y005839D01*
X014374Y005878D01*
X014384Y005916D01*
X014397Y005953D01*
X014414Y005988D01*
X014434Y006022D01*
X014458Y006053D01*
X014485Y006082D01*
X014514Y006108D01*
X014546Y006131D01*
X014580Y006151D01*
X014616Y006167D01*
X014653Y006179D01*
X014692Y006188D01*
X014731Y006193D01*
X014770Y006194D01*
X014809Y006191D01*
X014848Y006184D01*
X014885Y006173D01*
X014922Y006159D01*
X014957Y006141D01*
X014990Y006120D01*
X015021Y006095D01*
X015049Y006068D01*
X015074Y006038D01*
X015096Y006005D01*
X015115Y005971D01*
X015130Y005935D01*
X015142Y005897D01*
X015150Y005859D01*
X015154Y005820D01*
X015154Y005780D01*
X015150Y005741D01*
X015142Y005703D01*
X015130Y005665D01*
X015115Y005629D01*
X015096Y005595D01*
X015074Y005562D01*
X015049Y005532D01*
X015021Y005505D01*
X014990Y005480D01*
X014957Y005459D01*
X014922Y005441D01*
X014885Y005427D01*
X014848Y005416D01*
X014809Y005409D01*
X014770Y005406D01*
X014731Y005407D01*
X014692Y005412D01*
X014653Y005421D01*
X014616Y005433D01*
X014580Y005449D01*
X014546Y005469D01*
X014514Y005492D01*
X014485Y005518D01*
X014458Y005547D01*
X014434Y005578D01*
X014414Y005612D01*
X014397Y005647D01*
X014384Y005684D01*
X014374Y005722D01*
X014368Y005761D01*
X014366Y005800D01*
D11*
X003970Y009310D02*
X003972Y009333D01*
X003978Y009355D01*
X003987Y009377D01*
X004000Y009396D01*
X004015Y009413D01*
X004033Y009427D01*
X004054Y009438D01*
X004076Y009446D01*
X004098Y009450D01*
X004122Y009450D01*
X004144Y009446D01*
X004166Y009438D01*
X004187Y009427D01*
X004205Y009413D01*
X004220Y009396D01*
X004233Y009377D01*
X004242Y009355D01*
X004248Y009333D01*
X004250Y009310D01*
X004248Y009287D01*
X004242Y009265D01*
X004233Y009243D01*
X004220Y009224D01*
X004205Y009207D01*
X004187Y009193D01*
X004166Y009182D01*
X004144Y009174D01*
X004122Y009170D01*
X004098Y009170D01*
X004076Y009174D01*
X004054Y009182D01*
X004033Y009193D01*
X004015Y009207D01*
X004000Y009224D01*
X003987Y009243D01*
X003978Y009265D01*
X003972Y009287D01*
X003970Y009310D01*
X000877Y009315D02*
X000841Y009279D01*
X000694Y009279D01*
X000657Y009315D01*
X000657Y009389D01*
X000694Y009425D01*
X000767Y009425D02*
X000767Y009352D01*
X000767Y009425D02*
X000841Y009425D01*
X000877Y009389D01*
X000877Y009315D01*
X000877Y009500D02*
X000657Y009500D01*
X000877Y009646D01*
X000657Y009646D01*
X000657Y009720D02*
X000657Y009831D01*
X000694Y009867D01*
X000841Y009867D01*
X000877Y009831D01*
X000877Y009720D01*
X000657Y009720D01*
X000767Y010168D02*
X000767Y010315D01*
X000731Y010389D02*
X000657Y010462D01*
X000877Y010462D01*
X000877Y010389D02*
X000877Y010536D01*
X000877Y010610D02*
X000731Y010757D01*
X000694Y010757D01*
X000657Y010720D01*
X000657Y010647D01*
X000694Y010610D01*
X000877Y010610D02*
X000877Y010757D01*
X000804Y010831D02*
X000657Y010831D01*
X000657Y010978D02*
X000804Y010978D01*
X000877Y010904D01*
X000804Y010831D01*
X000841Y010241D02*
X000694Y010241D01*
X000877Y008830D02*
X000877Y008684D01*
X000877Y008757D02*
X000657Y008757D01*
X000731Y008684D01*
X000657Y008609D02*
X000877Y008609D01*
X000657Y008463D01*
X000877Y008463D01*
X000877Y008389D02*
X000877Y008315D01*
X000877Y008352D02*
X000657Y008352D01*
X000657Y008315D02*
X000657Y008389D01*
X000694Y007830D02*
X000657Y007794D01*
X000657Y007720D01*
X000694Y007684D01*
X000657Y007609D02*
X000877Y007609D01*
X000657Y007463D01*
X000877Y007463D01*
X000877Y007389D02*
X000877Y007315D01*
X000877Y007352D02*
X000657Y007352D01*
X000657Y007315D02*
X000657Y007389D01*
X000877Y007684D02*
X000731Y007830D01*
X000694Y007830D01*
X000877Y007830D02*
X000877Y007684D01*
D12*
X001100Y007850D02*
X001350Y008100D01*
X001100Y008350D01*
X001100Y008850D01*
X001350Y009100D01*
X001850Y009100D01*
X002100Y008850D01*
X002100Y008350D01*
X001850Y008100D01*
X002100Y007850D01*
X002100Y007350D01*
X001850Y007100D01*
X001350Y007100D01*
X001100Y007350D01*
X001100Y007850D01*
X001350Y008100D02*
X001850Y008100D01*
X001850Y009100D02*
X002100Y009350D01*
X002100Y009850D01*
X001850Y010100D01*
X002100Y010350D01*
X002100Y010850D01*
X001850Y011100D01*
X001350Y011100D01*
X001100Y010850D01*
X001100Y010350D01*
X001350Y010100D01*
X001850Y010100D01*
X001350Y010100D02*
X001100Y009850D01*
X001100Y009350D01*
X001350Y009100D01*
X003270Y006519D02*
X003270Y006345D01*
X003270Y006432D02*
X003010Y006432D01*
X003097Y006345D01*
X003140Y006224D02*
X003183Y006181D01*
X003183Y006051D01*
X003183Y006137D02*
X003270Y006224D01*
X003140Y006224D02*
X003053Y006224D01*
X003010Y006181D01*
X003010Y006051D01*
X003270Y006051D01*
X003848Y004826D02*
X006352Y004826D01*
X006352Y001383D01*
X004051Y001383D01*
X004051Y004787D01*
X003848Y004826D02*
X003848Y001383D01*
X004051Y001383D01*
X010441Y001297D02*
X010571Y001297D01*
X010614Y001340D01*
X010614Y001427D01*
X010571Y001470D01*
X010441Y001470D01*
X010441Y001210D01*
X010527Y001297D02*
X010614Y001210D01*
X010735Y001253D02*
X010735Y001340D01*
X010865Y001340D01*
X010909Y001297D01*
X010909Y001253D01*
X010865Y001210D01*
X010779Y001210D01*
X010735Y001253D01*
X010735Y001340D02*
X010822Y001427D01*
X010909Y001470D01*
X005655Y006730D02*
X005568Y006730D01*
X005525Y006773D01*
X005525Y006860D02*
X005611Y006903D01*
X005655Y006903D01*
X005698Y006860D01*
X005698Y006773D01*
X005655Y006730D01*
X005525Y006860D02*
X005525Y006990D01*
X005698Y006990D01*
X005403Y006947D02*
X005403Y006860D01*
X005360Y006817D01*
X005230Y006817D01*
X005317Y006817D02*
X005403Y006730D01*
X005230Y006730D02*
X005230Y006990D01*
X005360Y006990D01*
X005403Y006947D01*
X005409Y009720D02*
X005235Y009720D01*
X005409Y009893D01*
X005409Y009937D01*
X005365Y009980D01*
X005279Y009980D01*
X005235Y009937D01*
X005114Y009937D02*
X005114Y009850D01*
X005071Y009807D01*
X004941Y009807D01*
X005027Y009807D02*
X005114Y009720D01*
X004941Y009720D02*
X004941Y009980D01*
X005071Y009980D01*
X005114Y009937D01*
D13*
X004313Y004478D03*
D14*
X002830Y004730D02*
X001930Y004730D01*
X001930Y006690D01*
X002830Y006690D01*
X002830Y004730D01*
X005120Y005650D02*
X005120Y006550D01*
X007080Y006550D01*
X007080Y005650D01*
X005120Y005650D01*
X008164Y006376D02*
X008164Y009921D01*
X005580Y010160D02*
X005580Y011060D01*
X003620Y011060D01*
X003620Y010160D01*
X005580Y010160D01*
X008164Y006376D02*
X012036Y006376D01*
X012036Y009921D01*
X011080Y002550D02*
X009120Y002550D01*
X009120Y001650D01*
X011080Y001650D01*
X011080Y002550D01*
D15*
X008580Y004273D02*
X008120Y004273D01*
X008120Y004120D02*
X008120Y004427D01*
X008273Y004580D02*
X008120Y004734D01*
X008580Y004734D01*
X008580Y004887D02*
X008580Y004580D01*
X005100Y009070D02*
X004980Y009070D01*
X004920Y009130D01*
X004920Y009190D01*
X004980Y009250D01*
X005100Y009250D01*
X005160Y009190D01*
X005160Y009130D01*
X005100Y009070D01*
X005100Y009250D02*
X005160Y009310D01*
X005160Y009370D01*
X005100Y009430D01*
X004980Y009430D01*
X004920Y009370D01*
X004920Y009310D01*
X004980Y009250D01*
D16*
X010100Y006210D03*
D17*
X011100Y005785D03*
X009100Y005785D03*
D18*
X005310Y007670D02*
X005310Y009530D01*
X003890Y009530D01*
X003890Y007670D01*
X005310Y007670D01*
X013200Y009100D02*
X013202Y009159D01*
X013208Y009219D01*
X013218Y009277D01*
X013231Y009335D01*
X013249Y009392D01*
X013270Y009448D01*
X013295Y009502D01*
X013323Y009554D01*
X013355Y009605D01*
X013390Y009653D01*
X013428Y009699D01*
X013469Y009742D01*
X013513Y009782D01*
X013559Y009819D01*
X013608Y009853D01*
X013659Y009884D01*
X013711Y009912D01*
X013766Y009936D01*
X013822Y009956D01*
X013879Y009972D01*
X013937Y009985D01*
X013996Y009994D01*
X014055Y009999D01*
X014115Y010000D01*
X014174Y009997D01*
X014233Y009990D01*
X014292Y009979D01*
X014350Y009965D01*
X014406Y009946D01*
X014462Y009924D01*
X014515Y009899D01*
X014567Y009869D01*
X014617Y009837D01*
X014664Y009801D01*
X014710Y009762D01*
X014752Y009720D01*
X014792Y009676D01*
X014828Y009629D01*
X014861Y009580D01*
X014892Y009528D01*
X014918Y009475D01*
X014941Y009420D01*
X014960Y009364D01*
X014976Y009306D01*
X014988Y009248D01*
X014996Y009189D01*
X015000Y009130D01*
X015000Y009070D01*
X014996Y009011D01*
X014988Y008952D01*
X014976Y008894D01*
X014960Y008836D01*
X014941Y008780D01*
X014918Y008725D01*
X014892Y008672D01*
X014861Y008620D01*
X014828Y008571D01*
X014792Y008524D01*
X014752Y008480D01*
X014710Y008438D01*
X014664Y008399D01*
X014617Y008363D01*
X014567Y008331D01*
X014515Y008301D01*
X014462Y008276D01*
X014406Y008254D01*
X014350Y008235D01*
X014292Y008221D01*
X014233Y008210D01*
X014174Y008203D01*
X014115Y008200D01*
X014055Y008201D01*
X013996Y008206D01*
X013937Y008215D01*
X013879Y008228D01*
X013822Y008244D01*
X013766Y008264D01*
X013711Y008288D01*
X013659Y008316D01*
X013608Y008347D01*
X013559Y008381D01*
X013513Y008418D01*
X013469Y008458D01*
X013428Y008501D01*
X013390Y008547D01*
X013355Y008595D01*
X013323Y008646D01*
X013295Y008698D01*
X013270Y008752D01*
X013249Y008808D01*
X013231Y008865D01*
X013218Y008923D01*
X013208Y008981D01*
X013202Y009041D01*
X013200Y009100D01*
X013200Y004100D02*
X013202Y004159D01*
X013208Y004219D01*
X013218Y004277D01*
X013231Y004335D01*
X013249Y004392D01*
X013270Y004448D01*
X013295Y004502D01*
X013323Y004554D01*
X013355Y004605D01*
X013390Y004653D01*
X013428Y004699D01*
X013469Y004742D01*
X013513Y004782D01*
X013559Y004819D01*
X013608Y004853D01*
X013659Y004884D01*
X013711Y004912D01*
X013766Y004936D01*
X013822Y004956D01*
X013879Y004972D01*
X013937Y004985D01*
X013996Y004994D01*
X014055Y004999D01*
X014115Y005000D01*
X014174Y004997D01*
X014233Y004990D01*
X014292Y004979D01*
X014350Y004965D01*
X014406Y004946D01*
X014462Y004924D01*
X014515Y004899D01*
X014567Y004869D01*
X014617Y004837D01*
X014664Y004801D01*
X014710Y004762D01*
X014752Y004720D01*
X014792Y004676D01*
X014828Y004629D01*
X014861Y004580D01*
X014892Y004528D01*
X014918Y004475D01*
X014941Y004420D01*
X014960Y004364D01*
X014976Y004306D01*
X014988Y004248D01*
X014996Y004189D01*
X015000Y004130D01*
X015000Y004070D01*
X014996Y004011D01*
X014988Y003952D01*
X014976Y003894D01*
X014960Y003836D01*
X014941Y003780D01*
X014918Y003725D01*
X014892Y003672D01*
X014861Y003620D01*
X014828Y003571D01*
X014792Y003524D01*
X014752Y003480D01*
X014710Y003438D01*
X014664Y003399D01*
X014617Y003363D01*
X014567Y003331D01*
X014515Y003301D01*
X014462Y003276D01*
X014406Y003254D01*
X014350Y003235D01*
X014292Y003221D01*
X014233Y003210D01*
X014174Y003203D01*
X014115Y003200D01*
X014055Y003201D01*
X013996Y003206D01*
X013937Y003215D01*
X013879Y003228D01*
X013822Y003244D01*
X013766Y003264D01*
X013711Y003288D01*
X013659Y003316D01*
X013608Y003347D01*
X013559Y003381D01*
X013513Y003418D01*
X013469Y003458D01*
X013428Y003501D01*
X013390Y003547D01*
X013355Y003595D01*
X013323Y003646D01*
X013295Y003698D01*
X013270Y003752D01*
X013249Y003808D01*
X013231Y003865D01*
X013218Y003923D01*
X013208Y003981D01*
X013202Y004041D01*
X013200Y004100D01*
X013200Y001600D02*
X013202Y001659D01*
X013208Y001719D01*
X013218Y001777D01*
X013231Y001835D01*
X013249Y001892D01*
X013270Y001948D01*
X013295Y002002D01*
X013323Y002054D01*
X013355Y002105D01*
X013390Y002153D01*
X013428Y002199D01*
X013469Y002242D01*
X013513Y002282D01*
X013559Y002319D01*
X013608Y002353D01*
X013659Y002384D01*
X013711Y002412D01*
X013766Y002436D01*
X013822Y002456D01*
X013879Y002472D01*
X013937Y002485D01*
X013996Y002494D01*
X014055Y002499D01*
X014115Y002500D01*
X014174Y002497D01*
X014233Y002490D01*
X014292Y002479D01*
X014350Y002465D01*
X014406Y002446D01*
X014462Y002424D01*
X014515Y002399D01*
X014567Y002369D01*
X014617Y002337D01*
X014664Y002301D01*
X014710Y002262D01*
X014752Y002220D01*
X014792Y002176D01*
X014828Y002129D01*
X014861Y002080D01*
X014892Y002028D01*
X014918Y001975D01*
X014941Y001920D01*
X014960Y001864D01*
X014976Y001806D01*
X014988Y001748D01*
X014996Y001689D01*
X015000Y001630D01*
X015000Y001570D01*
X014996Y001511D01*
X014988Y001452D01*
X014976Y001394D01*
X014960Y001336D01*
X014941Y001280D01*
X014918Y001225D01*
X014892Y001172D01*
X014861Y001120D01*
X014828Y001071D01*
X014792Y001024D01*
X014752Y000980D01*
X014710Y000938D01*
X014664Y000899D01*
X014617Y000863D01*
X014567Y000831D01*
X014515Y000801D01*
X014462Y000776D01*
X014406Y000754D01*
X014350Y000735D01*
X014292Y000721D01*
X014233Y000710D01*
X014174Y000703D01*
X014115Y000700D01*
X014055Y000701D01*
X013996Y000706D01*
X013937Y000715D01*
X013879Y000728D01*
X013822Y000744D01*
X013766Y000764D01*
X013711Y000788D01*
X013659Y000816D01*
X013608Y000847D01*
X013559Y000881D01*
X013513Y000918D01*
X013469Y000958D01*
X013428Y001001D01*
X013390Y001047D01*
X013355Y001095D01*
X013323Y001146D01*
X013295Y001198D01*
X013270Y001252D01*
X013249Y001308D01*
X013231Y001365D01*
X013218Y001423D01*
X013208Y001481D01*
X013202Y001541D01*
X013200Y001600D01*
M02*
